<svg width="234" height="181" viewBox="0 0 234 181" fill="none" xmlns="http://www.w3.org/2000/svg">
<g clip-path="url(#clip0_79_806)">
<path d="M141.655 112.68L141.275 117.146C141.23 117.667 140.98 118.15 140.58 118.487C140.18 118.824 139.662 118.989 139.14 118.945L101.916 115.779C101.395 115.734 100.913 115.484 100.575 115.084C100.238 114.683 100.073 114.166 100.117 113.644L100.497 109.178C100.542 108.657 100.792 108.174 101.192 107.837C101.592 107.5 102.11 107.335 102.631 107.379L139.855 110.545C140.376 110.59 140.859 110.84 141.196 111.24C141.533 111.64 141.698 112.158 141.655 112.68V112.68Z" fill="#F2B950"/>
<path d="M149.074 134.464L144.951 136.224C143.95 136.651 142.919 136.492 142.654 135.87L133.548 114.527C133.283 113.906 133.881 113.052 134.883 112.625L139.005 110.866C140.007 110.439 141.037 110.597 141.302 111.219L150.408 132.562C150.674 133.184 150.075 134.037 149.074 134.464Z" fill="#F2B950"/>
<path d="M127.248 127.55H57.4317C58.2358 121.73 57.244 115.804 54.589 110.563C51.9339 105.322 47.7422 101.016 42.5742 98.2219C37.4062 95.4276 31.5083 94.2775 25.6691 94.9256C19.8299 95.5737 14.3277 97.9889 9.89815 101.848C5.46863 105.708 2.32293 110.828 0.881651 116.523C-0.559626 122.219 -0.22778 128.219 1.83281 133.72C3.89341 139.222 7.58454 143.964 12.4127 147.311C17.2408 150.659 22.9758 152.453 28.8509 152.453C32.3804 152.456 35.8805 151.811 39.1765 150.548V178.57C39.1765 179.215 39.4324 179.833 39.888 180.288C40.3437 180.744 40.9616 181 41.606 181H127.248C127.892 181 128.51 180.744 128.965 180.288C129.421 179.833 129.677 179.215 129.677 178.57V129.979C129.677 129.335 129.421 128.717 128.965 128.261C128.51 127.806 127.892 127.55 127.248 127.55Z" fill="#E6E6E6"/>
<path d="M132.41 174.622H46.7688C46.0441 174.622 45.3494 174.333 44.837 173.821C44.3246 173.309 44.0364 172.614 44.0355 171.889V123.298C44.0364 122.574 44.3246 121.879 44.837 121.366C45.3494 120.854 46.0441 120.566 46.7688 120.565H132.41C133.135 120.566 133.83 120.854 134.342 121.366C134.855 121.879 135.143 122.574 135.144 123.298V171.889C135.143 172.614 134.855 173.309 134.342 173.821C133.83 174.333 133.135 174.622 132.41 174.622ZM46.7688 121.172C46.2052 121.173 45.6648 121.397 45.2663 121.796C44.8678 122.194 44.6436 122.735 44.6429 123.298V171.889C44.6436 172.453 44.8678 172.993 45.2663 173.392C45.6648 173.79 46.2052 174.014 46.7688 174.015H132.41C132.974 174.014 133.514 173.79 133.913 173.392C134.311 172.993 134.536 172.453 134.536 171.889V123.298C134.536 122.735 134.311 122.194 133.913 121.796C133.514 121.397 132.974 121.173 132.41 121.172H46.7688Z" fill="#3F3D56"/>
<path d="M132.544 116.02L132.164 120.486C132.119 121.008 131.869 121.49 131.469 121.827C131.069 122.165 130.551 122.329 130.03 122.286L92.8056 119.119C92.2842 119.074 91.8019 118.824 91.4645 118.424C91.1272 118.024 90.9623 117.506 91.0061 116.985L91.386 112.518C91.431 111.997 91.6809 111.515 92.0811 111.177C92.4812 110.84 92.9987 110.675 93.5203 110.719L130.744 113.886C131.266 113.931 131.748 114.181 132.085 114.581C132.423 114.981 132.588 115.498 132.544 116.02V116.02Z" fill="#F2B950"/>
<path d="M139.963 137.805L135.84 139.564C134.839 139.991 133.809 139.833 133.543 139.211L124.437 117.868C124.172 117.246 124.771 116.393 125.772 115.966L129.895 114.207C130.896 113.78 131.926 113.938 132.191 114.56L141.297 135.903C141.563 136.525 140.964 137.378 139.963 137.805Z" fill="#F2B950"/>
<path d="M207.791 0.327718L200.075 6.23584L205.983 13.9519L213.699 8.04376L207.791 0.327718Z" fill="#F2B950"/>
<path d="M164.159 61.3923C167.849 61.3923 170.84 58.401 170.84 54.711C170.84 51.0211 167.849 48.0298 164.159 48.0298C160.469 48.0298 157.477 51.0211 157.477 54.711C157.477 58.401 160.469 61.3923 164.159 61.3923Z" fill="#FF6584"/>
<path d="M162.445 59.4663C161.605 58.3694 161.109 57.0481 161.02 55.6695C160.931 54.2909 161.253 52.9168 161.945 51.7211C162.637 50.5254 163.668 49.5618 164.908 48.952C166.147 48.3423 167.54 48.1138 168.909 48.2956C170.279 48.4773 171.564 49.061 172.601 49.973C173.639 50.8849 174.383 52.0841 174.739 53.4189C175.095 54.7537 175.048 56.1641 174.602 57.4719C174.157 58.7796 173.334 59.9258 172.237 60.7657C170.765 61.8899 168.908 62.3845 167.072 62.1408C165.236 61.8972 163.572 60.9354 162.445 59.4663V59.4663ZM173.054 51.3426C172.287 50.3411 171.241 49.5895 170.047 49.1828C168.853 48.7761 167.565 48.7327 166.346 49.0579C165.127 49.3831 164.033 50.0624 163.2 51.0099C162.367 51.9574 161.834 53.1305 161.668 54.3809C161.502 55.6313 161.711 56.9028 162.268 58.0347C162.824 59.1665 163.704 60.1079 164.796 60.7397C165.888 61.3715 167.142 61.6653 168.401 61.5841C169.66 61.5029 170.866 61.0503 171.868 60.2835C173.209 59.254 174.087 57.7345 174.31 56.0584C174.532 54.3822 174.081 52.6863 173.054 51.3426V51.3426Z" fill="#3F3D56"/>
<path d="M208.297 14.4757L202.019 6.27738L210.217 0L216.495 8.19829L208.297 14.4757ZM202.871 6.39037L208.41 13.6242L215.643 8.0853L210.104 0.851524L202.871 6.39037Z" fill="#3F3D56"/>
<path d="M224.428 54.526L216.712 60.4341L222.62 68.1501L230.336 62.242L224.428 54.526Z" fill="#F2B950"/>
<path d="M224.933 68.6734L218.656 60.4751L226.854 54.1978L233.132 62.396L224.933 68.6734ZM219.507 60.5881L225.046 67.8219L232.28 62.2831L226.741 55.0493L219.507 60.5881Z" fill="#3F3D56"/>
<path d="M189.808 174.015H0.303688V174.623H189.808V174.015Z" fill="#3F3D56"/>
<path d="M32.7989 144.86C27.0327 144.86 21.3959 143.151 16.6015 139.947C11.807 136.743 8.07022 132.19 5.86357 126.863C3.65693 121.536 3.07958 115.674 4.20451 110.018C5.32945 104.363 8.10615 99.1678 12.1835 95.0905C16.2608 91.0131 21.4557 88.2364 27.1111 87.1115C32.7665 85.9865 38.6285 86.5639 43.9558 88.7705C49.2832 90.9772 53.8365 94.714 57.04 99.5084C60.2436 104.303 61.9534 109.94 61.9534 115.706C61.9447 123.435 58.8703 130.846 53.4046 136.312C47.939 141.777 40.5285 144.852 32.7989 144.86ZM32.7989 87.1587C27.1528 87.1587 21.6335 88.8329 16.9389 91.9697C12.2444 95.1065 8.5854 99.565 6.42473 104.781C4.26406 109.998 3.69873 115.738 4.80023 121.275C5.90173 126.813 8.62059 131.899 12.613 135.892C16.6054 139.884 21.692 142.603 27.2296 143.705C32.7672 144.806 38.5071 144.241 43.7234 142.08C48.9397 139.919 53.3982 136.26 56.535 131.566C59.6718 126.871 61.3461 121.352 61.3461 115.706C61.3375 108.137 58.3271 100.881 52.9753 95.5294C47.6236 90.1776 40.3674 87.1672 32.7989 87.1587V87.1587Z" fill="#3F3D56"/>
<path d="M96.0951 72.4385C105.072 72.4385 112.349 65.1616 112.349 56.1851C112.349 47.2085 105.072 39.9316 96.0951 39.9316C87.1186 39.9316 79.8417 47.2085 79.8417 56.1851C79.8417 65.1616 87.1186 72.4385 96.0951 72.4385Z" fill="#F2B950"/>
<path d="M98.4869 62.2094L98.47 61.6021C99.5999 61.5706 100.596 61.4997 101.345 60.9529C101.557 60.789 101.731 60.5813 101.856 60.344C101.981 60.1067 102.053 59.8453 102.068 59.5776C102.081 59.4141 102.056 59.2496 101.996 59.0972C101.935 58.9447 101.84 58.8083 101.718 58.6986C101.221 58.2789 100.421 58.4148 99.8385 58.682L99.336 58.9124L100.3 51.8696L100.901 51.9521L100.082 57.9429C100.874 57.7101 101.607 57.8103 102.11 58.2347C102.303 58.4032 102.454 58.614 102.552 58.8506C102.65 59.0873 102.692 59.3434 102.675 59.599C102.657 59.9587 102.561 60.3102 102.393 60.6288C102.225 60.9474 101.99 61.2254 101.703 61.4434C100.741 62.1463 99.4912 62.1813 98.4869 62.2094Z" fill="#2F2E41"/>
<path d="M107.149 52.4688H103.877V53.0761H107.149V52.4688Z" fill="#2F2E41"/>
<path d="M96.8231 52.4688H93.5518V53.0761H96.8231V52.4688Z" fill="#2F2E41"/>
<path d="M119.352 121.324H81.0861C80.7238 121.324 80.3764 121.18 80.1202 120.924C79.864 120.668 79.7199 120.32 79.7195 119.958V89.2178C79.7237 85.4916 81.2058 81.9191 83.8407 79.2843C86.4756 76.6494 90.048 75.1673 93.7742 75.1631H106.293C106.651 75.1635 106.995 75.3045 107.251 75.5558C107.506 75.8071 107.653 76.1486 107.659 76.5069L120.718 119.936V119.958C120.718 120.32 120.574 120.668 120.317 120.924C120.061 121.18 119.714 121.324 119.352 121.324V121.324Z" fill="#2F2E41"/>
<path d="M93.9332 87.6006L98.4153 87.6359C98.9387 87.6406 99.4387 87.8527 99.8059 88.2256C100.173 88.5986 100.377 89.102 100.374 89.6253L100.08 126.983C100.075 127.506 99.8634 128.006 99.4904 128.373C99.1175 128.74 98.6141 128.945 98.0908 128.941L93.6086 128.906C93.0853 128.901 92.5852 128.689 92.218 128.316C91.8509 127.943 91.6467 127.44 91.6502 126.916L91.9437 89.5591C91.9484 89.0357 92.1605 88.5356 92.5335 88.1685C92.9065 87.8013 93.4098 87.5971 93.9332 87.6006V87.6006Z" fill="#F2B950"/>
<path d="M89.4377 86.0958C89.4377 84.3238 90.1416 82.6244 91.3946 81.3714C92.6476 80.1185 94.347 79.4146 96.119 79.4146C97.891 79.4146 99.5904 80.1185 100.843 81.3714C102.096 82.6244 102.8 84.3238 102.8 86.0958V100.977H89.4377V86.0958Z" fill="#2F2E41"/>
<path d="M91.2939 48.5298C92.8333 46.9459 95.0696 46.6736 97.1741 46.8459C99.4277 47.0305 101.563 47.7791 103.774 48.1955C105.954 48.6062 108.318 48.7902 110.402 47.8805C111.364 47.4484 112.198 46.7741 112.822 45.9236C113.446 45.0731 113.839 44.0754 113.962 43.0278C114.231 40.8277 113.661 38.6073 112.366 36.8086C110.939 34.7917 108.911 33.3143 106.803 32.0743C102.259 29.4012 97.1927 27.0622 91.8763 26.6298C87.0766 26.2394 81.9871 27.5658 78.6108 31.1504C75.4458 34.5106 74.0984 39.2001 73.8183 43.7161C73.4607 49.4799 74.8059 55.172 75.2926 60.8872C75.6714 65.3342 75.5296 70.673 71.9179 73.8666C68.7234 76.6914 63.8591 76.6577 60.0927 75.1146C55.616 73.2804 52.4747 69.163 50.0988 65.1162C49.494 64.0859 48.9254 63.035 48.3741 61.9754C48.1033 61.455 47.3168 61.9152 47.5874 62.4352C49.8109 66.7082 52.3972 70.9763 56.2865 73.9373C59.6871 76.5263 64.2245 77.7734 68.4278 76.6792C70.4657 76.1705 72.2861 75.0201 73.6203 73.3979C75.0609 71.603 75.817 69.3945 76.1323 67.135C76.4699 64.7167 76.3522 62.2797 76.1077 59.8587C75.8133 56.944 75.344 54.0507 75.0226 51.1392C74.4752 46.1808 74.3998 41.0347 76.359 36.3498C77.2036 34.2605 78.5159 32.3925 80.195 30.8895C82.0329 29.3401 84.2378 28.2887 86.5986 27.8361C91.7489 26.7673 96.9846 28.2144 101.647 30.395C104 31.4462 106.253 32.71 108.376 34.1707C110.258 35.5177 112.011 37.2821 112.736 39.5318C113.361 41.4706 113.309 43.7657 112.063 45.4562C110.732 47.263 108.425 47.7141 106.309 47.6053C101.964 47.3819 97.5858 44.8569 93.214 46.298C92.2433 46.6118 91.3633 47.1566 90.6496 47.8856C90.2408 48.3063 90.8843 48.9512 91.2939 48.5298V48.5298Z" fill="#2F2E41"/>
</g>
<defs>
<clipPath id="clip0_79_806">
<rect width="233.132" height="181" fill="white"/>
</clipPath>
</defs>
</svg>
