<?xml version="1.0" encoding="utf-8"?>
<!-- Generator: Adobe Illustrator 26.0.1, SVG Export Plug-In . SVG Version: 6.00 Build 0)  -->
<svg version="1.1" id="Layer_1" xmlns="http://www.w3.org/2000/svg" xmlns:xlink="http://www.w3.org/1999/xlink" x="0px" y="0px"
	 viewBox="0 0 792 90.81" style="enable-background:new 0 0 792 90.81;" xml:space="preserve">
<style type="text/css">
	.st0{fill:#152735;}
	.st1{fill:#132634;}
	.st2{fill:#142634;}
	.st3{fill:#19B159;}
	.st4{fill:#99E25F;}
	.st5{fill:#132633;}
	.st6{fill:#102331;}
</style>
<g>
	<g>
		<path class="st0" d="M101.56,49.28c1.15,0.29,2.36,0.61,3.58,0.91c13.69,3.35,15.08,20.07,8.98,28.45
			c-3.6,4.94-8.68,7.74-14.74,7.81c-19.36,0.23-38.73,0.15-58.1,0.18c-0.25,0-0.5-0.23-0.94-0.44c0-23.71,0-47.51,0-71.73
			c2.49,0,4.78,0,7.07,0c15.44,0,30.88-0.11,46.32,0.06c6.54,0.07,12.8,0.99,17.77,6.28c6.11,6.51,5.18,19.15-2.31,24.1
			C106.82,46.48,104.24,47.76,101.56,49.28z M55.06,55.15c0,6.6,0,12.75,0,19.13c12.36,0,24.53,0.34,36.68-0.12
			c7.81-0.3,11.3-5.84,8.94-12.84c-1.6-4.72-5.68-6.04-10.03-6.1C78.89,55.03,67.14,55.15,55.06,55.15z M54.99,43.75
			c6.54,0,12.63,0.07,18.71-0.02c6.1-0.09,12.23,0.02,18.28-0.63c5.47-0.59,8.1-3.96,7.83-8.6c-0.25-4.29-2.77-6.75-8.28-7.07
			C85,27.05,78.45,27.17,71.9,27.12c-5.6-0.04-11.2-0.01-16.92-0.01C54.99,32.86,54.99,38.02,54.99,43.75z"/>
		<path class="st1" d="M449.69,86.73c-5.09,0-10.01,0.11-14.93-0.08c-1.12-0.04-2.47-0.86-3.24-1.74
			c-7.08-8.04-14.02-16.2-21.09-24.26c-5.01-5.71-10.16-11.32-15.25-16.96c-3.05-3.38-6.11-6.76-10.03-11.09c0,18.7,0,36.19,0,53.91
			c-5.14,0-9.71,0-14.49,0c0-23.97,0-47.78,0-72.04c5.73,0,11.37-0.1,16.99,0.08c1.1,0.04,2.43,0.93,3.22,1.82
			c9.1,10.3,18.06,20.71,27.17,31c5.42,6.11,11.05,12.04,17.1,18.61c0-17.36,0-34.13,0-51.21c5.05,0,9.63,0,14.54,0
			C449.69,38.44,449.69,62.23,449.69,86.73z"/>
		<path class="st0" d="M513.38,43.23c0,4.38,0,8.06,0,12.05c-11.32,0-22.34,0-33.55,0c0,6.34,0,12.37,0,18.83
			c18.65,0,37.35,0,56.36,0c0,4.24,0,8.07,0,12.26c-23.55,0-47.17,0-71.02,0c0-23.77,0-47.58,0-71.65c23.54,0,47.07,0,70.97,0
			c0,3.97,0,8.04,0,12.45c-18.71,0-37.29,0-56.19,0c0,5.43,0,10.55,0,16.06C490.9,43.23,501.9,43.23,513.38,43.23z"/>
		<path class="st2" d="M638.38,86.74c-6.51,0-12.03,0.08-17.54-0.06c-1.18-0.03-2.66-0.52-3.46-1.33
			c-5.55-5.59-10.95-11.33-16.41-17.02c-2.55-2.66-5.11-5.33-7.82-8.16c-7.46,7.87-14.94,15.7-22.34,23.6
			c-2,2.14-4.18,3.2-7.24,3.03c-4.73-0.26-9.49-0.07-15.2-0.07c12.1-12.58,23.54-24.48,35.19-36.58
			c-11.23-11.78-22.28-23.36-34.01-35.65c6.76,0,12.78-0.23,18.75,0.16c1.54,0.1,3.14,1.94,4.41,3.26
			c5.94,6.19,11.83,12.43,17.63,18.75c2.09,2.28,3.75,2.6,6.01,0.15c5.81-6.31,11.8-12.46,17.69-18.7c2.13-2.26,4.27-4.01,7.83-3.74
			c4.77,0.36,9.59,0.09,15.33,0.09c-11.64,12.15-22.76,23.75-34.12,35.6C614.68,62.11,626.16,74.03,638.38,86.74z"/>
		<path class="st3" d="M734.33,7.47c-1.35,1.25-2.83,2.38-4.01,3.77c-4.71,5.58-9.07,11.47-14.02,16.82
			c-9.87,10.66-21.13,19.73-33.7,27.11c-2.23,1.31-4.74,2.22-7.2,3.09c-5.49,1.93-11.03,3.72-17.23,5.8
			c-0.9-10.41,0.41-19.36,4.25-27.9c4.64-10.32,12.52-17.41,22.18-23.31c15.16-9.25,31.42-13.4,49.03-12.93
			c1.42,0.04,2.83,0.51,4.25,0.78C736.7,2.95,735.51,5.21,734.33,7.47z"/>
		<path class="st4" d="M734.33,7.47c1.19-2.26,2.37-4.52,3.56-6.77c0.52,8.27,1.73,16.57,1.4,24.81
			c-0.49,12.29-2.95,24.36-8.64,35.47c-6.4,12.5-15.18,22.19-29.05,27.47c-12.88,4.9-23.7,0.93-34.64-4.65
			c-2.22-1.13-4.01-3.1-6.46-5.05c5.12-1.94,8.81-3.42,12.55-4.76c15.49-5.51,26.97-16.17,37.43-28.3
			c9.48-11,17.06-23.16,23.37-36.15C734.16,8.91,734.18,8.16,734.33,7.47z"/>
		<path class="st5" d="M269.72,47.31c11.42,0,22.46,0,33.68,0c0,3.83,0,7.38,0,11.33c-11.38,0-22.52,0-34,0c0,9.45,0,18.51,0,27.83
			c-4.92,0-9.5,0-14.36,0c0-23.81,0-47.61,0-71.7c23.19,0,46.38,0,69.81,0c0,3.96,0,7.95,0,12.47c-18.35,0-36.74,0-55.14,0
			C269.72,34.19,269.72,40.62,269.72,47.31z"/>
		<path class="st1" d="M161.12,28.47c0-4.94,0-9.22,0-13.75c26.28,0,52.38,0,78.7,0c0,4.44,0,8.72,0,13.35c-10.45,0-20.86,0-31.76,0
			c0,19.61,0,38.88,0,58.41c-5.18,0-9.88,0-14.91,0c0-19.32,0-38.49,0-58C182.41,28.47,171.98,28.47,161.12,28.47z"/>
		<path class="st0" d="M341.05,14.67c4.84,0,9.43,0,14.24,0c0,24.01,0,47.81,0,71.84c-4.79,0-9.39,0-14.24,0
			C341.05,62.68,341.05,38.87,341.05,14.67z"/>
		<path class="st6" d="M145.87,86.57c-4.69,0-9.16,0-13.93,0c0-23.87,0-47.69,0-71.8c4.44,0,9.02,0,13.93,0
			C145.87,38.53,145.87,62.33,145.87,86.57z"/>
	</g>
</g>
</svg>
