<svg xmlns="http://www.w3.org/2000/svg" xmlns:xlink="http://www.w3.org/1999/xlink" viewBox="0 0 322.15 251.92"><defs><style>.cls-1,.cls-15,.cls-18,.cls-20,.cls-21{fill:#42e8e0;}.cls-2{opacity:0.1;}.cls-3{fill:#2fd3c7;}.cls-4{fill:#fff;}.cls-5{fill:#18b2a3;opacity:0.7;}.cls-11,.cls-12,.cls-13,.cls-14,.cls-15,.cls-16,.cls-17,.cls-18,.cls-19,.cls-20,.cls-21,.cls-5{isolation:isolate;}.cls-21,.cls-6{opacity:0.2;}.cls-7{fill:url(#linear-gradient);}.cls-8{fill:#bcbeff;}.cls-9{fill:url(#linear-gradient-2);}.cls-10{fill:#0f054c;}.cls-11,.cls-12,.cls-13,.cls-14,.cls-15,.cls-16,.cls-17{opacity:0.5;}.cls-11{fill:url(#linear-gradient-3);}.cls-12{fill:url(#linear-gradient-4);}.cls-13{fill:url(#linear-gradient-5);}.cls-14{fill:url(#linear-gradient-6);}.cls-16{fill:url(#linear-gradient-7);}.cls-17{fill:url(#linear-gradient-8);}.cls-18{opacity:0.8;}.cls-19{fill:#03002d;}.cls-19,.cls-20{opacity:0.4;}</style><linearGradient id="linear-gradient" x1="27.1" y1="144.89" x2="234.1" y2="144.89" gradientTransform="matrix(1, 0, 0, -1, 0, 299.24)" gradientUnits="userSpaceOnUse"><stop offset="0" stop-color="#5761d7"/><stop offset="0.16" stop-color="#5e67da"/><stop offset="0.41" stop-color="#727ae2"/><stop offset="0.69" stop-color="#9297ee"/><stop offset="1" stop-color="#bcbeff"/></linearGradient><linearGradient id="linear-gradient-2" x1="27.1" y1="164.61" x2="234.1" y2="164.61" xlink:href="#linear-gradient"/><linearGradient id="linear-gradient-3" x1="85.68" y1="192.59" x2="209.93" y2="192.59" gradientTransform="matrix(1, 0, 0, -1, 0, 299.24)" gradientUnits="userSpaceOnUse"><stop offset="0" stop-color="#42e8e0"/><stop offset="0.15" stop-color="#43e3e0"/><stop offset="0.33" stop-color="#45d5df"/><stop offset="0.52" stop-color="#49bddd"/><stop offset="0.72" stop-color="#4e9cdb"/><stop offset="0.93" stop-color="#5472d8"/><stop offset="1" stop-color="#5761d7"/></linearGradient><linearGradient id="linear-gradient-4" x1="147.8" y1="215.04" x2="209.93" y2="215.04" xlink:href="#linear-gradient-3"/><linearGradient id="linear-gradient-5" x1="85.68" y1="215.04" x2="147.8" y2="215.04" xlink:href="#linear-gradient-3"/><linearGradient id="linear-gradient-6" x1="85.68" y1="201.63" x2="209.93" y2="201.63" xlink:href="#linear-gradient-3"/><linearGradient id="linear-gradient-7" x1="147.8" y1="179.18" x2="209.93" y2="179.18" xlink:href="#linear-gradient-3"/><linearGradient id="linear-gradient-8" x1="85.68" y1="179.18" x2="147.8" y2="179.18" xlink:href="#linear-gradient-3"/></defs><g id="Layer_2" data-name="Layer 2"><g id="Layer_1-2" data-name="Layer 1"><polygon class="cls-1" points="183.8 69.9 183.64 69.63 218.49 49.36 218.56 49.4 254.57 69.16 254.42 69.43 218.49 49.72 183.8 69.9"/><g class="cls-2"><polygon class="cls-1" points="147.8 166.26 132.74 157.56 132.74 174.96 147.8 183.66 162.87 174.96 162.87 157.56 147.8 166.26"/><polygon class="cls-1" points="147.8 183.66 132.74 174.96 132.74 157.56 147.8 166.26 147.8 183.66"/><polygon class="cls-3" points="162.87 174.96 147.8 183.66 147.8 166.26 162.87 157.56 162.87 174.96"/><polygon class="cls-1" points="147.8 166.26 132.74 157.56 147.8 148.86 162.87 157.56 147.8 166.26"/><polygon class="cls-4" points="147.8 166.26 133.39 157.94 132.74 158.31 147.8 167.01 162.87 158.31 162.22 157.94 147.8 166.26"/><polygon class="cls-1" points="167.38 177.43 152.31 168.73 152.31 186.13 167.38 194.82 182.44 186.13 182.44 168.73 167.38 177.43"/><polygon class="cls-1" points="167.38 194.82 152.31 186.13 152.31 168.73 167.38 177.43 167.38 194.82"/><polygon class="cls-3" points="182.44 186.13 167.38 194.82 167.38 177.43 182.44 168.73 182.44 186.13"/><polygon class="cls-1" points="167.38 177.43 152.31 168.73 167.38 160.03 182.44 168.73 167.38 177.43"/><polygon class="cls-4" points="167.38 177.43 152.96 169.1 152.31 169.48 167.38 178.18 182.44 169.48 181.79 169.1 167.38 177.43"/><polygon class="cls-1" points="186.95 188.59 171.88 179.89 171.88 197.29 186.95 205.99 202.02 197.29 202.02 179.89 186.95 188.59"/><polygon class="cls-1" points="186.95 205.99 171.88 197.29 171.88 179.89 186.95 188.59 186.95 205.99"/><polygon class="cls-3" points="202.02 197.29 186.95 205.99 186.95 188.59 202.02 179.89 202.02 197.29"/><polygon class="cls-1" points="186.95 188.59 171.88 179.89 186.95 171.2 202.01 179.89 186.95 188.59"/><polygon class="cls-4" points="186.95 188.59 172.53 180.27 171.88 180.65 186.95 189.35 202.01 180.65 202.02 179.89 186.95 188.59"/><polygon class="cls-1" points="128.23 178.18 113.16 169.48 113.16 186.88 128.23 195.58 143.3 186.88 143.3 169.48 128.23 178.18"/><polygon class="cls-1" points="128.23 195.58 113.16 186.88 113.16 169.48 128.23 178.18 128.23 195.58"/><polygon class="cls-3" points="143.3 186.88 128.23 195.58 128.23 178.18 143.3 169.48 143.3 186.88"/><polygon class="cls-1" points="128.23 178.18 113.16 169.48 128.23 160.78 143.3 169.48 128.23 178.18"/><polygon class="cls-4" points="128.23 178.18 113.82 169.86 113.16 170.24 128.23 178.94 143.3 170.24 142.65 169.86 128.23 178.18"/><polygon class="cls-1" points="147.8 189.35 132.74 180.65 132.74 198.05 147.8 206.75 162.87 198.05 162.87 180.65 147.8 189.35"/><polygon class="cls-1" points="147.8 206.75 132.74 198.05 132.74 180.65 147.8 189.35 147.8 206.75"/><polygon class="cls-3" points="162.87 198.05 147.8 206.75 147.8 189.35 162.87 180.65 162.87 198.05"/><polygon class="cls-1" points="147.8 189.35 132.74 180.65 147.8 171.95 162.87 180.65 147.8 189.35"/><polygon class="cls-4" points="147.8 189.35 133.39 181.03 132.74 181.4 147.8 190.1 162.87 181.4 162.22 181.03 147.8 189.35"/><polygon class="cls-1" points="167.38 200.52 152.31 191.82 152.31 209.21 167.38 217.91 182.44 209.21 182.44 191.82 167.38 200.52"/><polygon class="cls-1" points="167.38 217.91 152.31 209.21 152.31 191.82 167.38 200.52 167.38 217.91"/><polygon class="cls-3" points="182.44 209.21 167.38 217.91 167.38 200.52 182.44 191.82 182.44 209.21"/><polygon class="cls-1" points="167.38 200.52 152.31 191.82 167.38 183.12 182.44 191.82 167.38 200.52"/><polygon class="cls-4" points="167.38 200.52 152.96 192.19 152.31 192.57 167.38 201.27 182.44 192.57 182.44 191.82 167.38 200.52"/><polygon class="cls-1" points="108.66 190.1 93.59 181.4 93.59 198.8 108.66 207.5 123.73 198.8 123.73 181.4 108.66 190.1"/><polygon class="cls-1" points="108.66 207.5 93.59 198.8 93.59 181.4 108.66 190.1 108.66 207.5"/><polygon class="cls-3" points="123.73 198.8 108.66 207.5 108.66 190.1 123.73 181.4 123.73 198.8"/><polygon class="cls-1" points="108.66 190.1 93.59 181.4 108.66 172.7 123.73 181.4 108.66 190.1"/><polygon class="cls-4" points="108.66 190.1 93.59 181.4 93.59 182.16 108.66 190.86 123.73 182.16 123.07 181.78 108.66 190.1"/><polygon class="cls-1" points="128.23 201.27 113.16 192.57 113.16 209.97 128.23 218.67 143.3 209.97 143.3 192.57 128.23 201.27"/><polygon class="cls-1" points="128.23 218.67 113.16 209.97 113.16 192.57 128.23 201.27 128.23 218.67"/><polygon class="cls-3" points="143.3 209.97 128.23 218.67 128.23 201.27 143.3 192.57 143.3 209.97"/><polygon class="cls-1" points="128.23 201.27 113.16 192.57 128.23 183.87 143.3 192.57 128.23 201.27"/><polygon class="cls-4" points="128.23 201.27 113.16 192.57 113.16 193.33 128.23 202.03 143.3 193.33 142.65 192.95 128.23 201.27"/><polygon class="cls-1" points="147.8 212.44 132.74 203.74 132.74 221.14 147.8 229.84 162.87 221.14 162.87 203.74 147.8 212.44"/><polygon class="cls-1" points="147.8 229.84 132.74 221.14 132.74 203.74 147.8 212.44 147.8 229.84"/><polygon class="cls-3" points="162.87 221.14 147.8 229.84 147.8 212.44 162.87 203.74 162.87 221.14"/><polygon class="cls-1" points="147.8 212.44 132.74 203.74 147.8 195.04 162.87 203.74 147.8 212.44"/><polygon class="cls-4" points="147.8 212.44 132.74 203.74 132.74 204.49 147.8 213.19 162.87 204.49 162.87 203.74 147.8 212.44"/><polygon class="cls-1" points="147.8 143.17 132.74 134.47 132.74 151.87 147.8 160.57 162.87 151.87 162.87 134.47 147.8 143.17"/><polygon class="cls-1" points="147.8 160.57 132.74 151.87 132.74 134.47 147.8 143.17 147.8 160.57"/><polygon class="cls-3" points="162.87 151.87 147.8 160.57 147.8 143.17 162.87 134.47 162.87 151.87"/><polygon class="cls-1" points="147.8 143.17 132.74 134.47 147.8 125.77 162.87 134.47 147.8 143.17"/><polygon class="cls-4" points="147.8 143.17 133.39 134.85 132.74 135.23 147.8 143.92 162.87 135.23 162.22 134.85 147.8 143.17"/><polygon class="cls-5" points="147.8 209.6 137.53 203.67 147.8 197.74 158.08 203.67 147.8 209.6"/><polygon class="cls-5" points="128.23 198.44 117.95 192.5 128.23 186.57 138.51 192.5 128.23 198.44"/><polygon class="cls-5" points="167.38 197.68 157.1 191.75 167.38 185.81 177.65 191.75 167.38 197.68"/><polygon class="cls-5" points="186.98 185.9 176.71 179.96 186.98 174.03 197.26 179.96 186.98 185.9"/><polygon class="cls-5" points="108.66 187.27 98.38 181.34 108.66 175.4 118.94 181.34 108.66 187.27"/><polygon class="cls-1" points="167.38 154.34 152.31 145.64 152.31 163.04 167.38 171.74 182.44 163.04 182.44 145.64 167.38 154.34"/><polygon class="cls-1" points="167.38 171.74 152.31 163.04 152.31 145.64 167.38 154.34 167.38 171.74"/><polygon class="cls-3" points="182.44 163.04 167.38 171.74 167.38 154.34 182.44 145.64 182.44 163.04"/><polygon class="cls-1" points="167.38 154.34 152.31 145.64 167.38 136.94 182.44 145.64 167.38 154.34"/><polygon class="cls-4" points="167.38 154.34 152.96 146.02 152.31 146.39 167.38 155.09 182.44 146.39 181.79 146.02 167.38 154.34"/><polygon class="cls-1" points="186.95 165.5 171.88 156.81 171.88 174.2 186.95 182.9 202.02 174.2 202.02 156.81 186.95 165.5"/><polygon class="cls-1" points="186.95 182.9 171.88 174.2 171.88 156.81 186.95 165.5 186.95 182.9"/><polygon class="cls-3" points="202.02 174.2 186.95 182.9 186.95 165.5 202.02 156.81 202.02 174.2"/><polygon class="cls-1" points="186.95 165.5 171.88 156.81 186.95 148.11 202.01 156.81 186.95 165.5"/><polygon class="cls-4" points="186.95 165.5 172.53 157.18 171.88 157.56 186.95 166.26 202.01 157.56 202.02 156.81 186.95 165.5"/><polygon class="cls-1" points="128.23 155.09 113.16 146.39 113.16 163.79 128.23 172.49 143.3 163.79 143.3 146.39 128.23 155.09"/><polygon class="cls-1" points="128.23 172.49 113.16 163.79 113.16 146.39 128.23 155.09 128.23 172.49"/><polygon class="cls-3" points="143.3 163.79 128.23 172.49 128.23 155.09 143.3 146.39 143.3 163.79"/><polygon class="cls-1" points="128.23 155.09 113.16 146.39 128.23 137.69 143.3 146.39 128.23 155.09"/><polygon class="cls-4" points="128.23 155.09 113.82 146.77 113.16 147.15 128.23 155.85 143.3 147.15 142.65 146.77 128.23 155.09"/><polygon class="cls-1" points="147.8 166.26 132.74 157.56 132.74 174.96 147.8 183.66 162.87 174.96 162.87 157.56 147.8 166.26"/><polygon class="cls-1" points="147.8 183.66 132.74 174.96 132.74 157.56 147.8 166.26 147.8 183.66"/><polygon class="cls-3" points="162.87 174.96 147.8 183.66 147.8 166.26 162.87 157.56 162.87 174.96"/><polygon class="cls-1" points="147.8 166.26 132.74 157.56 147.8 148.86 162.87 157.56 147.8 166.26"/><polygon class="cls-4" points="147.8 166.26 133.39 157.94 132.74 158.31 147.8 167.01 162.87 158.32 162.22 157.94 147.8 166.26"/><polygon class="cls-1" points="167.38 177.43 152.31 168.73 152.31 186.13 167.38 194.82 182.44 186.13 182.44 168.73 167.38 177.43"/><polygon class="cls-1" points="167.38 194.82 152.31 186.13 152.31 168.73 167.38 177.43 167.38 194.82"/><polygon class="cls-3" points="182.44 186.13 167.38 194.82 167.38 177.43 182.44 168.73 182.44 186.13"/><polygon class="cls-1" points="167.38 177.43 152.31 168.73 167.38 160.03 182.44 168.73 167.38 177.43"/><polygon class="cls-4" points="167.38 177.43 152.96 169.1 152.31 169.48 167.38 178.18 182.44 169.48 182.44 168.73 167.38 177.43"/><polygon class="cls-1" points="108.66 167.01 93.59 158.31 93.59 175.71 108.66 184.41 123.73 175.71 123.73 158.31 108.66 167.01"/><polygon class="cls-1" points="108.66 184.41 93.59 175.71 93.59 158.31 108.66 167.01 108.66 184.41"/><polygon class="cls-3" points="123.73 175.71 108.66 184.41 108.66 167.01 123.73 158.31 123.73 175.71"/><polygon class="cls-1" points="108.66 167.01 93.59 158.31 108.66 149.62 123.73 158.32 108.66 167.01"/><polygon class="cls-4" points="108.66 167.01 94.25 158.69 93.59 159.07 108.66 167.77 123.73 159.07 123.07 158.69 108.66 167.01"/><polygon class="cls-1" points="128.23 178.18 113.16 169.48 113.16 186.88 128.23 195.58 143.3 186.88 143.3 169.48 128.23 178.18"/><polygon class="cls-1" points="128.23 195.58 113.16 186.88 113.16 169.48 128.23 178.18 128.23 195.58"/><polygon class="cls-3" points="143.3 186.88 128.23 195.58 128.23 178.18 143.3 169.48 143.3 186.88"/><polygon class="cls-1" points="128.23 178.18 113.16 169.48 128.23 160.78 143.3 169.48 128.23 178.18"/><polygon class="cls-4" points="128.23 178.18 113.16 169.48 113.16 170.24 128.23 178.94 143.3 170.24 142.65 169.86 128.23 178.18"/><polygon class="cls-1" points="147.8 189.35 132.74 180.65 132.74 198.05 147.8 206.75 162.87 198.05 162.87 180.65 147.8 189.35"/><polygon class="cls-1" points="147.8 206.75 132.74 198.05 132.74 180.65 147.8 189.35 147.8 206.75"/><polygon class="cls-3" points="162.87 198.05 147.8 206.75 147.8 189.35 162.87 180.65 162.87 198.05"/><polygon class="cls-1" points="147.8 189.35 132.74 180.65 147.8 171.95 162.87 180.65 147.8 189.35"/><polygon class="cls-4" points="147.8 189.35 132.74 180.65 132.74 181.4 147.8 190.1 162.87 181.4 162.87 180.65 147.8 189.35"/><polygon class="cls-5" points="186.98 162.91 176.71 156.98 186.98 151.04 197.26 156.98 186.98 162.91"/><polygon class="cls-5" points="108.66 164.28 98.38 158.35 108.66 152.41 118.94 158.35 108.66 164.28"/><polygon class="cls-1" points="147.8 120.08 132.74 111.38 132.74 128.78 147.8 137.48 162.87 128.78 162.87 111.38 147.8 120.08"/><polygon class="cls-1" points="147.8 137.48 132.74 128.78 132.74 111.38 147.8 120.08 147.8 137.48"/><polygon class="cls-3" points="162.87 128.78 147.8 137.48 147.8 120.08 162.87 111.38 162.87 128.78"/><polygon class="cls-1" points="147.8 120.08 132.74 111.38 147.8 102.68 162.87 111.38 147.8 120.08"/><polygon class="cls-4" points="147.8 120.08 132.74 111.38 132.74 112.14 147.8 120.84 162.87 112.14 162.87 111.38 147.8 120.08"/><polygon class="cls-1" points="167.38 131.25 152.31 122.55 152.31 139.95 167.38 148.65 182.44 139.95 182.44 122.55 167.38 131.25"/><polygon class="cls-1" points="167.38 148.65 152.31 139.95 152.31 122.55 167.38 131.25 167.38 148.65"/><polygon class="cls-3" points="182.44 139.95 167.38 148.65 167.38 131.25 182.44 122.55 182.44 139.95"/><polygon class="cls-1" points="167.38 131.25 152.31 122.55 167.38 113.85 182.44 122.55 167.38 131.25"/><polygon class="cls-4" points="167.38 131.25 152.31 122.55 152.31 123.3 167.38 132 182.44 123.3 182.44 122.55 167.38 131.25"/><polygon class="cls-1" points="186.95 142.42 171.88 133.72 171.88 151.11 186.95 159.81 202.02 151.11 202.02 133.72 186.95 142.42"/><polygon class="cls-1" points="186.95 159.81 171.88 151.11 171.88 133.72 186.95 142.42 186.95 159.81"/><polygon class="cls-3" points="202.02 151.11 186.95 159.81 186.95 142.42 202.02 133.72 202.02 151.11"/><polygon class="cls-1" points="186.95 142.42 171.88 133.72 186.95 125.02 202.01 133.72 186.95 142.42"/><polygon class="cls-4" points="186.95 142.42 171.88 133.72 171.88 134.47 186.95 143.17 202.01 134.47 202.02 133.72 186.95 142.42"/><polygon class="cls-1" points="128.23 132 113.16 123.3 113.16 140.7 128.23 149.4 143.3 140.7 143.3 123.3 128.23 132"/><polygon class="cls-1" points="128.23 149.4 113.16 140.7 113.16 123.3 128.23 132 128.23 149.4"/><polygon class="cls-3" points="143.3 140.7 128.23 149.4 128.23 132 143.3 123.3 143.3 140.7"/><polygon class="cls-1" points="128.23 132 113.16 123.3 128.23 114.6 143.3 123.3 128.23 132"/><polygon class="cls-4" points="128.23 132 113.16 123.3 113.16 124.06 128.23 132.76 143.3 124.06 143.3 123.3 128.23 132"/><polygon class="cls-1" points="108.66 143.93 93.59 135.23 93.59 152.62 108.66 161.32 123.73 152.62 123.73 135.23 108.66 143.93"/><polygon class="cls-1" points="108.66 161.32 93.59 152.62 93.59 135.23 108.66 143.93 108.66 161.32"/><polygon class="cls-3" points="123.73 152.62 108.66 161.32 108.66 143.93 123.73 135.23 123.73 152.62"/><polygon class="cls-1" points="108.66 143.93 93.59 135.23 108.66 126.53 123.73 135.23 108.66 143.93"/><polygon class="cls-4" points="108.66 143.93 93.59 135.23 93.59 135.98 108.66 144.68 123.73 135.98 123.73 135.23 108.66 143.93"/></g><g class="cls-6"><path class="cls-1" d="M168,188.31l-10.51-6.07a7.24,7.24,0,0,1-3.27-5.67V174a6.9,6.9,0,0,0-3.11-5.39l-2.2-1.27.16-.27,2.2,1.27a7.24,7.24,0,0,1,3.27,5.67v2.53a6.9,6.9,0,0,0,3.11,5.39L168.16,188Z"/><path class="cls-1" d="M172.09,186l-10.51-6.07a7.24,7.24,0,0,1-3.27-5.67v-2.54a6.9,6.9,0,0,0-3.11-5.39L153,165l.16-.27,2.2,1.27a7.24,7.24,0,0,1,3.27,5.67v2.54a6.9,6.9,0,0,0,3.11,5.39l10.51,6.07Z"/><path class="cls-1" d="M176.18,183.6l-10.51-6.07a7.24,7.24,0,0,1-3.27-5.67v-2.54a6.9,6.9,0,0,0-3.11-5.39l-2.2-1.27.16-.27,2.2,1.27a7.24,7.24,0,0,1,3.27,5.67v2.54a6.9,6.9,0,0,0,3.11,5.39l10.51,6.07Z"/><path class="cls-1" d="M180.27,181.24l-10.51-6.07a7.24,7.24,0,0,1-3.27-5.67V167a6.9,6.9,0,0,0-3.11-5.39l-2.2-1.27.16-.27,2.2,1.27a7.26,7.26,0,0,1,3.27,5.67v2.53a6.9,6.9,0,0,0,3.11,5.39L180.43,181Z"/><path class="cls-1" d="M184.36,178.89l-10.51-6.07a7.24,7.24,0,0,1-3.27-5.67v-2.54a6.9,6.9,0,0,0-3.11-5.39l-2.2-1.27.16-.27,2.2,1.27a7.24,7.24,0,0,1,3.27,5.67v2.54a6.9,6.9,0,0,0,3.11,5.39l10.51,6.07Z"/><path class="cls-1" d="M188.44,176.53l-10.51-6.07a7.24,7.24,0,0,1-3.27-5.67v-2.54a6.9,6.9,0,0,0-3.11-5.39l-2.2-1.27.16-.27,2.2,1.27a7.24,7.24,0,0,1,3.27,5.67v2.54a6.9,6.9,0,0,0,3.11,5.39l10.51,6.07Z"/><path class="cls-1" d="M192.53,174.18,182,168.11a7.24,7.24,0,0,1-3.27-5.67v-2.53a6.9,6.9,0,0,0-3.11-5.39l-2.2-1.27.16-.27,2.2,1.27a7.24,7.24,0,0,1,3.27,5.67v2.53a6.9,6.9,0,0,0,3.11,5.39l10.51,6.07Z"/><path class="cls-1" d="M196.62,171.82l-10.51-6.07a7.24,7.24,0,0,1-3.27-5.67v-2.54a6.9,6.9,0,0,0-3.11-5.39l-2.2-1.27.16-.27,2.2,1.27a7.24,7.24,0,0,1,3.27,5.67v2.54a6.9,6.9,0,0,0,3.11,5.39l10.51,6.07Z"/><path class="cls-1" d="M200.71,169.47,190.2,163.4a7.24,7.24,0,0,1-3.27-5.67v-2.54a6.9,6.9,0,0,0-3.11-5.39l-2.2-1.27.16-.27,2.2,1.27a7.24,7.24,0,0,1,3.27,5.67v2.54a6.9,6.9,0,0,0,3.11,5.39l10.51,6.07Z"/><path class="cls-1" d="M204.8,167.11,194.29,161a7.24,7.24,0,0,1-3.27-5.67v-2.53a6.9,6.9,0,0,0-3.11-5.39l-2.2-1.27.16-.27,2.2,1.27a7.24,7.24,0,0,1,3.27,5.67v2.53a6.9,6.9,0,0,0,3.11,5.39L205,166.84Z"/><path class="cls-1" d="M208.88,164.75l-10.51-6.07A7.24,7.24,0,0,1,195.1,153v-2.54a6.9,6.9,0,0,0-3.11-5.39l-2.2-1.27.16-.27,2.2,1.27a7.24,7.24,0,0,1,3.27,5.67V153a6.9,6.9,0,0,0,3.11,5.39L209,164.48Z"/><path class="cls-1" d="M213,162.4l-10.51-6.07a7.24,7.24,0,0,1-3.27-5.67v-2.53a6.9,6.9,0,0,0-3.11-5.39l-2.2-1.27.16-.27,2.2,1.27a7.24,7.24,0,0,1,3.27,5.67v2.53a6.9,6.9,0,0,0,3.11,5.39l10.51,6.07Z"/><path class="cls-1" d="M217.06,160,206.55,154a7.24,7.24,0,0,1-3.27-5.67v-2.53a6.9,6.9,0,0,0-3.11-5.39l-2.2-1.27.16-.27,2.2,1.27a7.24,7.24,0,0,1,3.27,5.67v2.53a6.9,6.9,0,0,0,3.11,5.39l10.51,6.07Z"/><path class="cls-1" d="M221.15,157.69l-10.51-6.07a7.24,7.24,0,0,1-3.27-5.67v-2.54a6.9,6.9,0,0,0-3.11-5.39l-2.2-1.27.16-.27,2.2,1.27a7.24,7.24,0,0,1,3.27,5.67V146a6.9,6.9,0,0,0,3.11,5.39l10.51,6.07Z"/><path class="cls-1" d="M225.24,155.33l-10.51-6.07a7.24,7.24,0,0,1-3.27-5.67v-2.53a6.9,6.9,0,0,0-3.11-5.39l-2.2-1.27.16-.27,2.2,1.27a7.24,7.24,0,0,1,3.27,5.67v2.53a6.9,6.9,0,0,0,3.11,5.39l10.51,6.07Z"/><path class="cls-1" d="M229.33,153l-10.51-6.07a7.24,7.24,0,0,1-3.27-5.67V138.7a6.9,6.9,0,0,0-3.11-5.39l-2.2-1.27.16-.27,2.2,1.27a7.24,7.24,0,0,1,3.27,5.67v2.54a6.9,6.9,0,0,0,3.11,5.39l10.51,6.07Z"/><path class="cls-1" d="M233.41,150.62l-10.51-6.07a7.24,7.24,0,0,1-3.27-5.67v-2.54a6.9,6.9,0,0,0-3.11-5.39l-2.2-1.27.16-.27,2.2,1.27a7.24,7.24,0,0,1,3.27,5.67v2.54a6.9,6.9,0,0,0,3.11,5.39l10.51,6.07Z"/><path class="cls-1" d="M237.5,148.26,227,142.19a7.24,7.24,0,0,1-3.27-5.67V134a6.9,6.9,0,0,0-3.11-5.39l-2.2-1.27.16-.27,2.2,1.27A7.24,7.24,0,0,1,224,134v2.53a6.9,6.9,0,0,0,3.11,5.39L237.66,148Z"/><path class="cls-1" d="M241.59,145.91l-10.51-6.07a7.24,7.24,0,0,1-3.27-5.67v-2.54a6.9,6.9,0,0,0-3.11-5.39L222.5,125l.16-.27,2.2,1.27a7.24,7.24,0,0,1,3.27,5.67v2.54a6.9,6.9,0,0,0,3.11,5.39l10.51,6.07Z"/><path class="cls-1" d="M245.68,143.55l-10.51-6.07a7.24,7.24,0,0,1-3.27-5.67v-2.54a6.9,6.9,0,0,0-3.11-5.39l-2.2-1.27.16-.27,2.2,1.27a7.24,7.24,0,0,1,3.27,5.67v2.54a6.9,6.9,0,0,0,3.11,5.39l10.51,6.07Z"/><path class="cls-1" d="M127.32,188.31l-.16-.27L137.67,182a6.88,6.88,0,0,0,3.11-5.39v-2.53a7.26,7.26,0,0,1,3.27-5.67l2.2-1.27.16.27-2.2,1.27A6.88,6.88,0,0,0,141.1,174v2.53a7.26,7.26,0,0,1-3.27,5.67Z"/><path class="cls-1" d="M123.23,186l-.16-.27,10.51-6.07a6.88,6.88,0,0,0,3.11-5.39v-2.54A7.27,7.27,0,0,1,140,166l2.2-1.27.16.27-2.2,1.27a6.88,6.88,0,0,0-3.11,5.39v2.54a7.26,7.26,0,0,1-3.27,5.67Z"/><path class="cls-1" d="M119.14,183.6l-.16-.27,10.51-6.07a6.88,6.88,0,0,0,3.11-5.39v-2.54a7.26,7.26,0,0,1,3.27-5.67l2.2-1.27.16.27-2.2,1.27a6.88,6.88,0,0,0-3.11,5.39v2.54a7.27,7.27,0,0,1-3.27,5.67Z"/><path class="cls-1" d="M115.05,181.24l-.16-.27,10.51-6.07a6.88,6.88,0,0,0,3.11-5.39V167a7.26,7.26,0,0,1,3.27-5.67L134,160l.16.27-2.2,1.27a6.88,6.88,0,0,0-3.11,5.39v2.54a7.26,7.26,0,0,1-3.27,5.67Z"/><path class="cls-1" d="M111,178.89l-.16-.27,10.51-6.07a6.88,6.88,0,0,0,3.11-5.39v-2.54a7.27,7.27,0,0,1,3.27-5.67l2.2-1.27.16.27-2.2,1.27a6.88,6.88,0,0,0-3.11,5.39v2.54a7.26,7.26,0,0,1-3.27,5.67Z"/><path class="cls-1" d="M106.88,176.53l-.16-.27,10.51-6.07a6.88,6.88,0,0,0,3.11-5.39v-2.54a7.26,7.26,0,0,1,3.27-5.67l2.2-1.27.16.27-2.2,1.27a6.88,6.88,0,0,0-3.11,5.39v2.54a7.27,7.27,0,0,1-3.27,5.67Z"/><path class="cls-1" d="M102.79,174.18l-.16-.27,10.51-6.07a6.88,6.88,0,0,0,3.11-5.39v-2.53a7.26,7.26,0,0,1,3.27-5.67l2.2-1.27.16.27-2.2,1.27a6.88,6.88,0,0,0-3.11,5.39v2.53a7.26,7.26,0,0,1-3.27,5.67Z"/><path class="cls-1" d="M98.7,171.82l-.16-.27,10.51-6.07a6.88,6.88,0,0,0,3.11-5.39v-2.54a7.27,7.27,0,0,1,3.27-5.67l2.2-1.27.16.27-2.2,1.27a6.88,6.88,0,0,0-3.11,5.39v2.54a7.26,7.26,0,0,1-3.27,5.67Z"/><path class="cls-1" d="M94.61,169.47l-.16-.27L105,163.13a6.88,6.88,0,0,0,3.11-5.39V155.2a7.26,7.26,0,0,1,3.27-5.67l2.2-1.27.16.27-2.2,1.27a6.88,6.88,0,0,0-3.11,5.39v2.54a7.27,7.27,0,0,1-3.27,5.67Z"/><path class="cls-1" d="M90.52,167.11l-.16-.27,10.51-6.07a6.88,6.88,0,0,0,3.11-5.39v-2.53a7.26,7.26,0,0,1,3.27-5.67l2.2-1.27.16.27-2.2,1.27a6.88,6.88,0,0,0-3.11,5.39v2.53A7.26,7.26,0,0,1,101,161Z"/><path class="cls-1" d="M86.43,164.75l-.16-.27,10.51-6.07A6.88,6.88,0,0,0,99.89,153v-2.54a7.27,7.27,0,0,1,3.27-5.67l2.2-1.27.16.27-2.2,1.27a6.88,6.88,0,0,0-3.11,5.39V153a7.27,7.27,0,0,1-3.27,5.67Z"/><path class="cls-1" d="M82.35,162.4l-.16-.27,10.51-6.07a6.88,6.88,0,0,0,3.11-5.39v-2.53a7.26,7.26,0,0,1,3.27-5.67l2.2-1.27.16.27-2.2,1.27a6.88,6.88,0,0,0-3.11,5.39v2.53a7.26,7.26,0,0,1-3.27,5.67Z"/><path class="cls-1" d="M78.26,160l-.16-.27,10.51-6.07a6.88,6.88,0,0,0,3.11-5.39v-2.53A7.26,7.26,0,0,1,95,140.11l2.2-1.27.16.27-2.2,1.27A6.88,6.88,0,0,0,92,145.77v2.53A7.26,7.26,0,0,1,88.77,154Z"/><path class="cls-1" d="M74.17,157.69l-.16-.27,10.51-6.07A6.88,6.88,0,0,0,87.63,146v-2.54a7.27,7.27,0,0,1,3.27-5.67l2.2-1.27.16.27L91.06,138A6.88,6.88,0,0,0,88,143.41V146a7.27,7.27,0,0,1-3.27,5.67Z"/><path class="cls-1" d="M70.08,155.33l-.16-.27L80.43,149a6.88,6.88,0,0,0,3.11-5.39v-2.53a7.26,7.26,0,0,1,3.27-5.67l2.2-1.27.16.27L87,135.67a6.88,6.88,0,0,0-3.11,5.39v2.53a7.26,7.26,0,0,1-3.27,5.67Z"/><path class="cls-1" d="M66,153l-.16-.27,10.51-6.07a6.88,6.88,0,0,0,3.11-5.39v-2.54A7.27,7.27,0,0,1,82.72,133l2.2-1.27.16.27-2.2,1.27a6.88,6.88,0,0,0-3.11,5.39v2.54a7.26,7.26,0,0,1-3.27,5.67Z"/><path class="cls-1" d="M61.91,150.62l-.16-.27,10.51-6.07a6.88,6.88,0,0,0,3.11-5.39v-2.54a7.27,7.27,0,0,1,3.27-5.67l2.2-1.27.16.27L78.8,131a6.88,6.88,0,0,0-3.11,5.39v2.54a7.27,7.27,0,0,1-3.27,5.67Z"/><path class="cls-1" d="M57.82,148.26l-.16-.27,10.51-6.07a6.88,6.88,0,0,0,3.11-5.39V134a7.26,7.26,0,0,1,3.27-5.67l2.2-1.27.16.27-2.2,1.27A6.88,6.88,0,0,0,71.6,134v2.53a7.26,7.26,0,0,1-3.27,5.67Z"/><path class="cls-1" d="M53.73,145.91l-.16-.27,10.51-6.07a6.88,6.88,0,0,0,3.11-5.39v-2.54A7.27,7.27,0,0,1,70.46,126l2.2-1.27.16.27-2.2,1.27a6.88,6.88,0,0,0-3.11,5.39v2.54a7.26,7.26,0,0,1-3.27,5.67Z"/><path class="cls-1" d="M49.64,143.55l-.16-.27L60,137.21a6.88,6.88,0,0,0,3.11-5.39v-2.54a7.26,7.26,0,0,1,3.27-5.67l2.2-1.27.16.27-2.2,1.27a6.88,6.88,0,0,0-3.11,5.39v2.54a7.27,7.27,0,0,1-3.27,5.67Z"/><polygon class="cls-7" points="228.57 126.37 228.57 135.7 147.8 182.33 67.04 135.7 67.04 126.37 228.57 126.37"/><polygon class="cls-8" points="147.8 173 67.04 126.37 147.8 79.74 228.57 126.37 147.8 173"/><polygon class="cls-4" points="147.8 171.91 67.98 125.82 67.04 126.37 147.8 173 228.57 126.37 227.63 125.82 147.8 171.91"/></g><path class="cls-1" d="M139.39,66.41a3,3,0,0,1-1.51-.46l-10.51-6.07.16-.27L138,65.68A1.8,1.8,0,0,0,141,64V61.44a2.1,2.1,0,0,1,3.43-2l2.2,1.27-.16.27-2.2-1.27a1.8,1.8,0,0,0-3,1.71V64a2.42,2.42,0,0,1-1,2.21A1.68,1.68,0,0,1,139.39,66.41Z"/><path class="cls-1" d="M135.31,68.77a3,3,0,0,1-1.51-.46l-10.51-6.07.16-.27L134,68a1.8,1.8,0,0,0,3-1.71V63.8a2.1,2.1,0,0,1,3.43-2l2.2,1.27-.16.27-2.2-1.27a1.8,1.8,0,0,0-3,1.71v2.53a2.42,2.42,0,0,1-1,2.21A1.89,1.89,0,0,1,135.31,68.77Z"/><path class="cls-1" d="M131.22,71.12a3,3,0,0,1-1.51-.46L119.2,64.59l.16-.27,10.51,6.07a1.8,1.8,0,0,0,3-1.71V66.14a2.1,2.1,0,0,1,3.43-2l2.2,1.27-.16.27-2.2-1.27a1.8,1.8,0,0,0-3,1.71v2.54a2.39,2.39,0,0,1-1,2.2A1.77,1.77,0,0,1,131.22,71.12Z"/><path class="cls-1" d="M127.13,73.47a3,3,0,0,1-1.51-.46l-10.51-6.07.16-.27,10.51,6.07a1.8,1.8,0,0,0,3-1.71V68.49a2.1,2.1,0,0,1,3.43-2l2.2,1.27-.16.27L132,66.78a1.8,1.8,0,0,0-3,1.71V71a2.39,2.39,0,0,1-1,2.2A1.77,1.77,0,0,1,127.13,73.47Z"/><path class="cls-1" d="M123,75.82a3,3,0,0,1-1.51-.46L111,69.29l.16-.27,10.51,6.07a1.8,1.8,0,0,0,3-1.71V70.84a2.1,2.1,0,0,1,3.43-2l2.2,1.27-.16.27-2.2-1.27a1.8,1.8,0,0,0-3,1.71v2.54a2.39,2.39,0,0,1-1,2.2A1.77,1.77,0,0,1,123,75.82Z"/><path class="cls-1" d="M119,78.17a3,3,0,0,1-1.5-.46l-10.51-6.07.16-.27,10.51,6.07a1.8,1.8,0,0,0,3-1.71V73.19a2.1,2.1,0,0,1,3.43-2l2.2,1.27-.16.27-2.2-1.27a1.8,1.8,0,0,0-3,1.71v2.54a2.39,2.39,0,0,1-1,2.2A1.83,1.83,0,0,1,119,78.17Z"/><path class="cls-1" d="M114.86,80.52a3,3,0,0,1-1.51-.46L102.84,74l.16-.27,10.51,6.07a1.8,1.8,0,0,0,3-1.71V75.54a2.1,2.1,0,0,1,3.43-2l2.2,1.27-.16.27-2.2-1.27a1.8,1.8,0,0,0-3,1.71v2.54a2.39,2.39,0,0,1-1,2.2A1.65,1.65,0,0,1,114.86,80.52Z"/><path class="cls-1" d="M110.78,82.88a3,3,0,0,1-1.5-.46L98.77,76.35l.16-.27,10.51,6.07a1.8,1.8,0,0,0,3-1.71V77.91a2.1,2.1,0,0,1,3.43-2l2.2,1.27-.16.27-2.2-1.27a1.8,1.8,0,0,0-3,1.71v2.53a2.39,2.39,0,0,1-1,2.2A1.77,1.77,0,0,1,110.78,82.88Z"/><path class="cls-1" d="M106.69,85.23a3,3,0,0,1-1.51-.46L94.67,78.7l.16-.27,10.51,6.07a1.8,1.8,0,0,0,3-1.71V80.26a2.1,2.1,0,0,1,3.43-2l2.2,1.27-.16.27-2.2-1.27a1.8,1.8,0,0,0-3,1.71v2.53a2.42,2.42,0,0,1-1,2.21A1.77,1.77,0,0,1,106.69,85.23Z"/><path class="cls-1" d="M102.6,87.58a3,3,0,0,1-1.51-.46L90.58,81.05l.16-.27,10.51,6.07a1.8,1.8,0,0,0,3-1.71V82.61a2.1,2.1,0,0,1,3.43-2l2.2,1.27-.16.27-2.2-1.27a1.8,1.8,0,0,0-3,1.71v2.53a2.42,2.42,0,0,1-1,2.21A1.86,1.86,0,0,1,102.6,87.58Z"/><path class="cls-1" d="M98.51,89.93A3,3,0,0,1,97,89.47L86.49,83.4l.16-.27L97.16,89.2a1.8,1.8,0,0,0,3-1.71V85a2.1,2.1,0,0,1,3.43-2l2.2,1.27-.16.27-2.2-1.27a1.8,1.8,0,0,0-3,1.71v2.54a2.39,2.39,0,0,1-1,2.2A1.77,1.77,0,0,1,98.51,89.93Z"/><path class="cls-1" d="M94.42,92.28a3,3,0,0,1-1.51-.46L82.4,85.75l.16-.27,10.51,6.07a1.8,1.8,0,0,0,3-1.71V87.3a2.1,2.1,0,0,1,3.43-2l2.2,1.27-.16.27-2.2-1.27a1.8,1.8,0,0,0-3,1.71v2.54a2.39,2.39,0,0,1-1,2.2A1.74,1.74,0,0,1,94.42,92.28Z"/><path class="cls-1" d="M90.34,94.63a3,3,0,0,1-1.51-.46L78.32,88.1l.16-.27L89,93.9a1.8,1.8,0,0,0,3-1.71V89.65a2.1,2.1,0,0,1,3.43-2l2.2,1.27-.16.27-2.2-1.27a1.8,1.8,0,0,0-3,1.71v2.54a2.39,2.39,0,0,1-1,2.2A1.7,1.7,0,0,1,90.34,94.63Z"/><path class="cls-1" d="M86.25,97a3,3,0,0,1-1.51-.46L74.23,90.46l.16-.27L84.9,96.26a1.8,1.8,0,0,0,3-1.71V92a2.1,2.1,0,0,1,3.43-2l2.2,1.27-.16.27-2.2-1.27a1.8,1.8,0,0,0-3,1.71v2.54a2.39,2.39,0,0,1-1,2.2A1.77,1.77,0,0,1,86.25,97Z"/><path class="cls-1" d="M82.16,99.34a3,3,0,0,1-1.51-.46L70.14,92.81l.16-.27,10.51,6.07a1.8,1.8,0,0,0,3-1.71V94.36a2.1,2.1,0,0,1,3.43-2l2.2,1.27-.16.27L87,92.65a1.8,1.8,0,0,0-3,1.71V96.9a2.39,2.39,0,0,1-1,2.2A1.77,1.77,0,0,1,82.16,99.34Z"/><path class="cls-1" d="M78.07,101.69a3,3,0,0,1-1.51-.46L66.05,95.16l.16-.27L76.72,101a1.8,1.8,0,0,0,3-1.71V96.72a2.1,2.1,0,0,1,3.43-2L85.31,96l-.16.27L83,95a1.8,1.8,0,0,0-3,1.71v2.53a2.42,2.42,0,0,1-1,2.21A1.77,1.77,0,0,1,78.07,101.69Z"/><path class="cls-1" d="M74,104a3,3,0,0,1-1.51-.46L62,97.51l.16-.27,10.51,6.07a1.8,1.8,0,0,0,3-1.71V99.07a2.1,2.1,0,0,1,3.43-2l2.2,1.27-.16.27-2.2-1.27a1.8,1.8,0,0,0-3,1.71v2.53a2.42,2.42,0,0,1-1,2.21A1.83,1.83,0,0,1,74,104Z"/><path class="cls-1" d="M69.9,106.39a3,3,0,0,1-1.51-.46L57.88,99.86l.16-.27,10.51,6.07a1.8,1.8,0,0,0,3-1.71v-2.54a2.1,2.1,0,0,1,3.43-2l2.2,1.27L77,101l-2.2-1.27a1.8,1.8,0,0,0-3,1.71V104a2.39,2.39,0,0,1-1,2.2A1.7,1.7,0,0,1,69.9,106.39Z"/><path class="cls-1" d="M65.81,108.74a3,3,0,0,1-1.51-.46l-10.51-6.07.16-.27L64.46,108a1.8,1.8,0,0,0,3-1.71v-2.54a2.1,2.1,0,0,1,3.43-2l2.2,1.27-.16.27-2.2-1.27a1.8,1.8,0,0,0-3,1.71v2.54a2.39,2.39,0,0,1-1,2.2A1.68,1.68,0,0,1,65.81,108.74Z"/><path class="cls-1" d="M61.72,111.1a3,3,0,0,1-1.51-.46L49.7,104.57l.16-.27,10.51,6.07a1.8,1.8,0,0,0,3-1.71v-2.54a2.1,2.1,0,0,1,3.43-2l2.2,1.27-.16.27-2.2-1.27a1.8,1.8,0,0,0-3,1.71v2.54a2.39,2.39,0,0,1-1,2.2A1.77,1.77,0,0,1,61.72,111.1Z"/><path class="cls-1" d="M156.15,66.61a1.77,1.77,0,0,1-.91-.24,2.4,2.4,0,0,1-1-2.2V61.63a2.08,2.08,0,0,0-.86-1.93,2.1,2.1,0,0,0-2.1.22l-2.2,1.27-.16-.27,2.2-1.27a2.1,2.1,0,0,1,3.43,2v2.54a2.08,2.08,0,0,0,.86,1.93,2.1,2.1,0,0,0,2.1-.22L168,59.81l.16.27-10.51,6.07A3.18,3.18,0,0,1,156.15,66.61Z"/><path class="cls-1" d="M160.23,69a1.77,1.77,0,0,1-.91-.24,2.4,2.4,0,0,1-1-2.2V64a2.08,2.08,0,0,0-.86-1.93,2.1,2.1,0,0,0-2.1.22l-2.2,1.27-.16-.27,2.2-1.27a2.1,2.1,0,0,1,3.43,2v2.54a2.08,2.08,0,0,0,.86,1.93,2.1,2.1,0,0,0,2.1-.22l10.51-6.07.16.27L161.74,68.5A3.12,3.12,0,0,1,160.23,69Z"/><path class="cls-1" d="M164.32,71.31a1.77,1.77,0,0,1-.91-.24,2.4,2.4,0,0,1-1-2.2V66.34a2.08,2.08,0,0,0-.86-1.93,2.1,2.1,0,0,0-2.1.22l-2.2,1.27-.16-.27,2.2-1.27a2.1,2.1,0,0,1,3.43,2v2.53a2.08,2.08,0,0,0,.86,1.93,2.1,2.1,0,0,0,2.1-.22l10.51-6.07.16.27-10.51,6.07A3,3,0,0,1,164.32,71.31Z"/><path class="cls-1" d="M168.41,73.66a1.86,1.86,0,0,1-.91-.23,2.4,2.4,0,0,1-1-2.21V68.69a2.08,2.08,0,0,0-.86-1.93,2.1,2.1,0,0,0-2.1.22l-2.2,1.27-.16-.27,2.2-1.27a2.1,2.1,0,0,1,3.43,2v2.53a2.08,2.08,0,0,0,.86,1.93,2.1,2.1,0,0,0,2.1-.22l10.51-6.07.16.27-10.51,6.07A3.13,3.13,0,0,1,168.41,73.66Z"/><path class="cls-1" d="M172.5,76a1.86,1.86,0,0,1-.91-.23,2.4,2.4,0,0,1-1-2.21V71a2.08,2.08,0,0,0-.86-1.93,2.1,2.1,0,0,0-2.1.22l-2.2,1.27-.16-.27,2.2-1.27a2.1,2.1,0,0,1,3.43,2v2.53a2.08,2.08,0,0,0,.86,1.93,2.1,2.1,0,0,0,2.1-.22l10.51-6.07.16.27L174,75.55A3,3,0,0,1,172.5,76Z"/><path class="cls-1" d="M176.59,78.36a1.86,1.86,0,0,1-.91-.23,2.4,2.4,0,0,1-1-2.2V73.39a2.08,2.08,0,0,0-.86-1.93,2.1,2.1,0,0,0-2.1.22L169.51,73l-.16-.27,2.2-1.27a2.1,2.1,0,0,1,3.43,2v2.54a2.08,2.08,0,0,0,.86,1.93,2.1,2.1,0,0,0,2.1-.22l10.51-6.07.16.27L178.1,77.91A3.16,3.16,0,0,1,176.59,78.36Z"/><path class="cls-1" d="M180.67,80.72a1.86,1.86,0,0,1-.91-.23,2.4,2.4,0,0,1-1-2.2V75.75a2.08,2.08,0,0,0-.86-1.93,2.1,2.1,0,0,0-2.1.22l-2.2,1.27-.16-.27,2.2-1.27a2.1,2.1,0,0,1,3.43,2v2.54a2.08,2.08,0,0,0,.86,1.93A2.1,2.1,0,0,0,182,80l10.51-6.07.16.27-10.51,6.07A3.21,3.21,0,0,1,180.67,80.72Z"/><path class="cls-1" d="M184.76,83.07a1.77,1.77,0,0,1-.91-.24,2.4,2.4,0,0,1-1-2.2V78.09a2.08,2.08,0,0,0-.86-1.93,2.1,2.1,0,0,0-2.1.22l-2.2,1.27-.16-.27,2.2-1.27a2.1,2.1,0,0,1,3.43,2v2.54a2.08,2.08,0,0,0,.86,1.93,2.1,2.1,0,0,0,2.1-.22l10.51-6.07.16.27-10.51,6.07A3.12,3.12,0,0,1,184.76,83.07Z"/><path class="cls-1" d="M188.85,85.42a1.77,1.77,0,0,1-.91-.24,2.4,2.4,0,0,1-1-2.2V80.44a2.08,2.08,0,0,0-.86-1.93,2.1,2.1,0,0,0-2.1.22L181.77,80l-.16-.27,2.2-1.27a2.1,2.1,0,0,1,3.43,2V83a2.08,2.08,0,0,0,.86,1.93,2.1,2.1,0,0,0,2.1-.22l10.51-6.07.16.27L190.36,85A3,3,0,0,1,188.85,85.42Z"/><path class="cls-1" d="M192.94,87.77a1.77,1.77,0,0,1-.91-.24,2.4,2.4,0,0,1-1-2.2V82.79a2.08,2.08,0,0,0-.86-1.93,2.1,2.1,0,0,0-2.1.22l-2.2,1.27-.16-.27,2.2-1.27a2.1,2.1,0,0,1,3.43,2v2.54a2.08,2.08,0,0,0,.86,1.93,2.1,2.1,0,0,0,2.1-.22L204.8,81l.16.27-10.51,6.07A3,3,0,0,1,192.94,87.77Z"/><path class="cls-1" d="M197,90.12a1.77,1.77,0,0,1-.91-.24,2.4,2.4,0,0,1-1-2.2V85.15a2.08,2.08,0,0,0-.86-1.93,2.1,2.1,0,0,0-2.1.22L190,84.71l-.16-.27,2.2-1.27a2.1,2.1,0,0,1,3.43,2v2.53a2.08,2.08,0,0,0,.86,1.93,2.1,2.1,0,0,0,2.1-.22l10.51-6.07.16.27-10.51,6.07A3.16,3.16,0,0,1,197,90.12Z"/><path class="cls-1" d="M201.11,92.47a1.86,1.86,0,0,1-.91-.23,2.4,2.4,0,0,1-1-2.21V87.5a2.08,2.08,0,0,0-.86-1.93,2.1,2.1,0,0,0-2.1.22L194,87.06l-.16-.27,2.2-1.27a2.1,2.1,0,0,1,3.43,2V90a2.08,2.08,0,0,0,.86,1.93,2.1,2.1,0,0,0,2.1-.22L213,85.68l.16.27L202.62,92A3.1,3.1,0,0,1,201.11,92.47Z"/><path class="cls-1" d="M205.2,94.83a1.86,1.86,0,0,1-.91-.23,2.4,2.4,0,0,1-1-2.21V89.86a2.08,2.08,0,0,0-.86-1.93,2.1,2.1,0,0,0-2.1.22l-2.2,1.27-.16-.27,2.2-1.27a2.1,2.1,0,0,1,3.43,2v2.53a2.08,2.08,0,0,0,.86,1.93,2.1,2.1,0,0,0,2.1-.22L217.06,88l.16.27-10.51,6.07A3.12,3.12,0,0,1,205.2,94.83Z"/><path class="cls-1" d="M209.29,97.18a1.86,1.86,0,0,1-.91-.23,2.4,2.4,0,0,1-1-2.2V92.21a2.08,2.08,0,0,0-.86-1.93,2.1,2.1,0,0,0-2.1.22l-2.2,1.27-.16-.27,2.2-1.27a2.1,2.1,0,0,1,3.43,2v2.54a2.08,2.08,0,0,0,.86,1.93,2.1,2.1,0,0,0,2.1-.22l10.51-6.07.16.27L210.8,96.73A3.21,3.21,0,0,1,209.29,97.18Z"/><path class="cls-1" d="M213.38,99.53a1.86,1.86,0,0,1-.91-.23,2.4,2.4,0,0,1-1-2.2V94.56a2.08,2.08,0,0,0-.86-1.93,2.1,2.1,0,0,0-2.1.22l-2.2,1.27-.16-.27,2.2-1.27a2.1,2.1,0,0,1,3.43,2V97.1a2.08,2.08,0,0,0,.86,1.93,2.1,2.1,0,0,0,2.1-.22l10.51-6.07.16.27-10.51,6.07A3.13,3.13,0,0,1,213.38,99.53Z"/><path class="cls-1" d="M217.47,101.88a1.77,1.77,0,0,1-.91-.24,2.4,2.4,0,0,1-1-2.2V96.9a2.08,2.08,0,0,0-.86-1.93,2.1,2.1,0,0,0-2.1.22l-2.2,1.27-.16-.27,2.2-1.27a2.1,2.1,0,0,1,3.43,2v2.54a2.08,2.08,0,0,0,.86,1.93,2.1,2.1,0,0,0,2.1-.22l10.51-6.07.16.27L219,101.42A3.07,3.07,0,0,1,217.47,101.88Z"/><path class="cls-1" d="M221.56,104.23a1.77,1.77,0,0,1-.91-.24,2.4,2.4,0,0,1-1-2.2V99.25a2.08,2.08,0,0,0-.86-1.93,2.1,2.1,0,0,0-2.1.22l-2.2,1.27-.16-.27,2.2-1.27a2.1,2.1,0,0,1,3.43,2v2.54a2.08,2.08,0,0,0,.86,1.93,2.1,2.1,0,0,0,2.1-.22l10.51-6.07.16.27-10.51,6.07A3.07,3.07,0,0,1,221.56,104.23Z"/><path class="cls-1" d="M225.64,106.58a1.77,1.77,0,0,1-.91-.24,2.4,2.4,0,0,1-1-2.2v-2.53a2.08,2.08,0,0,0-.86-1.93,2.1,2.1,0,0,0-2.1.22l-2.2,1.27-.16-.27,2.2-1.27a2.1,2.1,0,0,1,3.43,2v2.53a2.08,2.08,0,0,0,.86,1.93,2.1,2.1,0,0,0,2.1-.22l10.51-6.07.16.27-10.51,6.07A3,3,0,0,1,225.64,106.58Z"/><path class="cls-1" d="M229.73,108.94a1.86,1.86,0,0,1-.91-.23,2.4,2.4,0,0,1-1-2.2V104a2.08,2.08,0,0,0-.86-1.93,2.1,2.1,0,0,0-2.1.22l-2.2,1.27-.16-.27,2.2-1.27a2.1,2.1,0,0,1,3.43,2v2.53a2.08,2.08,0,0,0,.86,1.93,2.1,2.1,0,0,0,2.1-.22l10.51-6.07.16.27-10.51,6.07A3.31,3.31,0,0,1,229.73,108.94Z"/><path class="cls-1" d="M233.82,111.29a1.86,1.86,0,0,1-.91-.23,2.4,2.4,0,0,1-1-2.21v-2.53a2.08,2.08,0,0,0-.86-1.93,2.1,2.1,0,0,0-2.1.22l-2.2,1.27-.16-.27,2.2-1.27a2.1,2.1,0,0,1,3.43,2v2.53a2.08,2.08,0,0,0,.86,1.93,2.1,2.1,0,0,0,2.1-.22l10.51-6.07.16.27-10.51,6.07A3.15,3.15,0,0,1,233.82,111.29Z"/><polygon class="cls-9" points="228.57 106.65 228.57 115.98 147.8 162.61 67.04 115.98 67.04 106.65 228.57 106.65"/><polygon class="cls-8" points="147.8 153.28 67.04 106.65 147.8 60.02 228.57 106.65 147.8 153.28"/><polygon class="cls-4" points="147.8 152.19 67.98 106.1 67.04 106.65 147.8 153.28 228.57 106.65 227.63 106.1 147.8 152.19"/><polygon class="cls-10" points="147.8 142.52 85.68 106.66 147.8 70.79 209.92 106.66 147.8 142.52"/><polygon class="cls-11" points="147.8 142.52 85.68 106.66 147.8 70.79 209.93 106.66 147.8 142.52"/><polygon class="cls-12" points="147.8 61.75 209.93 97.61 209.93 106.66 147.8 70.79 147.8 61.75"/><polygon class="cls-13" points="147.8 70.79 85.68 106.66 85.68 97.61 147.8 61.75 147.8 70.79"/><polygon class="cls-14" points="147.8 133.48 85.68 97.61 147.8 61.75 209.93 97.61 147.8 133.48"/><polygon class="cls-15" points="147.8 111.95 122.98 97.61 147.8 83.28 172.63 97.61 147.8 111.95"/><polygon class="cls-15" points="147.8 84.6 171.48 98.27 172.63 97.61 147.8 83.28 122.98 97.61 124.12 98.27 147.8 84.6"/><polygon class="cls-16" points="147.8 133.48 147.8 142.52 209.93 106.66 209.93 97.61 147.8 133.48"/><polygon class="cls-17" points="85.68 97.61 85.68 106.66 147.8 142.52 147.8 133.48 85.68 97.61"/><polygon class="cls-18" points="147.8 132.49 86.54 97.12 85.68 97.61 147.8 133.48 209.93 97.61 209.07 97.12 147.8 132.49"/><path class="cls-1" d="M168,173.58l-10.51-6.07a7.24,7.24,0,0,1-3.27-5.67V159.3a6.9,6.9,0,0,0-3.11-5.39l-2.2-1.27.16-.27,2.2,1.27a7.24,7.24,0,0,1,3.27,5.67v2.54a6.9,6.9,0,0,0,3.11,5.39l10.51,6.07Z"/><path class="cls-1" d="M172.09,171.22l-10.51-6.07a7.24,7.24,0,0,1-3.27-5.67v-2.54a6.9,6.9,0,0,0-3.11-5.39l-2.2-1.27.16-.27,2.2,1.27a7.24,7.24,0,0,1,3.27,5.67v2.54a6.9,6.9,0,0,0,3.11,5.39L172.25,171Z"/><path class="cls-1" d="M176.18,168.87l-10.51-6.07a7.26,7.26,0,0,1-3.27-5.67V154.6a6.9,6.9,0,0,0-3.11-5.39l-2.2-1.27.16-.27,2.2,1.27a7.24,7.24,0,0,1,3.27,5.67v2.53a6.9,6.9,0,0,0,3.11,5.39l10.51,6.07Z"/><path class="cls-1" d="M180.27,166.51l-10.51-6.07a7.24,7.24,0,0,1-3.27-5.67v-2.54a6.9,6.9,0,0,0-3.11-5.39l-2.2-1.27.16-.27,2.2,1.27a7.24,7.24,0,0,1,3.27,5.67v2.54a6.9,6.9,0,0,0,3.11,5.39l10.51,6.07Z"/><path class="cls-1" d="M184.36,164.15l-10.51-6.07a7.24,7.24,0,0,1-3.27-5.67v-2.54a6.9,6.9,0,0,0-3.11-5.39l-2.2-1.27.16-.27,2.2,1.27a7.24,7.24,0,0,1,3.27,5.67v2.54a6.9,6.9,0,0,0,3.11,5.39l10.51,6.07Z"/><path class="cls-1" d="M188.44,161.8l-10.51-6.07a7.24,7.24,0,0,1-3.27-5.67v-2.53a6.9,6.9,0,0,0-3.11-5.39l-2.2-1.27.16-.27,2.2,1.27a7.24,7.24,0,0,1,3.27,5.67v2.53a6.9,6.9,0,0,0,3.11,5.39l10.51,6.07Z"/><path class="cls-1" d="M192.53,159.44,182,153.37a7.24,7.24,0,0,1-3.27-5.67v-2.54a6.9,6.9,0,0,0-3.11-5.39l-2.2-1.27.16-.27,2.2,1.27a7.24,7.24,0,0,1,3.27,5.67v2.54a6.9,6.9,0,0,0,3.11,5.39l10.51,6.07Z"/><path class="cls-1" d="M196.62,157.09,186.11,151a7.24,7.24,0,0,1-3.27-5.67v-2.54a6.9,6.9,0,0,0-3.11-5.39l-2.2-1.27.16-.27,2.2,1.27a7.24,7.24,0,0,1,3.27,5.67v2.54a6.9,6.9,0,0,0,3.11,5.39l10.51,6.07Z"/><path class="cls-1" d="M200.71,154.73l-10.51-6.07a7.24,7.24,0,0,1-3.27-5.67v-2.53a6.9,6.9,0,0,0-3.11-5.39l-2.2-1.27.16-.27,2.2,1.27a7.24,7.24,0,0,1,3.27,5.67V143a6.9,6.9,0,0,0,3.11,5.39l10.51,6.07Z"/><path class="cls-1" d="M204.8,152.37l-10.51-6.07a7.24,7.24,0,0,1-3.27-5.67v-2.54a6.9,6.9,0,0,0-3.11-5.39l-2.2-1.27.16-.27,2.2,1.27a7.24,7.24,0,0,1,3.27,5.67v2.54a6.9,6.9,0,0,0,3.11,5.39L205,152.1Z"/><path class="cls-1" d="M208.88,150,198.37,144a7.24,7.24,0,0,1-3.27-5.67v-2.54a6.9,6.9,0,0,0-3.11-5.39l-2.2-1.27.16-.27,2.2,1.27a7.24,7.24,0,0,1,3.27,5.67v2.54a6.9,6.9,0,0,0,3.11,5.39L209,149.75Z"/><path class="cls-1" d="M213,147.66l-10.51-6.07a7.24,7.24,0,0,1-3.27-5.67v-2.53a6.9,6.9,0,0,0-3.11-5.39l-2.2-1.27.16-.27,2.2,1.27a7.24,7.24,0,0,1,3.27,5.67v2.53a6.9,6.9,0,0,0,3.11,5.39l10.51,6.07Z"/><path class="cls-1" d="M217.06,145.31l-10.51-6.07a7.24,7.24,0,0,1-3.27-5.67V131a6.9,6.9,0,0,0-3.11-5.39l-2.2-1.27.16-.27,2.2,1.27A7.24,7.24,0,0,1,203.6,131v2.54a6.9,6.9,0,0,0,3.11,5.39L217.22,145Z"/><path class="cls-1" d="M221.15,143l-10.51-6.07a7.24,7.24,0,0,1-3.27-5.67v-2.54a6.9,6.9,0,0,0-3.11-5.39l-2.2-1.27.16-.27,2.2,1.27a7.24,7.24,0,0,1,3.27,5.67v2.54a6.9,6.9,0,0,0,3.11,5.39l10.51,6.07Z"/><path class="cls-1" d="M225.24,140.6l-10.51-6.07a7.24,7.24,0,0,1-3.27-5.67v-2.53a6.9,6.9,0,0,0-3.11-5.39l-2.2-1.27.16-.27,2.2,1.27a7.24,7.24,0,0,1,3.27,5.67v2.53a6.9,6.9,0,0,0,3.11,5.39l10.51,6.07Z"/><path class="cls-1" d="M229.33,138.24l-10.51-6.07a7.24,7.24,0,0,1-3.27-5.67V124a6.9,6.9,0,0,0-3.11-5.39l-2.2-1.27.16-.27,2.2,1.27a7.24,7.24,0,0,1,3.27,5.67v2.54A6.9,6.9,0,0,0,219,131.9L229.49,138Z"/><path class="cls-1" d="M233.41,135.88l-10.51-6.07a7.24,7.24,0,0,1-3.27-5.67V121.6a6.9,6.9,0,0,0-3.11-5.39l-2.2-1.27.16-.27,2.2,1.27a7.24,7.24,0,0,1,3.27,5.67v2.54a6.9,6.9,0,0,0,3.11,5.39l10.51,6.07Z"/><path class="cls-1" d="M237.5,133.53,227,127.46a7.24,7.24,0,0,1-3.27-5.67v-2.53a6.9,6.9,0,0,0-3.11-5.39l-2.2-1.27.16-.27,2.2,1.27a7.26,7.26,0,0,1,3.27,5.67v2.53a6.9,6.9,0,0,0,3.11,5.39l10.51,6.07Z"/><path class="cls-1" d="M241.59,131.17l-10.51-6.07a7.24,7.24,0,0,1-3.27-5.67v-2.54a6.9,6.9,0,0,0-3.11-5.39l-2.2-1.27.16-.27,2.2,1.27a7.24,7.24,0,0,1,3.27,5.67v2.54a6.9,6.9,0,0,0,3.11,5.39l10.51,6.07Z"/><path class="cls-1" d="M245.68,128.82l-10.51-6.07a7.24,7.24,0,0,1-3.27-5.67v-2.54a6.9,6.9,0,0,0-3.11-5.39l-2.2-1.27.16-.27,2.2,1.27a7.24,7.24,0,0,1,3.27,5.67v2.54a6.9,6.9,0,0,0,3.11,5.39l10.51,6.07Z"/><path class="cls-1" d="M127.32,173.58l-.16-.27,10.51-6.07a6.88,6.88,0,0,0,3.11-5.39v-2.54a7.27,7.27,0,0,1,3.27-5.67l2.2-1.27.16.27-2.2,1.27a6.88,6.88,0,0,0-3.11,5.39v2.54a7.26,7.26,0,0,1-3.27,5.67Z"/><path class="cls-1" d="M123.23,171.22l-.16-.27,10.51-6.07a6.88,6.88,0,0,0,3.11-5.39V157a7.26,7.26,0,0,1,3.27-5.67l2.2-1.27.16.27-2.2,1.27a6.88,6.88,0,0,0-3.11,5.39v2.54a7.27,7.27,0,0,1-3.27,5.67Z"/><path class="cls-1" d="M119.14,168.87l-.16-.27,10.51-6.07a6.88,6.88,0,0,0,3.11-5.39v-2.53a7.26,7.26,0,0,1,3.27-5.67l2.2-1.27.16.27-2.2,1.27a6.88,6.88,0,0,0-3.11,5.39v2.53a7.26,7.26,0,0,1-3.27,5.67Z"/><path class="cls-1" d="M115.05,166.51l-.16-.27,10.51-6.07a6.88,6.88,0,0,0,3.11-5.39v-2.54a7.27,7.27,0,0,1,3.27-5.67l2.2-1.27.16.27-2.2,1.27a6.88,6.88,0,0,0-3.11,5.39v2.54a7.26,7.26,0,0,1-3.27,5.67Z"/><path class="cls-1" d="M111,164.15l-.16-.27,10.51-6.07a6.88,6.88,0,0,0,3.11-5.39v-2.54a7.26,7.26,0,0,1,3.27-5.67l2.2-1.27.16.27-2.2,1.27a6.88,6.88,0,0,0-3.11,5.39v2.54a7.27,7.27,0,0,1-3.27,5.67Z"/><path class="cls-1" d="M106.88,161.8l-.16-.27,10.51-6.07a6.88,6.88,0,0,0,3.11-5.39v-2.53a7.26,7.26,0,0,1,3.27-5.67l2.2-1.27.16.27-2.2,1.27a6.88,6.88,0,0,0-3.11,5.39v2.53a7.26,7.26,0,0,1-3.27,5.67Z"/><path class="cls-1" d="M102.79,159.44l-.16-.27,10.51-6.07a6.88,6.88,0,0,0,3.11-5.39v-2.54a7.27,7.27,0,0,1,3.27-5.67l2.2-1.27.16.27-2.2,1.27a6.88,6.88,0,0,0-3.11,5.39v2.54a7.26,7.26,0,0,1-3.27,5.67Z"/><path class="cls-1" d="M98.7,157.09l-.16-.27,10.51-6.07a6.88,6.88,0,0,0,3.11-5.39v-2.54a7.26,7.26,0,0,1,3.27-5.67l2.2-1.27.16.27-2.2,1.27a6.88,6.88,0,0,0-3.11,5.39v2.54a7.27,7.27,0,0,1-3.27,5.67Z"/><path class="cls-1" d="M77.65,164.29l-.08,0L32.86,138.59l.16-.28,44.63,25.62,16.8-9.47L105,148.39a6.88,6.88,0,0,0,3.11-5.39v-2.53a7.26,7.26,0,0,1,3.27-5.67l2.2-1.27.16.27-2.2,1.27a6.88,6.88,0,0,0-3.11,5.39V143a7.26,7.26,0,0,1-3.27,5.67l-10.51,6.07Z"/><path class="cls-1" d="M90.52,152.37l-.16-.27L100.87,146a6.88,6.88,0,0,0,3.11-5.39V138.1a7.27,7.27,0,0,1,3.27-5.67l2.2-1.27.16.27-2.2,1.27a6.88,6.88,0,0,0-3.11,5.39v2.54A7.26,7.26,0,0,1,101,146.3Z"/><path class="cls-1" d="M86.43,150l-.16-.27,10.51-6.07a6.88,6.88,0,0,0,3.11-5.39v-2.54a7.26,7.26,0,0,1,3.27-5.67l2.2-1.27.16.27-2.2,1.27a6.88,6.88,0,0,0-3.11,5.39v2.54A7.27,7.27,0,0,1,96.94,144Z"/><path class="cls-1" d="M82.35,147.66l-.16-.27,10.51-6.07a6.88,6.88,0,0,0,3.11-5.39V133.4a7.26,7.26,0,0,1,3.27-5.67l2.2-1.27.16.27L99.24,128a6.88,6.88,0,0,0-3.11,5.39v2.53a7.26,7.26,0,0,1-3.27,5.67Z"/><path class="cls-1" d="M78.26,145.31,78.1,145,88.61,139a6.88,6.88,0,0,0,3.11-5.39V131A7.27,7.27,0,0,1,95,125.37l2.2-1.27.16.27-2.2,1.27A6.88,6.88,0,0,0,92,131v2.54a7.26,7.26,0,0,1-3.27,5.67Z"/><path class="cls-1" d="M74.17,143l-.16-.27,10.51-6.07a6.88,6.88,0,0,0,3.11-5.39v-2.54A7.26,7.26,0,0,1,90.9,123l2.2-1.27.16.27-2.2,1.27A6.88,6.88,0,0,0,88,128.67v2.54a7.27,7.27,0,0,1-3.27,5.67Z"/><path class="cls-1" d="M70.08,140.6l-.16-.27,10.51-6.07a6.88,6.88,0,0,0,3.11-5.39v-2.53a7.26,7.26,0,0,1,3.27-5.67L89,119.4l.16.27L87,120.94a6.88,6.88,0,0,0-3.11,5.39v2.53a7.26,7.26,0,0,1-3.27,5.67Z"/><path class="cls-1" d="M66,138.24l-.16-.27,10.51-6.07a6.88,6.88,0,0,0,3.11-5.39V124a7.27,7.27,0,0,1,3.27-5.67l2.2-1.27.16.27-2.2,1.27A6.88,6.88,0,0,0,79.77,124v2.54a7.26,7.26,0,0,1-3.27,5.67Z"/><path class="cls-1" d="M61.91,135.88l-.16-.27,10.51-6.07a6.88,6.88,0,0,0,3.11-5.39v-2.54a7.26,7.26,0,0,1,3.27-5.67l2.2-1.27.16.27-2.2,1.27a6.88,6.88,0,0,0-3.11,5.39v2.54a7.27,7.27,0,0,1-3.27,5.67Z"/><path class="cls-1" d="M57.82,133.53l-.16-.27,10.51-6.07a6.88,6.88,0,0,0,3.11-5.39v-2.53a7.26,7.26,0,0,1,3.27-5.67l2.2-1.27.16.27-2.2,1.27a6.88,6.88,0,0,0-3.11,5.39v2.53a7.26,7.26,0,0,1-3.27,5.67Z"/><path class="cls-1" d="M53.73,131.17l-.16-.27,10.51-6.07a6.88,6.88,0,0,0,3.11-5.39V116.9a7.27,7.27,0,0,1,3.27-5.67l2.2-1.27.16.27-2.2,1.27a6.88,6.88,0,0,0-3.11,5.39v2.54a7.27,7.27,0,0,1-3.27,5.67Z"/><path class="cls-1" d="M49.64,128.82l-.16-.27L60,122.48a6.88,6.88,0,0,0,3.11-5.39v-2.54a7.26,7.26,0,0,1,3.27-5.67l2.2-1.27.16.27-2.2,1.27a6.88,6.88,0,0,0-3.11,5.39v2.54a7.27,7.27,0,0,1-3.27,5.67Z"/><g class="cls-2"><polygon class="cls-1" points="67.04 84.62 51.97 75.92 51.97 93.32 67.04 102.02 82.1 93.32 82.1 75.92 67.04 84.62"/><polygon class="cls-1" points="67.04 102.02 51.97 93.32 51.97 75.92 67.04 84.62 67.04 102.02"/><polygon class="cls-3" points="82.1 93.32 67.04 102.02 67.04 84.62 82.1 75.92 82.1 93.32"/><polygon class="cls-1" points="67.04 84.62 51.97 75.92 67.03 67.22 82.1 75.92 67.04 84.62"/><polygon class="cls-4" points="67.04 84.62 51.97 75.92 51.97 76.67 67.04 85.37 82.1 76.67 82.1 75.92 67.04 84.62"/></g><polygon class="cls-19" points="67.04 74.07 51.97 65.37 67.03 56.67 82.1 65.37 67.04 74.07"/><polygon class="cls-1" points="67.04 43.49 51.97 34.8 51.97 52.19 67.04 60.89 82.1 52.19 82.1 34.8 67.04 43.49"/><polygon class="cls-1" points="67.04 60.89 51.97 52.19 51.97 34.8 67.04 43.49 67.04 60.89"/><polygon class="cls-3" points="82.1 52.19 67.04 60.89 67.04 43.49 82.1 34.8 82.1 52.19"/><polygon class="cls-1" points="67.04 43.49 51.97 34.8 67.03 26.1 82.1 34.8 67.04 43.49"/><polygon class="cls-3" points="67.03 41.36 55.67 34.8 67.03 28.23 78.4 34.8 67.03 41.36"/><polygon class="cls-4" points="67.04 43.49 51.97 34.8 51.97 35.55 67.04 44.25 82.1 35.55 82.1 34.8 67.04 43.49"/><polygon class="cls-1" points="67.04 17.4 51.97 8.7 51.97 26.1 67.04 34.8 82.1 26.1 82.1 8.7 67.04 17.4"/><polygon class="cls-1" points="67.04 34.8 51.97 26.1 51.97 8.7 67.04 17.4 67.04 34.8"/><polygon class="cls-3" points="82.1 26.1 67.04 34.8 67.04 17.4 82.1 8.7 82.1 26.1"/><polygon class="cls-1" points="67.04 17.4 51.97 8.7 67.03 0 82.1 8.7 67.04 17.4"/><polygon class="cls-4" points="67.04 17.4 51.97 8.7 51.97 9.45 67.04 18.15 82.1 9.45 82.1 8.7 67.04 17.4"/><g class="cls-2"><polygon class="cls-1" points="265.36 94.63 250.29 85.93 250.29 103.33 265.36 112.03 280.43 103.33 280.43 85.93 265.36 94.63"/><polygon class="cls-1" points="265.36 112.03 250.29 103.33 250.29 85.93 265.36 94.63 265.36 112.03"/><polygon class="cls-3" points="280.43 103.33 265.36 112.03 265.36 94.63 280.43 85.93 280.43 103.33"/><polygon class="cls-1" points="265.36 94.63 250.29 85.93 265.36 77.23 280.43 85.93 265.36 94.63"/><polygon class="cls-4" points="265.36 94.63 250.29 85.93 250.29 86.69 265.36 95.39 280.43 86.69 280.43 85.93 265.36 94.63"/></g><path class="cls-1" d="M265.76,88.17l-.08,0L243.62,75.39l.24-.14,21.9-12.64.08,0L287.9,75.39l-.24.14Zm-21.5-12.78,21.5,12.42,21.5-12.42L265.76,63Z"/><polygon class="cls-19" points="265.36 84.09 250.29 75.39 265.36 66.69 280.43 75.39 265.36 84.09"/><polygon class="cls-1" points="265.36 53.51 250.29 44.81 250.29 62.21 265.36 70.91 280.43 62.21 280.43 44.81 265.36 53.51"/><polygon class="cls-1" points="265.36 70.91 250.29 62.21 250.29 44.81 265.36 53.51 265.36 70.91"/><polygon class="cls-3" points="280.43 62.21 265.36 70.91 265.36 53.51 280.43 44.81 280.43 62.21"/><polygon class="cls-1" points="265.36 53.51 250.29 44.81 265.36 36.11 280.43 44.81 265.36 53.51"/><polygon class="cls-4" points="265.36 53.51 250.29 44.81 250.29 45.56 265.36 54.26 280.43 45.57 280.43 44.81 265.36 53.51"/><path class="cls-1" d="M22.14,144.86l-.08-.05L0,132.07l.24-.14,21.9-12.64.08,0,22.06,12.74-.24.14ZM.64,132.08l21.5,12.42,21.5-12.42-21.5-12.42Z"/><g class="cls-2"><polygon class="cls-1" points="22.14 151.6 7.07 142.9 7.07 160.3 22.14 169 37.21 160.3 37.21 142.9 22.14 151.6"/><polygon class="cls-1" points="22.14 169 7.07 160.3 7.07 142.9 22.14 151.6 22.14 169"/><polygon class="cls-3" points="37.21 160.3 22.14 169 22.14 151.6 37.21 142.9 37.21 160.3"/><polygon class="cls-1" points="22.14 151.6 7.07 142.9 22.14 134.2 37.21 142.9 22.14 151.6"/><polygon class="cls-4" points="22.14 151.6 7.07 142.9 7.07 143.65 22.14 152.35 37.21 143.65 37.21 142.9 22.14 151.6"/></g><polygon class="cls-19" points="22.14 141.05 7.07 132.35 22.14 123.65 37.21 132.35 22.14 141.05"/><polygon class="cls-1" points="22.14 110.48 7.07 101.78 7.07 119.17 22.14 127.87 37.21 119.17 37.21 101.78 22.14 110.48"/><polygon class="cls-1" points="22.14 127.87 7.07 119.17 7.07 101.78 22.14 110.48 22.14 127.87"/><polygon class="cls-3" points="37.21 119.17 22.14 127.87 22.14 110.48 37.21 101.78 37.21 119.17"/><polygon class="cls-1" points="22.14 110.48 7.07 101.78 22.14 93.08 37.21 101.78 22.14 110.48"/><polygon class="cls-4" points="22.14 110.48 7.07 101.78 7.07 102.53 22.14 111.23 37.21 102.53 37.21 101.78 22.14 110.48"/><g class="cls-2"><polygon class="cls-1" points="146.33 234.52 131.26 225.82 131.26 243.22 146.33 251.92 161.4 243.22 161.4 225.82 146.33 234.52"/><polygon class="cls-1" points="146.33 251.92 131.26 243.22 131.26 225.82 146.33 234.52 146.33 251.92"/><polygon class="cls-3" points="161.4 243.22 146.33 251.92 146.33 234.52 161.4 225.82 161.4 243.22"/><polygon class="cls-1" points="146.33 234.52 131.26 225.82 146.33 217.12 161.4 225.82 146.33 234.52"/><polygon class="cls-4" points="146.33 234.52 131.26 225.82 131.26 226.57 146.33 235.27 161.4 226.57 161.4 225.82 146.33 234.52"/></g><polygon class="cls-19" points="146.33 223.97 131.26 215.27 146.33 206.57 161.4 215.27 146.33 223.97"/><polygon class="cls-1" points="146.33 193.4 131.26 184.7 131.26 202.09 146.33 210.79 161.4 202.09 161.4 184.7 146.33 193.4"/><polygon class="cls-1" points="146.33 210.79 131.26 202.09 131.26 184.7 146.33 193.4 146.33 210.79"/><polygon class="cls-3" points="161.4 202.09 146.33 210.79 146.33 193.4 161.4 184.7 161.4 202.09"/><polygon class="cls-1" points="146.33 193.4 131.26 184.7 146.33 176 161.4 184.7 146.33 193.4"/><polygon class="cls-4" points="146.33 193.4 131.26 184.7 131.26 185.45 146.33 194.15 161.4 185.45 161.4 184.7 146.33 193.4"/><g class="cls-2"><polygon class="cls-1" points="270.23 193.78 283.26 205.3 286.72 188.25 273.69 176.73 257.19 182.25 253.73 199.3 270.23 193.78"/><polygon class="cls-1" points="273.69 176.73 286.72 188.25 283.26 205.3 270.23 193.78 273.69 176.73"/><polygon class="cls-3" points="257.19 182.25 273.69 176.73 270.23 193.78 253.73 199.3 257.19 182.25"/><polygon class="cls-1" points="270.23 193.78 283.26 205.3 266.77 210.83 253.73 199.3 270.23 193.78"/><polygon class="cls-4" points="270.23 193.78 283.26 205.3 283.41 204.56 270.38 193.04 253.88 198.57 253.73 199.3 270.23 193.78"/></g><polygon class="cls-19" points="272.9 187.15 257.83 178.45 272.9 169.75 287.96 178.45 272.9 187.15"/><path class="cls-20" d="M272.9,202.26c-9.93,0-19.86-2.18-27.42-6.55-7.35-4.25-11.41-9.9-11.41-15.92s4.05-11.68,11.41-15.92c15.12-8.73,39.72-8.73,54.85,0,7.35,4.25,11.41,9.9,11.41,15.92s-4.05,11.68-11.4,15.92C292.76,200.07,282.83,202.26,272.9,202.26Zm0-44.63c-9.87,0-19.75,2.17-27.26,6.51-7.25,4.19-11.25,9.75-11.25,15.65s4,11.46,11.25,15.65c15,8.68,39.5,8.68,54.53,0,7.25-4.19,11.25-9.75,11.25-15.65s-4-11.46-11.25-15.65C292.64,159.8,282.77,157.63,272.89,157.63Z"/><path class="cls-21" d="M272.9,208.28c-12.6,0-25.2-2.77-34.8-8.31-9.32-5.38-14.46-12.55-14.46-20.18s5.14-14.8,14.46-20.18c19.19-11.08,50.41-11.08,69.59,0,9.33,5.38,14.46,12.55,14.46,20.18S317,194.59,307.69,200l-.08-.14.08.14C298.1,205.51,285.5,208.28,272.9,208.28Zm0-56.67c-12.54,0-25.09,2.76-34.64,8.27C229,165.21,224,172.27,224,179.79s5.08,14.58,14.3,19.91c19.1,11,50.18,11,69.28,0h0c9.22-5.33,14.3-12.39,14.3-19.91s-5.08-14.58-14.3-19.91C298,154.36,285.44,151.61,272.89,151.61Z"/><path class="cls-1" d="M272.9,197.52c-7.83,0-15.65-1.72-21.61-5.16-5.8-3.35-9-7.81-9-12.57s3.2-9.22,9-12.57c11.92-6.88,31.31-6.88,43.23,0,5.8,3.35,9,7.82,9,12.57s-3.2,9.22-9,12.57C288.55,195.8,280.72,197.52,272.9,197.52Zm0-35.15c-7.77,0-15.54,1.71-21.45,5.12-5.7,3.29-8.84,7.66-8.84,12.3s3.14,9,8.84,12.3c11.83,6.83,31.08,6.83,42.91,0l.08.14-.08-.14c5.7-3.29,8.84-7.66,8.84-12.29s-3.14-9-8.84-12.3C288.44,164.07,280.67,162.37,272.9,162.37Z"/><polygon class="cls-1" points="271.16 163.14 269.43 145.83 255.3 155.98 257.03 173.3 272.89 180.46 287.02 170.31 271.16 163.14"/><polygon class="cls-1" points="257.03 173.3 255.3 155.98 269.43 145.83 271.16 163.14 257.03 173.3"/><polygon class="cls-3" points="272.89 180.46 257.03 173.3 271.16 163.14 287.02 170.31 272.89 180.46"/><polygon class="cls-1" points="271.16 163.14 269.43 145.83 285.29 152.99 287.02 170.31 271.16 163.14"/><polygon class="cls-4" points="271.16 163.14 269.43 145.83 268.82 146.27 270.55 163.59 286.4 170.75 287.02 170.31 271.16 163.14"/><polygon class="cls-19" points="263.99 176.44 278.48 176.44 272.89 180.46 263.99 176.44"/><polygon class="cls-1" points="147.8 66.07 132.74 57.37 132.74 74.77 147.8 83.47 162.87 74.77 162.87 57.37 147.8 66.07"/><polygon class="cls-1" points="147.8 83.47 132.74 74.77 132.74 57.37 147.8 66.07 147.8 83.47"/><polygon class="cls-3" points="162.87 74.77 147.8 83.47 147.8 66.07 162.87 57.37 162.87 74.77"/><polygon class="cls-1" points="147.8 66.07 132.74 57.37 147.8 48.67 162.87 57.37 147.8 66.07"/><polygon class="cls-4" points="147.8 66.07 133.39 57.75 132.74 58.13 147.8 66.83 162.87 58.13 162.22 57.75 147.8 66.07"/><polygon class="cls-1" points="167.38 77.24 152.31 68.54 152.31 85.94 167.38 94.64 182.44 85.94 182.44 68.54 167.38 77.24"/><polygon class="cls-1" points="167.38 94.64 152.31 85.94 152.31 68.54 167.38 77.24 167.38 94.64"/><polygon class="cls-3" points="182.44 85.94 167.38 94.64 167.38 77.24 182.44 68.54 182.44 85.94"/><polygon class="cls-1" points="167.38 77.24 152.31 68.54 167.38 59.84 182.44 68.54 167.38 77.24"/><polygon class="cls-4" points="167.38 77.24 152.96 68.92 152.31 69.29 167.38 77.99 182.44 69.29 181.79 68.92 167.38 77.24"/><polygon class="cls-1" points="186.95 88.41 171.88 79.71 171.88 97.1 186.95 105.8 202.02 97.1 202.02 79.71 186.95 88.41"/><polygon class="cls-1" points="186.95 105.8 171.88 97.1 171.88 79.71 186.95 88.41 186.95 105.8"/><polygon class="cls-3" points="202.02 97.1 186.95 105.8 186.95 88.41 202.02 79.71 202.02 97.1"/><polygon class="cls-1" points="186.95 88.41 171.88 79.71 186.95 71.01 202.01 79.71 186.95 88.41"/><polygon class="cls-4" points="186.95 88.41 172.53 80.08 171.88 80.46 186.95 89.16 202.01 80.46 202.02 79.71 186.95 88.41"/><polygon class="cls-1" points="128.23 77.99 113.16 69.29 113.16 86.69 128.23 95.39 143.3 86.69 143.3 69.29 128.23 77.99"/><polygon class="cls-1" points="128.23 95.39 113.16 86.69 113.16 69.29 128.23 77.99 128.23 95.39"/><polygon class="cls-3" points="143.3 86.69 128.23 95.39 128.23 77.99 143.3 69.29 143.3 86.69"/><polygon class="cls-1" points="128.23 77.99 113.16 69.29 128.23 60.59 143.3 69.29 128.23 77.99"/><polygon class="cls-4" points="128.23 77.99 113.82 69.67 113.16 70.05 128.23 78.75 143.3 70.05 142.65 69.67 128.23 77.99"/><polygon class="cls-1" points="147.8 89.16 132.74 80.46 132.74 97.86 147.8 106.56 162.87 97.86 162.87 80.46 147.8 89.16"/><polygon class="cls-1" points="147.8 106.56 132.74 97.86 132.74 80.46 147.8 89.16 147.8 106.56"/><polygon class="cls-3" points="162.87 97.86 147.8 106.56 147.8 89.16 162.87 80.46 162.87 97.86"/><polygon class="cls-1" points="147.8 89.16 132.74 80.46 147.8 71.76 162.87 80.46 147.8 89.16"/><polygon class="cls-4" points="147.8 89.16 133.39 80.84 132.74 81.22 147.8 89.91 162.87 81.22 162.22 80.84 147.8 89.16"/><polygon class="cls-1" points="167.38 100.33 152.31 91.63 152.31 109.03 167.38 117.73 182.44 109.03 182.44 91.63 167.38 100.33"/><polygon class="cls-1" points="167.38 117.73 152.31 109.03 152.31 91.63 167.38 100.33 167.38 117.73"/><polygon class="cls-3" points="182.44 109.03 167.38 117.73 167.38 100.33 182.44 91.63 182.44 109.03"/><polygon class="cls-1" points="167.38 100.33 152.31 91.63 167.38 82.93 182.44 91.63 167.38 100.33"/><polygon class="cls-4" points="167.38 100.33 152.96 92.01 152.31 92.38 167.38 101.08 182.44 92.38 182.44 91.63 167.38 100.33"/><polygon class="cls-1" points="108.66 89.91 93.59 81.22 93.59 98.61 108.66 107.31 123.73 98.61 123.73 81.22 108.66 89.91"/><polygon class="cls-1" points="108.66 107.31 93.59 98.61 93.59 81.22 108.66 89.91 108.66 107.31"/><polygon class="cls-3" points="123.73 98.61 108.66 107.31 108.66 89.91 123.73 81.22 123.73 98.61"/><polygon class="cls-1" points="108.66 89.91 93.59 81.22 108.66 72.52 123.73 81.22 108.66 89.91"/><polygon class="cls-4" points="108.66 89.91 93.59 81.22 93.59 81.97 108.66 90.67 123.73 81.97 123.07 81.59 108.66 89.91"/><polygon class="cls-1" points="128.23 101.08 113.16 92.38 113.16 109.78 128.23 118.48 143.3 109.78 143.3 92.38 128.23 101.08"/><polygon class="cls-1" points="128.23 118.48 113.16 109.78 113.16 92.38 128.23 101.08 128.23 118.48"/><polygon class="cls-3" points="143.3 109.78 128.23 118.48 128.23 101.08 143.3 92.38 143.3 109.78"/><polygon class="cls-1" points="128.23 101.08 113.16 92.38 128.23 83.68 143.3 92.38 128.23 101.08"/><polygon class="cls-4" points="128.23 101.08 113.16 92.38 113.16 93.14 128.23 101.84 143.3 93.14 142.65 92.76 128.23 101.08"/><polygon class="cls-1" points="147.8 112.25 132.74 103.55 132.74 120.95 147.8 129.65 162.87 120.95 162.87 103.55 147.8 112.25"/><polygon class="cls-1" points="147.8 129.65 132.74 120.95 132.74 103.55 147.8 112.25 147.8 129.65"/><polygon class="cls-3" points="162.87 120.95 147.8 129.65 147.8 112.25 162.87 103.55 162.87 120.95"/><polygon class="cls-1" points="147.8 112.25 132.74 103.55 147.8 94.85 162.87 103.55 147.8 112.25"/><polygon class="cls-4" points="147.8 112.25 132.74 103.55 132.74 104.3 147.8 113 162.87 104.3 162.87 103.55 147.8 112.25"/><polygon class="cls-1" points="147.8 42.98 132.74 34.28 132.74 51.68 147.8 60.38 162.87 51.68 162.87 34.28 147.8 42.98"/><polygon class="cls-1" points="147.8 60.38 132.74 51.68 132.74 34.28 147.8 42.98 147.8 60.38"/><polygon class="cls-3" points="162.87 51.68 147.8 60.38 147.8 42.98 162.87 34.28 162.87 51.68"/><polygon class="cls-1" points="147.8 42.98 132.74 34.28 147.8 25.58 162.87 34.28 147.8 42.98"/><polygon class="cls-4" points="147.8 42.98 133.39 34.66 132.74 35.04 147.8 43.74 162.87 35.04 162.22 34.66 147.8 42.98"/><polygon class="cls-5" points="147.8 109.42 137.53 103.48 147.8 97.55 158.08 103.48 147.8 109.42"/><polygon class="cls-5" points="128.23 98.25 117.95 92.31 128.23 86.38 138.51 92.31 128.23 98.25"/><polygon class="cls-5" points="167.38 97.49 157.1 91.56 167.38 85.63 177.65 91.56 167.38 97.49"/><polygon class="cls-5" points="186.98 85.71 176.71 79.77 186.98 73.84 197.26 79.77 186.98 85.71"/><polygon class="cls-5" points="108.66 87.08 98.38 81.15 108.66 75.21 118.94 81.15 108.66 87.08"/><polygon class="cls-1" points="167.38 54.15 152.31 45.45 152.31 62.85 167.38 71.55 182.44 62.85 182.44 45.45 167.38 54.15"/><polygon class="cls-1" points="167.38 71.55 152.31 62.85 152.31 45.45 167.38 54.15 167.38 71.55"/><polygon class="cls-3" points="182.44 62.85 167.38 71.55 167.38 54.15 182.44 45.45 182.44 62.85"/><polygon class="cls-1" points="167.38 54.15 152.31 45.45 167.38 36.75 182.44 45.45 167.38 54.15"/><polygon class="cls-4" points="167.38 54.15 152.96 45.83 152.31 46.2 167.38 54.9 182.44 46.2 181.79 45.83 167.38 54.15"/><polygon class="cls-1" points="186.95 65.32 171.88 56.62 171.88 74.02 186.95 82.71 202.02 74.02 202.02 56.62 186.95 65.32"/><polygon class="cls-1" points="186.95 82.71 171.88 74.02 171.88 56.62 186.95 65.32 186.95 82.71"/><polygon class="cls-3" points="202.02 74.02 186.95 82.71 186.95 65.32 202.02 56.62 202.02 74.02"/><polygon class="cls-1" points="186.95 65.32 171.88 56.62 186.95 47.92 202.01 56.62 186.95 65.32"/><polygon class="cls-4" points="186.95 65.32 172.53 56.99 171.88 57.37 186.95 66.07 202.01 57.37 202.02 56.62 186.95 65.32"/><polygon class="cls-1" points="128.23 54.9 113.16 46.2 113.16 63.6 128.23 72.3 143.3 63.6 143.3 46.2 128.23 54.9"/><polygon class="cls-1" points="128.23 72.3 113.16 63.6 113.16 46.2 128.23 54.9 128.23 72.3"/><polygon class="cls-3" points="143.3 63.6 128.23 72.3 128.23 54.9 143.3 46.2 143.3 63.6"/><polygon class="cls-1" points="128.23 54.9 113.16 46.2 128.23 37.51 143.3 46.2 128.23 54.9"/><polygon class="cls-4" points="128.23 54.9 113.82 46.58 113.16 46.96 128.23 55.66 143.3 46.96 142.65 46.58 128.23 54.9"/><polygon class="cls-1" points="147.8 66.07 132.74 57.37 132.74 74.77 147.8 83.47 162.87 74.77 162.87 57.37 147.8 66.07"/><polygon class="cls-1" points="147.8 83.47 132.74 74.77 132.74 57.37 147.8 66.07 147.8 83.47"/><polygon class="cls-3" points="162.87 74.77 147.8 83.47 147.8 66.07 162.87 57.37 162.87 74.77"/><polygon class="cls-1" points="147.8 66.07 132.74 57.37 147.8 48.67 162.87 57.37 147.8 66.07"/><polygon class="cls-4" points="147.8 66.07 133.39 57.75 132.74 58.13 147.8 66.83 162.87 58.13 162.22 57.75 147.8 66.07"/><polygon class="cls-1" points="167.38 77.24 152.31 68.54 152.31 85.94 167.38 94.64 182.44 85.94 182.44 68.54 167.38 77.24"/><polygon class="cls-1" points="167.38 94.64 152.31 85.94 152.31 68.54 167.38 77.24 167.38 94.64"/><polygon class="cls-3" points="182.44 85.94 167.38 94.64 167.38 77.24 182.44 68.54 182.44 85.94"/><polygon class="cls-1" points="167.38 77.24 152.31 68.54 167.38 59.84 182.44 68.54 167.38 77.24"/><polygon class="cls-4" points="167.38 77.24 152.96 68.92 152.31 69.29 167.38 77.99 182.44 69.29 182.44 68.54 167.38 77.24"/><polygon class="cls-1" points="108.66 66.83 93.59 58.13 93.59 75.52 108.66 84.22 123.73 75.52 123.73 58.13 108.66 66.83"/><polygon class="cls-1" points="108.66 84.22 93.59 75.52 93.59 58.13 108.66 66.83 108.66 84.22"/><polygon class="cls-3" points="123.73 75.52 108.66 84.22 108.66 66.83 123.73 58.13 123.73 75.52"/><polygon class="cls-1" points="108.66 66.83 93.59 58.13 108.66 49.43 123.73 58.13 108.66 66.83"/><polygon class="cls-4" points="108.66 66.83 94.25 58.5 93.59 58.88 108.66 67.58 123.73 58.88 123.07 58.5 108.66 66.83"/><polygon class="cls-1" points="128.23 77.99 113.16 69.29 113.16 86.69 128.23 95.39 143.3 86.69 143.3 69.29 128.23 77.99"/><polygon class="cls-1" points="128.23 95.39 113.16 86.69 113.16 69.29 128.23 77.99 128.23 95.39"/><polygon class="cls-3" points="143.3 86.69 128.23 95.39 128.23 77.99 143.3 69.29 143.3 86.69"/><polygon class="cls-1" points="128.23 77.99 113.16 69.29 128.23 60.59 143.3 69.29 128.23 77.99"/><polygon class="cls-4" points="128.23 77.99 113.16 69.29 113.16 70.05 128.23 78.75 143.3 70.05 142.65 69.67 128.23 77.99"/><polygon class="cls-1" points="147.8 89.16 132.74 80.46 132.74 97.86 147.8 106.56 162.87 97.86 162.87 80.46 147.8 89.16"/><polygon class="cls-1" points="147.8 106.56 132.74 97.86 132.74 80.46 147.8 89.16 147.8 106.56"/><polygon class="cls-3" points="162.87 97.86 147.8 106.56 147.8 89.16 162.87 80.46 162.87 97.86"/><polygon class="cls-1" points="147.8 89.16 132.74 80.46 147.8 71.76 162.87 80.46 147.8 89.16"/><polygon class="cls-4" points="147.8 89.16 132.74 80.46 132.74 81.22 147.8 89.91 162.87 81.22 162.87 80.46 147.8 89.16"/><polygon class="cls-5" points="186.98 62.72 176.71 56.79 186.98 50.85 197.26 56.79 186.98 62.72"/><polygon class="cls-5" points="108.66 64.09 98.38 58.16 108.66 52.23 118.94 58.16 108.66 64.09"/><polygon class="cls-1" points="147.8 19.89 132.74 11.19 132.74 28.59 147.8 37.29 162.87 28.59 162.87 11.19 147.8 19.89"/><polygon class="cls-1" points="147.8 37.29 132.74 28.59 132.74 11.19 147.8 19.89 147.8 37.29"/><polygon class="cls-3" points="162.87 28.59 147.8 37.29 147.8 19.89 162.87 11.19 162.87 28.59"/><polygon class="cls-1" points="147.8 19.89 132.74 11.19 147.8 2.49 162.87 11.19 147.8 19.89"/><polygon class="cls-4" points="147.8 19.89 132.74 11.19 132.74 11.95 147.8 20.65 162.87 11.95 162.87 11.19 147.8 19.89"/><polygon class="cls-1" points="167.38 31.06 152.31 22.36 152.31 39.76 167.38 48.46 182.44 39.76 182.44 22.36 167.38 31.06"/><polygon class="cls-1" points="167.38 48.46 152.31 39.76 152.31 22.36 167.38 31.06 167.38 48.46"/><polygon class="cls-3" points="182.44 39.76 167.38 48.46 167.38 31.06 182.44 22.36 182.44 39.76"/><polygon class="cls-1" points="167.38 31.06 152.31 22.36 167.38 13.66 182.44 22.36 167.38 31.06"/><polygon class="cls-4" points="167.38 31.06 152.31 22.36 152.31 23.12 167.38 31.81 182.44 23.12 182.44 22.36 167.38 31.06"/><polygon class="cls-1" points="186.95 42.23 171.88 33.53 171.88 50.93 186.95 59.63 202.02 50.93 202.02 33.53 186.95 42.23"/><polygon class="cls-1" points="186.95 59.63 171.88 50.93 171.88 33.53 186.95 42.23 186.95 59.63"/><polygon class="cls-3" points="202.02 50.93 186.95 59.63 186.95 42.23 202.02 33.53 202.02 50.93"/><polygon class="cls-1" points="186.95 42.23 171.88 33.53 186.95 24.83 202.01 33.53 186.95 42.23"/><polygon class="cls-4" points="186.95 42.23 171.88 33.53 171.88 34.28 186.95 42.98 202.01 34.28 202.02 33.53 186.95 42.23"/><polygon class="cls-1" points="128.23 31.81 113.16 23.12 113.16 40.51 128.23 49.21 143.3 40.51 143.3 23.12 128.23 31.81"/><polygon class="cls-1" points="128.23 49.21 113.16 40.51 113.16 23.12 128.23 31.81 128.23 49.21"/><polygon class="cls-3" points="143.3 40.51 128.23 49.21 128.23 31.81 143.3 23.12 143.3 40.51"/><polygon class="cls-1" points="128.23 31.81 113.16 23.12 128.23 14.42 143.3 23.12 128.23 31.81"/><polygon class="cls-4" points="128.23 31.81 113.16 23.12 113.16 23.87 128.23 32.57 143.3 23.87 143.3 23.12 128.23 31.81"/><polygon class="cls-1" points="108.66 43.74 93.59 35.04 93.59 52.44 108.66 61.13 123.73 52.44 123.73 35.04 108.66 43.74"/><polygon class="cls-1" points="108.66 61.13 93.59 52.44 93.59 35.04 108.66 43.74 108.66 61.13"/><polygon class="cls-3" points="123.73 52.44 108.66 61.13 108.66 43.74 123.73 35.04 123.73 52.44"/><polygon class="cls-1" points="108.66 43.74 93.59 35.04 108.66 26.34 123.73 35.04 108.66 43.74"/><polygon class="cls-4" points="108.66 43.74 93.59 35.04 93.59 35.79 108.66 44.49 123.73 35.79 123.73 35.04 108.66 43.74"/><path class="cls-20" d="M58.15,154a2,2,0,1,0,2-2A2,2,0,0,0,58.15,154Z"/><circle class="cls-1" cx="60.18" cy="153.98" r="0.88"/><path class="cls-20" d="M238,61.26a2,2,0,1,0,2-2A2,2,0,0,0,238,61.26Z"/><path class="cls-1" d="M239.17,61.26a.88.88,0,1,0,.88-.88A.88.88,0,0,0,239.17,61.26Z"/><circle class="cls-20" cx="260.54" cy="195.81" r="3.17"/><path class="cls-1" d="M259.16,195.81a1.38,1.38,0,1,0,1.38-1.38A1.38,1.38,0,0,0,259.16,195.81Z"/><path class="cls-20" d="M247.82,168.12A2.15,2.15,0,1,0,250,166,2.15,2.15,0,0,0,247.82,168.12Z"/><path class="cls-1" d="M249,168.12a.93.93,0,1,0,.93-.93A.93.93,0,0,0,249,168.12Z"/><path class="cls-20" d="M216.36,49.54a2,2,0,1,0,2-2A2,2,0,0,0,216.36,49.54Z"/><path class="cls-1" d="M217.51,49.54a.88.88,0,1,0,.88-.88A.88.88,0,0,0,217.51,49.54Z"/><path class="cls-20" d="M35.17,141.05a2,2,0,1,0,2-2A2,2,0,0,0,35.17,141.05Z"/><path class="cls-1" d="M36.32,141.05a.88.88,0,1,0,.88-.88A.87.87,0,0,0,36.32,141.05Z"/></g></g></svg>