<?xml version="1.0" encoding="utf-8"?>
<!-- Generator: Adobe Illustrator 26.0.1, SVG Export Plug-In . SVG Version: 6.00 Build 0)  -->
<svg version="1.1" id="Layer_1" xmlns="http://www.w3.org/2000/svg" xmlns:xlink="http://www.w3.org/1999/xlink" x="0px" y="0px"
	 viewBox="0 0 792 612" style="enable-background:new 0 0 792 612;" xml:space="preserve">
<style type="text/css">
	.st0{fill:#42E8E0;}
	.st1{opacity:0.1;}
	.st2{fill:#2FD3C7;}
	.st3{fill:#FFFFFF;}
	.st4{opacity:0.7;fill:#18B2A3;}
	.st5{opacity:0.2;}
	.st6{fill:url(#SVGID_1_);}
	.st7{fill:#BCBEFF;}
	.st8{fill:url(#SVGID_00000034779835756945102950000003103042873505016246_);}
	.st9{fill:#0F054C;}
	.st10{opacity:0.5;fill:url(#SVGID_00000039826320812038484500000004705589506280834701_);}
	.st11{opacity:0.5;fill:url(#SVGID_00000014624938875661701070000008746278840943423163_);}
	.st12{opacity:0.5;fill:url(#SVGID_00000169521529538138636730000002449829675530562981_);}
	.st13{opacity:0.5;fill:url(#SVGID_00000132064163485491072700000001331701829863398548_);}
	.st14{opacity:0.5;fill:#42E8E0;}
	.st15{opacity:0.5;fill:url(#SVGID_00000016769282732124458590000015185101218590237085_);}
	.st16{opacity:0.5;fill:url(#SVGID_00000018230444478142728510000007991784279332402817_);}
	.st17{opacity:0.8;fill:#42E8E0;}
	.st18{opacity:0.4;fill:#03002D;}
	.st19{opacity:0.4;fill:#42E8E0;}
	.st20{opacity:0.2;fill:#42E8E0;}
</style>
<polygon class="st0" points="418.25,257.39 418.09,257.12 452.94,236.85 453.01,236.89 489.02,256.65 488.87,256.92 452.94,237.21 
	"/>
<g class="st1">
	<g>
		<polygon class="st0" points="382.25,353.75 367.19,345.05 367.19,362.45 382.25,371.15 397.32,362.45 397.32,345.05 		"/>
		<polygon class="st0" points="382.25,371.15 367.19,362.45 367.19,345.05 382.25,353.75 		"/>
		<polygon class="st2" points="397.32,362.45 382.25,371.15 382.25,353.75 397.32,345.05 		"/>
		<polygon class="st0" points="382.25,353.75 367.19,345.05 382.25,336.35 397.32,345.05 		"/>
		<polygon class="st3" points="382.25,353.75 367.84,345.43 367.19,345.8 382.25,354.5 397.32,345.8 396.67,345.43 		"/>
	</g>
	<g>
		<polygon class="st0" points="401.83,364.92 386.76,356.22 386.76,373.62 401.83,382.31 416.89,373.62 416.89,356.22 		"/>
		<polygon class="st0" points="401.83,382.31 386.76,373.62 386.76,356.22 401.83,364.92 		"/>
		<polygon class="st2" points="416.89,373.62 401.83,382.31 401.83,364.92 416.89,356.22 		"/>
		<polygon class="st0" points="401.83,364.92 386.76,356.22 401.83,347.52 416.89,356.22 		"/>
		<polygon class="st3" points="401.83,364.92 387.41,356.59 386.76,356.97 401.83,365.67 416.89,356.97 416.24,356.59 		"/>
	</g>
	<g>
		<polygon class="st0" points="421.4,376.08 406.33,367.38 406.33,384.78 421.4,393.48 436.47,384.78 436.47,367.38 		"/>
		<polygon class="st0" points="421.4,393.48 406.33,384.78 406.33,367.38 421.4,376.08 		"/>
		<polygon class="st2" points="436.47,384.78 421.4,393.48 421.4,376.08 436.47,367.38 		"/>
		<polygon class="st0" points="421.4,376.08 406.33,367.38 421.4,358.69 436.46,367.38 		"/>
		<polygon class="st3" points="421.4,376.08 406.98,367.76 406.33,368.14 421.4,376.84 436.46,368.14 436.47,367.38 		"/>
	</g>
	<g>
		<polygon class="st0" points="362.68,365.67 347.61,356.97 347.61,374.37 362.68,383.07 377.75,374.37 377.75,356.97 		"/>
		<polygon class="st0" points="362.68,383.07 347.61,374.37 347.61,356.97 362.68,365.67 		"/>
		<polygon class="st2" points="377.75,374.37 362.68,383.07 362.68,365.67 377.75,356.97 		"/>
		<polygon class="st0" points="362.68,365.67 347.61,356.97 362.68,348.27 377.75,356.97 		"/>
		<polygon class="st3" points="362.68,365.67 348.27,357.35 347.61,357.73 362.68,366.43 377.75,357.73 377.1,357.35 		"/>
	</g>
	<g>
		<polygon class="st0" points="382.25,376.84 367.19,368.14 367.19,385.54 382.25,394.24 397.32,385.54 397.32,368.14 		"/>
		<polygon class="st0" points="382.25,394.24 367.19,385.54 367.19,368.14 382.25,376.84 		"/>
		<polygon class="st2" points="397.32,385.54 382.25,394.24 382.25,376.84 397.32,368.14 		"/>
		<polygon class="st0" points="382.25,376.84 367.19,368.14 382.25,359.44 397.32,368.14 		"/>
		<polygon class="st3" points="382.25,376.84 367.84,368.52 367.19,368.89 382.25,377.59 397.32,368.89 396.67,368.52 		"/>
	</g>
	<g>
		<polygon class="st0" points="401.83,388.01 386.76,379.31 386.76,396.7 401.83,405.4 416.89,396.7 416.89,379.31 		"/>
		<polygon class="st0" points="401.83,405.4 386.76,396.7 386.76,379.31 401.83,388.01 		"/>
		<polygon class="st2" points="416.89,396.7 401.83,405.4 401.83,388.01 416.89,379.31 		"/>
		<polygon class="st0" points="401.83,388.01 386.76,379.31 401.83,370.61 416.89,379.31 		"/>
		<polygon class="st3" points="401.83,388.01 387.41,379.68 386.76,380.06 401.83,388.76 416.89,380.06 416.89,379.31 		"/>
	</g>
	<g>
		<polygon class="st0" points="343.11,377.59 328.04,368.89 328.04,386.29 343.11,394.99 358.18,386.29 358.18,368.89 		"/>
		<polygon class="st0" points="343.11,394.99 328.04,386.29 328.04,368.89 343.11,377.59 		"/>
		<polygon class="st2" points="358.18,386.29 343.11,394.99 343.11,377.59 358.18,368.89 		"/>
		<polygon class="st0" points="343.11,377.59 328.04,368.89 343.11,360.19 358.18,368.89 		"/>
		<polygon class="st3" points="343.11,377.59 328.04,368.89 328.04,369.65 343.11,378.35 358.18,369.65 357.52,369.27 		"/>
	</g>
	<g>
		<polygon class="st0" points="362.68,388.76 347.61,380.06 347.61,397.46 362.68,406.16 377.75,397.46 377.75,380.06 		"/>
		<polygon class="st0" points="362.68,406.16 347.61,397.46 347.61,380.06 362.68,388.76 		"/>
		<polygon class="st2" points="377.75,397.46 362.68,406.16 362.68,388.76 377.75,380.06 		"/>
		<polygon class="st0" points="362.68,388.76 347.61,380.06 362.68,371.36 377.75,380.06 		"/>
		<polygon class="st3" points="362.68,388.76 347.61,380.06 347.61,380.82 362.68,389.52 377.75,380.82 377.1,380.44 		"/>
	</g>
	<g>
		<polygon class="st0" points="382.25,399.93 367.19,391.23 367.19,408.63 382.25,417.33 397.32,408.63 397.32,391.23 		"/>
		<polygon class="st0" points="382.25,417.33 367.19,408.63 367.19,391.23 382.25,399.93 		"/>
		<polygon class="st2" points="397.32,408.63 382.25,417.33 382.25,399.93 397.32,391.23 		"/>
		<polygon class="st0" points="382.25,399.93 367.19,391.23 382.25,382.53 397.32,391.23 		"/>
		<polygon class="st3" points="382.25,399.93 367.19,391.23 367.19,391.98 382.25,400.68 397.32,391.98 397.32,391.23 		"/>
	</g>
	<g>
		<polygon class="st0" points="382.25,330.66 367.19,321.96 367.19,339.36 382.25,348.06 397.32,339.36 397.32,321.96 		"/>
		<polygon class="st0" points="382.25,348.06 367.19,339.36 367.19,321.96 382.25,330.66 		"/>
		<polygon class="st2" points="397.32,339.36 382.25,348.06 382.25,330.66 397.32,321.96 		"/>
		<polygon class="st0" points="382.25,330.66 367.19,321.96 382.25,313.26 397.32,321.96 		"/>
		<polygon class="st3" points="382.25,330.66 367.84,322.34 367.19,322.72 382.25,331.41 397.32,322.72 396.67,322.34 		"/>
	</g>
	<g>
		<polygon class="st4" points="382.25,397.09 371.98,391.16 382.25,385.23 392.53,391.16 		"/>
		<polygon class="st4" points="362.68,385.93 352.4,379.99 362.68,374.06 372.96,379.99 		"/>
		<polygon class="st4" points="401.83,385.17 391.55,379.24 401.83,373.3 412.1,379.24 		"/>
		<polygon class="st4" points="421.43,373.39 411.16,367.45 421.43,361.52 431.71,367.45 		"/>
		<polygon class="st4" points="343.11,374.76 332.83,368.83 343.11,362.89 353.39,368.83 		"/>
	</g>
	<g>
		<polygon class="st0" points="401.83,341.83 386.76,333.13 386.76,350.53 401.83,359.23 416.89,350.53 416.89,333.13 		"/>
		<polygon class="st0" points="401.83,359.23 386.76,350.53 386.76,333.13 401.83,341.83 		"/>
		<polygon class="st2" points="416.89,350.53 401.83,359.23 401.83,341.83 416.89,333.13 		"/>
		<polygon class="st0" points="401.83,341.83 386.76,333.13 401.83,324.43 416.89,333.13 		"/>
		<polygon class="st3" points="401.83,341.83 387.41,333.51 386.76,333.88 401.83,342.58 416.89,333.88 416.24,333.51 		"/>
	</g>
	<g>
		<polygon class="st0" points="421.4,352.99 406.33,344.3 406.33,361.69 421.4,370.39 436.47,361.69 436.47,344.3 		"/>
		<polygon class="st0" points="421.4,370.39 406.33,361.69 406.33,344.3 421.4,352.99 		"/>
		<polygon class="st2" points="436.47,361.69 421.4,370.39 421.4,352.99 436.47,344.3 		"/>
		<polygon class="st0" points="421.4,352.99 406.33,344.3 421.4,335.6 436.46,344.3 		"/>
		<polygon class="st3" points="421.4,352.99 406.98,344.67 406.33,345.05 421.4,353.75 436.46,345.05 436.47,344.3 		"/>
	</g>
	<g>
		<polygon class="st0" points="362.68,342.58 347.61,333.88 347.61,351.28 362.68,359.98 377.75,351.28 377.75,333.88 		"/>
		<polygon class="st0" points="362.68,359.98 347.61,351.28 347.61,333.88 362.68,342.58 		"/>
		<polygon class="st2" points="377.75,351.28 362.68,359.98 362.68,342.58 377.75,333.88 		"/>
		<polygon class="st0" points="362.68,342.58 347.61,333.88 362.68,325.18 377.75,333.88 		"/>
		<polygon class="st3" points="362.68,342.58 348.27,334.26 347.61,334.64 362.68,343.34 377.75,334.64 377.1,334.26 		"/>
	</g>
	<g>
		<polygon class="st0" points="382.25,353.75 367.19,345.05 367.19,362.45 382.25,371.15 397.32,362.45 397.32,345.05 		"/>
		<polygon class="st0" points="382.25,371.15 367.19,362.45 367.19,345.05 382.25,353.75 		"/>
		<polygon class="st2" points="397.32,362.45 382.25,371.15 382.25,353.75 397.32,345.05 		"/>
		<polygon class="st0" points="382.25,353.75 367.19,345.05 382.25,336.35 397.32,345.05 		"/>
		<polygon class="st3" points="382.25,353.75 367.84,345.43 367.19,345.8 382.25,354.5 397.32,345.81 396.67,345.43 		"/>
	</g>
	<g>
		<polygon class="st0" points="401.83,364.92 386.76,356.22 386.76,373.62 401.83,382.31 416.89,373.62 416.89,356.22 		"/>
		<polygon class="st0" points="401.83,382.31 386.76,373.62 386.76,356.22 401.83,364.92 		"/>
		<polygon class="st2" points="416.89,373.62 401.83,382.31 401.83,364.92 416.89,356.22 		"/>
		<polygon class="st0" points="401.83,364.92 386.76,356.22 401.83,347.52 416.89,356.22 		"/>
		<polygon class="st3" points="401.83,364.92 387.41,356.59 386.76,356.97 401.83,365.67 416.89,356.97 416.89,356.22 		"/>
	</g>
	<g>
		<polygon class="st0" points="343.11,354.5 328.04,345.8 328.04,363.2 343.11,371.9 358.18,363.2 358.18,345.8 		"/>
		<polygon class="st0" points="343.11,371.9 328.04,363.2 328.04,345.8 343.11,354.5 		"/>
		<polygon class="st2" points="358.18,363.2 343.11,371.9 343.11,354.5 358.18,345.8 		"/>
		<polygon class="st0" points="343.11,354.5 328.04,345.8 343.11,337.11 358.18,345.81 		"/>
		<polygon class="st3" points="343.11,354.5 328.7,346.18 328.04,346.56 343.11,355.26 358.18,346.56 357.52,346.18 		"/>
	</g>
	<g>
		<polygon class="st0" points="362.68,365.67 347.61,356.97 347.61,374.37 362.68,383.07 377.75,374.37 377.75,356.97 		"/>
		<polygon class="st0" points="362.68,383.07 347.61,374.37 347.61,356.97 362.68,365.67 		"/>
		<polygon class="st2" points="377.75,374.37 362.68,383.07 362.68,365.67 377.75,356.97 		"/>
		<polygon class="st0" points="362.68,365.67 347.61,356.97 362.68,348.27 377.75,356.97 		"/>
		<polygon class="st3" points="362.68,365.67 347.61,356.97 347.61,357.73 362.68,366.43 377.75,357.73 377.1,357.35 		"/>
	</g>
	<g>
		<polygon class="st0" points="382.25,376.84 367.19,368.14 367.19,385.54 382.25,394.24 397.32,385.54 397.32,368.14 		"/>
		<polygon class="st0" points="382.25,394.24 367.19,385.54 367.19,368.14 382.25,376.84 		"/>
		<polygon class="st2" points="397.32,385.54 382.25,394.24 382.25,376.84 397.32,368.14 		"/>
		<polygon class="st0" points="382.25,376.84 367.19,368.14 382.25,359.44 397.32,368.14 		"/>
		<polygon class="st3" points="382.25,376.84 367.19,368.14 367.19,368.89 382.25,377.59 397.32,368.89 397.32,368.14 		"/>
	</g>
	<g>
		<polygon class="st4" points="421.43,350.4 411.16,344.47 421.43,338.53 431.71,344.47 		"/>
		<polygon class="st4" points="343.11,351.77 332.83,345.84 343.11,339.9 353.39,345.84 		"/>
	</g>
	<g>
		<polygon class="st0" points="382.25,307.57 367.19,298.87 367.19,316.27 382.25,324.97 397.32,316.27 397.32,298.87 		"/>
		<polygon class="st0" points="382.25,324.97 367.19,316.27 367.19,298.87 382.25,307.57 		"/>
		<polygon class="st2" points="397.32,316.27 382.25,324.97 382.25,307.57 397.32,298.87 		"/>
		<polygon class="st0" points="382.25,307.57 367.19,298.87 382.25,290.17 397.32,298.87 		"/>
		<polygon class="st3" points="382.25,307.57 367.19,298.87 367.19,299.63 382.25,308.33 397.32,299.63 397.32,298.87 		"/>
	</g>
	<g>
		<polygon class="st0" points="401.83,318.74 386.76,310.04 386.76,327.44 401.83,336.14 416.89,327.44 416.89,310.04 		"/>
		<polygon class="st0" points="401.83,336.14 386.76,327.44 386.76,310.04 401.83,318.74 		"/>
		<polygon class="st2" points="416.89,327.44 401.83,336.14 401.83,318.74 416.89,310.04 		"/>
		<polygon class="st0" points="401.83,318.74 386.76,310.04 401.83,301.34 416.89,310.04 		"/>
		<polygon class="st3" points="401.83,318.74 386.76,310.04 386.76,310.79 401.83,319.49 416.89,310.79 416.89,310.04 		"/>
	</g>
	<g>
		<polygon class="st0" points="421.4,329.91 406.33,321.21 406.33,338.6 421.4,347.3 436.47,338.6 436.47,321.21 		"/>
		<polygon class="st0" points="421.4,347.3 406.33,338.6 406.33,321.21 421.4,329.91 		"/>
		<polygon class="st2" points="436.47,338.6 421.4,347.3 421.4,329.91 436.47,321.21 		"/>
		<polygon class="st0" points="421.4,329.91 406.33,321.21 421.4,312.51 436.46,321.21 		"/>
		<polygon class="st3" points="421.4,329.91 406.33,321.21 406.33,321.96 421.4,330.66 436.46,321.96 436.47,321.21 		"/>
	</g>
	<g>
		<polygon class="st0" points="362.68,319.49 347.61,310.79 347.61,328.19 362.68,336.89 377.75,328.19 377.75,310.79 		"/>
		<polygon class="st0" points="362.68,336.89 347.61,328.19 347.61,310.79 362.68,319.49 		"/>
		<polygon class="st2" points="377.75,328.19 362.68,336.89 362.68,319.49 377.75,310.79 		"/>
		<polygon class="st0" points="362.68,319.49 347.61,310.79 362.68,302.09 377.75,310.79 		"/>
		<polygon class="st3" points="362.68,319.49 347.61,310.79 347.61,311.55 362.68,320.25 377.75,311.55 377.75,310.79 		"/>
	</g>
	<g>
		<polygon class="st0" points="343.11,331.42 328.04,322.72 328.04,340.11 343.11,348.81 358.18,340.11 358.18,322.72 		"/>
		<polygon class="st0" points="343.11,348.81 328.04,340.11 328.04,322.72 343.11,331.42 		"/>
		<polygon class="st2" points="358.18,340.11 343.11,348.81 343.11,331.42 358.18,322.72 		"/>
		<polygon class="st0" points="343.11,331.42 328.04,322.72 343.11,314.02 358.18,322.72 		"/>
		<polygon class="st3" points="343.11,331.42 328.04,322.72 328.04,323.47 343.11,332.17 358.18,323.47 358.18,322.72 		"/>
	</g>
</g>
<g class="st5">
	<g>
		<path class="st0" d="M402.45,375.8l-10.51-6.07c-1.8-1.04-3.27-3.58-3.27-5.67v-2.53c0-1.98-1.4-4.4-3.11-5.39l-2.2-1.27
			l0.16-0.27l2.2,1.27c1.8,1.04,3.27,3.58,3.27,5.67v2.53c0,1.98,1.4,4.4,3.11,5.39l10.51,6.07L402.45,375.8z"/>
		<path class="st0" d="M406.54,373.45l-10.51-6.07c-1.8-1.04-3.27-3.58-3.27-5.67v-2.54c0-1.98-1.4-4.4-3.11-5.39l-2.2-1.27
			l0.16-0.27l2.2,1.27c1.8,1.04,3.27,3.58,3.27,5.67v2.54c0,1.98,1.4,4.4,3.11,5.39l10.51,6.07L406.54,373.45z"/>
		<path class="st0" d="M410.63,371.09l-10.51-6.07c-1.8-1.04-3.27-3.58-3.27-5.67v-2.54c0-1.98-1.4-4.4-3.11-5.39l-2.2-1.27
			l0.16-0.27l2.2,1.27c1.8,1.04,3.27,3.58,3.27,5.67v2.54c0,1.98,1.4,4.4,3.11,5.39l10.51,6.07L410.63,371.09z"/>
		<path class="st0" d="M414.72,368.73l-10.51-6.07c-1.8-1.04-3.27-3.58-3.27-5.67v-2.53c0-1.98-1.4-4.4-3.11-5.39l-2.2-1.27
			l0.16-0.27l2.2,1.27c1.8,1.04,3.27,3.59,3.27,5.67V357c0,1.98,1.4,4.4,3.11,5.39l10.51,6.07L414.72,368.73z"/>
		<path class="st0" d="M418.81,366.38l-10.51-6.07c-1.8-1.04-3.27-3.58-3.27-5.67v-2.54c0-1.98-1.4-4.4-3.11-5.39l-2.2-1.27
			l0.16-0.27l2.2,1.27c1.8,1.04,3.27,3.58,3.27,5.67v2.54c0,1.98,1.4,4.4,3.11,5.39l10.51,6.07L418.81,366.38z"/>
		<path class="st0" d="M422.89,364.02l-10.51-6.07c-1.8-1.04-3.27-3.58-3.27-5.67v-2.54c0-1.98-1.4-4.4-3.11-5.39l-2.2-1.27
			l0.16-0.27l2.2,1.27c1.8,1.04,3.27,3.58,3.27,5.67v2.54c0,1.98,1.4,4.4,3.11,5.39l10.51,6.07L422.89,364.02z"/>
		<path class="st0" d="M426.98,361.67l-10.51-6.07c-1.8-1.04-3.27-3.58-3.27-5.67v-2.53c0-1.98-1.4-4.4-3.11-5.39l-2.2-1.27
			l0.16-0.27l2.2,1.27c1.8,1.04,3.27,3.58,3.27,5.67v2.53c0,1.98,1.4,4.4,3.11,5.39l10.51,6.07L426.98,361.67z"/>
		<path class="st0" d="M431.07,359.31l-10.51-6.07c-1.8-1.04-3.27-3.58-3.27-5.67v-2.54c0-1.98-1.4-4.4-3.11-5.39l-2.2-1.27
			l0.16-0.27l2.2,1.27c1.8,1.04,3.27,3.58,3.27,5.67v2.54c0,1.98,1.4,4.4,3.11,5.39l10.51,6.07L431.07,359.31z"/>
		<path class="st0" d="M435.16,356.96l-10.51-6.07c-1.8-1.04-3.27-3.58-3.27-5.67v-2.54c0-1.98-1.4-4.4-3.11-5.39l-2.2-1.27
			l0.16-0.27l2.2,1.27c1.8,1.04,3.27,3.58,3.27,5.67v2.54c0,1.98,1.4,4.4,3.11,5.39l10.51,6.07L435.16,356.96z"/>
		<path class="st0" d="M439.25,354.6l-10.51-6.07c-1.8-1.04-3.27-3.58-3.27-5.67v-2.53c0-1.98-1.4-4.4-3.11-5.39l-2.2-1.27
			l0.16-0.27l2.2,1.27c1.8,1.04,3.27,3.58,3.27,5.67v2.53c0,1.98,1.4,4.4,3.11,5.39l10.51,6.07L439.25,354.6z"/>
		<path class="st0" d="M443.33,352.24l-10.51-6.07c-1.8-1.04-3.27-3.58-3.27-5.67v-2.54c0-1.98-1.4-4.4-3.11-5.39l-2.2-1.27
			l0.16-0.27l2.2,1.27c1.8,1.04,3.27,3.58,3.27,5.67v2.54c0,1.98,1.4,4.4,3.11,5.39l10.51,6.07L443.33,352.24z"/>
		<path class="st0" d="M447.42,349.89l-10.51-6.07c-1.8-1.04-3.27-3.58-3.27-5.67v-2.53c0-1.98-1.4-4.4-3.11-5.39l-2.2-1.27
			l0.16-0.27l2.2,1.27c1.8,1.04,3.27,3.58,3.27,5.67v2.53c0,1.98,1.4,4.4,3.11,5.39l10.51,6.07L447.42,349.89z"/>
		<path class="st0" d="M451.51,347.53L441,341.46c-1.8-1.04-3.27-3.58-3.27-5.67v-2.53c0-1.98-1.4-4.4-3.11-5.39l-2.2-1.27
			l0.16-0.27l2.2,1.27c1.8,1.04,3.27,3.58,3.27,5.67v2.53c0,1.98,1.4,4.4,3.11,5.39l10.51,6.07L451.51,347.53z"/>
		<path class="st0" d="M455.6,345.18l-10.51-6.07c-1.8-1.04-3.27-3.58-3.27-5.67v-2.54c0-1.98-1.4-4.4-3.11-5.39l-2.2-1.27
			l0.16-0.27l2.2,1.27c1.8,1.04,3.27,3.58,3.27,5.67v2.54c0,1.98,1.4,4.4,3.11,5.39l10.51,6.07L455.6,345.18z"/>
		<path class="st0" d="M459.69,342.82l-10.51-6.07c-1.8-1.04-3.27-3.58-3.27-5.67v-2.53c0-1.98-1.4-4.4-3.11-5.39l-2.2-1.27
			l0.16-0.27l2.2,1.27c1.8,1.04,3.27,3.58,3.27,5.67v2.53c0,1.98,1.4,4.4,3.11,5.39l10.51,6.07L459.69,342.82z"/>
		<path class="st0" d="M463.78,340.47l-10.51-6.07c-1.8-1.04-3.27-3.58-3.27-5.67v-2.54c0-1.98-1.4-4.4-3.11-5.39l-2.2-1.27
			l0.16-0.27l2.2,1.27c1.8,1.04,3.27,3.58,3.27,5.67v2.54c0,1.98,1.4,4.4,3.11,5.39l10.51,6.07L463.78,340.47z"/>
		<path class="st0" d="M467.86,338.11l-10.51-6.07c-1.8-1.04-3.27-3.58-3.27-5.67v-2.54c0-1.98-1.4-4.4-3.11-5.39l-2.2-1.27
			l0.16-0.27l2.2,1.27c1.8,1.04,3.27,3.58,3.27,5.67v2.54c0,1.98,1.4,4.4,3.11,5.39l10.51,6.07L467.86,338.11z"/>
		<path class="st0" d="M471.95,335.75l-10.51-6.07c-1.8-1.04-3.27-3.58-3.27-5.67v-2.53c0-1.98-1.4-4.4-3.11-5.39l-2.2-1.27
			l0.16-0.27l2.2,1.27c1.8,1.04,3.27,3.58,3.27,5.67v2.53c0,1.98,1.4,4.4,3.11,5.39l10.51,6.07L471.95,335.75z"/>
		<path class="st0" d="M476.04,333.4l-10.51-6.07c-1.8-1.04-3.27-3.58-3.27-5.67v-2.54c0-1.98-1.4-4.4-3.11-5.39l-2.2-1.27
			l0.16-0.27l2.2,1.27c1.8,1.04,3.27,3.58,3.27,5.67v2.54c0,1.98,1.4,4.4,3.11,5.39l10.51,6.07L476.04,333.4z"/>
		<path class="st0" d="M480.13,331.04l-10.51-6.07c-1.8-1.04-3.27-3.58-3.27-5.67v-2.54c0-1.98-1.4-4.4-3.11-5.39l-2.2-1.27
			l0.16-0.27l2.2,1.27c1.8,1.04,3.27,3.58,3.27,5.67v2.54c0,1.98,1.4,4.4,3.11,5.39l10.51,6.07L480.13,331.04z"/>
	</g>
	<g>
		<path class="st0" d="M361.77,375.8l-0.16-0.27l10.51-6.07c1.72-0.99,3.11-3.41,3.11-5.39v-2.53c0-2.08,1.47-4.63,3.27-5.67
			l2.2-1.27l0.16,0.27l-2.2,1.27c-1.72,0.99-3.11,3.41-3.11,5.39v2.53c0,2.08-1.47,4.63-3.27,5.67L361.77,375.8z"/>
		<path class="st0" d="M357.68,373.45l-0.16-0.27l10.51-6.07c1.72-0.99,3.11-3.41,3.11-5.39v-2.54c0-2.08,1.47-4.62,3.27-5.67
			l2.2-1.27l0.16,0.27l-2.2,1.27c-1.72,0.99-3.11,3.41-3.11,5.39v2.54c0,2.08-1.47,4.63-3.27,5.67L357.68,373.45z"/>
		<path class="st0" d="M353.59,371.09l-0.16-0.27l10.51-6.07c1.72-0.99,3.11-3.41,3.11-5.39v-2.54c0-2.08,1.47-4.63,3.27-5.67
			l2.2-1.27l0.16,0.27l-2.2,1.27c-1.72,0.99-3.11,3.41-3.11,5.39v2.54c0,2.08-1.47,4.62-3.27,5.67L353.59,371.09z"/>
		<path class="st0" d="M349.5,368.73l-0.16-0.27l10.51-6.07c1.72-0.99,3.11-3.41,3.11-5.39v-2.53c0-2.08,1.47-4.63,3.27-5.67
			l2.2-1.27l0.16,0.27l-2.2,1.27c-1.72,0.99-3.11,3.41-3.11,5.39V357c0,2.08-1.47,4.63-3.27,5.67L349.5,368.73z"/>
		<path class="st0" d="M345.41,366.38l-0.16-0.27l10.51-6.07c1.72-0.99,3.11-3.41,3.11-5.39v-2.54c0-2.08,1.47-4.62,3.27-5.67
			l2.2-1.27l0.16,0.27l-2.2,1.27c-1.72,0.99-3.11,3.41-3.11,5.39v2.54c0,2.08-1.47,4.63-3.27,5.67L345.41,366.38z"/>
		<path class="st0" d="M341.33,364.02l-0.16-0.27l10.51-6.07c1.72-0.99,3.11-3.41,3.11-5.39v-2.54c0-2.08,1.47-4.63,3.27-5.67
			l2.2-1.27l0.16,0.27l-2.2,1.27c-1.72,0.99-3.11,3.41-3.11,5.39v2.54c0,2.08-1.47,4.62-3.27,5.67L341.33,364.02z"/>
		<path class="st0" d="M337.24,361.67l-0.16-0.27l10.51-6.07c1.72-0.99,3.11-3.41,3.11-5.39v-2.53c0-2.08,1.47-4.63,3.27-5.67
			l2.2-1.27l0.16,0.27l-2.2,1.27c-1.72,0.99-3.11,3.41-3.11,5.39v2.53c0,2.08-1.47,4.63-3.27,5.67L337.24,361.67z"/>
		<path class="st0" d="M333.15,359.31l-0.16-0.27l10.51-6.07c1.72-0.99,3.11-3.41,3.11-5.39v-2.54c0-2.08,1.47-4.62,3.27-5.67
			l2.2-1.27l0.16,0.27l-2.2,1.27c-1.72,0.99-3.11,3.41-3.11,5.39v2.54c0,2.08-1.47,4.63-3.27,5.67L333.15,359.31z"/>
		<path class="st0" d="M329.06,356.96l-0.16-0.27l10.51-6.07c1.72-0.99,3.11-3.41,3.11-5.39v-2.54c0-2.08,1.47-4.63,3.27-5.67
			l2.2-1.27l0.16,0.27l-2.2,1.27c-1.72,0.99-3.11,3.41-3.11,5.39v2.54c0,2.08-1.47,4.62-3.27,5.67L329.06,356.96z"/>
		<path class="st0" d="M324.97,354.6l-0.16-0.27l10.51-6.07c1.72-0.99,3.11-3.41,3.11-5.39v-2.53c0-2.08,1.47-4.63,3.27-5.67
			l2.2-1.27l0.16,0.27l-2.2,1.27c-1.72,0.99-3.11,3.41-3.11,5.39v2.53c0,2.08-1.47,4.63-3.27,5.67L324.97,354.6z"/>
		<path class="st0" d="M320.88,352.24l-0.16-0.27l10.51-6.07c1.72-0.99,3.11-3.41,3.11-5.39v-2.54c0-2.08,1.47-4.62,3.27-5.67
			l2.2-1.27l0.16,0.27l-2.2,1.27c-1.72,0.99-3.11,3.41-3.11,5.39v2.54c0,2.08-1.47,4.62-3.27,5.67L320.88,352.24z"/>
		<path class="st0" d="M316.8,349.89l-0.16-0.27l10.51-6.07c1.72-0.99,3.11-3.41,3.11-5.39v-2.53c0-2.08,1.47-4.63,3.27-5.67
			l2.2-1.27l0.16,0.27l-2.2,1.27c-1.72,0.99-3.11,3.41-3.11,5.39v2.53c0,2.08-1.47,4.63-3.27,5.67L316.8,349.89z"/>
		<path class="st0" d="M312.71,347.53l-0.16-0.27l10.51-6.07c1.72-0.99,3.11-3.41,3.11-5.39v-2.53c0-2.08,1.47-4.63,3.27-5.67
			l2.2-1.27l0.16,0.27l-2.2,1.27c-1.72,0.99-3.11,3.41-3.11,5.39v2.53c0,2.08-1.47,4.63-3.27,5.67L312.71,347.53z"/>
		<path class="st0" d="M308.62,345.18l-0.16-0.27l10.51-6.07c1.72-0.99,3.11-3.41,3.11-5.39v-2.54c0-2.08,1.47-4.62,3.27-5.67
			l2.2-1.27l0.16,0.27l-2.2,1.27c-1.72,0.99-3.11,3.41-3.11,5.39v2.54c0,2.08-1.47,4.62-3.27,5.67L308.62,345.18z"/>
		<path class="st0" d="M304.53,342.82l-0.16-0.27l10.51-6.07c1.72-0.99,3.11-3.41,3.11-5.39v-2.53c0-2.08,1.47-4.63,3.27-5.67
			l2.2-1.27l0.16,0.27l-2.2,1.27c-1.72,0.99-3.11,3.41-3.11,5.39v2.53c0,2.08-1.47,4.63-3.27,5.67L304.53,342.82z"/>
		<path class="st0" d="M300.44,340.47l-0.16-0.27l10.51-6.07c1.72-0.99,3.11-3.41,3.11-5.39v-2.54c0-2.08,1.47-4.62,3.27-5.67
			l2.2-1.27l0.16,0.27l-2.2,1.27c-1.72,0.99-3.11,3.41-3.11,5.39v2.54c0,2.08-1.47,4.63-3.27,5.67L300.44,340.47z"/>
		<path class="st0" d="M296.36,338.11l-0.16-0.27l10.51-6.07c1.72-0.99,3.11-3.41,3.11-5.39v-2.54c0-2.08,1.47-4.62,3.27-5.67
			l2.2-1.27l0.16,0.27l-2.2,1.27c-1.72,0.99-3.11,3.41-3.11,5.39v2.54c0,2.08-1.47,4.62-3.27,5.67L296.36,338.11z"/>
		<path class="st0" d="M292.27,335.75l-0.16-0.27l10.51-6.07c1.72-0.99,3.11-3.41,3.11-5.39v-2.53c0-2.08,1.47-4.63,3.27-5.67
			l2.2-1.27l0.16,0.27l-2.2,1.27c-1.72,0.99-3.11,3.41-3.11,5.39v2.53c0,2.08-1.47,4.63-3.27,5.67L292.27,335.75z"/>
		<path class="st0" d="M288.18,333.4l-0.16-0.27l10.51-6.07c1.72-0.99,3.11-3.41,3.11-5.39v-2.54c0-2.08,1.47-4.62,3.27-5.67
			l2.2-1.27l0.16,0.27l-2.2,1.27c-1.72,0.99-3.11,3.41-3.11,5.39v2.54c0,2.08-1.47,4.63-3.27,5.67L288.18,333.4z"/>
		<path class="st0" d="M284.09,331.04l-0.16-0.27l10.51-6.07c1.72-0.99,3.11-3.41,3.11-5.39v-2.54c0-2.08,1.47-4.63,3.27-5.67
			l2.2-1.27l0.16,0.27l-2.2,1.27c-1.72,0.99-3.11,3.41-3.11,5.39v2.54c0,2.08-1.47,4.62-3.27,5.67L284.09,331.04z"/>
	</g>
	<g>
		<g>
			<linearGradient id="SVGID_1_" gradientUnits="userSpaceOnUse" x1="261.5501" y1="341.8413" x2="468.5464" y2="341.8413">
				<stop  offset="0" style="stop-color:#5761D7"/>
				<stop  offset="0.1645" style="stop-color:#5E67DA"/>
				<stop  offset="0.4051" style="stop-color:#727AE2"/>
				<stop  offset="0.6924" style="stop-color:#9297EE"/>
				<stop  offset="1" style="stop-color:#BCBEFF"/>
			</linearGradient>
			<polygon class="st6" points="463.02,313.86 463.02,323.19 382.25,369.82 301.49,323.19 301.49,313.86 			"/>
			<polygon class="st7" points="382.25,360.49 301.49,313.86 382.25,267.23 463.02,313.86 			"/>
			<polygon class="st3" points="382.25,359.4 302.43,313.31 301.49,313.86 382.25,360.49 463.02,313.86 462.08,313.31 			"/>
		</g>
	</g>
</g>
<g>
	<g>
		<path class="st0" d="M373.84,253.9c-0.47,0-0.98-0.15-1.51-0.46l-10.51-6.07l0.16-0.27l10.51,6.07c0.8,0.46,1.55,0.54,2.1,0.22
			c0.55-0.32,0.86-1,0.86-1.93v-2.53c0-1.04,0.36-1.83,1.01-2.21c0.65-0.38,1.51-0.3,2.42,0.22l2.2,1.27l-0.16,0.27l-2.2-1.27
			c-0.8-0.46-1.55-0.54-2.1-0.22c-0.55,0.32-0.86,1-0.86,1.93v2.53c0,1.04-0.36,1.83-1.01,2.21
			C374.48,253.83,374.17,253.9,373.84,253.9z"/>
		<path class="st0" d="M369.76,256.26c-0.46,0-0.98-0.15-1.51-0.46l-10.51-6.07l0.16-0.27l10.51,6.07c0.8,0.46,1.55,0.54,2.1,0.22
			c0.55-0.32,0.86-1,0.86-1.93v-2.53c0-1.04,0.36-1.83,1.01-2.2c0.65-0.38,1.51-0.3,2.42,0.22l2.2,1.27l-0.16,0.27l-2.2-1.27
			c-0.8-0.46-1.55-0.54-2.1-0.22c-0.55,0.32-0.86,1-0.86,1.93v2.53c0,1.04-0.36,1.83-1.01,2.21
			C370.39,256.18,370.09,256.26,369.76,256.26z"/>
		<path class="st0" d="M365.67,258.61c-0.47,0-0.98-0.15-1.51-0.46l-10.51-6.07l0.16-0.27l10.51,6.07c0.8,0.46,1.55,0.54,2.1,0.22
			c0.55-0.32,0.86-1,0.86-1.93v-2.54c0-1.04,0.36-1.83,1.01-2.2c0.65-0.38,1.51-0.3,2.42,0.22l2.2,1.27l-0.16,0.27l-2.2-1.27
			c-0.8-0.46-1.55-0.54-2.1-0.22c-0.55,0.32-0.86,1-0.86,1.93v2.54c0,1.04-0.36,1.83-1.01,2.2
			C366.31,258.53,366,258.61,365.67,258.61z"/>
		<path class="st0" d="M361.58,260.96c-0.47,0-0.98-0.15-1.51-0.46l-10.51-6.07l0.16-0.27l10.51,6.07c0.8,0.46,1.55,0.54,2.1,0.22
			c0.55-0.32,0.86-1,0.86-1.93v-2.54c0-1.04,0.36-1.83,1.01-2.2c0.65-0.38,1.51-0.3,2.42,0.22l2.2,1.27l-0.16,0.27l-2.2-1.27
			c-0.8-0.46-1.55-0.54-2.1-0.22c-0.55,0.32-0.86,1-0.86,1.93v2.54c0,1.04-0.36,1.83-1.01,2.2
			C362.22,260.88,361.91,260.96,361.58,260.96z"/>
		<path class="st0" d="M357.49,263.31c-0.47,0-0.98-0.15-1.51-0.46l-10.51-6.07l0.16-0.27l10.51,6.07c0.8,0.46,1.55,0.54,2.1,0.22
			c0.55-0.32,0.86-1,0.86-1.93v-2.54c0-1.04,0.36-1.83,1.01-2.2c0.65-0.38,1.51-0.3,2.42,0.22l2.2,1.27l-0.16,0.27l-2.2-1.27
			c-0.8-0.46-1.55-0.54-2.1-0.22c-0.55,0.32-0.86,1-0.86,1.93v2.54c0,1.04-0.36,1.83-1.01,2.2
			C358.13,263.23,357.82,263.31,357.49,263.31z"/>
		<path class="st0" d="M353.4,265.66c-0.46,0-0.98-0.15-1.5-0.46l-10.51-6.07l0.16-0.27l10.51,6.07c0.8,0.46,1.55,0.54,2.1,0.22
			c0.55-0.32,0.86-1,0.86-1.93v-2.54c0-1.04,0.36-1.83,1.01-2.2c0.65-0.38,1.51-0.3,2.42,0.22l2.2,1.27l-0.16,0.27l-2.2-1.27
			c-0.8-0.46-1.55-0.54-2.1-0.22c-0.55,0.32-0.86,1-0.86,1.93v2.54c0,1.04-0.36,1.83-1.01,2.2
			C354.04,265.58,353.73,265.66,353.4,265.66z"/>
		<path class="st0" d="M349.31,268.01c-0.47,0-0.98-0.15-1.51-0.46l-10.51-6.07l0.16-0.27l10.51,6.07c0.8,0.46,1.55,0.54,2.1,0.22
			c0.55-0.32,0.86-1,0.86-1.93v-2.54c0-1.04,0.36-1.83,1.01-2.2c0.65-0.38,1.51-0.3,2.42,0.22l2.2,1.27l-0.16,0.27l-2.2-1.27
			c-0.8-0.46-1.55-0.54-2.1-0.22c-0.55,0.32-0.86,1-0.86,1.93v2.54c0,1.04-0.36,1.83-1.01,2.2
			C349.95,267.94,349.65,268.01,349.31,268.01z"/>
		<path class="st0" d="M345.23,270.37c-0.46,0-0.98-0.15-1.5-0.46l-10.51-6.07l0.16-0.27l10.51,6.07c0.8,0.46,1.55,0.54,2.1,0.22
			c0.55-0.32,0.86-1,0.86-1.93v-2.53c0-1.04,0.36-1.83,1.01-2.21c0.65-0.38,1.51-0.3,2.42,0.22l2.2,1.27l-0.16,0.27l-2.2-1.27
			c-0.8-0.46-1.55-0.54-2.1-0.22c-0.55,0.32-0.86,1-0.86,1.93v2.53c0,1.04-0.36,1.83-1.01,2.2
			C345.86,270.29,345.56,270.37,345.23,270.37z"/>
		<path class="st0" d="M341.14,272.72c-0.47,0-0.98-0.15-1.51-0.46l-10.51-6.07l0.16-0.27l10.51,6.07c0.8,0.46,1.55,0.54,2.1,0.22
			c0.55-0.32,0.86-1,0.86-1.93v-2.53c0-1.04,0.36-1.83,1.01-2.21c0.65-0.38,1.51-0.3,2.42,0.22l2.2,1.27l-0.16,0.27l-2.2-1.27
			c-0.8-0.46-1.55-0.54-2.1-0.22c-0.55,0.32-0.86,1-0.86,1.93v2.53c0,1.04-0.36,1.83-1.01,2.21
			C341.78,272.64,341.47,272.72,341.14,272.72z"/>
		<path class="st0" d="M337.05,275.07c-0.46,0-0.98-0.15-1.51-0.46l-10.51-6.07l0.16-0.27l10.51,6.07c0.8,0.46,1.55,0.54,2.1,0.22
			c0.55-0.32,0.86-1,0.86-1.93v-2.53c0-1.04,0.36-1.83,1.01-2.2c0.65-0.38,1.51-0.3,2.42,0.22l2.2,1.27l-0.16,0.27l-2.2-1.27
			c-0.8-0.46-1.55-0.54-2.1-0.22c-0.55,0.32-0.86,1-0.86,1.93v2.53c0,1.04-0.36,1.83-1.01,2.21
			C337.69,274.99,337.38,275.07,337.05,275.07z"/>
		<path class="st0" d="M332.96,277.42c-0.47,0-0.98-0.15-1.51-0.46l-10.51-6.07l0.16-0.27l10.51,6.07c0.8,0.46,1.55,0.54,2.1,0.22
			c0.55-0.32,0.86-1,0.86-1.93v-2.54c0-1.04,0.36-1.83,1.01-2.2c0.65-0.38,1.51-0.3,2.42,0.22l2.2,1.27l-0.16,0.27l-2.2-1.27
			c-0.8-0.46-1.55-0.54-2.1-0.22c-0.55,0.32-0.86,1-0.86,1.93v2.54c0,1.04-0.36,1.83-1.01,2.2
			C333.6,277.34,333.29,277.42,332.96,277.42z"/>
		<path class="st0" d="M328.87,279.77c-0.47,0-0.98-0.15-1.51-0.46l-10.51-6.07l0.16-0.27l10.51,6.07c0.8,0.46,1.55,0.54,2.1,0.22
			c0.55-0.32,0.86-1,0.86-1.93v-2.54c0-1.04,0.36-1.83,1.01-2.2c0.65-0.38,1.51-0.3,2.42,0.22l2.2,1.27l-0.16,0.27l-2.2-1.27
			c-0.8-0.46-1.55-0.54-2.1-0.22c-0.55,0.32-0.86,1-0.86,1.93v2.54c0,1.04-0.36,1.83-1.01,2.2
			C329.51,279.69,329.21,279.77,328.87,279.77z"/>
		<path class="st0" d="M324.79,282.12c-0.47,0-0.98-0.15-1.51-0.46l-10.51-6.07l0.16-0.27l10.51,6.07c0.8,0.46,1.55,0.54,2.1,0.22
			c0.55-0.32,0.86-1,0.86-1.93v-2.54c0-1.04,0.36-1.83,1.01-2.2c0.65-0.38,1.51-0.3,2.42,0.22l2.2,1.27l-0.16,0.27l-2.2-1.27
			c-0.8-0.46-1.55-0.54-2.1-0.22c-0.55,0.32-0.86,1-0.86,1.93v2.54c0,1.04-0.36,1.83-1.01,2.2
			C325.42,282.05,325.12,282.12,324.79,282.12z"/>
		<path class="st0" d="M320.7,284.48c-0.47,0-0.98-0.15-1.51-0.46l-10.51-6.07l0.16-0.27l10.51,6.07c0.8,0.46,1.55,0.54,2.1,0.22
			c0.55-0.32,0.86-1,0.86-1.93v-2.54c0-1.04,0.36-1.83,1.01-2.2c0.65-0.38,1.51-0.3,2.42,0.22l2.2,1.27l-0.16,0.27l-2.2-1.27
			c-0.8-0.46-1.55-0.54-2.1-0.22c-0.55,0.32-0.86,1-0.86,1.93v2.54c0,1.04-0.36,1.83-1.01,2.2
			C321.34,284.4,321.03,284.48,320.7,284.48z"/>
		<path class="st0" d="M316.61,286.83c-0.47,0-0.98-0.15-1.51-0.46l-10.51-6.07l0.16-0.27l10.51,6.07c0.8,0.46,1.55,0.54,2.1,0.22
			c0.55-0.32,0.86-1,0.86-1.93v-2.54c0-1.04,0.36-1.83,1.01-2.2c0.65-0.38,1.51-0.3,2.42,0.22l2.2,1.27l-0.16,0.27l-2.2-1.27
			c-0.8-0.46-1.55-0.54-2.1-0.22c-0.55,0.32-0.86,1-0.86,1.93v2.54c0,1.04-0.36,1.83-1.01,2.2
			C317.25,286.75,316.94,286.83,316.61,286.83z"/>
		<path class="st0" d="M312.52,289.18c-0.47,0-0.98-0.15-1.51-0.46l-10.51-6.07l0.16-0.27l10.51,6.07c0.8,0.46,1.55,0.54,2.1,0.22
			c0.55-0.32,0.86-1,0.86-1.93v-2.53c0-1.04,0.36-1.83,1.01-2.21c0.65-0.38,1.51-0.3,2.42,0.22l2.2,1.27l-0.16,0.27l-2.2-1.27
			c-0.8-0.46-1.55-0.54-2.1-0.22c-0.55,0.32-0.86,1-0.86,1.93v2.53c0,1.04-0.36,1.83-1.01,2.21
			C313.16,289.1,312.85,289.18,312.52,289.18z"/>
		<path class="st0" d="M308.43,291.53c-0.47,0-0.98-0.15-1.51-0.46L296.42,285l0.16-0.27l10.51,6.07c0.8,0.46,1.55,0.54,2.1,0.22
			c0.55-0.32,0.86-1,0.86-1.93v-2.53c0-1.04,0.36-1.83,1.01-2.21c0.65-0.38,1.51-0.3,2.42,0.22l2.2,1.27l-0.16,0.27l-2.2-1.27
			c-0.8-0.46-1.55-0.54-2.1-0.22c-0.55,0.32-0.86,1-0.86,1.93v2.53c0,1.04-0.36,1.83-1.01,2.21
			C309.07,291.45,308.76,291.53,308.43,291.53z"/>
		<path class="st0" d="M304.35,293.88c-0.47,0-0.98-0.15-1.51-0.46l-10.51-6.07l0.16-0.27l10.51,6.07c0.8,0.46,1.55,0.54,2.1,0.22
			c0.55-0.32,0.86-1,0.86-1.93v-2.54c0-1.04,0.36-1.83,1.01-2.2c0.65-0.38,1.51-0.3,2.42,0.22l2.2,1.27l-0.16,0.27l-2.2-1.27
			c-0.8-0.46-1.55-0.54-2.1-0.22c-0.55,0.32-0.86,1-0.86,1.93v2.54c0,1.04-0.36,1.83-1.01,2.2
			C304.98,293.81,304.68,293.88,304.35,293.88z"/>
		<path class="st0" d="M300.26,296.23c-0.47,0-0.98-0.15-1.51-0.46l-10.51-6.07l0.16-0.27l10.51,6.07c0.8,0.46,1.55,0.54,2.1,0.22
			c0.55-0.32,0.86-1,0.86-1.93v-2.54c0-1.04,0.36-1.83,1.01-2.2c0.65-0.38,1.51-0.3,2.42,0.22l2.2,1.27l-0.16,0.27l-2.2-1.27
			c-0.8-0.46-1.55-0.54-2.1-0.22c-0.55,0.32-0.86,1-0.86,1.93v2.54c0,1.04-0.36,1.83-1.01,2.2
			C300.9,296.16,300.59,296.23,300.26,296.23z"/>
		<path class="st0" d="M296.17,298.59c-0.47,0-0.98-0.15-1.51-0.46l-10.51-6.07l0.16-0.27l10.51,6.07c0.8,0.46,1.55,0.54,2.1,0.22
			c0.55-0.32,0.86-1,0.86-1.93v-2.54c0-1.04,0.36-1.83,1.01-2.2c0.65-0.38,1.51-0.3,2.42,0.22l2.2,1.27l-0.16,0.27l-2.2-1.27
			c-0.8-0.46-1.55-0.54-2.1-0.22c-0.55,0.32-0.86,1-0.86,1.93v2.54c0,1.04-0.36,1.83-1.01,2.2
			C296.81,298.51,296.5,298.59,296.17,298.59z"/>
	</g>
	<g>
		<path class="st0" d="M390.6,254.1c-0.33,0-0.64-0.08-0.91-0.24c-0.65-0.38-1.01-1.16-1.01-2.2v-2.54c0-0.93-0.3-1.61-0.86-1.93
			c-0.55-0.32-1.3-0.24-2.1,0.22l-2.2,1.27l-0.16-0.27l2.2-1.27c0.9-0.52,1.76-0.6,2.42-0.22c0.65,0.38,1.01,1.16,1.01,2.2v2.54
			c0,0.93,0.3,1.61,0.86,1.93c0.55,0.32,1.3,0.24,2.1-0.22l10.51-6.07l0.16,0.27l-10.51,6.07
			C391.57,253.94,391.06,254.1,390.6,254.1z"/>
		<path class="st0" d="M394.68,256.45c-0.33,0-0.64-0.08-0.91-0.24c-0.65-0.38-1.01-1.16-1.01-2.2v-2.54c0-0.93-0.3-1.61-0.86-1.93
			c-0.55-0.32-1.3-0.24-2.1,0.22l-2.2,1.27l-0.16-0.27l2.2-1.27c0.9-0.52,1.76-0.6,2.42-0.22c0.65,0.38,1.01,1.16,1.01,2.2v2.54
			c0,0.93,0.3,1.61,0.86,1.93c0.55,0.32,1.3,0.24,2.1-0.22l10.51-6.07l0.16,0.27l-10.51,6.07
			C395.66,256.29,395.15,256.45,394.68,256.45z"/>
		<path class="st0" d="M398.77,258.8c-0.33,0-0.64-0.08-0.91-0.24c-0.65-0.38-1.01-1.16-1.01-2.2v-2.53c0-0.93-0.3-1.61-0.86-1.93
			c-0.55-0.32-1.3-0.24-2.1,0.22l-2.2,1.27l-0.16-0.27l2.2-1.27c0.9-0.52,1.76-0.6,2.42-0.22c0.65,0.38,1.01,1.16,1.01,2.2v2.53
			c0,0.93,0.3,1.61,0.86,1.93c0.55,0.32,1.3,0.24,2.1-0.22l10.51-6.07l0.16,0.27l-10.51,6.07
			C399.75,258.65,399.24,258.8,398.77,258.8z"/>
		<path class="st0" d="M402.86,261.15c-0.33,0-0.64-0.08-0.91-0.23c-0.65-0.38-1.01-1.16-1.01-2.21v-2.53c0-0.93-0.3-1.61-0.86-1.93
			c-0.55-0.32-1.3-0.24-2.1,0.22l-2.2,1.27l-0.16-0.27l2.2-1.27c0.9-0.52,1.76-0.6,2.42-0.22c0.65,0.38,1.01,1.16,1.01,2.21v2.53
			c0,0.93,0.3,1.61,0.86,1.93c0.55,0.32,1.3,0.24,2.1-0.22l10.51-6.07l0.16,0.27l-10.51,6.07
			C403.84,261,403.32,261.15,402.86,261.15z"/>
		<path class="st0" d="M406.95,263.5c-0.33,0-0.64-0.08-0.91-0.23c-0.65-0.38-1.01-1.16-1.01-2.21v-2.53c0-0.93-0.3-1.61-0.86-1.93
			c-0.55-0.32-1.3-0.24-2.1,0.22l-2.2,1.27l-0.16-0.27l2.2-1.27c0.9-0.52,1.76-0.6,2.42-0.22c0.65,0.38,1.01,1.16,1.01,2.2v2.53
			c0,0.93,0.3,1.61,0.86,1.93c0.55,0.32,1.3,0.24,2.1-0.22l10.51-6.07l0.16,0.27l-10.51,6.07
			C407.93,263.35,407.41,263.5,406.95,263.5z"/>
		<path class="st0" d="M411.04,265.85c-0.33,0-0.64-0.08-0.91-0.23c-0.65-0.38-1.01-1.16-1.01-2.2v-2.54c0-0.93-0.3-1.61-0.86-1.93
			c-0.55-0.32-1.3-0.24-2.1,0.22l-2.2,1.27l-0.16-0.27l2.2-1.27c0.9-0.52,1.76-0.6,2.42-0.22c0.65,0.38,1.01,1.16,1.01,2.2v2.54
			c0,0.93,0.3,1.61,0.86,1.93c0.55,0.32,1.3,0.24,2.1-0.22l10.51-6.07l0.16,0.27l-10.51,6.07
			C412.01,265.7,411.5,265.85,411.04,265.85z"/>
		<path class="st0" d="M415.12,268.21c-0.33,0-0.64-0.08-0.91-0.23c-0.65-0.38-1.01-1.16-1.01-2.2v-2.54c0-0.93-0.3-1.61-0.86-1.93
			c-0.55-0.32-1.3-0.24-2.1,0.22l-2.2,1.27l-0.16-0.27l2.2-1.27c0.9-0.52,1.76-0.6,2.42-0.22c0.65,0.38,1.01,1.16,1.01,2.2v2.54
			c0,0.93,0.3,1.61,0.86,1.93c0.55,0.32,1.3,0.24,2.1-0.22l10.51-6.07l0.16,0.27l-10.51,6.07
			C416.1,268.05,415.59,268.21,415.12,268.21z"/>
		<path class="st0" d="M419.21,270.56c-0.33,0-0.64-0.08-0.91-0.24c-0.65-0.38-1.01-1.16-1.01-2.2v-2.54c0-0.93-0.3-1.61-0.86-1.93
			c-0.55-0.32-1.3-0.24-2.1,0.22l-2.2,1.27l-0.16-0.27l2.2-1.27c0.91-0.52,1.76-0.6,2.42-0.22c0.65,0.38,1.01,1.16,1.01,2.2v2.54
			c0,0.93,0.3,1.61,0.86,1.93c0.55,0.32,1.3,0.24,2.1-0.22l10.51-6.07l0.16,0.27l-10.51,6.07
			C420.19,270.4,419.68,270.56,419.21,270.56z"/>
		<path class="st0" d="M423.3,272.91c-0.33,0-0.64-0.08-0.91-0.24c-0.65-0.38-1.01-1.16-1.01-2.2v-2.54c0-0.93-0.3-1.61-0.86-1.93
			c-0.55-0.32-1.3-0.24-2.1,0.22l-2.2,1.27l-0.16-0.27l2.2-1.27c0.9-0.52,1.76-0.6,2.42-0.22s1.01,1.16,1.01,2.2v2.54
			c0,0.93,0.3,1.61,0.86,1.93c0.55,0.32,1.3,0.24,2.1-0.22l10.51-6.07l0.16,0.27l-10.51,6.07
			C424.28,272.76,423.77,272.91,423.3,272.91z"/>
		<path class="st0" d="M427.39,275.26c-0.33,0-0.64-0.08-0.91-0.24c-0.65-0.38-1.01-1.16-1.01-2.2v-2.54c0-0.93-0.3-1.61-0.86-1.93
			c-0.55-0.32-1.3-0.24-2.1,0.22l-2.2,1.27l-0.16-0.27l2.2-1.27c0.91-0.52,1.76-0.6,2.42-0.22c0.65,0.38,1.01,1.16,1.01,2.2v2.54
			c0,0.93,0.3,1.61,0.86,1.93c0.55,0.32,1.3,0.24,2.1-0.22l10.51-6.07l0.16,0.27l-10.51,6.07
			C428.37,275.11,427.85,275.26,427.39,275.26z"/>
		<path class="st0" d="M431.48,277.61c-0.33,0-0.64-0.08-0.91-0.24c-0.65-0.38-1.01-1.16-1.01-2.2v-2.53c0-0.93-0.3-1.61-0.86-1.93
			c-0.55-0.32-1.3-0.24-2.1,0.22l-2.2,1.27l-0.16-0.27l2.2-1.27c0.9-0.52,1.76-0.6,2.42-0.22c0.65,0.38,1.01,1.16,1.01,2.21v2.53
			c0,0.93,0.3,1.61,0.86,1.93c0.55,0.32,1.3,0.24,2.1-0.22l10.51-6.07l0.16,0.27l-10.51,6.07
			C432.45,277.46,431.94,277.61,431.48,277.61z"/>
		<path class="st0" d="M435.56,279.96c-0.33,0-0.64-0.08-0.91-0.23c-0.65-0.38-1.01-1.16-1.01-2.21v-2.53c0-0.93-0.3-1.61-0.86-1.93
			c-0.55-0.32-1.3-0.24-2.1,0.22l-2.2,1.27l-0.16-0.27l2.2-1.27c0.9-0.52,1.76-0.6,2.42-0.22c0.65,0.38,1.01,1.16,1.01,2.21v2.53
			c0,0.93,0.3,1.61,0.86,1.93c0.55,0.32,1.3,0.24,2.1-0.22l10.51-6.07l0.16,0.27l-10.51,6.07
			C436.54,279.81,436.03,279.96,435.56,279.96z"/>
		<path class="st0" d="M439.65,282.32c-0.33,0-0.64-0.08-0.91-0.23c-0.65-0.38-1.01-1.16-1.01-2.21v-2.53c0-0.93-0.3-1.61-0.86-1.93
			c-0.55-0.32-1.3-0.24-2.1,0.22l-2.2,1.27l-0.16-0.27l2.2-1.27c0.9-0.52,1.76-0.6,2.42-0.22c0.65,0.38,1.01,1.16,1.01,2.2v2.53
			c0,0.93,0.3,1.61,0.86,1.93c0.55,0.32,1.3,0.24,2.1-0.22l10.51-6.07l0.16,0.27l-10.51,6.07
			C440.63,282.16,440.12,282.32,439.65,282.32z"/>
		<path class="st0" d="M443.74,284.67c-0.33,0-0.64-0.08-0.91-0.23c-0.65-0.38-1.01-1.16-1.01-2.2v-2.54c0-0.93-0.3-1.61-0.86-1.93
			c-0.55-0.32-1.3-0.24-2.1,0.22l-2.2,1.27l-0.16-0.27l2.2-1.27c0.9-0.52,1.76-0.6,2.42-0.22c0.65,0.38,1.01,1.16,1.01,2.2v2.54
			c0,0.93,0.3,1.61,0.86,1.93c0.55,0.32,1.3,0.24,2.1-0.22l10.51-6.07l0.16,0.27l-10.51,6.07
			C444.72,284.51,444.21,284.67,443.74,284.67z"/>
		<path class="st0" d="M447.83,287.02c-0.33,0-0.64-0.08-0.91-0.23c-0.65-0.38-1.01-1.16-1.01-2.2v-2.54c0-0.93-0.3-1.61-0.86-1.93
			c-0.55-0.32-1.3-0.24-2.1,0.22l-2.2,1.27l-0.16-0.27l2.2-1.27c0.9-0.52,1.76-0.6,2.42-0.22c0.65,0.38,1.01,1.16,1.01,2.2v2.54
			c0,0.93,0.3,1.61,0.86,1.93c0.55,0.32,1.3,0.24,2.1-0.22l10.51-6.07l0.16,0.27l-10.51,6.07
			C448.81,286.87,448.29,287.02,447.83,287.02z"/>
		<path class="st0" d="M451.92,289.37c-0.33,0-0.64-0.08-0.91-0.24c-0.65-0.38-1.01-1.16-1.01-2.2v-2.54c0-0.93-0.3-1.61-0.86-1.93
			c-0.55-0.32-1.3-0.24-2.1,0.22l-2.2,1.27l-0.16-0.27l2.2-1.27c0.91-0.52,1.76-0.6,2.42-0.22c0.65,0.38,1.01,1.16,1.01,2.2v2.54
			c0,0.93,0.3,1.61,0.86,1.93c0.55,0.32,1.3,0.24,2.1-0.22l10.51-6.07l0.16,0.27l-10.51,6.07
			C452.89,289.22,452.38,289.37,451.92,289.37z"/>
		<path class="st0" d="M456.01,291.72c-0.33,0-0.64-0.08-0.91-0.24c-0.65-0.38-1.01-1.16-1.01-2.2v-2.54c0-0.93-0.3-1.61-0.86-1.93
			c-0.55-0.32-1.3-0.24-2.1,0.22l-2.2,1.27l-0.16-0.27l2.2-1.27c0.9-0.52,1.76-0.6,2.42-0.22c0.65,0.38,1.01,1.16,1.01,2.2v2.54
			c0,0.93,0.3,1.61,0.86,1.93c0.55,0.32,1.3,0.24,2.1-0.22l10.51-6.07l0.16,0.27l-10.51,6.07
			C456.98,291.57,456.47,291.72,456.01,291.72z"/>
		<path class="st0" d="M460.09,294.07c-0.33,0-0.64-0.08-0.91-0.24c-0.65-0.38-1.01-1.16-1.01-2.2v-2.53c0-0.93-0.3-1.61-0.86-1.93
			c-0.55-0.32-1.3-0.24-2.1,0.22l-2.2,1.27l-0.16-0.27l2.2-1.27c0.9-0.52,1.76-0.6,2.42-0.22c0.65,0.38,1.01,1.16,1.01,2.2v2.53
			c0,0.93,0.3,1.61,0.86,1.93c0.55,0.32,1.3,0.24,2.1-0.22l10.51-6.07l0.16,0.27l-10.51,6.07
			C461.07,293.92,460.56,294.07,460.09,294.07z"/>
		<path class="st0" d="M464.18,296.43c-0.33,0-0.64-0.08-0.91-0.23c-0.65-0.38-1.01-1.16-1.01-2.2v-2.53c0-0.93-0.3-1.61-0.86-1.93
			c-0.55-0.32-1.3-0.24-2.1,0.22l-2.2,1.27l-0.16-0.27l2.2-1.27c0.9-0.52,1.76-0.6,2.42-0.22c0.65,0.38,1.01,1.16,1.01,2.21v2.53
			c0,0.93,0.3,1.61,0.86,1.93c0.55,0.32,1.3,0.24,2.1-0.22l10.51-6.07l0.16,0.27l-10.51,6.07
			C465.16,296.27,464.65,296.43,464.18,296.43z"/>
		<path class="st0" d="M468.27,298.78c-0.33,0-0.64-0.08-0.91-0.23c-0.65-0.38-1.01-1.16-1.01-2.21v-2.53c0-0.93-0.3-1.61-0.86-1.93
			c-0.55-0.32-1.3-0.24-2.1,0.22l-2.2,1.27l-0.16-0.27l2.2-1.27c0.9-0.52,1.76-0.6,2.42-0.22c0.65,0.38,1.01,1.16,1.01,2.2v2.53
			c0,0.93,0.3,1.61,0.86,1.93c0.55,0.32,1.3,0.24,2.1-0.22l10.51-6.07l0.16,0.27l-10.51,6.07
			C469.25,298.62,468.73,298.78,468.27,298.78z"/>
	</g>
	<g>
		<g>
			
				<linearGradient id="SVGID_00000136378716687690131650000015403125587502289311_" gradientUnits="userSpaceOnUse" x1="261.5501" y1="322.1197" x2="468.5464" y2="322.1197">
				<stop  offset="0" style="stop-color:#5761D7"/>
				<stop  offset="0.1645" style="stop-color:#5E67DA"/>
				<stop  offset="0.4051" style="stop-color:#727AE2"/>
				<stop  offset="0.6924" style="stop-color:#9297EE"/>
				<stop  offset="1" style="stop-color:#BCBEFF"/>
			</linearGradient>
			<polygon style="fill:url(#SVGID_00000136378716687690131650000015403125587502289311_);" points="463.02,294.14 463.02,303.47 
				382.25,350.1 301.49,303.47 301.49,294.14 			"/>
			<polygon class="st7" points="382.25,340.77 301.49,294.14 382.25,247.51 463.02,294.14 			"/>
			<polygon class="st3" points="382.25,339.68 302.43,293.59 301.49,294.14 382.25,340.77 463.02,294.14 462.08,293.59 			"/>
		</g>
		<g>
			<polygon class="st9" points="382.25,330.01 320.13,294.15 382.25,258.28 444.37,294.15 			"/>
			<g>
				
					<linearGradient id="SVGID_00000076566470862401800900000004052904363616648347_" gradientUnits="userSpaceOnUse" x1="320.1304" y1="294.1487" x2="444.375" y2="294.1487">
					<stop  offset="0" style="stop-color:#42E8E0"/>
					<stop  offset="0.1507" style="stop-color:#43E3E0"/>
					<stop  offset="0.3285" style="stop-color:#45D5DF"/>
					<stop  offset="0.5199" style="stop-color:#49BDDD"/>
					<stop  offset="0.7209" style="stop-color:#4E9CDB"/>
					<stop  offset="0.9274" style="stop-color:#5472D8"/>
					<stop  offset="1" style="stop-color:#5761D7"/>
				</linearGradient>
				<polygon style="opacity:0.5;fill:url(#SVGID_00000076566470862401800900000004052904363616648347_);" points="382.25,330.01 
					320.13,294.15 382.25,258.28 444.38,294.15 				"/>
				<g>
					
						<linearGradient id="SVGID_00000037675083736443581040000011845931638655872950_" gradientUnits="userSpaceOnUse" x1="382.2518" y1="271.6933" x2="444.375" y2="271.6933">
						<stop  offset="0" style="stop-color:#42E8E0"/>
						<stop  offset="0.1507" style="stop-color:#43E3E0"/>
						<stop  offset="0.3285" style="stop-color:#45D5DF"/>
						<stop  offset="0.5199" style="stop-color:#49BDDD"/>
						<stop  offset="0.7209" style="stop-color:#4E9CDB"/>
						<stop  offset="0.9274" style="stop-color:#5472D8"/>
						<stop  offset="1" style="stop-color:#5761D7"/>
					</linearGradient>
					<polygon style="opacity:0.5;fill:url(#SVGID_00000037675083736443581040000011845931638655872950_);" points="382.25,249.24 
						444.38,285.1 444.38,294.15 382.25,258.28 					"/>
					
						<linearGradient id="SVGID_00000020364603885399137320000007536702838157769145_" gradientUnits="userSpaceOnUse" x1="320.1304" y1="271.6928" x2="382.2536" y2="271.6928">
						<stop  offset="0" style="stop-color:#42E8E0"/>
						<stop  offset="0.1507" style="stop-color:#43E3E0"/>
						<stop  offset="0.3285" style="stop-color:#45D5DF"/>
						<stop  offset="0.5199" style="stop-color:#49BDDD"/>
						<stop  offset="0.7209" style="stop-color:#4E9CDB"/>
						<stop  offset="0.9274" style="stop-color:#5472D8"/>
						<stop  offset="1" style="stop-color:#5761D7"/>
					</linearGradient>
					<polygon style="opacity:0.5;fill:url(#SVGID_00000020364603885399137320000007536702838157769145_);" points="382.25,258.28 
						320.13,294.15 320.13,285.1 382.25,249.24 					"/>
					
						<linearGradient id="SVGID_00000106127579917376651580000006793629917007229864_" gradientUnits="userSpaceOnUse" x1="320.1304" y1="285.1043" x2="444.375" y2="285.1043">
						<stop  offset="0" style="stop-color:#42E8E0"/>
						<stop  offset="0.1507" style="stop-color:#43E3E0"/>
						<stop  offset="0.3285" style="stop-color:#45D5DF"/>
						<stop  offset="0.5199" style="stop-color:#49BDDD"/>
						<stop  offset="0.7209" style="stop-color:#4E9CDB"/>
						<stop  offset="0.9274" style="stop-color:#5472D8"/>
						<stop  offset="1" style="stop-color:#5761D7"/>
					</linearGradient>
					<polygon style="opacity:0.5;fill:url(#SVGID_00000106127579917376651580000006793629917007229864_);" points="382.25,320.97 
						320.13,285.1 382.25,249.24 444.38,285.1 					"/>
					<polygon class="st14" points="382.25,299.44 357.43,285.1 382.25,270.77 407.08,285.1 					"/>
					<polygon class="st14" points="382.25,272.09 405.93,285.76 407.08,285.1 382.25,270.77 357.43,285.1 358.57,285.76 					"/>
					
						<linearGradient id="SVGID_00000173153671278115369800000010576853261476824456_" gradientUnits="userSpaceOnUse" x1="382.2536" y1="307.5597" x2="444.375" y2="307.5597">
						<stop  offset="0" style="stop-color:#42E8E0"/>
						<stop  offset="0.1507" style="stop-color:#43E3E0"/>
						<stop  offset="0.3285" style="stop-color:#45D5DF"/>
						<stop  offset="0.5199" style="stop-color:#49BDDD"/>
						<stop  offset="0.7209" style="stop-color:#4E9CDB"/>
						<stop  offset="0.9274" style="stop-color:#5472D8"/>
						<stop  offset="1" style="stop-color:#5761D7"/>
					</linearGradient>
					<polygon style="opacity:0.5;fill:url(#SVGID_00000173153671278115369800000010576853261476824456_);" points="382.25,320.97 
						382.25,330.01 444.38,294.15 444.38,285.1 					"/>
				</g>
				
					<linearGradient id="SVGID_00000100383782935722359470000014808442943047836338_" gradientUnits="userSpaceOnUse" x1="320.1304" y1="307.5591" x2="382.2536" y2="307.5591">
					<stop  offset="0" style="stop-color:#42E8E0"/>
					<stop  offset="0.1507" style="stop-color:#43E3E0"/>
					<stop  offset="0.3285" style="stop-color:#45D5DF"/>
					<stop  offset="0.5199" style="stop-color:#49BDDD"/>
					<stop  offset="0.7209" style="stop-color:#4E9CDB"/>
					<stop  offset="0.9274" style="stop-color:#5472D8"/>
					<stop  offset="1" style="stop-color:#5761D7"/>
				</linearGradient>
				<polygon style="opacity:0.5;fill:url(#SVGID_00000100383782935722359470000014808442943047836338_);" points="320.13,285.1 
					320.13,294.15 382.25,330.01 382.25,320.97 				"/>
			</g>
			<polygon class="st17" points="382.25,319.98 320.99,284.61 320.13,285.1 382.25,320.97 444.38,285.1 443.52,284.61 			"/>
		</g>
	</g>
	<g>
		<path class="st0" d="M402.45,361.07L391.94,355c-1.8-1.04-3.27-3.58-3.27-5.67v-2.54c0-1.98-1.4-4.4-3.11-5.39l-2.2-1.27
			l0.16-0.27l2.2,1.27c1.8,1.04,3.27,3.58,3.27,5.67v2.54c0,1.98,1.4,4.4,3.11,5.39l10.51,6.07L402.45,361.07z"/>
		<path class="st0" d="M406.54,358.71l-10.51-6.07c-1.8-1.04-3.27-3.58-3.27-5.67v-2.54c0-1.98-1.4-4.4-3.11-5.39l-2.2-1.27
			l0.16-0.27l2.2,1.27c1.8,1.04,3.27,3.58,3.27,5.67v2.54c0,1.98,1.4,4.4,3.11,5.39l10.51,6.07L406.54,358.71z"/>
		<path class="st0" d="M410.63,356.36l-10.51-6.07c-1.8-1.04-3.27-3.59-3.27-5.67v-2.53c0-1.98-1.4-4.4-3.11-5.39l-2.2-1.27
			l0.16-0.27l2.2,1.27c1.8,1.04,3.27,3.58,3.27,5.67v2.53c0,1.98,1.4,4.4,3.11,5.39l10.51,6.07L410.63,356.36z"/>
		<path class="st0" d="M414.72,354l-10.51-6.07c-1.8-1.04-3.27-3.58-3.27-5.67v-2.54c0-1.98-1.4-4.4-3.11-5.39l-2.2-1.27l0.16-0.27
			l2.2,1.27c1.8,1.04,3.27,3.58,3.27,5.67v2.54c0,1.98,1.4,4.4,3.11,5.39l10.51,6.07L414.72,354z"/>
		<path class="st0" d="M418.81,351.64l-10.51-6.07c-1.8-1.04-3.27-3.58-3.27-5.67v-2.54c0-1.98-1.4-4.4-3.11-5.39l-2.2-1.27
			l0.16-0.27l2.2,1.27c1.8,1.04,3.27,3.58,3.27,5.67v2.54c0,1.98,1.4,4.4,3.11,5.39l10.51,6.07L418.81,351.64z"/>
		<path class="st0" d="M422.89,349.29l-10.51-6.07c-1.8-1.04-3.27-3.58-3.27-5.67v-2.53c0-1.98-1.4-4.4-3.11-5.39l-2.2-1.27
			l0.16-0.27l2.2,1.27c1.8,1.04,3.27,3.58,3.27,5.67v2.53c0,1.98,1.4,4.4,3.11,5.39l10.51,6.07L422.89,349.29z"/>
		<path class="st0" d="M426.98,346.93l-10.51-6.07c-1.8-1.04-3.27-3.58-3.27-5.67v-2.54c0-1.98-1.4-4.4-3.11-5.39l-2.2-1.27
			l0.16-0.27l2.2,1.27c1.8,1.04,3.27,3.58,3.27,5.67v2.54c0,1.98,1.4,4.4,3.11,5.39l10.51,6.07L426.98,346.93z"/>
		<path class="st0" d="M431.07,344.58l-10.51-6.07c-1.8-1.04-3.27-3.58-3.27-5.67v-2.54c0-1.98-1.4-4.4-3.11-5.39l-2.2-1.27
			l0.16-0.27l2.2,1.27c1.8,1.04,3.27,3.58,3.27,5.67v2.54c0,1.98,1.4,4.4,3.11,5.39l10.51,6.07L431.07,344.58z"/>
		<path class="st0" d="M435.16,342.22l-10.51-6.07c-1.8-1.04-3.27-3.58-3.27-5.67v-2.53c0-1.98-1.4-4.4-3.11-5.39l-2.2-1.27
			l0.16-0.27l2.2,1.27c1.8,1.04,3.27,3.58,3.27,5.67v2.53c0,1.98,1.4,4.4,3.11,5.39l10.51,6.07L435.16,342.22z"/>
		<path class="st0" d="M439.25,339.86l-10.51-6.07c-1.8-1.04-3.27-3.58-3.27-5.67v-2.54c0-1.98-1.4-4.4-3.11-5.39l-2.2-1.27
			l0.16-0.27l2.2,1.27c1.8,1.04,3.27,3.58,3.27,5.67v2.54c0,1.98,1.4,4.4,3.11,5.39l10.51,6.07L439.25,339.86z"/>
		<path class="st0" d="M443.33,337.51l-10.51-6.07c-1.8-1.04-3.27-3.58-3.27-5.67v-2.54c0-1.98-1.4-4.4-3.11-5.39l-2.2-1.27
			l0.16-0.27l2.2,1.27c1.8,1.04,3.27,3.58,3.27,5.67v2.54c0,1.98,1.4,4.4,3.11,5.39l10.51,6.07L443.33,337.51z"/>
		<path class="st0" d="M447.42,335.15l-10.51-6.07c-1.8-1.04-3.27-3.58-3.27-5.67v-2.53c0-1.98-1.4-4.4-3.11-5.39l-2.2-1.27
			l0.16-0.27l2.2,1.27c1.8,1.04,3.27,3.58,3.27,5.67v2.53c0,1.98,1.4,4.4,3.11,5.39l10.51,6.07L447.42,335.15z"/>
		<path class="st0" d="M451.51,332.8L441,326.73c-1.8-1.04-3.27-3.58-3.27-5.67v-2.54c0-1.98-1.4-4.4-3.11-5.39l-2.2-1.27l0.16-0.27
			l2.2,1.27c1.8,1.04,3.27,3.58,3.27,5.67v2.54c0,1.98,1.4,4.4,3.11,5.39l10.51,6.07L451.51,332.8z"/>
		<path class="st0" d="M455.6,330.44l-10.51-6.07c-1.8-1.04-3.27-3.58-3.27-5.67v-2.54c0-1.98-1.4-4.4-3.11-5.39l-2.2-1.27
			l0.16-0.27l2.2,1.27c1.8,1.04,3.27,3.58,3.27,5.67v2.54c0,1.98,1.4,4.4,3.11,5.39l10.51,6.07L455.6,330.44z"/>
		<path class="st0" d="M459.69,328.09l-10.51-6.07c-1.8-1.04-3.27-3.58-3.27-5.67v-2.53c0-1.98-1.4-4.4-3.11-5.39l-2.2-1.27
			l0.16-0.27l2.2,1.27c1.8,1.04,3.27,3.58,3.27,5.67v2.53c0,1.98,1.4,4.4,3.11,5.39l10.51,6.07L459.69,328.09z"/>
		<path class="st0" d="M463.78,325.73l-10.51-6.07c-1.8-1.04-3.27-3.58-3.27-5.67v-2.54c0-1.98-1.4-4.4-3.11-5.39l-2.2-1.27
			l0.16-0.27l2.2,1.27c1.8,1.04,3.27,3.58,3.27,5.67v2.54c0,1.98,1.4,4.4,3.11,5.39l10.51,6.07L463.78,325.73z"/>
		<path class="st0" d="M467.86,323.37l-10.51-6.07c-1.8-1.04-3.27-3.58-3.27-5.67v-2.54c0-1.98-1.4-4.4-3.11-5.39l-2.2-1.27
			l0.16-0.27l2.2,1.27c1.8,1.04,3.27,3.58,3.27,5.67v2.54c0,1.98,1.4,4.4,3.11,5.39l10.51,6.07L467.86,323.37z"/>
		<path class="st0" d="M471.95,321.02l-10.51-6.07c-1.8-1.04-3.27-3.58-3.27-5.67v-2.53c0-1.98-1.4-4.4-3.11-5.39l-2.2-1.27
			l0.16-0.27l2.2,1.27c1.8,1.04,3.27,3.59,3.27,5.67v2.53c0,1.98,1.4,4.4,3.11,5.39l10.51,6.07L471.95,321.02z"/>
		<path class="st0" d="M476.04,318.66l-10.51-6.07c-1.8-1.04-3.27-3.58-3.27-5.67v-2.54c0-1.98-1.4-4.4-3.11-5.39l-2.2-1.27
			l0.16-0.27l2.2,1.27c1.8,1.04,3.27,3.58,3.27,5.67v2.54c0,1.98,1.4,4.4,3.11,5.39l10.51,6.07L476.04,318.66z"/>
		<path class="st0" d="M480.13,316.31l-10.51-6.07c-1.8-1.04-3.27-3.58-3.27-5.67v-2.54c0-1.98-1.4-4.4-3.11-5.39l-2.2-1.27
			l0.16-0.27l2.2,1.27c1.8,1.04,3.27,3.58,3.27,5.67v2.54c0,1.98,1.4,4.4,3.11,5.39l10.51,6.07L480.13,316.31z"/>
	</g>
	<g>
		<path class="st0" d="M361.77,361.07l-0.16-0.27l10.51-6.07c1.72-0.99,3.11-3.41,3.11-5.39v-2.54c0-2.08,1.47-4.62,3.27-5.67
			l2.2-1.27l0.16,0.27l-2.2,1.27c-1.72,0.99-3.11,3.41-3.11,5.39v2.54c0,2.08-1.47,4.63-3.27,5.67L361.77,361.07z"/>
		<path class="st0" d="M357.68,358.71l-0.16-0.27l10.51-6.07c1.72-0.99,3.11-3.41,3.11-5.39v-2.54c0-2.08,1.47-4.63,3.27-5.67
			l2.2-1.27l0.16,0.27l-2.2,1.27c-1.72,0.99-3.11,3.41-3.11,5.39v2.54c0,2.08-1.47,4.62-3.27,5.67L357.68,358.71z"/>
		<path class="st0" d="M353.59,356.36l-0.16-0.27l10.51-6.07c1.72-0.99,3.11-3.41,3.11-5.39v-2.53c0-2.08,1.47-4.63,3.27-5.67
			l2.2-1.27l0.16,0.27l-2.2,1.27c-1.72,0.99-3.11,3.41-3.11,5.39v2.53c0,2.08-1.47,4.63-3.27,5.67L353.59,356.36z"/>
		<path class="st0" d="M349.5,354l-0.16-0.27l10.51-6.07c1.72-0.99,3.11-3.41,3.11-5.39v-2.54c0-2.08,1.47-4.62,3.27-5.67l2.2-1.27
			l0.16,0.27l-2.2,1.27c-1.72,0.99-3.11,3.41-3.11,5.39v2.54c0,2.08-1.47,4.63-3.27,5.67L349.5,354z"/>
		<path class="st0" d="M345.41,351.64l-0.16-0.27l10.51-6.07c1.72-0.99,3.11-3.41,3.11-5.39v-2.54c0-2.08,1.47-4.63,3.27-5.67
			l2.2-1.27l0.16,0.27l-2.2,1.27c-1.72,0.99-3.11,3.41-3.11,5.39v2.54c0,2.08-1.47,4.62-3.27,5.67L345.41,351.64z"/>
		<path class="st0" d="M341.33,349.29l-0.16-0.27l10.51-6.07c1.72-0.99,3.11-3.41,3.11-5.39v-2.53c0-2.08,1.47-4.63,3.27-5.67
			l2.2-1.27l0.16,0.27l-2.2,1.27c-1.72,0.99-3.11,3.41-3.11,5.39v2.53c0,2.08-1.47,4.63-3.27,5.67L341.33,349.29z"/>
		<path class="st0" d="M337.24,346.93l-0.16-0.27l10.51-6.07c1.72-0.99,3.11-3.41,3.11-5.39v-2.54c0-2.08,1.47-4.62,3.27-5.67
			l2.2-1.27l0.16,0.27l-2.2,1.27c-1.72,0.99-3.11,3.41-3.11,5.39v2.54c0,2.08-1.47,4.63-3.27,5.67L337.24,346.93z"/>
		<path class="st0" d="M333.15,344.58l-0.16-0.27l10.51-6.07c1.72-0.99,3.11-3.41,3.11-5.39v-2.54c0-2.08,1.47-4.63,3.27-5.67
			l2.2-1.27l0.16,0.27l-2.2,1.27c-1.72,0.99-3.11,3.41-3.11,5.39v2.54c0,2.08-1.47,4.62-3.27,5.67L333.15,344.58z"/>
		<path class="st0" d="M312.1,351.78l-0.08-0.04l-44.71-25.66l0.16-0.28l44.63,25.62l16.8-9.47l10.51-6.07
			c1.72-0.99,3.11-3.41,3.11-5.39v-2.53c0-2.08,1.47-4.63,3.27-5.67l2.2-1.27l0.16,0.27l-2.2,1.27c-1.72,0.99-3.11,3.41-3.11,5.39
			v2.53c0,2.08-1.47,4.63-3.27,5.67l-10.51,6.07L312.1,351.78z"/>
		<path class="st0" d="M324.97,339.86l-0.16-0.27l10.51-6.07c1.72-0.99,3.11-3.41,3.11-5.39v-2.54c0-2.08,1.47-4.62,3.27-5.67
			l2.2-1.27l0.16,0.27l-2.2,1.27c-1.72,0.99-3.11,3.41-3.11,5.39v2.54c0,2.08-1.47,4.63-3.27,5.67L324.97,339.86z"/>
		<path class="st0" d="M320.88,337.51l-0.16-0.27l10.51-6.07c1.72-0.99,3.11-3.41,3.11-5.39v-2.54c0-2.08,1.47-4.63,3.27-5.67
			l2.2-1.27l0.16,0.27l-2.2,1.27c-1.72,0.99-3.11,3.41-3.11,5.39v2.54c0,2.08-1.47,4.62-3.27,5.67L320.88,337.51z"/>
		<path class="st0" d="M316.8,335.15l-0.16-0.27l10.51-6.07c1.72-0.99,3.11-3.41,3.11-5.39v-2.53c0-2.08,1.47-4.63,3.27-5.67
			l2.2-1.27l0.16,0.27l-2.2,1.27c-1.72,0.99-3.11,3.41-3.11,5.39v2.53c0,2.08-1.47,4.63-3.27,5.67L316.8,335.15z"/>
		<path class="st0" d="M312.71,332.8l-0.16-0.27l10.51-6.07c1.72-0.99,3.11-3.41,3.11-5.39v-2.54c0-2.08,1.47-4.62,3.27-5.67
			l2.2-1.27l0.16,0.27l-2.2,1.27c-1.72,0.99-3.11,3.41-3.11,5.39v2.54c0,2.08-1.47,4.63-3.27,5.67L312.71,332.8z"/>
		<path class="st0" d="M308.62,330.44l-0.16-0.27l10.51-6.07c1.72-0.99,3.11-3.41,3.11-5.39v-2.54c0-2.08,1.47-4.63,3.27-5.67
			l2.2-1.27l0.16,0.27l-2.2,1.27c-1.72,0.99-3.11,3.41-3.11,5.39v2.54c0,2.08-1.47,4.62-3.27,5.67L308.62,330.44z"/>
		<path class="st0" d="M304.53,328.09l-0.16-0.27l10.51-6.07c1.72-0.99,3.11-3.41,3.11-5.39v-2.53c0-2.08,1.47-4.63,3.27-5.67
			l2.2-1.27l0.16,0.27l-2.2,1.27c-1.72,0.99-3.11,3.41-3.11,5.39v2.53c0,2.08-1.47,4.63-3.27,5.67L304.53,328.09z"/>
		<path class="st0" d="M300.44,325.73l-0.16-0.27l10.51-6.07c1.72-0.99,3.11-3.41,3.11-5.39v-2.54c0-2.08,1.47-4.62,3.27-5.67
			l2.2-1.27l0.16,0.27l-2.2,1.27c-1.72,0.99-3.11,3.41-3.11,5.39v2.54c0,2.08-1.47,4.63-3.27,5.67L300.44,325.73z"/>
		<path class="st0" d="M296.36,323.37l-0.16-0.27l10.51-6.07c1.72-0.99,3.11-3.41,3.11-5.39v-2.54c0-2.08,1.47-4.63,3.27-5.67
			l2.2-1.27l0.16,0.27l-2.2,1.27c-1.72,0.99-3.11,3.41-3.11,5.39v2.54c0,2.08-1.47,4.62-3.27,5.67L296.36,323.37z"/>
		<path class="st0" d="M292.27,321.02l-0.16-0.27l10.51-6.07c1.72-0.99,3.11-3.41,3.11-5.39v-2.53c0-2.08,1.47-4.63,3.27-5.67
			l2.2-1.27l0.16,0.27l-2.2,1.27c-1.72,0.99-3.11,3.41-3.11,5.39v2.53c0,2.08-1.47,4.63-3.27,5.67L292.27,321.02z"/>
		<path class="st0" d="M288.18,318.66l-0.16-0.27l10.51-6.07c1.72-0.99,3.11-3.41,3.11-5.39v-2.54c0-2.08,1.47-4.62,3.27-5.67
			l2.2-1.27l0.16,0.27l-2.2,1.27c-1.72,0.99-3.11,3.41-3.11,5.39v2.54c0,2.08-1.47,4.62-3.27,5.67L288.18,318.66z"/>
		<path class="st0" d="M284.09,316.31l-0.16-0.27l10.51-6.07c1.72-0.99,3.11-3.41,3.11-5.39v-2.54c0-2.08,1.47-4.63,3.27-5.67
			l2.2-1.27l0.16,0.27l-2.2,1.27c-1.72,0.99-3.11,3.41-3.11,5.39v2.54c0,2.08-1.47,4.62-3.27,5.67L284.09,316.31z"/>
	</g>
</g>
<g>
	<g class="st1">
		<polygon class="st0" points="301.49,272.11 286.42,263.41 286.42,280.81 301.49,289.51 316.55,280.81 316.55,263.41 		"/>
		<polygon class="st0" points="301.49,289.51 286.42,280.81 286.42,263.41 301.49,272.11 		"/>
		<polygon class="st2" points="316.55,280.81 301.49,289.51 301.49,272.11 316.55,263.41 		"/>
		<polygon class="st0" points="301.49,272.11 286.42,263.41 301.48,254.71 316.55,263.41 		"/>
		<polygon class="st3" points="301.49,272.11 286.42,263.41 286.42,264.16 301.49,272.86 316.55,264.16 316.55,263.41 		"/>
	</g>
	<polygon class="st18" points="301.49,261.56 286.42,252.86 301.48,244.16 316.55,252.86 	"/>
	<polygon class="st0" points="301.49,230.98 286.42,222.29 286.42,239.68 301.49,248.38 316.55,239.68 316.55,222.29 	"/>
	<polygon class="st0" points="301.49,248.38 286.42,239.68 286.42,222.29 301.49,230.98 	"/>
	<polygon class="st2" points="316.55,239.68 301.49,248.38 301.49,230.98 316.55,222.29 	"/>
	<polygon class="st0" points="301.49,230.98 286.42,222.29 301.48,213.59 316.55,222.29 	"/>
	<polygon class="st2" points="301.48,228.85 290.12,222.29 301.48,215.72 312.85,222.29 	"/>
	<polygon class="st3" points="301.49,230.98 286.42,222.29 286.42,223.04 301.49,231.74 316.55,223.04 316.55,222.29 	"/>
	<polygon class="st0" points="301.49,204.89 286.42,196.19 286.42,213.59 301.49,222.29 316.55,213.59 316.55,196.19 	"/>
	<polygon class="st0" points="301.49,222.29 286.42,213.59 286.42,196.19 301.49,204.89 	"/>
	<polygon class="st2" points="316.55,213.59 301.49,222.29 301.49,204.89 316.55,196.19 	"/>
	<polygon class="st0" points="301.49,204.89 286.42,196.19 301.48,187.49 316.55,196.19 	"/>
	<polygon class="st3" points="301.49,204.89 286.42,196.19 286.42,196.94 301.49,205.64 316.55,196.94 316.55,196.19 	"/>
</g>
<g>
	<g class="st1">
		<polygon class="st0" points="499.81,282.12 484.74,273.42 484.74,290.82 499.81,299.52 514.88,290.82 514.88,273.42 		"/>
		<polygon class="st0" points="499.81,299.52 484.74,290.82 484.74,273.42 499.81,282.12 		"/>
		<polygon class="st2" points="514.88,290.82 499.81,299.52 499.81,282.12 514.88,273.42 		"/>
		<polygon class="st0" points="499.81,282.12 484.74,273.42 499.81,264.72 514.88,273.42 		"/>
		<polygon class="st3" points="499.81,282.12 484.74,273.42 484.74,274.18 499.81,282.88 514.88,274.18 514.88,273.42 		"/>
	</g>
	<path class="st0" d="M500.21,275.66l-0.08-0.05l-22.06-12.73l0.24-0.14l21.9-12.64l0.08,0.05l22.06,12.73l-0.24,0.14L500.21,275.66
		z M478.71,262.88l21.5,12.42l21.5-12.42l-21.5-12.41L478.71,262.88z"/>
	<polygon class="st18" points="499.81,271.58 484.74,262.88 499.81,254.18 514.88,262.88 	"/>
	<polygon class="st0" points="499.81,241 484.74,232.3 484.74,249.7 499.81,258.4 514.88,249.7 514.88,232.3 	"/>
	<polygon class="st0" points="499.81,258.4 484.74,249.7 484.74,232.3 499.81,241 	"/>
	<polygon class="st2" points="514.88,249.7 499.81,258.4 499.81,241 514.88,232.3 	"/>
	<polygon class="st0" points="499.81,241 484.74,232.3 499.81,223.6 514.88,232.3 	"/>
	<polygon class="st3" points="499.81,241 484.74,232.3 484.74,233.05 499.81,241.75 514.88,233.06 514.88,232.3 	"/>
</g>
<g>
	<path class="st0" d="M256.59,332.35l-0.08-0.05l-22.06-12.74l0.24-0.14l21.9-12.64l0.08,0.05l22.06,12.74l-0.24,0.14L256.59,332.35
		z M235.09,319.57l21.5,12.42l21.5-12.42l-21.5-12.42L235.09,319.57z"/>
	<g class="st1">
		<polygon class="st0" points="256.59,339.09 241.52,330.39 241.52,347.79 256.59,356.49 271.66,347.79 271.66,330.39 		"/>
		<polygon class="st0" points="256.59,356.49 241.52,347.79 241.52,330.39 256.59,339.09 		"/>
		<polygon class="st2" points="271.66,347.79 256.59,356.49 256.59,339.09 271.66,330.39 		"/>
		<polygon class="st0" points="256.59,339.09 241.52,330.39 256.59,321.69 271.66,330.39 		"/>
		<polygon class="st3" points="256.59,339.09 241.52,330.39 241.52,331.14 256.59,339.84 271.66,331.14 271.66,330.39 		"/>
	</g>
	<polygon class="st18" points="256.59,328.54 241.52,319.84 256.59,311.14 271.66,319.84 	"/>
	<polygon class="st0" points="256.59,297.97 241.52,289.27 241.52,306.66 256.59,315.36 271.66,306.66 271.66,289.27 	"/>
	<polygon class="st0" points="256.59,315.36 241.52,306.66 241.52,289.27 256.59,297.97 	"/>
	<polygon class="st2" points="271.66,306.66 256.59,315.36 256.59,297.97 271.66,289.27 	"/>
	<polygon class="st0" points="256.59,297.97 241.52,289.27 256.59,280.57 271.66,289.27 	"/>
	<polygon class="st3" points="256.59,297.97 241.52,289.27 241.52,290.02 256.59,298.72 271.66,290.02 271.66,289.27 	"/>
</g>
<g>
	<g class="st1">
		<polygon class="st0" points="380.78,422.01 365.71,413.31 365.71,430.71 380.78,439.41 395.85,430.71 395.85,413.31 		"/>
		<polygon class="st0" points="380.78,439.41 365.71,430.71 365.71,413.31 380.78,422.01 		"/>
		<polygon class="st2" points="395.85,430.71 380.78,439.41 380.78,422.01 395.85,413.31 		"/>
		<polygon class="st0" points="380.78,422.01 365.71,413.31 380.78,404.61 395.85,413.31 		"/>
		<polygon class="st3" points="380.78,422.01 365.71,413.31 365.71,414.06 380.78,422.76 395.85,414.06 395.85,413.31 		"/>
	</g>
	<polygon class="st18" points="380.78,411.46 365.71,402.76 380.78,394.06 395.85,402.76 	"/>
	<polygon class="st0" points="380.78,380.89 365.71,372.19 365.71,389.58 380.78,398.28 395.85,389.58 395.85,372.19 	"/>
	<polygon class="st0" points="380.78,398.28 365.71,389.58 365.71,372.19 380.78,380.89 	"/>
	<polygon class="st2" points="395.85,389.58 380.78,398.28 380.78,380.89 395.85,372.19 	"/>
	<polygon class="st0" points="380.78,380.89 365.71,372.19 380.78,363.49 395.85,372.19 	"/>
	<polygon class="st3" points="380.78,380.89 365.71,372.19 365.71,372.94 380.78,381.64 395.85,372.94 395.85,372.19 	"/>
</g>
<g>
	<g class="st1">
		<polygon class="st0" points="504.68,381.27 517.71,392.79 521.17,375.74 508.14,364.22 491.64,369.74 488.18,386.79 		"/>
		<polygon class="st0" points="508.14,364.22 521.17,375.74 517.71,392.79 504.68,381.27 		"/>
		<polygon class="st2" points="491.64,369.74 508.14,364.22 504.68,381.27 488.18,386.79 		"/>
		<polygon class="st0" points="504.68,381.27 517.71,392.79 501.22,398.32 488.18,386.79 		"/>
		<polygon class="st3" points="504.68,381.27 517.71,392.79 517.86,392.05 504.83,380.53 488.33,386.06 488.18,386.79 		"/>
	</g>
	<g>
		<polygon class="st18" points="507.35,374.64 492.28,365.94 507.35,357.24 522.41,365.94 		"/>
	</g>
	<g>
		<path class="st19" d="M507.35,389.75c-9.93,0-19.86-2.18-27.42-6.55c-7.35-4.25-11.41-9.9-11.41-15.92
			c0-6.02,4.05-11.68,11.41-15.92c15.12-8.73,39.72-8.73,54.85,0c7.35,4.25,11.41,9.9,11.41,15.92c0,6.02-4.05,11.68-11.4,15.92
			C527.21,387.56,517.28,389.75,507.35,389.75z M507.34,345.12c-9.87,0-19.75,2.17-27.26,6.51c-7.25,4.19-11.25,9.75-11.25,15.65
			c0,5.9,3.99,11.46,11.25,15.65c15.03,8.68,39.5,8.68,54.53,0c7.25-4.19,11.25-9.75,11.25-15.65c0-5.91-3.99-11.46-11.25-15.65
			C527.09,347.29,517.22,345.12,507.34,345.12z"/>
		<path class="st20" d="M507.35,395.77c-12.6,0-25.2-2.77-34.8-8.31c-9.32-5.38-14.46-12.55-14.46-20.18
			c0-7.63,5.14-14.8,14.46-20.18c19.19-11.08,50.41-11.08,69.59,0c9.33,5.38,14.46,12.55,14.46,20.18c0,7.63-5.13,14.8-14.46,20.18
			l-0.08-0.14l0.08,0.14C532.55,393,519.95,395.77,507.35,395.77z M507.34,339.1c-12.54,0-25.09,2.76-34.64,8.27
			c-9.22,5.33-14.3,12.39-14.3,19.91c0,7.51,5.08,14.58,14.3,19.91c19.1,11.03,50.18,11.03,69.28,0l0,0
			c9.22-5.33,14.3-12.39,14.3-19.91s-5.08-14.58-14.3-19.91C532.43,341.85,519.89,339.1,507.34,339.1z"/>
		<path class="st0" d="M507.35,385.01c-7.83,0-15.65-1.72-21.61-5.16c-5.8-3.35-9-7.81-9-12.57c0-4.76,3.2-9.22,9-12.57
			c11.92-6.88,31.31-6.88,43.23,0c5.8,3.35,9,7.82,9,12.57c0,4.75-3.2,9.22-9,12.57C523,383.29,515.17,385.01,507.35,385.01z
			 M507.35,349.86c-7.77,0-15.54,1.71-21.45,5.12c-5.7,3.29-8.84,7.66-8.84,12.3c0,4.64,3.14,9,8.84,12.3
			c11.83,6.83,31.08,6.83,42.91,0l0.08,0.14l-0.08-0.14c5.7-3.29,8.84-7.66,8.84-12.29c0-4.64-3.14-9.01-8.84-12.3
			C522.89,351.56,515.12,349.86,507.35,349.86z"/>
	</g>
	<g>
		<polygon class="st0" points="505.61,350.63 503.88,333.32 489.75,343.47 491.48,360.79 507.34,367.95 521.47,357.8 		"/>
		<polygon class="st0" points="491.48,360.79 489.75,343.47 503.88,333.32 505.61,350.63 		"/>
		<polygon class="st2" points="507.34,367.95 491.48,360.79 505.61,350.63 521.47,357.8 		"/>
		<polygon class="st0" points="505.61,350.63 503.88,333.32 519.74,340.48 521.47,357.8 		"/>
		<polygon class="st3" points="505.61,350.63 503.88,333.32 503.27,333.76 505,351.08 520.85,358.24 521.47,357.8 		"/>
	</g>
	<polygon class="st18" points="498.44,363.93 512.93,363.93 507.34,367.95 	"/>
</g>
<g>
	<g>
		<polygon class="st0" points="382.25,253.56 367.19,244.86 367.19,262.26 382.25,270.96 397.32,262.26 397.32,244.86 		"/>
		<polygon class="st0" points="382.25,270.96 367.19,262.26 367.19,244.86 382.25,253.56 		"/>
		<polygon class="st2" points="397.32,262.26 382.25,270.96 382.25,253.56 397.32,244.86 		"/>
		<polygon class="st0" points="382.25,253.56 367.19,244.86 382.25,236.16 397.32,244.86 		"/>
		<polygon class="st3" points="382.25,253.56 367.84,245.24 367.19,245.62 382.25,254.32 397.32,245.62 396.67,245.24 		"/>
	</g>
	<g>
		<polygon class="st0" points="401.83,264.73 386.76,256.03 386.76,273.43 401.83,282.13 416.89,273.43 416.89,256.03 		"/>
		<polygon class="st0" points="401.83,282.13 386.76,273.43 386.76,256.03 401.83,264.73 		"/>
		<polygon class="st2" points="416.89,273.43 401.83,282.13 401.83,264.73 416.89,256.03 		"/>
		<polygon class="st0" points="401.83,264.73 386.76,256.03 401.83,247.33 416.89,256.03 		"/>
		<polygon class="st3" points="401.83,264.73 387.41,256.41 386.76,256.78 401.83,265.48 416.89,256.78 416.24,256.41 		"/>
	</g>
	<g>
		<polygon class="st0" points="421.4,275.9 406.33,267.2 406.33,284.59 421.4,293.29 436.47,284.59 436.47,267.2 		"/>
		<polygon class="st0" points="421.4,293.29 406.33,284.59 406.33,267.2 421.4,275.9 		"/>
		<polygon class="st2" points="436.47,284.59 421.4,293.29 421.4,275.9 436.47,267.2 		"/>
		<polygon class="st0" points="421.4,275.9 406.33,267.2 421.4,258.5 436.46,267.2 		"/>
		<polygon class="st3" points="421.4,275.9 406.98,267.57 406.33,267.95 421.4,276.65 436.46,267.95 436.47,267.2 		"/>
	</g>
	<g>
		<polygon class="st0" points="362.68,265.48 347.61,256.78 347.61,274.18 362.68,282.88 377.75,274.18 377.75,256.78 		"/>
		<polygon class="st0" points="362.68,282.88 347.61,274.18 347.61,256.78 362.68,265.48 		"/>
		<polygon class="st2" points="377.75,274.18 362.68,282.88 362.68,265.48 377.75,256.78 		"/>
		<polygon class="st0" points="362.68,265.48 347.61,256.78 362.68,248.08 377.75,256.78 		"/>
		<polygon class="st3" points="362.68,265.48 348.27,257.16 347.61,257.54 362.68,266.24 377.75,257.54 377.1,257.16 		"/>
	</g>
	<g>
		<polygon class="st0" points="382.25,276.65 367.19,267.95 367.19,285.35 382.25,294.05 397.32,285.35 397.32,267.95 		"/>
		<polygon class="st0" points="382.25,294.05 367.19,285.35 367.19,267.95 382.25,276.65 		"/>
		<polygon class="st2" points="397.32,285.35 382.25,294.05 382.25,276.65 397.32,267.95 		"/>
		<polygon class="st0" points="382.25,276.65 367.19,267.95 382.25,259.25 397.32,267.95 		"/>
		<polygon class="st3" points="382.25,276.65 367.84,268.33 367.19,268.71 382.25,277.4 397.32,268.71 396.67,268.33 		"/>
	</g>
	<g>
		<polygon class="st0" points="401.83,287.82 386.76,279.12 386.76,296.52 401.83,305.22 416.89,296.52 416.89,279.12 		"/>
		<polygon class="st0" points="401.83,305.22 386.76,296.52 386.76,279.12 401.83,287.82 		"/>
		<polygon class="st2" points="416.89,296.52 401.83,305.22 401.83,287.82 416.89,279.12 		"/>
		<polygon class="st0" points="401.83,287.82 386.76,279.12 401.83,270.42 416.89,279.12 		"/>
		<polygon class="st3" points="401.83,287.82 387.41,279.5 386.76,279.87 401.83,288.57 416.89,279.87 416.89,279.12 		"/>
	</g>
	<g>
		<polygon class="st0" points="343.11,277.4 328.04,268.71 328.04,286.1 343.11,294.8 358.18,286.1 358.18,268.71 		"/>
		<polygon class="st0" points="343.11,294.8 328.04,286.1 328.04,268.71 343.11,277.4 		"/>
		<polygon class="st2" points="358.18,286.1 343.11,294.8 343.11,277.4 358.18,268.71 		"/>
		<polygon class="st0" points="343.11,277.4 328.04,268.71 343.11,260.01 358.18,268.71 		"/>
		<polygon class="st3" points="343.11,277.4 328.04,268.71 328.04,269.46 343.11,278.16 358.18,269.46 357.52,269.08 		"/>
	</g>
	<g>
		<polygon class="st0" points="362.68,288.57 347.61,279.87 347.61,297.27 362.68,305.97 377.75,297.27 377.75,279.87 		"/>
		<polygon class="st0" points="362.68,305.97 347.61,297.27 347.61,279.87 362.68,288.57 		"/>
		<polygon class="st2" points="377.75,297.27 362.68,305.97 362.68,288.57 377.75,279.87 		"/>
		<polygon class="st0" points="362.68,288.57 347.61,279.87 362.68,271.17 377.75,279.87 		"/>
		<polygon class="st3" points="362.68,288.57 347.61,279.87 347.61,280.63 362.68,289.33 377.75,280.63 377.1,280.25 		"/>
	</g>
	<g>
		<polygon class="st0" points="382.25,299.74 367.19,291.04 367.19,308.44 382.25,317.14 397.32,308.44 397.32,291.04 		"/>
		<polygon class="st0" points="382.25,317.14 367.19,308.44 367.19,291.04 382.25,299.74 		"/>
		<polygon class="st2" points="397.32,308.44 382.25,317.14 382.25,299.74 397.32,291.04 		"/>
		<polygon class="st0" points="382.25,299.74 367.19,291.04 382.25,282.34 397.32,291.04 		"/>
		<polygon class="st3" points="382.25,299.74 367.19,291.04 367.19,291.79 382.25,300.49 397.32,291.79 397.32,291.04 		"/>
	</g>
	<g>
		<polygon class="st0" points="382.25,230.47 367.19,221.77 367.19,239.17 382.25,247.87 397.32,239.17 397.32,221.77 		"/>
		<polygon class="st0" points="382.25,247.87 367.19,239.17 367.19,221.77 382.25,230.47 		"/>
		<polygon class="st2" points="397.32,239.17 382.25,247.87 382.25,230.47 397.32,221.77 		"/>
		<polygon class="st0" points="382.25,230.47 367.19,221.77 382.25,213.07 397.32,221.77 		"/>
		<polygon class="st3" points="382.25,230.47 367.84,222.15 367.19,222.53 382.25,231.23 397.32,222.53 396.67,222.15 		"/>
	</g>
	<g>
		<polygon class="st4" points="382.25,296.91 371.98,290.97 382.25,285.04 392.53,290.97 		"/>
		<polygon class="st4" points="362.68,285.74 352.4,279.8 362.68,273.87 372.96,279.8 		"/>
		<polygon class="st4" points="401.83,284.98 391.55,279.05 401.83,273.12 412.1,279.05 		"/>
		<polygon class="st4" points="421.43,273.2 411.16,267.26 421.43,261.33 431.71,267.26 		"/>
		<polygon class="st4" points="343.11,274.57 332.83,268.64 343.11,262.7 353.39,268.64 		"/>
	</g>
	<g>
		<polygon class="st0" points="401.83,241.64 386.76,232.94 386.76,250.34 401.83,259.04 416.89,250.34 416.89,232.94 		"/>
		<polygon class="st0" points="401.83,259.04 386.76,250.34 386.76,232.94 401.83,241.64 		"/>
		<polygon class="st2" points="416.89,250.34 401.83,259.04 401.83,241.64 416.89,232.94 		"/>
		<polygon class="st0" points="401.83,241.64 386.76,232.94 401.83,224.24 416.89,232.94 		"/>
		<polygon class="st3" points="401.83,241.64 387.41,233.32 386.76,233.69 401.83,242.39 416.89,233.69 416.24,233.32 		"/>
	</g>
	<g>
		<polygon class="st0" points="421.4,252.81 406.33,244.11 406.33,261.51 421.4,270.2 436.47,261.51 436.47,244.11 		"/>
		<polygon class="st0" points="421.4,270.2 406.33,261.51 406.33,244.11 421.4,252.81 		"/>
		<polygon class="st2" points="436.47,261.51 421.4,270.2 421.4,252.81 436.47,244.11 		"/>
		<polygon class="st0" points="421.4,252.81 406.33,244.11 421.4,235.41 436.46,244.11 		"/>
		<polygon class="st3" points="421.4,252.81 406.98,244.48 406.33,244.86 421.4,253.56 436.46,244.86 436.47,244.11 		"/>
	</g>
	<g>
		<polygon class="st0" points="362.68,242.39 347.61,233.69 347.61,251.09 362.68,259.79 377.75,251.09 377.75,233.69 		"/>
		<polygon class="st0" points="362.68,259.79 347.61,251.09 347.61,233.69 362.68,242.39 		"/>
		<polygon class="st2" points="377.75,251.09 362.68,259.79 362.68,242.39 377.75,233.69 		"/>
		<polygon class="st0" points="362.68,242.39 347.61,233.69 362.68,225 377.75,233.69 		"/>
		<polygon class="st3" points="362.68,242.39 348.27,234.07 347.61,234.45 362.68,243.15 377.75,234.45 377.1,234.07 		"/>
	</g>
	<g>
		<polygon class="st0" points="382.25,253.56 367.19,244.86 367.19,262.26 382.25,270.96 397.32,262.26 397.32,244.86 		"/>
		<polygon class="st0" points="382.25,270.96 367.19,262.26 367.19,244.86 382.25,253.56 		"/>
		<polygon class="st2" points="397.32,262.26 382.25,270.96 382.25,253.56 397.32,244.86 		"/>
		<polygon class="st0" points="382.25,253.56 367.19,244.86 382.25,236.16 397.32,244.86 		"/>
		<polygon class="st3" points="382.25,253.56 367.84,245.24 367.19,245.62 382.25,254.32 397.32,245.62 396.67,245.24 		"/>
	</g>
	<g>
		<polygon class="st0" points="401.83,264.73 386.76,256.03 386.76,273.43 401.83,282.13 416.89,273.43 416.89,256.03 		"/>
		<polygon class="st0" points="401.83,282.13 386.76,273.43 386.76,256.03 401.83,264.73 		"/>
		<polygon class="st2" points="416.89,273.43 401.83,282.13 401.83,264.73 416.89,256.03 		"/>
		<polygon class="st0" points="401.83,264.73 386.76,256.03 401.83,247.33 416.89,256.03 		"/>
		<polygon class="st3" points="401.83,264.73 387.41,256.41 386.76,256.78 401.83,265.48 416.89,256.78 416.89,256.03 		"/>
	</g>
	<g>
		<polygon class="st0" points="343.11,254.32 328.04,245.62 328.04,263.01 343.11,271.71 358.18,263.01 358.18,245.62 		"/>
		<polygon class="st0" points="343.11,271.71 328.04,263.01 328.04,245.62 343.11,254.32 		"/>
		<polygon class="st2" points="358.18,263.01 343.11,271.71 343.11,254.32 358.18,245.62 		"/>
		<polygon class="st0" points="343.11,254.32 328.04,245.62 343.11,236.92 358.18,245.62 		"/>
		<polygon class="st3" points="343.11,254.32 328.7,245.99 328.04,246.37 343.11,255.07 358.18,246.37 357.52,245.99 		"/>
	</g>
	<g>
		<polygon class="st0" points="362.68,265.48 347.61,256.78 347.61,274.18 362.68,282.88 377.75,274.18 377.75,256.78 		"/>
		<polygon class="st0" points="362.68,282.88 347.61,274.18 347.61,256.78 362.68,265.48 		"/>
		<polygon class="st2" points="377.75,274.18 362.68,282.88 362.68,265.48 377.75,256.78 		"/>
		<polygon class="st0" points="362.68,265.48 347.61,256.78 362.68,248.08 377.75,256.78 		"/>
		<polygon class="st3" points="362.68,265.48 347.61,256.78 347.61,257.54 362.68,266.24 377.75,257.54 377.1,257.16 		"/>
	</g>
	<g>
		<polygon class="st0" points="382.25,276.65 367.19,267.95 367.19,285.35 382.25,294.05 397.32,285.35 397.32,267.95 		"/>
		<polygon class="st0" points="382.25,294.05 367.19,285.35 367.19,267.95 382.25,276.65 		"/>
		<polygon class="st2" points="397.32,285.35 382.25,294.05 382.25,276.65 397.32,267.95 		"/>
		<polygon class="st0" points="382.25,276.65 367.19,267.95 382.25,259.25 397.32,267.95 		"/>
		<polygon class="st3" points="382.25,276.65 367.19,267.95 367.19,268.71 382.25,277.4 397.32,268.71 397.32,267.95 		"/>
	</g>
	<g>
		<polygon class="st4" points="421.43,250.21 411.16,244.28 421.43,238.34 431.71,244.28 		"/>
		<polygon class="st4" points="343.11,251.58 332.83,245.65 343.11,239.72 353.39,245.65 		"/>
	</g>
	<g>
		<polygon class="st0" points="382.25,207.38 367.19,198.68 367.19,216.08 382.25,224.78 397.32,216.08 397.32,198.68 		"/>
		<polygon class="st0" points="382.25,224.78 367.19,216.08 367.19,198.68 382.25,207.38 		"/>
		<polygon class="st2" points="397.32,216.08 382.25,224.78 382.25,207.38 397.32,198.68 		"/>
		<polygon class="st0" points="382.25,207.38 367.19,198.68 382.25,189.98 397.32,198.68 		"/>
		<polygon class="st3" points="382.25,207.38 367.19,198.68 367.19,199.44 382.25,208.14 397.32,199.44 397.32,198.68 		"/>
	</g>
	<g>
		<polygon class="st0" points="401.83,218.55 386.76,209.85 386.76,227.25 401.83,235.95 416.89,227.25 416.89,209.85 		"/>
		<polygon class="st0" points="401.83,235.95 386.76,227.25 386.76,209.85 401.83,218.55 		"/>
		<polygon class="st2" points="416.89,227.25 401.83,235.95 401.83,218.55 416.89,209.85 		"/>
		<polygon class="st0" points="401.83,218.55 386.76,209.85 401.83,201.15 416.89,209.85 		"/>
		<polygon class="st3" points="401.83,218.55 386.76,209.85 386.76,210.61 401.83,219.3 416.89,210.61 416.89,209.85 		"/>
	</g>
	<g>
		<polygon class="st0" points="421.4,229.72 406.33,221.02 406.33,238.42 421.4,247.12 436.47,238.42 436.47,221.02 		"/>
		<polygon class="st0" points="421.4,247.12 406.33,238.42 406.33,221.02 421.4,229.72 		"/>
		<polygon class="st2" points="436.47,238.42 421.4,247.12 421.4,229.72 436.47,221.02 		"/>
		<polygon class="st0" points="421.4,229.72 406.33,221.02 421.4,212.32 436.46,221.02 		"/>
		<polygon class="st3" points="421.4,229.72 406.33,221.02 406.33,221.77 421.4,230.47 436.46,221.77 436.47,221.02 		"/>
	</g>
	<g>
		<polygon class="st0" points="362.68,219.3 347.61,210.61 347.61,228 362.68,236.7 377.75,228 377.75,210.61 		"/>
		<polygon class="st0" points="362.68,236.7 347.61,228 347.61,210.61 362.68,219.3 		"/>
		<polygon class="st2" points="377.75,228 362.68,236.7 362.68,219.3 377.75,210.61 		"/>
		<polygon class="st0" points="362.68,219.3 347.61,210.61 362.68,201.91 377.75,210.61 		"/>
		<polygon class="st3" points="362.68,219.3 347.61,210.61 347.61,211.36 362.68,220.06 377.75,211.36 377.75,210.61 		"/>
	</g>
	<g>
		<polygon class="st0" points="343.11,231.23 328.04,222.53 328.04,239.93 343.11,248.62 358.18,239.93 358.18,222.53 		"/>
		<polygon class="st0" points="343.11,248.62 328.04,239.93 328.04,222.53 343.11,231.23 		"/>
		<polygon class="st2" points="358.18,239.93 343.11,248.62 343.11,231.23 358.18,222.53 		"/>
		<polygon class="st0" points="343.11,231.23 328.04,222.53 343.11,213.83 358.18,222.53 		"/>
		<polygon class="st3" points="343.11,231.23 328.04,222.53 328.04,223.28 343.11,231.98 358.18,223.28 358.18,222.53 		"/>
	</g>
</g>
<g>
	<path class="st19" d="M292.6,341.47c0,1.12,0.91,2.03,2.03,2.03c1.12,0,2.03-0.91,2.03-2.03c0-1.12-0.91-2.03-2.03-2.03
		C293.51,339.44,292.6,340.35,292.6,341.47z"/>
	<circle class="st0" cx="294.63" cy="341.47" r="0.88"/>
</g>
<g>
	<path class="st19" d="M472.47,248.75c0,1.12,0.91,2.03,2.03,2.03c1.12,0,2.03-0.91,2.03-2.03c0-1.12-0.91-2.03-2.03-2.03
		C473.38,246.72,472.47,247.63,472.47,248.75z"/>
	<path class="st0" d="M473.62,248.75c0,0.49,0.4,0.88,0.88,0.88c0.49,0,0.88-0.4,0.88-0.88c0-0.49-0.4-0.88-0.88-0.88
		C474.02,247.87,473.62,248.27,473.62,248.75z"/>
</g>
<g>
	<circle class="st19" cx="494.99" cy="383.3" r="3.17"/>
	<path class="st0" d="M493.61,383.3c0,0.76,0.62,1.38,1.38,1.38c0.76,0,1.38-0.62,1.38-1.38c0-0.76-0.62-1.38-1.38-1.38
		C494.22,381.92,493.61,382.54,493.61,383.3z"/>
</g>
<g>
	<path class="st19" d="M482.27,355.61c0,1.19,0.96,2.15,2.15,2.15c1.19,0,2.15-0.96,2.15-2.15c0-1.19-0.96-2.15-2.15-2.15
		C483.24,353.46,482.27,354.42,482.27,355.61z"/>
	<path class="st0" d="M483.49,355.61c0,0.52,0.42,0.93,0.93,0.93c0.52,0,0.93-0.42,0.93-0.93c0-0.52-0.42-0.93-0.93-0.93
		C483.91,354.68,483.49,355.1,483.49,355.61z"/>
</g>
<g>
	<path class="st19" d="M450.81,237.03c0,1.12,0.91,2.03,2.03,2.03c1.12,0,2.03-0.91,2.03-2.03c0-1.12-0.91-2.03-2.03-2.03
		C451.72,234.99,450.81,235.9,450.81,237.03z"/>
	<path class="st0" d="M451.96,237.03c0,0.49,0.4,0.88,0.88,0.88c0.49,0,0.88-0.39,0.88-0.88c0-0.49-0.4-0.88-0.88-0.88
		C452.36,236.15,451.96,236.54,451.96,237.03z"/>
</g>
<g>
	<path class="st19" d="M269.62,328.54c0,1.12,0.91,2.03,2.03,2.03c1.12,0,2.03-0.91,2.03-2.03c0-1.12-0.91-2.03-2.03-2.03
		C270.53,326.51,269.62,327.42,269.62,328.54z"/>
	<path class="st0" d="M270.77,328.54c0,0.49,0.39,0.88,0.88,0.88c0.49,0,0.88-0.4,0.88-0.88c0-0.49-0.39-0.88-0.88-0.88
		C271.17,327.66,270.77,328.05,270.77,328.54z"/>
</g>
</svg>
