<svg width="237" height="181" viewBox="0 0 237 181" fill="none" xmlns="http://www.w3.org/2000/svg">
<g clip-path="url(#clip0_79_683)">
<path d="M113.953 67.2772C115.247 65.8485 117.383 66.266 118.805 67.2744C120.635 68.5722 121.158 70.9422 121.428 73.043C121.885 76.5994 122.02 81.6268 126.043 83.1136C127.902 83.8006 130.029 83.2333 131.599 82.1178C133.314 80.8995 134.383 79.0253 135.1 77.083C135.967 74.7313 136.469 72.2158 136.895 69.7513C137.33 67.231 137.615 64.6836 137.744 62.1291C137.869 59.6299 137.787 57.1471 137.688 54.6495C137.611 52.6995 137.581 50.6518 138.238 48.7871C138.902 46.9038 140.445 45.4714 142.474 45.2825C144.443 45.0991 146.471 45.9315 147.896 47.2751C151.314 50.4988 151.475 55.7616 152.239 60.0839C152.641 62.3549 153.228 64.6529 154.458 66.6287C155.469 68.2537 156.875 69.616 158.495 70.6267C161.761 72.6653 165.924 73.2602 169.548 71.8597C173.087 70.4923 175.936 67.5032 177.168 63.9104C177.473 63.0231 177.661 62.1065 177.756 61.174C177.8 60.7404 177.124 60.7435 177.08 61.174C176.675 65.1373 174.137 68.7266 170.659 70.6064C167.081 72.5406 162.748 72.2952 159.252 70.29C157.533 69.3042 156.038 67.9137 154.999 66.2181C153.739 64.1617 153.2 61.7647 152.807 59.4113C152.098 55.1608 151.777 50.2805 148.599 47.0169C146.134 44.4859 141.599 43.4701 138.951 46.2894C136.224 49.1924 137.041 53.8687 137.128 57.4723C137.256 62.75 136.713 68.04 135.51 73.1797C134.986 75.4169 134.384 77.724 133.069 79.6423C131.868 81.3955 129.904 82.7544 127.718 82.7327C125.538 82.7112 124.006 81.1048 123.232 79.1897C122.416 77.1692 122.362 74.9871 122.079 72.8542C121.82 70.8964 121.347 68.7297 119.883 67.2969C118.744 66.1826 117.054 65.4654 115.451 65.7217C114.681 65.8448 113.998 66.22 113.475 66.7979C113.183 67.1203 113.66 67.6011 113.953 67.2772H113.953Z" fill="#F2B950"/>
<path d="M211.68 139.753C211.299 139.109 209.653 139.798 209.35 139.214C209.048 138.632 210.578 137.746 211.452 135.721C211.61 135.356 212.603 133.054 211.868 132.344C210.474 130.998 204.096 136.553 201.864 134.735C201.374 134.336 201.032 133.54 199.549 132.247C198.959 131.732 198.603 131.5 198.258 131.587C197.768 131.709 197.729 132.366 197.204 133.658C196.416 135.596 195.95 135.479 195.492 137.025C195.151 138.172 195.229 138.84 194.828 138.97C194.261 139.153 193.739 137.936 193.02 138.045C192.286 138.156 191.843 139.574 191.702 140.635C191.44 142.626 192.169 143.94 192.573 145.322C193.013 146.823 193.274 149.107 192.259 152.339L182.216 180.706C184.433 174.885 190.853 158.929 193.55 153C194.329 151.288 195.189 149.552 196.955 148.867C198.654 148.207 200.989 148.601 203.965 147.882C204.313 147.798 205.277 147.552 205.399 146.983C205.499 146.513 204.932 146.251 205.019 145.81C205.136 145.219 206.251 145.212 207.622 144.531C208.589 144.05 209.192 143.479 209.709 142.987C209.866 142.839 212.187 140.609 211.68 139.753H211.68H211.68Z" fill="#F2F2F2"/>
<path d="M172.168 154.686C171.743 154.688 171.605 155.697 171.232 155.677C170.86 155.658 170.867 154.649 170.128 153.635C169.995 153.452 169.154 152.299 168.595 152.456C167.533 152.753 168.413 157.494 166.879 158.068C166.542 158.194 166.053 158.133 164.993 158.489C164.571 158.631 164.354 158.739 164.297 158.934C164.215 159.21 164.526 159.419 165.007 160.05C165.728 160.997 165.537 161.192 166.161 161.864C166.625 162.363 166.974 162.517 166.922 162.752C166.848 163.084 166.101 162.99 165.947 163.375C165.79 163.768 166.356 164.395 166.835 164.77C167.734 165.474 168.588 165.494 169.381 165.694C170.243 165.911 171.436 166.442 172.726 167.874L183.717 181C181.506 178.229 175.547 170.467 173.422 167.429C172.809 166.551 172.207 165.627 172.381 164.561C172.548 163.534 173.415 162.499 173.921 160.828C173.981 160.632 174.139 160.087 173.895 159.863C173.694 159.678 173.402 159.881 173.211 159.711C172.956 159.483 173.274 158.932 173.336 158.061C173.38 157.447 173.274 156.986 173.183 156.589C173.155 156.469 172.733 154.684 172.168 154.686V154.686V154.686Z" fill="#F2F2F2"/>
<path d="M180.643 156.593L180.387 154.303L180.504 154.129C181.045 153.326 181.321 152.542 181.324 151.798C181.325 151.679 181.319 151.561 181.314 151.44C181.292 150.963 181.264 150.369 181.573 149.676C181.746 149.29 182.233 148.397 182.964 148.507C183.161 148.535 183.31 148.626 183.423 148.732C183.44 148.705 183.457 148.679 183.475 148.65C183.703 148.302 183.883 148.152 184.057 148.009C184.19 147.898 184.328 147.784 184.545 147.514C184.639 147.396 184.713 147.292 184.776 147.204C184.965 146.94 185.212 146.625 185.648 146.63C186.113 146.653 186.357 147.039 186.519 147.294C186.807 147.75 186.938 148.078 187.025 148.296C187.056 148.376 187.092 148.465 187.11 148.493C187.26 148.714 188.48 148.507 188.939 148.432C189.971 148.26 190.865 148.11 191.233 148.763C191.496 149.23 191.3 149.847 190.633 150.646C190.425 150.895 190.204 151.084 190.007 151.233C190.17 151.33 190.316 151.479 190.375 151.714C190.514 152.269 190.038 152.825 188.96 153.369C188.693 153.505 188.333 153.687 187.828 153.774C187.59 153.815 187.376 153.825 187.193 153.831C187.189 153.937 187.164 154.052 187.1 154.17C186.91 154.518 186.517 154.684 185.923 154.645C185.27 154.61 184.732 154.485 184.258 154.376C183.843 154.281 183.487 154.2 183.206 154.219C182.687 154.261 182.286 154.678 181.816 155.219L180.643 156.593H180.643V156.593Z" fill="#F2F2F2"/>
<path d="M181.83 142.955L179.685 143.785L179.488 143.715C178.576 143.394 177.749 143.326 177.03 143.511C176.916 143.541 176.803 143.576 176.688 143.612C176.233 143.755 175.667 143.932 174.92 143.808C174.504 143.738 173.518 143.493 173.439 142.755C173.416 142.557 173.466 142.39 173.539 142.253C173.51 142.244 173.48 142.234 173.447 142.224C173.053 142.091 172.864 141.954 172.681 141.822C172.54 141.721 172.395 141.616 172.08 141.475C171.942 141.413 171.823 141.368 171.723 141.329C171.42 141.213 171.053 141.053 170.948 140.629C170.851 140.172 171.161 139.838 171.367 139.616C171.733 139.221 172.017 139.011 172.205 138.871C172.274 138.821 172.352 138.763 172.374 138.739C172.549 138.537 172.04 137.407 171.851 136.98C171.423 136.023 171.052 135.195 171.589 134.673C171.972 134.299 172.617 134.332 173.558 134.776C173.851 134.915 174.089 135.082 174.282 135.234C174.335 135.052 174.442 134.873 174.653 134.756C175.154 134.48 175.811 134.801 176.61 135.708C176.809 135.933 177.075 136.236 177.288 136.703C177.387 136.923 177.451 137.128 177.503 137.305C177.606 137.281 177.724 137.276 177.854 137.309C178.238 137.404 178.498 137.744 178.611 138.329C178.743 138.971 178.759 139.525 178.774 140.013C178.787 140.438 178.8 140.805 178.889 141.072C179.061 141.565 179.565 141.848 180.206 142.166L181.83 142.955H181.83V142.955Z" fill="#F2F2F2"/>
<path d="M180.643 136.208L180.387 133.917L180.504 133.743C181.045 132.94 181.321 132.156 181.324 131.412C181.325 131.294 181.319 131.175 181.314 131.055C181.292 130.577 181.264 129.983 181.573 129.291C181.746 128.905 182.233 128.011 182.964 128.122C183.161 128.149 183.31 128.24 183.423 128.346C183.44 128.32 183.457 128.293 183.475 128.264C183.703 127.916 183.883 127.767 184.057 127.623C184.19 127.512 184.328 127.398 184.545 127.128C184.639 127.01 184.713 126.906 184.776 126.819C184.965 126.554 185.212 126.239 185.648 126.245C186.113 126.267 186.357 126.653 186.519 126.908C186.807 127.364 186.938 127.692 187.025 127.91C187.056 127.99 187.092 128.08 187.11 128.107C187.26 128.328 188.48 128.122 188.939 128.046C189.971 127.874 190.865 127.725 191.233 128.377C191.496 128.844 191.3 129.461 190.633 130.261C190.425 130.509 190.204 130.699 190.007 130.847C190.17 130.944 190.316 131.093 190.375 131.328C190.514 131.883 190.038 132.439 188.96 132.984C188.693 133.12 188.333 133.301 187.828 133.388C187.59 133.429 187.376 133.439 187.193 133.445C187.189 133.551 187.164 133.666 187.1 133.784C186.91 134.133 186.517 134.299 185.923 134.259C185.27 134.225 184.732 134.1 184.258 133.99C183.843 133.895 183.487 133.814 183.206 133.833C182.687 133.875 182.286 134.292 181.816 134.833L180.643 136.208H180.643V136.208Z" fill="#F2F2F2"/>
<path d="M182.981 180.669L182.502 180.368L182.386 179.814L182.502 180.368L181.944 180.432C181.935 180.38 181.904 180.261 181.859 180.074C181.609 179.05 180.847 175.933 180.211 171.025C179.768 167.598 179.517 164.076 179.465 160.553C179.413 157.025 179.58 154.354 179.713 152.207C179.814 150.588 179.937 149.046 180.057 147.544C180.377 143.532 180.679 139.741 180.454 135.545C180.405 134.608 180.3 132.659 179.164 130.584C178.505 129.38 177.597 128.312 176.465 127.409L177.169 126.522C178.418 127.52 179.423 128.704 180.155 130.04C181.415 132.34 181.528 134.465 181.583 135.486C181.811 139.756 181.506 143.583 181.183 147.634C181.064 149.13 180.941 150.665 180.841 152.278C180.708 154.405 180.544 157.053 180.595 160.535C180.646 164.016 180.894 167.495 181.331 170.879C181.959 175.725 182.71 178.796 182.956 179.804C183.088 180.343 183.115 180.456 182.981 180.669V180.669L182.981 180.669Z" fill="#F2F2F2"/>
<path d="M174.393 129.209C174.347 129.209 174.3 129.208 174.252 129.204C173.29 129.152 172.399 128.575 171.604 127.489C171.231 126.978 171.04 126.395 170.659 125.233C170.6 125.054 170.314 124.144 170.139 122.894C170.025 122.076 170.039 121.734 170.201 121.432C170.38 121.096 170.67 120.862 170.997 120.704C170.983 120.595 170.994 120.484 171.041 120.37C171.234 119.897 171.746 119.959 172.023 119.989C172.163 120.007 172.338 120.03 172.526 120.02C172.823 120.006 172.982 119.917 173.224 119.785C173.455 119.657 173.743 119.499 174.169 119.412C175.01 119.236 175.714 119.475 175.946 119.553C177.168 119.961 177.771 120.914 178.468 122.016C178.607 122.238 179.084 123.043 179.399 124.147C179.626 124.943 179.594 125.297 179.526 125.56C179.387 126.101 179.059 126.411 178.225 127.094C177.355 127.81 176.918 128.168 176.543 128.386C175.669 128.891 175.121 129.209 174.393 129.209V129.209V129.209Z" fill="#F2F2F2"/>
<path d="M150.49 39.4708H135.062C134.673 39.4708 134.357 39.1536 134.357 38.7637C134.357 38.3737 134.673 38.0566 135.062 38.0566H150.49C150.879 38.0566 151.195 38.3737 151.195 38.7637C151.195 39.1536 150.879 39.4708 150.49 39.4708V39.4708Z" fill="#E6E6E6"/>
<path d="M174.384 80.5978H158.956C158.567 80.5978 158.251 80.2805 158.251 79.8906C158.251 79.5007 158.567 79.1836 158.956 79.1836H174.384C174.773 79.1836 175.089 79.5007 175.089 79.8906C175.089 80.2805 174.773 80.5978 174.384 80.5978V80.5978Z" fill="#E6E6E6"/>
<path d="M187.007 108.618H171.579C171.19 108.618 170.874 108.301 170.874 107.911C170.874 107.521 171.19 107.204 171.579 107.204H187.007C187.396 107.204 187.712 107.521 187.712 107.911C187.712 108.301 187.396 108.618 187.007 108.618V108.618Z" fill="#E6E6E6"/>
<path d="M116.678 24.1046H101.251C100.862 24.1046 100.545 23.7874 100.545 23.3974C100.545 23.0075 100.862 22.6904 101.251 22.6904H116.678C117.067 22.6904 117.383 23.0075 117.383 23.3974C117.383 23.7874 117.067 24.1046 116.678 24.1046V24.1046Z" fill="#E6E6E6"/>
<path d="M0 180.143C0 180.441 0.23895 180.681 0.536508 180.681H235.998C236.295 180.681 236.534 180.441 236.534 180.143C236.534 179.845 236.295 179.605 235.998 179.605H0.536508C0.23895 179.605 0 179.845 0 180.143Z" fill="#CCCCCC"/>
<path d="M179.089 100.413H109.166C108.917 100.413 108.715 100.211 108.715 99.9609V33.073C108.715 32.8232 108.917 32.6211 109.166 32.6211C109.415 32.6211 109.617 32.8232 109.617 33.073V60.3652C109.617 81.9837 127.099 99.509 148.664 99.509H179.089C179.338 99.509 179.54 99.7111 179.54 99.9609C179.54 100.211 179.338 100.413 179.089 100.413H179.089Z" fill="#E6E6E6"/>
<path d="M123.891 73.5309H108.464C108.075 73.5309 107.758 73.2136 107.758 72.8237C107.758 72.4338 108.075 72.1167 108.464 72.1167H123.891C124.28 72.1167 124.597 72.4338 124.597 72.8237C124.597 73.2136 124.28 73.5309 123.891 73.5309V73.5309Z" fill="#E6E6E6"/>
<path d="M108.594 75.5434C111.041 74.7334 112.607 72.8112 112.093 71.2503C111.579 69.6894 109.178 69.0811 106.731 69.8918C105.749 70.2021 104.855 70.7438 104.125 71.4714L93.801 75.0347L95.5723 79.8556L105.561 75.831C106.581 75.9793 107.621 75.8807 108.594 75.5434V75.5434Z" fill="#FFB6B6"/>
<path d="M55.5267 103.174C55.6103 105.756 57.0068 107.805 58.6457 107.752C60.2847 107.698 61.5451 105.562 61.4612 102.979C61.4418 101.947 61.1761 100.935 60.6864 100.027L60.1947 89.0923L55.0811 89.433L56.1088 100.176C55.6787 101.115 55.4791 102.142 55.5267 103.174L55.5267 103.174Z" fill="#FFB6B6"/>
<path d="M67.3322 176.851L71.8966 176.851L73.066 159.084L67.3313 159.202L67.3322 176.851Z" fill="#FFB6B6"/>
<path d="M82.9702 176.747C83.1124 176.987 83.1873 177.762 83.1873 178.041C83.1873 178.899 82.4938 179.594 81.6382 179.594H67.5029C66.9193 179.594 66.4461 179.12 66.4461 178.534V177.944C66.4461 177.944 65.7468 176.171 67.1865 173.986C67.1865 173.986 68.9758 175.697 71.6494 173.017L72.4379 171.585L78.1451 175.769L81.3085 176.16C82.0006 176.245 82.6142 176.146 82.9702 176.747H82.9702V176.747Z" fill="#2F2E41"/>
<path d="M78.152 176.851L82.7163 176.851L83.8858 159.084L78.1511 159.202L78.152 176.851Z" fill="#FFB6B6"/>
<path d="M93.79 176.747C93.9321 176.987 94.0071 177.762 94.0071 178.041C94.0071 178.899 93.3136 179.594 92.458 179.594H78.3227C77.739 179.594 77.2659 179.12 77.2659 178.534V177.944C77.2659 177.944 76.5666 176.171 78.0063 173.986C78.0063 173.986 79.7956 175.697 82.4692 173.017L83.2576 171.585L88.9649 175.769L92.1283 176.16C92.8204 176.245 93.434 176.146 93.79 176.747H93.79V176.747Z" fill="#2F2E41"/>
<path d="M69.9882 44.5234C73.6964 44.5234 76.7024 41.5098 76.7024 37.7924C76.7024 34.0751 73.6964 31.0615 69.9882 31.0615C66.2801 31.0615 63.274 34.0751 63.274 37.7924C63.274 41.5098 66.2801 44.5234 69.9882 44.5234Z" fill="#FFB6B6"/>
<path d="M60.6982 93.7786L63.854 138.973L65.6572 169.253L74.2229 168.801L73.3213 135.809L75.1246 115.472L77.8295 168.801H84.6469L87.2968 94.2305L72.645 92.1968L60.6982 93.7786Z" fill="#2F2E41"/>
<path d="M72.4196 43.1607C70.51 45.0035 66.0967 43.7816 63.8539 43.1607C62.6194 42.8189 61.8744 42.4667 61.5998 41.8049C61.409 41.3448 61.5174 40.9086 61.149 39.9971C60.9332 39.4632 60.8194 39.4233 60.6982 39.0932C60.3602 38.1729 60.8297 37.353 61.149 36.3815C61.8154 34.3544 61.0198 34.1268 61.5998 32.766C62.4719 30.7201 64.844 29.8877 65.6572 29.6023C67.1755 29.0696 68.4418 29.1259 68.813 29.1504C71.1913 29.3074 72.7813 30.5308 73.3213 30.9582C74.4157 31.8246 74.9525 32.741 76.0262 34.5737C76.9605 36.1686 77.0286 36.7807 76.9279 37.2854C76.7743 38.0545 76.3319 38.0574 76.0262 39.0932C75.6793 40.269 76.0739 40.8599 75.5754 41.3529C75.2384 41.6862 74.9252 41.5475 74.2229 41.8049C73.2563 42.159 72.7792 42.8137 72.4196 43.1607Z" fill="#2F2E41"/>
<path d="M77.8295 49.9396C77.8295 49.9396 71.0671 41.3527 62.5015 44.5163L59.7273 49.9396L58.8005 50.8192C54.9125 54.5086 53.1036 59.8914 53.972 65.1872L57.9932 89.7108C57.9932 89.7108 57.5424 99.2017 60.6982 101.913C60.6982 101.913 65.2064 93.3264 76.0262 97.3939C86.846 101.461 89.1001 99.2017 89.1001 99.2017L85.4935 73.4408L77.8295 49.9396V49.9396Z" fill="#2F2E41"/>
<path d="M75.5754 51.2956L73.3213 56.267L81.8869 85.1915L105.33 76.6045L102.174 71.1812L90.9034 74.3448C90.9034 74.3448 82.3377 49.0359 75.5754 51.2956Z" fill="#2F2E41"/>
<path d="M59.5711 96.7162H54.6121L53.7104 60.5605L59.5711 72.7631V96.7162Z" fill="#2F2E41"/>
<path d="M113.895 69.1476C115.016 69.1476 115.924 68.237 115.924 67.1138C115.924 65.9906 115.016 65.0801 113.895 65.0801C112.775 65.0801 111.867 65.9906 111.867 67.1138C111.867 68.237 112.775 69.1476 113.895 69.1476Z" fill="#3F3D56"/>
<path d="M127.42 84.9655C128.541 84.9655 129.449 84.0549 129.449 82.9317C129.449 81.8085 128.541 80.8979 127.42 80.8979C126.3 80.8979 125.391 81.8085 125.391 82.9317C125.391 84.0549 126.3 84.9655 127.42 84.9655Z" fill="#3F3D56"/>
<path d="M142.748 47.0021C143.869 47.0021 144.777 46.0915 144.777 44.9683C144.777 43.8451 143.869 42.9346 142.748 42.9346C141.628 42.9346 140.72 43.8451 140.72 44.9683C140.72 46.0915 141.628 47.0021 142.748 47.0021Z" fill="#3F3D56"/>
<path d="M165.289 74.1188C166.41 74.1188 167.318 73.2082 167.318 72.085C167.318 70.9618 166.41 70.0513 165.289 70.0513C164.169 70.0513 163.261 70.9618 163.261 72.085C163.261 73.2082 164.169 74.1188 165.289 74.1188Z" fill="#3F3D56"/>
<path d="M178.363 63.2721C179.484 63.2721 180.392 62.3616 180.392 61.2383C180.392 60.1151 179.484 59.2046 178.363 59.2046C177.243 59.2046 176.335 60.1151 176.335 61.2383C176.335 62.3616 177.243 63.2721 178.363 63.2721Z" fill="#3F3D56"/>
<path d="M174.498 18.0885L178.209 19.8505C176.687 17.7214 175.376 14.3964 174.674 11.7505C173.485 14.2151 171.569 17.2308 169.672 19.0322L173.594 18.0209C171.177 29.8926 162.089 38.4153 151.682 38.4153L151.534 38.8441C162.405 38.8441 172.031 30.4395 174.498 18.0885V18.0885Z" fill="#3F3D56"/>
<path d="M163.282 0H186.725C187.72 0 188.528 0.810984 188.528 1.80778C188.528 2.80458 187.72 3.61556 186.725 3.61556H163.282C162.288 3.61556 161.479 2.80458 161.479 1.80778C161.479 0.810984 162.288 0 163.282 0Z" fill="#F2B950"/>
<path d="M179.12 104.112C178.873 104.112 178.623 104.057 178.386 103.945C177.8 103.669 177.432 103.118 177.402 102.47L177.159 97.2154C177.128 96.5406 177.479 95.9271 178.076 95.6137C178.673 95.3004 179.377 95.3613 179.912 95.7709L183.481 98.5077C183.911 98.8365 184.156 99.3361 184.154 99.8772C184.153 100.419 183.904 100.917 183.473 101.243L180.146 103.761C179.839 103.993 179.482 104.112 179.12 104.112V104.112Z" fill="#E6E6E6"/>
<path d="M113.312 33.5115C113.312 33.7593 113.257 34.0093 113.146 34.2475C112.871 34.8347 112.32 35.2034 111.674 35.2334L106.433 35.4771C105.76 35.5084 105.148 35.1562 104.835 34.5577C104.523 33.9595 104.583 33.2542 104.992 32.7177L107.722 29.1392C108.05 28.7089 108.548 28.4631 109.088 28.4649C109.629 28.4664 110.125 28.7153 110.451 29.1476L112.962 32.4825C113.194 32.7903 113.312 33.1485 113.312 33.5115V33.5115Z" fill="#E6E6E6"/>
<path d="M142.582 28.8578C139.913 28.2169 137.061 28.797 134.78 30.3078C132.387 31.8922 130.803 34.4291 130.267 37.2397C129.161 43.0383 132.54 48.8309 137.882 51.1388C143.496 53.5649 150.176 51.937 154.253 47.4342C156.274 45.2024 157.537 42.3789 157.917 39.3931C158.292 36.4516 157.865 33.0579 156.088 30.603C154.326 28.1679 151.391 27.3508 148.557 26.9517C145.807 26.5645 142.159 26.3962 140.672 29.3141C140.389 29.8705 140.255 30.47 140.287 31.0939C140.309 31.5281 140.985 31.5307 140.963 31.0939C140.894 29.7297 141.802 28.5897 142.965 27.9765C144.312 27.2659 145.938 27.3261 147.408 27.4845C150.062 27.7704 153.074 28.2805 154.988 30.3237C156.894 32.3589 157.466 35.4605 157.347 38.1621C157.224 40.9821 156.255 43.7576 154.556 46.0129C151.205 50.4633 145.342 52.5806 139.948 51.1429C134.692 49.7421 134.623 46.6152 134.71 41.0777C134.756 38.1236 131.972 33.4737 134.245 31.5486C136.47 29.6638 139.554 28.8277 142.402 29.5115C142.825 29.6131 143.005 28.9596 142.582 28.8578L142.582 28.8578Z" fill="#F2B950"/>
</g>
<defs>
<clipPath id="clip0_79_683">
<rect width="236.534" height="181" fill="white"/>
</clipPath>
</defs>
</svg>
