<svg width="783" height="641" viewBox="0 0 783 641" fill="none" xmlns="http://www.w3.org/2000/svg">
<path d="M765.37 240.566C765.075 240.58 764.777 240.589 764.478 240.593" stroke="#FEFEFE" stroke-miterlimit="10"/>
<path d="M762.695 240.598C726.663 240.032 682.972 198.765 659.801 174.662C637.744 151.723 620.746 122.491 618.441 90.7602C617.429 76.8307 619.484 62.1705 627.348 50.6295C635.211 39.0884 649.77 31.482 663.385 34.6235C673.749 37.0164 681.969 44.9792 688.041 53.713C696.524 65.9224 701.953 80.9258 699.827 95.6395C695.859 123.097 666.006 141.113 638.265 140.275C610.524 139.438 585.275 124.283 563.45 107.145C525.795 77.566 494.216 46.4363 449.215 28.0063C405.502 10.1066 358.103 1.76941 310.966 1.20795C248.807 0.468259 183.019 5.42778 123.476 26.9369C63.3989 48.6376 -38.9561 115.852 18.3308 190.102C50.7968 232.18 111.744 239.386 158.06 218.362C172.713 211.709 182.961 200.783 194.043 189.728" stroke="#FEFEFE" stroke-miterlimit="10" stroke-dasharray="4 4"/>
<path d="M194.68 189.104C194.89 188.894 195.104 188.685 195.314 188.476" stroke="#FEFEFE" stroke-miterlimit="10"/>
<path d="M171.754 222.519L193.348 210.06L176.475 199.036L171.754 222.519Z" fill="#CAC5D5"/>
<path d="M161.225 183.717L171.754 222.52L180.763 202.347L224.436 182.732L270.895 137.98L193.637 157.551L161.225 183.717Z" fill="#CCD7F0"/>
<path d="M180.763 202.347L205.348 235.308L270.895 137.98L180.763 202.347Z" fill="#FEFEFE"/>
<path d="M161.225 183.717L270.895 137.98L138.512 150.992L161.225 183.717Z" fill="#FEFEFE"/>
<path d="M252.253 587.68C251.473 587.368 250.733 586.993 250.14 586.708C246.542 584.97 242.713 583.901 238.986 582.448C230.882 579.285 222.992 575.613 215.097 571.977C198.652 564.406 182.484 554.968 167.443 544.906C146.211 530.701 127.702 512.297 109.524 494.478C97.0953 482.295 72.6399 460.746 84.19 440.926C95.5975 421.355 127.867 437.178 141.588 444.312C153.607 450.564 163.088 458.776 172.967 467.929C183.376 477.581 194.065 486.978 203.427 497.682C215.503 511.486 225.613 526.481 235.879 541.605C241.808 550.343 247.305 559.023 251.936 568.532C253.523 571.794 255.73 574.735 256.889 578.206C257.656 580.501 258.306 584.44 257.219 586.717C256.225 588.789 254.116 588.419 252.253 587.68Z" fill="#EFB351"/>
<path d="M108.489 454.984L230.797 563.198" stroke="#D2974C" stroke-width="0.5" stroke-miterlimit="10"/>
<path d="M109.359 477.232L134.086 477.549" stroke="#D2974C" stroke-width="0.5" stroke-miterlimit="10"/>
<path d="M134.456 452.787L134.135 477.505" stroke="#D2974C" stroke-width="0.5" stroke-miterlimit="10"/>
<path d="M124.872 492.775L149.568 491.461" stroke="#D2974C" stroke-width="0.5" stroke-miterlimit="10"/>
<path d="M148.297 466.726L149.612 491.412" stroke="#D2974C" stroke-width="0.5" stroke-miterlimit="10"/>
<path d="M144.66 509.57L169.351 508.251" stroke="#D2974C" stroke-width="0.5" stroke-miterlimit="10"/>
<path d="M168.081 483.521L168.375 508.305" stroke="#D2974C" stroke-width="0.5" stroke-miterlimit="10"/>
<path d="M166.882 529.231L191.578 527.916" stroke="#D2974C" stroke-width="0.5" stroke-miterlimit="10"/>
<path d="M190.307 503.181L192.487 529.302" stroke="#D2974C" stroke-width="0.5" stroke-miterlimit="10"/>
<path d="M267.449 478.642C266.674 478.316 265.943 477.929 265.354 477.63C261.788 475.821 257.981 474.68 254.285 473.156C246.244 469.837 238.429 466.013 230.601 462.226C214.304 454.339 198.322 444.593 183.483 434.242C162.527 419.631 144.379 400.871 126.548 382.704C114.356 370.281 90.3239 348.268 102.253 328.675C114.035 309.327 145.993 325.77 159.575 333.171C171.469 339.655 180.79 348.045 190.49 357.389C200.712 367.237 211.219 376.844 220.371 387.726C232.175 401.762 241.995 416.944 251.967 432.268C257.727 441.118 263.054 449.905 267.498 459.499C269.023 462.792 271.171 465.773 272.264 469.266C272.986 471.575 273.561 475.527 272.429 477.782C271.399 479.827 269.299 479.417 267.449 478.642Z" fill="#EFB351"/>
<path d="M126.276 343.197L246.471 453.751" stroke="#D2974C" stroke-width="0.5" stroke-miterlimit="10"/>
<path d="M126.713 365.459L151.431 366.252" stroke="#D2974C" stroke-width="0.5" stroke-miterlimit="10"/>
<path d="M152.278 341.504L151.48 366.208" stroke="#D2974C" stroke-width="0.5" stroke-miterlimit="10"/>
<path d="M141.927 381.296L166.641 380.458" stroke="#D2974C" stroke-width="0.5" stroke-miterlimit="10"/>
<path d="M165.848 355.705L166.686 380.409" stroke="#D2974C" stroke-width="0.5" stroke-miterlimit="10"/>
<path d="M161.385 398.469L186.099 397.627" stroke="#D2974C" stroke-width="0.5" stroke-miterlimit="10"/>
<path d="M185.306 372.874L185.119 397.663" stroke="#D2974C" stroke-width="0.5" stroke-miterlimit="10"/>
<path d="M183.224 418.556L207.938 417.719" stroke="#D2974C" stroke-width="0.5" stroke-miterlimit="10"/>
<path d="M207.144 392.966L208.825 419.123" stroke="#D2974C" stroke-width="0.5" stroke-miterlimit="10"/>
<path d="M245.258 627.022C244.576 627.084 243.903 627.088 243.368 627.097C240.119 627.169 236.954 627.815 233.717 628.136C226.678 628.84 219.608 629.098 212.543 629.388C197.832 629.985 182.636 629.134 168.023 627.409C147.392 624.976 127.181 618.493 107.424 612.312C93.9169 608.088 68.2357 601.529 69.2654 582.907C70.2818 564.517 99.5025 564.045 112.078 564.139C123.093 564.223 132.998 566.661 143.536 569.637C154.645 572.774 165.861 575.631 176.604 579.917C190.455 585.447 203.324 592.563 216.354 599.72C223.879 603.855 231.074 608.106 237.943 613.279C240.301 615.053 242.989 616.367 245.111 618.453C246.516 619.834 248.446 622.445 248.499 624.495C248.548 626.358 246.881 626.87 245.258 627.022Z" fill="#EFB351"/>
<path d="M92.0625 584.102L220.665 617.232" stroke="#D2974C" stroke-width="0.5" stroke-miterlimit="10"/>
<path d="M100.925 599.889L118.947 590.981" stroke="#D2974C" stroke-width="0.5" stroke-miterlimit="10"/>
<path d="M110.05 572.912L118.965 590.928" stroke="#D2974C" stroke-width="0.5" stroke-miterlimit="10"/>
<path d="M117.913 605.41L135.303 595.326" stroke="#D2974C" stroke-width="0.5" stroke-miterlimit="10"/>
<path d="M125.228 577.886L135.316 595.273" stroke="#D2974C" stroke-width="0.5" stroke-miterlimit="10"/>
<path d="M138.45 610.249L155.844 600.165" stroke="#D2974C" stroke-width="0.5" stroke-miterlimit="10"/>
<path d="M145.77 582.729L155.153 600.566" stroke="#D2974C" stroke-width="0.5" stroke-miterlimit="10"/>
<path d="M161.818 616.269L179.212 606.186" stroke="#D2974C" stroke-width="0.5" stroke-miterlimit="10"/>
<path d="M169.137 588.749L180.384 606.854" stroke="#D2974C" stroke-width="0.5" stroke-miterlimit="10"/>
<path d="M596.981 585.358C597.779 585.091 598.537 584.756 599.148 584.502C602.839 582.965 606.722 582.114 610.52 580.866C618.785 578.157 626.866 574.926 634.953 571.732C651.794 565.083 668.462 556.559 684.033 547.344C706.019 534.337 725.521 516.985 744.659 500.199C757.747 488.725 783.357 468.562 772.926 448.135C762.624 427.963 729.525 441.973 715.429 448.34C703.085 453.915 693.162 461.593 682.794 470.184C671.863 479.243 660.67 488.034 650.729 498.203C637.908 511.317 626.982 525.728 615.891 540.259C609.486 548.654 603.517 557.018 598.368 566.255C596.598 569.423 594.236 572.24 592.885 575.639C591.993 577.89 591.124 581.789 592.082 584.119C592.956 586.245 595.082 585.991 596.981 585.358Z" fill="#EFB351"/>
<path d="M747.882 460.83L619.761 562.102" stroke="#D2974C" stroke-width="0.5" stroke-miterlimit="10"/>
<path d="M745.782 482.995L721.073 481.948" stroke="#D2974C" stroke-width="0.5" stroke-miterlimit="10"/>
<path d="M722.08 457.199L721.028 481.899" stroke="#D2974C" stroke-width="0.5" stroke-miterlimit="10"/>
<path d="M729.427 497.655L704.842 494.977" stroke="#D2974C" stroke-width="0.5" stroke-miterlimit="10"/>
<path d="M707.485 470.349L704.802 494.923" stroke="#D2974C" stroke-width="0.5" stroke-miterlimit="10"/>
<path d="M708.742 513.327L684.158 510.645" stroke="#D2974C" stroke-width="0.5" stroke-miterlimit="10"/>
<path d="M686.801 486.021L685.13 510.751" stroke="#D2974C" stroke-width="0.5" stroke-miterlimit="10"/>
<path d="M685.46 531.73L660.879 529.048" stroke="#D2974C" stroke-width="0.5" stroke-miterlimit="10"/>
<path d="M663.518 504.424L659.89 530.38" stroke="#D2974C" stroke-width="0.5" stroke-miterlimit="10"/>
<path d="M586.154 488.624C586.88 488.205 587.558 487.723 588.106 487.354C591.414 485.112 595.047 483.499 598.524 481.521C606.08 477.216 613.355 472.435 620.639 467.694C635.809 457.815 650.439 446.131 663.857 433.997C682.803 416.86 698.441 395.965 713.838 375.695C724.367 361.837 745.43 336.968 731.125 319.037C716.998 301.329 687.367 321.666 674.828 330.721C663.844 338.648 655.655 348.153 647.216 358.642C638.319 369.702 629.109 380.552 621.401 392.503C611.46 407.916 603.633 424.216 595.675 440.668C591.079 450.173 586.898 459.561 583.702 469.641C582.605 473.099 580.849 476.329 580.207 479.93C579.783 482.314 579.712 486.306 581.116 488.401C582.387 490.299 584.419 489.622 586.154 488.624Z" fill="#EFB351"/>
<path d="M709.121 336.469L603.824 461.286" stroke="#D2974C" stroke-width="0.5" stroke-miterlimit="10"/>
<path d="M711.493 358.606L687.073 362.514" stroke="#D2974C" stroke-width="0.5" stroke-miterlimit="10"/>
<path d="M683.115 338.064L687.02 362.474" stroke="#D2974C" stroke-width="0.5" stroke-miterlimit="10"/>
<path d="M698.4 376.239L673.776 378.521" stroke="#D2974C" stroke-width="0.5" stroke-miterlimit="10"/>
<path d="M671.444 353.865L673.722 378.476" stroke="#D2974C" stroke-width="0.5" stroke-miterlimit="10"/>
<path d="M681.26 395.726L656.64 398.007" stroke="#D2974C" stroke-width="0.5" stroke-miterlimit="10"/>
<path d="M654.304 373.352L657.616 397.917" stroke="#D2974C" stroke-width="0.5" stroke-miterlimit="10"/>
<path d="M662.132 418.406L637.507 420.688" stroke="#D2974C" stroke-width="0.5" stroke-miterlimit="10"/>
<path d="M635.171 396.032L636.807 422.189" stroke="#D2974C" stroke-width="0.5" stroke-miterlimit="10"/>
<path d="M606.766 627.022C607.448 627.084 608.122 627.088 608.656 627.097C611.906 627.169 615.071 627.815 618.308 628.136C625.346 628.84 632.416 629.098 639.482 629.388C654.193 629.985 669.389 629.134 684.002 627.409C704.632 624.976 724.844 618.493 744.601 612.312C758.108 608.088 783.789 601.529 782.759 582.907C781.743 564.517 752.522 564.045 739.947 564.139C728.932 564.223 719.027 566.661 708.488 569.637C697.38 572.774 686.164 575.631 675.421 579.917C661.57 585.447 648.701 592.563 635.671 599.72C628.146 603.855 620.951 608.106 614.082 613.279C611.723 615.053 609.035 616.367 606.913 618.453C605.509 619.834 603.579 622.445 603.526 624.495C603.477 626.358 605.144 626.87 606.766 627.022Z" fill="#EFB351"/>
<path d="M759.962 584.102L631.36 617.232" stroke="#D2974C" stroke-width="0.5" stroke-miterlimit="10"/>
<path d="M751.1 599.889L733.078 590.981" stroke="#D2974C" stroke-width="0.5" stroke-miterlimit="10"/>
<path d="M741.975 572.912L733.06 590.928" stroke="#D2974C" stroke-width="0.5" stroke-miterlimit="10"/>
<path d="M734.112 605.41L716.722 595.326" stroke="#D2974C" stroke-width="0.5" stroke-miterlimit="10"/>
<path d="M726.796 577.886L716.709 595.273" stroke="#D2974C" stroke-width="0.5" stroke-miterlimit="10"/>
<path d="M713.575 610.249L696.18 600.165" stroke="#D2974C" stroke-width="0.5" stroke-miterlimit="10"/>
<path d="M706.255 582.729L696.871 600.566" stroke="#D2974C" stroke-width="0.5" stroke-miterlimit="10"/>
<path d="M690.207 616.269L672.813 606.186" stroke="#D2974C" stroke-width="0.5" stroke-miterlimit="10"/>
<path d="M682.887 588.749L671.64 606.854" stroke="#D2974C" stroke-width="0.5" stroke-miterlimit="10"/>
<path d="M630.731 639.227H222.528V328.386C222.528 308.86 238.362 293.027 257.901 293.027H595.363C614.897 293.027 630.736 308.855 630.736 328.386V639.227H630.731Z" fill="#6233F9"/>
<path d="M426.628 373.119C486.953 373.119 535.857 324.235 535.857 263.933C535.857 203.632 486.953 154.748 426.628 154.748C366.302 154.748 317.399 203.632 317.399 263.933C317.399 324.235 366.302 373.119 426.628 373.119Z" fill="#152244"/>
<path d="M317.399 371.622C353.821 371.622 383.347 342.107 383.347 305.699C383.347 269.292 353.821 239.777 317.399 239.777C280.976 239.777 251.45 269.292 251.45 305.699C251.45 342.107 280.976 371.622 317.399 371.622Z" fill="#152244"/>
<path d="M597.389 372.385C627.753 342.033 627.753 292.823 597.389 262.471C567.025 232.119 517.795 232.119 487.431 262.471C457.067 292.823 457.068 342.033 487.431 372.385C517.795 402.737 567.025 402.737 597.389 372.385Z" fill="#152244"/>
<path d="M602.977 406.945C627.708 406.945 647.756 386.905 647.756 362.184C647.756 337.464 627.708 317.424 602.977 317.424C578.247 317.424 558.199 337.464 558.199 362.184C558.199 386.905 578.247 406.945 602.977 406.945Z" fill="#152244"/>
<path d="M576.182 549.688C631.524 549.688 676.388 504.842 676.388 449.522C676.388 394.202 631.524 349.355 576.182 349.355C520.839 349.355 475.975 394.202 475.975 449.522C475.975 504.842 520.839 549.688 576.182 549.688Z" fill="#152244"/>
<path d="M303.544 562.272C368.589 562.272 421.318 504.837 421.318 433.988C421.318 363.139 368.589 305.704 303.544 305.704C238.499 305.704 185.769 363.139 185.769 433.988C185.769 504.837 238.499 562.272 303.544 562.272Z" fill="#152244"/>
<path d="M617.88 639.227H246.823V445.623C246.823 429.301 260.063 416.066 276.392 416.066H588.311C604.64 416.066 617.88 429.301 617.88 445.623V639.227Z" fill="#FCFCFC"/>
<path d="M351.068 336.878C351.068 336.878 351.068 466.129 430.497 466.129C509.926 466.129 503.885 336.878 503.885 336.878C503.885 336.878 497.867 234.181 426.628 234.181C355.388 234.181 351.068 336.878 351.068 336.878Z" fill="#F8B1C3"/>
<path d="M570.342 441.701H282.909C279.686 441.701 277.074 444.312 277.074 447.534V639.227H576.182V447.534C576.182 444.312 573.569 441.701 570.342 441.701Z" fill="#7315BD"/>
<path opacity="0.37" d="M362.204 441.701H310.757C292.154 441.701 277.074 456.776 277.074 475.371V639.227H328.521V475.371C328.521 456.776 343.602 441.701 362.204 441.701Z" fill="#4D0089"/>
<path opacity="0.37" d="M491.051 441.701H542.499C561.101 441.701 576.182 456.776 576.182 475.371V639.227H524.734V475.371C524.734 456.776 509.654 441.701 491.051 441.701Z" fill="#4D0089"/>
<path d="M426.628 555.779C435.089 555.779 441.949 548.922 441.949 540.464C441.949 532.005 435.089 525.148 426.628 525.148C418.166 525.148 411.306 532.005 411.306 540.464C411.306 548.922 418.166 555.779 426.628 555.779Z" fill="#FEFEFE"/>
<path d="M516.92 350.158C516.92 350.158 462.071 346.99 462.071 284.467C462.071 284.467 432.534 369.827 332.207 369.827C332.207 369.827 306.655 211.26 428.821 211.26C550.986 211.26 516.92 350.158 516.92 350.158Z" fill="#152244"/>
<path d="M427.657 244.368C478.119 244.368 519.768 281.985 526.134 330.694C526.691 326.443 527.008 322.116 527.008 317.714C527.008 262.869 482.528 218.407 427.662 218.407C372.796 218.407 328.316 262.869 328.316 317.714C328.316 322.116 328.632 326.443 329.189 330.694C335.546 281.985 377.191 244.368 427.657 244.368Z" fill="#C291DB"/>
<path d="M341.961 395.047H293.937C291.998 395.047 290.429 393.478 290.429 391.54V322.543C290.429 320.605 291.998 319.036 293.937 319.036H341.961V395.047Z" fill="#BC51D0"/>
<path d="M348.915 312.335C348.643 312.321 348.38 312.281 348.108 312.281C335.408 312.281 325.115 325.449 325.115 341.695C325.115 357.942 335.408 371.109 348.108 371.109C348.38 371.109 348.643 371.069 348.915 371.056V312.335Z" fill="#152244"/>
<path d="M348.915 353.485C348.643 353.476 348.38 353.445 348.108 353.445C333.143 353.445 321.014 365.57 321.014 380.529C321.014 395.488 333.143 407.612 348.108 407.612C348.38 407.612 348.643 407.581 348.915 407.572V353.485Z" fill="#152244"/>
<path d="M519.88 395.047H567.903C569.843 395.047 571.412 393.478 571.412 391.54V322.543C571.412 320.605 569.843 319.036 567.903 319.036H519.88V395.047Z" fill="#BC51D0"/>
<path d="M512.926 312.335C513.198 312.321 513.461 312.281 513.733 312.281C526.433 312.281 536.726 325.449 536.726 341.695C536.726 357.942 526.433 371.109 513.733 371.109C513.461 371.109 513.198 371.069 512.926 371.056V312.335Z" fill="#152244"/>
<path d="M512.926 353.485C513.198 353.476 513.461 353.445 513.733 353.445C528.697 353.445 540.827 365.57 540.827 380.529C540.827 395.488 528.697 407.612 513.733 407.612C513.461 407.612 513.198 407.581 512.926 407.572V353.485Z" fill="#152244"/>
<path d="M464.853 277.253C458.015 299.03 458.857 324.62 472.329 343.732C472.792 344.338 474.005 346.014 474.477 346.606C475.003 347.239 476.256 348.714 476.787 349.351C476.234 348.75 474.977 347.221 474.451 346.624C473.983 346.027 472.766 344.396 472.284 343.763C462.424 330.03 459.178 312.522 460.739 295.892C461.331 289.525 462.459 283.202 464.43 277.102C464.434 277.106 464.853 277.253 464.853 277.253Z" fill="#152244"/>
<path d="M611.657 356.832C624.883 361.841 637.191 369.211 648.148 378.118C662.257 389.637 673.816 404.623 679.945 421.867C680.453 423.48 681.091 425.29 681.572 426.907C682.063 428.823 682.919 431.818 683.244 433.765C683.235 433.765 683.953 437.241 683.922 437.227L683.222 433.769C682.883 431.818 682.032 428.868 681.523 426.92C681.037 425.307 680.4 423.507 679.878 421.89C670.468 395.635 648.799 375.498 624.388 362.955C620.211 360.82 615.927 358.837 611.514 357.246C611.514 357.255 611.657 356.832 611.657 356.832Z" fill="#152244"/>
<path d="M296.871 314.224C282.86 312.714 268.582 313.721 254.825 316.706C237.056 320.592 220.001 328.72 206.752 341.308C205.571 342.515 204.185 343.839 203.025 345.064C201.724 346.552 199.602 348.83 198.434 350.42C198.429 350.416 196.254 353.223 196.245 353.192L198.416 350.407C199.588 348.812 201.666 346.548 202.99 345.033C204.144 343.803 205.522 342.475 206.708 341.259C223.38 325.253 245.958 316.626 268.702 314.068C275.727 313.262 282.811 312.968 289.876 313.253C292.235 313.355 294.584 313.498 296.937 313.788C296.929 313.783 296.871 314.224 296.871 314.224Z" fill="#152244"/>
<path d="M332.118 266.964C321.651 251.163 315.963 230.897 320.787 212.195C321.634 208.75 322.94 205.426 324.42 202.209C322.993 205.426 321.674 208.764 320.862 212.213C317.51 225.327 319.507 239.319 324.54 251.737C326.666 256.969 329.261 262.062 332.479 266.701L332.118 266.964Z" fill="#152244"/>
<path d="M341.163 256.591C327.433 243.619 308.519 234.596 289.328 236.129C285.789 236.369 282.294 237.087 278.87 237.991C282.258 237.046 285.789 236.325 289.319 236.053C302.844 234.827 316.387 239.043 327.888 246.003C332.751 248.957 337.37 252.326 341.484 256.279C341.48 256.279 341.163 256.591 341.163 256.591Z" fill="#152244"/>
<path d="M472.124 436.6H448.916C443.964 436.6 439.952 432.589 439.952 427.639C439.952 422.688 443.964 418.678 448.916 418.678H472.124C477.076 418.678 481.088 422.688 481.088 427.639C481.088 432.589 477.076 436.6 472.124 436.6Z" fill="#BC51D0"/>
<path d="M549.769 366.636C549.769 366.636 554.031 427.638 476.042 427.638" stroke="#BC51D0" stroke-miterlimit="10"/>
<path d="M421.054 389.205C425.611 370.029 413.753 350.791 394.57 346.236C375.386 341.681 356.141 353.534 351.584 372.71C347.027 391.886 358.885 411.123 378.068 415.678C397.252 420.233 416.497 408.381 421.054 389.205Z" stroke="#F9FBFC" stroke-width="2" stroke-miterlimit="10"/>
<path d="M505.492 389.21C510.049 370.034 498.192 350.796 479.009 346.241C459.825 341.686 440.58 353.539 436.023 372.715C431.466 391.89 443.323 411.128 462.507 415.683C481.69 420.238 500.936 408.385 505.492 389.21Z" stroke="#F9FBFC" stroke-width="2" stroke-miterlimit="10"/>
<path d="M422.625 375.445C424.417 373.872 426.837 373.035 429.391 373.315C431.803 373.583 433.88 374.804 435.285 376.559" stroke="#F9FBFC" stroke-width="2" stroke-miterlimit="10"/>
<path d="M395.704 404.164C398.456 404.164 400.688 401.933 400.688 399.182C400.688 396.431 398.456 394.2 395.704 394.2C392.951 394.2 390.72 396.431 390.72 399.182C390.72 401.933 392.951 404.164 395.704 404.164Z" fill="#152244"/>
<path d="M464.831 404.164C467.583 404.164 469.815 401.933 469.815 399.182C469.815 396.431 467.583 394.2 464.831 394.2C462.078 394.2 459.847 396.431 459.847 399.182C459.847 401.933 462.078 404.164 464.831 404.164Z" fill="#152244"/>
<path d="M665.56 481.261L653.894 474.528L663.006 468.575L665.56 481.261Z" fill="#CAC5D5"/>
<path d="M671.248 460.296L665.56 481.262L660.692 470.363L637.097 459.766L611.995 435.588L653.734 446.162L671.248 460.296Z" fill="#CCD7F0"/>
<path d="M660.692 470.363L647.408 488.169L611.995 435.588L660.692 470.363Z" fill="#FEFEFE"/>
<path d="M671.248 460.296L611.995 435.588L683.516 442.619L671.248 460.296Z" fill="#FEFEFE"/>
<path d="M171.077 409.07L185.471 412.408L182.622 400.813L171.077 409.07Z" fill="#CAC5D5"/>
<path d="M182.217 388.011L171.077 409.07L183.139 403.977L209.989 413.143L248.218 412.546L206.841 389.784L182.217 388.011Z" fill="#CCD7F0"/>
<path d="M183.139 403.977L180.451 428.19L248.218 412.545L183.139 403.977Z" fill="#FEFEFE"/>
<path d="M182.217 388.011L248.218 412.546L185.622 364.657L182.217 388.011Z" fill="#FEFEFE"/>
<path d="M630.411 438.6C632.071 428.393 625.14 418.774 614.929 417.114C604.718 415.454 595.095 422.383 593.435 432.59C591.774 442.796 598.706 452.416 608.916 454.076C619.127 455.735 628.75 448.807 630.411 438.6Z" fill="#152244"/>
<path d="M252.507 432.856C262.852 432.856 271.238 424.473 271.238 414.132C271.238 403.791 262.852 395.408 252.507 395.408C242.162 395.408 233.775 403.791 233.775 414.132C233.775 424.473 242.162 432.856 252.507 432.856Z" fill="#152244"/>
<path d="M73.2997 639.227H779.955" stroke="#4D0089" stroke-width="3" stroke-miterlimit="10"/>
</svg>
