<?xml version="1.0" encoding="utf-8"?>
<!-- Generator: Adobe Illustrator 26.0.1, SVG Export Plug-In . SVG Version: 6.00 Build 0)  -->
<svg version="1.1" id="Слой_1" xmlns="http://www.w3.org/2000/svg" xmlns:xlink="http://www.w3.org/1999/xlink" x="0px" y="0px"
	 viewBox="0 0 1860 1398.5" style="enable-background:new 0 0 1860 1398.5;" xml:space="preserve">
<style type="text/css">
	.st0{fill:#CAEBFF;}
	.st1{fill:#FFFFFF;}
	.st2{fill:#8FC9FF;}
	.st3{fill:#A4DEFF;}
	.st4{fill:#1D6277;}
	.st5{fill:#FF6300;}
	.st6{fill:#EEB200;}
	.st7{fill:#8D5836;}
	.st8{fill:#50B0F1;}
	.st9{fill:#C49400;}
	.st10{fill:#9C7F00;}
	.st11{fill:#67B6FF;}
</style>
<rect id="Background" y="0.2" class="st0" width="1860" height="1399.8"/>
<g id="Sun_Cloud">
	<path class="st1" d="M693,842.1L0,838.9V646.1c47.2-36.9,106.2-55.7,159.1-54.2c92.8,2.6,114.3,123.7,173.2,123.7
		c43.1,0,47.9-26.4,91.4-26.4c40.8,0,36.2,53,121.6,62c41.1,4.4,79.5,22.8,108.7,52L693,842.1z"/>
	<path id="Sun" class="st1" d="M678.8,17.4c0,50.7-41.1,91.9-91.9,91.9s-91.9-41.1-91.9-91.9c0-5.8,0.6-11.6,1.7-17.4h180.4
		C678.3,5.7,678.9,11.6,678.8,17.4z"/>
</g>
<g id="Mountain">
	<polygon class="st2" points="1177.6,520 1177.6,1400 387.1,1400 387.1,868.1 713.3,526 	"/>
	<polygon class="st1" points="1860,0.2 1860,1400 681.1,1400 681.1,220.9 1049.5,0.2 	"/>
	<path class="st3" d="M1860,372.9v1025.6H786.6v-590l139-139.9L1046.4,547c1-1,1.3-2.5,0.7-3.8c-0.2-0.4-0.4-0.8-0.8-1.1
		c-1.4-1.4-3.6-1.4-4.9,0c0,0,0,0,0,0L925.6,658.6V372.9H1860z"/>
	<g id="Tunnel">
		<path class="st1" d="M1376.5,498.8c0-60.5,32.5-111.6,72.6-111.6s72.6,51.1,72.6,111.6H1376.5z"/>
		<path class="st4" d="M1389.3,498.8c0-53.8,26.8-97.3,59.8-97.3s59.8,43.6,59.8,97.3H1389.3z"/>
		<rect x="1446.6" y="387.1" class="st4" width="5" height="14.3"/>
		
			<rect x="1408" y="407.7" transform="matrix(0.6366 -0.7712 0.7712 0.6366 193.1565 1238.2382)" class="st4" width="5" height="13"/>
		
			<rect x="1481.8" y="412.1" transform="matrix(0.7711 -0.6368 0.6368 0.7711 76.7122 1042.5485)" class="st4" width="12.9" height="5"/>
	</g>
	<polygon class="st0" points="757.1,407.2 724.9,444.3 724.9,246.9 757.1,265.8 	"/>
	<polygon class="st2" points="885.3,1113.2 930,1050.2 786.6,808.4 786.8,1058.4 	"/>
	<polygon class="st2" points="1860,365.9 925.6,365.9 681.1,220.9 1049.5,0.2 1860,0.2 	"/>
</g>
<g id="Train">
	<path class="st5" d="M1329.4,437.2h224.6c6.6,0,12,5.4,12,12v46.4l0,0h-248.6l0,0v-46.4C1317.4,442.6,1322.8,437.2,1329.4,437.2
		C1329.4,437.2,1329.4,437.2,1329.4,437.2z"/>
	<path class="st6" d="M1566.1,449.2v3.6h-248.7V450c0-0.1,0-0.2,0-0.3c0.2-6.9,5.8-12.4,12.7-12.4h223.9
		C1560.7,437.2,1566.1,442.6,1566.1,449.2z"/>
	<rect x="1359.9" y="462.3" class="st7" width="14.1" height="14.1"/>
	<rect x="1385.2" y="462.3" class="st7" width="14.1" height="14.1"/>
	<rect x="1411.1" y="462.3" class="st7" width="14.1" height="14.1"/>
	<rect x="1436.9" y="462.3" class="st7" width="14.1" height="14.1"/>
	<rect x="1463" y="462.3" class="st7" width="14.1" height="14.1"/>
	<rect x="1488.7" y="462.3" class="st7" width="14.1" height="14.1"/>
	<rect x="1514.2" y="462.3" class="st7" width="14.1" height="14.1"/>
	<rect x="1317.4" y="450.8" class="st1" width="248.7" height="4"/>
	<path class="st5" d="M1049.7,495.6H773.2l42.5-44.7c8.3-8.7,20.3-13.7,33.1-13.7h187.4c7.4,0,13.5,5.4,13.5,12.1L1049.7,495.6z"/>
	<path class="st6" d="M1049.7,449.3v3.5H814l1.8-1.9c8.2-8.7,20.3-13.7,33.1-13.7h187.4C1043.6,437.2,1049.7,442.6,1049.7,449.3z"/>
	<rect x="844.4" y="462.3" class="st7" width="14.1" height="14.1"/>
	<polygon class="st7" points="825.4,476.4 791.6,476.4 804.9,462.3 825.4,462.3 	"/>
	<rect x="869.7" y="462.3" class="st7" width="14.1" height="14.1"/>
	<rect x="895.6" y="462.3" class="st7" width="14.1" height="14.1"/>
	<rect x="921.4" y="462.3" class="st7" width="14.1" height="14.1"/>
	<rect x="947.4" y="462.3" class="st7" width="14.1" height="14.1"/>
	<rect x="973.1" y="462.3" class="st7" width="14.1" height="14.1"/>
	<rect x="998.6" y="462.3" class="st7" width="14.1" height="14.1"/>
	<path class="st1" d="M1049.7,450.8v4H812.1l3.7-3.9l0.1-0.1H1049.7z"/>
	<path class="st5" d="M1071.2,437.2h224.6c6.6,0,12,5.4,12,12v46.4l0,0h-248.6l0,0v-46.4C1059.2,442.6,1064.6,437.2,1071.2,437.2
		C1071.2,437.2,1071.2,437.2,1071.2,437.2z"/>
	<path class="st6" d="M1307.9,450v2.8h-248.7V450c0-7,5.7-12.8,12.7-12.8c0,0,0.1,0,0.1,0h223.2C1302.2,437.2,1307.9,443,1307.9,450
		C1307.9,450,1307.9,450,1307.9,450z"/>
	<rect x="1101.4" y="462.3" class="st7" width="14.1" height="14.1"/>
	<rect x="1126.7" y="462.3" class="st7" width="14.1" height="14.1"/>
	<rect x="1152.6" y="462.3" class="st7" width="14.1" height="14.1"/>
	<rect x="1178.5" y="462.3" class="st7" width="14.1" height="14.1"/>
	<rect x="1204.5" y="462.3" class="st7" width="14.1" height="14.1"/>
	<rect x="1230.2" y="462.3" class="st7" width="14.1" height="14.1"/>
	<rect x="1255.7" y="462.3" class="st7" width="14.1" height="14.1"/>
	<rect x="1059.2" y="450.8" class="st1" width="248.7" height="4"/>
</g>
<g id="Viadukt">
	<path class="st4" d="M1456.1,535.3h3.4v-36.1H0v7h7.4v22.1H0v7h4.9c-2.9,3.4-4.4,7.8-4.4,12.3v411.6H501c0.2-1.8,0.6-5.2,0.8-7
		C515.4,836,550.2,730.7,600.2,655c25.1-38.1,53.3-67.7,83.7-88.1c31.3-21,64.1-31.6,97.7-31.6s66.3,10.6,97.5,31.5
		c30.4,20.3,58.5,49.8,83.6,87.8c33.1,50,59.7,113.2,77.8,183.9l0,0c9.5,37.4,16.5,75.4,20.9,113.8c0.2,1.3,0.5,5.7,0.7,7h398.5
		V547.5C1460.5,543.1,1458.9,538.7,1456.1,535.3z M1407.9,506.2h20.8v22.1h-20.8V506.2z M1382,506.2h20.8v22.1H1382V506.2z
		 M1304.6,506.2h20.8v22.1h-20.8V506.2z M1278.8,506.2h20.8v22.1h-20.8V506.2z M1201.3,506.2h20.8v22.1h-20.8V506.2z M1175.5,506.2
		h20.8v22.1h-20.8V506.2z M1098,506.2h20.8v22.1H1098L1098,506.2z M1072.2,506.2h20.8v22.1h-20.8L1072.2,506.2z M1047.6,506.2h19.6
		v22.1h-19.6V506.2z M996,506.2h20.8v22.1H996L996,506.2z M970.2,506.2H991v22.1h-20.8L970.2,506.2z M944.4,506.2h20.8v22.1h-20.8
		V506.2z M892.7,506.2h20.8v22.1h-20.8V506.2z M866.9,506.2h20.8v22.1h-20.8V506.2z M685.7,506.2h20.8v22.1h-20.8L685.7,506.2z
		 M659.9,506.2h20.8v22.1h-20.8V506.2z M582.4,506.2h20.8v22.1h-20.8L582.4,506.2z M556.6,506.2h20.8v22.1h-20.8L556.6,506.2z
		 M479.2,506.2H500v22.1h-20.8L479.2,506.2z M453.3,506.2h20.8v22.1h-20.8L453.3,506.2z M375.9,506.2h20.8v22.1h-20.8L375.9,506.2z
		 M350.1,506.2h20.8v22.1H350L350.1,506.2z M272.6,506.2h20.8v22.1h-20.8L272.6,506.2z M246.8,506.2h20.8v22.1h-20.8L246.8,506.2z
		 M169.3,506.2h20.8v22.1h-20.8L169.3,506.2z M141.3,506.2h23v22.1h-23V506.2z M89.8,506.2h20.8v22.1H89.9L89.8,506.2z M64,506.2
		h20.8v22.1H64L64,506.2z M38.2,506.2H59v22.1H38.2L38.2,506.2z M12.4,506.2h20.8v22.1H12.4L12.4,506.2z M111.6,952.1H7.4V547.5
		c0-6.8,5.5-12.3,12.3-12.3h79.7c6.8,0,12.3,5.5,12.3,12.3L111.6,952.1z M115.6,506.2h20.7v22.1h-20.6L115.6,506.2z M214.9,952.1
		h-96.2V547.5c0-6.8,5.5-12.3,12.3-12.3h70.8c7,0,12.7,5.4,13.2,12.4L214.9,952.1z M215.9,528.3h-20.7v-22.1H216L215.9,528.3z
		 M220.9,506.2h20.8v22.1H221L220.9,506.2z M318.1,952.1H222V547.5c0-6.8,5.5-12.3,12.3-12.3H306c6.8,0,12.3,5.5,12.3,12.3
		L318.1,952.1z M319.1,528.3h-20.7v-22.1h20.8L319.1,528.3z M324.1,506.2h20.8v22.1h-20.7L324.1,506.2z M421.4,952.1h-96.2V547.5
		c0-6.8,5.5-12.3,12.3-12.3h71.8c6.8,0,12.3,5.5,12.3,12.3L421.4,952.1z M422.4,528.3h-20.7v-22.1h20.8L422.4,528.3z M427.4,506.2
		h20.8v22.1h-20.7L427.4,506.2z M494.7,952.1h-66.2V548.5c0-7.3,5.9-13.2,13.2-13.2h69.8c7.3,0,13.2,5.9,13.2,13.2v256.2h0.1
		c-14.4,48.2-24.4,97.5-30.1,147.5H494.7z M525.7,528.3H505v-22.1h20.8L525.7,528.3z M530.7,506.2h20.9v22.1h-20.8L530.7,506.2z
		 M628.1,607c-12.3,13.9-23.6,28.6-33.7,44.1c-24.8,37.5-45.9,82.3-62.6,131.9V548.5c0-7.3,5.9-13.2,13.2-13.2h69.8
		c7.3,0,13.2,5.9,13.2,13.2L628.1,607z M629.1,528.2h-20.8v-22h20.8V528.2z M634.1,506.2h20.8v22.1h-20.8V506.2z M680,561
		c-16.4,11.1-31.5,24-45,38.4v-50.9c0-7.3,5.9-13.2,13.2-13.2h69.8c2.8,0,5.5,0.9,7.8,2.5C709.7,543.6,694.2,551.4,680,561z
		 M732.3,528.3h-20.8v-22.1h20.8V528.3z M758.1,528.3h-20.8v-22.1h20.8V528.3z M784,528.3h-2.4h-18.4v-22.1H784L784,528.3z
		 M809.8,528.3H789v-22.1h20.8L809.8,528.3z M835.6,528.3h-20.8v-22.1h20.8V528.3z M841.1,506.2h20.8v22.1h-20.8V506.2z
		 M937.1,609.3c-17-19.5-35.2-35.7-54.2-48.4c-12.3-8.3-25.4-15.2-39.2-20.7c2.5-3.2,6.3-5,10.3-5h69.9c7.3,0,13.2,5.9,13.2,13.2
		V609.3z M939.3,528.3h-20.8v-22.1h20.8V528.3z M1040.3,811.9c-17.9-61.4-42.3-116.5-71.9-161.2c-7.5-11.4-15.7-22.5-24.3-33.1
		v-69.1c0-7.3,5.9-13.2,13.2-13.2h69.8c7.3,0,13.2,5.9,13.2,13.2L1040.3,811.9z M1041.3,528.3h-19.6v-22.1h19.6V528.3z
		 M1143.6,952.2h-75.3c-4.4-38.6-11.4-76.9-21-114.7v-289c0-7.3,5.9-13.2,13.2-13.2h69.9c7.3,0,13.2,5.9,13.2,13.2L1143.6,952.2z
		 M1144.6,528.3h-20.8v-22.1h20.8V528.3z M1149.6,506.2h20.8v22.1h-20.8V506.2z M1247,952.1h-96.3V547.5c0-6.8,5.5-12.3,12.3-12.3
		h71.8c6.8,0,12.3,5.5,12.3,12.3V952.1z M1248,528.3h-20.8v-22.1h20.8V528.3z M1253,506.2h20.8v22.1H1253V506.2z M1350.3,952.1H1254
		V547.5c0-6.8,5.5-12.3,12.3-12.3h71.7c6.8,0,12.3,5.5,12.3,12.3L1350.3,952.1z M1351.3,528.3h-20.8v-22.1h20.8V528.3z
		 M1356.3,506.2h20.8v22.1h-20.8V506.2z M1453.6,952.1h-96.3V547.5c0-6.8,5.5-12.3,12.3-12.3h71.8c6.8,0,12.3,5.5,12.3,12.3V952.1z
		 M1454.6,528.3h-20.8v-22.1h20.8V528.3z"/>
	<rect y="493.7" class="st1" width="1466.2" height="5"/>
</g>
<g id="Hills">
	<polygon class="st2" points="1860,1400 676.8,1400 1860,18.2 	"/>
	<path class="st1" d="M1860,13.5v10.1L692.4,1386.3c-1.3,1.5-3.5,1.6-4.9,0.4c-1.5-1.3-1.6-3.5-0.4-4.9c0,0,0,0,0,0L1860,13.5z"/>
	<polygon class="st8" points="1369.2,1400 0,1400 0,593.7 	"/>
	<polygon class="st1" points="1375.7,1400 1361.9,1400 0,597.7 0,589.6 	"/>
</g>
<g id="Big_trees">
	<polygon class="st6" points="907.7,1124.2 874.9,1104.9 952,861.8 1000.3,1016.2 1000.3,1016.2 	"/>
	<polygon class="st9" points="952,1017 952,973.3 896.7,1035.8 900.4,1024.1 900.4,1024.1 952,965.9 952,931.2 917.7,968.9 
		921.3,957.5 952,923.8 952,861.8 1000.3,1016.2 952,1072.5 952,1024.5 880,1107.9 875.6,1105.3 	"/>
	<polygon class="st1" points="952.6,861.8 878.8,1107.2 872.6,1103.5 945.3,861.8 	"/>
	<polygon class="st9" points="1201.1,888.2 1306,1358.8 1120.4,1250.1 	"/>
	<polygon class="st10" points="1201.1,1297.4 1201.1,1160.8 1122.8,1251.5 1120.4,1250.1 1121.9,1243.3 1201.1,1151.6 
		1201.1,1073.6 1145.4,1138.1 1148.1,1125.7 1201.1,1064.4 1201.1,998.4 1168,1036.8 1170.7,1024.4 1170.7,1024.4 1201.1,989.3 
		1201.1,888.2 1306,1358.8 	"/>
	<polygon class="st6" points="1122.8,1250.6 1117.9,1249.6 1195.7,887.7 1201.1,888.2 	"/>
	<polygon class="st7" points="440.2,1383.8 409.2,1383.8 408.5,609.1 439.5,609.1 	"/>
	
		<rect x="434.4" y="608.6" transform="matrix(1 -1.221729e-03 1.221729e-03 1 -1.2168 0.5357)" class="st9" width="7" height="775.3"/>
	<path class="st9" d="M528.9,346.2v-1.4c-6.1,6.8-16.5,7.4-23.3,1.4c-3.5-3.1-5.5-7.6-5.5-12.4v-9.8c-5.3,7.4-15.6,9.2-23,3.9
		c-4.3-3.1-6.9-8.1-6.9-13.4v-12.6c-5.3,7.4-15.6,9.1-23,3.7c-2.1-1.5-3.9-3.6-5.1-5.9c9.3,66.6,66.7,118,135.8,118
		c9.1,0,16.5,7.4,16.5,16.5s-7.4,16.5-16.5,16.5c-5.4,0-10.7-0.2-16-0.8v13.1c0,9.1-7.4,16.5-16.5,16.5s-16.5-7.4-16.5-16.5v-1.4
		c-6.1,6.8-16.5,7.4-23.3,1.4c-3.5-3.1-5.5-7.6-5.5-12.4v-9.9c-5.3,7.4-15.6,9.1-23,3.8c-4.3-3.1-6.8-8-6.9-13.3v-12.7
		c-5.3,7.4-15.7,9-23,3.7c-2.3-1.6-4.1-3.8-5.3-6.4c3,23.9,12.2,46.5,26.7,65.8c0.9,0.9,1.7,1.9,2.3,3l0,0
		c25.9,32.7,65.3,51.8,107,51.8c9.1,0,16.5,7.4,16.5,16.5s-7.4,16.5-16.5,16.5c-5.4,0-10.7-0.2-16-0.8v12c0,9.1-7.4,16.5-16.5,16.5
		s-16.5-7.4-16.5-16.5V579c-6.1,6.8-16.5,7.4-23.3,1.4c-3.5-3.1-5.5-7.6-5.5-12.4v-9.8c-5.3,7.4-15.6,9.2-23,3.9
		c-4.4-3.1-7-8.1-6.9-13.5v-3.1c-5.3,7.4-15.7,9-23,3.7c-0.8-0.6-1.5-1.2-2.1-1.9c15.1,59.3,69,103.4,132.9,103.4
		c9.1,0,16.5,7.4,16.5,16.5s-7.4,16.5-16.5,16.5c-4.7,0-9.3-0.2-13.8-0.6v4.4c0,9.1-7.4,16.5-16.6,16.4c-8.4,0-15.4-6.4-16.3-14.7
		c-4.3,8-14.3,11.1-22.3,6.8c-5.4-2.9-8.7-8.5-8.7-14.6v-7.7c-5.3,7.4-15.6,9.2-23,3.9c-4.4-3.1-7-8.1-6.9-13.5v-12.6
		c-5.3,7.4-15.7,9-23,3.7c-4.3-3.1-6.8-8.1-6.8-13.4v-24.6c-2.1,8.9-11,14.4-19.8,12.3c-6.1-1.4-10.8-6.2-12.3-12.3v26.2
		c0,9.1-7.4,16.5-16.5,16.5c-5.3,0-10.3-2.5-13.4-6.8v12.6c0,9.1-7.4,16.5-16.5,16.5c-5.4,0-10.4-2.6-13.5-6.9v7.7
		c-0.1,9.1-7.5,16.5-16.6,16.4c-5.5,0-10.7-2.9-13.7-7.5c-2.2,8.8-11.1,14.3-20,12.1c-7.4-1.8-12.5-8.4-12.5-16v-4.5
		c-4.9,0.4-9.9,0.6-14.9,0.7c-9.1,0-16.5-7.4-16.5-16.5s7.4-16.5,16.5-16.5c62.4,0,115.2-41.9,131.8-99.1c-7,5.9-17.4,5-23.3-1.9
		c-0.3-0.3-0.5-0.6-0.7-1v4.2c0.1,9.1-7.2,16.6-16.3,16.7c-5.4,0.1-10.6-2.6-13.7-7v6.7c0,9.1-7.4,16.5-16.5,16.5
		c-4.7,0-9.2-2-12.4-5.5v1.4c0,9.1-7.4,16.5-16.5,16.5s-16.5-7.4-16.5-16.5v-14.2c-5.3,0.5-10.6,0.8-16,0.8
		c-9.1,0-16.5-7.4-16.5-16.5s7.4-16.5,16.5-16.5c69.1,0,126.5-51.4,135.8-118c-4.1,8.1-14,11.4-22.2,7.3c-2.3-1.2-4.4-2.9-5.9-5
		v12.7c0,9.1-7.4,16.5-16.5,16.5c-5.4,0-10.4-2.6-13.5-6.9v9.9c0,9.1-7.4,16.5-16.5,16.5c-4.7,0-9.2-2-12.4-5.5v1.4
		c0,9.1-7.4,16.5-16.5,16.5s-16.5-7.4-16.5-16.5v-14.2c-5.3,0.5-10.6,0.8-16,0.8c-9.1,0-16.5-7.4-16.5-16.5s7.4-16.5,16.5-16.5
		c68.6,0,125.6-50.7,135.6-116.5c-4.4,8-14.4,11-22.4,6.6c-2.2-1.2-4-2.8-5.5-4.8v12.6c0,9.1-7.4,16.5-16.5,16.5
		c-5.3,0-10.3-2.6-13.4-6.9v9.8c0,9.1-7.4,16.5-16.5,16.5c-4.7,0-9.2-2-12.4-5.5v1.4c0,9.1-7.4,16.5-16.5,16.5s-16.5-7.4-16.5-16.5
		v-14.2c-5.3,0.5-10.6,0.8-16,0.8c-9.1,0-16.5-7.4-16.5-16.5s7.4-16.5,16.5-16.5c68.6,0,125.6-50.7,135.6-116.5
		c-4.4,8-14.4,11-22.4,6.6c-2.2-1.2-4-2.8-5.5-4.8v9.5c0,9.1-7.4,16.5-16.5,16.5c-5.4,0-10.4-2.6-13.5-6.9v9.9
		c0,9.1-7.3,16.5-16.4,16.6c-4.7,0-9.3-2-12.4-5.6c-0.2,9.1-7.7,16.4-16.8,16.2c-9.1-0.2-16.3-7.7-16.2-16.8V217
		c-5.3,0.5-10.6,0.8-16,0.8c-9.1,0-16.5-7.4-16.5-16.5s7.4-16.5,16.5-16.5c75.6,0,137.2-61.5,137.2-137.1v-2.8
		c0-9.1,7.4-16.5,16.5-16.5s16.5,7.4,16.5,16.5v2.8c0.4,75.3,61.8,136.6,137.3,136.6c9.1,0,16.5,7.4,16.5,16.5s-7.4,16.5-16.5,16.5
		c-5.4,0-10.7-0.2-16-0.8v8.8c0,9.1-7.4,16.5-16.5,16.5s-16.5-7.4-16.5-16.5v-1.4c-6.1,6.8-16.5,7.4-23.3,1.4
		c-3.5-3.1-5.5-7.6-5.5-12.4v-8.8c-5.3,7.4-15.6,9.2-23,3.9c-4.4-3.1-7-8.1-6.9-13.5V185c-5.3,7.4-15.6,9-23,3.7
		c-2.1-1.5-3.9-3.6-5.1-5.9c9.3,66.6,66.7,118,135.8,118c9.1,0,16.5,7.4,16.5,16.5s-7.4,16.5-16.5,16.5c-5.4,0-10.7-0.2-16-0.8v13.1
		c0,9.1-7.4,16.5-16.5,16.5S528.8,355.3,528.9,346.2L528.9,346.2z"/>
	<path class="st1" d="M598,206c-1.9,0-3.5-1.6-3.5-3.5l0,0c0-6.3-5.1-11.3-11.4-11.4c-82.6,0-149.7-67.2-149.7-149.7v-0.6
		c0-6.8-5.5-12.3-12.3-12.4c-1.9,0-3.5-1.6-3.5-3.5s1.6-3.5,3.5-3.5c10.7,0,19.3,8.7,19.3,19.4v0.6c0,78.7,64,142.7,142.7,142.7
		c10.1,0,18.3,8.2,18.4,18.4C601.5,204.5,600,206,598,206z"/>
	<path class="st1" d="M589.5,307.8c-39,0-76.2-13.3-104.7-37.5c-28.6-24.3-47-58.5-51.4-95.8c-0.2-1.9,1.2-3.7,3.1-3.9
		c1.9-0.2,3.7,1.2,3.9,3.1c8.8,73.7,71.5,127.2,149.1,127.2c1.9,0,3.5,1.6,3.5,3.5S591.5,307.8,589.5,307.8L589.5,307.8L589.5,307.8
		z"/>
	<path class="st1" d="M588.5,424.5c-82,0-145.3-53.2-154-129.5c-0.2-1.9,1.2-3.7,3.1-3.9c1.9-0.2,3.7,1.2,3.9,3.1
		c8.3,72.6,68.8,123.2,147,123.2c1.9,0,3.5,1.6,3.5,3.5S590.4,424.5,588.5,424.5z"/>
	<path class="st1" d="M587.4,543.2c-39.5,0-76.4-13.1-104.1-36.9c-27.9-24-45.3-58-49.1-95.8c-0.2-1.9,1.2-3.7,3.2-3.8
		c1.9-0.2,3.7,1.2,3.8,3.1c3.6,36,20.2,68.4,46.7,91.2s61.8,35.2,99.5,35.2c1.9,0,3.5,1.6,3.5,3.5S589.4,543.2,587.4,543.2
		L587.4,543.2z"/>
	<path class="st1" d="M587.4,657.7c-38.5,0-73.4-11.5-100.9-33.3c-27.8-22-45.5-52.5-51.2-88.2c-0.4-1.9,0.9-3.7,2.8-4.1
		c1.9-0.4,3.7,0.9,4.1,2.8c0,0.1,0,0.2,0,0.3c5.4,34,22.2,63,48.6,83.8s59.6,31.8,96.5,31.8c1.9,0,3.5,1.6,3.5,3.5
		S589.4,657.7,587.4,657.7L587.4,657.7z"/>
	<rect x="1480.4" y="1090.9" class="st7" width="31" height="309.1"/>
	<rect x="1479.7" y="1090.9" class="st9" width="7" height="309.1"/>
	<path class="st9" d="M1600.1,850.3v-0.2c-6.7,6.5-17.5,6.4-24-0.4c-3.1-3.2-4.8-7.4-4.8-11.8v-8.4c-6.1,7.1-16.8,8-24,1.9
		c-3.8-3.2-6-7.9-6-12.9v-11.2c-6.1,7.1-16.9,7.9-24,1.8c-1-0.9-1.9-1.9-2.7-3c10.4,65.2,66.9,115.1,134.9,115.1c9.4,0,17,7.6,17,17
		s-7.6,17-17,17c-5.2,0-10.4-0.2-15.5-0.7V967c0,9.4-7.6,17-17,17s-17-7.6-17-17v-0.2c-6.7,6.5-17.5,6.4-24-0.4
		c-3.1-3.2-4.8-7.4-4.8-11.8v-8.4c-6.1,7.1-16.8,8-24,1.9c-3.8-3.2-6-7.9-6-12.9v-11.3c-6.1,7.1-16.9,7.9-24,1.8
		c-1.1-1-2.1-2.1-2.9-3.3c9.8,65.8,66.7,116.4,135.2,116.4c9.4,0,17,7.6,17,17s-7.6,17-17,17c-5.2,0-10.4-0.2-15.5-0.7v12.5
		c0,9.4-7.6,17-17,17s-17-7.6-17-17v-0.2c-6.7,6.5-17.5,6.4-24-0.4c-3.1-3.2-4.8-7.4-4.8-11.8v-8.4c-6.1,7.1-16.8,8-24,1.9
		c-3.8-3.2-6-7.9-6-12.9v-1.7c-6.1,7-16.7,7.9-23.8,1.9c15.6,58.3,68.9,101.3,132,101.3c9.4,0,17,7.6,17,17s-7.6,17-17,17
		c-5.2,0-10.4-0.2-15.5-0.7v12.5c0,9.4-7.6,17-17,17s-17-7.6-17-17v-0.2c-6.7,6.5-17.5,6.4-24-0.4c-3.1-3.2-4.8-7.4-4.8-11.8v-8.4
		c-6.1,7.1-16.8,8-24,1.9c-3.8-3.2-6-7.9-6-12.9v-11.2c-6.1,7.1-16.9,7.9-24,1.7c-3.7-3.2-5.9-7.9-5.9-12.9v-21.6
		c-3.8,8.6-13.8,12.5-22.4,8.7c-3.9-1.7-7-4.8-8.7-8.7v23.1c0,9.4-7.6,17-17,17c-4.9,0-9.6-2.1-12.9-5.9v11.2c0,9.4-7.6,17-17,17
		c-5,0-9.7-2.2-12.9-6v8.4c0,9.4-7.6,17-17,17c-4.4,0-8.7-1.7-11.8-4.8v0.2c0,9.4-7.6,17-17,17s-17-7.6-17-17v-13.6
		c-5.1,0.5-10.3,0.7-15.5,0.7c-9.4,0-17-7.6-17-17s7.6-17,17-17c60.3-0.1,113.4-39.6,130.9-97.3c-7.1,5-16.9,3.8-22.6-2.8v2.7
		c0,9.4-7.6,17-17,17c-5,0-9.7-2.2-12.9-6v5.2c0,9.4-7.6,17-17,17c-4.4,0-8.7-1.7-11.8-4.8v0.2c0,9.4-7.6,17-17,17s-17-7.6-17-17
		v-13.6c-5.1,0.5-10.3,0.7-15.5,0.7c-9.4,0-17-7.6-17-17s7.6-17,17-17c68,0,124.6-50,135-115.1c-5.4,7.6-16.1,9.4-23.7,4
		c-1.1-0.8-2.1-1.7-3-2.7v11.2c0,9.4-7.6,17-17,17c-5,0-9.7-2.2-12.9-6v8.4c0,9.4-7.6,17-17,17c-4.4,0-8.7-1.7-11.8-4.8v0.2
		c0,9.4-7.6,17-17,17s-17-7.6-17-17l0,0v-13.6c-5.1,0.5-10.3,0.7-15.5,0.7c-9.4,0-17-7.6-17-17s7.6-17,17-17
		c67.5,0,123.8-49.3,134.7-113.7c-5.6,7.5-16.3,9.1-23.8,3.4c-1-0.7-1.9-1.6-2.7-2.5V820c0,9.4-7.6,17-17,17c-5,0-9.7-2.2-12.9-6
		v8.4c0,9.4-7.6,17-17,17c-4.4,0-8.7-1.7-11.8-4.8v0.2c0,9.4-7.6,17-17,17s-17-7.6-17-17v-13.6c-5.1,0.5-10.3,0.7-15.5,0.7
		c-9.4,0-17-7.6-17-17s7.6-17,17-17c67.5,0,123.8-49.2,134.7-113.7c-5.6,7.5-16.3,9.1-23.8,3.4c-1-0.7-1.9-1.6-2.7-2.5v8
		c0,9.4-7.6,17-17,17c-5,0-9.7-2.2-12.9-6v8.4c0,9.4-7.6,17-17,17c-4.5,0-8.7-1.8-11.9-4.9c-1,9.3-9.4,16.1-18.7,15.1
		c-8.6-0.9-15.1-8.2-15.2-16.9v-8.3c-5.1,0.5-10.3,0.7-15.5,0.7c-9.4,0-17-7.6-17-17c0-9.4,7.6-17,17-17
		c75.3,0,136.7-61.3,136.7-136.7v-2.8c0-9.4,7.6-17,17-17s17,7.6,17,17v2.8c0.3,75.1,61.5,136.2,136.7,136.2c9.4,0,17,7.6,17,17
		s-7.6,17-17,17c-5.2,0-10.4-0.2-15.5-0.7v8.3c0,9.4-7.6,17-17,17s-17-7.6-17-17v-0.2c-6.7,6.5-17.5,6.4-24-0.4
		c-3.1-3.2-4.8-7.4-4.8-11.8v-7.3c-6.1,7.1-16.8,8-24,1.9c-3.8-3.2-6-7.9-6-12.9v-8c-6.1,7.1-16.9,7.9-24,1.7c-1-0.9-1.9-1.9-2.7-3
		c10.4,65.2,66.9,115.1,135,115.1c9.4,0,17,7.6,17,17s-7.6,17-17,17c-5.2,0-10.4-0.2-15.5-0.7v12.5c0,9.4-7.6,17-17,17
		S1600.1,859.6,1600.1,850.3L1600.1,850.3z"/>
	<path class="st1" d="M1322.6,710.5c-1.9,0-3.5-1.6-3.5-3.5c0-10.4,8.4-18.8,18.8-18.8c37.5,0.1,73.4-14.8,99.7-41.5
		c26.4-26.6,41.2-62.7,41-100.2v-1.1c0-8.9,6-16.6,14.6-18.7c1.9-0.5,3.8,0.6,4.3,2.5c0.5,1.9-0.6,3.8-2.5,4.3c0,0-0.1,0-0.1,0
		c-5.5,1.4-9.3,6.3-9.3,11.9v1.1c0.2,39.4-15.3,77.2-43,105.1c-27.6,28-65.3,43.7-104.6,43.6c-6.5,0-11.8,5.3-11.8,11.8
		C1326.1,708.9,1324.6,710.5,1322.6,710.5C1322.6,710.5,1322.6,710.5,1322.6,710.5z"/>
	<path class="st1" d="M1321.9,827.9c-1.9,0-3.5-1.6-3.5-3.5c0-10.8,8.7-19.5,19.5-19.5c37.6,0,70.7-12,95.6-34.8
		c24.6-22.5,39.5-53.8,43.2-90.5c0.2-1.9,1.9-3.3,3.8-3.1c1.9,0.2,3.3,1.9,3.2,3.8c-3.9,38.4-19.6,71.3-45.5,94.9
		c-26.2,24-60.9,36.7-100.3,36.7c-6.9,0-12.5,5.6-12.5,12.5C1325.4,826.3,1323.9,827.9,1321.9,827.9
		C1321.9,827.9,1321.9,827.9,1321.9,827.9z"/>
	<path class="st1" d="M1322.6,941.7c-1.9,0-3.5-1.6-3.5-3.5c0-9.2,7.5-16.7,16.7-16.7c75.8,0,132.7-49,141.7-122
		c0.2-1.9,2-3.3,3.9-3.1c1.9,0.2,3.3,2,3.1,3.9c-4.6,37.3-21.1,69.3-47.9,92.5s-61.7,35.6-100.7,35.6c-5.3,0-9.7,4.3-9.7,9.7
		C1326.2,940.1,1324.6,941.7,1322.6,941.7C1322.7,941.7,1322.6,941.7,1322.6,941.7z"/>
	<path class="st1" d="M1322.6,1059.4c-1.9,0-3.5-1.6-3.5-3.5c0-9.2,7.5-16.7,16.7-16.7c77.3,0,134-50.3,141.1-125.2
		c0.2-1.9,1.9-3.4,3.8-3.2c1.9,0.2,3.4,1.9,3.2,3.8c-7.4,78.7-66.9,131.6-148,131.6c-5.3,0-9.7,4.3-9.7,9.7
		C1326.2,1057.9,1324.6,1059.4,1322.6,1059.4C1322.7,1059.4,1322.6,1059.4,1322.6,1059.4z"/>
	<path class="st1" d="M1322.6,1175c-1.9,0-3.5-1.6-3.5-3.5c0,0,0,0,0,0c0-9.2,7.5-16.7,16.7-16.7c74.7,0,131.5-48.1,141.4-119.7
		c0.3-1.9,2.1-3.2,4-3c1.9,0.3,3.2,2.1,3,4l0,0c-10.4,75.2-70,125.7-148.3,125.7c-5.3,0-9.7,4.3-9.7,9.7
		C1326.1,1173.5,1324.5,1175,1322.6,1175z"/>
</g>
<g id="Small_trees">
	<path class="st3" d="M821.4,684.6v5c-7.6,0-14.8-3.6-19.4-9.6v2.3c0,10.7,8.7,19.4,19.4,19.4v5c-7.6,0-14.8-3.6-19.4-9.7v2.2
		c0,10.7,8.7,19.4,19.4,19.4v5c-7.6,0-14.8-3.6-19.4-9.6v2.2c0,10.7,8.7,19.4,19.4,19.4v5c-7.6,0-14.8-3.6-19.4-9.6v2.3
		c0,10.7,8.7,19.4,19.4,19.4v5c-7.6,0-14.8-3.6-19.4-9.6v2.3l0,0c0,0.2,0,0.4,0,0.6c0.3,10.5,8.9,18.8,19.3,18.8v5
		c-7.6,0-14.8-3.6-19.4-9.6v32.5h-5v-32.5c-4.6,6-11.8,9.6-19.3,9.6v-5c10.3,0,18.8-8.1,19.3-18.4v-3.3c-4.6,6.1-11.8,9.6-19.4,9.6
		v-5c10.7,0,19.4-8.7,19.4-19.4V731c-4.6,6.1-11.8,9.6-19.4,9.6v-5c10.7,0,19.4-8.6,19.4-19.3V714c-4.6,6.1-11.8,9.6-19.4,9.6v-5
		c10.7,0,19.4-8.7,19.4-19.4V697c-4.6,6.1-11.8,9.6-19.4,9.6v-5c10.7,0,19.4-8.7,19.4-19.3V680c-4.6,6-11.8,9.6-19.3,9.6v-5
		c10.3,0,18.8-8.1,19.3-18.4v-1h5C802,676,810.7,684.6,821.4,684.6z"/>
	<path class="st3" d="M855,786.4h-5v-38.4c-4.6,6.1-11.8,9.6-19.4,9.6v-5c10.7,0,19.4-8.7,19.4-19.4v-2.3
		c-4.6,6.1-11.8,9.6-19.4,9.6v-5c10.7,0,19.4-8.7,19.4-19.4V714c-4.6,6.1-11.8,9.6-19.4,9.6v-5c10.7,0,19.4-8.7,19.4-19.4V697
		c-4.6,6.1-11.8,9.6-19.4,9.6v-5c10.7,0,19.4-8.7,19.4-19.3V680c-4.6,6-11.8,9.6-19.3,9.6v-5c10.3,0,18.8-8.1,19.3-18.4v-1h5
		c0,10.7,8.7,19.4,19.4,19.4v5c-7.6,0-14.8-3.6-19.4-9.6v2.3c0,10.7,8.7,19.4,19.4,19.4v5c-7.6,0-14.8-3.6-19.4-9.7v2.2
		c0,10.7,8.7,19.4,19.4,19.4v5c-7.6,0-14.8-3.6-19.4-9.6v2.2c0,10.7,8.7,19.4,19.4,19.4v5c-7.6,0-14.8-3.6-19.4-9.6v2.3
		c0,10.7,8.7,19.4,19.4,19.4v5c-7.6,0-14.8-3.6-19.4-9.6V786.4z"/>
	<path class="st2" d="M759.6,142.3v3.8c0,9,6.2,16.8,15,18.9l-5.6,3.4c-3.7-1.7-6.9-4.2-9.4-7.5v13.1l-5,3v-16.1
		c-4.6,6.1-11.8,9.6-19.4,9.6v-5c10.7,0,19.4-8.7,19.4-19.4v-3.8c-4.6,6.1-11.8,9.6-19.4,9.6v-5c10.7,0,19.4-8.7,19.4-19.4v-3h5v3
		c0,10.7,8.7,19.4,19.4,19.4v5C771.4,151.9,764.2,148.4,759.6,142.3z"/>
	<polygon class="st11" points="904.4,260.4 900.8,266.4 754.4,177 761.2,172.9 	"/>
	<path class="st2" d="M936.2,15v3.7c0,10.7,8.7,19.4,19.4,19.4v5c-7.6,0-14.8-3.6-19.4-9.6v3.7l0,0c0,10.6,8.6,19.2,19.2,19.4
		l-6.7,4c-5-1.5-9.4-4.5-12.5-8.6v16.1l-5,3V52c-4.6,6-11.8,9.6-19.3,9.6v-5c10.3,0,18.8-8.1,19.3-18.4v-4.7
		c-4.6,6.1-11.8,9.6-19.4,9.6v-5c10.7,0,19.4-8.7,19.4-19.4V15c-4.6,6.1-11.8,9.6-19.4,9.6v-5c10.7,0,19.4-8.7,19.4-19.4h5
		c0,10.7,8.7,19.4,19.4,19.4v5C948,24.6,940.8,21,936.2,15z"/>
	<polygon class="st11" points="1076.4,151.3 1072.8,157.3 929.3,72.2 936.1,68.1 	"/>
	<path class="st1" d="M949.1,326.6v3.3l0,0c0,10.7,8.7,19.4,19.4,19.4v5c-7.6,0-14.8-3.6-19.4-9.7v20.4h-5v-20.3
		c-4.6,6-11.8,9.6-19.3,9.6v-5c10.3,0,18.8-8.1,19.3-18.4v-4.2c-4.6,6-11.8,9.6-19.3,9.6v-5c10.3,0,18.8-8.1,19.3-18.4v-3.2
		c-4.6,6.1-11.8,9.6-19.4,9.6v-5c10.7,0,19.4-8.7,19.4-19.4v-2.2c-4.6,6.1-11.8,9.6-19.4,9.6v-5c10.7,0,19.4-8.7,19.4-19.4v-3h5v3
		c0,10.7,8.7,19.4,19.4,19.4v5c-7.6,0-14.8-3.6-19.4-9.6v2.2c0,10.7,8.7,19.4,19.4,19.4v5c-7.6,0-14.8-3.6-19.4-9.6v2.2l0,0
		c0,10.7,8.7,19.4,19.4,19.4v5C960.9,336.3,953.7,332.7,949.1,326.6z"/>
	<path class="st1" d="M1556.7,241.5v2.3c0,10.7,8.7,19.4,19.4,19.4v5c-7.6,0-14.8-3.6-19.4-9.6v2.3c0,10.7,8.7,19.4,19.4,19.4v5
		c-7.6,0-14.8-3.6-19.4-9.6v2.2c0,10.7,8.7,19.4,19.4,19.4v5c-7.6,0-14.8-3.6-19.4-9.6v2.2c0,10.7,8.7,19.4,19.4,19.4v5
		c-7.6,0-14.8-3.6-19.4-9.6v2.2l0,0c0,10.7,8.7,19.4,19.4,19.4v5c-7.6,0-14.8-3.6-19.4-9.6v3.3l0,0c0,10.7,8.7,19.4,19.4,19.4v5
		c-7.6,0-14.8-3.6-19.4-9.6v20.4h-5v-20.4c-4.6,6-11.8,9.6-19.3,9.6v-5c10.3,0,18.8-8.1,19.3-18.4v-4.2c-4.6,6-11.8,9.6-19.3,9.6v-5
		c10.3,0,18.8-8.1,19.3-18.4v-3.2c-4.6,6.1-11.8,9.6-19.4,9.6v-5c10.7,0,19.4-8.7,19.4-19.4v-2.2c-4.6,6.1-11.8,9.6-19.4,9.6v-5
		c10.7,0,19.4-8.7,19.4-19.4v-2.2c-4.6,6.1-11.8,9.6-19.4,9.6v-5c10.7,0,19.4-8.7,19.4-19.4v-2.3c-4.6,6.1-11.8,9.6-19.4,9.6v-5
		c10.7,0,19.4-8.7,19.4-19.4v-2.2c-4.6,6-11.8,9.6-19.3,9.6v-5c10.3,0,18.8-8.1,19.3-18.4v-1h5c0,10.7,8.7,19.4,19.4,19.4v5
		C1568.4,251.2,1561.3,247.6,1556.7,241.5z"/>
	<path class="st1" d="M1629.8,186.5v2.3c0,10.7,8.7,19.4,19.4,19.4v5c-7.6,0-14.8-3.6-19.4-9.6v2.3c0,10.7,8.7,19.4,19.4,19.4v5
		c-7.6,0-14.8-3.6-19.4-9.6v2.3c0,10.7,8.7,19.4,19.4,19.4v5c-7.6,0-14.8-3.6-19.4-9.6v2.3c0,10.7,8.7,19.4,19.4,19.4v5
		c-7.6,0-14.8-3.6-19.4-9.6v2.3l0,0c0,0.4,0,0.8,0,1.2v30l-5,5.8v-22.3c-4.6,6-11.8,9.6-19.3,9.6v-5c10.3,0,18.8-8.1,19.3-18.4v-3.3
		c-4.6,6.1-11.8,9.6-19.4,9.6v-5c10.7,0,19.4-8.7,19.4-19.4v-2.3c-4.6,6.1-11.8,9.6-19.4,9.6v-5c10.7,0,19.4-8.7,19.4-19.4v-2.3
		c-4.6,6.1-11.8,9.6-19.4,9.6v-5c10.7,0,19.4-8.7,19.4-19.4v-2.3c-4.6,6.1-11.8,9.6-19.4,9.6v-5c10.7,0,19.4-8.7,19.4-19.4v-2.2
		c-4.6,6-11.8,9.6-19.3,9.6v-5c10.3,0,18.8-8.1,19.3-18.4v-1h5c0,10.7,8.7,19.4,19.4,19.4v5C1641.6,196.2,1634.4,192.6,1629.8,186.5
		z"/>
	<path class="st8" d="M1240.7,241.5v2.3c0,10.7,8.7,19.4,19.4,19.4v5c-7.6,0-14.8-3.6-19.4-9.6v2.3c0,10.7,8.7,19.4,19.4,19.4v5
		c-7.6,0-14.8-3.6-19.4-9.6v2.2c0,10.7,8.7,19.4,19.4,19.4v5c-7.6,0-14.8-3.6-19.4-9.6v2.2c0,10.7,8.7,19.4,19.4,19.4v5
		c-7.6,0-14.8-3.6-19.4-9.6v2.2l0,0c0,10.7,8.7,19.4,19.4,19.4v5c-7.6,0-14.8-3.6-19.4-9.7v3.3l0,0c0,10.7,8.7,19.4,19.4,19.4v5
		c-7.6,0-14.8-3.6-19.4-9.7v20.4h-5v-20.3c-4.6,6-11.8,9.6-19.3,9.6v-5c10.3,0,18.8-8.1,19.3-18.4v-4.2c-4.6,6-11.8,9.6-19.3,9.6v-5
		c10.3,0,18.8-8.1,19.3-18.4v-3.2c-4.6,6-11.8,9.6-19.4,9.6v-5c10.7,0,19.4-8.7,19.4-19.4v-2.2c-4.6,6-11.8,9.6-19.4,9.6v-5
		c10.7,0,19.4-8.7,19.4-19.4v-2.2c-4.6,6.1-11.8,9.6-19.4,9.6v-5c10.7,0,19.4-8.7,19.4-19.4v-2.2c-4.6,6.1-11.8,9.6-19.4,9.6v-5
		c10.7,0,19.4-8.7,19.4-19.4v-2.2c-4.6,6-11.8,9.6-19.3,9.6v-5c10.3,0,18.8-8.1,19.3-18.4v-1h5c0,10.7,8.7,19.4,19.4,19.4v5
		C1252.4,251.2,1245.3,247.6,1240.7,241.5z"/>
	<path class="st8" d="M1180.6,241.5v2.3c0,10.7,8.7,19.4,19.4,19.4v5c-7.6,0-14.8-3.6-19.4-9.6v2.3c0,10.7,8.7,19.4,19.4,19.4v5
		c-7.6,0-14.8-3.6-19.4-9.6v2.2c0,10.7,8.7,19.4,19.4,19.4v5c-7.6,0-14.8-3.6-19.4-9.6v2.2c0,10.7,8.7,19.4,19.4,19.4v5
		c-7.6,0-14.8-3.6-19.4-9.6v2.2l0,0c0,10.7,8.7,19.4,19.4,19.4c0,0,0,0,0,0v5c-7.6,0-14.8-3.6-19.4-9.6v3.3l0,0
		c0,10.7,8.7,19.4,19.4,19.4v5c-7.6,0-14.8-3.6-19.4-9.6v20.4h-5v-20.3c-4.6,6-11.8,9.6-19.3,9.6v-5c10.3,0,18.8-8.1,19.3-18.4v-4.2
		c-4.6,6-11.8,9.6-19.3,9.6v-5c10.3,0,18.8-8.1,19.3-18.4v-3.2c-4.6,6.1-11.8,9.6-19.4,9.6v-5c10.7,0,19.4-8.7,19.4-19.4v-2.2
		c-4.6,6.1-11.8,9.6-19.4,9.6v-5c10.7,0,19.4-8.7,19.4-19.4v-2.2c-4.6,6.1-11.8,9.6-19.4,9.6v-5c10.7,0,19.4-8.7,19.4-19.4v-2.3
		c-4.6,6.1-11.8,9.6-19.4,9.6v-5c10.7,0,19.4-8.7,19.4-19.4v-2.2c-4.6,6-11.8,9.6-19.3,9.6v-5c10.3,0,18.8-8.1,19.3-18.4v-1h5
		c0,10.7,8.7,19.4,19.4,19.4v5C1192.4,251.2,1185.2,247.6,1180.6,241.5z"/>
	<path class="st8" d="M1498.2,241.5v2.3c0,10.7,8.7,19.4,19.4,19.4v5c-7.6,0-14.8-3.6-19.4-9.6v2.3c0,10.7,8.7,19.4,19.4,19.4v5
		c-7.6,0-14.8-3.6-19.4-9.6v2.2c0,10.7,8.7,19.4,19.4,19.4v5c-7.6,0-14.8-3.6-19.4-9.6v2.2c0,10.7,8.7,19.4,19.4,19.4v5
		c-7.6,0-14.8-3.6-19.4-9.6v2.2l0,0c0,10.7,8.7,19.4,19.4,19.4v5c-7.6,0-14.8-3.6-19.4-9.6v3.3l0,0c0,10.7,8.7,19.4,19.4,19.4v5
		c-7.6,0-14.8-3.6-19.4-9.6v20.4h-5v-20.4c-4.6,6-11.8,9.6-19.3,9.6v-5c10.3,0,18.8-8.1,19.3-18.4v-4.2c-4.6,6-11.8,9.6-19.3,9.6v-5
		c10.3,0,18.8-8.1,19.3-18.4v-3.2c-4.6,6.1-11.8,9.6-19.4,9.6v-5c10.7,0,19.4-8.7,19.4-19.4v-2.2c-4.6,6.1-11.8,9.6-19.4,9.6v-5
		c10.7,0,19.4-8.7,19.4-19.4v-2.2c-4.6,6.1-11.8,9.6-19.4,9.6v-5c10.7,0,19.4-8.7,19.4-19.4v-2.3c-4.6,6.1-11.8,9.6-19.4,9.6v-5
		c10.7,0,19.4-8.7,19.4-19.4v-2.2c-4.6,6-11.8,9.6-19.3,9.6v-5c10.3,0,18.8-8.1,19.3-18.4v-1h5c0,10.7,8.7,19.4,19.4,19.4v5
		C1509.9,251.2,1502.8,247.6,1498.2,241.5z"/>
	<path class="st1" d="M724.9,184v5c-7.6,0-14.8-3.6-19.4-9.6v27l-5,3v-30c-4.6,6-11.8,9.6-19.3,9.6v-5c10.3,0,18.8-8.1,19.3-18.4
		v-4.8c-4.6,6.1-11.8,9.6-19.4,9.6v-5c10.7,0,19.4-8.7,19.4-19.4v-3.8c-4.6,6.1-11.8,9.6-19.4,9.6v-5c10.7,0,19.4-8.7,19.4-19.4v-3
		h5v3c0,10.7,8.7,19.4,19.4,19.4v5c-7.6,0-14.8-3.5-19.4-9.6v3.8c0,10.7,8.7,19.4,19.4,19.4v5c-7.6,0-14.8-3.6-19.4-9.6v3.8l0,0
		C705.5,175.3,714.1,184,724.9,184C724.9,184,724.9,184,724.9,184z"/>
	<polygon class="st11" points="872.7,304.9 869.1,310.9 699.1,210.1 706,206 	"/>
</g>
<g id="Bushes">
	<path class="st4" d="M1116.9,1400H997.1c5.7-25.3,30.3-44.4,59.9-44.4S1111.2,1374.7,1116.9,1400z"/>
	<path class="st4" d="M944.2,1360.8c0.8,20.7,17.6,37.3,38.4,37.6C981.8,1377.7,965,1361.2,944.2,1360.8z"/>
	<circle class="st5" cx="990.4" cy="1334.8" r="11.9"/>
	<path class="st4" d="M599.3,1371.2v28.8H0v-255.4c0-89.5,72.5-162,162-162c94.1,0,170.5,76.3,170.5,170.4v28.1
		c0,17.2-2.6,34.4-7.7,50.8h135.1C536.9,1231.9,599.3,1294.2,599.3,1371.2C599.3,1371.2,599.3,1371.2,599.3,1371.2z"/>
	<path class="st9" d="M211.6,1271.6c-3.4,23.1,11.9,44.9,34.8,49.5C249.8,1298,234.5,1276.3,211.6,1271.6z"/>
	<path class="st9" d="M296.8,1273.5c-23.1,3.5-39.5,24.4-37.3,47.7C282.6,1317.8,299,1296.8,296.8,1273.5z"/>
	<path class="st9" d="M35.2,1140.6c-16.1,17-16.1,43.6,0,60.6C51.3,1184.2,51.3,1157.6,35.2,1140.6z"/>
	<path class="st9" d="M103.8,1191.2c-20.9-10.5-46.4-2.7-57.9,17.6C66.7,1219.2,92.2,1211.5,103.8,1191.2z"/>
	<path class="st4" d="M499.9,1168.6c-23.3-1.5-43.8,15.5-46.5,38.7C476.7,1208.8,497.2,1191.8,499.9,1168.6z"/>
	<circle class="st5" cx="255.9" cy="1259" r="11.2"/>
	<circle class="st5" cx="177.3" cy="1070.7" r="11.2"/>
	<circle class="st5" cx="76" cy="1151.8" r="11.2"/>
	<circle class="st5" cx="76" cy="1346.7" r="11.2"/>
	<circle class="st5" cx="511.9" cy="1297.9" r="11.2"/>
	<path class="st4" d="M1860,1254.4V1400h-302.3v-25.2c0-35.9,29.1-65,65-65l0,0h78.7c-1.3-5.9-2-11.9-2-18V1260
		c0-45.9,37.2-83.1,83.1-83.1l0,0C1825.3,1176.9,1860,1211.6,1860,1254.4L1860,1254.4z"/>
	<path class="st9" d="M1814.5,1323.2c9.8,10.3,9.8,26.5,0,36.9C1804.7,1349.7,1804.7,1333.5,1814.5,1323.2z"/>
	<path class="st9" d="M1772.7,1354c12.7-6.4,28.2-1.7,35.3,10.7C1795.3,1371.1,1779.8,1366.4,1772.7,1354z"/>
	<path class="st4" d="M1657.6,1271.2c17.1-1.1,32,11.3,34,28.3C1674.6,1300.6,1659.6,1288.2,1657.6,1271.2z"/>
	<circle class="st5" cx="1784.6" cy="1323.2" r="11.9"/>
	<circle class="st5" cx="1612.2" cy="1370.1" r="11.9"/>
	<rect x="355.8" y="1146.3" class="st1" width="5" height="253.7"/>
	<rect x="387.9" y="1257.8" class="st1" width="5" height="142.2"/>
	<rect x="336.5" y="1337.2" class="st1" width="5" height="62.8"/>
	<rect x="1119.2" y="1310.1" class="st1" width="5" height="89.9"/>
	<rect x="1134.3" y="1351.6" class="st1" width="5" height="47.8"/>
</g>
<g id="Snow">
	<polygon class="st1" points="689.3,1080.3 681.8,1084.6 689.3,1088.9 687.8,1091.6 680.3,1087.2 680.3,1095.9 677.3,1095.9 
		677.3,1087.2 669.9,1091.6 668.4,1088.9 675.8,1084.6 668.4,1080.3 669.9,1077.7 677.3,1082 677.3,1073.4 680.3,1073.4 680.3,1082 
		687.8,1077.7 	"/>
	<polygon class="st1" points="56.3,919.4 48.8,923.7 56.3,928 54.8,930.6 47.3,926.3 47.3,934.9 44.3,934.9 44.3,926.3 36.9,930.6 
		35.4,928 42.8,923.7 35.4,919.4 36.9,916.8 44.3,921.1 44.3,912.5 47.3,912.5 47.3,921.1 54.8,916.8 	"/>
	<polygon class="st1" points="85.3,54.8 77.8,59.1 85.3,63.4 83.8,66 76.3,61.7 76.3,70.3 73.3,70.3 73.3,61.7 65.8,66 64.3,63.4 
		71.8,59.1 64.3,54.8 65.8,52.2 73.3,56.5 73.3,47.9 76.3,47.9 76.3,56.5 83.8,52.2 	"/>
	<polygon class="st1" points="146.7,393.7 139.2,398 146.7,402.3 145.2,404.9 137.7,400.6 137.7,409.2 134.7,409.2 134.7,400.6 
		127.2,404.9 125.7,402.3 133.2,398 125.7,393.7 127.2,391.1 134.7,395.4 134.7,386.8 137.7,386.8 137.7,395.4 145.2,391.1 	"/>
	<polygon class="st1" points="406.5,270.9 399,275.2 406.5,279.5 405,282.1 397.5,277.8 397.5,286.4 394.5,286.4 394.5,277.8 
		387,282.1 385.5,279.5 393,275.2 385.5,270.9 387,268.3 394.5,272.6 394.5,264 397.5,264 397.5,272.6 405,268.3 	"/>
	<polygon class="st1" points="277.5,107.7 270.1,112 277.5,116.4 276,119 268.6,114.6 268.6,123.3 265.6,123.3 265.6,114.6 
		258.1,119 256.6,116.4 264.1,112 256.6,107.7 258.1,105.1 265.6,109.4 265.6,100.8 268.6,100.8 268.6,109.4 276,105.1 	"/>
	<polygon class="st1" points="632.3,735.9 624.8,740.2 632.3,744.5 630.8,747.1 623.3,742.8 623.3,751.4 620.3,751.4 620.3,742.8 
		612.9,747.1 611.4,744.5 618.8,740.2 611.4,735.9 612.9,733.3 620.3,737.6 620.3,729 623.3,729 623.3,737.6 630.8,733.3 	"/>
	<polygon class="st1" points="1440.5,1042.5 1433,1046.8 1440.5,1051.1 1439,1053.7 1431.5,1049.4 1431.5,1058 1428.5,1058 
		1428.5,1049.4 1421,1053.7 1419.5,1051.1 1427,1046.8 1419.5,1042.5 1421,1039.9 1428.5,1044.2 1428.5,1035.6 1431.5,1035.6 
		1431.5,1044.2 1439,1039.9 	"/>
	<polygon class="st1" points="1766,700 1773.5,704.3 1772,706.9 1764.5,702.6 1764.5,711.2 1761.5,711.2 1761.5,702.6 1754,706.9 
		1752.5,704.3 1760,700 1752.5,695.7 1754,693.1 1761.5,697.4 1761.5,688.8 1764.5,688.8 1764.5,697.4 1772,693.1 1773.5,695.7 	"/>
	<polygon class="st1" points="1625.9,904.8 1618.4,909.1 1625.9,913.4 1624.4,916.1 1616.9,911.7 1616.9,920.4 1613.9,920.4 
		1613.9,911.7 1606.4,916.1 1604.9,913.4 1612.4,909.1 1604.9,904.8 1606.4,902.2 1613.9,906.5 1613.9,897.9 1616.9,897.9 
		1616.9,906.5 1624.4,902.2 	"/>
	<polygon class="st1" points="1120.2,596 1120.2,587.4 1112.8,591.7 1111.3,589.1 1118.8,584.8 1111.3,580.5 1112.8,577.9 
		1120.2,582.2 1120.2,573.6 1123.2,573.6 1123.2,582.2 1130.7,577.9 1132.2,580.5 1124.8,584.8 1132.2,589.1 1130.7,591.7 
		1123.2,587.4 1123.2,596 	"/>
	<polygon class="st1" points="859.7,23.5 852.2,27.8 859.7,32.1 858.2,34.7 850.7,30.4 850.7,39 847.7,39 847.7,30.4 840.2,34.7 
		838.7,32.1 846.2,27.8 838.7,23.5 840.2,20.9 847.7,25.2 847.7,16.5 850.7,16.5 850.7,25.2 858.2,20.9 	"/>
	<polygon class="st1" points="1141.4,1139.7 1134,1144 1141.4,1148.3 1139.9,1150.9 1132.5,1146.6 1132.5,1155.2 1129.5,1155.2 
		1129.5,1146.6 1122,1150.9 1120.5,1148.3 1128,1144 1120.5,1139.7 1122,1137.1 1129.5,1141.4 1129.5,1132.7 1132.5,1132.7 
		1132.5,1141.4 1139.9,1137.1 	"/>
	<polygon class="st1" points="887.2,892.8 879.7,897.1 887.2,901.4 885.7,904 878.2,899.7 878.2,908.3 875.2,908.3 875.2,899.7 
		867.8,904 866.3,901.4 873.7,897.1 866.3,892.8 867.8,890.2 875.2,894.5 875.2,885.9 878.2,885.9 878.2,894.5 885.7,890.2 	"/>
	<polygon class="st1" points="1377.4,1332.9 1369.9,1337.2 1377.4,1341.5 1375.9,1344.1 1368.4,1339.8 1368.4,1348.4 1365.4,1348.4 
		1365.4,1339.8 1358,1344.1 1356.5,1341.5 1363.9,1337.2 1356.5,1332.9 1358,1330.3 1365.4,1334.6 1365.4,1325.9 1368.4,1325.9 
		1368.4,1334.6 1375.9,1330.3 	"/>
	<polygon class="st1" points="1416.6,149.7 1416.6,141.1 1409.2,145.4 1407.7,142.8 1415.1,138.5 1407.7,134.2 1409.2,131.6 
		1416.6,135.9 1416.6,127.3 1419.6,127.3 1419.6,135.9 1427.1,131.6 1428.6,134.2 1421.1,138.5 1428.6,142.8 1427.1,145.4 
		1419.6,141.1 1419.6,149.7 	"/>
	<polygon class="st0" points="1627.1,448.5 1619.7,452.8 1627.1,457.1 1625.6,459.7 1618.2,455.4 1618.2,464 1615.2,464 
		1615.2,455.4 1607.7,459.7 1606.2,457.1 1613.7,452.8 1606.2,448.5 1607.7,445.9 1615.2,450.2 1615.2,441.6 1618.2,441.6 
		1618.2,450.2 1625.6,445.9 	"/>
	<polygon class="st0" points="1150.7,40.3 1143.2,44.6 1150.7,48.9 1149.2,51.5 1141.7,47.2 1141.7,55.8 1138.7,55.8 1138.7,47.2 
		1131.2,51.5 1129.8,48.9 1137.2,44.6 1129.8,40.3 1131.2,37.7 1138.7,42 1138.7,33.4 1141.7,33.4 1141.7,42 1149.2,37.7 	"/>
	<polygon class="st0" points="1819.9,182.7 1827.3,187 1825.8,189.6 1818.4,185.3 1818.4,194 1815.4,194 1815.4,185.3 1807.9,189.6 
		1806.4,187 1813.9,182.7 1806.4,178.4 1807.9,175.8 1815.4,180.1 1815.4,171.5 1818.4,171.5 1818.4,180.1 1825.8,175.8 
		1827.3,178.4 	"/>
	<polygon class="st0" points="1817.6,1170.5 1810.1,1174.8 1817.6,1179.1 1816.1,1181.7 1808.6,1177.4 1808.6,1186 1805.6,1186 
		1805.6,1177.4 1798.2,1181.7 1796.7,1179.1 1804.1,1174.8 1796.7,1170.5 1798.2,1167.9 1805.6,1172.2 1805.6,1163.6 1808.6,1163.6 
		1808.6,1172.2 1816.1,1167.9 	"/>
	<polygon class="st0" points="1047,240.7 1039.6,245 1047,249.3 1045.5,251.9 1038.1,247.6 1038.1,256.2 1035.1,256.2 1035.1,247.6 
		1027.6,251.9 1026.1,249.3 1033.6,245 1026.1,240.7 1027.6,238.1 1035.1,242.4 1035.1,233.8 1038.1,233.8 1038.1,242.4 
		1045.5,238.1 	"/>
	<polygon class="st0" points="288.6,846 281.2,850.3 288.6,854.6 287.1,857.2 279.7,852.9 279.7,861.5 276.7,861.5 276.7,852.9 
		269.2,857.2 267.7,854.6 275.2,850.3 267.7,846 269.2,843.4 276.7,847.7 276.7,839.1 279.7,839.1 279.7,847.7 287.1,843.4 	"/>
	<polygon class="st0" points="832.2,1303.3 824.8,1307.7 832.2,1312 830.7,1314.6 823.3,1310.2 823.3,1318.9 820.3,1318.9 
		820.3,1310.2 812.8,1314.6 811.3,1312 818.8,1307.7 811.3,1303.3 812.8,1300.7 820.3,1305.1 820.3,1296.4 823.3,1296.4 
		823.3,1305.1 830.7,1300.7 	"/>
</g>
</svg>
