<svg width="223" height="181" viewBox="0 0 223 181" fill="none" xmlns="http://www.w3.org/2000/svg">
<g clip-path="url(#clip0_79_829)">
<path d="M190.702 165.568V179.072C190.702 179.584 190.499 180.074 190.137 180.435C189.776 180.796 189.286 181 188.775 181H35.6643C35.1534 180.999 34.6638 180.796 34.3025 180.434C33.9412 180.073 33.7378 179.583 33.7367 179.072V161.966C33.9184 161.773 34.1002 161.583 34.2875 161.393C44.4579 150.851 56.7029 142.53 70.2499 136.957C83.7969 131.383 98.3519 128.678 112.997 129.011C127.642 129.345 142.059 132.709 155.338 138.893C168.618 145.077 180.471 153.946 190.152 164.94C190.339 165.147 190.521 165.359 190.702 165.568Z" fill="#F2B950"/>
<path d="M140.171 17.4225C140.016 17.3289 139.862 17.238 139.708 17.1499H123.615C123.499 17.3317 123.389 17.5162 123.282 17.7007H140.633C140.479 17.607 140.325 17.5162 140.171 17.4225ZM33.7367 71.8015V75.9047C33.8055 75.9102 33.8771 75.9102 33.946 75.9129L33.8083 83.7998L33.7367 83.7612V84.5378L33.7945 84.5681L33.7367 87.8754V99.2761H34.2875V69.9427C34.1332 70.5376 33.9497 71.1572 33.7367 71.8015V71.8015ZM140.171 17.4225C140.016 17.3289 139.862 17.238 139.708 17.1499H123.615C123.499 17.3317 123.389 17.5162 123.282 17.7007H140.633C140.479 17.607 140.325 17.5162 140.171 17.4225ZM188.775 17.1499H35.6643C35.1533 17.1505 34.6633 17.3537 34.3019 17.7151C33.9405 18.0765 33.7373 18.5665 33.7367 19.0776V179.073C33.7378 179.583 33.9412 180.073 34.3025 180.434C34.6638 180.796 35.1534 180.999 35.6643 181H188.775C189.286 181 189.776 180.796 190.137 180.435C190.499 180.074 190.702 179.584 190.702 179.073V19.0776C190.702 18.5665 190.499 18.0765 190.137 17.7151C189.776 17.3537 189.286 17.1505 188.775 17.1499V17.1499ZM190.152 179.073C190.152 179.438 190.006 179.788 189.748 180.046C189.49 180.304 189.14 180.449 188.775 180.449H35.6643C35.2992 180.449 34.9491 180.304 34.6909 180.046C34.4327 179.788 34.2876 179.438 34.2875 179.073V19.0776C34.2881 18.7126 34.4333 18.3627 34.6914 18.1046C34.9495 17.8465 35.2994 17.7013 35.6643 17.7007H188.775C189.14 17.7013 189.49 17.8465 189.748 18.1046C190.006 18.3627 190.151 18.7126 190.152 19.0776V179.073Z" fill="#3F3D56"/>
<path d="M97.2194 159.36L91.758 159.511C90.9284 159.554 90.1077 159.324 89.4212 158.856C88.8281 158.415 88.5561 157.818 88.6753 157.219L89.75 151.818C89.9526 150.8 91.2012 150.029 92.7186 149.987L95.7347 149.904C97.2521 149.862 98.5413 150.562 98.7998 151.569L100.171 156.902C100.323 157.493 100.084 158.104 99.5165 158.577C98.8568 159.082 98.05 159.357 97.2194 159.36Z" fill="#3F3D56"/>
<path d="M130.438 159.205L124.977 159.356C124.147 159.399 123.327 159.169 122.64 158.701C122.047 158.26 121.775 157.664 121.894 157.065L122.969 151.664C123.172 150.645 124.42 149.875 125.938 149.833L128.954 149.749C130.471 149.707 131.76 150.408 132.019 151.414L133.39 156.747C133.542 157.339 133.303 157.949 132.735 158.422C132.076 158.927 131.269 159.202 130.438 159.205Z" fill="#3F3D56"/>
<path d="M78.2554 113.354C78.0058 113.246 77.8005 113.057 77.6733 112.817C77.5462 112.577 77.5048 112.3 77.556 112.033C77.6072 111.767 77.748 111.525 77.9551 111.349C78.1621 111.173 78.423 111.073 78.6946 111.066L140.784 109.352C140.94 109.347 141.096 109.374 141.242 109.43C141.389 109.485 141.522 109.57 141.636 109.677C141.75 109.785 141.841 109.914 141.905 110.057C141.969 110.2 142.004 110.354 142.009 110.51V110.51C142.017 110.826 141.9 111.133 141.682 111.363C141.465 111.592 141.166 111.726 140.85 111.735L140.849 111.735L78.7604 113.45C78.5871 113.455 78.4147 113.422 78.2554 113.354Z" fill="#3F3D56"/>
<path d="M101.169 92.7995L83.4215 93.2896L85.0762 153.211L102.824 152.721L101.169 92.7995Z" fill="#E6E6E6"/>
<path d="M101.62 91.7227L98.208 101.016L98.211 143.358L102.368 144.55L101.62 91.7227Z" fill="#CCCCCC"/>
<path d="M92.2029 77.1397C88.8826 77.234 86.3492 82.9803 86.4102 85.2226L86.5223 89.2821L98.545 88.9501L98.4329 84.8906C98.37 82.6483 95.5234 77.0507 92.2029 77.1397Z" fill="#3F3D56"/>
<path d="M83.6517 118.105C83.0314 118.121 82.4298 117.891 81.9791 117.464C81.5283 117.038 81.2651 116.45 81.2473 115.829L81.0649 109.223C81.0477 108.602 81.2778 108 81.7045 107.549C82.1312 107.098 82.7195 106.835 83.3401 106.818C83.9606 106.801 84.5626 107.031 85.0135 107.458C85.4644 107.885 85.7274 108.473 85.7445 109.094L85.9269 115.7C85.9434 116.32 85.713 116.922 85.2865 117.373C84.86 117.823 84.2721 118.087 83.6517 118.105Z" fill="#3F3D56"/>
<path d="M88.1556 93.4316L88.0716 89.0655L89.2166 89.0371L89.3006 93.3892L90.3385 156.822L89.1932 156.853" fill="#3F3D56"/>
<path d="M103.205 103.642L82.6231 104.21C80.6573 101.813 80.4788 91.5999 84.5813 89.6562L86.1901 86.9244L98.5939 86.3188L100.044 89.1952C102.084 90.9317 103.137 101.081 103.205 103.642Z" fill="#E6E6E6"/>
<path d="M95.458 98.7435L90.2533 98.8872C89.249 98.915 88.3951 97.612 88.3501 95.983C88.3051 94.354 89.0858 93.0059 90.0901 92.9782L95.2948 92.8344C96.2992 92.8067 97.1531 94.1097 97.1981 95.7387C97.243 97.3676 96.4623 98.7158 95.458 98.7435Z" fill="#F2B950"/>
<path d="M85.3792 128.208L74.6507 135.786L72.7765 152.873L85.2919 148.692L85.3792 128.208Z" fill="#E6E6E6"/>
<path d="M135.429 92.0656L117.681 92.5557L119.336 152.477L137.084 151.987L135.429 92.0656Z" fill="#E6E6E6"/>
<path d="M118.107 91.9229L121.758 101.125L122.854 143.453L118.729 144.752L118.107 91.9229Z" fill="#CCCCCC"/>
<path d="M144.305 75.4291C145.59 75.4291 146.631 74.0325 146.631 72.3098C146.631 70.587 145.59 69.1904 144.305 69.1904C143.02 69.1904 141.979 70.587 141.979 72.3098C141.979 74.0325 143.02 75.4291 144.305 75.4291Z" fill="#E6E6E6"/>
<path d="M156.466 121.225C157.75 121.225 158.792 119.828 158.792 118.105C158.792 116.382 157.75 114.986 156.466 114.986C155.181 114.986 154.139 116.382 154.139 118.105C154.139 119.828 155.181 121.225 156.466 121.225Z" fill="#E6E6E6"/>
<path d="M65.9453 112.471C67.23 112.471 68.2715 111.074 68.2715 109.351C68.2715 107.629 67.23 106.232 65.9453 106.232C64.6606 106.232 63.6191 107.629 63.6191 109.351C63.6191 111.074 64.6606 112.471 65.9453 112.471Z" fill="#E6E6E6"/>
<path d="M126.116 76.4151C122.796 76.5094 120.263 82.2556 120.324 84.498L120.436 88.5575L132.459 88.2255L132.346 84.166C132.284 81.9237 129.437 76.326 126.116 76.4151Z" fill="#3F3D56"/>
<path d="M129.554 94.7981L129.47 90.432L130.615 90.4033L130.699 94.7557L131.737 158.188L130.592 158.22" fill="#3F3D56"/>
<path d="M137.118 102.917L116.537 103.486C116.178 101.317 116.642 91.1947 118.495 88.9316L120.104 86.1997L132.507 85.5942L133.957 88.4706C137.619 88.769 138.9 98.7155 137.118 102.917Z" fill="#E6E6E6"/>
<path d="M129.397 98.931L124.192 99.0748C123.188 99.1025 122.328 97.5949 122.276 95.7147C122.224 93.8344 122.999 92.2817 124.004 92.254L129.208 92.1102C130.213 92.0825 131.072 93.59 131.124 95.4703C131.176 97.3506 130.401 98.9033 129.397 98.931Z" fill="#F2B950"/>
<path d="M136.306 123.827L146.678 131.887L147.77 149.042L135.459 144.294L136.306 123.827Z" fill="#E6E6E6"/>
<path d="M133.41 44.369C122.281 44.369 109.491 32.0193 98.1755 37.8869C63.9143 55.6526 68.6306 25.9245 58.7876 14.8684L59.1107 14.2202C66.5623 42.6443 73.3046 87.937 98.3243 37.133C104.592 24.4067 125.161 44.0781 137.269 43.4978L137.29 44.2768C136.012 44.3385 134.718 44.3692 133.41 44.369Z" fill="#F2F2F2"/>
<path d="M160.121 46.1169C151.249 52.8361 133.598 50.7134 128.12 62.223C111.534 97.0708 97.345 70.5251 82.8232 67.6544L82.6895 66.9426C97.2268 68.1484 112.82 66.2776 127.783 61.5321C141.305 57.2441 153.37 50.8652 162.671 43.0923L163.158 43.7007C162.176 44.5219 161.164 45.3273 160.121 46.1169Z" fill="#F2F2F2"/>
<path d="M63.6191 44.5868C64.9038 44.5868 65.9453 43.1903 65.9453 41.4675C65.9453 39.7447 64.9038 38.3481 63.6191 38.3481C62.3343 38.3481 61.2928 39.7447 61.2928 41.4675C61.2928 43.1903 62.3343 44.5868 63.6191 44.5868Z" fill="#E6E6E6"/>
<path d="M135.768 19.2519C137.053 19.2519 138.094 17.8553 138.094 16.1325C138.094 14.4098 137.053 13.0132 135.768 13.0132C134.484 13.0132 133.442 14.4098 133.442 16.1325C133.442 17.8553 134.484 19.2519 135.768 19.2519Z" fill="#E6E6E6"/>
<path d="M61.2928 84.6332C62.5776 84.6332 63.6191 83.2366 63.6191 81.5139C63.6191 79.7911 62.5776 78.3945 61.2928 78.3945C60.0081 78.3945 58.9666 79.7911 58.9666 81.5139C58.9666 83.2366 60.0081 84.6332 61.2928 84.6332Z" fill="#E6E6E6"/>
<path d="M84.9164 57.1766C83.8529 57.8852 82.7644 56.1987 83.8484 55.5215C84.9118 54.813 86.0003 56.4995 84.9164 57.1766Z" fill="#E6E6E6"/>
<path d="M124.296 1.82553C123.232 2.53414 122.144 0.847598 123.227 0.170462C124.291 -0.538104 125.379 1.14844 124.296 1.82553Z" fill="#E6E6E6"/>
<path d="M147.504 34.6429L146.827 34.4945L146.976 33.8176L146.525 33.7188L146.376 34.3956L145.7 34.2475L145.601 34.6985L146.277 34.847L146.129 35.5236L146.58 35.6224L146.729 34.9456L147.405 35.094L147.504 34.6429Z" fill="#E6E6E6"/>
<path d="M85.4849 11.9623C87.1126 11.9623 88.4321 10.6428 88.4321 9.01506C88.4321 7.38737 87.1126 6.06787 85.4849 6.06787C83.8572 6.06787 82.5377 7.38737 82.5377 9.01506C82.5377 10.6428 83.8572 11.9623 85.4849 11.9623Z" fill="#FF6584"/>
<path d="M107.042 5.28474C103.721 5.37905 101.188 11.1253 101.249 13.3676L101.361 17.4271L113.384 17.0952L113.272 13.0356C113.209 10.7933 110.362 5.19567 107.042 5.28474Z" fill="#3F3D56"/>
<path d="M114.201 159.006L108.739 159.157C107.91 159.2 107.089 158.97 106.403 158.502C105.809 158.061 105.537 157.464 105.657 156.865L106.731 151.464C106.934 150.446 108.183 149.675 109.7 149.633L112.716 149.55C114.233 149.508 115.523 150.208 115.781 151.215L117.152 156.548C117.304 157.139 117.066 157.75 116.498 158.223C115.838 158.728 115.031 159.003 114.201 159.006Z" fill="#3F3D56"/>
<path d="M116.636 31.1276L98.8882 31.6177L102.233 152.742L119.981 152.252L116.636 31.1276Z" fill="#E6E6E6"/>
<path d="M109.535 89.7592L109.451 85.3931L110.596 85.3647L110.68 89.7168L111.717 153.149L110.572 153.181" fill="#3F3D56"/>
<path d="M120.13 42.2134L96.0827 42.8775C95.6634 40.343 96.2058 28.5165 98.3707 25.8722L98.9639 22.7158L115.568 22.2573L116.437 25.3336C118.821 27.3626 120.051 39.2212 120.13 42.2134Z" fill="#E6E6E6"/>
<path d="M116.093 22.6298L98.9584 23.103C98.326 23.1204 97.8037 22.7884 97.792 22.3613C97.7904 22.2997 97.7994 22.2384 97.8186 22.1799L100.48 13.9805C100.594 13.6294 101.048 13.3715 101.577 13.3569L112.941 13.0431C113.47 13.0285 113.937 13.2609 114.07 13.6052L117.18 21.6453C117.339 22.0565 116.972 22.4844 116.36 22.6011C116.272 22.6178 116.183 22.6274 116.093 22.6298Z" fill="#E6E6E6"/>
<path d="M100.649 89.2024C100.494 89.1361 100.348 89.0515 100.213 88.9504C100.021 88.8152 99.8613 88.6376 99.7478 88.4314C99.6342 88.2251 99.5694 87.9956 99.5582 87.7604L98.9356 65.213C98.91 64.2797 99.8238 63.4945 100.973 63.4627L116.312 63.0391C117.461 63.0071 118.417 63.741 118.443 64.6744L119.065 87.2218C119.067 87.4572 119.015 87.69 118.913 87.9022C118.811 88.1144 118.662 88.3005 118.477 88.4461C118.067 88.7798 117.557 88.9652 117.028 88.972L101.689 89.3955C101.332 89.4074 100.977 89.3415 100.649 89.2024Z" fill="#3F3D56"/>
<path d="M110.467 21.1784L105.262 21.3221C104.258 21.3499 103.408 20.2152 103.369 18.793C103.33 17.3709 104.115 16.191 105.119 16.1633L110.324 16.0195C111.328 15.9918 112.178 17.1265 112.217 18.5487C112.256 19.9708 111.471 21.1507 110.467 21.1784Z" fill="#F2B950"/>
<path d="M135.869 116.641C135.249 116.657 134.647 116.427 134.196 116.001C133.746 115.574 133.482 114.986 133.465 114.366L133.282 107.759C133.265 107.139 133.496 106.537 133.922 106.087C134.349 105.636 134.937 105.373 135.557 105.356C136.178 105.339 136.779 105.569 137.23 105.995C137.681 106.422 137.944 107.01 137.962 107.63L138.144 114.237C138.161 114.857 137.93 115.458 137.504 115.909C137.077 116.36 136.489 116.623 135.869 116.641Z" fill="#3F3D56"/>
<path d="M50.3806 135.375C47.5591 135.375 45.7247 134.674 44.9129 133.28C43.3118 130.531 45.9933 125.709 52.8826 118.946L53.4613 119.536C47.0618 125.818 44.2794 130.551 45.6266 132.864C46.4791 134.327 49.0161 134.851 52.965 134.38C56.8851 133.912 62.0802 132.517 68.406 130.234C81.4289 125.534 97.7675 117.606 114.412 107.911C131.056 98.2153 146.012 87.9136 156.525 78.9035C158.544 77.1726 160.377 75.5074 161.972 73.9546C164.065 71.9659 165.997 69.8132 167.748 67.517C170.106 64.3152 170.902 61.8494 170.049 60.3862C168.626 57.9423 162.645 58.1722 153.208 61.0342L152.969 60.2435C163.093 57.1733 169.08 57.0812 170.763 59.9704C171.809 61.7655 171.018 64.4694 168.413 68.007C166.635 70.3396 164.674 72.5264 162.548 74.5465C160.941 76.1115 159.095 77.7884 157.062 79.5308C146.513 88.5724 131.514 98.9048 114.828 108.624C98.1416 118.344 81.7548 126.295 68.6864 131.011C62.3018 133.315 57.0452 134.725 53.0629 135.2C52.173 135.311 51.2774 135.369 50.3806 135.375Z" fill="#3F3D56"/>
<path d="M116.559 38.3481L126.93 46.4079L128.022 63.5632L115.711 58.8146L116.559 38.3481Z" fill="#E6E6E6"/>
<path d="M100.891 38.3481L90.5197 46.4079L89.4275 63.5632L101.739 58.8146L100.891 38.3481Z" fill="#E6E6E6"/>
<path d="M106.744 25.8374L106.66 21.4712L107.805 21.4429L107.889 25.7952L108.927 34.1519L107.781 34.1835" fill="#3F3D56"/>
<path d="M54.4955 60.4708C55.5673 60.0559 56.2022 59.1151 55.9136 58.3695C55.625 57.624 54.5222 57.3559 53.4504 57.7708C52.3786 58.1856 51.7437 59.1264 52.0323 59.872C52.321 60.6176 53.4238 60.8856 54.4955 60.4708Z" fill="#E6E6E6"/>
<path d="M67.99 58.7398C69.0618 58.3249 69.6967 57.3842 69.4081 56.6386C69.1195 55.893 68.0167 55.6249 66.9449 56.0398C65.8731 56.4547 65.2382 57.3954 65.5269 58.141C65.8155 58.8866 66.9183 59.1547 67.99 58.7398Z" fill="#E6E6E6"/>
<path d="M53.3252 71.9839C54.397 71.5691 55.0319 70.6283 54.7432 69.8827C54.4546 69.1371 53.3518 68.8691 52.28 69.2839C51.2083 69.6988 50.5734 70.6396 50.862 71.3852C51.1506 72.1307 52.2534 72.3988 53.3252 71.9839Z" fill="#E6E6E6"/>
<path d="M49.4213 77.0622C49.913 76.9459 50.176 76.2785 50.0087 75.5717C49.8414 74.8649 49.3072 74.3863 48.8155 74.5027C48.3238 74.619 48.0608 75.2864 48.2281 75.9932C48.3954 76.7 48.9296 77.1786 49.4213 77.0622Z" fill="#E6E6E6"/>
<path d="M49.341 85.6604C49.8327 85.544 50.0957 84.8767 49.9284 84.1699C49.7611 83.4631 49.2269 82.9844 48.7352 83.1008C48.2435 83.2172 47.9805 83.8845 48.1478 84.5913C48.3151 85.2981 48.8493 85.7768 49.341 85.6604Z" fill="#E6E6E6"/>
<path d="M61.1848 67.8518C61.6765 67.7354 61.9395 67.0681 61.7722 66.3613C61.6049 65.6545 61.0706 65.1758 60.579 65.2922C60.0873 65.4086 59.8243 66.0759 59.9916 66.7827C60.1589 67.4895 60.6931 67.9682 61.1848 67.8518Z" fill="#E6E6E6"/>
<path d="M54.0775 66.1257C54.5692 66.0093 54.8322 65.342 54.6649 64.6352C54.4976 63.9284 53.9634 63.4498 53.4717 63.5661C52.98 63.6825 52.717 64.3498 52.8843 65.0567C53.0516 65.7635 53.5859 66.2421 54.0775 66.1257Z" fill="#E6E6E6"/>
<path d="M61.6107 58.2087C62.1024 58.0924 62.3654 57.425 62.1981 56.7182C62.0308 56.0114 61.4965 55.5328 61.0049 55.6491C60.5132 55.7655 60.2502 56.4328 60.4175 57.1397C60.5848 57.8465 61.119 58.3251 61.6107 58.2087Z" fill="#E6E6E6"/>
<path d="M172.486 99.3135C173.597 99.0177 174.33 98.1517 174.125 97.3791C173.919 96.6065 172.852 96.22 171.741 96.5157C170.631 96.8115 169.897 97.6776 170.103 98.4501C170.309 99.2227 171.376 99.6092 172.486 99.3135Z" fill="#E6E6E6"/>
<path d="M158.883 99.5654C159.994 99.2696 160.728 98.4036 160.522 97.631C160.316 96.8585 159.249 96.4719 158.138 96.7677C157.028 97.0635 156.294 97.9295 156.5 98.7021C156.706 99.4746 157.773 99.8612 158.883 99.5654Z" fill="#E6E6E6"/>
<path d="M174.903 87.9961C176.013 87.7003 176.747 86.8343 176.541 86.0617C176.335 85.2891 175.268 84.9026 174.158 85.1984C173.047 85.4941 172.314 86.3602 172.519 87.1327C172.725 87.9053 173.792 88.2918 174.903 87.9961Z" fill="#E6E6E6"/>
<path d="M178.915 83.1852C179.416 83.1231 179.75 82.4883 179.661 81.7675C179.571 81.0467 179.093 80.5128 178.591 80.5749C178.09 80.6371 177.756 81.2718 177.845 81.9927C177.934 82.7135 178.413 83.2474 178.915 83.1852Z" fill="#E6E6E6"/>
<path d="M179.93 74.6472C180.432 74.585 180.766 73.9503 180.677 73.2294C180.587 72.5086 180.108 71.9747 179.607 72.0368C179.105 72.099 178.771 72.7338 178.861 73.4546C178.95 74.1754 179.429 74.7093 179.93 74.6472Z" fill="#E6E6E6"/>
<path d="M166.219 91.0607C166.72 90.9986 167.054 90.3638 166.965 89.643C166.875 88.9222 166.397 88.3882 165.895 88.4504C165.394 88.5126 165.06 89.1473 165.149 89.8681C165.238 90.589 165.717 91.1229 166.219 91.0607Z" fill="#E6E6E6"/>
<path d="M173.096 93.55C173.597 93.4878 173.931 92.8531 173.842 92.1323C173.753 91.4114 173.274 90.8775 172.772 90.9397C172.271 91.0018 171.937 91.6366 172.026 92.3574C172.115 93.0782 172.594 93.6122 173.096 93.55Z" fill="#E6E6E6"/>
<path d="M164.746 100.6C165.247 100.538 165.581 99.9034 165.492 99.1826C165.402 98.4617 164.923 97.9278 164.422 97.99C163.921 98.0521 163.587 98.6869 163.676 99.4077C163.765 100.129 164.244 100.662 164.746 100.6Z" fill="#E6E6E6"/>
<path d="M197.901 144.088C194.345 144.088 190.448 143.954 186.209 143.685C164.286 142.293 135.887 137.453 106.246 130.056C76.605 122.66 49.262 113.59 29.2543 104.519C19.5079 100.1 12.0277 95.9174 7.0215 92.0865C1.72127 88.031 -0.59712 84.496 0.130453 81.5801C1.5481 75.8993 14.1007 74.6565 24.3814 74.6143L24.3849 75.4404C10.2668 75.4983 1.93777 77.7499 0.932129 81.7802C-0.348891 86.9133 10.0985 94.9269 29.5954 103.767C49.5592 112.818 76.8519 121.87 106.446 129.255C136.04 136.64 164.386 141.472 186.262 142.861C207.625 144.218 220.613 142.052 221.894 136.919C222.958 132.657 215.947 126.378 202.153 119.24L202.532 118.506C212.555 123.693 224.19 131.133 222.696 137.119C221.968 140.035 218.261 142.066 211.677 143.156C207.923 143.777 203.313 144.088 197.901 144.088Z" fill="#F2B950"/>
</g>
<defs>
<clipPath id="clip0_79_829">
<rect width="222.826" height="181" fill="white"/>
</clipPath>
</defs>
</svg>
