<svg width="253" height="181" viewBox="0 0 253 181" fill="none" xmlns="http://www.w3.org/2000/svg">
<path d="M11.6932 36.8526C13.9197 36.8526 15.7246 35.0441 15.7246 32.8133C15.7246 30.5824 13.9197 28.7739 11.6932 28.7739C9.46672 28.7739 7.6618 30.5824 7.6618 32.8133C7.6618 35.0441 9.46672 36.8526 11.6932 36.8526Z" fill="#E6E6E6"/>
<path d="M23.7874 36.8526C26.0139 36.8526 27.8188 35.0441 27.8188 32.8133C27.8188 30.5824 26.0139 28.7739 23.7874 28.7739C21.5609 28.7739 19.756 30.5824 19.756 32.8133C19.756 35.0441 21.5609 36.8526 23.7874 36.8526Z" fill="#E6E6E6"/>
<path d="M35.8816 36.8526C38.1081 36.8526 39.913 35.0441 39.913 32.8133C39.913 30.5824 38.1081 28.7739 35.8816 28.7739C33.6551 28.7739 31.8502 30.5824 31.8502 32.8133C31.8502 35.0441 33.6551 36.8526 35.8816 36.8526Z" fill="#E6E6E6"/>
<path d="M47.9758 36.8526C50.2023 36.8526 52.0072 35.0441 52.0072 32.8133C52.0072 30.5824 50.2023 28.7739 47.9758 28.7739C45.7493 28.7739 43.9444 30.5824 43.9444 32.8133C43.9444 35.0441 45.7493 36.8526 47.9758 36.8526Z" fill="#E6E6E6"/>
<path d="M60.07 36.8526C62.2965 36.8526 64.1014 35.0441 64.1014 32.8133C64.1014 30.5824 62.2965 28.7739 60.07 28.7739C57.8435 28.7739 56.0386 30.5824 56.0386 32.8133C56.0386 35.0441 57.8435 36.8526 60.07 36.8526Z" fill="#E6E6E6"/>
<path d="M72.1642 36.8526C74.3907 36.8526 76.1956 35.0441 76.1956 32.8133C76.1956 30.5824 74.3907 28.7739 72.1642 28.7739C69.9377 28.7739 68.1328 30.5824 68.1328 32.8133C68.1328 35.0441 69.9377 36.8526 72.1642 36.8526Z" fill="#E6E6E6"/>
<path d="M84.2584 36.8526C86.4849 36.8526 88.2898 35.0441 88.2898 32.8133C88.2898 30.5824 86.4849 28.7739 84.2584 28.7739C82.0319 28.7739 80.227 30.5824 80.227 32.8133C80.227 35.0441 82.0319 36.8526 84.2584 36.8526Z" fill="#E6E6E6"/>
<path d="M93.5742 37.7325H2.37744C1.9425 37.732 1.52551 37.5586 1.21795 37.2504C0.910395 36.9423 0.737389 36.5245 0.736877 36.0887V29.5383C0.737388 29.1025 0.910395 28.6847 1.21795 28.3766C1.52551 28.0684 1.94249 27.895 2.37744 27.8945H93.5742C94.0091 27.895 94.4261 28.0684 94.7337 28.3766C95.0412 28.6847 95.2143 29.1025 95.2148 29.5383V36.0887C95.2143 36.5245 95.0412 36.9423 94.7337 37.2504C94.4261 37.5586 94.0091 37.732 93.5742 37.7325V37.7325ZM2.37744 28.5521C2.11647 28.5523 1.86626 28.6563 1.68173 28.8413C1.49719 29.0262 1.39339 29.2768 1.3931 29.5383V36.0887C1.39339 36.3502 1.49719 36.6009 1.68173 36.7858C1.86626 36.9707 2.11647 37.0747 2.37744 37.0749H93.5742C93.8352 37.0747 94.0854 36.9707 94.2699 36.7858C94.4545 36.6009 94.5583 36.3502 94.5585 36.0887V29.5383C94.5583 29.2768 94.4545 29.0261 94.2699 28.8412C94.0854 28.6563 93.8352 28.5523 93.5742 28.5521L2.37744 28.5521Z" fill="#E6E6E6"/>
<path d="M21.8941 0.944463C22.144 0.944749 22.3836 1.04435 22.5603 1.2214C22.737 1.39846 22.8364 1.63852 22.8367 1.88891V22.3552C22.8364 22.6056 22.737 22.8457 22.5603 23.0228C22.3836 23.1998 22.144 23.2994 21.8941 23.2997H1.88522C1.63532 23.2994 1.39573 23.1998 1.21902 23.0228C1.04231 22.8457 0.942909 22.6056 0.942623 22.3552V1.88893C0.942909 1.63853 1.04231 1.39847 1.21902 1.22142C1.39573 1.04436 1.63532 0.944763 1.88522 0.944476H21.8941M21.8941 1.35656e-05H1.88522C1.38523 1.35656e-05 0.905717 0.199025 0.55217 0.553268C0.198624 0.907511 0 1.38797 0 1.88894V22.3552C0 22.8562 0.198624 23.3367 0.55217 23.6909C0.905717 24.0452 1.38523 24.2442 1.88522 24.2442H21.8941C22.3941 24.2442 22.8736 24.0452 23.2271 23.6909C23.5807 23.3367 23.7793 22.8562 23.7793 22.3552V1.88893C23.7793 1.38796 23.5807 0.907497 23.2271 0.553254C22.8736 0.199011 22.3941 7.85953e-07 21.8941 0V1.35656e-05Z" fill="#E6E6E6"/>
<path d="M18.7731 6.32434H5.42335C5.36122 6.32472 5.29962 6.31279 5.24211 6.28923C5.18459 6.26567 5.1323 6.23095 5.08822 6.18706C5.04415 6.14317 5.00918 6.09099 4.98531 6.0335C4.96144 5.97602 4.94916 5.91438 4.94916 5.85212C4.94916 5.78986 4.96144 5.72822 4.98531 5.67073C5.00918 5.61325 5.04415 5.56106 5.08822 5.51718C5.1323 5.47329 5.18459 5.43856 5.24211 5.415C5.29962 5.39144 5.36122 5.37951 5.42335 5.37989H18.7731C18.8353 5.37951 18.8969 5.39144 18.9544 5.415C19.0119 5.43856 19.0642 5.47329 19.1083 5.51718C19.1523 5.56106 19.1873 5.61325 19.2112 5.67073C19.235 5.72822 19.2473 5.78986 19.2473 5.85212C19.2473 5.91438 19.235 5.97602 19.2112 6.0335C19.1873 6.09099 19.1523 6.14317 19.1083 6.18706C19.0642 6.23095 19.0119 6.26567 18.9544 6.28923C18.8969 6.31279 18.8353 6.32472 18.7731 6.32434V6.32434Z" fill="#F2B950"/>
<path d="M18.7731 9.66809H5.42335C5.36122 9.66847 5.29962 9.65654 5.24211 9.63298C5.18459 9.60942 5.1323 9.5747 5.08822 9.53081C5.04415 9.48692 5.00918 9.43473 4.98531 9.37725C4.96144 9.31977 4.94916 9.25812 4.94916 9.19586C4.94916 9.13361 4.96144 9.07196 4.98531 9.01448C5.00918 8.957 5.04415 8.90481 5.08822 8.86093C5.1323 8.81704 5.18459 8.78231 5.24211 8.75875C5.29962 8.73519 5.36122 8.72326 5.42335 8.72364H18.7731C18.8353 8.72326 18.8969 8.73519 18.9544 8.75875C19.0119 8.78231 19.0642 8.81704 19.1083 8.86093C19.1523 8.90481 19.1873 8.957 19.2112 9.01448C19.235 9.07196 19.2473 9.13361 19.2473 9.19586C19.2473 9.25812 19.235 9.31977 19.2112 9.37725C19.1873 9.43473 19.1523 9.48692 19.1083 9.53081C19.0642 9.5747 19.0119 9.60942 18.9544 9.63298C18.8969 9.65654 18.8353 9.66847 18.7731 9.66809V9.66809Z" fill="#F2B950"/>
<path d="M18.7731 13.0123H5.42335C5.36122 13.0127 5.29962 13.0008 5.24211 12.9772C5.18459 12.9537 5.1323 12.9189 5.08822 12.875C5.04415 12.8312 5.00918 12.779 4.98531 12.7215C4.96144 12.664 4.94916 12.6024 4.94916 12.5401C4.94916 12.4778 4.96144 12.4162 4.98531 12.3587C5.00918 12.3012 5.04415 12.249 5.08822 12.2052C5.1323 12.1613 5.18459 12.1265 5.24211 12.103C5.29962 12.0794 5.36122 12.0675 5.42335 12.0679H18.7731C18.8353 12.0675 18.8969 12.0794 18.9544 12.103C19.0119 12.1265 19.0642 12.1613 19.1083 12.2052C19.1523 12.249 19.1873 12.3012 19.2112 12.3587C19.235 12.4162 19.2473 12.4778 19.2473 12.5401C19.2473 12.6024 19.235 12.664 19.2112 12.7215C19.1873 12.779 19.1523 12.8312 19.1083 12.875C19.0642 12.9189 19.0119 12.9537 18.9544 12.9772C18.8969 13.0008 18.8353 13.0127 18.7731 13.0123V13.0123Z" fill="#F2B950"/>
<path d="M18.7731 16.3566H5.42335C5.36122 16.3569 5.29962 16.345 5.24211 16.3215C5.18459 16.2979 5.1323 16.2632 5.08822 16.2193C5.04415 16.1754 5.00918 16.1232 4.98531 16.0657C4.96144 16.0082 4.94916 15.9466 4.94916 15.8843C4.94916 15.8221 4.96144 15.7604 4.98531 15.703C5.00918 15.6455 5.04415 15.5933 5.08822 15.5494C5.1323 15.5055 5.18459 15.4708 5.24211 15.4472C5.29962 15.4237 5.36122 15.4117 5.42335 15.4121H18.7731C18.8353 15.4117 18.8969 15.4237 18.9544 15.4472C19.0119 15.4708 19.0642 15.5055 19.1083 15.5494C19.1523 15.5933 19.1873 15.6455 19.2112 15.703C19.235 15.7604 19.2473 15.8221 19.2473 15.8843C19.2473 15.9466 19.235 16.0082 19.2112 16.0657C19.1873 16.1232 19.1523 16.1754 19.1083 16.2193C19.0642 16.2632 19.0119 16.2979 18.9544 16.3215C18.8969 16.345 18.8353 16.3569 18.7731 16.3566V16.3566Z" fill="#F2B950"/>
<path d="M18.7732 19.7003H5.42339C5.29839 19.7003 5.17851 19.6506 5.09013 19.562C5.00174 19.4735 4.95209 19.3533 4.95209 19.2281C4.95209 19.1029 5.00174 18.9827 5.09013 18.8942C5.17851 18.8056 5.29839 18.7559 5.42339 18.7559H18.7732C18.8982 18.7559 19.018 18.8056 19.1064 18.8942C19.1948 18.9827 19.2445 19.1029 19.2445 19.2281C19.2445 19.3533 19.1948 19.4735 19.1064 19.562C19.018 19.6506 18.8982 19.7003 18.7732 19.7003V19.7003Z" fill="#F2B950"/>
<path d="M90.2331 0.944463C90.483 0.944749 90.7226 1.04435 90.8993 1.2214C91.076 1.39846 91.1754 1.63852 91.1757 1.88891V22.3552C91.1754 22.6056 91.076 22.8457 90.8993 23.0228C90.7226 23.1998 90.483 23.2994 90.2331 23.2997H70.2243C69.9744 23.2994 69.7348 23.1998 69.5581 23.0228C69.3814 22.8457 69.282 22.6056 69.2817 22.3552V1.88893C69.282 1.63853 69.3814 1.39847 69.5581 1.22142C69.7348 1.04436 69.9744 0.944763 70.2243 0.944476H90.2331M90.2331 1.35656e-05H70.2243C69.7243 1.35656e-05 69.2448 0.199025 68.8912 0.553268C68.5377 0.907511 68.3391 1.38797 68.3391 1.88894V22.3552C68.3391 22.8562 68.5377 23.3367 68.8912 23.6909C69.2448 24.0452 69.7243 24.2442 70.2243 24.2442H90.2331C90.7331 24.2442 91.2126 24.0452 91.5662 23.6909C91.9197 23.3367 92.1184 22.8562 92.1184 22.3552V1.88893C92.1184 1.38795 91.9197 0.907497 91.5662 0.553254C91.2126 0.199011 90.7331 0 90.2331 0V1.35656e-05Z" fill="#E6E6E6"/>
<path d="M87.1122 6.32434H73.7624C73.7003 6.32472 73.6387 6.31279 73.5812 6.28923C73.5236 6.26567 73.4713 6.23095 73.4273 6.18706C73.3832 6.14317 73.3482 6.09099 73.3244 6.0335C73.3005 5.97602 73.2882 5.91438 73.2882 5.85212C73.2882 5.78986 73.3005 5.72822 73.3244 5.67073C73.3482 5.61325 73.3832 5.56106 73.4273 5.51718C73.4713 5.47329 73.5236 5.43856 73.5812 5.415C73.6387 5.39144 73.7003 5.37951 73.7624 5.37989H87.1122C87.2367 5.38066 87.3558 5.43075 87.4436 5.51922C87.5313 5.6077 87.5806 5.72738 87.5806 5.85212C87.5806 5.97686 87.5313 6.09653 87.4436 6.18501C87.3558 6.27349 87.2367 6.32358 87.1122 6.32434H87.1122Z" fill="#F2B950"/>
<path d="M87.1122 9.66809H73.7624C73.7003 9.66847 73.6387 9.65654 73.5812 9.63298C73.5236 9.60942 73.4713 9.5747 73.4273 9.53081C73.3832 9.48692 73.3482 9.43473 73.3244 9.37725C73.3005 9.31977 73.2882 9.25812 73.2882 9.19586C73.2882 9.13361 73.3005 9.07196 73.3244 9.01448C73.3482 8.957 73.3832 8.90481 73.4273 8.86093C73.4713 8.81704 73.5236 8.78231 73.5812 8.75875C73.6387 8.73519 73.7003 8.72326 73.7624 8.72364H87.1122C87.2367 8.72441 87.3558 8.7745 87.4436 8.86297C87.5313 8.95145 87.5806 9.07112 87.5806 9.19586C87.5806 9.32061 87.5313 9.44028 87.4436 9.52876C87.3558 9.61724 87.2367 9.66733 87.1122 9.66809H87.1122Z" fill="#F2B950"/>
<path d="M87.1122 13.0123H73.7624C73.7003 13.0127 73.6387 13.0008 73.5812 12.9772C73.5236 12.9537 73.4713 12.9189 73.4273 12.875C73.3832 12.8312 73.3482 12.779 73.3244 12.7215C73.3005 12.664 73.2882 12.6024 73.2882 12.5401C73.2882 12.4778 73.3005 12.4162 73.3244 12.3587C73.3482 12.3012 73.3832 12.249 73.4273 12.2052C73.4713 12.1613 73.5236 12.1265 73.5812 12.103C73.6387 12.0794 73.7003 12.0675 73.7624 12.0679H87.1122C87.2367 12.0686 87.3558 12.1187 87.4436 12.2072C87.5313 12.2957 87.5806 12.4154 87.5806 12.5401C87.5806 12.6648 87.5313 12.7845 87.4436 12.873C87.3558 12.9615 87.2367 13.0116 87.1122 13.0123H87.1122Z" fill="#F2B950"/>
<path d="M87.1122 16.3566H73.7624C73.7003 16.3569 73.6387 16.345 73.5812 16.3215C73.5236 16.2979 73.4713 16.2632 73.4273 16.2193C73.3832 16.1754 73.3482 16.1232 73.3244 16.0657C73.3005 16.0082 73.2882 15.9466 73.2882 15.8843C73.2882 15.8221 73.3005 15.7604 73.3244 15.703C73.3482 15.6455 73.3832 15.5933 73.4273 15.5494C73.4713 15.5055 73.5236 15.4708 73.5812 15.4472C73.6387 15.4237 73.7003 15.4117 73.7624 15.4121H87.1122C87.2367 15.4129 87.3558 15.463 87.4436 15.5515C87.5313 15.6399 87.5806 15.7596 87.5806 15.8843C87.5806 16.0091 87.5313 16.1288 87.4436 16.2172C87.3558 16.3057 87.2367 16.3558 87.1122 16.3566H87.1122Z" fill="#F2B950"/>
<path d="M87.1122 19.7003H73.7624C73.6374 19.7003 73.5176 19.6506 73.4292 19.562C73.3408 19.4735 73.2911 19.3533 73.2911 19.2281C73.2911 19.1029 73.3408 18.9827 73.4292 18.8942C73.5176 18.8056 73.6374 18.7559 73.7624 18.7559H87.1122C87.2372 18.7559 87.3571 18.8056 87.4455 18.8942C87.5339 18.9827 87.5835 19.1029 87.5835 19.2281C87.5835 19.3533 87.5339 19.4735 87.4455 19.562C87.3571 19.6506 87.2372 19.7003 87.1122 19.7003H87.1122Z" fill="#F2B950"/>
<path d="M158.24 40.2965C158.49 40.2968 158.73 40.3964 158.906 40.5735C159.083 40.7505 159.183 40.9906 159.183 41.241V61.7073C159.183 61.9577 159.083 62.1977 158.906 62.3748C158.73 62.5519 158.49 62.6514 158.24 62.6517H138.231C137.981 62.6514 137.742 62.5519 137.565 62.3748C137.389 62.1977 137.289 61.9577 137.289 61.7073V41.241C137.289 40.9906 137.389 40.7505 137.565 40.5735C137.742 40.3964 137.981 40.2968 138.231 40.2965H158.24M158.24 39.3521H138.231C137.731 39.3521 137.252 39.5511 136.898 39.9053C136.545 40.2596 136.346 40.74 136.346 41.241V61.7073C136.346 62.2083 136.545 62.6888 136.898 63.043C137.252 63.3972 137.731 63.5963 138.231 63.5963H158.24C158.74 63.5963 159.22 63.3972 159.573 63.043C159.927 62.6888 160.125 62.2083 160.125 61.7073V41.241C160.125 40.74 159.927 40.2596 159.573 39.9053C159.22 39.5511 158.74 39.3521 158.24 39.3521V39.3521Z" fill="#F2B950"/>
<path d="M155.119 45.6764H141.77C141.707 45.6768 141.646 45.6648 141.588 45.6413C141.531 45.6177 141.478 45.583 141.434 45.5391C141.39 45.4952 141.355 45.443 141.332 45.3856C141.308 45.3281 141.295 45.2664 141.295 45.2042C141.295 45.1419 141.308 45.0803 141.332 45.0228C141.355 44.9653 141.39 44.9131 141.434 44.8692C141.478 44.8253 141.531 44.7906 141.588 44.7671C141.646 44.7435 141.707 44.7316 141.77 44.7319H155.119C155.244 44.7327 155.363 44.7828 155.451 44.8713C155.538 44.9598 155.588 45.0794 155.588 45.2042C155.588 45.3289 155.538 45.4486 155.451 45.5371C155.363 45.6255 155.244 45.6756 155.119 45.6764V45.6764Z" fill="#F2B950"/>
<path d="M155.119 49.0201H141.77C141.645 49.0201 141.525 48.9704 141.436 48.8818C141.348 48.7933 141.298 48.6732 141.298 48.5479C141.298 48.4227 141.348 48.3026 141.436 48.214C141.525 48.1254 141.645 48.0757 141.77 48.0757H155.119C155.244 48.0757 155.364 48.1254 155.453 48.214C155.541 48.3026 155.591 48.4227 155.591 48.5479C155.591 48.6732 155.541 48.7933 155.453 48.8818C155.364 48.9704 155.244 49.0201 155.119 49.0201V49.0201Z" fill="#F2B950"/>
<path d="M155.119 52.3644H141.77C141.707 52.3647 141.646 52.3527 141.588 52.3291C141.531 52.3055 141.479 52.2708 141.435 52.2269C141.391 52.183 141.356 52.1309 141.332 52.0734C141.308 52.016 141.296 51.9544 141.296 51.8921C141.296 51.8299 141.308 51.7683 141.332 51.7109C141.356 51.6534 141.391 51.6013 141.435 51.5574C141.479 51.5135 141.531 51.4788 141.588 51.4552C141.646 51.4316 141.707 51.4196 141.77 51.4199H155.119C155.244 51.4207 155.363 51.4708 155.451 51.5593C155.538 51.6477 155.588 51.7674 155.588 51.8921C155.588 52.0169 155.538 52.1366 155.451 52.225C155.363 52.3135 155.244 52.3636 155.119 52.3644V52.3644Z" fill="#F2B950"/>
<path d="M155.119 55.7081H141.77C141.707 55.7085 141.646 55.6966 141.588 55.673C141.531 55.6495 141.478 55.6147 141.434 55.5708C141.39 55.527 141.355 55.4748 141.332 55.4173C141.308 55.3598 141.295 55.2982 141.295 55.2359C141.295 55.1736 141.308 55.112 141.332 55.0545C141.355 54.997 141.39 54.9449 141.434 54.901C141.478 54.8571 141.531 54.8223 141.588 54.7988C141.646 54.7752 141.707 54.7633 141.77 54.7637H155.119C155.244 54.7644 155.363 54.8145 155.451 54.903C155.538 54.9915 155.588 55.1112 155.588 55.2359C155.588 55.3606 155.538 55.4803 155.451 55.5688C155.363 55.6573 155.244 55.7074 155.119 55.7081V55.7081Z" fill="#F2B950"/>
<path d="M155.119 59.0524H141.77C141.707 59.0527 141.646 59.0408 141.588 59.0173C141.531 58.9937 141.478 58.959 141.434 58.9151C141.39 58.8712 141.355 58.819 141.332 58.7615C141.308 58.704 141.295 58.6424 141.295 58.5801C141.295 58.5179 141.308 58.4562 141.332 58.3988C141.355 58.3413 141.39 58.2891 141.434 58.2452C141.478 58.2013 141.531 58.1666 141.588 58.143C141.646 58.1195 141.707 58.1075 141.77 58.1079H155.119C155.244 58.1087 155.363 58.1588 155.451 58.2472C155.538 58.3357 155.588 58.4554 155.588 58.5801C155.588 58.7049 155.538 58.8246 155.451 58.913C155.363 59.0015 155.244 59.0516 155.119 59.0524V59.0524Z" fill="#F2B950"/>
<path d="M56.3254 24.2443H35.7926C35.2374 24.2436 34.705 24.0223 34.3124 23.6289C33.9198 23.2355 33.6989 22.7021 33.6982 22.1457V7.42444C33.6988 6.86804 33.9197 6.3346 34.3123 5.94114C34.705 5.54769 35.2373 5.32635 35.7926 5.32568H56.3254C56.8808 5.3263 57.4132 5.54761 57.8059 5.94107C58.1986 6.33453 58.4195 6.868 58.4201 7.42444V22.1457C58.4194 22.7021 58.1985 23.2356 57.8058 23.629C57.4131 24.0224 56.8807 24.2437 56.3254 24.2443V24.2443ZM35.7926 6.27015C35.4872 6.27053 35.1945 6.39227 34.9785 6.60867C34.7626 6.82506 34.6412 7.11844 34.6409 7.42444V22.1457C34.6412 22.4517 34.7626 22.7451 34.9786 22.9614C35.1945 23.1778 35.4873 23.2995 35.7926 23.2998H56.3254C56.6308 23.2995 56.9236 23.1778 57.1396 22.9615C57.3556 22.7451 57.4771 22.4517 57.4775 22.1457V7.42444C57.4771 7.11842 57.3556 6.82504 57.1396 6.60864C56.9237 6.39225 56.6309 6.27052 56.3254 6.27015H35.7926Z" fill="#E6E6E6"/>
<path d="M52.7341 11.9132H39.3843C39.2598 11.9124 39.1407 11.8624 39.0529 11.7739C38.9652 11.6854 38.9159 11.5657 38.9159 11.441C38.9159 11.3162 38.9652 11.1966 39.0529 11.1081C39.1407 11.0196 39.2598 10.9695 39.3843 10.9688H52.7341C52.7962 10.9684 52.8578 10.9803 52.9153 11.0039C52.9729 11.0274 53.0251 11.0622 53.0692 11.106C53.1133 11.1499 53.1483 11.2021 53.1721 11.2596C53.196 11.3171 53.2083 11.3787 53.2083 11.441C53.2083 11.5032 53.196 11.5649 53.1721 11.6224C53.1483 11.6799 53.1133 11.732 53.0692 11.7759C53.0251 11.8198 52.9729 11.8545 52.9153 11.8781C52.8578 11.9017 52.7962 11.9136 52.7341 11.9132V11.9132Z" fill="#F2B950"/>
<path d="M52.7341 15.2574H39.3843C39.2598 15.2567 39.1407 15.2066 39.0529 15.1181C38.9652 15.0296 38.9159 14.91 38.9159 14.7852C38.9159 14.6605 38.9652 14.5408 39.0529 14.4523C39.1407 14.3639 39.2598 14.3138 39.3843 14.313H52.7341C52.7962 14.3126 52.8578 14.3245 52.9153 14.3481C52.9729 14.3717 53.0251 14.4064 53.0692 14.4503C53.1133 14.4942 53.1483 14.5464 53.1721 14.6038C53.196 14.6613 53.2083 14.723 53.2083 14.7852C53.2083 14.8475 53.196 14.9091 53.1721 14.9666C53.1483 15.0241 53.1133 15.0763 53.0692 15.1202C53.0251 15.1641 52.9729 15.1988 52.9153 15.2223C52.8578 15.2459 52.7962 15.2578 52.7341 15.2574V15.2574Z" fill="#F2B950"/>
<path d="M52.7341 18.6012H39.3843C39.2598 18.6004 39.1407 18.5503 39.0529 18.4619C38.9652 18.3734 38.9159 18.2537 38.9159 18.129C38.9159 18.0042 38.9652 17.8846 39.0529 17.7961C39.1407 17.7076 39.2598 17.6575 39.3843 17.6567H52.7341C52.7962 17.6564 52.8578 17.6683 52.9153 17.6919C52.9729 17.7154 53.0251 17.7501 53.0692 17.794C53.1133 17.8379 53.1483 17.8901 53.1721 17.9476C53.196 18.0051 53.2083 18.0667 53.2083 18.129C53.2083 18.1912 53.196 18.2529 53.1721 18.3104C53.1483 18.3678 53.1133 18.42 53.0692 18.4639C53.0251 18.5078 52.9729 18.5425 52.9153 18.5661C52.8578 18.5896 52.7962 18.6016 52.7341 18.6012V18.6012Z" fill="#F2B950"/>
<path d="M124.457 32.4015L104.736 26.6714C104.203 26.5158 103.753 26.1547 103.486 25.6672C103.218 25.1798 103.154 24.6059 103.308 24.0714L107.4 9.93261C107.556 9.3984 107.916 8.94769 108.402 8.67938C108.889 8.41107 109.462 8.34706 109.995 8.50139L129.716 14.2316C130.249 14.3871 130.699 14.7483 130.966 15.2357C131.234 15.7232 131.298 16.2972 131.144 16.8318L127.052 30.9706C126.896 31.5048 126.536 31.9554 126.049 32.2237C125.563 32.492 124.99 32.5559 124.457 32.4015V32.4015ZM109.733 9.40848C109.439 9.32362 109.124 9.35884 108.857 9.50641C108.589 9.65398 108.391 9.90186 108.306 10.1957L104.213 24.3344C104.129 24.6284 104.164 24.944 104.311 25.2121C104.458 25.4801 104.706 25.6787 104.999 25.7643L124.719 31.4944C125.013 31.5794 125.328 31.5442 125.595 31.3967C125.863 31.2492 126.061 31.0013 126.146 30.7075L130.239 16.5688C130.323 16.2747 130.288 15.9591 130.141 15.691C129.994 15.4229 129.746 15.2242 129.453 15.1386L109.733 9.40848Z" fill="#E6E6E6"/>
<path d="M124.435 19.5564L111.614 15.8308C111.494 15.7957 111.393 15.7144 111.333 15.6048C111.273 15.4952 111.258 15.3661 111.293 15.246C111.328 15.1258 111.409 15.0244 111.518 14.964C111.627 14.9036 111.756 14.8891 111.876 14.9237L124.698 18.6493C124.818 18.6842 124.919 18.7654 124.979 18.8751C125.04 18.9848 125.054 19.1141 125.019 19.2344C124.984 19.3546 124.903 19.4561 124.794 19.5165C124.684 19.5769 124.555 19.5912 124.435 19.5564H124.435Z" fill="#F2B950"/>
<path d="M123.506 22.768L110.684 19.0425C110.625 19.0252 110.569 18.9964 110.521 18.9576C110.472 18.9189 110.432 18.871 110.402 18.8166C110.373 18.7623 110.354 18.7026 110.347 18.641C110.34 18.5793 110.345 18.517 110.363 18.4574C110.38 18.3978 110.409 18.3423 110.447 18.2939C110.486 18.2454 110.534 18.2051 110.588 18.1752C110.642 18.1453 110.702 18.1264 110.763 18.1196C110.825 18.1127 110.887 18.1181 110.947 18.1354L123.768 21.861C123.888 21.896 123.989 21.9773 124.049 22.087C124.109 22.1966 124.123 22.3256 124.089 22.4458C124.054 22.5659 123.973 22.6673 123.864 22.7277C123.754 22.7881 123.625 22.8027 123.506 22.768V22.768Z" fill="#F2B950"/>
<path d="M122.576 25.9797L109.754 22.2541C109.635 22.2191 109.534 22.1378 109.473 22.0281C109.413 21.9185 109.399 21.7895 109.434 21.6693C109.469 21.5492 109.55 21.4478 109.659 21.3874C109.768 21.3269 109.897 21.3124 110.017 21.347L122.839 25.0726C122.959 25.1075 123.06 25.1887 123.12 25.2985C123.18 25.4082 123.195 25.5374 123.16 25.6577C123.125 25.778 123.044 25.8795 122.935 25.9399C122.825 26.0003 122.696 26.0146 122.576 25.9797V25.9797Z" fill="#F2B950"/>
<path d="M253 180.111H46.1702V181H253V180.111Z" fill="#E6E6E6"/>
<path d="M166.259 178.721H132.626L133.766 163.871H165.119L166.259 178.721Z" fill="#E6E6E6"/>
<path d="M168.54 177.008H130.916V180.435H168.54V177.008Z" fill="#E6E6E6"/>
<path d="M213.859 68.1973H85.3108C84.4037 68.1973 83.5337 68.5583 82.8922 69.201C82.2508 69.8438 81.8904 70.7154 81.8904 71.6244V71.6244V150.162H217.28V71.6244C217.28 71.1743 217.191 70.7287 217.019 70.3129C216.847 69.8971 216.596 69.5193 216.278 69.201C215.96 68.8828 215.583 68.6304 215.168 68.4581C214.753 68.2859 214.309 68.1973 213.859 68.1973H213.859Z" fill="#3F3D56"/>
<path d="M81.8904 150.162V163.014C81.8904 163.464 81.9789 163.909 82.1508 164.325C82.3227 164.741 82.5746 165.119 82.8922 165.437C83.2098 165.755 83.5869 166.008 84.0019 166.18C84.4169 166.352 84.8616 166.441 85.3108 166.441H213.859C214.766 166.441 215.636 166.08 216.278 165.437C216.919 164.794 217.28 163.923 217.28 163.014V150.162H81.8904Z" fill="#E6E6E6"/>
<path d="M210.724 75.3369H88.7311V143.879H210.724V75.3369Z" fill="#E6E6E6"/>
<path d="M149.728 161.586C151.617 161.586 153.148 160.051 153.148 158.159C153.148 156.266 151.617 154.731 149.728 154.731C147.839 154.731 146.307 156.266 146.307 158.159C146.307 160.051 147.839 161.586 149.728 161.586Z" fill="#3F3D56"/>
<path d="M92.5349 78.2319C92.8934 78.2319 93.184 77.9407 93.184 77.5815C93.184 77.2223 92.8934 76.9312 92.5349 76.9312C92.1764 76.9312 91.8858 77.2223 91.8858 77.5815C91.8858 77.9407 92.1764 78.2319 92.5349 78.2319Z" fill="white"/>
<path d="M94.9987 78.2319C95.3572 78.2319 95.6478 77.9407 95.6478 77.5815C95.6478 77.2223 95.3572 76.9312 94.9987 76.9312C94.6402 76.9312 94.3496 77.2223 94.3496 77.5815C94.3496 77.9407 94.6402 78.2319 94.9987 78.2319Z" fill="white"/>
<path d="M97.4625 78.2319C97.821 78.2319 98.1116 77.9407 98.1116 77.5815C98.1116 77.2223 97.821 76.9312 97.4625 76.9312C97.1041 76.9312 96.8134 77.2223 96.8134 77.5815C96.8134 77.9407 97.1041 78.2319 97.4625 78.2319Z" fill="white"/>
<path d="M207.208 79.7915H91.8858V137.356H207.208V79.7915Z" fill="white"/>
<path d="M99.5517 88.5474C99.4436 88.5475 99.3399 88.5905 99.2635 88.6671C99.1871 88.7437 99.1441 88.8475 99.144 88.9559V109.604C99.1441 109.712 99.1871 109.816 99.2635 109.893C99.3399 109.969 99.4436 110.012 99.5517 110.012H123.35C123.458 110.012 123.562 109.969 123.638 109.893C123.715 109.816 123.758 109.712 123.758 109.604V88.9559C123.758 88.8475 123.715 88.7437 123.638 88.6671C123.562 88.5905 123.458 88.5475 123.35 88.5474H99.5517Z" fill="#E6E6E6"/>
<path d="M137.763 88.6138C137.655 88.6138 137.551 88.6569 137.475 88.7335C137.398 88.8101 137.355 88.9139 137.355 89.0223V109.604C137.355 109.712 137.398 109.816 137.475 109.893C137.551 109.969 137.655 110.012 137.763 110.012H161.485C161.593 110.012 161.697 109.969 161.773 109.893C161.85 109.816 161.893 109.712 161.893 109.604V89.0223C161.893 88.914 161.85 88.8102 161.773 88.7336C161.697 88.657 161.593 88.6139 161.485 88.6138H137.763Z" fill="#E6E6E6"/>
<path d="M175.573 88.3979C175.465 88.3981 175.362 88.4412 175.285 88.5178C175.209 88.5943 175.166 88.6982 175.166 88.8064V109.604C175.166 109.712 175.209 109.816 175.285 109.892C175.362 109.969 175.465 110.012 175.573 110.012H199.542C199.65 110.012 199.754 109.969 199.83 109.892C199.907 109.816 199.95 109.712 199.95 109.604V88.8064C199.95 88.6982 199.907 88.5943 199.83 88.5178C199.754 88.4412 199.65 88.3981 199.542 88.3979H175.573Z" fill="#E6E6E6"/>
<path d="M99.9868 120.233C99.7635 120.233 99.5495 120.322 99.3918 120.481C99.2341 120.639 99.1455 120.854 99.1455 121.077C99.1455 121.301 99.2341 121.516 99.3918 121.674C99.5495 121.832 99.7635 121.922 99.9868 121.922H122.362C122.585 121.922 122.799 121.832 122.957 121.674C123.115 121.516 123.203 121.301 123.203 121.077C123.203 120.854 123.115 120.639 122.957 120.481C122.799 120.322 122.585 120.233 122.362 120.233H99.9868Z" fill="#E6E6E6"/>
<path d="M99.9868 124.25C99.7635 124.251 99.5495 124.34 99.3918 124.498C99.234 124.657 99.1454 124.871 99.1454 125.095C99.1454 125.319 99.234 125.533 99.3918 125.692C99.5495 125.85 99.7635 125.939 99.9868 125.94H110.061C110.284 125.939 110.498 125.85 110.656 125.692C110.814 125.533 110.902 125.319 110.902 125.095C110.902 124.871 110.814 124.657 110.656 124.498C110.498 124.34 110.284 124.251 110.061 124.25H99.9868Z" fill="#F2B950"/>
<path d="M138.609 120.233C138.385 120.233 138.171 120.322 138.014 120.481C137.856 120.639 137.767 120.854 137.767 121.077C137.767 121.301 137.856 121.516 138.014 121.674C138.171 121.832 138.385 121.922 138.609 121.922H160.984C161.207 121.922 161.421 121.832 161.579 121.674C161.736 121.516 161.825 121.301 161.825 121.077C161.825 120.854 161.736 120.639 161.579 120.481C161.421 120.322 161.207 120.233 160.984 120.233H138.609Z" fill="#E6E6E6"/>
<path d="M138.609 124.25C138.385 124.251 138.171 124.34 138.013 124.498C137.856 124.657 137.767 124.871 137.767 125.095C137.767 125.319 137.856 125.533 138.013 125.692C138.171 125.85 138.385 125.939 138.609 125.94H148.683C148.906 125.939 149.12 125.85 149.278 125.692C149.436 125.533 149.524 125.319 149.524 125.095C149.524 124.871 149.436 124.657 149.278 124.498C149.12 124.34 148.906 124.251 148.683 124.25H138.609Z" fill="#F2B950"/>
<path d="M176.265 120.233C176.042 120.233 175.828 120.322 175.67 120.481C175.512 120.639 175.424 120.854 175.424 121.077C175.424 121.301 175.512 121.516 175.67 121.674C175.828 121.832 176.042 121.922 176.265 121.922H198.64C198.863 121.922 199.077 121.832 199.235 121.674C199.393 121.516 199.481 121.301 199.481 121.077C199.481 120.854 199.393 120.639 199.235 120.481C199.077 120.322 198.863 120.233 198.64 120.233H176.265Z" fill="#E6E6E6"/>
<path d="M99.9868 116.084C99.7635 116.085 99.5495 116.174 99.3918 116.332C99.2341 116.491 99.1455 116.705 99.1455 116.929C99.1455 117.153 99.2341 117.367 99.3918 117.526C99.5495 117.684 99.7635 117.773 99.9868 117.774H122.362C122.585 117.773 122.799 117.684 122.957 117.526C123.115 117.367 123.203 117.153 123.203 116.929C123.203 116.705 123.115 116.491 122.957 116.332C122.799 116.174 122.585 116.085 122.362 116.084H99.9868Z" fill="#E6E6E6"/>
<path d="M138.609 116.084C138.385 116.085 138.171 116.174 138.014 116.332C137.856 116.491 137.767 116.705 137.767 116.929C137.767 117.153 137.856 117.367 138.014 117.526C138.171 117.684 138.385 117.773 138.609 117.774H160.984C161.207 117.773 161.421 117.684 161.579 117.526C161.736 117.367 161.825 117.153 161.825 116.929C161.825 116.705 161.736 116.491 161.579 116.332C161.421 116.174 161.207 116.085 160.984 116.084H138.609Z" fill="#E6E6E6"/>
<path d="M176.265 116.084C176.042 116.085 175.828 116.174 175.67 116.332C175.512 116.491 175.424 116.705 175.424 116.929C175.424 117.153 175.512 117.367 175.67 117.526C175.828 117.684 176.042 117.773 176.265 117.774H198.64C198.863 117.773 199.077 117.684 199.235 117.526C199.393 117.367 199.481 117.153 199.481 116.929C199.481 116.705 199.393 116.491 199.235 116.332C199.077 116.174 198.863 116.085 198.64 116.084H176.265Z" fill="#E6E6E6"/>
<path d="M176.265 124.25C176.042 124.251 175.828 124.34 175.67 124.498C175.512 124.657 175.424 124.871 175.424 125.095C175.424 125.319 175.512 125.533 175.67 125.692C175.828 125.85 176.042 125.939 176.265 125.94H186.339C186.562 125.939 186.776 125.85 186.934 125.692C187.092 125.533 187.18 125.319 187.18 125.095C187.18 124.871 187.092 124.657 186.934 124.498C186.776 124.34 186.562 124.251 186.339 124.25H176.265Z" fill="#F2B950"/>
</svg>
