<svg width="227" height="181" viewBox="0 0 227 181" fill="none" xmlns="http://www.w3.org/2000/svg">
<g clip-path="url(#clip0_79_892)">
<path d="M113.298 154.008C97.9775 154.008 83.1305 148.696 71.2873 138.976C59.4441 129.257 51.3373 115.731 48.3484 100.705C45.3595 85.6784 47.6732 70.0803 54.8955 56.5684C62.1178 43.0566 73.8017 32.4669 87.9564 26.6039C102.111 20.7408 117.861 19.9671 132.522 24.4146C147.183 28.862 159.849 38.2555 168.361 50.9944C176.873 63.7333 180.704 79.0295 179.202 94.2766C177.701 109.524 170.959 123.779 160.125 134.612C153.99 140.781 146.692 145.671 138.655 149.001C130.617 152.33 121.998 154.032 113.298 154.008ZM113.298 22.0719C77.0639 22.0719 47.5849 51.551 47.5849 87.7856C47.5849 124.02 77.0639 153.499 113.298 153.499C149.533 153.499 179.012 124.02 179.012 87.7856C179.012 51.551 149.533 22.0719 113.298 22.0719Z" fill="#CCCCCC"/>
<path d="M137.888 163.939V97.2236H88.2328V163.939H137.888Z" fill="#2F2E41"/>
<path d="M146.418 95.1865H79.7024V121.669H146.418V95.1865Z" fill="#3F3D56"/>
<path d="M146.418 124.725H79.7024V151.207H146.418V124.725Z" fill="#3F3D56"/>
<path d="M146.418 154.263H79.7024V180.745H146.418V154.263Z" fill="#3F3D56"/>
<path d="M146.418 106.415H79.7024V110.489H146.418V106.415Z" fill="#F2B950"/>
<path d="M146.418 135.953H79.7024V140.027H146.418V135.953Z" fill="#F2B950"/>
<path d="M146.418 165.492H79.7024V169.566H146.418V165.492Z" fill="#F2B950"/>
<path d="M133.431 100.534C134.275 100.534 134.959 99.8497 134.959 99.0059C134.959 98.1621 134.275 97.478 133.431 97.478C132.588 97.478 131.904 98.1621 131.904 99.0059C131.904 99.8497 132.588 100.534 133.431 100.534Z" fill="#F2B950"/>
<path d="M138.779 100.534C139.623 100.534 140.307 99.8497 140.307 99.0059C140.307 98.1621 139.623 97.478 138.779 97.478C137.935 97.478 137.251 98.1621 137.251 99.0059C137.251 99.8497 137.935 100.534 138.779 100.534Z" fill="#F2B950"/>
<path d="M144.126 100.534C144.97 100.534 145.654 99.8497 145.654 99.0059C145.654 98.1621 144.97 97.478 144.126 97.478C143.283 97.478 142.598 98.1621 142.598 99.0059C142.598 99.8497 143.283 100.534 144.126 100.534Z" fill="#F2B950"/>
<path d="M133.431 129.563C134.275 129.563 134.959 128.879 134.959 128.035C134.959 127.191 134.275 126.507 133.431 126.507C132.588 126.507 131.904 127.191 131.904 128.035C131.904 128.879 132.588 129.563 133.431 129.563Z" fill="#F2B950"/>
<path d="M138.779 129.563C139.623 129.563 140.307 128.879 140.307 128.035C140.307 127.191 139.623 126.507 138.779 126.507C137.935 126.507 137.251 127.191 137.251 128.035C137.251 128.879 137.935 129.563 138.779 129.563Z" fill="#F2B950"/>
<path d="M144.126 129.563C144.97 129.563 145.654 128.879 145.654 128.035C145.654 127.191 144.97 126.507 144.126 126.507C143.283 126.507 142.598 127.191 142.598 128.035C142.598 128.879 143.283 129.563 144.126 129.563Z" fill="#F2B950"/>
<path d="M133.431 158.592C134.275 158.592 134.959 157.908 134.959 157.064C134.959 156.22 134.275 155.536 133.431 155.536C132.588 155.536 131.904 156.22 131.904 157.064C131.904 157.908 132.588 158.592 133.431 158.592Z" fill="#F2B950"/>
<path d="M138.779 158.592C139.623 158.592 140.307 157.908 140.307 157.064C140.307 156.22 139.623 155.536 138.779 155.536C137.935 155.536 137.251 156.22 137.251 157.064C137.251 157.908 137.935 158.592 138.779 158.592Z" fill="#F2B950"/>
<path d="M144.126 158.592C144.97 158.592 145.654 157.908 145.654 157.064C145.654 156.22 144.97 155.536 144.126 155.536C143.283 155.536 142.598 156.22 142.598 157.064C142.598 157.908 143.283 158.592 144.126 158.592Z" fill="#F2B950"/>
<path d="M226.12 180.491H0V181H226.12V180.491Z" fill="#3F3D56"/>
<path d="M61.592 69.0237V116.385C61.5918 117.376 61.1981 118.326 60.4975 119.026C59.7969 119.727 58.8467 120.121 57.8559 120.121H39.4509C38.4598 120.121 37.5093 119.727 36.8083 119.027C36.1074 118.326 35.7135 117.376 35.7132 116.385V69.0237C35.7135 68.0327 36.1074 67.0823 36.8083 66.3817C37.5093 65.681 38.4598 65.2875 39.4509 65.2876H41.6835C41.5739 65.5572 41.5322 65.8496 41.562 66.1391C41.5919 66.4286 41.6924 66.7063 41.8547 66.9479C42.017 67.1895 42.2362 67.3875 42.493 67.5245C42.7497 67.6615 43.0362 67.7333 43.3273 67.7337H53.8206C54.1116 67.7333 54.3981 67.6615 54.6549 67.5245C54.9116 67.3875 55.1308 67.1895 55.2931 66.9479C55.4555 66.7063 55.556 66.4286 55.5858 66.1391C55.6157 65.8496 55.5739 65.5572 55.4643 65.2876H57.8559C58.8467 65.2878 59.7969 65.6815 60.4975 66.3821C61.1981 67.0827 61.5918 68.0329 61.592 69.0237Z" fill="#E6E6E6"/>
<path d="M60.366 74.332H36.9391V106.926H60.366V74.332Z" fill="white"/>
<path d="M52.941 96.7446H43.5907V97.2789H52.941V96.7446Z" fill="#E6E6E6"/>
<path d="M58.0493 98.7065H43.5813V99.2408H58.0493V98.7065Z" fill="#F2B950"/>
<path d="M54.9353 100.555H43.5813V101.089H54.9353V100.555Z" fill="#E6E6E6"/>
<path d="M50.2601 102.403H43.5813V102.938H50.2601V102.403Z" fill="#E6E6E6"/>
<path d="M53.5995 104.251H43.5813V104.786H53.5995V104.251Z" fill="#E6E6E6"/>
<path d="M40.419 96.5908H39.3504V97.6594H40.419V96.5908Z" fill="#E6E6E6"/>
<path d="M40.419 98.4395H39.3504V99.5081H40.419V98.4395Z" fill="#F2B950"/>
<path d="M40.419 100.288H39.3504V101.356H40.419V100.288Z" fill="#E6E6E6"/>
<path d="M40.419 102.136H39.3504V103.205H40.419V102.136Z" fill="#E6E6E6"/>
<path d="M40.419 103.984H39.3504V105.053H40.419V103.984Z" fill="#E6E6E6"/>
<path d="M53.4103 78.4062H43.9893V87.8273H53.4103V78.4062Z" fill="#E6E6E6"/>
<path d="M144.38 0.0356445H81.7676V40.1351H144.38V0.0356445Z" fill="#E6E6E6"/>
<path d="M138.399 11.2539H86.4877V30.8702H138.399V11.2539Z" fill="white"/>
<path d="M108.404 14.6523H95.9457V15.3643H108.404V14.6523Z" fill="#E6E6E6"/>
<path d="M115.211 17.2666H95.9332V17.9785H115.211V17.2666Z" fill="#F2B950"/>
<path d="M111.062 19.7295H95.9332V20.4414H111.062V19.7295Z" fill="#E6E6E6"/>
<path d="M104.832 22.1919H95.9332V22.9038H104.832V22.1919Z" fill="#E6E6E6"/>
<path d="M109.282 24.6548H95.9332V25.3667H109.282V24.6548Z" fill="#E6E6E6"/>
<path d="M91.7195 14.4478H90.2957V15.8716H91.7195V14.4478Z" fill="#E6E6E6"/>
<path d="M91.7195 16.9106H90.2957V18.3345H91.7195V16.9106Z" fill="#F2B950"/>
<path d="M91.7195 19.373H90.2957V20.7969H91.7195V19.373Z" fill="#E6E6E6"/>
<path d="M91.7195 21.8359H90.2957V23.2598H91.7195V21.8359Z" fill="#E6E6E6"/>
<path d="M91.7195 24.2988H90.2957V25.7227H91.7195V24.2988Z" fill="#E6E6E6"/>
<path d="M135.851 13.7119H123.105V26.4589H135.851V13.7119Z" fill="#E6E6E6"/>
<path d="M144.353 0H81.7409V2.65998H144.353V0Z" fill="#F2B950"/>
<path d="M83.7176 1.89406C84.0125 1.89406 84.2515 1.65501 84.2515 1.36012C84.2515 1.06523 84.0125 0.826172 83.7176 0.826172C83.4227 0.826172 83.1837 1.06523 83.1837 1.36012C83.1837 1.65501 83.4227 1.89406 83.7176 1.89406Z" fill="white"/>
<path d="M85.5889 1.89406C85.8838 1.89406 86.1229 1.65501 86.1229 1.36012C86.1229 1.06523 85.8838 0.826172 85.5889 0.826172C85.294 0.826172 85.055 1.06523 85.055 1.36012C85.055 1.65501 85.294 1.89406 85.5889 1.89406Z" fill="white"/>
<path d="M87.4603 1.89406C87.7551 1.89406 87.9942 1.65501 87.9942 1.36012C87.9942 1.06523 87.7551 0.826172 87.4603 0.826172C87.1654 0.826172 86.9263 1.06523 86.9263 1.36012C86.9263 1.65501 87.1654 1.89406 87.4603 1.89406Z" fill="white"/>
<path d="M186.307 75.0698H171.028V82.9637H186.307V75.0698Z" fill="#E6E6E6"/>
<path d="M186.307 103.335H171.028V111.229H186.307V103.335Z" fill="#E6E6E6"/>
<path d="M178.668 105.881C185.699 105.881 191.4 100.181 191.4 93.1495C191.4 86.1178 185.699 80.4175 178.668 80.4175C171.636 80.4175 165.936 86.1178 165.936 93.1495C165.936 100.181 171.636 105.881 178.668 105.881Z" fill="#E6E6E6"/>
<path d="M178.668 103.08C184.152 103.08 188.599 98.6339 188.599 93.1492C188.599 87.6645 184.152 83.2183 178.668 83.2183C173.183 83.2183 168.737 87.6645 168.737 93.1492C168.737 98.6339 173.183 103.08 178.668 103.08Z" fill="white"/>
<path d="M183.118 90.4282H175.416V90.8683H183.118V90.4282Z" fill="#E2E2E2"/>
<path d="M187.325 92.0444H175.408V92.4846H187.325V92.0444Z" fill="#F2B950"/>
<path d="M184.76 93.5669H175.408V94.007H184.76V93.5669Z" fill="#E2E2E2"/>
<path d="M180.909 95.0894H175.408V95.5295H180.909V95.0894Z" fill="#E2E2E2"/>
<path d="M183.66 96.6118H175.408V97.0519H183.66V96.6118Z" fill="#E2E2E2"/>
<path d="M172.803 90.3018H171.923V91.182H172.803V90.3018Z" fill="#E2E2E2"/>
<path d="M172.803 91.8242H171.923V92.7045H172.803V91.8242Z" fill="#F2B950"/>
<path d="M172.803 93.3467H171.923V94.2269H172.803V93.3467Z" fill="#E2E2E2"/>
<path d="M172.803 94.8691H171.923V95.7494H172.803V94.8691Z" fill="#E2E2E2"/>
<path d="M172.803 96.3916H171.923V97.2718H172.803V96.3916Z" fill="#E2E2E2"/>
</g>
<defs>
<clipPath id="clip0_79_892">
<rect width="226.12" height="181" fill="white"/>
</clipPath>
</defs>
</svg>
