<svg xmlns="http://www.w3.org/2000/svg" viewBox="0 0 627.84 191.4"><defs><style>.cls-1{fill:#0f357a;}.cls-2{fill:#0b2657;}.cls-3{fill:#0e306f;}</style></defs><g id="Layer_2" data-name="Layer 2"><g id="Layer_1-2" data-name="Layer 1"><g id="Layer_1-3" data-name="Layer 1"><path class="cls-1" d="M85,91.28l-36,23.57v-36L85,55.31v36Z"/><path class="cls-2" d="M85,91.28l36,23.57v-36L85,55.31Z"/><path class="cls-3" d="M121,114.85l-36,24-36-24L85,91.28Z"/><path class="cls-1" d="M0,142.4,30.83,127V28.66L0,55.31Z"/><path class="cls-2" d="M36.58,166.42,0,142.4,30.83,127,67,147.85Z"/><path class="cls-1" d="M88.51.05,85.83,34.41l84.22,50.72-7-40.17Z"/><path class="cls-2" d="M49.05,19,88.51,0,85.83,34.36,49.3,54.6Z"/><path class="cls-1" d="M167,146.54l-29.12-18.47L53.69,178.73,92.45,191.4Z"/><path class="cls-2" d="M168.79,102.79l-1.71,43.75L138,128.07l-.76-41.78Z"/><path class="cls-1" d="M189.79,139.63V55h30.07q8,0,12.26,3.79c2.83,2.52,4.24,6.05,4.24,10.54v9.59a20.87,20.87,0,0,1-1.06,6.81A13.28,13.28,0,0,1,232.07,91a10.15,10.15,0,0,1-4,2.42,18,18,0,0,1-4.75,1v.15a21.64,21.64,0,0,1,4.75.56,11,11,0,0,1,4.28,2.27,12.92,12.92,0,0,1,3.89,5.1,19.48,19.48,0,0,1,1.41,7.92V122c0,4.59-.8,8.17-2.37,10.74a12.14,12.14,0,0,1-6.71,5.35,31.8,31.8,0,0,1-10.39,1.52Zm16.75-48.55h6.71a6.6,6.6,0,0,0,5.25-2.27c1.31-1.51,1.92-4.19,1.92-8V72.36c0-3-.56-5.09-1.67-6.36a5.26,5.26,0,0,0-4.24-1.91h-8v27Zm0,39.82h7.72a6.83,6.83,0,0,0,3.53-.81,5.43,5.43,0,0,0,2.17-2.93,19.48,19.48,0,0,0,.81-6.3v-10c0-3.83-.66-6.3-1.92-7.52a7.14,7.14,0,0,0-5.1-1.76h-7.16V130.9Z"/><path class="cls-1" d="M247.92,139.63V55h16.45v73.17h19.17v11.46Z"/><path class="cls-1" d="M313.21,141.34a41.07,41.07,0,0,1-12.31-1.66,14,14,0,0,1-8.22-6.87c-2-3.48-2.93-8.68-2.93-15.54V72.87c0-5.05,1-9,2.93-11.76a15.35,15.35,0,0,1,8.32-5.8,41.89,41.89,0,0,1,12.37-1.67,39.82,39.82,0,0,1,12.26,1.72,16.15,16.15,0,0,1,8.42,5.85c2.07,2.78,3.08,6.61,3.08,11.61v44.25c0,7-1,12.21-3.08,15.69a14.55,14.55,0,0,1-8.42,6.87A40.63,40.63,0,0,1,313.21,141.34Zm0-9.74a10,10,0,0,0,3.79-.7,5,5,0,0,0,2.57-2.53,11,11,0,0,0,.91-4.94V72.16a11.07,11.07,0,0,0-.91-5A5.2,5.2,0,0,0,317,64.69a10,10,0,0,0-3.79-.7,9.54,9.54,0,0,0-3.73.7A5.3,5.3,0,0,0,307,67.21a11.07,11.07,0,0,0-.91,5v51.27a11,11,0,0,0,.91,4.94,5.33,5.33,0,0,0,2.52,2.53A9.37,9.37,0,0,0,313.21,131.6Z"/><path class="cls-1" d="M371,141.34a41.41,41.41,0,0,1-12.36-1.66,14.45,14.45,0,0,1-8.43-6.87c-2.07-3.48-3.08-8.68-3.08-15.54V72.87c0-5.05,1-9,3.08-11.76a16.12,16.12,0,0,1,8.53-5.8,42.56,42.56,0,0,1,12.46-1.67,39.14,39.14,0,0,1,12.37,1.72,15.28,15.28,0,0,1,8.07,5.85c1.92,2.78,2.88,6.61,2.88,11.61V90.28H378V72.11a13.11,13.11,0,0,0-.86-5.25,4.36,4.36,0,0,0-2.37-2.37,9.54,9.54,0,0,0-3.54-.56,11.21,11.21,0,0,0-3.58.56,4.26,4.26,0,0,0-2.42,2.37,12.77,12.77,0,0,0-.86,5.25v51.27a12.26,12.26,0,0,0,.86,5.09,4.37,4.37,0,0,0,2.42,2.43,9,9,0,0,0,3.58.65,8.74,8.74,0,0,0,3.54-.65,5,5,0,0,0,2.37-2.43,12.42,12.42,0,0,0,.86-5.09V106.62h16.6v10.45c0,7-1,12.21-2.88,15.69a13.78,13.78,0,0,1-8.07,6.87A40.26,40.26,0,0,1,371,141.34Z"/><path class="cls-1" d="M405,139.63V55h16.6v84.63Zm33.46,0-16.2-44L438.16,55h17.76L438.61,95.67l17.91,44Z"/><path class="cls-1" d="M458.79,139.63,474,55h23.77l14.89,84.63H494L491.44,124H479.13l-2.42,15.6Zm20.64-23.92h11.86l-5.85-46Z"/><path class="cls-1" d="M519.8,139.63V55h30.94c5.65,0,9.89,1.26,12.76,3.79s4.29,6.05,4.29,10.54V82.5a17.83,17.83,0,0,1-3.58,11.31c-2.37,3.08-6.11,4.84-11.15,5.3,3.23.45,5.55,1.56,7,3.23a22.49,22.49,0,0,1,3.63,8.07l8,29.22H553.21l-6.16-28.06a33.05,33.05,0,0,0-1.92-5.8,3.38,3.38,0,0,0-3.07-2.37h-4.95v36.23Zm17.31-47.84H544c2.68,0,4.6-.76,5.71-2.22s1.71-3.84,1.71-7.07V72.36c0-3.08-.5-5.2-1.56-6.46A6,6,0,0,0,545,64h-7.87Z"/><path class="cls-1" d="M580,139.63V55H610q8,0,12.26,3.79c2.83,2.52,4.24,6.05,4.24,10.54v9.59a20.87,20.87,0,0,1-1.06,6.81A13.39,13.39,0,0,1,622.24,91a10.12,10.12,0,0,1-4,2.42,17.89,17.89,0,0,1-4.74,1v.15a21.55,21.55,0,0,1,4.74.56,11,11,0,0,1,4.29,2.27,12.92,12.92,0,0,1,3.89,5.1,19.48,19.48,0,0,1,1.41,7.92V122c0,4.59-.81,8.17-2.37,10.74a12.21,12.21,0,0,1-6.71,5.35,31.82,31.82,0,0,1-10.4,1.52Zm16.76-48.55h6.71a6.62,6.62,0,0,0,5.25-2.27c1.31-1.51,1.91-4.19,1.91-8V72.36c0-3-.55-5.09-1.66-6.36a5.27,5.27,0,0,0-4.24-1.91h-8v27Zm0,39.82h7.72a6.83,6.83,0,0,0,3.53-.81,5.48,5.48,0,0,0,2.17-2.93,19.76,19.76,0,0,0,.81-6.3v-10c0-3.83-.66-6.3-1.92-7.52a7.14,7.14,0,0,0-5.1-1.76h-7.16V130.9Z"/></g></g></g></svg>