<svg width="509" height="671" viewBox="0 0 509 671" fill="none" xmlns="http://www.w3.org/2000/svg">
<path d="M2.436 555.8V558.004H9.976V634.796H2.436V637H36.54C58.348 637 73.428 632.244 73.428 614.264C73.428 602.084 64.844 595.936 50.228 594.08V593.848C62.408 591.876 69.368 585.96 69.368 574.824C69.368 560.44 57.536 555.8 37.12 555.8H2.436ZM32.596 595.936H35.264C46.516 595.936 49.532 601.736 49.532 611.248V617.396C49.532 628.068 46.98 634.796 38.048 634.796H32.596V595.936ZM32.596 558.004H36.308C44.428 558.004 46.4 562.296 46.4 573.432V578.884C46.4 588.396 43.964 593.732 35.612 593.732H32.596V558.004ZM77.1608 550V552.088H84.0048V634.912H77.6248V637H112.077V634.912H105.581V550H77.1608ZM151.796 614.148C151.796 629.228 151.448 636.072 144.836 636.072C137.76 636.072 137.528 627.372 137.528 613.916V604.868C137.528 591.76 137.876 582.712 144.952 582.712C151.448 582.712 151.796 591.76 151.796 604.288V614.148ZM115.256 609.624C115.256 627.72 125.116 638.16 144.604 638.16C165.252 638.16 174.068 627.604 174.068 608.58C174.068 589.788 164.788 580.624 145.3 580.624C126.624 580.624 115.256 590.6 115.256 609.624ZM209.792 582.712C213.04 582.712 215.36 584.336 215.36 588.28C215.36 589.44 215.128 590.832 214.548 592.456H210.72C210.256 594.08 210.14 595.588 210.14 596.632C210.14 603.128 214.432 606.26 220.464 606.26C226.264 606.26 230.092 602.548 230.092 595.356C230.092 586.656 223.016 580.624 208.864 580.624C189.724 580.624 177.892 590.6 177.892 610.088C177.892 628.184 187.868 638.16 205.732 638.16C225.104 638.16 228.932 626.444 230.44 619.252L228.352 619.02C227.076 625.284 222.552 634.216 211.996 634.216C202.948 634.216 200.28 627.604 200.28 612.756V606.724C200.28 589.44 203.064 582.712 209.792 582.712ZM270.186 637H302.434V634.912H298.258L278.19 595.588L291.994 583.872H300.114V581.784H277.262V583.872H288.166L262.066 605.564L260.21 606.26V550H231.79V552.088H238.634V634.912H232.254V637H265.546V634.912H260.21V608.58L262.414 608L275.522 634.912H270.186V637ZM353.139 634.796H344.903V637H382.835V634.796H377.499L348.267 555.104H338.755L309.175 634.796H303.723V637H321.471V634.796H312.771L321.703 609.74H344.671L353.139 634.796ZM333.651 576.796L343.743 607.188H322.747L333.651 576.796ZM423.474 585.032C425.91 585.032 428.23 586.192 425.91 590.948H421.734C419.298 599.184 423.01 604.056 430.782 604.056C437.046 604.056 440.526 599.648 440.526 593.036C440.526 584.22 435.074 580.624 428.23 580.624C421.27 580.624 414.774 584.684 412.686 592.92V581.784H384.73V583.872H391.11V634.912H384.73V637H420.922V634.912H412.686V603.824C412.686 593.384 417.906 585.032 423.474 585.032ZM478.035 585.612C481.979 585.612 483.371 589.44 483.371 605.796V611.828C483.371 627.952 482.211 634.796 476.527 634.796C471.655 634.796 468.987 629.112 468.987 622.848V601.272C468.987 591.18 473.279 585.612 478.035 585.612ZM468.987 550H441.031V552.088H447.411V634.912H441.031V637H467.479L468.291 630.156C469.915 635.956 473.859 638.16 481.863 638.16C497.639 638.16 505.759 629.344 505.759 609.508C505.759 589.672 497.755 580.624 484.531 580.624C475.715 580.624 471.539 584.8 468.987 590.6V550Z" fill="#0F357A"/>
<path d="M254.438 230.217L163.695 289.634V198.891L254.438 139.474V230.217Z" fill="#0F357A"/>
<path d="M254.438 230.217L345.181 289.634V198.891L254.438 139.474V230.217Z" fill="#0B2657"/>
<path d="M345.181 289.634L254.438 350.13L163.695 289.634L254.438 230.217L345.181 289.634Z" fill="#0E306F"/>
<path d="M40 359.04L117.778 320.154V72.2257L40 139.474V359.04Z" fill="#0F357A"/>
<path d="M132.292 419.634L40 359.04L117.778 320.154L209.066 372.812L132.292 419.634Z" fill="#0B2657"/>
<path d="M263.204 0L256.41 86.6941L468.818 214.554L451.315 113.235L263.204 0Z" fill="#0F357A"/>
<path d="M163.695 47.8198L263.204 0L256.41 86.6941L164.211 137.745L163.695 47.8198Z" fill="#0B2657"/>
<path d="M461.334 369.541L387.919 322.927L175.459 450.7L273.17 482.7L461.334 369.541Z" fill="#0F357A"/>
<path d="M465.697 259.224L461.334 369.541L387.919 322.927L386.005 217.559L465.697 259.224Z" fill="#0B2657"/>
</svg>
