<?xml version="1.0" encoding="utf-8"?>
<!-- Generator: Adobe Illustrator 26.0.1, SVG Export Plug-In . SVG Version: 6.00 Build 0)  -->
<svg version="1.1" id="Layer_1" xmlns="http://www.w3.org/2000/svg" xmlns:xlink="http://www.w3.org/1999/xlink" x="0px" y="0px"
	 viewBox="0 0 792 612" style="enable-background:new 0 0 792 612;" xml:space="preserve">
<style type="text/css">
	.st0{fill:#F2B94F;}
	.st1{fill:#AC8338;}
	.st2{fill:#DCA848;}
</style>
<g>
	<path class="st0" d="M235.1,256.7l-12.6,8.2v-12.6l12.6-8.2V256.7z"/>
</g>
<g>
	<path class="st1" d="M235.1,256.7l12.6,8.2v-12.6l-12.6-8.2V256.7z"/>
</g>
<g>
	<path class="st2" d="M247.7,264.9l-12.6,8.4l-12.6-8.4l12.6-8.2L247.7,264.9z"/>
</g>
<g>
	<path class="st0" d="M205.5,274.5l10.8-5.4v-34.3l-10.8,9.3"/>
</g>
<g>
	<path class="st1" d="M205.5,274.5l10.8-5.4l12.6,7.3l-10.6,6.5L205.5,274.5"/>
</g>
<g>
	<path class="st0" d="M262.4,240.5l-26-15.7l-0.9,12l29.4,17.7"/>
</g>
<g>
	<path class="st1" d="M222.6,231.4l13.8-6.6l-0.9,12l-12.8,7.1L222.6,231.4z"/>
</g>
<g>
	<path class="st0" d="M263.8,276l-10.2-6.5l-29.4,17.7l13.5,4.4L263.8,276"/>
</g>
<g>
	<path class="st1" d="M263.8,276l-10.2-6.5l-0.3-14.6l11,5.8"/>
</g>
<g>
	<path class="st0" d="M271.9,273.3v-28.4h10.7c1.9,0,3.3,0.4,4.2,1.3c0.9,0.9,1.4,2,1.4,3.5v3.2c0,0.8-0.1,1.6-0.4,2.3
		c-0.2,0.7-0.6,1.3-1.1,1.7c-0.4,0.4-0.8,0.6-1.3,0.8c-0.5,0.2-1,0.3-1.5,0.4v0c0.5,0,1,0.1,1.4,0.2c0.5,0.1,1,0.4,1.5,0.8
		c0.5,0.4,1,1,1.3,1.7c0.3,0.7,0.5,1.6,0.5,2.7v3.8c0,1.5-0.3,2.7-0.8,3.6c-0.5,0.9-1.3,1.5-2.3,1.8c-1,0.4-2.2,0.5-3.6,0.5H271.9z
		 M278.6,256.8h1.5c0.5,0,0.9-0.2,1.2-0.6c0.3-0.4,0.5-1.3,0.5-2.5V251c0-0.9-0.1-1.6-0.4-1.9c-0.3-0.4-0.6-0.6-1.1-0.6h-1.8V256.8z
		 M278.6,269.9h1.8c0.3,0,0.6-0.1,0.8-0.2c0.2-0.2,0.4-0.5,0.5-0.9c0.1-0.4,0.2-1,0.2-1.8v-3.2c0-1.2-0.1-1.9-0.4-2.3
		c-0.3-0.4-0.7-0.5-1.2-0.5h-1.6V269.9z"/>
	<path class="st0" d="M291.3,273.3v-28.4h6.6v23.8h5.8v4.6H291.3z"/>
	<path class="st0" d="M313.6,273.9c-1.6,0-3.1-0.2-4.3-0.6c-1.2-0.4-2.2-1.2-2.9-2.4c-0.7-1.2-1-3-1-5.5v-14.4c0-1.6,0.3-2.9,1-3.8
		c0.7-0.9,1.6-1.6,2.9-2c1.2-0.4,2.7-0.6,4.3-0.6c1.6,0,3.1,0.2,4.3,0.6c1.2,0.4,2.2,1.1,3,2c0.7,0.9,1.1,2.2,1.1,3.8v14.4
		c0,2.5-0.4,4.3-1.1,5.5c-0.7,1.2-1.7,2-3,2.4C316.7,273.7,315.2,273.9,313.6,273.9z M313.6,270c0.3,0,0.6-0.1,0.9-0.2
		c0.3-0.1,0.5-0.3,0.6-0.6c0.1-0.3,0.2-0.7,0.2-1.2v-17.3c0-0.5-0.1-0.9-0.2-1.2c-0.1-0.3-0.3-0.5-0.6-0.7c-0.3-0.1-0.6-0.2-0.9-0.2
		c-0.3,0-0.6,0.1-0.9,0.2c-0.3,0.1-0.5,0.4-0.6,0.7c-0.1,0.3-0.2,0.7-0.2,1.2v17.3c0,0.5,0.1,0.9,0.2,1.2c0.1,0.3,0.3,0.5,0.6,0.6
		C313,269.9,313.3,270,313.6,270z"/>
	<path class="st0" d="M332.9,273.9c-1.7,0-3.1-0.2-4.4-0.6s-2.2-1.2-3-2.4c-0.7-1.2-1.1-3-1.1-5.5v-14.4c0-1.6,0.4-2.9,1.1-3.8
		c0.7-0.9,1.7-1.6,3-2c1.3-0.4,2.7-0.6,4.3-0.6c1.7,0,3.2,0.2,4.4,0.6c1.2,0.4,2.2,1.1,2.8,2c0.7,0.9,1,2.2,1,3.8v6.3h-6.7v-6.6
		c0-0.6-0.1-1-0.2-1.3c-0.1-0.3-0.3-0.5-0.5-0.6c-0.2-0.1-0.5-0.2-0.8-0.2c-0.3,0-0.5,0.1-0.8,0.2c-0.2,0.1-0.4,0.3-0.5,0.6
		c-0.1,0.3-0.2,0.7-0.2,1.3v17.3c0,0.5,0.1,1,0.2,1.3c0.1,0.3,0.3,0.5,0.5,0.6c0.2,0.1,0.5,0.1,0.8,0.1c0.3,0,0.6,0,0.8-0.1
		c0.2-0.1,0.4-0.3,0.5-0.6c0.1-0.3,0.2-0.8,0.2-1.3v-6.1h6.7v3.5c0,2.5-0.3,4.3-1,5.5c-0.7,1.2-1.6,2-2.8,2.4
		C336.1,273.7,334.6,273.9,332.9,273.9z"/>
	<path class="st0" d="M343.8,273.3v-28.4h6.7v28.4H343.8z M355.1,273.3l-4.6-14.7l4.6-13.7h7.1l-5.2,13.6l5.3,14.7H355.1z"/>
	<path class="st0" d="M362.9,273.3l4.5-28.4h9.7l4.4,28.4h-7.4l-0.6-4.7h-2.9l-0.5,4.7H362.9z M370.7,265.4h2.8l-1.4-14.9
		L370.7,265.4z"/>
	<path class="st0" d="M383.5,273.3v-28.4h11c2,0,3.5,0.4,4.4,1.3c1,0.9,1.4,2,1.4,3.5v4.4c0,1.4-0.4,2.7-1.1,3.7
		c-0.7,1.1-1.9,1.7-3.6,1.9v0.1c1.1,0.2,1.9,0.6,2.3,1.1c0.4,0.5,0.8,1.4,1.2,2.6l2.6,9.8h-7.4l-1.9-9.4c-0.2-0.7-0.3-1.3-0.5-1.7
		c-0.2-0.4-0.4-0.6-0.7-0.6h-0.8v11.7H383.5z M390.4,256.9h1.5c0.6,0,1.1-0.2,1.4-0.6c0.3-0.4,0.5-1.1,0.5-2.1V251
		c0-1-0.1-1.6-0.4-2c-0.3-0.4-0.7-0.5-1.2-0.5h-1.7V256.9z"/>
	<path class="st0" d="M403.7,273.3v-28.4h10.7c1.9,0,3.3,0.4,4.2,1.3c0.9,0.9,1.4,2,1.4,3.5v3.2c0,0.8-0.1,1.6-0.4,2.3
		c-0.2,0.7-0.6,1.3-1.1,1.7c-0.4,0.4-0.8,0.6-1.3,0.8c-0.5,0.2-1,0.3-1.5,0.4v0c0.5,0,1,0.1,1.4,0.2c0.5,0.1,1,0.4,1.5,0.8
		c0.5,0.4,1,1,1.3,1.7c0.3,0.7,0.5,1.6,0.5,2.7v3.8c0,1.5-0.3,2.7-0.8,3.6c-0.5,0.9-1.3,1.5-2.3,1.8c-1,0.4-2.2,0.5-3.6,0.5H403.7z
		 M410.4,256.8h1.5c0.5,0,0.9-0.2,1.2-0.6c0.3-0.4,0.5-1.3,0.5-2.5V251c0-0.9-0.1-1.6-0.4-1.9c-0.3-0.4-0.6-0.6-1.1-0.6h-1.8V256.8z
		 M410.4,269.9h1.8c0.3,0,0.6-0.1,0.8-0.2c0.2-0.2,0.4-0.5,0.5-0.9c0.1-0.4,0.2-1,0.2-1.8v-3.2c0-1.2-0.1-1.9-0.4-2.3
		c-0.3-0.4-0.7-0.5-1.2-0.5h-1.6V269.9z"/>
</g>
<g>
</g>
<g>
</g>
<g>
</g>
<g>
</g>
<g>
</g>
<g>
</g>
</svg>
