<?xml version="1.0" encoding="UTF-8"?>
<!-- Generator: visioncortex VTracer 0.6.3 -->
<svg version="1.1" xmlns="http://www.w3.org/2000/svg" width="1280" height="1280">
<path d="M0 0 C1.39 1.16 2.77 2.35 4.12 3.56 C5.14 4.45 5.14 4.45 6.17 5.36 C19.22 17.58 26.91 34.05 28.4 51.8 C28.5 55.06 28.51 58.3 28.49 61.56 C28.49 62.79 28.49 64.02 28.49 65.28 C28.5 68.65 28.49 72.02 28.47 75.38 C28.46 79.03 28.46 82.67 28.47 86.32 C28.47 92.62 28.46 98.93 28.44 105.23 C28.42 114.34 28.41 123.46 28.41 132.57 C28.4 147.36 28.38 162.15 28.35 176.94 C28.32 191.3 28.3 205.65 28.29 220.01 C28.29 220.9 28.29 221.79 28.29 222.7 C28.28 227.15 28.28 231.59 28.28 236.04 C28.24 272.88 28.19 309.72 28.12 346.56 C28.72 346.56 29.31 346.55 29.93 346.55 C36.22 346.5 42.52 346.47 48.82 346.45 C51.15 346.44 53.49 346.43 55.83 346.41 C75.82 346.27 94.9 346.67 114.12 352.56 C117.55 353.55 120.98 354.52 124.41 355.49 C130.53 357.29 135.71 359.21 141.12 362.56 C142.83 363.28 144.53 364 146.23 364.71 C149.36 366.12 152.29 367.83 155.25 369.56 C155.84 369.91 156.44 370.25 157.05 370.6 C158.75 371.58 160.44 372.57 162.12 373.56 C163.09 374.1 164.06 374.63 165.05 375.19 C165.74 375.64 166.42 376.1 167.12 376.56 C167.12 377.22 167.12 377.88 167.12 378.56 C168.12 378.56 169.11 378.56 170.12 378.56 C170.12 379.22 170.12 379.88 170.12 380.56 C170.66 380.81 171.2 381.06 171.75 381.31 C174.71 382.87 177.42 384.6 180.12 386.56 C180.12 387.22 180.12 387.88 180.12 388.56 C180.67 388.78 181.21 389 181.77 389.22 C184.94 391.03 187.33 393.48 189.88 396.06 C190.38 396.56 190.89 397.06 191.41 397.57 C195.12 401.31 195.12 401.31 195.12 403.56 C196.12 403.89 197.11 404.22 198.12 404.56 C198.12 405.22 198.12 405.88 198.12 406.56 C198.79 406.56 199.44 406.56 200.12 406.56 C201.36 407.98 201.36 407.98 202.73 409.96 C203.49 411.05 203.49 411.05 204.26 412.15 C205.06 413.31 205.06 413.31 205.88 414.5 C206.42 415.29 206.96 416.07 207.52 416.88 C208.59 418.43 209.66 419.98 210.73 421.53 C211.8 423.1 212.9 424.65 214 426.2 C220.72 435.8 225.37 446.52 229.12 457.56 C229.64 458.92 230.16 460.27 230.69 461.62 C242.78 494.04 240.63 529.24 239.25 563.19 C239.21 564.19 239.17 565.19 239.13 566.22 C238.72 576.5 238.19 586.62 236.56 596.79 C236.05 600.06 235.79 603.32 235.62 606.62 C235.03 615.87 233.69 624.66 231.12 633.56 C230.98 634.91 230.86 636.27 230.75 637.62 C230.25 642.9 228.69 647.78 227.17 652.85 C225.8 657.72 224.8 662.64 223.84 667.6 C223.2 670.26 222.35 672.15 221.12 674.56 C220.3 677.62 219.61 680.7 218.91 683.79 C218.12 686.56 218.12 686.56 216.12 689.56 C215.67 690.99 215.25 692.43 214.88 693.88 C212.13 703.39 207.85 712.41 203.34 721.2 C202.51 722.82 201.7 724.44 200.91 726.08 C198.5 731.08 195.82 735.63 192.67 740.2 C190.38 743.7 188.46 747.38 186.52 751.08 C185.2 753.43 183.89 755.53 182.12 757.56 C181.46 757.56 180.81 757.56 180.12 757.56 C180 758.16 179.88 758.76 179.75 759.38 C179.12 761.56 179.12 761.56 177.12 764.56 C176.46 764.56 175.81 764.56 175.12 764.56 C174.88 765.28 174.63 766 174.37 766.74 C173 769.84 171.34 772.07 169.19 774.69 C168.5 775.54 167.81 776.38 167.1 777.26 C163.83 781.08 163.83 781.08 162.12 782.56 C161.46 782.56 160.81 782.56 160.12 782.56 C160.12 783.22 160.12 783.88 160.12 784.56 C159.46 784.56 158.81 784.56 158.12 784.56 C157.8 785.55 157.46 786.54 157.12 787.56 C156.46 787.56 155.81 787.56 155.12 787.56 C155.12 788.22 155.12 788.88 155.12 789.56 C154.46 789.56 153.81 789.56 153.12 789.56 C152.8 790.55 152.46 791.54 152.12 792.56 C151.46 792.56 150.81 792.56 150.12 792.56 C150.12 793.22 150.12 793.88 150.12 794.56 C147.66 797.11 144.85 799.3 142.12 801.56 C141.24 802.3 140.35 803.04 139.44 803.8 C132.4 809.56 132.4 809.56 130.12 809.56 C130.12 810.22 130.12 810.88 130.12 811.56 C127.96 813.37 127.96 813.37 125.06 815.44 C124.12 816.12 123.18 816.79 122.21 817.49 C119.5 819.31 116.74 820.96 113.88 822.56 C111.63 823.85 109.44 825.23 107.24 826.61 C91.64 836.28 73.31 846.13 55.12 849.56 C55.13 850.12 55.13 850.68 55.14 851.25 C55.25 864.87 55.33 878.48 55.38 892.1 C55.41 898.69 55.45 905.27 55.5 911.86 C55.56 918.22 55.59 924.59 55.6 930.96 C55.61 933.37 55.63 935.79 55.65 938.21 C55.91 961.62 52.62 979.97 36.08 997.68 C28.92 1004.56 28.92 1004.56 25.12 1004.56 C25.12 1005.22 25.12 1005.88 25.12 1006.56 C23.25 1007.53 21.38 1008.48 19.5 1009.44 C18.46 1009.97 17.41 1010.5 16.34 1011.05 C4.17 1016.77 -8.88 1016.86 -22.07 1016.81 C-23.68 1016.82 -25.29 1016.82 -26.9 1016.82 C-31.31 1016.83 -35.71 1016.83 -40.12 1016.82 C-44.92 1016.81 -49.72 1016.82 -54.52 1016.83 C-62.93 1016.83 -71.34 1016.83 -79.75 1016.83 C-92.25 1016.82 -104.76 1016.82 -117.26 1016.83 C-139.6 1016.84 -161.93 1016.84 -184.26 1016.83 C-203.81 1016.83 -223.35 1016.83 -242.9 1016.83 C-244.19 1016.83 -245.49 1016.83 -246.82 1016.83 C-252.09 1016.83 -257.35 1016.83 -262.61 1016.83 C-277.32 1016.83 -292.03 1016.84 -306.73 1016.84 C-307.74 1016.84 -307.74 1016.84 -308.76 1016.84 C-330.1 1016.84 -351.44 1016.83 -372.78 1016.83 C-373.47 1016.83 -374.16 1016.83 -374.87 1016.83 C-386.11 1016.83 -397.35 1016.83 -408.58 1016.82 C-453.15 1016.81 -497.71 1016.81 -542.28 1016.82 C-553.51 1016.83 -564.74 1016.83 -575.97 1016.83 C-577.01 1016.83 -577.01 1016.83 -578.07 1016.83 C-599.38 1016.84 -620.7 1016.84 -642.02 1016.84 C-642.68 1016.84 -643.35 1016.84 -644.04 1016.84 C-659.39 1016.84 -674.75 1016.83 -690.1 1016.83 C-695.35 1016.83 -700.6 1016.83 -705.85 1016.83 C-707.15 1016.83 -708.44 1016.83 -709.77 1016.83 C-729.3 1016.83 -748.84 1016.83 -768.37 1016.84 C-790.58 1016.84 -812.79 1016.84 -834.99 1016.83 C-847.42 1016.82 -859.86 1016.82 -872.29 1016.83 C-880.59 1016.83 -888.89 1016.83 -897.19 1016.82 C-901.92 1016.82 -906.65 1016.82 -911.38 1016.82 C-915.69 1016.83 -920 1016.83 -924.31 1016.82 C-925.85 1016.82 -927.4 1016.82 -928.94 1016.82 C-940.47 1016.86 -952.05 1016.52 -962.88 1012.19 C-963.91 1011.79 -964.94 1011.39 -966 1010.98 C-969.02 1009.49 -971.3 1007.72 -973.88 1005.56 C-975.13 1004.78 -976.39 1004.02 -977.69 1003.31 C-979.27 1002.45 -979.27 1002.45 -980.88 1001.56 C-980.88 1000.9 -980.88 1000.24 -980.88 999.56 C-981.51 999.29 -982.15 999.03 -982.81 998.75 C-984.88 997.56 -984.88 997.56 -985.88 994.56 C-986.53 994.56 -987.2 994.56 -987.88 994.56 C-993.62 988 -997.74 980.66 -1000.88 972.56 C-1001.22 971.74 -1001.57 970.92 -1001.92 970.08 C-1003.23 965.25 -1003.15 960.68 -1003.13 955.7 C-1003.13 954.59 -1003.14 953.49 -1003.14 952.36 C-1003.15 948.64 -1003.14 944.93 -1003.14 941.22 C-1003.14 938.54 -1003.14 935.86 -1003.15 933.18 C-1003.16 927.34 -1003.16 921.5 -1003.15 915.66 C-1003.15 906.98 -1003.15 898.3 -1003.16 889.61 C-1003.18 873.21 -1003.18 856.8 -1003.18 840.39 C-1003.18 827.72 -1003.18 815.05 -1003.18 802.39 C-1003.18 800.57 -1003.18 798.75 -1003.18 796.93 C-1003.18 794.19 -1003.19 791.45 -1003.19 788.71 C-1003.19 763.22 -1003.2 737.73 -1003.19 712.24 C-1003.19 711.27 -1003.19 710.31 -1003.19 709.32 C-1003.19 704.45 -1003.19 699.58 -1003.19 694.71 C-1003.19 693.74 -1003.19 692.77 -1003.19 691.77 C-1003.19 689.82 -1003.19 687.86 -1003.19 685.9 C-1003.18 655.45 -1003.19 625 -1003.21 594.55 C-1003.23 560.35 -1003.24 526.14 -1003.24 491.94 C-1003.24 488.3 -1003.24 484.65 -1003.24 481.01 C-1003.24 480.11 -1003.24 479.21 -1003.24 478.29 C-1003.24 464.72 -1003.24 451.16 -1003.25 437.6 C-1003.27 422.18 -1003.27 406.76 -1003.25 391.34 C-1003.25 382.71 -1003.25 374.08 -1003.26 365.45 C-1003.27 359.68 -1003.27 353.92 -1003.26 348.15 C-1003.25 344.87 -1003.25 341.58 -1003.26 338.3 C-1003.27 334.76 -1003.26 331.22 -1003.25 327.68 C-1003.26 326.66 -1003.26 325.64 -1003.27 324.59 C-1003.2 315.72 -1000.29 309.05 -996.31 301.25 C-995.86 300.34 -995.86 300.34 -995.39 299.41 C-994.01 296.67 -992.58 294.12 -990.88 291.56 C-990.22 291.56 -989.55 291.56 -988.88 291.56 C-988.54 290.57 -988.22 289.58 -987.88 288.56 C-987.22 288.56 -986.55 288.56 -985.88 288.56 C-985.61 287.92 -985.34 287.28 -985.06 286.62 C-983.88 284.56 -983.88 284.56 -980.88 283.56 C-980.88 282.9 -980.88 282.24 -980.88 281.56 C-967.23 270.61 -953.06 266.84 -936 266.02 C-935.12 265.97 -934.25 265.93 -933.34 265.88 C-931.18 265.77 -929.03 265.67 -926.88 265.56 C-926.87 263.99 -926.87 263.99 -926.86 262.38 C-926.8 252.43 -926.73 242.49 -926.64 232.55 C-926.59 227.43 -926.56 222.32 -926.53 217.21 C-926.5 212.27 -926.46 207.33 -926.41 202.39 C-926.4 200.51 -926.38 198.63 -926.38 196.76 C-926.33 183.66 -925.6 171.94 -919.38 160.12 C-918.79 158.99 -918.2 157.86 -917.59 156.69 C-917.03 155.66 -916.46 154.63 -915.88 153.56 C-915.35 152.6 -914.82 151.64 -914.28 150.65 C-913.82 149.96 -913.35 149.27 -912.88 148.56 C-912.22 148.56 -911.56 148.56 -910.88 148.56 C-910.67 148.03 -910.46 147.49 -910.25 146.94 C-908.34 143.64 -905.83 140.97 -902.88 138.56 C-902.22 138.56 -901.56 138.56 -900.88 138.56 C-900.88 137.9 -900.88 137.24 -900.88 136.56 C-894.81 131.34 -887.32 128.25 -879.88 125.56 C-878.44 125.04 -878.44 125.04 -876.98 124.51 C-871.5 122.98 -865.86 123.28 -860.21 123.3 C-858.28 123.29 -858.28 123.29 -856.31 123.29 C-852.74 123.28 -849.17 123.28 -845.61 123.28 C-841.72 123.28 -837.84 123.27 -833.96 123.27 C-827.15 123.25 -820.35 123.25 -813.54 123.25 C-803.43 123.25 -793.31 123.23 -783.19 123.22 C-766.17 123.19 -749.15 123.18 -732.13 123.17 C-715.27 123.16 -698.42 123.14 -681.56 123.12 C-680.51 123.12 -679.47 123.12 -678.39 123.12 C-673.07 123.11 -667.75 123.1 -662.43 123.1 C-624.73 123.05 -587.04 123.02 -549.35 122.98 C-512.73 122.95 -476.11 122.92 -439.49 122.88 C-438.36 122.88 -437.23 122.88 -436.07 122.88 C-424.73 122.86 -413.4 122.85 -402.07 122.84 C-378.98 122.81 -355.89 122.79 -332.8 122.76 C-331.21 122.76 -331.21 122.76 -329.59 122.76 C-258.68 122.68 -187.78 122.62 -116.88 122.56 C-116.87 121.58 -116.86 120.6 -116.86 119.59 C-116.8 110.32 -116.73 101.06 -116.64 91.79 C-116.59 87.02 -116.56 82.26 -116.53 77.5 C-116.5 72.89 -116.46 68.29 -116.41 63.69 C-116.4 61.94 -116.38 60.19 -116.38 58.44 C-116.3 38.9 -111.16 23.32 -97.88 8.56 C-97.11 7.71 -97.11 7.71 -96.33 6.84 C-95 5.44 -95 5.44 -92.88 3.56 C-92.22 3.56 -91.55 3.56 -90.88 3.56 C-90.88 2.9 -90.88 2.24 -90.88 1.56 C-83.9 -3.95 -76.18 -8.31 -67.88 -11.44 C-66.61 -11.92 -66.61 -11.92 -65.33 -12.41 C-43.2 -19.31 -18.25 -13.71 0 0 Z M-57.88 30.56 C-58.49 30.85 -59.11 31.14 -59.75 31.44 C-68.01 35.69 -70.68 41.67 -73.8 50.01 C-75.45 55.46 -75.55 60.55 -75.48 66.2 C-75.49 67.41 -75.49 68.61 -75.5 69.85 C-75.51 73.15 -75.49 76.45 -75.47 79.74 C-75.45 83.31 -75.46 86.89 -75.47 90.46 C-75.47 97.44 -75.45 104.41 -75.42 111.39 C-75.39 119.52 -75.39 127.64 -75.39 135.77 C-75.38 150.26 -75.35 164.75 -75.31 179.24 C-75.27 193.31 -75.24 207.38 -75.23 221.45 C-75.22 222.31 -75.22 223.18 -75.22 224.08 C-75.22 227.57 -75.22 231.06 -75.21 234.55 C-75.2 249.57 -75.18 264.6 -75.15 279.62 C-75.15 282.06 -75.14 284.49 -75.14 286.93 C-75.13 295.44 -75.11 303.95 -75.09 312.46 C-75.08 315.98 -75.07 319.5 -75.06 323.02 C-75.06 326.83 -75.04 330.64 -75.03 334.44 C-75.03 335.57 -75.03 336.69 -75.03 337.85 C-75.02 338.86 -75.02 339.87 -75.01 340.92 C-75.01 341.8 -75.01 342.67 -75 343.58 C-75.09 345.56 -75.09 345.56 -73.88 346.56 C-72 346.66 -70.13 346.68 -68.25 346.68 C-67.05 346.68 -65.85 346.68 -64.61 346.68 C-62.65 346.67 -62.65 346.67 -60.65 346.66 C-59.31 346.66 -57.96 346.66 -56.62 346.66 C-53.08 346.65 -49.54 346.64 -45.99 346.63 C-42.38 346.62 -38.77 346.62 -35.15 346.61 C-28.06 346.6 -20.97 346.58 -13.88 346.56 C-13.83 309.52 -13.79 272.47 -13.77 235.42 C-13.77 231.05 -13.77 226.68 -13.77 222.3 C-13.76 220.99 -13.76 220.99 -13.76 219.66 C-13.75 205.56 -13.74 191.47 -13.72 177.37 C-13.7 162.9 -13.69 148.43 -13.69 133.97 C-13.68 125.04 -13.68 116.12 -13.66 107.19 C-13.65 101.07 -13.65 94.94 -13.65 88.82 C-13.65 85.29 -13.65 81.76 -13.64 78.23 C-13.63 74.4 -13.63 70.56 -13.63 66.73 C-13.63 65.07 -13.63 65.07 -13.62 63.37 C-13.65 53.8 -14.53 45.1 -20.88 37.56 C-23.41 35.33 -26.06 33.41 -28.88 31.56 C-29.87 30.9 -30.86 30.24 -31.88 29.56 C-40.59 26.29 -49.51 26.42 -57.88 30.56 Z M-877.45 171.78 C-877.96 172.53 -878.47 173.29 -879 174.06 C-879.54 174.82 -880.08 175.57 -880.63 176.34 C-883.2 180.93 -883.02 185.47 -883 190.62 C-883.01 191.43 -883.01 192.24 -883.01 193.07 C-883.01 195.74 -883.01 198.41 -883.01 201.07 C-883.01 202.93 -883.01 204.78 -883.01 206.63 C-883.01 210.51 -883.01 214.39 -883.01 218.27 C-883 223.25 -883 228.24 -883.01 233.22 C-883.01 237.05 -883.01 240.87 -883.01 244.69 C-883.01 246.53 -883.01 248.37 -883.01 250.21 C-883.01 252.77 -883.01 255.33 -883 257.89 C-883.01 258.66 -883.01 259.43 -883.01 260.22 C-883.31 263.68 -883.31 263.68 -881.88 266.56 C-879.4 266.67 -876.95 266.71 -874.48 266.71 C-873.69 266.71 -872.91 266.71 -872.1 266.72 C-869.45 266.73 -866.81 266.73 -864.16 266.74 C-862.27 266.74 -860.38 266.75 -858.49 266.76 C-854.4 266.77 -850.32 266.78 -846.24 266.79 C-839.77 266.81 -833.31 266.83 -826.85 266.86 C-808.46 266.93 -790.07 266.99 -771.69 267.04 C-761.54 267.07 -751.4 267.1 -741.25 267.15 C-734.83 267.17 -728.42 267.19 -722 267.2 C-717.99 267.21 -713.98 267.23 -709.97 267.25 C-708.12 267.26 -706.27 267.26 -704.42 267.26 C-681.39 267.27 -665.74 272.24 -646.7 285.45 C-645.98 285.96 -645.25 286.46 -644.51 286.98 C-643.06 287.98 -641.62 288.99 -640.18 290.01 C-636.85 292.63 -636.85 292.63 -632.88 293.56 C-632.88 294.22 -632.88 294.88 -632.88 295.56 C-631 296.94 -631 296.94 -628.5 298.38 C-622.28 302.21 -616.4 306.45 -610.51 310.77 C-602.31 317.86 -602.31 317.86 -592.88 321.56 C-592.88 322.22 -592.88 322.88 -592.88 323.56 C-591.88 323.56 -590.89 323.56 -589.88 323.56 C-589.88 324.22 -589.88 324.88 -589.88 325.56 C-588 326.94 -588 326.94 -585.5 328.38 C-579.28 332.21 -573.4 336.45 -567.51 340.77 C-559.31 347.86 -559.31 347.86 -549.88 351.56 C-549.88 352.22 -549.88 352.88 -549.88 353.56 C-548.16 354.93 -548.16 354.93 -546 356.19 C-544.92 356.86 -544.92 356.86 -543.82 357.54 C-541.95 358.72 -541.95 358.72 -539.88 358.56 C-539.88 359.22 -539.88 359.88 -539.88 360.56 C-538 361.94 -538 361.94 -535.5 363.38 C-529.28 367.21 -523.4 371.45 -517.51 375.77 C-509.31 382.86 -509.31 382.86 -499.88 386.56 C-499.88 387.22 -499.88 387.88 -499.88 388.56 C-498.88 388.56 -497.89 388.56 -496.88 388.56 C-496.88 389.22 -496.88 389.88 -496.88 390.56 C-494.9 392.01 -494.9 392.01 -492.31 393.5 C-486.59 397.01 -481.24 400.91 -475.92 405.01 C-472.31 407.87 -472.31 407.87 -467.88 408.56 C-467.88 409.22 -467.88 409.88 -467.88 410.56 C-460.12 416.47 -452.14 416.3 -442.82 416.27 C-441.2 416.29 -439.59 416.3 -437.97 416.32 C-433.61 416.36 -429.24 416.37 -424.87 416.37 C-421.22 416.37 -417.57 416.38 -413.92 416.4 C-405.31 416.43 -396.7 416.44 -388.08 416.43 C-379.21 416.43 -370.33 416.47 -361.46 416.54 C-353.82 416.6 -346.19 416.62 -338.56 416.61 C-334 416.61 -329.45 416.62 -324.9 416.67 C-320.62 416.71 -316.34 416.71 -312.06 416.67 C-310.49 416.67 -308.92 416.68 -307.36 416.7 C-298.85 417.04 -298.85 417.04 -291.38 413.59 C-288.81 410.38 -287.18 407.47 -285.88 403.56 C-285.22 403.56 -284.55 403.56 -283.88 403.56 C-282.27 401.94 -282.27 401.94 -280.62 399.88 C-278.37 397.21 -276.17 394.85 -273.44 392.69 C-272.59 391.99 -271.75 391.28 -270.88 390.56 C-270.88 389.9 -270.88 389.24 -270.88 388.56 C-270.34 388.33 -269.81 388.1 -269.25 387.86 C-266.18 386.18 -263.54 384.05 -260.81 381.88 C-255.06 377.38 -249.15 373.31 -242.88 369.56 C-242.11 369.1 -241.34 368.64 -240.54 368.16 C-235.18 365.06 -229.65 362.76 -223.88 360.56 C-222.1 359.86 -220.33 359.15 -218.56 358.44 C-217 357.81 -215.44 357.19 -213.88 356.56 C-213.07 356.22 -212.27 355.89 -211.44 355.54 C-208.7 354.49 -205.98 353.76 -203.12 353.06 C-202.16 352.83 -201.2 352.59 -200.2 352.34 C-198.56 351.96 -198.56 351.96 -196.88 351.56 C-196.23 351.41 -195.58 351.25 -194.91 351.09 C-189.44 349.81 -184.04 348.99 -178.45 348.47 C-177.56 348.39 -176.66 348.31 -175.74 348.22 C-164.06 347.21 -152.34 347.14 -140.62 347 C-137.21 346.96 -133.79 346.91 -130.38 346.86 C-128.28 346.83 -126.18 346.8 -124.07 346.78 C-123.14 346.76 -122.21 346.75 -121.25 346.74 C-120.42 346.73 -119.6 346.72 -118.75 346.71 C-116.86 346.77 -116.86 346.77 -115.88 345.56 C-115.78 343.28 -115.75 340.99 -115.75 338.7 C-115.75 337.97 -115.74 337.25 -115.74 336.5 C-115.74 334.05 -115.74 331.59 -115.75 329.14 C-115.74 327.39 -115.74 325.64 -115.74 323.89 C-115.74 319.12 -115.74 314.35 -115.74 309.58 C-115.74 304.6 -115.74 299.62 -115.74 294.64 C-115.74 286.28 -115.74 277.91 -115.74 269.55 C-115.75 259.86 -115.75 250.18 -115.74 240.5 C-115.74 232.2 -115.74 223.9 -115.74 215.6 C-115.74 210.63 -115.74 205.67 -115.74 200.71 C-115.74 196.04 -115.74 191.38 -115.74 186.71 C-115.74 184.99 -115.74 183.28 -115.74 181.56 C-115.74 179.22 -115.74 176.89 -115.75 174.55 C-115.75 173.24 -115.75 171.93 -115.75 170.59 C-115.66 167.64 -115.66 167.64 -116.88 165.56 C-187.94 165.49 -259 165.43 -330.06 165.39 C-331.11 165.39 -332.16 165.39 -333.25 165.39 C-356.1 165.38 -378.95 165.37 -401.8 165.36 C-413.01 165.35 -424.22 165.35 -435.42 165.34 C-437.1 165.34 -437.1 165.34 -438.8 165.34 C-474.96 165.32 -511.11 165.29 -547.26 165.26 C-584.41 165.22 -621.56 165.19 -658.71 165.19 C-663.96 165.19 -669.21 165.18 -674.45 165.18 C-676 165.18 -676 165.18 -677.58 165.18 C-694.21 165.18 -710.83 165.16 -727.46 165.14 C-744.17 165.11 -760.88 165.1 -777.6 165.11 C-787.53 165.11 -797.46 165.1 -807.39 165.08 C-814.02 165.06 -820.66 165.06 -827.29 165.08 C-831.07 165.08 -834.85 165.08 -838.63 165.06 C-842.71 165.04 -846.78 165.06 -850.86 165.07 C-852.02 165.06 -853.19 165.05 -854.4 165.04 C-862.7 165.11 -870.97 166.19 -877.45 171.78 Z M-957.81 318 C-962.06 324.32 -962.16 330.75 -962.13 338.09 C-962.13 339.15 -962.14 340.22 -962.14 341.32 C-962.15 344.9 -962.14 348.49 -962.14 352.08 C-962.14 354.67 -962.14 357.26 -962.15 359.85 C-962.16 365.49 -962.16 371.13 -962.15 376.78 C-962.15 385.16 -962.15 393.55 -962.16 401.94 C-962.18 417.8 -962.18 433.65 -962.18 449.51 C-962.18 461.75 -962.18 473.99 -962.18 486.23 C-962.18 487.99 -962.18 489.74 -962.18 491.5 C-962.18 494.15 -962.19 496.8 -962.19 499.45 C-962.19 524.08 -962.2 548.71 -962.19 573.34 C-962.19 574.26 -962.19 575.19 -962.19 576.15 C-962.19 580.86 -962.19 585.57 -962.19 590.27 C-962.19 591.21 -962.19 592.14 -962.19 593.11 C-962.19 595 -962.19 596.89 -962.19 598.78 C-962.18 628.2 -962.19 657.63 -962.21 687.05 C-962.23 720.1 -962.24 753.15 -962.24 786.2 C-962.24 789.72 -962.24 793.24 -962.24 796.76 C-962.24 797.63 -962.24 798.5 -962.24 799.39 C-962.24 812.49 -962.24 825.6 -962.25 838.7 C-962.27 853.6 -962.27 868.5 -962.25 883.4 C-962.25 891.74 -962.25 900.08 -962.26 908.42 C-962.27 914.65 -962.27 920.87 -962.25 927.09 C-962.25 929.61 -962.25 932.13 -962.26 934.65 C-962.27 938.07 -962.26 941.49 -962.25 944.91 C-962.26 946.39 -962.26 946.39 -962.27 947.9 C-962.2 956.56 -959.87 962.26 -953.88 968.56 C-953.22 968.56 -952.55 968.56 -951.88 968.56 C-951.88 969.22 -951.88 969.88 -951.88 970.56 C-947 972.91 -943.48 973.94 -937.98 973.94 C-937.32 973.95 -936.66 973.95 -935.98 973.96 C-933.77 973.97 -931.56 973.96 -929.35 973.95 C-927.74 973.95 -926.13 973.96 -924.52 973.96 C-920.08 973.98 -915.64 973.97 -911.2 973.97 C-906.38 973.96 -901.56 973.97 -896.74 973.98 C-888.28 974 -879.82 974 -871.36 974 C-858.79 974 -846.21 974.01 -833.64 974.02 C-809.87 974.05 -786.11 974.06 -762.34 974.06 C-743.99 974.07 -725.65 974.07 -707.3 974.08 C-702.02 974.08 -696.74 974.09 -691.46 974.09 C-690.15 974.09 -688.84 974.09 -687.49 974.09 C-650.57 974.11 -613.66 974.12 -576.74 974.12 C-575.34 974.12 -573.93 974.12 -572.53 974.12 C-566.18 974.12 -559.83 974.12 -553.48 974.12 C-550.65 974.12 -547.81 974.12 -544.98 974.12 C-543.57 974.12 -542.15 974.12 -540.73 974.12 C-495.92 974.12 -451.1 974.14 -406.28 974.18 C-394.99 974.19 -383.7 974.2 -372.41 974.21 C-371.71 974.21 -371.02 974.21 -370.3 974.21 C-348.87 974.23 -327.44 974.24 -306.02 974.25 C-305.01 974.25 -305.01 974.25 -303.98 974.25 C-288.55 974.25 -273.12 974.25 -257.69 974.25 C-252.41 974.25 -247.13 974.25 -241.85 974.25 C-239.9 974.25 -239.9 974.25 -237.92 974.25 C-216.98 974.25 -196.04 974.27 -175.09 974.29 C-154.06 974.32 -133.02 974.32 -111.99 974.3 C-99.48 974.29 -86.98 974.3 -74.47 974.33 C-66.13 974.34 -57.78 974.34 -49.43 974.32 C-44.67 974.31 -39.91 974.3 -35.15 974.33 C-30.82 974.35 -26.49 974.34 -22.16 974.32 C-20.61 974.31 -19.05 974.32 -17.49 974.33 C-8.29 974.42 -1.18 973.66 6.12 967.56 C14.48 959.13 13.37 947.07 13.35 936.01 C13.34 934.12 13.33 932.23 13.32 930.34 C13.32 928.38 13.31 926.42 13.31 924.46 C13.3 919.33 13.28 914.21 13.26 909.08 C13.24 903.84 13.23 898.6 13.22 893.36 C13.2 883.09 13.17 872.83 13.12 862.56 C11.67 862.54 10.21 862.52 8.75 862.5 C7.53 862.48 7.53 862.48 6.29 862.46 C4.08 862.42 4.08 862.42 2.12 863.56 C0.46 863.74 -1.21 863.88 -2.88 864 C-6.47 864.3 -9.92 864.72 -13.44 865.5 C-28.01 868.58 -42.97 868.98 -57.81 869.25 C-58.77 869.27 -59.73 869.29 -60.72 869.31 C-75.44 869.6 -90.15 869.57 -104.88 869.25 C-106.17 869.22 -106.17 869.22 -107.48 869.2 C-123.4 868.86 -139.31 867.88 -154.99 865 C-158.45 864.48 -161.88 864.26 -165.38 864.06 C-173.56 863.59 -181.46 862.39 -189.44 860.5 C-192.75 859.73 -195.98 859.33 -199.38 859.06 C-205.06 858.61 -210.4 857.49 -215.89 856.02 C-220.13 854.9 -224.22 854.27 -228.58 853.84 C-233.38 853.26 -238.06 852.21 -242.61 850.59 C-246.5 849.37 -250.36 848.71 -254.38 848.06 C-259.41 847.26 -264.04 846.23 -268.88 844.56 C-271.2 844.03 -273.54 843.53 -275.88 843.06 C-280.35 842.16 -284.56 841.02 -288.88 839.56 C-291.21 839.22 -293.54 838.89 -295.88 838.56 C-299.04 837.74 -302.07 836.91 -305.07 835.62 C-308.69 834.25 -312.36 833.39 -316.12 832.5 C-323.74 830.7 -323.74 830.7 -324.88 829.56 C-325.87 829.44 -326.86 829.32 -327.88 829.19 C-332.43 828.59 -336.56 827.1 -340.88 825.56 C-341.79 825.26 -342.71 824.96 -343.65 824.65 C-349.54 822.66 -353.95 820.34 -358.88 816.56 C-359.53 816.56 -360.2 816.56 -360.88 816.56 C-360.88 815.9 -360.88 815.24 -360.88 814.56 C-362.21 812.9 -362.21 812.9 -363.88 811.56 C-364.53 811.56 -365.2 811.56 -365.88 811.56 C-366.12 810.92 -366.37 810.28 -366.62 809.62 C-368 806.26 -369.48 802.96 -370.97 799.65 C-374.29 791.98 -374.06 781.43 -372.09 773.33 C-370.42 769.14 -368.21 765.41 -365.88 761.56 C-365.88 760.57 -365.88 759.58 -365.88 758.56 C-365.22 758.56 -364.55 758.56 -363.88 758.56 C-362.25 756.23 -362.25 756.23 -360.62 753.25 C-360 752.15 -359.38 751.06 -358.75 749.93 C-357.82 748.26 -357.82 748.26 -356.88 746.56 C-356.33 745.61 -355.78 744.65 -355.22 743.67 C-351.92 737.79 -349.28 731.86 -346.88 725.56 C-346.36 724.37 -345.84 723.17 -345.31 721.94 C-342.56 715.47 -340.36 709.16 -338.81 702.31 C-338.64 701.58 -338.47 700.85 -338.3 700.09 C-337.07 694.69 -336.08 689.27 -335.27 683.79 C-334.87 681.56 -334.87 681.56 -333.88 679.56 C-333.67 678.24 -333.51 676.9 -333.38 675.57 C-333.29 674.78 -333.21 674 -333.12 673.18 C-333 671.95 -333 671.95 -332.88 670.69 C-332.71 669.06 -332.54 667.44 -332.38 665.82 C-332.3 665.1 -332.23 664.38 -332.16 663.64 C-331.88 661.56 -331.88 661.56 -331.36 659.6 C-330.8 657.25 -330.68 655.06 -330.59 652.64 C-330.54 651.23 -330.54 651.23 -330.48 649.78 C-330.43 648.31 -330.43 648.31 -330.38 646.81 C-330.31 644.88 -330.23 642.95 -330.16 641.02 C-330.11 639.73 -330.11 639.73 -330.06 638.43 C-329.92 636.21 -329.67 633.99 -329.38 631.79 C-328.8 627.36 -328.67 622.97 -328.59 618.52 C-328.58 617.62 -328.56 616.73 -328.54 615.81 C-328.48 612.81 -328.43 609.81 -328.38 606.81 C-328.33 604.67 -328.29 602.53 -328.25 600.39 C-328 586.96 -327.82 573.53 -327.66 560.1 C-327.63 557.5 -327.59 554.89 -327.56 552.29 C-327.47 544.5 -327.37 536.72 -327.29 528.93 C-327.26 525.67 -327.22 522.4 -327.18 519.14 C-327.17 517.61 -327.15 516.07 -327.14 514.54 C-327.12 512.42 -327.09 510.31 -327.06 508.2 C-327.05 506.41 -327.05 506.41 -327.03 504.59 C-326.9 502.05 -326.57 499.99 -325.88 497.56 C-325.75 495.61 -325.65 493.65 -325.56 491.69 C-324.96 483.06 -322.36 475.21 -319.75 467.02 C-318.91 463.69 -318.81 460.98 -318.88 457.56 C-319.61 457.56 -320.35 457.56 -321.11 457.56 C-339.14 457.55 -357.18 457.5 -375.21 457.43 C-383.93 457.4 -392.65 457.37 -401.37 457.37 C-408.97 457.36 -416.58 457.34 -424.18 457.3 C-428.21 457.28 -432.23 457.27 -436.25 457.28 C-440.05 457.28 -443.85 457.27 -447.64 457.23 C-449.68 457.22 -451.71 457.23 -453.74 457.25 C-466.27 457.09 -477.85 453.82 -488.19 446.56 C-488.87 446.1 -489.56 445.64 -490.27 445.16 C-496.63 440.85 -502.84 436.32 -508.99 431.71 C-510.06 430.92 -510.06 430.92 -511.14 430.12 C-512.08 429.41 -512.08 429.41 -513.04 428.69 C-514.98 427.5 -516.65 426.99 -518.88 426.56 C-518.88 425.9 -518.88 425.24 -518.88 424.56 C-522.1 422.25 -522.1 422.25 -525.88 421.56 C-525.88 420.9 -525.88 420.24 -525.88 419.56 C-526.87 419.56 -527.86 419.56 -528.88 419.56 C-528.88 418.9 -528.88 418.24 -528.88 417.56 C-530.81 416.11 -530.81 416.11 -533.38 414.62 C-539.26 411 -544.92 407.11 -550.57 403.12 C-553.9 400.49 -553.9 400.49 -557.88 399.56 C-557.88 398.9 -557.88 398.24 -557.88 397.56 C-559.82 395.97 -559.82 395.97 -562.25 394.44 C-563.06 393.9 -563.87 393.36 -564.71 392.8 C-566.75 391.4 -566.75 391.4 -568.88 391.56 C-568.88 390.9 -568.88 390.24 -568.88 389.56 C-569.84 389.04 -570.81 388.51 -571.8 387.97 C-576.46 385.31 -580.74 382.17 -585.06 379 C-585.86 378.42 -586.65 377.85 -587.47 377.25 C-593.6 372.79 -593.6 372.79 -595.94 370.88 C-597.9 369.28 -597.9 369.28 -600.88 369.56 C-600.88 368.9 -600.88 368.24 -600.88 367.56 C-602.75 366.18 -602.75 366.18 -605.25 364.75 C-611.47 360.91 -617.35 356.68 -623.24 352.36 C-631.44 345.26 -631.44 345.26 -640.88 341.56 C-640.88 340.9 -640.88 340.24 -640.88 339.56 C-642.59 338.2 -642.59 338.2 -644.75 336.94 C-645.47 336.49 -646.19 336.05 -646.93 335.59 C-648.8 334.41 -648.8 334.41 -650.88 334.56 C-650.88 333.9 -650.88 333.24 -650.88 332.56 C-652.75 331.18 -652.75 331.18 -655.25 329.75 C-661.58 325.86 -667.54 321.52 -673.5 317.09 C-674.24 316.55 -674.98 316.01 -675.74 315.45 C-676.39 314.97 -677.04 314.48 -677.72 313.99 C-684.14 309.75 -688.87 309.13 -696.41 309.17 C-697.47 309.16 -698.53 309.16 -699.62 309.15 C-703.17 309.13 -706.73 309.14 -710.28 309.14 C-712.83 309.14 -715.38 309.13 -717.92 309.12 C-724.13 309.1 -730.33 309.09 -736.53 309.09 C-741.57 309.09 -746.62 309.09 -751.66 309.08 C-753.11 309.08 -754.57 309.08 -756.02 309.08 C-756.75 309.08 -757.47 309.07 -758.21 309.07 C-771.9 309.05 -785.58 309.06 -799.26 309.06 C-811.76 309.07 -824.27 309.05 -836.77 309.01 C-849.62 308.98 -862.47 308.97 -875.32 308.97 C-882.53 308.97 -889.75 308.97 -896.96 308.94 C-903.74 308.92 -910.52 308.92 -917.3 308.94 C-919.79 308.95 -922.28 308.94 -924.77 308.93 C-928.16 308.91 -931.56 308.92 -934.96 308.94 C-935.94 308.93 -936.93 308.92 -937.94 308.9 C-946.07 309.01 -952.7 311.44 -957.81 318 Z M-232.88 412.56 C-233.62 413.05 -234.36 413.54 -235.12 414.05 C-236.75 415.16 -238.32 416.35 -239.88 417.56 C-239.88 418.22 -239.88 418.88 -239.88 419.56 C-240.42 419.78 -240.96 420 -241.52 420.22 C-244.69 422.03 -247.08 424.48 -249.62 427.06 C-250.13 427.56 -250.64 428.06 -251.16 428.57 C-254 431.09 -254 431.09 -254.88 434.56 C-255.53 434.56 -256.2 434.56 -256.88 434.56 C-258.67 436.84 -260.31 439.11 -261.94 441.5 C-262.42 442.21 -262.91 442.93 -263.41 443.66 C-266.86 448.81 -269.97 454.09 -272.88 459.56 C-273.42 460.58 -273.42 460.58 -273.97 461.62 C-277.87 469.18 -280.46 476.96 -282.56 485.19 C-282.9 486.36 -282.9 486.36 -283.24 487.55 C-285.91 498.13 -284.88 507 -284.88 518.56 C-126.14 518.56 32.59 518.56 196.12 518.56 C197.17 514.37 197.09 510.81 196.81 506.56 C196.76 505.81 196.72 505.06 196.67 504.28 C196.1 496.07 195.23 488.22 192.12 480.56 C191.76 478.98 191.4 477.4 191.06 475.81 C189.04 468.05 184.93 461.24 181.02 454.29 C180.12 452.56 180.12 452.56 179.12 449.56 C178.46 449.56 177.81 449.56 177.12 449.56 C176.87 448.85 176.62 448.14 176.36 447.41 C173.26 440.28 167.82 433.79 162.12 428.56 C161.4 427.82 160.68 427.08 159.94 426.31 C148.74 415.37 136.58 405.83 122.12 399.56 C120.78 398.95 120.78 398.95 119.4 398.33 C100.4 390.36 81.21 388.82 60.83 388.92 C58.28 388.91 55.72 388.9 53.16 388.89 C46.99 388.87 40.82 388.87 34.64 388.89 C29.62 388.9 24.6 388.9 19.57 388.89 C18.49 388.89 18.49 388.89 17.39 388.89 C15.92 388.89 14.46 388.89 12.99 388.89 C-0.68 388.87 -14.35 388.89 -28.02 388.92 C-39.7 388.94 -51.38 388.93 -63.06 388.91 C-76.69 388.88 -90.32 388.87 -103.94 388.89 C-105.4 388.89 -106.86 388.89 -108.32 388.89 C-109.04 388.89 -109.76 388.89 -110.49 388.9 C-115.5 388.9 -120.51 388.89 -125.51 388.88 C-132.28 388.87 -139.04 388.88 -145.81 388.91 C-148.27 388.91 -150.73 388.91 -153.2 388.9 C-183.36 388.78 -207.69 395.91 -232.88 412.56 Z M-284.88 559.56 C-285.56 564.38 -286.03 568.69 -286.14 573.5 C-286.16 574.15 -286.17 574.81 -286.19 575.48 C-286.23 576.89 -286.26 578.3 -286.29 579.72 C-286.34 581.97 -286.4 584.22 -286.46 586.47 C-286.62 592.88 -286.78 599.28 -286.92 605.68 C-287.69 638.3 -287.69 638.3 -289.43 651.02 C-289.95 655.14 -290.18 659.23 -290.38 663.38 C-290.81 671.98 -291.74 680.47 -293.94 688.81 C-294.64 691.63 -295.03 693.91 -295.25 696.75 C-295.74 701.81 -297.28 706.43 -298.84 711.25 C-299.79 714.28 -300.54 717.28 -301.25 720.38 C-304.41 733.22 -309.81 745.02 -315.91 756.69 C-316.91 758.63 -317.87 760.59 -318.82 762.55 C-321.19 767.3 -323.98 771.77 -326.78 776.27 C-328.67 779.35 -330.12 782.03 -330.88 785.56 C-324.05 788 -317.13 789.79 -310.1 791.52 C-305.95 792.54 -301.82 793.6 -297.69 794.69 C-295.9 795.16 -295.9 795.16 -294.08 795.63 C-290.88 796.56 -290.88 796.56 -288.12 797.7 C-285.34 798.77 -283.7 798.37 -280.88 797.56 C-280.88 796.9 -280.88 796.24 -280.88 795.56 C-280.33 795.35 -279.79 795.13 -279.23 794.91 C-276.06 793.1 -273.67 790.65 -271.12 788.06 C-270.62 787.56 -270.11 787.06 -269.59 786.55 C-266.75 784.03 -266.75 784.03 -265.88 780.56 C-265.22 780.56 -264.56 780.56 -263.88 780.56 C-261.83 778.39 -261.83 778.39 -259.75 775.69 C-259.03 774.78 -258.3 773.88 -257.55 772.95 C-255.68 770.78 -255.68 770.78 -255.88 768.56 C-255.22 768.56 -254.56 768.56 -253.88 768.56 C-252.24 766.37 -250.73 764.17 -249.25 761.88 C-248.81 761.2 -248.36 760.52 -247.9 759.82 C-246.55 757.74 -245.21 755.65 -243.88 753.56 C-243.49 752.97 -243.11 752.38 -242.72 751.77 C-238.45 745.1 -234.63 738.33 -231.18 731.2 C-230.11 729.05 -228.99 727 -227.75 724.94 C-225.76 721.36 -224.28 717.77 -222.81 713.96 C-222.06 712.03 -221.23 710.13 -220.38 708.25 C-218.59 703.85 -217.27 699.37 -215.91 694.83 C-215.01 691.97 -213.98 689.26 -212.81 686.5 C-211.29 682.86 -210.27 679.29 -209.38 675.44 C-208.17 670.3 -206.4 666.19 -203.88 661.56 C-203.38 660.08 -203.38 660.08 -202.88 658.56 C-201.06 657.5 -201.06 657.5 -198.88 656.56 C-198.31 656.22 -197.75 655.87 -197.17 655.52 C-194.04 654.21 -191.38 654.3 -188 654.31 C-186.81 654.31 -185.61 654.3 -184.38 654.3 C-180.89 654.56 -178.13 655.31 -174.88 656.56 C-174.88 657.22 -174.88 657.88 -174.88 658.56 C-174.28 658.98 -173.68 659.39 -173.06 659.81 C-170.03 662.24 -169.16 663.85 -167.88 667.56 C-167.34 674.06 -167.31 679.54 -169.88 685.56 C-170.73 688.87 -171.52 692.18 -172.29 695.5 C-173.39 700.1 -174.97 704.22 -176.88 708.56 C-177.55 710.7 -178.2 712.85 -178.81 715 C-180.16 719.48 -181.67 723.51 -183.88 727.62 C-185 729.8 -185.87 732.02 -186.75 734.31 C-188.72 739.4 -191.16 744.18 -193.7 749 C-195.08 751.55 -195.08 751.55 -194.88 754.56 C-195.53 754.56 -196.19 754.56 -196.88 754.56 C-197.21 756.21 -197.53 757.86 -197.88 759.56 C-198.53 759.56 -199.19 759.56 -199.88 759.56 C-200.26 760.37 -200.65 761.18 -201.05 762.01 C-201.57 763.08 -202.09 764.15 -202.62 765.25 C-203.14 766.31 -203.65 767.36 -204.17 768.45 C-205.88 771.56 -205.88 771.56 -208.08 774.27 C-210.18 776.47 -210.18 776.47 -209.88 779.56 C-210.53 779.56 -211.19 779.56 -211.88 779.56 C-212.37 780.51 -212.87 781.46 -213.38 782.44 C-216.95 788.68 -221.76 794.07 -226.39 799.54 C-227.21 800.52 -228.03 801.49 -228.88 802.5 C-230.02 803.84 -230.02 803.84 -231.19 805.21 C-233.17 807.49 -233.17 807.49 -232.88 810.56 C-225.99 812.28 -219.29 813.75 -212.21 814.32 C-207.62 814.8 -203.17 815.99 -198.7 817.1 C-193.74 818.28 -188.92 818.89 -183.85 819.27 C-179.5 819.7 -175.22 820.48 -170.92 821.26 C-164.96 821.85 -161.22 820.5 -156.31 817.19 C-150.88 813.56 -150.88 813.56 -148.04 811.96 C-147.32 811.5 -146.61 811.04 -145.88 810.56 C-145.88 809.9 -145.88 809.24 -145.88 808.56 C-145.16 808.32 -144.44 808.07 -143.71 807.81 C-140.56 806.42 -138.24 804.72 -135.56 802.56 C-134.68 801.86 -133.8 801.16 -132.89 800.44 C-132.22 799.82 -131.56 799.2 -130.88 798.56 C-130.88 797.9 -130.88 797.24 -130.88 796.56 C-130.33 796.35 -129.79 796.13 -129.23 795.91 C-126.06 794.1 -123.67 791.65 -121.12 789.06 C-120.62 788.56 -120.11 788.06 -119.59 787.55 C-116.75 785.03 -116.75 785.03 -115.88 781.56 C-114.88 781.23 -113.89 780.9 -112.88 780.56 C-112.88 779.9 -112.88 779.24 -112.88 778.56 C-112.22 778.56 -111.56 778.56 -110.88 778.56 C-109.08 776.47 -107.4 774.38 -105.75 772.19 C-105.28 771.58 -104.81 770.98 -104.33 770.36 C-101.74 767.31 -101.74 767.31 -100.88 763.56 C-100.22 763.56 -99.56 763.56 -98.88 763.56 C-97.08 761.23 -97.08 761.23 -95.31 758.31 C-94.69 757.34 -94.07 756.36 -93.43 755.36 C-92.12 752.99 -91.33 751.2 -90.88 748.56 C-90.22 748.56 -89.56 748.56 -88.88 748.56 C-88.5 747.8 -88.12 747.04 -87.74 746.25 C-85.39 741.51 -83.05 736.79 -80.44 732.19 C-75.85 724.02 -71.27 715.7 -68.55 706.7 C-67.78 704.26 -66.84 701.93 -65.88 699.56 C-63.22 693.01 -61.07 686.51 -59.44 679.62 C-57.16 670.37 -54.63 661.81 -46.67 655.94 C-41.13 653.21 -34.86 653.77 -28.88 654.56 C-23.21 657.14 -19.15 661.62 -16.69 667.31 C-14.73 675.13 -16.33 681.13 -18.88 688.56 C-19.35 689.98 -19.83 691.4 -20.31 692.81 C-20.56 693.54 -20.81 694.27 -21.06 695.02 C-22.07 698.17 -22.93 701.37 -23.81 704.56 C-25.17 709.39 -26.74 713.86 -28.89 718.38 C-29.96 720.76 -30.79 723.16 -31.62 725.62 C-34.1 732.58 -37.5 739.04 -40.88 745.59 C-41.78 747.38 -42.66 749.19 -43.53 751 C-46.98 758.17 -50.81 765.04 -54.88 771.88 C-55.36 772.7 -55.85 773.52 -56.35 774.37 C-59.42 779.47 -62.78 784.14 -66.55 788.74 C-68.07 790.46 -68.07 790.46 -67.88 792.56 C-68.54 792.56 -69.19 792.56 -69.88 792.56 C-71.28 794.26 -72.6 796.02 -73.88 797.81 C-74.58 798.79 -75.28 799.76 -76 800.77 C-77.5 803 -78.76 805.13 -79.88 807.56 C-80.53 807.56 -81.19 807.56 -81.88 807.56 C-83.34 809.01 -83.34 809.01 -84.88 810.94 C-88.64 815.39 -92.74 819.42 -96.93 823.46 C-99.1 825.33 -99.1 825.33 -98.88 827.56 C-82.67 829.41 -66.71 828.21 -50.5 827.06 C-48.4 826.92 -46.29 826.77 -44.19 826.63 C-39.08 826.28 -33.98 825.92 -28.88 825.56 C-28.88 824.9 -28.88 824.24 -28.88 823.56 C-28.29 823.44 -27.71 823.31 -27.12 823.18 C-18.36 820.76 -10.76 814.04 -3.54 808.74 C-1.87 807.56 -0.17 806.47 1.55 805.38 C2.4 804.78 3.25 804.18 4.12 803.56 C4.12 802.9 4.12 802.24 4.12 801.56 C4.72 801.27 5.32 800.99 5.94 800.69 C8.32 799.52 8.32 799.52 11.12 797.56 C11.12 796.9 11.12 796.24 11.12 795.56 C11.67 795.34 12.22 795.12 12.79 794.89 C20.22 790.67 26.87 782.23 32.12 775.56 C32.12 774.9 32.12 774.24 32.12 773.56 C32.79 773.56 33.44 773.56 34.12 773.56 C35.57 771.83 36.93 770.02 38.25 768.19 C38.97 767.19 39.7 766.19 40.45 765.16 C42.31 762.8 42.31 762.8 42.12 760.56 C42.79 760.56 43.44 760.56 44.12 760.56 C44.66 759.59 45.2 758.62 45.75 757.62 C47.37 754.77 49.13 752.07 51 749.38 C53.93 745.02 56.27 740.5 58.56 735.78 C59.62 733.6 60.7 731.44 61.81 729.28 C70.56 712.26 77.43 694.45 82.22 675.93 C83.75 670.22 85.37 665.22 89.12 660.56 C89.12 659.9 89.12 659.24 89.12 658.56 C90.46 657.9 91.79 657.23 93.12 656.56 C93.69 656.21 94.25 655.87 94.84 655.51 C97.96 654.22 100.63 654.3 104 654.31 C105.19 654.31 106.39 654.3 107.62 654.3 C111.11 654.56 113.87 655.31 117.12 656.56 C117.12 657.22 117.12 657.88 117.12 658.56 C118.46 660.23 118.46 660.23 120.12 661.56 C120.79 661.56 121.44 661.56 122.12 661.56 C125.36 670.05 125.46 679.56 122.11 688.04 C120.8 691.39 119.79 694.82 118.75 698.25 C114.11 713.21 108.74 727.75 101.55 741.68 C100.53 743.74 99.58 745.84 98.68 747.96 C97.07 751.69 95.29 755.24 93.38 758.81 C93.03 759.46 92.69 760.1 92.33 760.77 C89.59 765.84 86.58 770.7 83.38 775.49 C81.95 777.44 81.95 777.44 82.12 779.56 C81.46 779.56 80.81 779.56 80.12 779.56 C80.12 780.55 80.12 781.54 80.12 782.56 C79.46 782.56 78.81 782.56 78.12 782.56 C76.33 784.94 76.33 784.94 74.56 787.88 C73.94 788.86 73.32 789.85 72.68 790.86 C71.03 793.53 71.03 793.53 70.12 796.56 C69.46 796.56 68.81 796.56 68.12 796.56 C68.12 797.22 68.12 797.88 68.12 798.56 C72.17 797.89 75.4 795.81 78.88 793.75 C83.88 790.83 88.9 788.07 94.12 785.56 C94.12 784.9 94.12 784.24 94.12 783.56 C94.91 783.25 95.69 782.94 96.5 782.62 C99.05 781.63 99.05 781.63 101.12 780.56 C101.12 779.9 101.12 779.24 101.12 778.56 C102.12 778.56 103.11 778.56 104.12 778.56 C104.12 777.9 104.12 777.24 104.12 776.56 C104.66 776.32 105.2 776.07 105.75 775.81 C108.71 774.26 111.42 772.53 114.12 770.56 C114.12 769.9 114.12 769.24 114.12 768.56 C114.79 768.56 115.44 768.56 116.12 768.56 C116.12 767.9 116.12 767.24 116.12 766.56 C117.12 766.23 118.11 765.9 119.12 765.56 C119.12 764.9 119.12 764.24 119.12 763.56 C119.66 763.36 120.2 763.15 120.75 762.94 C124.04 761.03 126.72 758.51 129.12 755.56 C129.12 754.9 129.12 754.24 129.12 753.56 C130.12 753.23 131.11 752.9 132.12 752.56 C132.12 751.9 132.12 751.24 132.12 750.56 C132.79 750.56 133.44 750.56 134.12 750.56 C136.17 748.39 136.17 748.39 138.25 745.69 C138.97 744.78 139.7 743.88 140.45 742.95 C142.32 740.78 142.32 740.78 142.12 738.56 C142.79 738.56 143.44 738.56 144.12 738.56 C144.12 737.57 144.12 736.58 144.12 735.56 C144.79 735.56 145.44 735.56 146.12 735.56 C148.44 732.34 148.44 732.34 149.12 728.56 C149.79 728.56 150.44 728.56 151.12 728.56 C151.53 727.79 151.94 727.02 152.37 726.23 C152.91 725.22 153.44 724.22 154 723.19 C154.53 722.19 155.07 721.19 155.62 720.16 C157.12 717.56 157.12 717.56 159.12 715.56 C159.12 714.24 159.12 712.92 159.12 711.56 C159.79 711.56 160.44 711.56 161.12 711.56 C167.33 699.61 167.33 699.61 172.24 687.09 C172.94 685.09 173.74 683.13 174.58 681.18 C178.4 672.22 181.13 662.81 183.75 653.44 C183.94 652.75 184.14 652.06 184.34 651.34 C187.4 640.16 189.66 628.98 191.25 617.5 C191.58 615.13 191.92 612.77 192.26 610.4 C192.4 609.37 192.54 608.35 192.69 607.29 C193.12 604.56 193.12 604.56 193.66 602.44 C194.49 599.07 194.47 595.58 194.62 592.12 C194.69 590.63 194.77 589.13 194.84 587.63 C194.89 586.64 194.89 586.64 194.94 585.63 C195.15 583.25 195.66 580.9 196.12 578.56 C196.12 572.29 196.12 566.02 196.12 559.56 C37.39 559.56 -121.34 559.56 -284.88 559.56 Z " fill="#000000" transform="translate(1002.875,213.4375)"/>
<path d="M0 0 C7.34 4.55 11.11 11.31 14.74 18.94 C17.1 23.9 19.86 28.44 22.89 33.01 C24.21 35.06 25.33 37.11 26.38 39.31 C27.03 39.31 27.69 39.31 28.38 39.31 C30 40.69 30 40.69 31.38 42.31 C31.38 42.97 31.38 43.63 31.38 44.31 C32.03 44.31 32.69 44.31 33.38 44.31 C35 45.69 35 45.69 36.38 47.31 C36.38 47.97 36.38 48.63 36.38 49.31 C37.11 49.58 37.84 49.84 38.6 50.11 C41.37 51.31 43.41 52.68 45.81 54.5 C49.85 57.42 54 59.69 58.5 61.81 C64.26 64.59 69.11 67.49 73.38 72.31 C73.9 72.9 74.42 73.48 74.96 74.09 C80.18 81.4 79.71 91.76 78.38 100.31 C76.97 104.29 75.19 107.19 72.38 110.31 C71.96 110.79 71.54 111.28 71.11 111.77 C67.3 115.91 63.46 117.94 58.31 120.06 C49.93 123.74 43.37 128.44 36.38 134.31 C35.45 135.03 34.53 135.75 33.58 136.48 C31.3 138.12 31.3 138.12 30.38 140.31 C29.72 140.31 29.06 140.31 28.38 140.31 C28.11 140.89 27.85 141.46 27.58 142.05 C26.29 144.46 24.8 146.39 23.06 148.5 C18.79 153.91 15.52 159.49 12.94 165.88 C10.32 171.64 6.28 177.25 1.38 181.31 C0.38 181.31 -0.61 181.31 -1.62 181.31 C-1.62 181.97 -1.62 182.63 -1.62 183.31 C-9.98 186.7 -17.29 187.82 -25.88 184.56 C-37.29 179.44 -42.38 172.24 -47.58 161.38 C-50.06 156.25 -52.92 151.68 -56.38 147.13 C-57.62 145.31 -57.62 145.31 -57.62 143.31 C-58.28 143.31 -58.95 143.31 -59.62 143.31 C-61.06 141.82 -61.06 141.82 -62.62 139.88 C-64.77 137.16 -64.77 137.16 -67.62 135.31 C-67.62 134.65 -67.62 133.99 -67.62 133.31 C-68.2 133.05 -68.77 132.78 -69.36 132.51 C-71.73 131.25 -73.73 129.8 -75.88 128.19 C-80.31 125.02 -84.85 122.65 -89.75 120.31 C-98.5 116.06 -105.64 111.59 -109.77 102.38 C-112.04 94.22 -112.16 84.57 -108.69 76.75 C-103.3 67.95 -95.61 63.56 -86.57 59.24 C-71.04 51.78 -57.41 39.88 -49.62 24.31 C-48.97 24.31 -48.3 24.31 -47.62 24.31 C-47.51 23.61 -47.4 22.9 -47.28 22.18 C-45.1 12.65 -39.8 4.66 -31.62 -0.69 C-28.67 -2.02 -25.76 -2.92 -22.62 -3.69 C-14.45 -6.41 -7.42 -3.45 0 0 Z M-16.62 52.31 C-19 54.97 -19 54.97 -19.62 58.31 C-20.28 58.31 -20.94 58.31 -21.62 58.31 C-22.87 59.73 -22.87 59.73 -24.12 61.62 C-28.91 68.2 -34.13 74.99 -40.94 79.52 C-41.82 80.11 -42.71 80.7 -43.62 81.31 C-43.62 81.97 -43.62 82.63 -43.62 83.31 C-44.16 83.56 -44.7 83.81 -45.25 84.06 C-48.22 85.63 -50.94 87.3 -53.62 89.31 C-53.62 90.3 -53.62 91.29 -53.62 92.31 C-52.16 93.78 -52.16 93.78 -50.25 95 C-49.62 95.44 -49 95.87 -48.35 96.32 C-46.67 97.48 -46.67 97.48 -44.62 97.31 C-44.62 97.97 -44.62 98.63 -44.62 99.31 C-41.99 101.71 -41.99 101.71 -38.62 102.31 C-38.62 102.97 -38.62 103.63 -38.62 104.31 C-37.97 104.31 -37.31 104.31 -36.62 104.31 C-36.29 105.3 -35.97 106.29 -35.62 107.31 C-34.97 107.31 -34.31 107.31 -33.62 107.31 C-33.62 107.97 -33.62 108.63 -33.62 109.31 C-32.97 109.31 -32.31 109.31 -31.62 109.31 C-31.29 110.3 -30.97 111.29 -30.62 112.31 C-29.97 112.31 -29.31 112.31 -28.62 112.31 C-28.4 113.03 -28.17 113.76 -27.94 114.5 C-26.37 117.86 -24.27 119.73 -21.62 122.31 C-20.62 123.98 -19.62 125.65 -18.62 127.31 C-17.97 127.31 -17.31 127.31 -16.62 127.31 C-16.29 127.97 -15.97 128.63 -15.62 129.31 C-14.29 127.69 -12.95 126.07 -11.62 124.44 C-10.88 123.53 -10.14 122.63 -9.38 121.7 C-7.43 119.54 -7.43 119.54 -7.62 117.31 C-6.97 117.31 -6.31 117.31 -5.62 117.31 C-4.09 115.76 -4.09 115.76 -2.5 113.75 C0.61 110.08 3.92 106.96 7.58 103.85 C9.03 102.61 10.4 101.29 11.75 99.94 C13.38 98.31 13.38 98.31 15.38 97.31 C15.38 96.65 15.38 95.99 15.38 95.31 C16.69 94.98 18.01 94.65 19.38 94.31 C19.38 93.65 19.38 92.99 19.38 92.31 C20.37 92.31 21.36 92.31 22.38 92.31 C20.85 88.32 18.44 86.61 15 84.19 C14.04 83.5 13.09 82.82 12.1 82.12 C9.52 80.31 9.52 80.31 7.09 79.26 C5.38 78.31 5.38 78.31 4.38 75.31 C3.72 75.31 3.06 75.31 2.38 75.31 C2.38 74.65 2.38 73.99 2.38 73.31 C1.72 73.31 1.06 73.31 0.38 73.31 C-0.12 71.83 -0.12 71.83 -0.62 70.31 C-1.28 70.31 -1.94 70.31 -2.62 70.31 C-2.89 69.74 -3.16 69.17 -3.44 68.58 C-4.67 66.23 -6.05 64.19 -7.62 62.06 C-8.4 61 -8.4 61 -9.19 59.92 C-9.66 59.39 -10.14 58.86 -10.62 58.31 C-11.28 58.31 -11.94 58.31 -12.62 58.31 C-12.62 57.32 -12.62 56.33 -12.62 55.31 C-13.28 55.31 -13.94 55.31 -14.62 55.31 C-15.12 53.83 -15.12 53.83 -15.62 52.31 C-15.96 52.31 -16.28 52.31 -16.62 52.31 Z " fill="#000000" transform="translate(614.625,54.6875)"/>
<path d="M0 0 C1.27 2.2 1.27 2.2 2 4 C2.66 4 3.32 4 4 4 C4.8 5.5 4.8 5.5 5.61 7.04 C6.32 8.38 7.04 9.72 7.75 11.06 C8.1 11.72 8.45 12.38 8.8 13.05 C12.41 19.83 16.04 26.27 20.83 32.3 C22 34 22 34 22 36 C22.66 36 23.32 36 24 36 C25.44 37.5 25.44 37.5 27 39.44 C29.15 42.15 29.15 42.15 32 44 C32 44.66 32 45.32 32 46 C32.52 46.23 33.03 46.45 33.56 46.69 C36.22 48.12 38.57 49.86 41.01 51.64 C45.59 54.78 50.42 57.36 55.56 59.44 C59.81 61.37 63.58 63.81 67 67 C67 67.66 67 68.32 67 69 C67.66 69 68.32 69 69 69 C71.74 71.95 72 72.77 72 77 C72.66 77 73.32 77 74 77 C74.18 80.48 74.28 83.96 74.38 87.44 C74.43 88.41 74.48 89.39 74.53 90.39 C74.7 98.97 71.91 103.88 66.08 110.02 C61.84 114.16 57.3 116.4 51.88 118.68 C46.15 121.31 40.78 124.83 35.81 128.71 C34 130 34 130 32 130 C32 130.66 32 131.32 32 132 C30.62 133.62 30.62 133.62 29 135 C28.34 135 27.68 135 27 135 C27 135.66 27 136.32 27 137 C25.62 138.62 25.62 138.62 24 140 C23.34 140 22.68 140 22 140 C21.74 140.73 21.48 141.46 21.21 142.21 C19.98 145.05 18.54 147.21 16.69 149.69 C12.61 155.38 9.22 161.34 7 168 C6.34 168 5.68 168 5 168 C4.84 168.68 4.67 169.36 4.5 170.06 C1.76 175.42 -3.16 179.45 -8.62 181.94 C-15.9 184.23 -24.77 184.29 -31.88 181.44 C-40.82 176.7 -46.52 169.83 -50.44 160.62 C-53.38 153.79 -57.32 147.77 -62 142 C-62 141.34 -62 140.68 -62 140 C-62.66 140 -63.32 140 -64 140 C-66.62 137.63 -66.62 137.63 -69 135 C-69 134.34 -69 133.68 -69 133 C-69.99 132.67 -70.98 132.34 -72 132 C-72 131.34 -72 130.68 -72 130 C-72.74 129.73 -73.47 129.47 -74.23 129.2 C-76.97 128.01 -78.95 126.68 -81.31 124.88 C-85.06 122.16 -88.78 120.09 -92.96 118.16 C-102.11 113.93 -109.88 108.66 -114 99 C-114.97 93.96 -115.2 89.1 -115 84 C-114.96 82.87 -114.92 81.73 -114.88 80.56 C-112.64 71.47 -106.01 65.38 -98.5 60.31 C-96 59 -96 59 -92.81 57.69 C-85.92 54.82 -79.77 50.69 -74 46 C-73.34 46 -72.68 46 -72 46 C-72 45.34 -72 44.68 -72 44 C-70.5 42.56 -70.5 42.56 -68.56 41 C-65.85 38.85 -65.85 38.85 -64 36 C-63.34 36 -62.68 36 -62 36 C-61.77 35.48 -61.55 34.97 -61.31 34.44 C-60 32 -60 32 -57.69 28.81 C-53.91 23.59 -50.61 18.17 -48.69 12 C-45.9 4.2 -39.42 -1.55 -32.14 -5.13 C-21.61 -9.41 -8.56 -7.42 0 0 Z M-21 50 C-22.75 52.05 -24.39 54.1 -26 56.25 C-26.45 56.84 -26.9 57.42 -27.37 58.03 C-29.17 60.4 -30.84 62.67 -32.12 65.36 C-33 67 -33 67 -36 68 C-36 68.66 -36 69.32 -36 70 C-36.66 70 -37.32 70 -38 70 C-38 70.66 -38 71.32 -38 72 C-38.99 72.33 -39.98 72.66 -41 73 C-41 73.66 -41 74.32 -41 75 C-41.54 75.25 -42.08 75.5 -42.64 75.75 C-45.53 77.28 -48.1 79.09 -50.75 81 C-51.73 81.7 -52.72 82.4 -53.73 83.12 C-54.86 84.05 -54.86 84.05 -56 85 C-56 85.66 -56 86.32 -56 87 C-56.66 87 -57.32 87 -58 87 C-58 87.66 -58 88.32 -58 89 C-57.34 89 -56.68 89 -56 89 C-56 89.66 -56 90.32 -56 91 C-54.32 92.33 -52.58 93.59 -50.81 94.81 C-44.57 99.22 -44.57 99.22 -41.94 102 C-41.3 102.66 -40.66 103.32 -40 104 C-39.34 104 -38.68 104 -38 104 C-38 104.66 -38 105.32 -38 106 C-37.34 106 -36.68 106 -36 106 C-35.67 106.99 -35.34 107.98 -35 109 C-34.34 109 -33.68 109 -33 109 C-32.77 109.52 -32.55 110.04 -32.31 110.58 C-30.52 113.88 -28.28 116.78 -26 119.75 C-25.32 120.65 -25.32 120.65 -24.63 121.57 C-23.47 123.09 -22.24 124.55 -21 126 C-20.34 126 -19.68 126 -19 126 C-19 125.34 -19 124.68 -19 124 C-18.34 124 -17.68 124 -17 124 C-15.6 122.31 -14.28 120.54 -13 118.75 C-11.95 117.29 -11.95 117.29 -10.88 115.8 C-9 113.16 -9 113.16 -7.94 110.7 C-7 109 -7 109 -4 108 C-4 107.34 -4 106.68 -4 106 C-3.34 106 -2.68 106 -2 106 C-2 105.34 -2 104.68 -2 104 C-1.01 103.67 -0.02 103.34 1 103 C1 102.34 1 101.68 1 101 C1.72 100.77 2.44 100.55 3.19 100.31 C6.57 98.73 8.4 96.66 11 94 C12.26 93.08 13.53 92.19 14.81 91.31 C15.86 90.55 16.92 89.79 18 89 C18 88.34 18 87.68 18 87 C17.34 87 16.68 87 16 87 C16 86.34 16 85.68 16 85 C14.31 83.6 12.54 82.28 10.75 81 C9.78 80.3 8.8 79.6 7.8 78.88 C5.56 77.38 3.44 76.11 1 75 C1 74.34 1 73.68 1 73 C-0.33 71.33 -0.33 71.33 -2 70 C-2.66 70 -3.32 70 -4 70 C-4 69.34 -4 68.68 -4 68 C-5.33 66.33 -5.33 66.33 -7 65 C-7.66 65 -8.32 65 -9 65 C-9.25 64.46 -9.49 63.92 -9.75 63.36 C-11.28 60.47 -13.09 57.9 -15 55.25 C-15.7 54.27 -16.4 53.28 -17.12 52.27 C-18.05 51.14 -18.05 51.14 -19 50 C-19.66 50 -20.32 50 -21 50 Z " fill="#000000" transform="translate(1206,278)"/>
</svg>
