<?xml version="1.0" encoding="UTF-8"?>
<!-- Generator: visioncortex VTracer 0.6.3 -->
<svg version="1.1" xmlns="http://www.w3.org/2000/svg" width="1280" height="1280">
<path d="M0 0 C1.27 -0 2.55 -0.01 3.86 -0.01 C6.54 -0.02 9.22 -0.02 11.9 -0.02 C15.34 -0.02 18.77 -0.03 22.21 -0.05 C25.49 -0.06 28.78 -0.06 32.06 -0.06 C33.3 -0.07 34.54 -0.08 35.81 -0.08 C36.95 -0.08 38.09 -0.08 39.26 -0.07 C40.77 -0.08 40.77 -0.08 42.3 -0.08 C44.7 0.17 44.7 0.17 46.7 2.17 C46.91 4.66 47 7.06 47.01 9.55 C47.03 11.07 47.06 12.58 47.08 14.09 C47.11 16.47 47.14 18.84 47.16 21.22 C47.18 23.52 47.22 25.82 47.26 28.12 C47.26 29.17 47.26 29.17 47.26 30.24 C47.37 35.65 48.14 40.58 52.08 44.56 C57.1 48.47 61.14 48.88 67.38 48.8 C68.82 48.81 68.82 48.81 70.29 48.82 C73.48 48.84 76.68 48.82 79.88 48.8 C82.18 48.8 84.47 48.81 86.77 48.82 C93 48.84 99.23 48.83 105.46 48.81 C111.98 48.79 118.5 48.8 125.03 48.8 C135.97 48.81 146.92 48.79 157.87 48.76 C169.13 48.74 180.39 48.73 191.66 48.74 C205.23 48.76 218.81 48.76 232.39 48.74 C237.58 48.74 242.76 48.74 247.94 48.74 C254.05 48.75 260.15 48.74 266.25 48.71 C268.49 48.7 270.73 48.7 272.97 48.71 C276.03 48.72 279.08 48.7 282.14 48.68 C283.03 48.69 283.92 48.7 284.83 48.71 C290.28 48.63 293.37 47.77 297.7 44.17 C302.26 39.12 303 33.89 303.08 27.28 C303.1 26.53 303.11 25.79 303.13 25.02 C303.18 22.65 303.22 20.29 303.26 17.92 C303.31 15.54 303.35 13.16 303.4 10.77 C303.44 9.3 303.46 7.82 303.48 6.34 C303.59 1.28 303.59 1.28 304.7 0.17 C306.46 0.06 308.23 0.03 309.99 0.02 C311.13 0.02 312.26 0.01 313.42 0 C314.66 0 315.9 0 317.17 0 C318.43 -0 319.7 -0.01 321 -0.01 C323.69 -0.02 326.37 -0.02 329.06 -0.02 C332.48 -0.02 335.9 -0.03 339.33 -0.05 C342.61 -0.06 345.89 -0.06 349.17 -0.06 C351 -0.07 351 -0.07 352.86 -0.08 C364.83 -0.05 374.99 1.47 383.95 9.92 C394.91 21.59 393.99 36.6 393.95 51.69 C393.96 53.57 393.96 55.45 393.96 57.33 C393.97 62.47 393.97 67.61 393.96 72.75 C393.96 78.3 393.96 83.86 393.97 89.41 C393.98 100.28 393.98 111.15 393.97 122.02 C393.97 130.86 393.96 139.69 393.97 148.53 C393.97 149.78 393.97 151.04 393.97 152.34 C393.97 154.89 393.97 157.45 393.97 160.01 C393.98 183.28 393.97 206.56 393.96 229.84 C393.95 251.07 393.95 272.31 393.96 293.55 C393.97 317.42 393.97 341.3 393.97 365.17 C393.97 367.72 393.97 370.26 393.97 372.81 C393.97 374.06 393.97 375.32 393.97 376.61 C393.96 385.43 393.97 394.25 393.97 403.08 C393.98 413.83 393.98 424.59 393.97 435.34 C393.96 440.83 393.96 446.31 393.96 451.8 C393.97 456.82 393.97 461.85 393.96 466.87 C393.95 468.69 393.96 470.5 393.96 472.32 C394.03 500.77 394.03 500.77 384.57 510.67 C381.7 513.17 381.7 513.17 379.7 513.17 C379.7 513.83 379.7 514.49 379.7 515.17 C378.4 516 377.08 516.81 375.76 517.61 C375.03 518.06 374.3 518.51 373.55 518.98 C366.07 522.11 357.06 521.31 349.09 521.3 C347.22 521.31 347.22 521.31 345.31 521.31 C341.87 521.31 338.42 521.31 334.98 521.31 C331.26 521.31 327.54 521.32 323.82 521.32 C316.55 521.33 309.27 521.33 301.99 521.34 C296.08 521.34 290.17 521.34 284.26 521.34 C267.5 521.35 250.74 521.35 233.98 521.35 C233.08 521.35 232.18 521.35 231.25 521.35 C230.34 521.35 229.44 521.35 228.51 521.35 C213.84 521.35 199.17 521.36 184.5 521.38 C169.43 521.39 154.37 521.4 139.31 521.4 C130.85 521.4 122.39 521.4 113.94 521.41 C106.74 521.42 99.55 521.42 92.35 521.41 C88.68 521.41 85.01 521.41 81.34 521.42 C77.37 521.43 73.39 521.42 69.42 521.42 C67.66 521.42 67.66 521.42 65.87 521.43 C64.81 521.43 63.76 521.42 62.67 521.42 C61.75 521.42 60.83 521.42 59.89 521.42 C57.7 521.17 57.7 521.17 55.7 519.17 C54.34 515.77 53.51 512.37 52.82 508.79 C50.89 498.77 48.67 488.79 44.63 479.39 C43.7 477.17 42.94 474.96 42.2 472.67 C40.59 467.74 38.67 462.96 36.7 458.17 C36.35 457.3 36.01 456.43 35.65 455.54 C29.24 439.72 21.72 424.65 12.7 410.17 C12.27 409.47 11.84 408.78 11.4 408.07 C5.56 398.73 -0.66 389.72 -7.24 380.88 C-8.03 379.8 -8.03 379.8 -8.84 378.7 C-9.32 378.07 -9.79 377.43 -10.28 376.78 C-11.3 375.17 -11.3 375.17 -11.3 373.17 C-12.29 372.84 -13.28 372.51 -14.3 372.17 C-16.34 369.95 -16.34 369.95 -18.49 367.23 C-19.2 366.33 -19.92 365.44 -20.66 364.52 C-22.3 362.17 -22.3 362.17 -22.3 360.17 C-22.96 360.17 -23.62 360.17 -24.3 360.17 C-26.03 358.49 -26.03 358.49 -27.93 356.29 C-28.87 355.21 -28.87 355.21 -29.84 354.11 C-31.3 352.17 -31.3 352.17 -31.3 350.17 C-31.96 350.17 -32.62 350.17 -33.3 350.17 C-34.93 348.79 -34.93 348.79 -36.3 347.17 C-36.3 346.51 -36.3 345.85 -36.3 345.17 C-36.96 345.17 -37.62 345.17 -38.3 345.17 C-39.93 343.79 -39.93 343.79 -41.3 342.17 C-41.3 341.51 -41.3 340.85 -41.3 340.17 C-41.96 340.17 -42.62 340.17 -43.3 340.17 C-44.3 337.17 -44.43 335.2 -44.43 332.07 C-44.44 330.48 -44.44 330.48 -44.44 328.85 C-44.44 327.68 -44.44 326.51 -44.44 325.31 C-44.44 324.07 -44.45 322.83 -44.45 321.55 C-44.46 318.11 -44.46 314.66 -44.46 311.21 C-44.46 307.49 -44.47 303.78 -44.48 300.06 C-44.49 291.93 -44.5 283.8 -44.5 275.67 C-44.5 270.59 -44.51 265.51 -44.51 260.44 C-44.52 246.37 -44.53 232.31 -44.54 218.24 C-44.54 217.34 -44.54 216.44 -44.54 215.51 C-44.54 214.61 -44.54 213.71 -44.54 212.78 C-44.54 210.95 -44.54 209.12 -44.54 207.29 C-44.54 206.38 -44.54 205.48 -44.54 204.54 C-44.55 189.85 -44.56 175.17 -44.59 160.48 C-44.61 145.4 -44.62 130.31 -44.62 115.23 C-44.62 106.76 -44.63 98.3 -44.65 89.83 C-44.66 82.62 -44.67 75.4 -44.66 68.19 C-44.66 64.51 -44.66 60.83 -44.67 57.16 C-44.69 53.16 -44.68 49.17 -44.67 45.17 C-44.68 44.02 -44.68 42.87 -44.69 41.69 C-44.63 30.63 -43.04 19.61 -35.3 11.17 C-33.11 9.93 -33.11 9.93 -31.3 9.17 C-31.3 8.51 -31.3 7.85 -31.3 7.17 C-29.57 6.17 -27.84 5.17 -26.1 4.19 C-24.82 3.47 -23.56 2.73 -22.3 1.98 C-15.43 -0.81 -7.26 0.01 0 0 Z M39.7 134.17 C37.48 138.18 37.3 141.63 37.7 146.17 C40.01 152.58 44.17 155.48 49.7 159.17 C51.72 159.47 51.72 159.47 53.96 159.42 C55.27 159.43 55.27 159.43 56.6 159.44 C58.04 159.43 58.04 159.43 59.51 159.43 C60.53 159.43 61.55 159.44 62.6 159.44 C66.03 159.45 69.46 159.45 72.89 159.44 C75.35 159.45 77.8 159.45 80.25 159.46 C86.24 159.47 92.22 159.47 98.21 159.47 C103.07 159.47 107.93 159.47 112.8 159.47 C113.49 159.48 114.18 159.48 114.89 159.48 C116.3 159.48 117.7 159.48 119.11 159.48 C132.29 159.49 145.48 159.49 158.66 159.48 C170.73 159.48 182.79 159.49 194.85 159.51 C207.23 159.53 219.62 159.54 232 159.53 C238.95 159.53 245.9 159.53 252.86 159.55 C259.4 159.56 265.94 159.56 272.48 159.54 C274.88 159.54 277.28 159.54 279.68 159.55 C282.96 159.56 286.23 159.55 289.51 159.54 C290.46 159.55 291.41 159.56 292.4 159.56 C297.61 159.52 301.15 159.01 305.7 156.17 C305.7 155.51 305.7 154.85 305.7 154.17 C306.69 153.84 307.68 153.51 308.7 153.17 C311.83 147.01 312.37 141.89 310.7 135.17 C308.03 130.26 303.82 128.04 298.7 126.17 C295.26 125.63 291.88 125.63 288.41 125.67 C286.89 125.66 286.89 125.66 285.34 125.65 C281.97 125.64 278.6 125.65 275.23 125.67 C272.8 125.66 270.38 125.66 267.96 125.65 C262.07 125.64 256.18 125.64 250.29 125.66 C243.42 125.68 236.56 125.67 229.7 125.67 C217.45 125.66 205.2 125.68 192.95 125.7 C181.07 125.73 169.2 125.73 157.32 125.72 C144.37 125.71 131.43 125.71 118.48 125.72 C117.1 125.72 115.72 125.73 114.34 125.73 C113.66 125.73 112.98 125.73 112.28 125.73 C107.5 125.73 102.72 125.73 97.94 125.73 C91.5 125.72 85.06 125.73 78.63 125.76 C76.26 125.76 73.9 125.76 71.54 125.76 C68.31 125.75 65.09 125.76 61.86 125.78 C60.46 125.77 60.46 125.77 59.03 125.76 C50.84 125.84 45.15 127.63 39.7 134.17 Z M39.7 225.17 C37.38 229.11 37.3 232.65 37.7 237.17 C39.87 242.7 42.81 245.91 47.7 249.17 C49.75 249.47 49.75 249.47 52.04 249.42 C53.38 249.43 53.38 249.43 54.74 249.44 C55.72 249.44 56.7 249.43 57.71 249.43 C58.75 249.43 59.8 249.44 60.87 249.44 C64.37 249.45 67.88 249.45 71.38 249.44 C73.89 249.45 76.4 249.45 78.9 249.46 C85.01 249.47 91.13 249.47 97.24 249.47 C102.2 249.47 107.17 249.47 112.13 249.47 C113.19 249.48 113.19 249.48 114.27 249.48 C115.71 249.48 117.14 249.48 118.58 249.48 C132.04 249.49 145.5 249.49 158.96 249.48 C171.28 249.48 183.59 249.49 195.91 249.51 C208.56 249.53 221.2 249.54 233.84 249.53 C240.94 249.53 248.04 249.53 255.14 249.55 C261.82 249.56 268.49 249.56 275.17 249.54 C277.62 249.54 280.08 249.54 282.53 249.55 C285.87 249.56 289.22 249.55 292.56 249.54 C293.54 249.55 294.51 249.56 295.52 249.56 C296.42 249.56 297.31 249.55 298.23 249.54 C299 249.54 299.78 249.54 300.57 249.54 C303.29 249.06 304.7 248.03 306.7 246.17 C306.7 245.51 306.7 244.85 306.7 244.17 C307.36 244.17 308.02 244.17 308.7 244.17 C311.48 239.99 311.63 236.12 311.7 231.17 C310.75 226.58 309.11 223.4 305.7 220.17 C299.4 217.2 293.3 216.74 286.44 216.79 C285.44 216.79 284.45 216.79 283.42 216.78 C280.11 216.77 276.8 216.78 273.48 216.8 C271.1 216.79 268.71 216.79 266.33 216.78 C260.54 216.78 254.75 216.78 248.96 216.79 C242.21 216.81 235.46 216.81 228.71 216.8 C216.67 216.8 204.63 216.81 192.58 216.83 C180.91 216.85 169.23 216.86 157.55 216.85 C144.82 216.85 132.1 216.85 119.37 216.86 C118.01 216.86 116.65 216.86 115.29 216.86 C114.63 216.86 113.96 216.86 113.27 216.86 C108.57 216.87 103.87 216.87 99.17 216.86 C92.84 216.86 86.51 216.87 80.18 216.89 C77.86 216.89 75.54 216.89 73.21 216.89 C70.04 216.89 66.88 216.9 63.71 216.91 C62.79 216.9 61.87 216.9 60.92 216.9 C52.13 216.96 45.81 218.52 39.7 225.17 Z M39.7 316.17 C37.48 320.19 37.24 323.62 37.7 328.17 C38.73 331.03 39.9 333.71 41.7 336.17 C42.69 336.5 43.68 336.83 44.7 337.17 C44.7 337.83 44.7 338.49 44.7 339.17 C49.59 341.74 54.36 341.46 59.74 341.44 C60.76 341.45 61.78 341.45 62.83 341.46 C66.25 341.47 69.67 341.47 73.09 341.47 C75.54 341.48 77.99 341.49 80.44 341.5 C87.1 341.52 93.76 341.53 100.43 341.54 C104.59 341.54 108.75 341.55 112.91 341.55 C124.43 341.57 135.96 341.59 147.48 341.59 C148.59 341.59 148.59 341.59 149.72 341.59 C151.21 341.59 152.71 341.59 154.2 341.59 C155.31 341.59 155.31 341.59 156.45 341.59 C157.19 341.59 157.93 341.59 158.7 341.59 C170.73 341.6 182.77 341.62 194.8 341.66 C207.17 341.7 219.53 341.72 231.89 341.72 C238.83 341.72 245.77 341.73 252.71 341.76 C259.23 341.78 265.76 341.79 272.29 341.77 C274.68 341.77 277.07 341.77 279.47 341.79 C282.74 341.81 286.01 341.8 289.28 341.78 C290.23 341.8 291.17 341.81 292.15 341.82 C299.55 341.73 304.19 339.33 309.64 334.42 C311.86 329.7 312.12 324.87 310.89 319.86 C310.49 318.97 310.1 318.08 309.7 317.17 C309.47 316.47 309.25 315.77 309.01 315.04 C306.55 311.52 302.47 310.06 298.7 308.17 C297.34 308.07 295.98 308.04 294.62 308.04 C293.76 308.03 292.9 308.03 292.01 308.02 C290.58 308.03 290.58 308.03 289.13 308.03 C288.12 308.02 287.12 308.02 286.08 308.02 C282.69 308.01 279.3 308.01 275.91 308.01 C273.49 308 271.06 308 268.64 307.99 C262.04 307.98 255.45 307.97 248.85 307.97 C244.73 307.97 240.61 307.96 236.49 307.96 C225.09 307.94 213.69 307.93 202.28 307.93 C201.55 307.93 200.82 307.93 200.07 307.93 C198.97 307.93 198.97 307.93 197.85 307.93 C196.37 307.93 194.89 307.93 193.4 307.93 C192.3 307.93 192.3 307.93 191.17 307.93 C179.26 307.92 167.34 307.91 155.43 307.88 C143.19 307.86 130.96 307.85 118.73 307.85 C111.86 307.84 104.99 307.84 98.12 307.82 C91.66 307.8 85.2 307.8 78.74 307.81 C76.36 307.81 73.99 307.81 71.62 307.8 C68.38 307.78 65.14 307.79 61.9 307.8 C60.97 307.79 60.03 307.78 59.06 307.78 C50.85 307.84 45.16 309.61 39.7 316.17 Z M39.7 407.17 C37.72 411.2 37.23 414.71 37.7 419.17 C39.74 424.43 42.73 428.53 47.74 431.29 C52.06 432.57 56.19 432.45 60.67 432.43 C62.19 432.43 62.19 432.43 63.74 432.44 C67.13 432.45 70.53 432.45 73.92 432.44 C76.35 432.45 78.79 432.45 81.22 432.46 C87.14 432.47 93.07 432.47 98.99 432.47 C103.81 432.47 108.63 432.47 113.44 432.47 C114.47 432.48 114.47 432.48 115.52 432.48 C116.91 432.48 118.31 432.48 119.7 432.48 C132.76 432.49 145.82 432.49 158.88 432.48 C170.83 432.48 182.77 432.49 194.72 432.51 C206.99 432.53 219.26 432.54 231.52 432.53 C238.41 432.53 245.3 432.53 252.18 432.55 C258.66 432.56 265.14 432.56 271.61 432.54 C273.99 432.54 276.37 432.54 278.74 432.55 C281.99 432.56 285.23 432.55 288.48 432.54 C289.42 432.55 290.36 432.56 291.33 432.56 C298.37 432.51 303.17 431.42 308.57 426.61 C311.61 422.55 311.94 418.11 311.7 413.17 C310.94 408.64 309.38 405.33 305.73 402.48 C301.1 399.35 296.71 399.46 291.27 399.52 C290.23 399.51 289.19 399.5 288.12 399.49 C284.65 399.47 281.19 399.48 277.72 399.49 C275.22 399.48 272.73 399.47 270.24 399.45 C264.19 399.42 258.13 399.42 252.07 399.43 C247.14 399.43 242.22 399.43 237.29 399.42 C236.59 399.42 235.89 399.42 235.17 399.42 C233.74 399.41 232.31 399.41 230.89 399.41 C217.53 399.38 204.17 399.39 190.81 399.41 C178.59 399.42 166.37 399.4 154.16 399.36 C141.61 399.31 129.05 399.3 116.5 399.31 C109.46 399.31 102.41 399.31 95.37 399.28 C88.75 399.25 82.13 399.25 75.5 399.28 C73.07 399.29 70.64 399.28 68.21 399.27 C64.89 399.24 61.58 399.26 58.26 399.29 C57.3 399.28 56.34 399.26 55.35 399.24 C48.24 399.38 44.29 401.75 39.7 407.17 Z " fill="#000000" transform="translate(868.30078125,87.83203125)"/>
<path d="M0 0 C4.1 0.67 7.02 2.68 10.48 4.9 C15.45 8.11 15.45 8.11 20.85 10.46 C20.85 11.12 20.85 11.78 20.85 12.46 C21.59 12.57 22.33 12.68 23.09 12.8 C25.99 13.5 27.58 14.42 29.98 16.15 C33.23 18.41 36.48 20.42 39.98 22.28 C44.51 24.69 48.9 27.29 53.29 29.96 C57.91 32.78 62.53 35.37 67.41 37.71 C71.84 39.88 75.49 41.82 78.85 45.46 C79.64 50.21 77.49 53.65 75.23 57.65 C74.86 58.32 74.5 58.98 74.12 59.67 C72.07 63.39 69.91 67.04 67.66 70.65 C61.18 81.44 58.85 91.02 58.85 103.46 C58.85 104.54 58.85 105.62 58.85 106.73 C59.18 114.57 61.13 123.74 66.85 129.46 C66.85 130.45 66.85 131.44 66.85 132.46 C67.51 132.46 68.17 132.46 68.85 132.46 C73.85 137.94 73.85 137.94 73.85 140.46 C74.81 140.87 74.81 140.87 75.79 141.28 C77.85 142.46 77.85 142.46 78.85 145.46 C79.51 145.79 80.17 146.12 80.85 146.46 C81.51 146.79 82.17 147.12 82.85 147.46 C83.18 148.45 83.51 149.44 83.85 150.46 C84.51 150.79 85.17 151.12 85.85 151.46 C86.51 151.79 87.17 152.12 87.85 152.46 C88.18 153.45 88.51 154.44 88.85 155.46 C89.51 155.79 90.17 156.12 90.85 156.46 C91.51 156.79 92.17 157.12 92.85 157.46 C93.18 158.45 93.51 159.44 93.85 160.46 C94.51 160.79 95.17 161.12 95.85 161.46 C96.51 161.79 97.17 162.12 97.85 162.46 C98.18 163.45 98.51 164.44 98.85 165.46 C99.51 165.79 100.17 166.12 100.85 166.46 C101.51 166.79 102.17 167.12 102.85 167.46 C103.18 168.45 103.51 169.44 103.85 170.46 C104.72 169.96 104.72 169.96 105.61 169.44 C115.06 164.05 123.84 160.98 134.65 163.8 C145.25 167.01 145.25 167.01 148.85 170.46 C148.85 171.12 148.85 171.78 148.85 172.46 C149.44 172.73 150.03 173 150.64 173.27 C152.91 174.5 154.4 175.76 156.22 177.58 C156.87 178.22 157.52 178.87 158.18 179.53 C158.89 180.24 159.59 180.95 160.32 181.68 C161.45 182.8 161.45 182.8 162.61 183.96 C165.14 186.48 167.67 189.02 170.2 191.55 C172.01 193.36 173.82 195.17 175.64 196.98 C180.05 201.39 184.47 205.8 188.88 210.22 C192.46 213.81 196.05 217.39 199.63 220.98 C200.14 221.49 200.65 222 201.18 222.52 C202.21 223.56 203.25 224.59 204.29 225.63 C214.01 235.34 223.72 245.06 233.43 254.78 C241.77 263.13 250.11 271.47 258.46 279.81 C268.15 289.49 277.83 299.17 287.51 308.86 C288.54 309.89 289.57 310.92 290.61 311.95 C291.11 312.46 291.62 312.97 292.14 313.49 C295.73 317.07 299.31 320.66 302.9 324.24 C307.72 329.05 312.53 333.87 317.35 338.7 C319.12 340.47 320.89 342.25 322.67 344.02 C325.08 346.42 327.49 348.84 329.89 351.25 C330.61 351.96 331.32 352.67 332.05 353.4 C332.69 354.04 333.33 354.69 333.99 355.35 C334.55 355.91 335.1 356.46 335.68 357.04 C336.85 358.46 336.85 358.46 336.85 360.46 C337.51 360.46 338.17 360.46 338.85 360.46 C344.71 367.76 348.69 375.71 351.85 384.46 C352.2 385.38 352.54 386.29 352.9 387.23 C354.59 392.95 354.18 398.79 354.16 404.71 C354.19 406.62 354.19 406.62 354.21 408.57 C354.22 426.55 346.93 440.84 335.21 454.11 C332.85 456.46 332.85 456.46 330.85 456.46 C330.85 457.12 330.85 457.78 330.85 458.46 C329.53 458.79 328.21 459.12 326.85 459.46 C326.85 460.12 326.85 460.78 326.85 461.46 C324.62 462.76 322.4 464.05 320.16 465.34 C319.54 465.7 318.91 466.07 318.27 466.45 C302.57 475.49 283.72 476.83 266.27 472.57 C256.86 469.52 248.51 464.7 240.85 458.46 C239.86 457.8 238.87 457.14 237.85 456.46 C237.85 455.8 237.85 455.14 237.85 454.46 C236.86 454.13 235.87 453.8 234.85 453.46 C234.85 452.8 234.85 452.14 234.85 451.46 C234.19 451.46 233.53 451.46 232.85 451.46 C232.85 450.8 232.85 450.14 232.85 449.46 C231.86 449.13 230.87 448.8 229.85 448.46 C229.85 447.8 229.85 447.14 229.85 446.46 C229.19 446.46 228.53 446.46 227.85 446.46 C227.85 445.8 227.85 445.14 227.85 444.46 C226.86 444.13 225.87 443.8 224.85 443.46 C224.85 442.8 224.85 442.14 224.85 441.46 C224.19 441.46 223.53 441.46 222.85 441.46 C222.85 440.8 222.85 440.14 222.85 439.46 C221.86 439.13 220.87 438.8 219.85 438.46 C219.85 437.8 219.85 437.14 219.85 436.46 C219.19 436.46 218.53 436.46 217.85 436.46 C217.85 435.8 217.85 435.14 217.85 434.46 C216.86 434.13 215.87 433.8 214.85 433.46 C214.85 432.8 214.85 432.14 214.85 431.46 C214.19 431.46 213.53 431.46 212.85 431.46 C212.85 430.8 212.85 430.14 212.85 429.46 C211.86 429.13 210.87 428.8 209.85 428.46 C209.85 427.8 209.85 427.14 209.85 426.46 C209.19 426.46 208.53 426.46 207.85 426.46 C207.85 425.8 207.85 425.14 207.85 424.46 C206.86 424.13 205.87 423.8 204.85 423.46 C204.85 422.8 204.85 422.14 204.85 421.46 C204.19 421.46 203.53 421.46 202.85 421.46 C202.85 420.8 202.85 420.14 202.85 419.46 C201.86 419.13 200.87 418.8 199.85 418.46 C199.85 417.8 199.85 417.14 199.85 416.46 C199.19 416.46 198.53 416.46 197.85 416.46 C197.85 415.8 197.85 415.14 197.85 414.46 C196.86 414.13 195.87 413.8 194.85 413.46 C194.85 412.8 194.85 412.14 194.85 411.46 C194.19 411.46 193.53 411.46 192.85 411.46 C192.85 410.8 192.85 410.14 192.85 409.46 C191.86 409.13 190.87 408.8 189.85 408.46 C189.85 407.8 189.85 407.14 189.85 406.46 C189.19 406.46 188.53 406.46 187.85 406.46 C187.85 405.8 187.85 405.14 187.85 404.46 C186.86 404.13 185.87 403.8 184.85 403.46 C184.85 402.8 184.85 402.14 184.85 401.46 C184.19 401.46 183.53 401.46 182.85 401.46 C182.85 400.8 182.85 400.14 182.85 399.46 C181.86 399.13 180.87 398.8 179.85 398.46 C179.85 397.8 179.85 397.14 179.85 396.46 C179.19 396.46 178.53 396.46 177.85 396.46 C177.85 395.8 177.85 395.14 177.85 394.46 C176.86 394.13 175.87 393.8 174.85 393.46 C174.85 392.8 174.85 392.14 174.85 391.46 C174.19 391.46 173.53 391.46 172.85 391.46 C172.85 390.8 172.85 390.14 172.85 389.46 C171.86 389.13 170.87 388.8 169.85 388.46 C169.85 387.8 169.85 387.14 169.85 386.46 C169.19 386.46 168.53 386.46 167.85 386.46 C167.85 385.8 167.85 385.14 167.85 384.46 C166.86 384.13 165.87 383.8 164.85 383.46 C164.85 382.8 164.85 382.14 164.85 381.46 C164.19 381.46 163.53 381.46 162.85 381.46 C162.85 380.8 162.85 380.14 162.85 379.46 C161.86 379.13 160.87 378.8 159.85 378.46 C159.85 377.8 159.85 377.14 159.85 376.46 C159.19 376.46 158.53 376.46 157.85 376.46 C157.85 375.8 157.85 375.14 157.85 374.46 C156.86 374.13 155.87 373.8 154.85 373.46 C154.85 372.8 154.85 372.14 154.85 371.46 C154.19 371.46 153.53 371.46 152.85 371.46 C152.85 370.8 152.85 370.14 152.85 369.46 C151.86 369.13 150.87 368.8 149.85 368.46 C149.85 367.8 149.85 367.14 149.85 366.46 C149.19 366.46 148.53 366.46 147.85 366.46 C147.85 365.8 147.85 365.14 147.85 364.46 C146.86 364.13 145.87 363.8 144.85 363.46 C144.85 362.8 144.85 362.14 144.85 361.46 C144.19 361.46 143.53 361.46 142.85 361.46 C142.85 360.8 142.85 360.14 142.85 359.46 C141.86 359.13 140.87 358.8 139.85 358.46 C139.85 357.8 139.85 357.14 139.85 356.46 C139.19 356.46 138.53 356.46 137.85 356.46 C137.85 355.8 137.85 355.14 137.85 354.46 C136.86 354.13 135.87 353.8 134.85 353.46 C134.85 352.8 134.85 352.14 134.85 351.46 C134.19 351.46 133.53 351.46 132.85 351.46 C132.85 350.8 132.85 350.14 132.85 349.46 C131.86 349.13 130.87 348.8 129.85 348.46 C129.85 347.8 129.85 347.14 129.85 346.46 C129.19 346.46 128.53 346.46 127.85 346.46 C127.85 345.8 127.85 345.14 127.85 344.46 C126.86 344.13 125.87 343.8 124.85 343.46 C124.85 342.8 124.85 342.14 124.85 341.46 C124.19 341.46 123.53 341.46 122.85 341.46 C122.85 340.8 122.85 340.14 122.85 339.46 C121.86 339.13 120.87 338.8 119.85 338.46 C119.85 337.8 119.85 337.14 119.85 336.46 C119.19 336.46 118.53 336.46 117.85 336.46 C117.85 335.8 117.85 335.14 117.85 334.46 C116.86 334.13 115.87 333.8 114.85 333.46 C114.85 332.8 114.85 332.14 114.85 331.46 C114.19 331.46 113.53 331.46 112.85 331.46 C112.85 330.8 112.85 330.14 112.85 329.46 C111.86 329.13 110.87 328.8 109.85 328.46 C109.85 327.8 109.85 327.14 109.85 326.46 C109.19 326.46 108.53 326.46 107.85 326.46 C107.85 325.8 107.85 325.14 107.85 324.46 C106.86 324.13 105.87 323.8 104.85 323.46 C104.85 322.8 104.85 322.14 104.85 321.46 C104.19 321.46 103.53 321.46 102.85 321.46 C102.85 320.8 102.85 320.14 102.85 319.46 C101.86 319.13 100.87 318.8 99.85 318.46 C99.85 317.8 99.85 317.14 99.85 316.46 C99.19 316.46 98.53 316.46 97.85 316.46 C97.85 315.8 97.85 315.14 97.85 314.46 C96.86 314.13 95.87 313.8 94.85 313.46 C94.85 312.8 94.85 312.14 94.85 311.46 C94.19 311.46 93.53 311.46 92.85 311.46 C92.85 310.8 92.85 310.14 92.85 309.46 C91.86 309.13 90.87 308.8 89.85 308.46 C89.85 307.8 89.85 307.14 89.85 306.46 C89.19 306.46 88.53 306.46 87.85 306.46 C87.85 305.8 87.85 305.14 87.85 304.46 C86.86 304.13 85.87 303.8 84.85 303.46 C84.85 302.8 84.85 302.14 84.85 301.46 C84.19 301.46 83.53 301.46 82.85 301.46 C82.85 300.8 82.85 300.14 82.85 299.46 C81.86 299.13 80.87 298.8 79.85 298.46 C79.85 297.8 79.85 297.14 79.85 296.46 C79.19 296.46 78.53 296.46 77.85 296.46 C77.85 295.8 77.85 295.14 77.85 294.46 C76.86 294.13 75.87 293.8 74.85 293.46 C74.85 292.8 74.85 292.14 74.85 291.46 C74.19 291.46 73.53 291.46 72.85 291.46 C72.85 290.8 72.85 290.14 72.85 289.46 C71.86 289.13 70.87 288.8 69.85 288.46 C69.85 287.8 69.85 287.14 69.85 286.46 C69.19 286.46 68.53 286.46 67.85 286.46 C67.85 285.8 67.85 285.14 67.85 284.46 C66.86 284.13 65.87 283.8 64.85 283.46 C64.85 282.8 64.85 282.14 64.85 281.46 C64.19 281.46 63.53 281.46 62.85 281.46 C62.85 280.8 62.85 280.14 62.85 279.46 C61.86 279.13 60.87 278.8 59.85 278.46 C59.85 277.8 59.85 277.14 59.85 276.46 C59.19 276.46 58.53 276.46 57.85 276.46 C57.85 275.8 57.85 275.14 57.85 274.46 C56.86 274.13 55.87 273.8 54.85 273.46 C54.85 272.8 54.85 272.14 54.85 271.46 C54.19 271.46 53.53 271.46 52.85 271.46 C51.56 270.04 51.56 270.04 50.23 268.15 C49.78 267.54 49.33 266.92 48.88 266.29 C47.85 264.46 47.85 264.46 47.85 261.46 C47.19 261.46 46.53 261.46 45.85 261.46 C42.19 251.22 41.44 242.57 45.85 232.46 C46.53 231.08 47.22 229.7 47.92 228.31 C48.28 227.59 48.64 226.87 49.01 226.13 C49.29 225.58 49.57 225.03 49.85 224.46 C45.33 219.92 40.81 215.38 36.29 210.85 C34.75 209.3 33.21 207.76 31.67 206.21 C29.47 203.99 27.26 201.78 25.05 199.56 C24.01 198.52 24.01 198.52 22.96 197.46 C22.32 196.82 21.68 196.18 21.02 195.52 C20.45 194.95 19.89 194.38 19.31 193.8 C17.87 192.36 17.87 192.36 15.85 191.46 C15.85 190.8 15.85 190.14 15.85 189.46 C15.28 189.19 14.71 188.91 14.13 188.62 C11.08 187.08 8.13 185.38 5.17 183.68 C-8.21 176.65 -23.78 177.59 -37.94 181.65 C-40.39 182.46 -40.39 182.46 -43.15 184.46 C-44.14 184.46 -45.13 184.46 -46.15 184.46 C-46.15 185.12 -46.15 185.78 -46.15 186.46 C-46.82 186.79 -47.49 187.12 -48.18 187.46 C-52.94 189.82 -57.67 192.19 -62.34 194.73 C-69.29 198.49 -76.03 202.08 -83.56 204.58 C-86.41 205.55 -89.13 206.71 -91.9 207.9 C-98.85 210.84 -105.97 213.14 -113.15 215.46 C-114.73 216 -116.32 216.55 -117.9 217.09 C-124.29 219.21 -130.75 221.3 -137.46 222.03 C-141.08 222.33 -141.08 222.33 -144.09 223.46 C-147.49 224.58 -150.64 224.92 -154.2 225.22 C-156.22 225.36 -156.22 225.36 -158.15 226.46 C-161 226.84 -163.85 227.17 -166.71 227.46 C-167.49 227.55 -168.26 227.63 -169.06 227.71 C-170.54 227.87 -172.02 228.03 -173.51 228.18 C-175.04 228.35 -176.57 228.52 -178.11 228.71 C-183.73 229.4 -189.26 229.64 -194.92 229.67 C-195.84 229.67 -196.75 229.68 -197.69 229.69 C-200.63 229.71 -203.58 229.71 -206.52 229.71 C-207.53 229.72 -208.54 229.72 -209.58 229.72 C-225.62 229.7 -241.29 229.11 -257.15 226.46 C-258.71 226.21 -258.71 226.21 -260.3 225.94 C-291.27 220.64 -321.15 210.74 -349.13 196.49 C-352.38 194.84 -355.64 193.22 -358.9 191.59 C-362.32 189.88 -365.73 188.17 -369.15 186.46 C-369.15 185.8 -369.15 185.14 -369.15 184.46 C-370.01 184.28 -370.01 184.28 -370.9 184.09 C-373.17 183.46 -375.07 182.58 -377.15 181.46 C-377.15 180.8 -377.15 180.14 -377.15 179.46 C-377.69 179.37 -378.23 179.28 -378.79 179.18 C-381.85 178.25 -384.21 176.74 -386.9 175.03 C-387.88 174.41 -388.87 173.79 -389.88 173.16 C-390.63 172.6 -391.38 172.04 -392.15 171.46 C-392.15 170.8 -392.15 170.14 -392.15 169.46 C-392.81 169.26 -393.47 169.05 -394.15 168.84 C-398.22 166.97 -401.84 164.49 -405.15 161.46 C-405.15 160.8 -405.15 160.14 -405.15 159.46 C-405.72 159.2 -406.29 158.93 -406.88 158.65 C-409.23 157.42 -411.27 156.04 -413.4 154.46 C-414.1 153.95 -414.81 153.43 -415.54 152.9 C-416.07 152.43 -416.6 151.95 -417.15 151.46 C-417.15 150.8 -417.15 150.14 -417.15 149.46 C-417.74 149.2 -418.33 148.94 -418.94 148.67 C-421.25 147.41 -422.67 146.12 -424.46 144.21 C-426.76 141.83 -429.09 139.63 -431.65 137.53 C-434.98 134.73 -437.77 131.62 -440.57 128.3 C-442.11 126.45 -442.11 126.45 -443.85 124.85 C-445.15 123.46 -445.15 123.46 -445.15 121.46 C-445.81 121.46 -446.47 121.46 -447.15 121.46 C-447.81 119.81 -448.47 118.16 -449.15 116.46 C-447.53 114.42 -445.86 112.42 -444.15 110.46 C-443.49 110.46 -442.83 110.46 -442.15 110.46 C-441.75 109.51 -441.75 109.51 -441.34 108.53 C-440.15 106.46 -440.15 106.46 -437.15 105.46 C-436.65 104.47 -436.65 104.47 -436.15 103.46 C-435.15 101.46 -435.15 101.46 -432.15 100.46 C-432.15 99.8 -432.15 99.14 -432.15 98.46 C-430.77 96.84 -430.77 96.84 -429.15 95.46 C-428.49 95.46 -427.83 95.46 -427.15 95.46 C-426.88 94.83 -426.61 94.19 -426.34 93.53 C-425.15 91.46 -425.15 91.46 -422.15 90.46 C-421.82 89.8 -421.49 89.14 -421.15 88.46 C-420.15 86.46 -420.15 86.46 -417.15 85.46 C-417.15 84.8 -417.15 84.14 -417.15 83.46 C-416.49 83.46 -415.83 83.46 -415.15 83.46 C-414.65 81.98 -414.65 81.98 -414.15 80.46 C-413.49 80.46 -412.83 80.46 -412.15 80.46 C-411.88 79.83 -411.61 79.19 -411.34 78.53 C-410.15 76.46 -410.15 76.46 -407.15 75.46 C-407.15 74.8 -407.15 74.14 -407.15 73.46 C-405.77 71.84 -405.77 71.84 -404.15 70.46 C-403.49 70.46 -402.83 70.46 -402.15 70.46 C-401.88 69.83 -401.61 69.19 -401.34 68.53 C-400.15 66.46 -400.15 66.46 -397.15 65.46 C-396.65 64.47 -396.65 64.47 -396.15 63.46 C-395.15 61.46 -395.15 61.46 -392.15 60.46 C-391.65 59.47 -391.65 59.47 -391.15 58.46 C-390.15 56.46 -390.15 56.46 -387.15 55.46 C-386.82 54.47 -386.49 53.48 -386.15 52.46 C-383.96 52.09 -383.96 52.09 -381.15 52.46 C-379.06 54.29 -377.77 56.16 -376.15 58.46 C-376.15 59.12 -376.15 59.78 -376.15 60.46 C-375.49 60.46 -374.83 60.46 -374.15 60.46 C-372.7 61.97 -372.7 61.97 -371.02 64.03 C-367.92 67.69 -364.62 70.83 -360.95 73.92 C-359.25 75.38 -357.63 76.79 -356.15 78.46 C-356.15 79.12 -356.15 79.78 -356.15 80.46 C-355.61 80.71 -355.07 80.96 -354.51 81.21 C-351.62 82.74 -349.05 84.56 -346.4 86.46 C-345.41 87.17 -344.43 87.87 -343.41 88.59 C-342.67 89.21 -341.92 89.83 -341.15 90.46 C-341.15 91.12 -341.15 91.78 -341.15 92.46 C-338.82 93.67 -336.65 94.63 -334.15 95.46 C-334.15 96.12 -334.15 96.78 -334.15 97.46 C-333.44 97.72 -332.73 97.98 -331.99 98.25 C-328.97 99.54 -326.4 101.11 -323.65 102.9 C-318.54 106.22 -313.65 109.33 -308 111.66 C-306.2 112.44 -304.45 113.36 -302.71 114.28 C-293.09 119.15 -282.52 122.6 -272.15 125.46 C-265.48 127.32 -265.48 127.32 -262.81 128.46 C-259.97 129.53 -257.34 130.04 -254.33 130.5 C-253.24 130.67 -252.14 130.84 -251.02 131.01 C-249.89 131.18 -248.75 131.35 -247.59 131.53 C-245.33 131.87 -243.08 132.22 -240.83 132.56 C-239.84 132.71 -238.84 132.86 -237.82 133.02 C-235.15 133.46 -235.15 133.46 -233.26 133.98 C-230.99 134.5 -228.97 134.6 -226.65 134.61 C-225.76 134.62 -224.88 134.62 -223.96 134.63 C-222.54 134.63 -222.54 134.63 -221.08 134.63 C-219.6 134.64 -219.6 134.64 -218.08 134.64 C-215.99 134.65 -213.89 134.65 -211.8 134.65 C-208.62 134.65 -205.45 134.67 -202.27 134.69 C-200.23 134.69 -198.19 134.69 -196.14 134.7 C-194.74 134.71 -194.74 134.71 -193.31 134.72 C-187.6 134.7 -182.26 134.1 -176.66 132.97 C-174.15 132.46 -171.63 132.06 -169.09 131.68 C-168.29 131.56 -167.5 131.44 -166.67 131.32 C-165.05 131.08 -163.43 130.84 -161.8 130.61 C-157.63 129.98 -154.04 129.17 -150.15 127.46 C-147.97 126.82 -145.78 126.19 -143.59 125.59 C-130.51 121.98 -130.51 121.98 -118.16 116.49 C-116.43 115.61 -114.65 114.83 -112.87 114.07 C-96.97 107.33 -82.46 97.41 -68.96 86.73 C-67.15 85.46 -67.15 85.46 -65.15 85.46 C-65.15 84.8 -65.15 84.14 -65.15 83.46 C-63.5 81.77 -63.5 81.77 -61.34 79.9 C-60.63 79.28 -59.92 78.66 -59.19 78.02 C-57.15 76.46 -57.15 76.46 -54.15 75.46 C-54.15 74.8 -54.15 74.14 -54.15 73.46 C-52.47 71.84 -52.47 71.84 -50.27 70.03 C-47.69 67.88 -46.04 66.3 -44.15 63.46 C-43.49 63.46 -42.83 63.46 -42.15 63.46 C-41.88 62.89 -41.61 62.31 -41.34 61.71 C-40.12 59.41 -38.85 57.44 -37.15 55.46 C-36.49 55.46 -35.83 55.46 -35.15 55.46 C-34.78 54.66 -34.78 54.66 -34.4 53.84 C-32.84 50.88 -31.11 48.17 -29.15 45.46 C-28.49 45.46 -27.83 45.46 -27.15 45.46 C-26.75 44.38 -26.75 44.38 -26.34 43.28 C-25.15 40.47 -23.87 37.98 -22.15 35.46 C-21.49 35.46 -20.83 35.46 -20.15 35.46 C-20.04 34.88 -19.92 34.29 -19.8 33.69 C-19.09 31.27 -18.16 29.91 -16.65 27.9 C-12.77 22.3 -10.06 16.2 -7.22 10.03 C-6.85 9.23 -6.48 8.42 -6.1 7.6 C-5.77 6.87 -5.44 6.15 -5.11 5.41 C-2.73 0.59 -2.73 0.59 0 0 Z " fill="#000000" transform="translate(789.1484375,766.53515625)"/>
<path d="M0 0 C0.65 -0 1.3 -0 1.97 -0.01 C4.11 -0.01 6.26 -0.01 8.4 -0 C9.89 -0 11.38 -0.01 12.87 -0.01 C16 -0.01 19.12 -0.01 22.24 -0 C26.25 0 30.25 0 34.26 -0 C37.34 -0.01 40.41 -0.01 43.49 -0 C44.97 -0 46.45 -0 47.92 -0.01 C49.99 -0.01 52.05 -0.01 54.11 0 C55.29 0 56.46 0 57.67 0 C60.56 0.13 60.56 0.13 63.56 1.13 C67.2 1.59 70.84 1.99 74.48 2.38 C80.35 3.03 80.35 3.03 82.56 4.13 C83.97 4.26 85.39 4.36 86.81 4.44 C92.36 4.95 97.43 6.41 102.76 8.02 C106.79 9.2 110.85 10.21 114.93 11.19 C119.59 12.33 124.13 13.53 128.57 15.35 C131.2 16.38 133.87 17.21 136.56 18.07 C140.78 19.46 144.65 21.05 148.57 23.13 C150.81 24.26 153.09 25.16 155.43 26.07 C160.65 28.11 165.58 30.58 170.56 33.13 C171.26 33.47 171.96 33.81 172.69 34.16 C179.39 37.43 185.76 41.12 192.12 45 C193.1 45.59 194.07 46.18 195.08 46.78 C200.58 50.13 205.72 53.66 210.7 57.75 C212.61 59.32 212.61 59.32 215.56 60.13 C215.56 60.79 215.56 61.45 215.56 62.13 C216.18 62.44 216.79 62.75 217.43 63.07 C218.81 63.75 220.18 64.44 221.56 65.13 C221.56 65.79 221.56 66.45 221.56 67.13 C222.88 67.46 224.2 67.79 225.56 68.13 C225.56 68.79 225.56 69.45 225.56 70.13 C226.48 70.59 226.48 70.59 227.43 71.07 C228.81 71.75 230.18 72.44 231.56 73.13 C231.56 73.79 231.56 74.45 231.56 75.13 C232.1 75.35 232.63 75.57 233.19 75.8 C236.35 77.57 238.82 79.96 241.43 82.44 C244.47 85.3 247.5 88.11 250.73 90.75 C253.05 92.7 254.99 94.57 256.93 96.88 C260.22 100.75 263.62 104.51 267.05 108.25 C268.56 110.13 268.56 110.13 268.56 112.13 C269.22 112.13 269.88 112.13 270.56 112.13 C273.56 115.59 273.56 115.59 273.56 118.13 C274.22 118.13 274.88 118.13 275.56 118.13 C276.8 119.51 276.8 119.51 278.21 121.47 C278.73 122.19 279.26 122.92 279.8 123.67 C280.36 124.46 280.92 125.25 281.49 126.07 C282.07 126.88 282.65 127.69 283.25 128.53 C290.78 139.16 297.79 150.12 304.56 161.25 C304.92 161.85 305.28 162.44 305.65 163.05 C307.99 166.95 309.81 170.93 311.56 175.13 C312.31 176.64 313.08 178.14 313.87 179.63 C316.35 184.52 318.39 189.56 320.39 194.66 C321.74 198.12 323.16 201.52 324.74 204.88 C326.62 208.98 327.76 213.18 328.85 217.55 C329.5 220.11 329.5 220.11 330.49 222.41 C331.97 226.18 332.99 230.04 334.06 233.94 C334.27 234.71 334.48 235.48 334.7 236.27 C335.33 238.56 335.95 240.84 336.56 243.13 C336.75 243.85 336.94 244.57 337.14 245.31 C338.08 248.93 338.8 252.4 339.06 256.13 C339.38 259.84 340.06 263.24 341.02 266.85 C343.57 277.68 343.98 288.75 344.24 299.82 C344.27 300.94 344.27 300.94 344.31 302.09 C344.69 316.47 344.36 330.76 343.56 345.13 C339.74 346.14 338.89 346.29 335.17 344.47 C333.92 343.68 332.67 342.88 331.43 342.07 C330.09 341.22 328.74 340.38 327.39 339.53 C326.74 339.12 326.08 338.7 325.4 338.27 C323.01 336.79 320.55 335.45 318.06 334.13 C312.97 331.4 308.04 328.44 303.1 325.45 C299.47 323.25 295.8 321.14 292.06 319.13 C286.97 316.4 282.05 313.44 277.11 310.45 C273.37 308.19 269.6 306.02 265.74 303.94 C264.88 303.47 264.02 303 263.13 302.51 C261.36 301.56 259.57 300.65 257.76 299.78 C253.07 297.35 250.18 295.6 248.49 290.44 C247.5 285.87 247.12 281.26 246.8 276.6 C246.5 273.58 245.59 270.98 244.56 268.13 C244.41 267.04 244.27 265.94 244.12 264.82 C243.58 261.25 242.69 258.22 241.5 254.84 C240.57 252.16 239.69 249.46 238.81 246.76 C235.15 235.52 230.62 224.93 225.15 214.47 C222.56 209.45 222.56 209.45 222.56 206.13 C221.9 206.13 221.24 206.13 220.56 206.13 C220.23 204.48 219.9 202.83 219.56 201.13 C218.9 201.13 218.24 201.13 217.56 201.13 C216.69 199.58 216.69 199.58 215.81 198 C214.4 195.53 212.92 193.16 211.31 190.82 C209.56 188.13 209.56 188.13 209.56 186.13 C208.9 186.13 208.24 186.13 207.56 186.13 C204.56 181.74 204.56 181.74 204.56 179.13 C203.9 179.13 203.24 179.13 202.56 179.13 C199.56 175.67 199.56 175.67 199.56 173.13 C198.9 173.13 198.24 173.13 197.56 173.13 C196.05 171.67 196.05 171.67 194.43 169.75 C193.89 169.13 193.35 168.5 192.8 167.86 C191.56 166.13 191.56 166.13 191.56 164.13 C190.9 164.13 190.24 164.13 189.56 164.13 C188.18 162.7 188.18 162.7 186.56 160.69 C182.1 155.44 176.79 149.24 170.56 146.13 C170.56 145.47 170.56 144.81 170.56 144.13 C169.99 143.86 169.43 143.59 168.85 143.32 C166.4 142.05 164.12 140.64 161.81 139.13 C161.01 138.61 160.21 138.1 159.38 137.57 C158.78 137.09 158.18 136.62 157.56 136.13 C157.56 135.47 157.56 134.81 157.56 134.13 C156.54 133.79 156.54 133.79 155.49 133.44 C152.37 132.04 149.92 130.32 147.21 128.25 C145.44 126.94 145.44 126.94 142.56 126.13 C142.56 125.47 142.56 124.81 142.56 124.13 C142.04 124.04 141.53 123.95 141 123.86 C137.58 122.84 134.6 121.1 131.49 119.38 C121.84 114.04 111.92 109.68 101.49 106.07 C100.51 105.72 99.52 105.38 98.51 105.03 C90.73 102.38 82.93 100.41 74.88 98.82 C71.56 98.13 71.56 98.13 69.56 97.13 C67.75 96.93 65.93 96.76 64.12 96.63 C60.99 96.4 58.54 96.12 55.56 95.13 C31.47 92.51 1.73 91.13 -21.44 99.13 C-23.78 99.47 -26.11 99.81 -28.44 100.13 C-28.77 100.46 -29.1 100.79 -29.44 101.13 C-30.41 101.23 -31.38 101.34 -32.38 101.44 C-36.52 101.97 -40.09 103.46 -43.92 105.09 C-46.72 106.24 -49.57 107.18 -52.44 108.13 C-65.89 113.27 -80.27 118.96 -91.63 127.91 C-93.44 129.13 -93.44 129.13 -96.44 129.13 C-96.44 129.79 -96.44 130.45 -96.44 131.13 C-97.43 131.13 -98.42 131.13 -99.44 131.13 C-99.44 131.79 -99.44 132.45 -99.44 133.13 C-103.83 136.13 -103.83 136.13 -106.44 136.13 C-106.44 136.79 -106.44 137.45 -106.44 138.13 C-108.12 139.64 -108.12 139.64 -110.32 141.25 C-111.04 141.79 -111.76 142.33 -112.5 142.89 C-114.44 144.13 -114.44 144.13 -116.44 144.13 C-116.44 144.79 -116.44 145.45 -116.44 146.13 C-121.92 151.13 -121.92 151.13 -124.44 151.13 C-124.44 151.79 -124.44 152.45 -124.44 153.13 C-126.12 154.75 -126.12 154.75 -128.32 156.57 C-130.91 158.71 -132.56 160.3 -134.44 163.13 C-135.1 163.13 -135.76 163.13 -136.44 163.13 C-136.71 163.71 -136.98 164.29 -137.26 164.9 C-138.46 167.16 -139.78 168.94 -141.44 170.88 C-141.96 171.49 -142.47 172.11 -143.01 172.74 C-144.44 174.13 -144.44 174.13 -146.44 174.13 C-146.71 174.87 -146.98 175.61 -147.26 176.38 C-148.4 179.02 -149.54 180.98 -151.44 183.13 C-152.1 183.13 -152.76 183.13 -153.44 183.13 C-153.67 183.8 -153.89 184.46 -154.13 185.15 C-155.83 189.01 -158.12 192.29 -160.51 195.75 C-161.42 197.08 -162.32 198.4 -163.23 199.73 C-163.63 200.31 -164.03 200.89 -164.44 201.49 C-165.62 203.28 -165.62 203.28 -166.44 206.13 C-167.1 206.13 -167.76 206.13 -168.44 206.13 C-168.77 207.78 -169.1 209.43 -169.44 211.13 C-170.1 211.13 -170.76 211.13 -171.44 211.13 C-171.55 211.85 -171.65 212.57 -171.76 213.32 C-172.44 216.13 -172.44 216.13 -173.87 218.48 C-175.41 221.07 -176.4 223.47 -177.38 226.32 C-178.65 229.94 -179.98 233.52 -181.44 237.07 C-183.71 242.67 -185.62 248.37 -187.44 254.13 C-187.79 255.19 -187.79 255.19 -188.14 256.28 C-194.47 276.5 -195.92 296.77 -195.88 317.82 C-195.88 319.28 -195.88 319.28 -195.88 320.78 C-195.92 334.48 -195.92 334.48 -193.87 347.98 C-193.22 351.26 -192.71 354 -194.6 356.9 C-195.14 357.44 -195.69 357.98 -196.25 358.54 C-196.88 359.17 -197.5 359.8 -198.14 360.45 C-198.83 361.12 -199.52 361.8 -200.24 362.49 C-200.96 363.21 -201.68 363.93 -202.42 364.68 C-204.81 367.07 -207.22 369.44 -209.63 371.81 C-211.29 373.46 -212.95 375.11 -214.61 376.76 C-218.98 381.11 -223.36 385.44 -227.75 389.78 C-232.22 394.2 -236.68 398.63 -241.14 403.07 C-249.89 411.77 -258.66 420.45 -267.44 429.13 C-268.43 428.8 -269.42 428.47 -270.44 428.13 C-271.76 425.36 -271.76 425.36 -273.01 421.88 C-273.63 420.17 -273.63 420.17 -274.26 418.43 C-274.65 417.34 -275.04 416.25 -275.44 415.13 C-275.8 414.24 -276.17 413.35 -276.54 412.43 C-277.57 409.81 -278.23 407.15 -278.88 404.41 C-279.49 401.92 -280.19 399.47 -280.88 397 C-282.68 390.44 -284.09 383.8 -285.44 377.13 C-285.64 376.18 -285.84 375.23 -286.04 374.25 C-287.19 368.41 -287.77 362.65 -288.14 356.72 C-288.43 353.28 -288.92 349.95 -289.46 346.55 C-290.75 337.54 -290.75 328.54 -290.7 319.45 C-290.69 316.63 -290.7 313.82 -290.72 311 C-290.72 301.63 -290.38 292.55 -288.91 283.28 C-288.44 280.08 -288.19 276.92 -288.01 273.69 C-287.65 268.51 -286.9 263.48 -285.94 258.38 C-285.75 257.32 -285.75 257.32 -285.55 256.24 C-284.58 251.26 -284.58 251.26 -283.44 250.13 C-282.79 246.8 -282.2 243.47 -281.64 240.12 C-280.99 236.45 -280.24 233.39 -278.44 230.13 C-278.32 229.1 -278.2 228.07 -278.07 227 C-277.41 222.91 -276.14 219.66 -274.54 215.86 C-273.4 213.02 -272.44 210.17 -271.51 207.25 C-267.8 196.01 -262.77 185.55 -257.41 175.03 C-256.02 172.29 -254.67 169.52 -253.32 166.75 C-243.52 147.24 -230.22 129.01 -216.22 112.3 C-214.32 110.05 -214.32 110.05 -212.44 107.13 C-211.78 107.13 -211.12 107.13 -210.44 107.13 C-210.19 106.55 -209.94 105.97 -209.68 105.38 C-208.29 102.85 -206.71 101.2 -204.63 99.19 C-203.96 98.54 -203.3 97.9 -202.61 97.23 C-201.9 96.53 -201.18 95.84 -200.44 95.13 C-197.94 92.64 -195.46 90.14 -192.98 87.63 C-183.98 78.53 -183.98 78.53 -179.44 75.13 C-178.78 75.13 -178.12 75.13 -177.44 75.13 C-176.95 73.64 -176.95 73.64 -176.44 72.13 C-174.92 70.73 -174.92 70.73 -172.99 69.32 C-172.29 68.8 -171.59 68.28 -170.86 67.75 C-170.13 67.21 -169.39 66.68 -168.63 66.13 C-167.91 65.6 -167.18 65.06 -166.43 64.51 C-165.07 63.51 -163.71 62.52 -162.35 61.52 C-160.99 60.53 -159.65 59.5 -158.33 58.45 C-156.44 57.13 -156.44 57.13 -154.44 57.13 C-154.44 56.47 -154.44 55.81 -154.44 55.13 C-153.03 54.04 -153.03 54.04 -151.03 52.84 C-149.93 52.18 -149.93 52.18 -148.8 51.5 C-148 51.03 -147.2 50.55 -146.38 50.07 C-145.57 49.58 -144.76 49.1 -143.93 48.59 C-142.25 47.59 -140.58 46.59 -138.9 45.59 C-136.62 44.23 -134.35 42.86 -132.08 41.47 C-130.77 40.67 -129.45 39.87 -128.13 39.07 C-127.53 38.7 -126.93 38.33 -126.3 37.95 C-123.1 36.01 -119.94 34.45 -116.44 33.13 C-115.72 32.68 -115 32.22 -114.26 31.75 C-110.94 29.84 -107.54 28.54 -103.97 27.16 C-101.78 26.27 -99.72 25.29 -97.63 24.19 C-89.43 19.99 -80.72 17 -71.78 14.81 C-69.46 14.21 -69.46 14.21 -67.5 13.13 C-64.91 11.87 -62.39 11.35 -59.57 10.75 C-54.73 9.69 -50 8.44 -45.26 7 C-40.32 5.56 -35.72 4.69 -30.6 4.34 C-28.21 4.17 -28.21 4.17 -25.07 3.13 C-20.74 1.94 -16.59 1.65 -12.12 1.38 C-7.9 0.99 -4.33 0 0 0 Z " fill="#000000" transform="translate(554.443359375,361.87060546875)"/>
<path d="M0 0 C0.73 0.36 1.46 0.71 2.22 1.08 C7.86 3.88 13.26 7.03 18.61 10.34 C23.32 13.25 28.16 15.74 33.15 18.15 C36.79 19.99 40.23 22.09 43.68 24.27 C46.04 25.62 48.4 26.61 50.94 27.56 C50.94 28.22 50.94 28.88 50.94 29.56 C51.64 29.66 52.34 29.77 53.06 29.87 C59.93 31.52 67.17 35.61 71.12 41.56 C74.35 47.85 74.23 52.78 72.12 59.35 C69.19 64.84 63.72 68.43 58.81 72.06 C58.12 72.58 57.43 73.09 56.72 73.62 C50.57 78.17 44.28 82.48 37.95 86.77 C32.29 90.61 26.74 94.58 21.24 98.66 C-1.26 115.31 -1.26 115.31 -11.25 114.35 C-16.24 113.35 -18.86 111.41 -22.06 107.56 C-22.59 106.95 -23.11 106.33 -23.65 105.7 C-26.76 101 -26.34 95.1 -25.38 89.75 C-24.01 86.43 -22.56 84.14 -20.06 81.56 C-19.4 81.56 -18.74 81.56 -18.06 81.56 C-18.06 80.9 -18.06 80.24 -18.06 79.56 C-17.07 79.56 -16.08 79.56 -15.06 79.56 C-15.06 78.9 -15.06 78.24 -15.06 77.56 C-14.4 77.23 -13.74 76.9 -13.06 76.56 C-22.24 76.02 -30.32 76.96 -39.22 79.05 C-43.06 79.95 -46.78 80.69 -50.7 81.07 C-54.65 81.46 -58.26 82.33 -62.06 83.5 C-66.52 84.82 -70.92 86.04 -75.46 87.01 C-84.94 89.03 -94.27 91.04 -103.32 94.56 C-106.55 95.74 -109.81 96.65 -113.12 97.56 C-118 98.92 -122.64 100.47 -127.3 102.43 C-130.88 103.9 -134.5 105.22 -138.12 106.56 C-143.21 108.45 -148.2 110.43 -153.12 112.7 C-155.11 113.59 -157.13 114.33 -159.19 115.06 C-162.41 116.24 -165.24 117.79 -168.2 119.55 C-170.19 120.63 -172.18 121.4 -174.31 122.19 C-180.62 124.59 -186.47 127.88 -192.37 131.12 C-193.16 131.55 -193.96 131.98 -194.77 132.42 C-195.48 132.81 -196.18 133.19 -196.91 133.59 C-199.28 134.66 -201.51 135.14 -204.06 135.56 C-204.06 136.22 -204.06 136.88 -204.06 137.56 C-205.71 137.89 -207.36 138.22 -209.06 138.56 C-209.06 139.22 -209.06 139.88 -209.06 140.56 C-210.33 141.18 -210.33 141.18 -211.62 141.8 C-212.71 142.34 -213.81 142.88 -214.94 143.44 C-216.03 143.97 -217.12 144.5 -218.24 145.05 C-221.1 146.41 -221.1 146.41 -223.06 148.56 C-224.05 148.56 -225.04 148.56 -226.06 148.56 C-226.06 149.22 -226.06 149.88 -226.06 150.56 C-228.97 152.6 -230.46 153.56 -234.06 153.56 C-234.06 154.22 -234.06 154.88 -234.06 155.56 C-235.09 156.14 -236.12 156.72 -237.19 157.31 C-239.66 158.72 -242.03 160.19 -244.38 161.81 C-247.06 163.56 -247.06 163.56 -249.06 163.56 C-249.06 164.22 -249.06 164.88 -249.06 165.56 C-250.74 166.85 -250.74 166.85 -252.94 168.19 C-253.66 168.63 -254.38 169.08 -255.12 169.54 C-257.06 170.56 -257.06 170.56 -259.06 170.56 C-259.06 171.22 -259.06 171.88 -259.06 172.56 C-261.28 174.29 -263.5 175.91 -265.81 177.5 C-267.08 178.38 -268.34 179.27 -269.61 180.15 C-270.21 180.57 -270.81 180.98 -271.43 181.41 C-272.78 182.36 -274.09 183.36 -275.39 184.38 C-277.06 185.56 -277.06 185.56 -279.06 185.56 C-279.06 186.22 -279.06 186.88 -279.06 187.56 C-281.18 189.51 -281.18 189.51 -283.94 191.69 C-284.84 192.41 -285.75 193.14 -286.68 193.88 C-289.06 195.56 -289.06 195.56 -291.06 195.56 C-291.06 196.22 -291.06 196.88 -291.06 197.56 C-292.64 199.15 -292.64 199.15 -294.75 200.94 C-295.48 201.55 -296.21 202.17 -296.96 202.81 C-297.65 203.39 -298.35 203.97 -299.06 204.56 C-300.01 205.37 -300.96 206.17 -301.94 207 C-304.06 208.56 -304.06 208.56 -306.06 208.56 C-306.06 209.22 -306.06 209.88 -306.06 210.56 C-307.44 212.19 -307.44 212.19 -309.06 213.56 C-309.72 213.56 -310.38 213.56 -311.06 213.56 C-311.06 214.22 -311.06 214.88 -311.06 215.56 C-312.71 217.18 -312.71 217.18 -314.88 219 C-317.89 221.54 -317.89 221.54 -320.7 224.29 C-322.06 225.56 -322.06 225.56 -324.06 225.56 C-324.3 226.13 -324.54 226.7 -324.79 227.29 C-326.32 230.02 -328.17 231.83 -330.44 234 C-332.98 236.48 -335.28 238.84 -337.5 241.62 C-338.02 242.26 -338.53 242.9 -339.06 243.56 C-339.72 243.56 -340.38 243.56 -341.06 243.56 C-341.31 244.12 -341.56 244.68 -341.81 245.25 C-343.29 247.99 -345 250.24 -347.06 252.56 C-347.72 252.56 -348.38 252.56 -349.06 252.56 C-349.46 253.43 -349.46 253.43 -349.88 254.31 C-351.09 256.62 -352.37 258.58 -354.06 260.56 C-354.72 260.56 -355.38 260.56 -356.06 260.56 C-356.28 261.08 -356.5 261.6 -356.73 262.14 C-358.59 265.51 -360.96 268.38 -363.38 271.38 C-364.33 272.57 -365.29 273.76 -366.24 274.96 C-366.71 275.54 -367.18 276.13 -367.66 276.74 C-369.11 278.62 -370.45 280.55 -371.79 282.51 C-372.54 283.52 -373.29 284.53 -374.06 285.56 C-374.72 285.56 -375.38 285.56 -376.06 285.56 C-376.33 286.3 -376.6 287.03 -376.87 287.78 C-378.04 290.51 -379.35 292.64 -381.07 295.04 C-381.66 295.87 -382.25 296.7 -382.86 297.56 C-383.8 298.86 -383.8 298.86 -384.75 300.19 C-389.2 306.46 -393.57 312.73 -397.62 319.26 C-399.07 321.57 -400.59 323.81 -402.12 326.06 C-404.86 330.14 -407.2 334.37 -409.5 338.7 C-411.07 341.58 -412.74 344.38 -414.44 347.19 C-417.69 352.71 -420.4 358.39 -423.07 364.2 C-425.17 368.73 -427.4 373.13 -429.81 377.5 C-432.22 381.9 -434.27 386.24 -436.04 390.93 C-437.25 394.04 -438.59 397.07 -439.94 400.12 C-442.55 406.17 -444.8 412.29 -446.95 418.52 C-448.27 422.33 -449.64 426.09 -451.19 429.81 C-457.47 445.23 -461.26 461.95 -465.17 478.11 C-466.06 481.56 -466.06 481.56 -467.14 484.75 C-467.95 487.2 -468.39 489.31 -468.62 491.88 C-469.06 495.56 -469.06 495.56 -470.06 496.56 C-470.61 499.04 -471.11 501.51 -471.56 504 C-471.7 504.72 -471.83 505.45 -471.97 506.19 C-472.85 511.03 -473.5 515.83 -473.85 520.74 C-474.06 522.56 -474.06 522.56 -475.06 524.56 C-475.27 525.97 -475.43 527.39 -475.56 528.81 C-475.64 529.65 -475.73 530.48 -475.81 531.35 C-475.89 532.22 -475.98 533.1 -476.06 534 C-476.23 535.73 -476.39 537.46 -476.56 539.18 C-476.63 539.95 -476.71 540.72 -476.78 541.51 C-477.06 543.56 -477.06 543.56 -478.06 546.56 C-478.2 548.05 -478.29 549.53 -478.34 551.02 C-478.38 551.89 -478.42 552.75 -478.46 553.64 C-478.49 554.54 -478.53 555.45 -478.56 556.38 C-478.63 558.15 -478.7 559.93 -478.78 561.71 C-478.81 562.49 -478.84 563.28 -478.87 564.09 C-479.06 566.56 -479.06 566.56 -479.57 569.29 C-480.08 572.71 -480.19 575.93 -480.19 579.39 C-480.19 580.05 -480.2 580.7 -480.2 581.37 C-480.2 583.52 -480.2 585.67 -480.2 587.81 C-480.2 589.31 -480.2 590.82 -480.2 592.32 C-480.2 595.46 -480.2 598.6 -480.19 601.74 C-480.19 605.75 -480.19 609.77 -480.2 613.78 C-480.2 616.88 -480.2 619.98 -480.2 623.08 C-480.2 624.56 -480.2 626.04 -480.2 627.52 C-480.2 629.59 -480.2 631.66 -480.19 633.73 C-480.19 634.91 -480.19 636.09 -480.19 637.3 C-480.07 640.47 -479.64 643.44 -479.06 646.56 C-478.95 648.09 -478.87 649.61 -478.82 651.14 C-478.78 651.96 -478.75 652.79 -478.72 653.64 C-478.69 654.5 -478.66 655.36 -478.62 656.25 C-478.35 662.66 -477.88 668.81 -476.54 675.09 C-475.82 678.82 -475.57 682.57 -475.31 686.35 C-475.19 688.6 -475.19 688.6 -474.06 690.56 C-473.72 692.52 -473.41 694.47 -473.12 696.44 C-472.95 697.61 -472.77 698.79 -472.59 700 C-472.27 702.18 -471.95 704.35 -471.63 706.53 C-470.42 714.31 -468.57 721.89 -466.59 729.51 C-466.08 731.5 -465.58 733.5 -465.09 735.51 C-461.54 750 -457.68 764.38 -452.78 778.49 C-451.97 780.83 -451.17 783.17 -450.37 785.52 C-446.02 798.17 -441.13 810.37 -435.45 822.49 C-434.28 825.08 -433.24 827.66 -432.25 830.31 C-429.8 836.6 -426.49 842.46 -423.29 848.39 C-421.46 851.79 -419.74 855.22 -418.06 858.69 C-415.36 864.19 -412.23 869.39 -408.96 874.58 C-406.06 879.25 -406.06 879.25 -406.06 882.56 C-405.4 882.56 -404.74 882.56 -404.06 882.56 C-403.53 883.53 -402.99 884.5 -402.44 885.5 C-400.34 889.18 -398.02 892.67 -395.62 896.16 C-394.43 897.99 -393.33 899.88 -392.27 901.8 C-389.77 906.2 -386.8 910.23 -383.81 914.31 C-383.24 915.1 -382.67 915.89 -382.08 916.7 C-379.55 920.18 -377 923.65 -374.43 927.11 C-373.71 928.08 -372.99 929.06 -372.25 930.06 C-371.62 930.9 -371 931.73 -370.36 932.59 C-369.06 934.56 -369.06 934.56 -369.06 936.56 C-368.07 936.89 -367.08 937.22 -366.06 937.56 C-364.88 940.12 -364.88 940.12 -364.06 942.56 C-363.4 942.56 -362.74 942.56 -362.06 942.56 C-361.73 943.88 -361.4 945.2 -361.06 946.56 C-360.4 946.56 -359.74 946.56 -359.06 946.56 C-354.06 952.04 -354.06 952.04 -354.06 954.56 C-353.4 954.56 -352.74 954.56 -352.06 954.56 C-350.5 956.26 -349.01 958.02 -347.56 959.81 C-346.77 960.79 -345.97 961.76 -345.16 962.77 C-343.48 965.01 -342.18 967.01 -341.06 969.56 C-340.4 969.56 -339.74 969.56 -339.06 969.56 C-339.06 970.22 -339.06 970.88 -339.06 971.56 C-338.07 971.89 -337.08 972.22 -336.06 972.56 C-336.06 973.22 -336.06 973.88 -336.06 974.56 C-335.4 974.56 -334.74 974.56 -334.06 974.56 C-332.72 975.93 -332.72 975.93 -331.12 977.88 C-327.98 981.58 -324.68 985.06 -321.25 988.5 C-320.53 989.23 -320.53 989.23 -319.8 989.97 C-317.18 992.6 -317.18 992.6 -314.06 994.56 C-314.06 995.22 -314.06 995.88 -314.06 996.56 C-313.07 996.89 -312.08 997.22 -311.06 997.56 C-311.06 998.22 -311.06 998.88 -311.06 999.56 C-310.4 999.56 -309.74 999.56 -309.06 999.56 C-309.06 1000.22 -309.06 1000.88 -309.06 1001.56 C-308.07 1001.89 -307.08 1002.22 -306.06 1002.56 C-306.06 1003.22 -306.06 1003.88 -306.06 1004.56 C-305.49 1004.83 -304.92 1005.1 -304.33 1005.38 C-301.98 1006.6 -299.94 1007.99 -297.81 1009.56 C-297.11 1010.08 -296.4 1010.59 -295.67 1011.12 C-294.88 1011.84 -294.88 1011.84 -294.06 1012.56 C-294.06 1013.22 -294.06 1013.88 -294.06 1014.56 C-293.49 1014.83 -292.91 1015.1 -292.31 1015.38 C-290.01 1016.59 -288.04 1017.87 -286.06 1019.56 C-286.06 1020.22 -286.06 1020.88 -286.06 1021.56 C-285.53 1021.81 -284.99 1022.06 -284.44 1022.31 C-281.48 1023.87 -278.77 1025.6 -276.06 1027.56 C-276.06 1028.22 -276.06 1028.88 -276.06 1029.56 C-275.33 1029.82 -274.6 1030.08 -273.84 1030.35 C-271.01 1031.59 -269.01 1032.99 -266.62 1034.94 C-263.98 1037.06 -261.37 1039.07 -258.5 1040.88 C-257.7 1041.43 -256.89 1041.99 -256.06 1042.56 C-256.06 1043.22 -256.06 1043.88 -256.06 1044.56 C-255.17 1044.75 -255.17 1044.75 -254.25 1044.94 C-252.06 1045.56 -252.06 1045.56 -249.06 1047.56 C-249.06 1048.22 -249.06 1048.88 -249.06 1049.56 C-248.07 1049.56 -247.08 1049.56 -246.06 1049.56 C-246.06 1050.22 -246.06 1050.88 -246.06 1051.56 C-245.48 1051.68 -244.9 1051.8 -244.31 1051.92 C-240.42 1053.03 -237.21 1055.36 -233.81 1057.5 C-233.07 1057.96 -232.32 1058.41 -231.55 1058.88 C-230.85 1059.32 -230.15 1059.76 -229.42 1060.21 C-228.78 1060.62 -228.13 1061.02 -227.47 1061.43 C-226.77 1061.99 -226.77 1061.99 -226.06 1062.56 C-226.06 1063.22 -226.06 1063.88 -226.06 1064.56 C-225.47 1064.69 -224.88 1064.82 -224.27 1064.95 C-220.8 1065.91 -217.84 1067.83 -214.75 1069.62 C-213.31 1070.45 -211.88 1071.26 -210.44 1072.08 C-209.71 1072.5 -208.99 1072.91 -208.23 1073.34 C-199.98 1077.99 -191.56 1082.36 -183.05 1086.55 C-181.06 1087.56 -181.06 1087.56 -178.56 1089.12 C-175.45 1090.92 -172.21 1092.1 -168.86 1093.39 C-165.88 1094.64 -163.05 1096.07 -160.19 1097.56 C-155.17 1100.13 -150.16 1101.95 -144.79 1103.63 C-142.41 1104.45 -140.34 1105.37 -138.12 1106.56 C-133.85 1108.82 -129.37 1110.07 -124.74 1111.43 C-120.69 1112.68 -116.73 1114.11 -112.75 1115.56 C-106.42 1117.86 -100.08 1119.68 -93.53 1121.23 C-90.06 1122.06 -86.68 1122.95 -83.31 1124.12 C-67.99 1129.44 -51.4 1131.94 -35.36 1134.17 C-33.06 1134.56 -33.06 1134.56 -31.06 1135.56 C-28.25 1135.93 -25.45 1136.26 -22.62 1136.56 C-14.46 1137.43 -14.46 1137.43 -11.06 1138.56 C-8.29 1138.77 -5.53 1138.94 -2.75 1139.06 C5.19 1139.43 5.19 1139.43 8.79 1140.06 C37.1 1144.59 75.84 1145.27 103.94 1139.56 C106.67 1139.39 109.39 1139.24 112.12 1139.12 C117.77 1138.84 123.13 1138.31 128.65 1137.04 C132.05 1136.33 135.46 1136.08 138.91 1135.81 C141 1135.67 141 1135.67 142.94 1134.56 C144.87 1134.24 146.81 1133.96 148.75 1133.69 C154.54 1132.83 160.19 1131.65 165.88 1130.28 C168.6 1129.64 171.32 1129.08 174.06 1128.56 C178.54 1127.69 182.89 1126.52 187.28 1125.28 C189.7 1124.63 192.11 1124.07 194.56 1123.56 C198.41 1122.74 202.06 1121.56 205.78 1120.27 C208.32 1119.44 210.9 1118.85 213.5 1118.22 C220.62 1116.29 227.74 1113.95 234.5 1111.02 C237.77 1109.64 240.97 1108.6 244.38 1107.62 C248.85 1106.28 252.88 1104.77 256.99 1102.56 C259.2 1101.43 261.44 1100.53 263.75 1099.62 C268.28 1097.85 272.71 1095.89 277.13 1093.86 C279.05 1092.97 280.97 1092.1 282.9 1091.24 C283.86 1090.81 284.82 1090.38 285.81 1089.94 C286.68 1089.55 287.54 1089.17 288.43 1088.77 C291.01 1087.59 291.01 1087.59 293.51 1085.91 C295.94 1084.56 295.94 1084.56 299.94 1084.56 C299.94 1083.9 299.94 1083.24 299.94 1082.56 C300.83 1082.13 301.73 1081.69 302.65 1081.24 C310.88 1077.2 318.81 1072.87 326.53 1067.89 C328.94 1066.56 328.94 1066.56 331.94 1066.56 C331.94 1065.9 331.94 1065.24 331.94 1064.56 C332.62 1064.21 333.29 1063.86 333.99 1063.5 C339.98 1060.32 345.36 1056.93 350.65 1052.69 C352.94 1051.56 352.94 1051.56 355.25 1052.19 C360.2 1054.72 363.87 1058.94 367.77 1062.84 C369.31 1064.38 370.88 1065.89 372.45 1067.4 C373.43 1068.38 374.42 1069.35 375.4 1070.33 C376.29 1071.21 377.19 1072.1 378.11 1073.01 C379.94 1075.56 379.94 1075.56 379.72 1078.39 C379.46 1079.11 379.2 1079.82 378.94 1080.56 C377.95 1080.56 376.96 1080.56 375.94 1080.56 C375.94 1081.22 375.94 1081.88 375.94 1082.56 C373.82 1084.07 373.82 1084.07 371.06 1085.69 C370.16 1086.23 369.25 1086.77 368.32 1087.32 C365.94 1088.56 365.94 1088.56 363.94 1088.56 C363.94 1089.22 363.94 1089.88 363.94 1090.56 C361.03 1092.6 359.54 1093.56 355.94 1093.56 C355.94 1094.22 355.94 1094.88 355.94 1095.56 C355.32 1095.89 354.7 1096.22 354.06 1096.56 C349.16 1099.19 344.35 1101.9 339.61 1104.8 C331.85 1109.55 323.91 1113.72 315.73 1117.69 C312.41 1119.31 309.13 1121.04 305.86 1122.75 C303.94 1123.56 303.94 1123.56 300.94 1123.56 C300.94 1124.22 300.94 1124.88 300.94 1125.56 C300.31 1125.8 299.68 1126.05 299.03 1126.3 C294.92 1127.91 290.87 1129.53 286.94 1131.56 C283.31 1133.42 279.61 1134.96 275.81 1136.44 C273.73 1137.25 271.66 1138.09 269.6 1138.94 C261.91 1142.09 254.18 1144.88 246.29 1147.45 C242.36 1148.73 238.5 1150.08 234.69 1151.69 C228.6 1154.2 222.28 1155.84 215.94 1157.56 C214.09 1158.07 212.24 1158.57 210.39 1159.08 C206.58 1160.12 202.76 1161.16 198.94 1162.2 C195.97 1163 193.01 1163.82 190.06 1164.68 C187.5 1165.4 184.99 1166.01 182.38 1166.5 C178.21 1167.3 174.08 1168.2 169.94 1169.12 C164.97 1170.2 160.14 1170.91 155.09 1171.32 C151.93 1171.68 148.99 1172.68 145.94 1173.56 C137.88 1175.12 129.86 1175.81 121.67 1176.28 C118.17 1176.55 114.78 1177 111.31 1177.56 C104.35 1178.64 97.43 1178.97 90.4 1179.22 C89.55 1179.25 88.7 1179.28 87.82 1179.32 C86.7 1179.35 86.7 1179.35 85.55 1179.39 C83.4 1179.53 81.26 1179.78 79.12 1180.07 C75.11 1180.58 71.12 1180.74 67.07 1180.77 C66.32 1180.77 65.58 1180.78 64.81 1180.79 C62.37 1180.8 59.94 1180.81 57.5 1180.81 C56.66 1180.81 55.82 1180.82 54.96 1180.82 C41.01 1180.83 27.16 1180.18 13.25 1179.12 C12.35 1179.06 11.46 1178.99 10.54 1178.92 C8 1178.73 5.46 1178.52 2.93 1178.32 C2.17 1178.26 1.42 1178.2 0.65 1178.13 C-2.68 1177.85 -5.84 1177.46 -9.06 1176.56 C-12.39 1176.26 -15.73 1176.06 -19.07 1175.84 C-22.06 1175.56 -22.06 1175.56 -25.06 1174.56 C-27.48 1174.24 -29.89 1173.96 -32.31 1173.69 C-39.17 1172.88 -45.85 1171.7 -52.6 1170.28 C-55.64 1169.65 -58.69 1169.09 -61.75 1168.56 C-66.6 1167.7 -71.35 1166.52 -76.12 1165.29 C-79.79 1164.38 -83.48 1163.67 -87.2 1162.99 C-89.06 1162.56 -89.06 1162.56 -90.06 1161.56 C-91.05 1161.44 -92.04 1161.32 -93.06 1161.19 C-96.64 1160.71 -99.81 1159.71 -103.2 1158.52 C-107.71 1157.01 -112.29 1155.74 -116.86 1154.45 C-121.44 1153.14 -125.68 1151.44 -130.06 1149.56 C-133.51 1148.54 -136.98 1147.63 -140.46 1146.72 C-143.9 1145.62 -146.81 1144.22 -149.99 1142.57 C-154.1 1140.57 -158.47 1139.27 -162.79 1137.85 C-167.61 1136.22 -171.69 1134.15 -176.06 1131.56 C-177.53 1130.94 -179 1130.35 -180.5 1129.81 C-187.22 1127.21 -193.56 1123.89 -199.97 1120.62 C-202 1119.59 -204.04 1118.58 -206.09 1117.58 C-215.01 1113.2 -223.7 1108.49 -232.32 1103.55 C-234.73 1102.18 -237.14 1100.84 -239.56 1099.5 C-240.6 1098.93 -240.6 1098.93 -241.66 1098.34 C-242.12 1098.08 -242.58 1097.83 -243.06 1097.56 C-243.06 1096.9 -243.06 1096.24 -243.06 1095.56 C-243.61 1095.47 -244.16 1095.37 -244.72 1095.28 C-247.72 1094.36 -249.95 1092.85 -252.56 1091.12 C-255.67 1089.08 -258.7 1087.14 -262.06 1085.56 C-262.06 1084.9 -262.06 1084.24 -262.06 1083.56 C-262.94 1083.39 -262.94 1083.39 -263.83 1083.22 C-266.27 1082.5 -267.78 1081.54 -269.83 1080.04 C-270.55 1079.52 -271.26 1079 -272 1078.46 C-272.77 1077.9 -273.53 1077.33 -274.31 1076.75 C-275.1 1076.17 -275.89 1075.6 -276.7 1075 C-282.84 1070.5 -288.95 1065.94 -295.02 1061.35 C-297.67 1059.35 -300.31 1057.4 -303.06 1055.56 C-303.06 1054.9 -303.06 1054.24 -303.06 1053.56 C-303.63 1053.29 -304.21 1053.03 -304.8 1052.75 C-307.14 1051.52 -309.19 1050.14 -311.31 1048.56 C-312.02 1048.05 -312.73 1047.53 -313.45 1047 C-314.25 1046.29 -314.25 1046.29 -315.06 1045.56 C-315.06 1044.9 -315.06 1044.24 -315.06 1043.56 C-315.6 1043.33 -316.15 1043.09 -316.7 1042.84 C-319.7 1041.22 -322.17 1039.21 -324.81 1037.06 C-325.8 1036.27 -326.78 1035.47 -327.8 1034.66 C-328.92 1033.62 -328.92 1033.62 -330.06 1032.56 C-330.06 1031.9 -330.06 1031.24 -330.06 1030.56 C-330.92 1030.2 -330.92 1030.2 -331.79 1029.84 C-334.52 1028.3 -336.33 1026.45 -338.5 1024.19 C-340.98 1021.64 -343.34 1019.34 -346.12 1017.12 C-346.76 1016.61 -347.4 1016.09 -348.06 1015.56 C-348.06 1014.9 -348.06 1014.24 -348.06 1013.56 C-348.7 1013.29 -349.34 1013.03 -350 1012.75 C-352.06 1011.56 -352.06 1011.56 -353.06 1008.56 C-353.72 1008.56 -354.38 1008.56 -355.06 1008.56 C-356.51 1007.09 -356.51 1007.09 -358.19 1005.06 C-361.44 1001.21 -364.91 997.7 -368.56 994.23 C-370.06 992.56 -370.06 992.56 -370.06 990.56 C-370.72 990.56 -371.38 990.56 -372.06 990.56 C-373.63 988.87 -375.12 987.11 -376.56 985.31 C-377.36 984.34 -378.15 983.36 -378.97 982.36 C-380.65 980.11 -381.94 978.12 -383.06 975.56 C-383.72 975.56 -384.38 975.56 -385.06 975.56 C-386.86 973.47 -388.53 971.38 -390.19 969.19 C-390.89 968.28 -390.89 968.28 -391.61 967.36 C-395.06 962.82 -395.06 962.82 -395.06 960.56 C-395.72 960.56 -396.38 960.56 -397.06 960.56 C-398.57 958.88 -398.57 958.88 -400.19 956.69 C-400.73 955.97 -401.27 955.25 -401.82 954.51 C-403.06 952.56 -403.06 952.56 -403.06 950.56 C-403.72 950.56 -404.38 950.56 -405.06 950.56 C-406.86 948.33 -408.54 946.09 -410.19 943.75 C-410.89 942.79 -410.89 942.79 -411.61 941.8 C-415.06 936.94 -415.06 936.94 -415.06 933.56 C-415.72 933.56 -416.38 933.56 -417.06 933.56 C-418.19 932.16 -418.19 932.16 -419.42 930.2 C-419.87 929.48 -420.33 928.76 -420.79 928.03 C-421.27 927.25 -421.76 926.48 -422.25 925.69 C-423.25 924.11 -424.24 922.54 -425.24 920.97 C-425.73 920.21 -426.21 919.44 -426.71 918.66 C-428.36 916.11 -430.1 913.64 -431.88 911.19 C-434.74 907.15 -437.1 902.97 -439.41 898.59 C-440.95 895.76 -442.59 893.01 -444.28 890.26 C-449.39 881.92 -453.83 873.37 -458.06 864.56 C-458.68 863.27 -458.68 863.27 -459.32 861.95 C-463.69 852.88 -468.01 843.79 -472.06 834.56 C-472.55 833.45 -473.05 832.33 -473.55 831.18 C-477.09 823.03 -480.3 814.8 -483.36 806.46 C-484.08 804.52 -484.81 802.57 -485.55 800.63 C-487.14 796.39 -488.62 792.11 -490.06 787.81 C-490.46 786.64 -490.46 786.64 -490.86 785.44 C-492.64 780.03 -494.17 774.61 -495.42 769.04 C-496 766.56 -496 766.56 -496.98 764.29 C-498.48 760.5 -499.54 756.62 -500.62 752.69 C-500.85 751.91 -501.07 751.13 -501.29 750.33 C-502.29 746.75 -503.17 743.25 -503.65 739.55 C-503.74 736.68 -503.74 736.68 -505.06 735.56 C-505.4 734.2 -505.68 732.82 -505.94 731.44 C-506.54 728.26 -507.16 725.08 -507.82 721.91 C-509.15 715.52 -510.29 709.26 -510.82 702.75 C-511.06 700.62 -511.49 698.69 -512.06 696.62 C-513.21 692.45 -513.52 688.29 -513.82 683.98 C-513.99 681.42 -513.99 681.42 -515.06 678.56 C-515.24 676.36 -515.38 674.15 -515.5 671.94 C-515.82 666.52 -516.34 661.22 -517.05 655.84 C-518.3 645.83 -518.56 635.83 -518.75 625.75 C-518.77 624.8 -518.79 623.85 -518.81 622.87 C-519.51 587.23 -518.26 551.8 -512.39 516.58 C-511.89 513.54 -511.45 510.49 -511 507.44 C-508.92 494.04 -508.92 494.04 -507.08 488.71 C-505.99 485.34 -505.39 482.06 -504.81 478.56 C-503.57 471.48 -501.83 464.56 -499.94 457.62 C-499.67 456.65 -499.41 455.67 -499.13 454.66 C-497.2 447.7 -497.2 447.7 -496.06 446.56 C-495.96 445.59 -495.86 444.62 -495.75 443.62 C-495.22 439.55 -493.75 436.12 -492.16 432.35 C-490.99 429.37 -490.04 426.38 -489.12 423.31 C-485.99 412.86 -482.24 402.64 -478.06 392.56 C-477.79 391.89 -477.51 391.22 -477.22 390.53 C-471.05 375.59 -464.44 360.94 -457.06 346.56 C-456.7 345.85 -456.33 345.14 -455.96 344.4 C-451.23 335.22 -446.39 326.22 -440.86 317.48 C-439.12 314.66 -437.55 311.8 -436 308.88 C-433.58 304.35 -430.82 300.23 -427.83 296.07 C-426.08 293.59 -424.47 291.07 -422.88 288.5 C-416.11 277.77 -408.74 267.38 -400.68 257.59 C-399.22 255.76 -397.94 253.91 -396.69 251.94 C-396.15 251.15 -395.62 250.37 -395.06 249.56 C-394.4 249.56 -393.74 249.56 -393.06 249.56 C-392.69 248.76 -392.69 248.76 -392.31 247.94 C-390.76 244.98 -389.03 242.27 -387.06 239.56 C-386.4 239.56 -385.74 239.56 -385.06 239.56 C-384.79 238.99 -384.53 238.41 -384.25 237.81 C-383.03 235.51 -381.76 233.54 -380.06 231.56 C-379.4 231.56 -378.74 231.56 -378.06 231.56 C-377.84 231.02 -377.62 230.48 -377.39 229.93 C-375.62 226.77 -373.23 224.3 -370.75 221.69 C-369.79 220.67 -368.84 219.65 -367.89 218.63 C-367.42 218.13 -366.95 217.63 -366.47 217.12 C-365.02 215.52 -363.68 213.86 -362.33 212.18 C-361.58 211.32 -360.83 210.45 -360.06 209.56 C-359.4 209.56 -358.74 209.56 -358.06 209.56 C-357.73 208.57 -357.4 207.58 -357.06 206.56 C-356.4 206.56 -355.74 206.56 -355.06 206.56 C-355.06 205.9 -355.06 205.24 -355.06 204.56 C-354.4 204.56 -353.74 204.56 -353.06 204.56 C-352.73 203.57 -352.4 202.58 -352.06 201.56 C-351.4 201.56 -350.74 201.56 -350.06 201.56 C-350.06 200.9 -350.06 200.24 -350.06 199.56 C-349.4 199.56 -348.74 199.56 -348.06 199.56 C-347.73 198.57 -347.4 197.58 -347.06 196.56 C-346.4 196.56 -345.74 196.56 -345.06 196.56 C-345.06 195.9 -345.06 195.24 -345.06 194.56 C-344.4 194.56 -343.74 194.56 -343.06 194.56 C-342.73 193.57 -342.4 192.58 -342.06 191.56 C-341.4 191.56 -340.74 191.56 -340.06 191.56 C-340.06 190.9 -340.06 190.24 -340.06 189.56 C-338.73 188.22 -338.73 188.22 -336.81 186.62 C-332.59 183.04 -328.51 179.33 -324.45 175.56 C-314.71 166.56 -314.71 166.56 -312.06 166.56 C-312.06 165.9 -312.06 165.24 -312.06 164.56 C-310.6 163.27 -310.6 163.27 -308.69 161.94 C-308.06 161.49 -307.43 161.05 -306.79 160.59 C-305.06 159.56 -305.06 159.56 -303.06 159.56 C-302.73 158.57 -302.4 157.58 -302.06 156.56 C-300.5 155.18 -300.5 155.18 -298.62 153.88 C-298.01 153.44 -297.39 153 -296.75 152.55 C-295.06 151.56 -295.06 151.56 -293.06 151.56 C-293.06 150.9 -293.06 150.24 -293.06 149.56 C-291.63 148.33 -291.63 148.33 -289.62 146.95 C-288.89 146.45 -288.16 145.94 -287.41 145.41 C-286.64 144.89 -285.86 144.36 -285.06 143.81 C-283.56 142.78 -282.06 141.74 -280.56 140.7 C-279.82 140.19 -279.07 139.68 -278.3 139.15 C-275.39 137.08 -272.58 134.89 -269.79 132.66 C-268.06 131.56 -268.06 131.56 -265.06 131.56 C-265.06 130.9 -265.06 130.24 -265.06 129.56 C-262.91 128.01 -262.91 128.01 -259.9 126.18 C-258.81 125.51 -257.71 124.84 -256.58 124.15 C-255.39 123.44 -254.19 122.72 -253 122 C-251.8 121.27 -250.59 120.54 -249.39 119.81 C-247.02 118.37 -244.65 116.93 -242.27 115.5 C-239.65 113.92 -237.03 112.32 -234.42 110.71 C-228.14 106.87 -221.79 103.31 -215.16 100.09 C-211.58 98.32 -208.07 96.45 -204.56 94.56 C-195.76 89.84 -187 85.2 -177.66 81.62 C-174.71 80.42 -171.87 79.06 -169 77.69 C-163.34 75.04 -157.62 72.91 -151.72 70.89 C-146.37 69.05 -141.12 67.03 -135.88 64.94 C-129.34 62.34 -122.84 60.23 -116.04 58.4 C-113.54 57.7 -111.17 56.9 -108.75 55.94 C-104.56 54.38 -100.43 53.45 -96.06 52.56 C-94.39 52.21 -92.73 51.86 -91.06 51.5 C-90.32 51.34 -89.58 51.19 -88.81 51.03 C-87.05 50.72 -87.05 50.72 -86.06 49.56 C-83.98 49.08 -81.89 48.6 -79.8 48.16 C-78 47.77 -76.21 47.35 -74.42 46.91 C-65.75 44.77 -57.01 43.33 -48.2 41.92 C-47.19 41.76 -46.19 41.6 -45.15 41.43 C-44.24 41.29 -43.33 41.14 -42.4 41 C-39.92 40.59 -39.92 40.59 -37.06 39.56 C-35.21 39.38 -33.36 39.24 -31.5 39.12 C-25.9 38.7 -20.53 37.81 -15.06 36.56 C-17.21 34.3 -19.44 32.53 -22 30.75 C-25.65 27.98 -28.19 25.86 -30.06 21.56 C-30.89 15.43 -31.32 9.53 -27.69 4.25 C-26.82 3.36 -25.95 2.48 -25.06 1.56 C-24.4 1.56 -23.74 1.56 -23.06 1.56 C-23.06 0.9 -23.06 0.24 -23.06 -0.44 C-14.58 -4.68 -8.31 -4.2 0 0 Z " fill="#000000" transform="translate(537.0625,82.4375)"/>
<path d="M0 0 C2.82 2.18 5.58 4.38 8 7 C8 7.66 8 8.32 8 9 C8.66 9 9.32 9 10 9 C16.31 16.02 18.63 25.86 18.18 35.05 C18.09 36.02 18.09 36.02 18 37 C18.69 37.26 19.39 37.51 20.1 37.78 C23.36 39.15 26.32 40.8 29.38 42.56 C29.98 42.91 30.58 43.26 31.21 43.62 C36.38 46.61 41.49 49.69 46.6 52.78 C51.04 55.46 55.56 57.96 60.13 60.41 C63.62 62.35 67.03 64.42 70.44 66.5 C76.8 70.37 83.27 73.8 90 77 C90 77.66 90 78.32 90 79 C90.85 79.16 90.85 79.16 91.71 79.33 C94.33 80.1 96.25 81.24 98.56 82.69 C102.06 84.84 105.57 86.88 109.19 88.81 C114.56 91.7 119.77 94.83 124.96 98.02 C127.62 99.64 130.03 101.01 133 102 C133 102.66 133 103.32 133 104 C135.47 104.5 135.47 104.5 138 105 C138 105.66 138 106.32 138 107 C138.79 107.13 138.79 107.13 139.59 107.27 C142.86 108.26 145.64 109.96 148.56 111.69 C149.82 112.42 151.09 113.16 152.35 113.89 C152.97 114.25 153.59 114.61 154.24 114.99 C156.61 116.35 159.02 117.65 161.44 118.94 C166.54 121.7 171.49 124.68 176.45 127.68 C180.93 130.39 185.48 132.92 190.09 135.39 C194.46 137.81 198.71 140.41 202.96 143.02 C205.63 144.64 208.03 146.01 211 147 C211 147.66 211 148.32 211 149 C211.57 149.11 212.13 149.22 212.72 149.33 C215.32 150.09 217.21 151.23 219.5 152.69 C223.17 154.95 226.86 156.95 230.75 158.81 C235.45 161.11 239.82 163.7 244.19 166.56 C244.78 166.95 245.37 167.33 245.98 167.73 C248.54 169.39 251.09 171.06 253.64 172.72 C257.31 174.96 259.31 176 263.69 176 C266.97 175.16 266.97 175.16 269.47 173.47 C274.56 171.35 279.29 171.49 284.75 171.5 C285.78 171.47 286.82 171.44 287.88 171.41 C297.84 171.39 305.13 174.66 312.38 181.5 C313.17 182.23 313.96 182.96 314.77 183.72 C322.79 191.93 326.48 201.25 326.56 212.69 C326.45 219.46 325.28 225.06 322 231 C321.62 231.71 321.24 232.42 320.84 233.16 C319.93 234.79 318.97 236.4 318 238 C317.34 238 316.68 238 316 238 C315.67 238.99 315.34 239.98 315 241 C314.34 241 313.68 241 313 241 C313 241.66 313 242.32 313 243 C311.09 244.62 311.09 244.62 308.5 246.44 C307.66 247.03 306.83 247.63 305.97 248.25 C299.24 252.22 293.16 253.61 285.38 253.62 C284.5 253.63 283.63 253.63 282.74 253.63 C272.85 253.36 264.53 249.46 257 243 C257 242.34 257 241.68 257 241 C256.34 241 255.68 241 255 241 C248.01 234.21 244.05 223.89 243.44 214.31 C243.44 213.52 243.43 212.74 243.43 211.93 C243.22 210.97 243.22 210.97 243 210 C241.05 208.68 241.05 208.68 239 208 C239 207.34 239 206.68 239 206 C238.43 205.88 237.85 205.76 237.26 205.64 C234.87 204.96 233.03 204.04 230.88 202.81 C230.09 202.36 229.3 201.92 228.48 201.45 C225.16 199.51 221.87 197.52 218.58 195.52 C216.02 194.01 213.43 192.59 210.81 191.19 C205.44 188.3 200.23 185.17 195.04 181.98 C192.38 180.36 189.97 178.99 187 178 C187 177.34 187 176.68 187 176 C185.35 175.67 183.7 175.34 182 175 C182 174.34 182 173.68 182 173 C181.41 172.87 180.83 172.75 180.22 172.62 C176.65 171.62 173.57 169.65 170.38 167.81 C169.66 167.41 168.94 167 168.21 166.58 C163.55 163.92 158.95 161.19 154.37 158.41 C148.07 154.67 141.59 151.21 135 148 C135 147.34 135 146.68 135 146 C134.26 145.89 133.52 145.78 132.76 145.67 C129.86 144.97 128.27 144.05 125.88 142.31 C121.76 139.46 117.53 137.07 113.12 134.72 C108.68 132.27 104.36 129.64 100.04 126.98 C97.38 125.36 94.97 123.99 92 123 C92 122.34 92 121.68 92 121 C91.26 120.89 90.53 120.77 89.77 120.65 C86.94 119.99 85.19 119.11 82.75 117.56 C77.89 114.55 72.99 111.6 68.06 108.69 C67.32 108.24 66.57 107.8 65.8 107.34 C65.1 106.92 64.39 106.5 63.66 106.07 C62.71 105.51 62.71 105.51 61.74 104.94 C59.85 103.85 59.85 103.85 57 103 C57 102.34 57 101.68 57 101 C56.15 100.84 56.15 100.84 55.29 100.67 C52.67 99.9 50.75 98.76 48.44 97.31 C44.94 95.16 41.43 93.12 37.81 91.19 C33.3 88.76 28.93 86.16 24.56 83.5 C18.2 79.63 11.73 76.2 5 73 C5 72.34 5 71.68 5 71 C-0.58 69.77 -3.08 70.23 -8 73 C-16.45 75.87 -25.65 77.29 -34.25 74.19 C-35.12 74.09 -35.12 74.09 -36 74 C-38.15 75.9 -38.15 75.9 -40 78 C-40.66 78 -41.32 78 -42 78 C-42.27 78.64 -42.54 79.28 -42.81 79.94 C-44 82 -44 82 -47 83 C-47.33 83.66 -47.66 84.32 -48 85 C-48.33 85.66 -48.66 86.32 -49 87 C-50.49 87.5 -50.49 87.5 -52 88 C-52.33 88.66 -52.66 89.32 -53 90 C-53.33 90.66 -53.66 91.32 -54 92 C-55.49 92.5 -55.49 92.5 -57 93 C-57.33 93.66 -57.66 94.32 -58 95 C-58.33 95.66 -58.66 96.32 -59 97 C-60.49 97.5 -60.49 97.5 -62 98 C-62.33 98.66 -62.66 99.32 -63 100 C-63.33 100.66 -63.66 101.32 -64 102 C-65.49 102.5 -65.49 102.5 -67 103 C-67.33 103.66 -67.66 104.32 -68 105 C-68.33 105.66 -68.66 106.32 -69 107 C-70.49 107.5 -70.49 107.5 -72 108 C-72.33 108.66 -72.66 109.32 -73 110 C-73.33 110.66 -73.66 111.32 -74 112 C-75.49 112.5 -75.49 112.5 -77 113 C-77.33 113.66 -77.66 114.32 -78 115 C-78.33 115.66 -78.66 116.32 -79 117 C-80.49 117.5 -80.49 117.5 -82 118 C-82.33 118.66 -82.66 119.32 -83 120 C-83.33 120.66 -83.66 121.32 -84 122 C-84.99 122.33 -85.98 122.66 -87 123 C-89.07 126.05 -89.2 128.45 -89.05 132.07 C-89.03 133.05 -89.01 134.03 -88.98 135.04 C-88.91 137.07 -88.83 139.11 -88.75 141.14 C-88.5 152.41 -92.55 161.57 -100 170 C-110.34 179.09 -119.32 181.98 -133 182 C-142.07 181.36 -148.56 177.96 -156 173 C-156 172.34 -156 171.68 -156 171 C-156.6 170.75 -157.2 170.5 -157.81 170.25 C-160.32 168.82 -161.48 167.43 -163 165 C-163 164.34 -163 163.68 -163 163 C-163.66 163 -164.32 163 -165 163 C-165.82 161.27 -166.63 159.54 -167.44 157.81 C-168.12 156.37 -168.12 156.37 -168.81 154.89 C-170.58 150.6 -171.13 146.81 -171.06 142.19 C-171.05 141.4 -171.04 140.61 -171.04 139.79 C-171.02 138.91 -171.02 138.91 -171 138 C-172.04 137.61 -172.04 137.61 -173.11 137.22 C-176.32 135.87 -179.23 134.24 -182.25 132.5 C-182.85 132.15 -183.45 131.81 -184.07 131.45 C-186.05 130.3 -188.03 129.15 -190 128 C-190.68 127.6 -191.36 127.2 -192.07 126.79 C-199.06 122.71 -206.04 118.59 -212.97 114.4 C-218.72 110.93 -224.5 107.56 -230.44 104.43 C-233.16 102.91 -235.71 101.21 -238.31 99.5 C-241.88 97.28 -241.88 97.28 -246 97.38 C-246.99 97.91 -247.98 98.45 -249 99 C-257.32 103.23 -264.74 103.63 -274 103 C-274.9 102.68 -275.8 102.37 -276.72 102.04 C-281.24 101.98 -282.62 103.77 -285.77 106.83 C-286.86 107.94 -286.86 107.94 -287.97 109.08 C-288.76 109.85 -289.54 110.62 -290.35 111.42 C-292.99 114.03 -295.6 116.66 -298.21 119.29 C-300.1 121.16 -301.98 123.03 -303.86 124.9 C-308.45 129.45 -313.02 134.03 -317.59 138.61 C-321.3 142.33 -325.01 146.05 -328.74 149.76 C-329.27 150.29 -329.79 150.82 -330.34 151.36 C-331.42 152.43 -332.49 153.5 -333.57 154.58 C-343.65 164.64 -353.72 174.72 -363.78 184.82 C-372.41 193.47 -381.06 202.11 -389.73 210.74 C-399.79 220.75 -409.83 230.78 -419.86 240.82 C-420.93 241.89 -422 242.96 -423.07 244.04 C-423.59 244.56 -424.12 245.09 -424.66 245.63 C-428.37 249.35 -432.09 253.05 -435.81 256.75 C-440.35 261.26 -444.87 265.79 -449.38 270.33 C-451.67 272.65 -453.98 274.96 -456.3 277.25 C-458.82 279.74 -461.31 282.26 -463.79 284.78 C-464.53 285.5 -465.27 286.22 -466.03 286.96 C-469.25 290.29 -471.43 292.54 -471.49 297.31 C-471.18 299.63 -470.82 301.95 -470.38 304.25 C-469.31 314.95 -472.88 323.38 -479 332 C-480.9 334.3 -482.7 336.07 -485 338 C-485.66 338 -486.32 338 -487 338 C-487 338.66 -487 339.32 -487 340 C-496.96 345.44 -505.61 349.32 -517 347 C-517.72 346.89 -518.44 346.77 -519.18 346.66 C-526.37 345.36 -531.98 342.01 -538 338 C-538 337.34 -538 336.68 -538 336 C-538.99 335.67 -539.98 335.34 -541 335 C-541 334.34 -541 333.68 -541 333 C-541.66 333 -542.32 333 -543 333 C-550.83 323.05 -552.85 311.94 -551.8 299.62 C-550.71 292.26 -547.37 285.99 -543 280 C-542.34 280 -541.68 280 -541 280 C-540.67 279.01 -540.34 278.02 -540 277 C-539.34 277 -538.68 277 -538 277 C-538 276.34 -538 275.68 -538 275 C-535.95 273.56 -535.95 273.56 -533.25 272 C-531.93 271.23 -531.93 271.23 -530.58 270.44 C-529.73 269.96 -528.88 269.49 -528 269 C-527.38 268.62 -526.75 268.24 -526.11 267.85 C-523.07 266.62 -520.21 266.56 -516.94 266.38 C-516.27 266.33 -515.6 266.28 -514.92 266.23 C-510.93 265.98 -507.26 266.21 -503.31 266.69 C-498.6 266.79 -496.47 265.08 -493.21 261.95 C-491.19 259.86 -489.25 257.71 -487.34 255.52 C-485.33 253.24 -483.17 251.13 -481 249 C-480.18 248.17 -479.35 247.35 -478.5 246.5 C-471 239 -471 239 -468.45 236.46 C-466.9 234.9 -465.36 233.34 -463.83 231.76 C-463.17 231.08 -462.5 230.39 -461.81 229.69 C-460.8 228.64 -460.8 228.64 -459.77 227.57 C-458 226 -458 226 -456 226 C-455.75 225.42 -455.5 224.84 -455.24 224.25 C-453.84 221.72 -452.26 220.07 -450.19 218.06 C-449.52 217.41 -448.85 216.77 -448.17 216.1 C-447.45 215.41 -446.74 214.71 -446 214 C-442.86 210.88 -439.75 207.73 -436.64 204.57 C-435.03 202.95 -433.42 201.32 -431.81 199.69 C-430.99 198.85 -430.17 198.02 -429.33 197.15 C-428.55 196.36 -427.76 195.58 -426.96 194.76 C-426.25 194.04 -425.53 193.32 -424.8 192.57 C-423 191 -423 191 -421 191 C-420.68 190.2 -420.68 190.2 -420.36 189.38 C-418.47 186.08 -415.87 183.58 -413.19 180.92 C-412.62 180.35 -412.05 179.78 -411.46 179.19 C-410.26 177.99 -409.06 176.79 -407.85 175.59 C-406 173.75 -404.16 171.9 -402.32 170.05 C-401.15 168.88 -399.98 167.71 -398.81 166.55 C-398.26 165.99 -397.71 165.43 -397.14 164.86 C-393.23 161 -393.23 161 -391 161 C-390.77 160.44 -390.53 159.89 -390.29 159.31 C-388.66 156.4 -386.64 154.38 -384.28 152.02 C-383.35 151.08 -382.42 150.15 -381.46 149.18 C-380.73 148.46 -380.73 148.46 -379.99 147.73 C-378.5 146.25 -377.02 144.76 -375.54 143.27 C-374.61 142.34 -373.68 141.41 -372.72 140.45 C-371.86 139.6 -371.01 138.74 -370.12 137.86 C-368 136 -368 136 -366 136 C-365.75 135.42 -365.5 134.84 -365.24 134.25 C-363.84 131.72 -362.26 130.07 -360.19 128.06 C-359.48 127.37 -358.76 126.68 -358.03 125.96 C-357.36 125.31 -356.69 124.67 -356 124 C-355.07 123.07 -354.14 122.14 -353.19 121.19 C-352.47 120.47 -351.74 119.74 -351 119 C-350.44 118.4 -349.89 117.8 -349.31 117.19 C-348 116 -348 116 -346 116 C-346 115.34 -346 114.68 -346 114 C-344.38 112.29 -342.7 110.63 -341 109 C-339.85 107.85 -339.85 107.85 -338.68 106.68 C-332.78 100.78 -326.89 94.89 -321 89 C-320.13 88.12 -319.26 87.24 -318.36 86.33 C-316.07 84.07 -313.67 82.2 -311.12 80.25 C-307.97 77.59 -307.97 77.59 -306.64 73.87 C-306.96 71.54 -307.48 69.3 -308 67 C-308.89 55.51 -305.95 46.73 -300 37 C-299.34 37 -298.68 37 -298 37 C-297.63 36.13 -297.63 36.13 -297.25 35.25 C-295.82 32.67 -294.22 30.94 -292 29 C-291.34 29 -290.68 29 -290 29 C-290 28.34 -290 27.68 -290 27 C-284.09 23.72 -278.87 21.16 -272 21 C-271.04 20.97 -270.07 20.95 -269.08 20.92 C-266.05 20.88 -263.03 20.92 -260 21 C-258.85 21.02 -257.69 21.04 -256.5 21.06 C-248.65 23.17 -241.31 27.86 -236 34 C-235.34 34.56 -234.68 35.11 -234 35.69 C-228.24 42.35 -226.23 49.78 -225.52 58.38 C-225.15 61.25 -224.63 63.43 -222.44 65.4 C-220.35 66.73 -218.21 67.87 -216 69 C-214.47 69.89 -212.94 70.78 -211.41 71.68 C-209.82 72.6 -208.22 73.52 -206.62 74.44 C-201.49 77.39 -196.37 80.35 -191.31 83.44 C-187.31 85.86 -183.22 87.97 -179 90 C-179 90.66 -179 91.32 -179 92 C-178.44 92.11 -177.89 92.22 -177.32 92.33 C-174.59 93.12 -172.41 94.3 -169.94 95.69 C-168.97 96.22 -168.01 96.75 -167.02 97.29 C-165.01 98.43 -163.02 99.6 -161.05 100.8 C-155.81 104.17 -155.81 104.17 -149.88 104.56 C-148.93 104.05 -147.98 103.53 -147 103 C-136.1 98.72 -127.09 98.3 -116 102 C-115.67 101.01 -115.34 100.02 -115 99 C-114.34 99 -113.68 99 -113 99 C-113 98.34 -113 97.68 -113 97 C-112.34 97 -111.68 97 -111 97 C-110.67 96.01 -110.34 95.02 -110 94 C-109.34 94 -108.68 94 -108 94 C-108 93.34 -108 92.68 -108 92 C-107.34 92 -106.68 92 -106 92 C-105.67 91.01 -105.34 90.02 -105 89 C-104.34 89 -103.68 89 -103 89 C-103 88.34 -103 87.68 -103 87 C-102.34 87 -101.68 87 -101 87 C-100.67 86.01 -100.34 85.02 -100 84 C-99.34 84 -98.68 84 -98 84 C-98 83.34 -98 82.68 -98 82 C-97.34 82 -96.68 82 -96 82 C-95.67 81.01 -95.34 80.02 -95 79 C-94.34 79 -93.68 79 -93 79 C-93 78.34 -93 77.68 -93 77 C-92.34 77 -91.68 77 -91 77 C-90.67 76.01 -90.34 75.02 -90 74 C-89.34 74 -88.68 74 -88 74 C-88 73.34 -88 72.68 -88 72 C-87.34 72 -86.68 72 -86 72 C-85.67 71.01 -85.34 70.02 -85 69 C-84.34 69 -83.68 69 -83 69 C-83 68.34 -83 67.68 -83 67 C-82.34 67 -81.68 67 -81 67 C-80.67 66.01 -80.34 65.02 -80 64 C-79.34 64 -78.68 64 -78 64 C-78 63.34 -78 62.68 -78 62 C-77.34 62 -76.68 62 -76 62 C-75.67 61.01 -75.34 60.02 -75 59 C-74.34 59 -73.68 59 -73 59 C-73 58.34 -73 57.68 -73 57 C-72.34 57 -71.68 57 -71 57 C-70.67 56.01 -70.34 55.02 -70 54 C-69.34 54 -68.68 54 -68 54 C-68 53.34 -68 52.68 -68 52 C-67.34 52 -66.68 52 -66 52 C-65.67 51.01 -65.34 50.02 -65 49 C-64.34 49 -63.68 49 -63 49 C-63.07 48.39 -63.14 47.79 -63.22 47.16 C-63.89 41.08 -64.19 35.12 -64 29 C-63.98 27.72 -63.96 26.44 -63.94 25.12 C-62.82 17.2 -56.97 9.06 -51 4 C-50.07 3.15 -49.14 2.31 -48.19 1.44 C-34.41 -9.71 -14.44 -9.92 0 0 Z " fill="#000000" transform="translate(730,625)"/>
<path d="M0 0 C5.24 2.82 8.79 6.46 11.38 11.81 C11.64 14.66 11.75 17.27 11.7 20.11 C11.7 20.91 11.7 21.7 11.7 22.52 C11.69 24.2 11.68 25.88 11.66 27.56 C11.63 30.11 11.62 32.65 11.61 35.2 C11.6 36.84 11.59 38.48 11.58 40.11 C11.57 40.87 11.57 41.62 11.57 42.39 C11.5 47.28 11.02 51.97 10.38 56.81 C10.28 58.26 10.2 59.71 10.16 61.16 C10.14 61.92 10.11 62.68 10.08 63.46 C10.06 64.26 10.03 65.05 10 65.88 C9.67 73.77 8.91 81.55 7.88 89.38 C7.68 90.86 7.68 90.86 7.48 92.39 C6.52 99.38 6.52 99.38 5.38 102.81 C5.22 104.37 5.1 105.94 5 107.5 C4.09 118.21 1.76 128.72 -0.95 139.1 C-1.57 141.58 -2.09 144.05 -2.56 146.56 C-4.68 157.45 -7.67 168.15 -10.69 178.81 C-10.93 179.68 -11.18 180.56 -11.43 181.45 C-12.72 185.97 -14.15 190.36 -15.85 194.74 C-17.71 199.71 -19.29 204.8 -20.93 209.86 C-22.94 215.95 -25.2 221.88 -27.62 227.81 C-28.13 229.09 -28.62 230.37 -29.12 231.65 C-31.85 238.64 -34.81 245.36 -38.25 252.04 C-39.54 254.64 -40.64 257.24 -41.69 259.94 C-43.69 265.08 -46.08 269.92 -48.62 274.81 C-48.99 275.52 -49.35 276.22 -49.73 276.95 C-54.07 285.33 -58.4 293.69 -63.38 301.72 C-65.33 304.99 -66.97 308.38 -68.62 311.81 C-69.29 311.81 -69.94 311.81 -70.62 311.81 C-70.74 312.39 -70.86 312.96 -70.98 313.55 C-71.68 316.01 -72.67 317.8 -74.02 319.96 C-74.74 321.13 -74.74 321.13 -75.48 322.32 C-76.23 323.52 -76.23 323.52 -77 324.75 C-77.99 326.34 -78.97 327.93 -79.96 329.53 C-80.43 330.27 -80.89 331.01 -81.37 331.78 C-82.4 333.45 -83.39 335.16 -84.35 336.88 C-84.77 337.52 -85.19 338.16 -85.62 338.81 C-86.29 338.81 -86.94 338.81 -87.62 338.81 C-87.95 340.13 -88.29 341.45 -88.62 342.81 C-90.61 342.48 -92.59 342.15 -94.62 341.81 C-94.62 341.15 -94.62 340.49 -94.62 339.81 C-95.29 339.81 -95.94 339.81 -96.62 339.81 C-98.25 338.44 -98.25 338.44 -99.62 336.81 C-99.62 336.15 -99.62 335.49 -99.62 334.81 C-100.29 334.81 -100.94 334.81 -101.62 334.81 C-103.25 333.44 -103.25 333.44 -104.62 331.81 C-104.62 331.15 -104.62 330.49 -104.62 329.81 C-105.29 329.81 -105.94 329.81 -106.62 329.81 C-108.25 328.44 -108.25 328.44 -109.62 326.81 C-109.62 326.15 -109.62 325.49 -109.62 324.81 C-110.29 324.81 -110.94 324.81 -111.62 324.81 C-114.31 322.06 -114.31 322.06 -116.62 318.81 C-116.56 316.69 -116.56 316.69 -115.62 314.81 C-115.27 314.07 -114.92 313.33 -114.56 312.56 C-114.25 311.99 -113.94 311.41 -113.62 310.81 C-112.96 310.81 -112.31 310.81 -111.62 310.81 C-111.49 310.01 -111.49 310.01 -111.36 309.19 C-110.38 306.01 -108.73 303.56 -106.94 300.75 C-103.25 294.9 -99.86 288.93 -96.62 282.81 C-95.96 282.81 -95.31 282.81 -94.62 282.81 C-94.45 281.7 -94.45 281.7 -94.28 280.57 C-93.61 277.73 -92.73 276.1 -91.12 273.69 C-87.1 267.22 -84.01 260.34 -80.8 253.45 C-79.04 249.68 -77.21 245.96 -75.31 242.25 C-73.18 238.03 -71.33 233.79 -69.62 229.39 C-68.48 226.45 -67.28 223.54 -66.06 220.62 C-65.67 219.68 -65.28 218.74 -64.87 217.77 C-64 215.7 -63.11 213.65 -62.19 211.6 C-60.2 206.96 -58.69 202.17 -57.12 197.38 C-55.08 191.13 -52.97 184.95 -50.62 178.81 C-48.11 171.91 -46.34 164.86 -44.6 157.74 C-43.81 154.52 -42.96 151.32 -42.06 148.12 C-38.96 136.79 -36.82 125.46 -34.98 113.86 C-34.82 112.85 -34.66 111.84 -34.49 110.8 C-34.35 109.89 -34.21 108.98 -34.06 108.04 C-33.62 105.81 -33.62 105.81 -32.62 103.81 C-32.27 101.1 -31.96 98.39 -31.69 95.66 C-31.6 94.86 -31.52 94.05 -31.43 93.21 C-31.16 90.62 -30.89 88.03 -30.62 85.44 C-30.36 82.85 -30.09 80.27 -29.82 77.68 C-29.65 76.07 -29.49 74.47 -29.32 72.86 C-28.73 67.24 -28.73 67.24 -28.11 64.81 C-27.28 61.38 -27.43 57.86 -27.38 54.35 C-27.35 52.64 -27.31 50.94 -27.28 49.23 C-27.23 46.57 -27.19 43.9 -27.15 41.24 C-26.69 11.64 -26.69 11.64 -20.39 4.4 C-14.22 -1.15 -7.99 -2.62 0 0 Z " fill="#000000" transform="translate(1153.625,671.1875)"/>
<path d="M0 0 C5.28 3.51 8.83 7.63 12.31 12.88 C13.3 14.36 13.3 14.36 14.31 15.88 C17.33 22.52 17.68 28.66 17.31 35.88 C18.26 35.57 19.21 35.26 20.19 34.94 C23.22 34.06 26.11 33.64 29.25 33.38 C33.04 33.05 36.51 32.4 40.18 31.42 C49.69 28.98 56.92 28.44 66.31 31.88 C66.31 32.53 66.31 33.2 66.31 33.88 C66.89 34.08 67.47 34.29 68.06 34.5 C71.29 36.47 72.5 38.55 74.31 41.88 C74.84 44.84 74.8 47.73 74.74 50.74 C74.73 51.99 74.73 51.99 74.73 53.26 C74.72 55.01 74.7 56.76 74.67 58.51 C74.62 61.2 74.61 63.88 74.6 66.57 C74.58 68.27 74.57 69.97 74.55 71.68 C74.54 72.48 74.54 73.29 74.53 74.12 C74.43 79.76 74.43 79.76 73.31 80.88 C70.89 80.98 68.49 81.01 66.07 81.01 C65.3 81.01 64.53 81.01 63.74 81.02 C61.15 81.02 58.56 81.02 55.97 81.02 C54.12 81.02 52.27 81.03 50.43 81.03 C45.39 81.04 40.35 81.04 35.31 81.04 C31.12 81.04 26.92 81.05 22.72 81.05 C12.82 81.06 2.92 81.06 -6.98 81.06 C-17.2 81.06 -27.43 81.07 -37.66 81.09 C-46.43 81.1 -55.19 81.1 -63.96 81.1 C-69.2 81.1 -74.45 81.11 -79.69 81.12 C-84.62 81.13 -89.55 81.13 -94.48 81.12 C-96.29 81.12 -98.1 81.12 -99.92 81.13 C-102.38 81.13 -104.85 81.13 -107.32 81.12 C-108.04 81.13 -108.77 81.13 -109.51 81.14 C-114.46 81.1 -114.46 81.1 -116.69 78.88 C-116.9 76.45 -116.99 74.14 -116.99 71.71 C-116.99 70.99 -117 70.28 -117 69.55 C-117.01 68.03 -117.01 66.52 -117 65.01 C-117 62.71 -117.02 60.42 -117.05 58.12 C-117.05 56.65 -117.05 55.18 -117.05 53.71 C-117.06 53.03 -117.07 52.35 -117.08 51.65 C-117.02 45.36 -115.15 41.07 -111.69 35.88 C-111.03 35.88 -110.37 35.88 -109.69 35.88 C-109.69 35.22 -109.69 34.55 -109.69 33.88 C-103.32 30.1 -99.06 28.22 -91.69 29.88 C-89.23 30.22 -86.77 30.55 -84.31 30.88 C-77.94 31.75 -77.94 31.75 -75.69 32.88 C-73.94 33.05 -72.19 33.2 -70.44 33.31 C-66.24 33.65 -62.62 34.28 -58.69 35.88 C-58.73 34.74 -58.77 33.61 -58.81 32.44 C-58.73 21.35 -54.3 11.95 -46.69 3.88 C-32.59 -7.92 -15.62 -9.2 0 0 Z " fill="#000000" transform="translate(1063.6875,23.125)"/>
</svg>
