<?xml version="1.0" encoding="UTF-8"?>
<!-- Generator: visioncortex VTracer 0.6.3 -->
<svg version="1.1" xmlns="http://www.w3.org/2000/svg" width="1280" height="1280">
<path d="M0 0 C2.29 -0.01 4.59 -0.01 6.88 -0.02 C13.07 -0.04 19.26 -0.03 25.45 -0.01 C31.95 0.01 38.45 -0 44.95 -0.01 C55.86 -0.01 66.77 0.01 77.67 0.03 C88.87 0.06 100.06 0.07 111.25 0.05 C124.79 0.04 138.33 0.04 151.87 0.06 C157.02 0.06 162.17 0.06 167.32 0.06 C173.39 0.05 179.47 0.06 185.54 0.09 C187.76 0.09 189.98 0.09 192.2 0.09 C213.37 0.03 231.02 3.33 246.83 18.63 C246.83 19.29 246.83 19.95 246.83 20.63 C247.49 20.63 248.15 20.63 248.83 20.63 C257.58 31.5 262.05 43.55 261.91 57.53 C261.9 58.21 261.9 58.9 261.89 59.61 C261.88 61.28 261.86 62.96 261.83 64.63 C262.82 64.63 262.82 64.63 263.83 64.63 C279.89 64.58 295.95 64.55 312.01 64.53 C319.78 64.52 327.54 64.5 335.31 64.48 C342.09 64.46 348.86 64.45 355.64 64.44 C359.22 64.44 362.8 64.43 366.38 64.42 C370.4 64.4 374.41 64.4 378.42 64.4 C380.18 64.39 380.18 64.39 381.97 64.38 C400.22 64.43 418.11 68.82 431.83 81.63 C431.83 82.29 431.83 82.95 431.83 83.63 C432.49 83.63 433.15 83.63 433.83 83.63 C433.83 84.29 433.83 84.95 433.83 85.63 C434.82 85.96 435.81 86.29 436.83 86.63 C436.83 87.29 436.83 87.95 436.83 88.63 C437.49 88.63 438.15 88.63 438.83 88.63 C444.8 96.21 449.25 104.32 451.83 113.63 C452.17 114.84 452.51 116.05 452.86 117.3 C453.87 121.37 454.08 125.18 454.08 129.39 C454.08 130.14 454.08 130.88 454.09 131.64 C454.09 134.12 454.08 136.59 454.07 139.07 C454.07 140.87 454.08 142.66 454.08 144.46 C454.08 149.39 454.08 154.32 454.07 159.25 C454.06 164.57 454.06 169.89 454.06 175.21 C454.06 184.42 454.06 193.64 454.04 202.85 C454.03 216.17 454.02 229.5 454.02 242.82 C454.02 264.43 454 286.05 453.98 307.66 C453.97 328.65 453.95 349.65 453.94 370.65 C453.94 372.59 453.94 372.59 453.94 374.57 C453.94 381.06 453.94 387.55 453.93 394.05 C453.91 447.91 453.88 501.77 453.83 555.63 C455.06 555.63 456.29 555.63 457.56 555.62 C469.19 555.6 480.81 555.59 492.43 555.58 C498.41 555.57 504.38 555.57 510.35 555.56 C516.13 555.54 521.9 555.54 527.67 555.54 C529.86 555.53 532.06 555.53 534.26 555.53 C537.34 555.52 540.43 555.52 543.52 555.52 C544.42 555.51 545.32 555.51 546.24 555.51 C563.46 555.53 576.46 559.05 590.83 568.63 C590.83 569.29 590.83 569.95 590.83 570.63 C591.82 570.96 592.81 571.29 593.83 571.63 C593.83 572.29 593.83 572.95 593.83 573.63 C594.82 573.96 595.81 574.29 596.83 574.63 C596.83 575.29 596.83 575.95 596.83 576.63 C597.49 576.63 598.15 576.63 598.83 576.63 C601.83 581.02 601.83 581.02 601.83 583.63 C602.49 583.63 603.15 583.63 603.83 583.63 C604.62 585.21 605.39 586.79 606.15 588.38 C606.58 589.26 607 590.14 607.45 591.05 C611.01 600.24 612.28 609 612.21 618.81 C612.22 620.55 612.22 620.55 612.23 622.34 C612.24 625.53 612.24 628.73 612.23 631.93 C612.22 635.39 612.23 638.85 612.24 642.31 C612.25 649.08 612.25 655.85 612.24 662.62 C612.23 668.13 612.23 673.63 612.23 679.14 C612.24 679.92 612.24 680.71 612.24 681.52 C612.24 683.11 612.24 684.71 612.24 686.3 C612.25 701.25 612.24 716.19 612.22 731.14 C612.21 743.94 612.21 756.74 612.22 769.54 C612.24 784.44 612.25 799.33 612.24 814.22 C612.24 815.81 612.24 817.4 612.23 818.99 C612.23 819.78 612.23 820.56 612.23 821.36 C612.23 826.86 612.24 832.35 612.24 837.84 C612.25 844.54 612.25 851.25 612.23 857.95 C612.22 861.36 612.22 864.78 612.23 868.19 C612.24 871.9 612.23 875.62 612.21 879.33 C612.22 880.92 612.22 880.92 612.23 882.55 C612.16 892.51 610.53 902.42 605.77 911.26 C605.01 912.7 605.01 912.7 604.24 914.17 C603.17 916.03 602.02 917.85 600.83 919.63 C600.17 919.63 599.51 919.63 598.83 919.63 C598.57 920.39 598.3 921.16 598.02 921.94 C596.88 924.52 596.02 925.9 593.83 927.63 C593.17 927.63 592.51 927.63 591.83 927.63 C591.83 928.29 591.83 928.95 591.83 929.63 C580.03 939.12 567.06 943.13 552.03 942.97 C550.34 942.97 550.34 942.97 548.62 942.97 C544.95 942.97 541.28 942.95 537.6 942.92 C535.04 942.92 532.48 942.91 529.92 942.91 C523.88 942.9 517.85 942.88 511.82 942.85 C504.95 942.81 498.08 942.8 491.2 942.78 C477.08 942.75 462.96 942.7 448.83 942.63 C448.83 943.29 448.83 943.95 448.83 944.63 C448.17 944.63 447.51 944.63 446.83 944.63 C446.74 945.62 446.74 945.62 446.65 946.63 C445.53 950.75 443.5 954.29 440.83 957.63 C440.17 957.63 439.51 957.63 438.83 957.63 C438.17 959.28 437.51 960.93 436.83 962.63 C436.17 962.63 435.51 962.63 434.83 962.63 C434.59 963.23 434.34 963.83 434.08 964.44 C432.65 966.95 431.26 968.11 428.83 969.63 C428.17 969.63 427.51 969.63 426.83 969.63 C426.5 970.62 426.17 971.61 425.83 972.63 C418.74 977.98 411.17 980.75 402.67 982.9 C399.91 983.51 399.91 983.51 397.83 984.63 C396.45 984.73 395.07 984.76 393.69 984.76 C392.81 984.76 391.93 984.77 391.03 984.77 C389.58 984.77 389.58 984.77 388.09 984.77 C386.55 984.77 386.55 984.77 384.98 984.78 C381.49 984.78 378 984.78 374.51 984.79 C372 984.79 369.49 984.79 366.98 984.8 C360.78 984.81 354.58 984.82 348.38 984.82 C340.96 984.82 333.53 984.83 326.11 984.85 C308.16 984.87 290.21 984.89 272.25 984.9 C266.31 984.9 260.36 984.91 254.41 984.91 C222.79 984.94 191.18 984.96 159.56 984.97 C152.23 984.98 144.9 984.98 137.57 984.98 C136.66 984.98 135.75 984.98 134.81 984.98 C105.31 984.99 75.8 985.03 46.3 985.07 C15.97 985.11 -14.36 985.14 -44.69 985.14 C-48.97 985.14 -53.26 985.14 -57.55 985.14 C-58.39 985.14 -59.24 985.14 -60.1 985.15 C-73.67 985.15 -87.23 985.17 -100.79 985.2 C-114.44 985.22 -128.08 985.23 -141.73 985.22 C-149.83 985.21 -157.92 985.22 -166.02 985.25 C-172.08 985.27 -178.14 985.26 -184.2 985.24 C-186.64 985.24 -189.09 985.25 -191.53 985.26 C-214.84 985.4 -233.28 981.74 -250.82 965.17 C-264.94 949.87 -270.66 932.19 -270.55 911.57 C-270.55 910.19 -270.56 908.81 -270.56 907.44 C-270.57 903.68 -270.57 899.92 -270.56 896.15 C-270.55 892.05 -270.56 887.95 -270.57 883.86 C-270.58 876.68 -270.58 869.5 -270.58 862.32 C-270.57 851.64 -270.58 840.97 -270.59 830.29 C-270.61 811.23 -270.61 792.16 -270.61 773.09 C-270.6 756.4 -270.6 739.71 -270.61 723.02 C-270.61 720.78 -270.61 718.54 -270.61 716.31 C-270.61 712.93 -270.61 709.56 -270.61 706.18 C-270.62 674.82 -270.63 643.45 -270.62 612.08 C-270.62 610.9 -270.62 609.72 -270.62 608.5 C-270.62 598.9 -270.61 589.3 -270.61 579.69 C-270.6 542.25 -270.61 504.8 -270.63 467.35 C-270.66 425.27 -270.67 383.18 -270.66 341.1 C-270.66 336.62 -270.66 332.13 -270.66 327.64 C-270.66 325.98 -270.66 325.98 -270.66 324.29 C-270.66 307.62 -270.67 290.94 -270.68 274.27 C-270.7 255.3 -270.7 236.34 -270.68 217.37 C-270.67 206.76 -270.67 196.15 -270.69 185.54 C-270.7 178.45 -270.69 171.36 -270.68 164.26 C-270.67 160.23 -270.67 156.19 -270.68 152.15 C-270.77 127.67 -269.51 107.08 -253.65 87.11 C-252.17 85.63 -252.17 85.63 -250.17 85.63 C-250.17 84.97 -250.17 84.31 -250.17 83.63 C-244.69 78.63 -244.69 78.63 -242.17 78.63 C-242.17 77.97 -242.17 77.31 -242.17 76.63 C-225.6 67.33 -212.52 64.46 -193.46 64.52 C-192.1 64.52 -190.75 64.52 -189.4 64.52 C-185.76 64.52 -182.13 64.52 -178.49 64.53 C-174.68 64.54 -170.86 64.54 -167.05 64.54 C-159.84 64.54 -152.64 64.55 -145.43 64.56 C-137.22 64.57 -129.01 64.58 -120.8 64.58 C-103.92 64.59 -87.04 64.61 -70.17 64.63 C-70.18 63.01 -70.18 63.01 -70.2 61.35 C-70.21 59.91 -70.22 58.46 -70.23 57.02 C-70.24 56.31 -70.25 55.6 -70.26 54.86 C-70.33 39.92 -63.99 26.62 -53.66 15.91 C-37.71 1.32 -20.55 -0.12 0 0 Z M-36.17 29.63 C-36.17 30.29 -36.17 30.95 -36.17 31.63 C-37.16 31.96 -38.15 32.29 -39.17 32.63 C-39.17 33.29 -39.17 33.95 -39.17 34.63 C-39.83 34.63 -40.49 34.63 -41.17 34.63 C-47.61 45.03 -48.5 53.48 -48.17 65.63 C-47.16 65.84 -46.16 66.05 -45.12 66.26 C-28.53 69.9 -14.73 77.52 -4.23 91.13 C0.61 98.7 3.46 107.11 5.94 115.69 C6.76 118.38 7.79 121.01 8.83 123.63 C63.61 123.63 118.39 123.63 174.83 123.63 C176.15 119.34 177.47 115.05 178.83 110.63 C183.11 99.3 189.26 84.42 200.83 78.63 C200.83 77.97 200.83 77.31 200.83 76.63 C201.47 76.4 202.11 76.18 202.77 75.94 C205.36 74.83 207.6 73.62 210.02 72.19 C219.41 66.95 229.3 65.82 239.83 64.63 C240.25 52.32 238.96 44.26 230.83 34.63 C223 26.59 214.46 22.71 203.23 22.38 C201.57 22.36 199.91 22.36 198.25 22.37 C196.86 22.36 196.86 22.36 195.45 22.36 C192.38 22.35 189.31 22.35 186.24 22.36 C184.03 22.35 181.82 22.35 179.61 22.34 C173.62 22.33 167.63 22.33 161.65 22.33 C156.64 22.33 151.64 22.33 146.63 22.32 C134.15 22.31 121.66 22.31 109.18 22.32 C98.35 22.32 87.53 22.31 76.71 22.29 C65.57 22.27 54.44 22.26 43.3 22.27 C37.06 22.27 30.82 22.27 24.58 22.25 C18.7 22.24 12.83 22.24 6.96 22.26 C4.81 22.26 2.66 22.25 0.51 22.25 C-12.83 22.2 -24.6 22.18 -36.17 29.63 Z M-221.17 90.63 C-222.16 91.02 -223.15 91.41 -224.17 91.82 C-224.83 92.09 -225.49 92.35 -226.17 92.63 C-226.17 93.29 -226.17 93.95 -226.17 94.63 C-227.16 94.63 -228.15 94.63 -229.17 94.63 C-229.17 95.29 -229.17 95.95 -229.17 96.63 C-229.75 96.88 -230.32 97.13 -230.92 97.38 C-238.37 101.52 -243.18 109.91 -246.17 117.63 C-248.31 125.8 -248.45 133.92 -248.42 142.32 C-248.42 143.68 -248.43 145.04 -248.43 146.4 C-248.44 150.12 -248.44 153.84 -248.43 157.57 C-248.43 161.62 -248.43 165.68 -248.44 169.74 C-248.45 176.84 -248.45 183.94 -248.45 191.05 C-248.44 201.61 -248.45 212.18 -248.45 222.74 C-248.47 242.71 -248.47 262.68 -248.47 282.64 C-248.47 298.06 -248.47 313.48 -248.47 328.9 C-248.47 331.11 -248.47 333.33 -248.47 335.54 C-248.48 338.88 -248.48 342.22 -248.48 345.55 C-248.49 376.59 -248.49 407.62 -248.49 438.65 C-248.49 439.82 -248.49 440.99 -248.49 442.2 C-248.48 448.13 -248.48 454.06 -248.48 459.99 C-248.48 461.16 -248.48 462.34 -248.48 463.55 C-248.48 465.94 -248.48 468.32 -248.48 470.7 C-248.48 507.76 -248.48 544.82 -248.5 581.88 C-248.52 623.51 -248.53 665.15 -248.53 706.78 C-248.53 711.22 -248.53 715.66 -248.53 720.1 C-248.53 721.19 -248.53 722.28 -248.53 723.41 C-248.53 739.91 -248.53 756.42 -248.54 772.92 C-248.56 791.68 -248.56 810.45 -248.55 829.22 C-248.54 839.72 -248.54 850.22 -248.55 860.72 C-248.56 867.74 -248.56 874.76 -248.55 881.77 C-248.54 885.77 -248.54 889.77 -248.55 893.76 C-248.56 897.4 -248.56 901.04 -248.55 904.69 C-248.54 906.6 -248.55 908.52 -248.56 910.43 C-248.49 921.39 -246.96 932.15 -241.17 941.63 C-240.84 942.21 -240.52 942.79 -240.19 943.39 C-234.98 951.78 -224.49 958.66 -214.99 961.22 C-203.85 963.37 -192.54 962.91 -181.25 962.89 C-178.8 962.89 -176.35 962.89 -173.9 962.89 C-168.58 962.9 -163.26 962.9 -157.94 962.9 C-150.02 962.89 -142.11 962.89 -134.2 962.9 C-120.07 962.91 -105.94 962.91 -91.8 962.9 C-79.43 962.9 -67.07 962.9 -54.7 962.9 C-53.88 962.9 -53.06 962.9 -52.21 962.9 C-48.88 962.9 -45.55 962.9 -42.21 962.9 C-10.96 962.91 20.29 962.9 51.54 962.89 C79.29 962.88 107.05 962.88 134.8 962.89 C166 962.9 197.19 962.91 228.39 962.9 C231.71 962.9 235.04 962.9 238.37 962.9 C239.19 962.9 240 962.9 240.85 962.9 C253.21 962.9 265.57 962.9 277.93 962.9 C291.98 962.91 306.04 962.91 320.09 962.9 C327.95 962.89 335.82 962.89 343.68 962.9 C349.55 962.9 355.43 962.9 361.3 962.89 C363.67 962.89 366.05 962.89 368.42 962.89 C387.05 962.93 402.7 962.8 417.83 950.63 C417.83 949.97 417.83 949.31 417.83 948.63 C418.49 948.63 419.15 948.63 419.83 948.63 C422.23 945.99 422.23 945.99 422.83 942.63 C422.07 942.63 421.31 942.63 420.52 942.62 C401.92 942.56 383.33 942.49 364.73 942.4 C355.74 942.35 346.74 942.31 337.75 942.28 C329.91 942.26 322.07 942.23 314.22 942.18 C310.07 942.16 305.93 942.14 301.78 942.13 C297.86 942.13 293.95 942.11 290.04 942.08 C288.61 942.07 287.18 942.06 285.75 942.07 C274.57 942.08 264.86 940.73 255.02 935.26 C253.98 934.69 252.95 934.13 251.88 933.55 C248.83 931.63 248.83 931.63 246.12 929.05 C242.7 926.19 239.53 925.93 235.18 926.01 C234.42 926 233.67 926 232.89 925.99 C230.36 925.97 227.83 925.99 225.3 926.01 C223.46 926.01 221.63 926 219.8 925.99 C214.76 925.98 209.73 925.99 204.69 926.01 C199.26 926.03 193.82 926.01 188.39 926 C178.98 925.99 169.57 925.99 160.16 926.01 C146.54 926.03 132.92 926.02 119.31 926.01 C97.21 925.99 75.11 925.98 53.01 925.99 C51.68 925.99 50.34 925.99 49 925.99 C46.33 925.99 43.65 926 40.97 926 C40.31 926 39.65 926 38.96 926 C37.62 926 36.28 926 34.94 926 C19.51 926.01 4.08 926.01 -11.35 926.01 C-12.34 926.01 -12.34 926.01 -13.35 926.01 C-36.03 926.01 -58.71 926 -81.4 925.98 C-94.98 925.97 -108.56 925.97 -122.15 925.98 C-131.45 926 -140.76 926 -150.06 925.99 C-155.43 925.98 -160.81 925.98 -166.18 926 C-171.09 926.01 -176.01 926.01 -180.92 926 C-182.7 926 -184.48 926 -186.26 926.01 C-188.68 926.02 -191.09 926.01 -193.51 926 C-194.21 926.01 -194.9 926.02 -195.62 926.03 C-200.18 925.98 -203.29 925.02 -207.17 922.63 C-210.85 917.8 -211.29 912.97 -211.29 907.04 C-211.3 905.92 -211.3 904.8 -211.3 903.65 C-211.3 902.42 -211.3 901.19 -211.3 899.92 C-211.3 898.61 -211.3 897.3 -211.3 895.94 C-211.31 892.28 -211.31 888.62 -211.31 884.96 C-211.31 880.99 -211.31 877.01 -211.32 873.03 C-211.32 865.14 -211.33 857.25 -211.33 849.36 C-211.33 839.9 -211.33 830.45 -211.34 821 C-211.36 798.16 -211.36 775.31 -211.37 752.47 C-211.37 741.67 -211.37 730.86 -211.38 720.06 C-211.39 683.09 -211.4 646.12 -211.4 609.15 C-211.4 606.83 -211.4 604.51 -211.4 602.19 C-211.4 599.86 -211.41 597.54 -211.41 595.21 C-211.41 590.54 -211.41 585.87 -211.41 581.21 C-211.41 580.05 -211.41 578.89 -211.41 577.7 C-211.41 540.16 -211.43 502.62 -211.45 465.07 C-211.47 425.4 -211.49 385.72 -211.49 346.04 C-211.49 341.69 -211.49 337.34 -211.49 332.98 C-211.49 331.38 -211.49 331.38 -211.49 329.74 C-211.49 312.47 -211.5 295.2 -211.52 277.93 C-211.53 260.58 -211.53 243.24 -211.53 225.89 C-211.52 215.58 -211.53 205.26 -211.54 194.95 C-211.55 188.07 -211.55 181.18 -211.54 174.3 C-211.53 170.37 -211.53 166.45 -211.55 162.52 C-211.56 158.3 -211.55 154.07 -211.54 149.84 C-211.55 148.62 -211.55 147.4 -211.56 146.15 C-211.52 138.91 -211.31 131.38 -206.46 125.59 C-203.16 124.21 -200.03 124.21 -196.51 124.23 C-195.74 124.23 -194.96 124.22 -194.16 124.21 C-191.56 124.19 -188.96 124.2 -186.36 124.2 C-184.5 124.19 -182.64 124.18 -180.77 124.17 C-175.72 124.14 -170.66 124.13 -165.6 124.12 C-160.31 124.12 -155.02 124.09 -149.74 124.06 C-139.73 124.02 -129.71 123.99 -119.7 123.97 C-108.3 123.94 -96.91 123.9 -85.51 123.85 C-62.06 123.76 -38.61 123.69 -15.17 123.63 C-15.75 119.28 -16.4 115.49 -18.1 111.44 C-18.44 110.63 -18.78 109.81 -19.13 108.96 C-21.4 103.77 -21.4 103.77 -25.17 99.63 C-25.83 99.63 -26.49 99.63 -27.17 99.63 C-27.5 98.64 -27.83 97.65 -28.17 96.63 C-28.83 96.63 -29.49 96.63 -30.17 96.63 C-30.17 95.97 -30.17 95.31 -30.17 94.63 C-31.54 93.83 -32.91 93.04 -34.29 92.26 C-35.06 91.82 -35.82 91.37 -36.61 90.92 C-41.86 88.27 -46.35 87.38 -52.21 87.37 C-52.9 87.37 -53.58 87.36 -54.29 87.36 C-56.57 87.35 -58.86 87.35 -61.14 87.36 C-62.79 87.35 -64.43 87.35 -66.07 87.34 C-70.53 87.33 -74.98 87.33 -79.44 87.33 C-83.16 87.33 -86.88 87.33 -90.6 87.32 C-99.39 87.31 -108.17 87.31 -116.96 87.32 C-126.01 87.32 -135.06 87.31 -144.12 87.29 C-151.9 87.27 -159.68 87.26 -167.46 87.27 C-172.1 87.27 -176.75 87.27 -181.39 87.25 C-185.76 87.24 -190.13 87.24 -194.5 87.26 C-196.1 87.26 -197.7 87.25 -199.29 87.25 C-210.56 87.17 -210.56 87.17 -221.17 90.63 Z M216.83 92.63 C216.83 93.29 216.83 93.95 216.83 94.63 C215.84 94.63 214.85 94.63 213.83 94.63 C213.83 95.29 213.83 95.95 213.83 96.63 C212.84 96.96 211.85 97.29 210.83 97.63 C210.83 98.29 210.83 98.95 210.83 99.63 C210.17 99.63 209.51 99.63 208.83 99.63 C202.97 106.76 198.83 114.32 198.83 123.63 C261.53 123.63 324.23 123.63 388.83 123.63 C388.83 124.29 388.83 124.95 388.83 125.63 C389.47 126.08 390.11 126.54 390.77 127.01 C393.26 128.97 393.34 129.56 393.83 132.63 C393.93 135 393.97 137.36 393.97 139.73 C393.98 140.45 393.98 141.17 393.98 141.91 C393.99 144.33 393.99 146.75 393.99 149.17 C394 150.92 394 152.67 394.01 154.42 C394.02 159.23 394.03 164.04 394.03 168.86 C394.04 174.04 394.06 179.23 394.07 184.42 C394.09 193.41 394.11 202.4 394.12 211.39 C394.15 224.39 394.18 237.39 394.2 250.39 C394.25 271.48 394.3 292.57 394.34 313.66 C394.38 334.15 394.42 354.64 394.46 375.13 C394.46 376.39 394.47 377.65 394.47 378.95 C394.48 385.28 394.5 391.62 394.51 397.95 C394.62 450.51 394.73 503.07 394.83 555.63 C407.04 555.63 419.25 555.63 431.83 555.63 C431.88 502 431.91 448.37 431.94 394.73 C431.94 388.4 431.94 382.06 431.94 375.73 C431.94 374.47 431.94 373.21 431.94 371.91 C431.95 351.5 431.97 331.09 431.99 310.68 C432.01 289.74 432.02 268.79 432.02 247.84 C432.02 234.92 432.03 222 432.05 209.08 C432.06 200.21 432.06 191.35 432.06 182.48 C432.06 177.37 432.06 172.26 432.07 167.15 C432.08 162.46 432.08 157.77 432.08 153.09 C432.07 151.4 432.08 149.71 432.08 148.02 C432.15 129.41 431.48 114.02 418.04 99.83 C409.87 91.68 401.45 87.4 389.69 87.36 C389.01 87.35 388.33 87.35 387.62 87.34 C385.35 87.33 383.08 87.33 380.81 87.32 C379.17 87.32 377.53 87.31 375.9 87.3 C371.46 87.28 367.03 87.27 362.59 87.26 C359.82 87.26 357.04 87.25 354.27 87.25 C344.58 87.22 334.88 87.21 325.19 87.21 C316.17 87.2 307.16 87.17 298.14 87.13 C290.39 87.1 282.63 87.08 274.88 87.08 C270.25 87.08 265.63 87.07 261 87.04 C256.65 87.02 252.29 87.01 247.94 87.03 C246.35 87.03 244.76 87.02 243.17 87.01 C233.44 86.92 225.62 88.01 216.83 92.63 Z M-188.17 145.63 C-189.43 148.16 -189.29 149.89 -189.29 152.72 C-189.29 153.81 -189.3 154.89 -189.3 156.01 C-189.3 157.22 -189.29 158.42 -189.29 159.67 C-189.29 160.94 -189.3 162.22 -189.3 163.53 C-189.3 167.11 -189.3 170.68 -189.29 174.25 C-189.29 178.12 -189.3 182 -189.3 185.87 C-189.3 192.67 -189.3 199.47 -189.3 206.27 C-189.3 216.39 -189.3 226.5 -189.3 236.61 C-189.31 254.67 -189.31 272.72 -189.3 290.78 C-189.3 306.58 -189.3 322.38 -189.3 338.18 C-189.3 339.23 -189.3 340.27 -189.3 341.35 C-189.3 345.6 -189.3 349.84 -189.3 354.09 C-189.3 393.97 -189.3 433.84 -189.3 473.72 C-189.29 509.18 -189.29 544.64 -189.3 580.09 C-189.3 619.9 -189.3 659.7 -189.3 699.5 C-189.3 703.74 -189.3 707.98 -189.3 712.22 C-189.3 713.26 -189.3 714.3 -189.3 715.38 C-189.3 731.17 -189.3 746.97 -189.3 762.76 C-189.31 780.71 -189.3 798.66 -189.3 816.61 C-189.3 826.67 -189.3 836.73 -189.3 846.79 C-189.3 853.49 -189.3 860.2 -189.3 866.9 C-189.29 870.73 -189.29 874.56 -189.3 878.39 C-189.3 882.5 -189.3 886.61 -189.29 890.72 C-189.29 891.93 -189.3 893.14 -189.3 894.38 C-189.3 895.47 -189.29 896.55 -189.29 897.67 C-189.29 898.61 -189.29 899.55 -189.29 900.52 C-189.4 902.62 -189.4 902.62 -188.17 903.63 C-185.96 903.73 -183.75 903.75 -181.55 903.75 C-180.84 903.76 -180.14 903.76 -179.41 903.76 C-177.03 903.76 -174.64 903.76 -172.25 903.75 C-170.54 903.75 -168.82 903.75 -167.1 903.75 C-162.36 903.76 -157.62 903.75 -152.88 903.75 C-147.78 903.74 -142.67 903.74 -137.57 903.75 C-128.72 903.75 -119.87 903.74 -111.02 903.74 C-98.22 903.73 -85.43 903.73 -72.63 903.72 C-51.87 903.72 -31.11 903.72 -10.36 903.71 C9.81 903.7 29.98 903.69 50.15 903.69 C51.4 903.69 52.64 903.69 53.92 903.69 C60.15 903.68 66.38 903.68 72.61 903.68 C124.35 903.67 176.09 903.65 227.83 903.63 C227.34 900.65 226.84 897.68 226.28 894.71 C225.78 891.25 225.67 887.92 225.63 884.43 C225.62 883.74 225.61 883.05 225.6 882.33 C225.57 880.06 225.54 877.79 225.52 875.51 C225.5 873.93 225.48 872.35 225.45 870.76 C225.4 866.61 225.35 862.46 225.3 858.31 C225.25 854.06 225.2 849.82 225.14 845.58 C225.03 837.26 224.93 828.95 224.83 820.63 C223.82 820.63 222.81 820.63 221.77 820.62 C197.19 820.57 172.61 820.49 148.04 820.4 C136.15 820.35 124.26 820.31 112.38 820.28 C102.02 820.26 91.66 820.23 81.3 820.18 C75.82 820.16 70.33 820.14 64.85 820.13 C59.68 820.13 54.52 820.11 49.36 820.08 C47.46 820.07 45.57 820.06 43.67 820.07 C41.09 820.07 38.5 820.05 35.91 820.03 C34.79 820.04 34.79 820.04 33.64 820.04 C29.2 819.98 26.35 819.39 22.83 816.63 C20.62 813.32 20.61 812.29 20.71 808.44 C20.73 807.54 20.74 806.64 20.76 805.71 C20.79 805.03 20.81 804.34 20.83 803.63 C21.49 803.63 22.15 803.63 22.83 803.63 C23.37 802.98 23.91 802.33 24.46 801.66 C27.75 798.85 30.7 799.07 34.83 799.11 C35.64 799.1 36.46 799.1 37.29 799.09 C40.02 799.07 42.74 799.08 45.46 799.09 C47.41 799.08 49.37 799.07 51.32 799.05 C56.62 799.03 61.92 799.02 67.22 799.02 C72.76 799.02 78.3 798.99 83.84 798.97 C94.33 798.93 104.82 798.91 115.31 798.9 C129.48 798.88 143.66 798.83 157.83 798.78 C180.16 798.71 202.5 798.67 224.83 798.63 C224.83 758.7 224.83 718.77 224.83 677.63 C203.48 677.59 203.48 677.59 181.7 677.55 C172.7 677.53 163.7 677.5 154.69 677.47 C140.4 677.42 126.1 677.38 111.81 677.36 C101.39 677.35 90.98 677.32 80.57 677.28 C75.06 677.25 69.54 677.24 64.03 677.24 C58.84 677.24 53.65 677.22 48.47 677.19 C46.56 677.18 44.66 677.18 42.75 677.19 C40.15 677.19 37.55 677.17 34.95 677.15 C34.2 677.16 33.44 677.17 32.66 677.17 C27.78 677.09 25.26 676.12 21.83 672.63 C20.57 670.11 20.73 668.32 20.77 665.51 C20.78 664.6 20.79 663.69 20.8 662.75 C20.81 662.05 20.82 661.35 20.83 660.63 C21.49 660.63 22.15 660.63 22.83 660.63 C22.83 659.97 22.83 659.31 22.83 658.63 C23.49 658.63 24.15 658.63 24.83 658.63 C24.83 657.97 24.83 657.31 24.83 656.63 C123.83 656.14 123.83 656.14 224.83 655.63 C225.16 639.46 225.49 623.29 225.83 606.63 C229.83 592.63 229.83 592.63 232.83 586.63 C232.83 585.64 232.83 584.65 232.83 583.63 C233.49 583.63 234.15 583.63 234.83 583.63 C237.15 580.41 237.15 580.41 237.83 576.63 C238.82 576.3 239.81 575.97 240.83 575.63 C240.83 574.97 240.83 574.31 240.83 573.63 C241.49 573.63 242.15 573.63 242.83 573.63 C242.83 572.97 242.83 572.31 242.83 571.63 C243.82 571.3 244.81 570.97 245.83 570.63 C245.83 569.97 245.83 569.31 245.83 568.63 C246.53 568.37 247.23 568.12 247.94 567.85 C251.15 566.5 254.06 564.85 257.08 563.13 C288.31 546.2 354.03 555.84 372.83 555.63 C372.83 420.33 372.83 285.03 372.83 145.63 C187.7 145.63 2.57 145.63 -188.17 145.63 Z M256.96 588.94 C247.61 599.19 246.52 610.91 246.58 624.28 C246.58 625.4 246.57 626.52 246.57 627.68 C246.56 631.4 246.57 635.13 246.57 638.86 C246.57 641.54 246.57 644.22 246.56 646.91 C246.56 653.42 246.56 659.94 246.56 666.45 C246.57 671.75 246.57 677.05 246.57 682.34 C246.57 683.1 246.57 683.86 246.56 684.63 C246.56 686.17 246.56 687.71 246.56 689.24 C246.56 703.62 246.56 718 246.57 732.38 C246.58 744.7 246.58 757.02 246.57 769.34 C246.56 783.67 246.56 798 246.56 812.33 C246.56 813.86 246.57 815.39 246.57 816.92 C246.57 817.67 246.57 818.42 246.57 819.2 C246.57 824.49 246.57 829.77 246.56 835.06 C246.56 841.51 246.56 847.96 246.57 854.41 C246.57 857.69 246.57 860.98 246.57 864.27 C246.56 867.84 246.57 871.41 246.58 874.98 C246.58 876.01 246.57 877.03 246.57 878.09 C246.63 890.35 248.27 900.84 257.05 909.93 C266.72 918.76 274.59 920.94 287.44 920.89 C288.61 920.9 289.77 920.9 290.97 920.9 C294.19 920.91 297.41 920.91 300.62 920.91 C304.1 920.9 307.58 920.91 311.05 920.92 C317.86 920.93 324.66 920.94 331.46 920.93 C337 920.93 342.53 920.93 348.06 920.94 C348.85 920.94 349.63 920.94 350.45 920.94 C352.05 920.94 353.65 920.94 355.25 920.94 C370.25 920.95 385.25 920.95 400.25 920.95 C413.97 920.94 427.69 920.95 441.41 920.97 C455.5 920.99 469.6 921 483.69 920.99 C491.6 920.99 499.51 921 507.42 921.01 C514.15 921.02 520.89 921.02 527.62 921.01 C531.05 921 534.49 921 537.92 921.02 C541.65 921.03 545.37 921.02 549.1 921.01 C550.18 921.01 551.26 921.02 552.37 921.03 C563.25 920.95 571.98 917.3 579.85 909.67 C588.74 899.89 590.14 889.92 590.09 877.1 C590.09 875.97 590.09 874.84 590.1 873.67 C590.1 869.89 590.1 866.12 590.09 862.34 C590.09 859.63 590.1 856.91 590.1 854.2 C590.11 847.6 590.11 841 590.1 834.41 C590.1 829.04 590.1 823.68 590.1 818.31 C590.1 817.17 590.1 817.17 590.1 816 C590.1 814.44 590.1 812.89 590.1 811.33 C590.11 796.78 590.1 782.22 590.09 767.67 C590.08 755.19 590.09 742.71 590.09 730.24 C590.1 715.73 590.11 701.23 590.1 686.73 C590.1 685.18 590.1 683.63 590.1 682.08 C590.1 681.32 590.1 680.56 590.1 679.78 C590.1 674.42 590.1 669.07 590.11 663.71 C590.11 657.18 590.11 650.65 590.1 644.12 C590.09 640.79 590.09 637.46 590.1 634.14 C590.1 630.52 590.1 626.9 590.09 623.29 C590.09 622.25 590.1 621.2 590.1 620.13 C590.03 607.29 587.41 597.45 578.58 587.82 C568.35 578.3 556.56 578.48 543.33 578.5 C542.22 578.5 541.1 578.5 539.95 578.5 C536.23 578.5 532.51 578.5 528.8 578.5 C526.12 578.5 523.45 578.5 520.77 578.5 C514.27 578.49 507.78 578.49 501.28 578.5 C496 578.5 490.71 578.5 485.43 578.5 C484.3 578.5 484.3 578.5 483.15 578.5 C481.61 578.5 480.08 578.5 478.55 578.5 C464.22 578.49 449.88 578.5 435.54 578.5 C423.25 578.51 410.96 578.51 398.68 578.5 C384.39 578.5 370.1 578.49 355.81 578.5 C354.29 578.5 352.76 578.5 351.24 578.5 C350.11 578.5 350.11 578.5 348.97 578.5 C343.69 578.5 338.42 578.5 333.14 578.49 C326.71 578.49 320.28 578.49 313.85 578.5 C310.57 578.5 307.29 578.5 304.01 578.5 C300.45 578.5 296.89 578.5 293.33 578.5 C292.31 578.5 291.28 578.5 290.22 578.5 C277.11 578.53 266.98 579.62 256.96 588.94 Z " fill="#000000" transform="translate(469.16650390625,148.368896484375)"/>
<path d="M0 0 C0.9 -0.07 1.81 -0.13 2.74 -0.2 C8.35 -0.33 11.41 0.6 15.51 4.48 C16.38 5.3 17.25 6.12 18.14 6.96 C22.65 11.36 27.13 15.77 31.56 20.24 C33.26 21.95 34.96 23.65 36.66 25.36 C40.25 28.97 43.85 32.58 47.44 36.19 C51.63 40.4 55.82 44.62 60.02 48.83 C61.7 50.51 63.37 52.19 65.04 53.88 C66.06 54.9 67.08 55.92 68.1 56.94 C68.98 57.84 69.87 58.73 70.79 59.65 C73.9 62.6 75.52 62.81 79.69 62.82 C81.21 62.83 81.21 62.83 82.76 62.83 C83.87 62.83 84.99 62.83 86.14 62.83 C87.33 62.84 88.51 62.84 89.73 62.84 C93.02 62.85 96.31 62.86 99.6 62.86 C103.14 62.86 106.69 62.87 110.23 62.88 C116.38 62.9 122.53 62.91 128.67 62.92 C137.58 62.93 146.48 62.95 155.38 62.98 C169.84 63.01 184.3 63.05 198.76 63.08 C199.62 63.08 200.49 63.08 201.38 63.09 C213.65 63.11 225.93 63.14 238.2 63.16 C239.49 63.16 239.49 63.16 240.81 63.16 C241.68 63.17 242.54 63.17 243.43 63.17 C257.82 63.2 272.21 63.23 286.6 63.27 C295.47 63.3 304.35 63.31 313.22 63.32 C319.31 63.33 325.4 63.35 331.49 63.37 C335 63.38 338.51 63.39 342.02 63.39 C345.83 63.39 349.65 63.4 353.46 63.42 C354.56 63.41 355.65 63.41 356.78 63.41 C366.97 63.48 376.41 64.64 385.78 68.79 C387.82 69.64 389.78 70.21 391.94 70.69 C391.94 71.35 391.94 72.01 391.94 72.69 C392.65 72.78 393.36 72.88 394.09 72.98 C397.41 73.81 399.64 75.18 402.5 77.06 C403.43 77.67 404.36 78.27 405.32 78.9 C410.25 82.27 410.25 82.27 411.94 83.69 C411.94 84.35 411.94 85.01 411.94 85.69 C412.58 85.96 413.22 86.22 413.88 86.5 C415.94 87.69 415.94 87.69 416.94 90.69 C417.6 90.69 418.26 90.69 418.94 90.69 C420.56 92.06 420.56 92.06 421.94 93.69 C421.94 94.35 421.94 95.01 421.94 95.69 C422.91 95.73 423.88 95.77 424.88 95.81 C432.26 96.89 438.01 102.25 442.65 107.78 C446.55 113.55 447.52 118.11 447.5 124.94 C447.5 125.78 447.5 126.62 447.5 127.49 C447.3 134.56 445.52 139.24 440.94 144.69 C440.26 145.68 439.58 146.67 438.88 147.69 C436.71 149.93 434.9 150.78 431.94 151.69 C431.94 152.35 431.94 153.01 431.94 153.69 C430.23 154.65 428.52 155.61 426.81 156.56 C425.86 157.1 424.91 157.63 423.93 158.18 C417.56 161.39 412.39 161.96 405.39 161.85 C404.44 161.84 403.5 161.84 402.53 161.83 C400.48 161.82 398.44 161.8 396.4 161.78 C392.05 161.74 387.7 161.74 383.35 161.73 C375.26 161.73 367.17 161.7 359.08 161.62 C353.45 161.56 347.81 161.54 342.18 161.56 C340.03 161.56 337.89 161.54 335.75 161.51 C324.27 160.85 324.27 160.85 313.98 164.85 C311.84 167.41 311.84 167.41 310.4 170.15 C307.6 175.01 303.3 177.36 298.15 179.14 C294.15 180.13 290.2 180.05 286.1 179.99 C284.21 180 282.33 180 280.44 180.01 C277.5 180.01 274.56 180 271.62 179.97 C256.23 179.65 256.23 179.65 242.94 186.69 C241.06 187.66 239.16 188.6 237.25 189.5 C231.7 192.21 226.44 195.29 221.19 198.53 C211.15 204.69 211.15 204.69 206.94 204.69 C206.94 205.35 206.94 206.01 206.94 206.69 C205.79 207.25 205.79 207.25 204.63 207.82 C198.97 210.63 193.37 213.49 187.88 216.61 C187.24 216.97 186.6 217.32 185.94 217.69 C185.38 218.03 184.82 218.38 184.25 218.73 C181.1 220.03 178.4 219.97 174.99 220.01 C173.95 220.02 173.95 220.02 172.89 220.04 C170.61 220.07 168.33 220.08 166.04 220.09 C164.45 220.11 162.86 220.12 161.27 220.13 C157.93 220.15 154.59 220.16 151.26 220.17 C146.99 220.18 142.73 220.23 138.47 220.28 C135.18 220.32 131.89 220.33 128.6 220.33 C127.03 220.34 125.46 220.36 123.89 220.38 C110.08 220.6 110.08 220.6 105.48 216.8 C103.67 214.88 102.95 213.71 102.04 211.2 C102.25 205.22 103.63 201.73 107.43 197.09 C108.94 195.69 108.94 195.69 110.94 195.69 C111.28 194.88 111.28 194.88 111.62 194.06 C113.88 189.98 116.94 186.69 120.21 183.41 C123.28 180.34 126.24 177.19 129.19 174 C129.73 173.42 130.27 172.84 130.83 172.24 C133.71 169.2 133.71 169.2 135.94 165.69 C136.6 165.69 137.26 165.69 137.94 165.69 C138.27 164.7 138.6 163.71 138.94 162.69 C139.6 162.69 140.26 162.69 140.94 162.69 C140.94 161.7 140.94 160.71 140.94 159.69 C139.81 159.68 138.68 159.67 137.52 159.66 C126.85 159.59 116.19 159.5 105.52 159.4 C100.04 159.35 94.56 159.3 89.07 159.27 C83.78 159.23 78.48 159.18 73.18 159.13 C71.17 159.11 69.15 159.1 67.14 159.08 C42.2 158.93 42.2 158.93 31.88 154.38 C30.89 153.94 29.9 153.51 28.89 153.06 C24.52 151.03 20.21 148.91 15.94 146.69 C15.94 146.03 15.94 145.37 15.94 144.69 C14.9 144.33 14.9 144.33 13.83 143.97 C10.42 142.46 7.58 140.44 4.62 138.19 C3.8 137.58 3.8 137.58 2.96 136.96 C1.58 135.92 0.25 134.81 -1.06 133.69 C-1.06 133.03 -1.06 132.37 -1.06 131.69 C-1.61 131.48 -2.15 131.27 -2.71 131.06 C-5.97 129.16 -8.26 126.48 -10.75 123.69 C-11.25 123.14 -11.75 122.59 -12.26 122.03 C-15.65 118.28 -17.18 116.39 -17.21 111.38 C-17.22 110.48 -17.22 109.57 -17.23 108.64 C-17.23 107.65 -17.24 106.65 -17.24 105.63 C-17.25 104.58 -17.25 103.53 -17.26 102.46 C-17.28 98.99 -17.29 95.51 -17.3 92.04 C-17.3 90.86 -17.31 89.68 -17.31 88.46 C-17.33 82.19 -17.35 75.93 -17.36 69.67 C-17.37 63.19 -17.4 56.72 -17.44 50.24 C-17.47 45.27 -17.48 40.29 -17.48 35.32 C-17.49 32.93 -17.5 30.54 -17.52 28.16 C-17.54 24.82 -17.54 21.48 -17.53 18.14 C-17.55 17.15 -17.56 16.16 -17.57 15.14 C-17.54 10.86 -17.48 8.38 -15.22 4.66 C-10.23 0.1 -6.47 0.17 0 0 Z M4.94 25.69 C4.94 44.83 4.94 63.97 4.94 83.69 C7.25 82.37 9.56 81.05 11.94 79.69 C13.26 79.01 14.59 78.33 15.94 77.69 C15.94 77.03 15.94 76.37 15.94 75.69 C16.74 75.53 16.74 75.53 17.57 75.37 C20.55 74.51 23.11 73.17 25.88 71.75 C31.58 68.81 36.55 66.58 42.94 65.69 C42.36 62.12 41.08 60.46 38.54 57.93 C37.82 57.21 37.1 56.49 36.36 55.75 C35.58 54.98 34.8 54.21 34 53.42 C33.2 52.63 32.41 51.84 31.59 51.02 C29.91 49.34 28.22 47.67 26.54 46 C23.94 43.44 21.36 40.87 18.77 38.29 C17.14 36.67 15.51 35.04 13.88 33.42 C13.1 32.65 12.32 31.87 11.51 31.07 C10.8 30.37 10.08 29.66 9.34 28.93 C8.71 28.3 8.07 27.67 7.42 27.03 C6.15 25.58 6.15 25.58 4.94 25.69 Z M31.94 91.69 C31.94 92.35 31.94 93.01 31.94 93.69 C30.29 94.02 28.64 94.35 26.94 94.69 C26.94 95.35 26.94 96.01 26.94 96.69 C26.15 97 25.37 97.31 24.56 97.62 C22.01 98.62 22.01 98.62 19.94 99.69 C19.94 100.35 19.94 101.01 19.94 101.69 C19.36 101.96 18.78 102.22 18.19 102.5 C15.88 103.72 13.92 104.99 11.94 106.69 C11.94 107.35 11.94 108.01 11.94 108.69 C11.28 108.69 10.62 108.69 9.94 108.69 C10.36 113.61 12.37 115.41 15.94 118.69 C18.15 120.46 20.43 122.12 22.75 123.75 C23.37 124.19 23.99 124.63 24.63 125.08 C28.92 128.08 33.12 130.61 37.94 132.69 C39.09 133.21 40.24 133.73 41.42 134.26 C46.81 136.25 52.09 136.08 57.77 136.03 C59.51 136.03 59.51 136.03 61.29 136.03 C65.11 136.03 68.93 136 72.75 135.98 C75.41 135.97 78.06 135.97 80.72 135.97 C86.98 135.96 93.25 135.93 99.51 135.9 C106.65 135.87 113.79 135.85 120.92 135.84 C135.6 135.81 150.27 135.75 164.94 135.69 C165.27 134.7 165.6 133.71 165.94 132.69 C166.6 132.69 167.26 132.69 167.94 132.69 C169.73 130.75 171.34 128.7 172.99 126.63 C177.24 122.39 181.86 122.45 187.57 122.42 C189.09 122.42 189.09 122.42 190.64 122.43 C191.72 122.43 192.8 122.42 193.91 122.42 C197.48 122.41 201.04 122.42 204.61 122.42 C207.09 122.42 209.57 122.42 212.06 122.42 C217.93 122.41 223.8 122.42 229.67 122.43 C235.66 122.44 241.66 122.43 247.65 122.42 C252.78 122.41 257.91 122.41 263.03 122.42 C265.49 122.42 267.94 122.42 270.4 122.41 C273.84 122.41 277.27 122.42 280.71 122.43 C281.72 122.42 282.73 122.42 283.77 122.42 C294.1 122.48 301.81 124.08 309.94 130.69 C312.27 133.2 313.71 135.15 315.02 138.3 C316.82 141.09 316.82 141.09 320.61 141.31 C322.17 141.33 323.73 141.33 325.29 141.3 C326.14 141.31 326.99 141.31 327.87 141.32 C330.7 141.33 333.52 141.31 336.35 141.28 C338.31 141.28 340.28 141.28 342.25 141.28 C346.38 141.28 350.51 141.26 354.64 141.23 C359.91 141.19 365.19 141.19 370.46 141.19 C374.53 141.2 378.59 141.18 382.66 141.17 C384.6 141.16 386.55 141.16 388.49 141.16 C402.51 141.34 402.51 141.34 415.94 137.69 C415.94 137.03 415.94 136.37 415.94 135.69 C416.53 135.6 417.12 135.51 417.73 135.42 C421.82 134.06 423.91 130.33 425.94 126.69 C426.19 123 425.09 121.89 422.88 118.94 C419.01 115.98 416.74 116.07 411.94 115.69 C409.44 114.62 409.44 114.62 407.94 113.69 C407.94 113.03 407.94 112.37 407.94 111.69 C407.28 111.69 406.62 111.69 405.94 111.69 C405.57 110.73 405.57 110.73 405.19 109.75 C404.13 107.59 404.13 107.59 402.19 106.81 C399.09 106.64 396.88 107.67 393.94 108.69 C387.49 110.13 381.08 110.89 374.5 111.4 C372.13 111.67 369.98 112.12 367.69 112.75 C361.83 114.21 356.42 114.49 350.94 111.69 C348.52 107.16 348.91 103.62 349.94 98.69 C350.27 97.7 350.6 96.71 350.94 95.69 C351.6 95.69 352.26 95.69 352.94 95.69 C352.94 95.03 352.94 94.37 352.94 93.69 C359.92 92.13 366.8 91.2 373.94 90.69 C371.84 88.19 370.63 86.82 367.37 86.18 C366.39 86.18 365.41 86.18 364.41 86.18 C363.27 86.17 362.14 86.16 360.98 86.15 C359.73 86.16 358.49 86.16 357.21 86.17 C355.87 86.17 354.54 86.16 353.2 86.15 C349.53 86.13 345.86 86.14 342.19 86.15 C338.23 86.16 334.27 86.14 330.31 86.13 C322.55 86.11 314.79 86.11 307.03 86.11 C300.72 86.12 294.41 86.12 288.11 86.11 C287.21 86.11 286.31 86.11 285.38 86.11 C283.56 86.11 281.74 86.11 279.91 86.1 C262.8 86.09 245.68 86.1 228.57 86.11 C212.92 86.13 197.28 86.11 181.64 86.09 C165.57 86.06 149.5 86.04 133.43 86.05 C131.61 86.06 129.79 86.06 127.97 86.06 C126.63 86.06 126.63 86.06 125.26 86.06 C118.97 86.06 112.67 86.05 106.38 86.04 C98.7 86.02 91.01 86.02 83.33 86.04 C79.41 86.05 75.5 86.06 71.58 86.04 C67.99 86.02 64.39 86.03 60.8 86.05 C58.9 86.06 57 86.04 55.1 86.02 C46.52 86.12 39.73 88.14 31.94 91.69 Z M177.94 152.69 C175.59 155.26 173.22 157.83 170.86 160.39 C169.14 162.44 168 164.25 166.94 166.69 C166.28 166.69 165.62 166.69 164.94 166.69 C163.43 168.13 163.43 168.13 161.88 170.06 C158.25 174.35 154.48 178.47 150.66 182.59 C148.73 184.49 148.73 184.49 148.94 186.69 C148.28 186.69 147.62 186.69 146.94 186.69 C145.5 188.28 144.13 189.94 142.81 191.62 C142.09 192.54 141.36 193.46 140.62 194.4 C138.84 196.35 138.84 196.35 138.94 197.69 C144.1 197.76 149.26 197.82 154.42 197.85 C156.17 197.87 157.92 197.89 159.68 197.91 C162.2 197.95 164.73 197.97 167.26 197.98 C168.04 198 168.81 198.01 169.62 198.03 C174.5 198.03 177.65 197.26 181.94 194.69 C183 194.08 184.07 193.48 185.16 192.86 C186.29 192.2 187.41 191.55 188.56 190.88 C192.94 188.34 197.33 185.95 201.88 183.75 C207.23 181.13 212.27 178.13 217.34 175.02 C222.28 172.02 227.34 169.38 232.55 166.88 C235.1 165.67 235.1 165.67 237.94 163.69 C238.38 161.56 238.38 161.56 238.25 159.12 C238.25 158.32 238.24 157.51 238.24 156.68 C237.97 154.03 237.51 151.6 236.92 149 C236.74 148.19 236.55 147.38 236.36 146.55 C236.22 145.94 236.08 145.32 235.94 144.69 C228.8 144.48 221.67 144.34 214.53 144.25 C212.11 144.21 209.68 144.15 207.26 144.08 C203.76 143.99 200.27 143.94 196.78 143.91 C195.16 143.84 195.16 143.84 193.51 143.78 C185.4 143.78 182.43 146.12 177.94 152.69 Z M258.94 144.69 C259.27 148.98 259.6 153.27 259.94 157.69 C264.42 157.79 268.9 157.86 273.39 157.91 C274.91 157.93 276.44 157.95 277.96 157.99 C280.16 158.04 282.35 158.06 284.55 158.08 C285.87 158.1 287.19 158.12 288.55 158.14 C291.99 157.96 291.99 157.96 294.37 155.85 C296.48 152.94 296.46 151.2 295.94 147.69 C294.95 145.87 294.95 145.87 292.94 144.69 C290.28 144.43 287.86 144.34 285.21 144.39 C284.08 144.4 284.08 144.4 282.93 144.41 C280.54 144.42 278.14 144.46 275.75 144.5 C274.13 144.52 272.5 144.53 270.88 144.54 C266.9 144.57 262.92 144.63 258.94 144.69 Z " fill="#000000" transform="translate(346.0625,336.3125)"/>
<path d="M0 0 C1.15 0.02 2.29 0.03 3.47 0.05 C23.13 0.92 43.22 9.43 59 21 C59 21.66 59 22.32 59 23 C59.72 23.25 60.44 23.5 61.19 23.75 C64.28 25.12 66.51 26.72 69 29 C69 29.66 69 30.32 69 31 C69.66 31 70.32 31 71 31 C71 31.66 71 32.32 71 33 C71.99 33.33 72.98 33.66 74 34 C74 34.66 74 35.32 74 36 C74.66 36 75.32 36 76 36 C76 36.66 76 37.32 76 38 C76.99 38.33 77.98 38.66 79 39 C80.87 41.28 82.61 43.54 84.31 45.94 C85.05 46.96 85.05 46.96 85.8 48 C91.71 56.3 96.51 64.41 100 74 C100.35 74.93 100.7 75.87 101.06 76.83 C111.83 105.8 110.3 136.76 98.12 165.04 C96.55 168.44 94.81 171.73 93 175 C92.33 176.33 91.66 177.66 91 179 C90.34 179 89.68 179 89 179 C88.75 179.7 88.5 180.4 88.25 181.12 C86.83 184.4 85.13 187.14 83 190 C82.34 190 81.68 190 81 190 C80.75 190.56 80.5 191.12 80.25 191.7 C75.7 200.07 67.57 206.47 60 212 C59.08 212.67 58.17 213.34 57.23 214.03 C33.8 230.39 4.38 237.75 -24 234 C-24.94 233.89 -25.87 233.78 -26.84 233.66 C-48.68 230.58 -71.82 220.14 -88 205 C-88 204.34 -88 203.68 -88 203 C-88.86 202.64 -88.86 202.64 -89.73 202.28 C-92.49 200.72 -94.17 198.88 -96.25 196.5 C-96.96 195.71 -97.66 194.91 -98.39 194.09 C-100 192 -100 192 -100 190 C-100.66 190 -101.32 190 -102 190 C-103.51 188.36 -103.51 188.36 -105.12 186.19 C-105.93 185.13 -105.93 185.13 -106.76 184.04 C-108 182 -108 182 -108 179 C-108.66 179 -109.32 179 -110 179 C-113.62 172.86 -116.51 166.68 -119 160 C-119.35 159.07 -119.7 158.13 -120.07 157.17 C-131.16 127.23 -128.77 96.54 -116.49 67.41 C-111.53 57.06 -104.86 46.41 -97 38 C-96.34 38 -95.68 38 -95 38 C-95 37.34 -95 36.68 -95 36 C-94.34 36 -93.68 36 -93 36 C-92.67 35.01 -92.34 34.02 -92 33 C-91.34 33 -90.68 33 -90 33 C-90 32.34 -90 31.68 -90 31 C-89.34 31 -88.68 31 -88 31 C-88 30.34 -88 29.68 -88 29 C-86.32 27.49 -86.32 27.49 -84.12 25.88 C-83.41 25.34 -82.69 24.8 -81.95 24.24 C-80 23 -80 23 -78 23 C-78 22.34 -78 21.68 -78 21 C-54.28 3.92 -28.5 -0.54 0 0 Z M-46 29 C-46.82 29.35 -47.63 29.71 -48.47 30.07 C-52.03 31.63 -55.54 33.24 -59 35 C-59 35.66 -59 36.32 -59 37 C-59.54 37.08 -60.07 37.16 -60.62 37.25 C-63.87 38.28 -66.29 39.97 -69 42 C-69 42.66 -69 43.32 -69 44 C-69.55 44.23 -70.11 44.47 -70.68 44.71 C-83.8 52.02 -94 69.32 -99 83 C-99.46 84.17 -99.93 85.35 -100.41 86.55 C-104.02 96.68 -104.48 106.73 -104.5 117.38 C-104.5 118.06 -104.51 118.74 -104.51 119.45 C-104.55 132.23 -102.23 143.36 -97 155 C-96.37 156.42 -96.37 156.42 -95.73 157.87 C-92.06 165.68 -87.38 172.28 -82 179 C-81.28 179.97 -81.28 179.97 -80.55 180.96 C-74.88 188.24 -66.08 194.63 -58 199 C-57.34 199 -56.68 199 -56 199 C-56 199.66 -56 200.32 -56 201 C-55.36 201.25 -54.72 201.51 -54.06 201.77 C-50.18 203.31 -46.31 204.86 -42.5 206.56 C-34.29 209.93 -26.74 211.51 -17.88 211.75 C-16.87 211.78 -15.87 211.82 -14.84 211.85 C1.27 212.3 14.35 210.57 29.24 204.18 C31.81 203.08 34.4 202.03 37 201 C37 200.34 37 199.68 37 199 C39.65 197.92 42.28 196.91 45 196 C45 195.34 45 194.68 45 194 C45.54 193.75 46.07 193.5 46.62 193.25 C49.58 191.69 52.3 189.97 55 188 C55 187.34 55 186.68 55 186 C55.66 186 56.32 186 57 186 C58.67 184.67 58.67 184.67 60 183 C60 182.34 60 181.68 60 181 C60.66 181 61.32 181 62 181 C69.21 171.79 75.51 161.81 80 151 C80.26 150.39 80.51 149.78 80.77 149.16 C88.54 129.71 88.16 102.23 80 83 C79.71 82.31 79.42 81.62 79.12 80.91 C72.93 66.62 63.78 54.23 52 44 C51.34 44 50.68 44 50 44 C50 43.34 50 42.68 50 42 C48.55 40.64 48.55 40.64 46.69 39.38 C46.07 38.93 45.46 38.48 44.82 38.02 C42.91 36.76 42.91 36.76 40 37 C40 36.34 40 35.68 40 35 C35.51 31.71 30.16 29.98 25 28 C24.36 27.73 23.72 27.46 23.07 27.18 C1.46 18.31 -24.89 19.49 -46 29 Z " fill="#000000" transform="translate(897,781)"/>
<path d="M0 0 C2.12 1.9 2.59 2.93 3.11 5.76 C3.31 12.99 3.31 12.99 1.21 16.46 C0.69 17.01 0.17 17.56 -0.38 18.12 C-1.03 18.12 -1.69 18.12 -2.38 18.12 C-2.62 18.7 -2.87 19.27 -3.12 19.87 C-4.57 22.48 -6.28 24.19 -8.44 26.25 C-11.29 28.9 -11.29 28.9 -13.38 32.12 C-14.03 32.12 -14.69 32.12 -15.38 32.12 C-15.63 32.71 -15.89 33.3 -16.15 33.9 C-17.48 36.32 -18.94 37.86 -20.94 39.75 C-23.52 42.17 -23.52 42.17 -25.38 45.12 C-26.03 45.12 -26.69 45.12 -27.38 45.12 C-27.7 46.12 -28.03 47.11 -28.38 48.12 C-29.03 48.12 -29.69 48.12 -30.38 48.12 C-30.6 48.66 -30.83 49.2 -31.06 49.75 C-32.83 52.95 -34.91 55.42 -37.38 58.12 C-38.03 58.12 -38.69 58.12 -39.38 58.12 C-39.38 58.79 -39.38 59.46 -39.38 60.15 C-39.4 67.12 -39.45 74.1 -39.53 81.07 C-39.55 83.67 -39.57 86.27 -39.57 88.87 C-39.58 92.62 -39.62 96.37 -39.67 100.12 C-39.66 101.27 -39.66 102.42 -39.66 103.61 C-39.82 112.52 -41.97 119.09 -47.75 125.94 C-56.99 133.64 -63.8 135.44 -75.89 135.46 C-77.71 135.47 -77.71 135.47 -79.57 135.48 C-82.13 135.49 -84.7 135.5 -87.26 135.5 C-91.16 135.5 -95.07 135.54 -98.97 135.57 C-101.47 135.58 -103.96 135.58 -106.46 135.59 C-107.62 135.6 -108.78 135.61 -109.97 135.63 C-119.02 135.58 -126.15 133.73 -132.94 127.5 C-133.6 126.91 -134.26 126.32 -134.94 125.71 C-136.38 124.12 -136.38 124.12 -136.38 122.12 C-137.04 122.12 -137.69 122.12 -138.38 122.12 C-140.82 117.81 -141.76 114.68 -141.81 109.73 C-141.83 108.48 -141.85 107.23 -141.87 105.94 C-141.87 104.59 -141.88 103.24 -141.88 101.89 C-141.89 100.49 -141.9 99.09 -141.91 97.68 C-141.93 94.75 -141.93 91.81 -141.93 88.88 C-141.93 85.14 -141.97 81.41 -142.02 77.67 C-142.06 74.77 -142.06 71.88 -142.06 68.98 C-142.06 67.6 -142.08 66.23 -142.1 64.85 C-142.24 55.83 -141.33 49.17 -135.38 42.12 C-132.84 39.86 -130.25 37.94 -127.38 36.12 C-126.38 35.47 -125.39 34.8 -124.38 34.12 C-117.78 32.68 -110.77 32.98 -104.06 32.99 C-103 32.99 -101.95 32.99 -100.86 32.99 C-98.64 32.99 -96.42 32.99 -94.2 32.99 C-90.82 33 -87.44 32.99 -84.06 32.99 C-81.89 32.99 -79.72 32.99 -77.56 32.99 C-76.56 32.99 -75.55 32.99 -74.52 32.99 C-59.22 33.04 -59.22 33.04 -54.5 36.19 C-51.7 38.3 -51.7 38.3 -49.38 38.12 C-49.13 37.55 -48.88 36.98 -48.63 36.38 C-47.18 33.77 -45.47 32.06 -43.31 30 C-40.46 27.35 -40.46 27.35 -38.38 24.12 C-37.72 24.12 -37.06 24.12 -36.38 24.12 C-36.11 23.49 -35.84 22.85 -35.56 22.19 C-34.38 20.12 -34.38 20.12 -31.38 19.12 C-30.32 17.28 -30.32 17.28 -29.38 15.12 C-27.88 12.88 -27.88 12.88 -26.38 11.12 C-25.72 11.12 -25.06 11.12 -24.38 11.12 C-24.38 10.47 -24.38 9.8 -24.38 9.12 C-22.76 7.41 -21.08 5.75 -19.38 4.12 C-18.14 2.79 -18.14 2.79 -16.88 1.44 C-11.22 -3.79 -6.62 -3.68 0 0 Z M-119.05 56.98 C-121.02 61.65 -120.95 65.95 -120.91 70.97 C-120.91 72.02 -120.91 73.07 -120.92 74.15 C-120.92 76.36 -120.91 78.58 -120.9 80.79 C-120.88 84.18 -120.9 87.57 -120.92 90.96 C-120.92 93.11 -120.91 95.26 -120.91 97.41 C-120.91 98.42 -120.92 99.44 -120.93 100.48 C-120.88 104.36 -120.8 107.27 -119.04 110.76 C-114.59 113.04 -110.07 112.67 -105.15 112.62 C-104.06 112.62 -102.96 112.62 -101.83 112.63 C-99.51 112.62 -97.19 112.61 -94.88 112.59 C-91.32 112.56 -87.77 112.57 -84.22 112.58 C-81.97 112.58 -79.72 112.57 -77.46 112.56 C-75.87 112.56 -75.87 112.56 -74.24 112.57 C-73.25 112.55 -72.26 112.54 -71.24 112.53 C-70.37 112.52 -69.5 112.52 -68.61 112.51 C-65.86 112.04 -64.99 111.37 -63.38 109.12 C-61.28 97.39 -61.28 97.39 -63.38 86.12 C-64.03 86.12 -64.69 86.12 -65.38 86.12 C-65.38 86.78 -65.38 87.44 -65.38 88.12 C-66.03 88.12 -66.69 88.12 -67.38 88.12 C-68.96 89.61 -68.96 89.61 -70.5 91.5 C-71.04 92.13 -71.58 92.75 -72.13 93.4 C-73.57 95.04 -73.57 95.04 -73.38 97.12 C-74.03 97.12 -74.69 97.12 -75.38 97.12 C-77.01 98.78 -77.01 98.78 -78.69 100.88 C-85.48 108.76 -85.48 108.76 -89.32 109.5 C-92.97 109.72 -94.93 109.5 -97.75 107.12 C-98.29 106.47 -98.82 105.81 -99.38 105.12 C-100.03 105.12 -100.69 105.12 -101.38 105.12 C-101.47 104.6 -101.57 104.08 -101.68 103.54 C-102.61 100.33 -104.06 97.54 -105.56 94.56 C-105.87 93.94 -106.18 93.33 -106.5 92.69 C-108.46 88.8 -110.59 85.06 -112.81 81.31 C-115.41 76.58 -116.8 72.48 -115.38 67.12 C-112.97 63.74 -111.41 62.43 -107.44 61.25 C-104.16 61.12 -101.53 61.19 -98.38 62.12 C-97.4 63.79 -97.4 63.79 -96.38 66.12 C-95.63 67.62 -95.63 67.62 -94.87 69.14 C-93.37 72.14 -91.87 75.13 -90.38 78.12 C-89.06 78.12 -87.74 78.12 -86.38 78.12 C-86.38 77.47 -86.38 76.81 -86.38 76.12 C-85.72 76.12 -85.06 76.12 -84.38 76.12 C-82.94 74.75 -82.94 74.75 -81.44 72.88 C-77.72 68.49 -73.85 64.27 -69.93 60.08 C-67.47 57.92 -67.47 57.92 -66.38 55.12 C-73.42 55 -80.47 54.91 -87.52 54.85 C-89.92 54.83 -92.31 54.79 -94.71 54.75 C-98.16 54.69 -101.6 54.66 -105.05 54.64 C-106.12 54.61 -107.19 54.59 -108.3 54.56 C-114.03 54.51 -114.03 54.51 -119.05 56.98 Z " fill="#000000" transform="translate(483.375,587.875)"/>
<path d="M0 0 C1.21 -0 2.42 -0.01 3.66 -0.01 C6.21 -0.01 8.75 -0.01 11.3 0.01 C15.18 0.03 19.05 0.01 22.93 -0.02 C25.41 -0.01 27.89 -0.01 30.38 0 C31.53 -0.01 32.68 -0.02 33.86 -0.02 C40.88 0.06 46.05 1.11 52.19 4.53 C53.24 5.09 54.29 5.64 55.38 6.22 C60.98 10.83 65.72 17.91 66.46 25.26 C66.47 26.25 66.48 27.23 66.49 28.25 C66.51 29.37 66.53 30.5 66.54 31.66 C66.55 32.87 66.55 34.08 66.56 35.32 C66.57 36.57 66.58 37.83 66.59 39.12 C66.6 41.78 66.61 44.43 66.61 47.08 C66.62 49.79 66.64 52.49 66.67 55.2 C66.72 59.11 66.74 63.03 66.75 66.95 C66.77 68.14 66.79 69.34 66.81 70.57 C66.76 78.63 65.11 84.49 61.19 91.53 C60.53 91.53 59.87 91.53 59.19 91.53 C58.96 92.11 58.73 92.69 58.5 93.28 C56.14 97.33 52.41 99.67 48.19 101.53 C41.65 102.88 34.81 102.69 28.16 102.7 C27.13 102.7 26.1 102.71 25.04 102.71 C22.88 102.71 20.71 102.72 18.55 102.72 C15.26 102.72 11.98 102.74 8.69 102.76 C6.58 102.76 4.46 102.76 2.35 102.76 C1.38 102.77 0.41 102.78 -0.59 102.78 C-11 102.75 -19.76 101.52 -27.81 94.53 C-32.55 89.19 -35.05 84.46 -35.12 77.33 C-35.13 76.07 -35.15 74.82 -35.17 73.53 C-35.17 72.16 -35.18 70.79 -35.18 69.42 C-35.19 68.01 -35.2 66.6 -35.21 65.19 C-35.23 62.24 -35.24 59.28 -35.24 56.33 C-35.24 52.55 -35.28 48.79 -35.33 45.01 C-35.36 42.1 -35.36 39.19 -35.36 36.27 C-35.37 34.89 -35.38 33.5 -35.4 32.11 C-35.54 22.27 -34.37 16.69 -27.89 9.36 C-27.29 8.84 -26.68 8.32 -26.06 7.78 C-25.47 7.25 -24.88 6.72 -24.27 6.17 C-16.35 0.88 -9.43 -0.07 0 0 Z M-12.48 24.89 C-14.65 29.2 -14.38 33.48 -14.34 38.25 C-14.35 39.82 -14.35 39.82 -14.36 41.42 C-14.36 43.64 -14.35 45.85 -14.33 48.07 C-14.31 51.45 -14.33 54.84 -14.36 58.22 C-14.36 60.38 -14.35 62.53 -14.34 64.68 C-14.35 65.7 -14.36 66.71 -14.37 67.75 C-14.31 71.83 -14.08 74.89 -12.48 78.67 C-8.14 81.69 -3.75 81.2 1.41 81.12 C2.51 81.13 3.6 81.13 4.73 81.13 C7.05 81.12 9.37 81.1 11.69 81.07 C15.24 81.03 18.79 81.03 22.35 81.04 C24.6 81.03 26.85 81.02 29.1 81 C30.16 81 31.23 81 32.33 81 C33.31 80.98 34.3 80.97 35.32 80.95 C36.19 80.94 37.06 80.93 37.96 80.93 C40.66 80.45 41.53 79.68 43.19 77.53 C44.72 72.83 44.35 67.7 44.36 62.81 C44.36 61.88 44.36 60.94 44.37 59.98 C44.37 58 44.37 56.03 44.37 54.06 C44.37 51.04 44.39 48.03 44.41 45.01 C44.42 43.09 44.42 41.17 44.42 39.25 C44.43 38.35 44.43 37.45 44.44 36.53 C44.42 30.3 44.42 30.3 42.19 24.53 C39.75 23.31 38.15 23.38 35.43 23.35 C33.95 23.33 33.95 23.33 32.44 23.32 C31.37 23.31 30.3 23.3 29.2 23.29 C28.1 23.28 27 23.28 25.87 23.27 C23.54 23.25 21.22 23.24 18.89 23.24 C15.33 23.22 11.77 23.17 8.21 23.13 C5.96 23.12 3.7 23.11 1.45 23.11 C0.38 23.09 -0.69 23.07 -1.79 23.05 C-7.34 23.06 -7.34 23.06 -12.48 24.89 Z " fill="#000000" transform="translate(376.8125,906.46875)"/>
<path d="M0 0 C1.21 -0.01 2.42 -0.01 3.66 -0.02 C6.21 -0.02 8.75 -0.02 11.3 -0.01 C15.18 -0 19.05 -0.03 22.93 -0.06 C25.41 -0.07 27.89 -0.07 30.38 -0.06 C31.52 -0.07 32.67 -0.08 33.85 -0.1 C42.43 -0.02 49.15 1.66 56.32 6.43 C56.32 7.09 56.32 7.75 56.32 8.43 C57.31 8.76 58.3 9.09 59.32 9.43 C59.32 10.09 59.32 10.75 59.32 11.43 C59.98 11.43 60.64 11.43 61.32 11.43 C65.88 19.68 67.06 26.46 66.98 35.81 C66.99 37.05 66.99 38.3 67 39.58 C67 42.2 66.99 44.82 66.97 47.44 C66.95 51.42 66.97 55.4 67 59.39 C67 61.94 66.99 64.5 66.98 67.06 C67 68.82 67 68.82 67.02 70.63 C66.9 78.6 65.18 84.45 61.32 91.43 C60.66 91.43 60 91.43 59.32 91.43 C58.83 92.92 58.83 92.92 58.32 94.43 C57.66 94.43 57 94.43 56.32 94.43 C56.32 95.09 56.32 95.75 56.32 96.43 C54.72 97.25 53.11 98.06 51.51 98.87 C50.61 99.32 49.72 99.78 48.8 100.24 C45.01 102.06 42.14 102.57 37.98 102.61 C36.89 102.62 35.8 102.64 34.67 102.65 C32.9 102.66 32.9 102.66 31.09 102.67 C29.88 102.68 28.66 102.69 27.4 102.7 C24.82 102.71 22.24 102.72 19.66 102.73 C15.73 102.75 11.8 102.79 7.87 102.83 C5.36 102.84 2.85 102.85 0.34 102.86 C-0.83 102.88 -1.99 102.89 -3.2 102.91 C-10.28 102.89 -15.5 101.94 -21.68 98.43 C-23.38 97.47 -23.38 97.47 -25.12 96.5 C-27.88 94.27 -28.74 92.81 -29.68 89.43 C-30.34 89.43 -31 89.43 -31.68 89.43 C-34.13 85.11 -35.06 81.98 -35.1 77.02 C-35.12 75.77 -35.13 74.52 -35.15 73.23 C-35.15 71.87 -35.15 70.52 -35.15 69.16 C-35.16 67.76 -35.16 66.35 -35.17 64.95 C-35.18 62.01 -35.19 59.07 -35.18 56.13 C-35.17 52.39 -35.21 48.64 -35.25 44.9 C-35.27 41.99 -35.27 39.09 -35.27 36.19 C-35.27 34.81 -35.28 33.43 -35.3 32.05 C-35.4 23.57 -34.81 17.38 -29.68 10.43 C-29.02 10.43 -28.36 10.43 -27.68 10.43 C-27.68 9.77 -27.68 9.11 -27.68 8.43 C-18.87 1.28 -11.13 -0.03 0 0 Z M-11.82 24.29 C-14.56 28.91 -14.4 32.97 -14.34 38.25 C-14.35 39.29 -14.35 40.34 -14.36 41.42 C-14.36 43.63 -14.35 45.84 -14.33 48.04 C-14.3 51.42 -14.33 54.8 -14.36 58.18 C-14.36 60.32 -14.35 62.47 -14.34 64.62 C-14.35 65.63 -14.36 66.64 -14.37 67.68 C-14.3 72.07 -14.09 74.74 -11.82 78.57 C-7.19 81.32 -3.12 81.11 2.17 81.03 C3.74 81.03 3.74 81.03 5.35 81.03 C7.56 81.02 9.77 81 11.99 80.98 C15.37 80.93 18.76 80.93 22.15 80.94 C24.3 80.93 26.45 80.92 28.61 80.9 C29.62 80.9 30.63 80.9 31.68 80.9 C32.62 80.89 33.57 80.87 34.54 80.85 C35.78 80.84 35.78 80.84 37.05 80.83 C39.85 80.34 41.24 79.34 43.32 77.43 C44.92 72.9 44.48 67.73 44.49 62.97 C44.49 62.06 44.49 61.15 44.5 60.21 C44.5 58.29 44.51 56.36 44.51 54.44 C44.51 51.51 44.53 48.58 44.54 45.65 C44.55 43.77 44.55 41.9 44.55 40.03 C44.56 39.16 44.57 38.29 44.57 37.39 C44.56 32.71 44.33 28.76 42.32 24.43 C39.14 22.32 38.3 22.17 34.65 22.13 C33.71 22.11 32.76 22.1 31.79 22.08 C30.77 22.07 29.75 22.07 28.7 22.06 C27.65 22.05 26.6 22.04 25.52 22.04 C23.3 22.02 21.08 22.01 18.86 22.01 C15.47 22 12.07 21.95 8.68 21.9 C6.52 21.89 4.36 21.88 2.2 21.88 C0.68 21.85 0.68 21.85 -0.87 21.82 C-5.29 21.84 -7.96 22.01 -11.82 24.29 Z " fill="#000000" transform="translate(376.6796875,763.56640625)"/>
<path d="M0 0 C1.45 -0.01 1.45 -0.01 2.92 -0.01 C3.98 -0.01 5.05 -0.01 6.14 -0.01 C7.83 -0.01 7.83 -0.01 9.55 -0.02 C13.35 -0.03 17.14 -0.03 20.93 -0.03 C23.64 -0.03 26.35 -0.04 29.07 -0.04 C36.45 -0.06 43.83 -0.06 51.21 -0.07 C55.81 -0.07 60.42 -0.08 65.03 -0.08 C77.78 -0.09 90.53 -0.1 103.28 -0.11 C104.1 -0.11 104.91 -0.11 105.75 -0.11 C106.98 -0.11 106.98 -0.11 108.23 -0.11 C109.89 -0.11 111.55 -0.11 113.21 -0.11 C114.03 -0.11 114.85 -0.11 115.7 -0.11 C129.03 -0.11 142.36 -0.13 155.69 -0.15 C169.37 -0.18 183.05 -0.19 196.73 -0.19 C204.42 -0.19 212.1 -0.2 219.78 -0.22 C226.33 -0.23 232.87 -0.24 239.41 -0.23 C242.75 -0.22 246.08 -0.23 249.42 -0.24 C253.04 -0.25 256.66 -0.25 260.28 -0.24 C261.33 -0.24 262.39 -0.25 263.48 -0.26 C269.78 -0.22 273.48 0.38 278.15 4.88 C279.86 8.13 279.72 10.51 279.33 14.13 C277.51 18.37 275.52 20.25 271.33 22.13 C267.64 22.58 263.96 22.54 260.24 22.51 C258.55 22.52 258.55 22.52 256.81 22.53 C253.01 22.54 249.21 22.53 245.4 22.52 C242.68 22.52 239.96 22.53 237.23 22.54 C230.6 22.55 223.97 22.55 217.33 22.54 C211.94 22.53 206.55 22.53 201.16 22.53 C200.01 22.53 200.01 22.53 198.84 22.53 C197.28 22.54 195.72 22.54 194.16 22.54 C179.55 22.55 164.94 22.54 150.33 22.52 C137.79 22.51 125.25 22.51 112.71 22.52 C98.15 22.54 83.59 22.54 69.03 22.54 C67.48 22.53 65.93 22.53 64.37 22.53 C63.61 22.53 62.85 22.53 62.06 22.53 C56.67 22.53 51.29 22.53 45.9 22.54 C39.34 22.55 32.78 22.55 26.22 22.53 C22.87 22.52 19.53 22.52 16.18 22.53 C12.55 22.54 8.92 22.53 5.3 22.51 C3.7 22.52 3.7 22.52 2.08 22.53 C1.11 22.52 0.14 22.52 -0.86 22.51 C-1.7 22.51 -2.54 22.51 -3.4 22.51 C-6.2 22.04 -7.61 21.07 -9.67 19.13 C-9.67 18.47 -9.67 17.81 -9.67 17.13 C-10.33 17.13 -10.99 17.13 -11.67 17.13 C-13.28 13.9 -13.26 10.62 -12.67 7.13 C-9.64 1.68 -6.05 0.01 0 0 Z " fill="#000000" transform="translate(501.66557121276855,660.8685722351074)"/>
<path d="M0 0 C4.08 1.78 6.52 4.28 9 8 C10.13 13.81 10.82 19.62 8 25 C3.92 29.87 -0.12 32.69 -6.5 33.38 C-12.88 32.69 -16.92 29.87 -21 25 C-23.81 19.63 -23.38 13.77 -22 8 C-19.69 5 -19.69 5 -17 3 C-16.41 2.47 -15.83 1.95 -15.23 1.41 C-10.72 -1.44 -5.11 -0.68 0 0 Z M-8 13 C-8.33 14.65 -8.66 16.3 -9 18 C-7.68 18.33 -6.36 18.66 -5 19 C-4.67 17.35 -4.34 15.7 -4 14 C-5.32 13.67 -6.64 13.34 -8 13 Z " fill="#000000" transform="translate(894,882)"/>
</svg>
