<?xml version="1.0" encoding="UTF-8"?>
<!-- Generator: visioncortex VTracer 0.6.3 -->
<svg version="1.1" xmlns="http://www.w3.org/2000/svg" width="1280" height="1280">
<path d="M0 0 C1.93 -0 3.86 -0.01 5.79 -0.01 C11.08 -0.02 16.37 -0.02 21.65 -0.01 C27.41 -0 33.17 -0.01 38.93 -0.02 C49.02 -0.03 59.11 -0.03 69.2 -0.02 C80.02 -0.01 90.84 -0.01 101.66 -0.02 C102.69 -0.02 102.69 -0.02 103.73 -0.02 C106.52 -0.02 109.31 -0.02 112.1 -0.02 C138.04 -0.04 163.99 -0.04 189.93 -0.03 C190.7 -0.03 191.47 -0.03 192.26 -0.03 C193.41 -0.03 193.41 -0.03 194.59 -0.03 C218.04 -0.02 241.49 -0.02 264.93 -0.02 C266.5 -0.02 268.08 -0.02 269.65 -0.02 C275.96 -0.03 282.27 -0.03 288.58 -0.03 C306.23 -0.03 323.87 -0.03 341.52 -0.03 C342.72 -0.03 342.72 -0.03 343.95 -0.03 C369.55 -0.03 395.15 -0.03 420.75 -0.02 C422 -0.02 422 -0.02 423.27 -0.02 C436.75 -0.02 450.23 -0.02 463.71 -0.01 C517.18 0 570.64 0 624.11 -0.01 C637.58 -0.02 651.06 -0.02 664.53 -0.02 C665.36 -0.02 666.19 -0.02 667.05 -0.02 C692.62 -0.03 718.19 -0.03 743.77 -0.03 C744.57 -0.03 745.37 -0.03 746.2 -0.03 C763.82 -0.03 781.45 -0.03 799.08 -0.03 C805.38 -0.03 811.69 -0.03 818 -0.02 C819.56 -0.02 821.13 -0.02 822.7 -0.02 C846.14 -0.02 869.59 -0.02 893.03 -0.03 C894.18 -0.03 894.18 -0.03 895.35 -0.03 C896.12 -0.03 896.89 -0.03 897.68 -0.03 C923.55 -0.04 949.42 -0.04 975.29 -0.02 C978.07 -0.02 980.85 -0.02 983.62 -0.02 C984.65 -0.02 984.65 -0.02 985.69 -0.02 C997.14 -0.01 1008.58 -0.01 1020.03 -0.02 C1029.99 -0.03 1039.95 -0.03 1049.91 -0.01 C1055.58 -0.01 1061.26 -0 1066.94 -0.01 C1072.1 -0.02 1077.27 -0.02 1082.44 -0 C1084.29 -0 1086.15 -0 1088 -0.01 C1102.31 -0.07 1115.64 0.81 1128.64 7.38 C1129.78 7.83 1130.91 8.29 1132.08 8.75 C1137.92 11.41 1143.31 14.82 1148.64 18.38 C1148.64 19.04 1148.64 19.7 1148.64 20.38 C1149.22 20.64 1149.79 20.9 1150.39 21.17 C1152.8 22.46 1154.65 23.94 1156.7 25.75 C1157.71 26.63 1157.71 26.63 1158.74 27.53 C1160.63 29.37 1162.19 31.17 1163.64 33.38 C1163.64 34.04 1163.64 34.7 1163.64 35.38 C1164.3 35.38 1164.96 35.38 1165.64 35.38 C1170.99 42.8 1175.15 50.94 1178.64 59.38 C1178.97 60.12 1179.31 60.86 1179.65 61.63 C1182.75 70.23 1182.93 78.34 1182.89 87.4 C1182.89 88.82 1182.9 90.24 1182.9 91.66 C1182.91 95.56 1182.9 99.46 1182.89 103.37 C1182.89 107.61 1182.89 111.86 1182.9 116.1 C1182.9 123.54 1182.9 130.99 1182.89 138.43 C1182.88 149.49 1182.89 160.55 1182.89 171.62 C1182.9 190.23 1182.89 208.84 1182.88 227.46 C1182.88 245.89 1182.87 264.32 1182.87 282.75 C1182.87 283.89 1182.87 285.04 1182.87 286.22 C1182.87 290.87 1182.87 295.52 1182.87 300.17 C1182.87 343.8 1182.86 387.44 1182.85 431.07 C1182.83 469.87 1182.83 508.67 1182.83 547.46 C1182.83 549.96 1182.83 552.45 1182.83 554.94 C1182.83 556.17 1182.83 557.4 1182.83 558.67 C1182.83 564.88 1182.83 571.08 1182.83 577.28 C1182.83 578.5 1182.83 579.73 1182.83 580.99 C1182.83 613.38 1182.82 645.77 1182.82 678.16 C1182.82 679.31 1182.82 680.46 1182.82 681.65 C1182.82 686.28 1182.82 690.91 1182.81 695.54 C1182.81 711.68 1182.81 727.81 1182.81 743.95 C1182.81 764.73 1182.8 785.52 1182.79 806.3 C1182.79 817.3 1182.79 828.31 1182.79 839.31 C1182.79 846.64 1182.79 853.98 1182.78 861.31 C1182.78 865.5 1182.78 869.69 1182.78 873.88 C1182.78 877.68 1182.78 881.48 1182.77 885.28 C1182.77 886.66 1182.77 888.03 1182.77 889.41 C1182.78 891.26 1182.77 893.11 1182.77 894.96 C1182.77 895.99 1182.77 897.02 1182.77 898.08 C1182.64 900.38 1182.64 900.38 1181.64 901.38 C1181.37 902.66 1181.11 903.94 1180.83 905.25 C1177.61 920.02 1170.34 931.93 1160.64 943.38 C1159.86 944.36 1159.07 945.35 1158.26 946.36 C1147.78 958.43 1131.47 966.92 1116.14 970.94 C1115.22 971.19 1114.31 971.44 1113.36 971.69 C1101.49 973.88 1089.33 973.52 1077.31 973.5 C1075.37 973.5 1073.43 973.5 1071.49 973.5 C1066.18 973.5 1060.87 973.5 1055.57 973.49 C1049.83 973.49 1044.1 973.49 1038.37 973.49 C1028.44 973.49 1018.52 973.49 1008.6 973.48 C994.25 973.48 979.9 973.47 965.55 973.47 C942.27 973.47 918.99 973.46 895.71 973.45 C873.1 973.44 850.49 973.44 827.88 973.43 C827.18 973.43 826.48 973.43 825.77 973.43 C818.76 973.43 811.76 973.43 804.75 973.43 C746.05 973.42 687.35 973.4 628.64 973.38 C628.97 996.81 629.3 1020.24 629.64 1044.38 C636.12 1044.39 642.61 1044.4 649.28 1044.41 C670.67 1044.44 692.05 1044.49 713.43 1044.56 C726.4 1044.6 739.36 1044.63 752.33 1044.65 C763.63 1044.66 774.93 1044.69 786.24 1044.73 C792.22 1044.75 798.21 1044.77 804.19 1044.77 C809.82 1044.77 815.46 1044.79 821.09 1044.82 C823.16 1044.83 825.22 1044.83 827.29 1044.82 C830.11 1044.82 832.94 1044.83 835.76 1044.86 C836.58 1044.85 837.4 1044.84 838.24 1044.84 C843.59 1044.92 846.54 1045.87 850.64 1049.38 C850.64 1050.04 850.64 1050.7 850.64 1051.38 C851.3 1051.38 851.96 1051.38 852.64 1051.38 C853.06 1052.17 853.06 1052.17 853.48 1052.98 C854.76 1055.42 856.05 1057.87 857.33 1060.32 C857.76 1061.15 858.2 1061.98 858.65 1062.83 C862.79 1070.72 867.11 1078.49 871.58 1086.19 C874.66 1091.54 877.5 1096.98 880.22 1102.52 C883.44 1108.99 887 1115.27 890.61 1121.53 C890.95 1122.12 891.29 1122.71 891.64 1123.32 C891.98 1123.9 892.32 1124.49 892.67 1125.09 C895.45 1129.95 897.97 1134.91 900.42 1139.95 C901.66 1142.54 901.66 1142.54 903.64 1145.38 C903.64 1146.37 903.64 1147.36 903.64 1148.38 C904.3 1148.38 904.96 1148.38 905.64 1148.38 C906.26 1149.65 906.26 1149.65 906.89 1150.95 C909.72 1156.69 912.57 1162.36 915.85 1167.86 C924.32 1182.15 924.32 1182.15 923.25 1188.85 C921.69 1193.98 919.82 1197.91 915.3 1200.96 C909.99 1203.02 905.04 1202.79 899.4 1202.76 C898.14 1202.76 896.89 1202.76 895.6 1202.77 C892.12 1202.78 888.64 1202.77 885.16 1202.76 C881.38 1202.76 877.59 1202.77 873.81 1202.77 C867.17 1202.78 860.54 1202.78 853.9 1202.78 C844.04 1202.76 834.17 1202.77 824.31 1202.78 C806.69 1202.79 789.07 1202.79 771.45 1202.78 C756.03 1202.78 740.61 1202.78 725.2 1202.78 C724.17 1202.78 723.15 1202.78 722.1 1202.78 C717.95 1202.78 713.8 1202.78 709.66 1202.78 C670.73 1202.79 631.8 1202.78 592.88 1202.77 C558.28 1202.75 523.67 1202.75 489.07 1202.77 C450.22 1202.78 411.36 1202.79 372.51 1202.78 C368.37 1202.78 364.23 1202.78 360.09 1202.78 C359.07 1202.78 358.05 1202.78 357 1202.78 C341.59 1202.77 326.18 1202.78 310.77 1202.79 C293.25 1202.79 275.73 1202.79 258.21 1202.78 C248.4 1202.77 238.59 1202.77 228.78 1202.78 C222.24 1202.79 215.69 1202.78 209.14 1202.77 C205.41 1202.76 201.67 1202.76 197.94 1202.77 C193.92 1202.78 189.91 1202.77 185.89 1202.76 C184.72 1202.76 183.56 1202.77 182.35 1202.78 C175.9 1202.73 170.77 1202.52 165.96 1197.69 C162.51 1192.29 161.46 1187.72 162.64 1181.38 C163.93 1177.8 165.72 1174.64 167.64 1171.38 C168.65 1169.63 169.65 1167.89 170.65 1166.14 C171.35 1164.93 172.05 1163.72 172.75 1162.51 C175.4 1157.91 177.62 1153.28 179.64 1148.38 C180.3 1148.38 180.96 1148.38 181.64 1148.38 C181.81 1147.28 181.81 1147.28 181.97 1146.16 C182.68 1143.21 183.69 1141.35 185.33 1138.82 C187.65 1135.08 189.72 1131.33 191.64 1127.38 C193.47 1123.64 195.39 1120.04 197.58 1116.5 C200.36 1111.99 202.71 1107.31 205.03 1102.56 C207.24 1098.09 209.7 1093.84 212.32 1089.59 C213.49 1087.63 214.53 1085.68 215.52 1083.63 C217.32 1079.9 219.38 1076.33 221.45 1072.75 C225.5 1065.78 229.12 1058.63 232.64 1051.38 C233.3 1051.38 233.96 1051.38 234.64 1051.38 C234.97 1050.39 235.3 1049.4 235.64 1048.38 C239.88 1044.88 244.15 1044.95 249.41 1044.98 C250.29 1044.97 251.17 1044.97 252.08 1044.96 C255.03 1044.94 257.99 1044.94 260.95 1044.95 C263.07 1044.94 265.18 1044.93 267.3 1044.91 C273.06 1044.89 278.81 1044.88 284.56 1044.87 C290.58 1044.86 296.59 1044.84 302.6 1044.81 C313.99 1044.77 325.37 1044.74 336.76 1044.72 C349.72 1044.69 362.68 1044.65 375.65 1044.6 C402.31 1044.51 428.98 1044.44 455.64 1044.38 C455.97 1020.95 456.3 997.52 456.64 973.38 C447.91 973.38 447.91 973.38 439 973.39 C385.56 973.43 332.13 973.46 278.7 973.48 C271.69 973.48 264.69 973.48 257.68 973.49 C256.63 973.49 256.63 973.49 255.57 973.49 C232.99 973.5 210.42 973.51 187.85 973.53 C163.98 973.55 140.11 973.56 116.24 973.57 C101.95 973.57 87.67 973.58 73.38 973.59 C63.57 973.6 53.76 973.61 43.96 973.6 C38.31 973.6 32.65 973.61 27 973.62 C21.81 973.63 16.63 973.63 11.44 973.62 C9.58 973.62 7.71 973.62 5.85 973.63 C-25.6 973.73 -25.6 973.73 -38.36 968.38 C-39.12 968.11 -39.87 967.85 -40.65 967.58 C-61.67 959.98 -79.17 943.64 -89.26 923.8 C-92.73 916.38 -95.24 909.51 -96.36 901.38 C-96.69 901.05 -97.02 900.72 -97.36 900.38 C-97.46 898.57 -97.48 896.77 -97.48 894.96 C-97.49 893.78 -97.49 892.59 -97.49 891.37 C-97.49 890.03 -97.49 888.7 -97.49 887.36 C-97.49 885.96 -97.49 884.55 -97.49 883.14 C-97.5 879.23 -97.49 875.32 -97.49 871.42 C-97.49 867.18 -97.49 862.94 -97.5 858.7 C-97.5 851.27 -97.5 843.83 -97.5 836.39 C-97.5 825.33 -97.51 814.27 -97.51 803.21 C-97.52 782.3 -97.52 761.4 -97.52 740.5 C-97.53 724.36 -97.53 708.22 -97.53 692.08 C-97.53 687.44 -97.53 682.8 -97.53 678.16 C-97.53 677.01 -97.53 675.85 -97.53 674.66 C-97.54 642.2 -97.54 609.74 -97.54 577.28 C-97.54 576.05 -97.54 574.83 -97.54 573.57 C-97.54 567.36 -97.54 561.15 -97.54 554.94 C-97.54 553.71 -97.54 552.47 -97.54 551.2 C-97.54 548.71 -97.54 546.22 -97.54 543.72 C-97.54 504.93 -97.55 466.13 -97.56 427.33 C-97.58 383.78 -97.59 340.23 -97.59 296.67 C-97.59 292.03 -97.59 287.39 -97.59 282.75 C-97.59 281.6 -97.59 280.46 -97.59 279.28 C-97.59 260.87 -97.59 242.45 -97.6 224.03 C-97.61 205.53 -97.61 187.02 -97.6 168.52 C-97.6 157.52 -97.6 146.52 -97.61 135.52 C-97.62 128.17 -97.62 120.83 -97.61 113.48 C-97.61 109.3 -97.61 105.11 -97.61 100.92 C-97.62 97.11 -97.62 93.3 -97.61 89.49 C-97.61 87.48 -97.61 85.46 -97.62 83.45 C-97.55 65.25 -90.29 50.27 -80.36 35.38 C-79.7 35.38 -79.04 35.38 -78.36 35.38 C-78.1 34.8 -77.84 34.23 -77.57 33.63 C-76.27 31.22 -74.8 29.37 -72.98 27.32 C-72.4 26.64 -71.81 25.97 -71.21 25.28 C-69.37 23.39 -67.56 21.83 -65.36 20.38 C-64.7 20.38 -64.04 20.38 -63.36 20.38 C-63.36 19.72 -63.36 19.06 -63.36 18.38 C-55.93 13.03 -47.8 8.87 -39.36 5.38 C-38.62 5.06 -37.88 4.74 -37.12 4.41 C-25.12 -0.09 -12.62 -0.05 0 0 Z M-51.36 51.38 C-51.69 52.37 -52.02 53.36 -52.36 54.38 C-53.02 54.38 -53.68 54.38 -54.36 54.38 C-63.72 68.11 -66.69 81.05 -66.6 97.44 C-66.61 98.6 -66.61 99.76 -66.61 100.95 C-66.62 104.15 -66.61 107.34 -66.6 110.54 C-66.6 114.01 -66.6 117.49 -66.6 120.96 C-66.61 127.05 -66.6 133.14 -66.6 139.23 C-66.58 148.4 -66.58 157.57 -66.59 166.74 C-66.59 182.12 -66.58 197.49 -66.57 212.86 C-66.55 233.64 -66.55 254.43 -66.55 275.21 C-66.54 325.19 -66.51 375.16 -66.48 425.13 C-66.44 536.75 -66.4 648.37 -66.36 763.38 C335.58 763.38 737.52 763.38 1151.64 763.38 C1151.68 651.76 1151.72 540.13 1151.77 425.13 C1151.79 389.84 1151.8 354.55 1151.82 318.2 C1151.83 286.65 1151.83 286.65 1151.83 255.11 C1151.84 240.1 1151.84 225.09 1151.86 210.07 C1151.87 194.77 1151.87 179.46 1151.87 164.15 C1151.87 155.05 1151.87 145.95 1151.88 136.85 C1151.89 130.84 1151.89 124.82 1151.89 118.81 C1151.88 115.39 1151.88 111.97 1151.89 108.54 C1151.9 104.84 1151.9 101.14 1151.89 97.44 C1151.9 95.86 1151.9 95.86 1151.9 94.24 C1151.86 83.74 1150.73 74.1 1145.64 64.82 C1145.29 64.13 1144.93 63.45 1144.56 62.74 C1143.05 59.85 1141.45 57.1 1139.64 54.38 C1138.98 54.38 1138.32 54.38 1137.64 54.38 C1137.27 53.51 1137.27 53.51 1136.89 52.63 C1135.46 50.05 1133.86 48.32 1131.64 46.38 C1130.98 46.38 1130.32 46.38 1129.64 46.38 C1129.64 45.72 1129.64 45.06 1129.64 44.38 C1114.14 33.81 1100.32 32.08 1082.02 32.12 C1080.11 32.12 1078.19 32.12 1076.28 32.11 C1071.02 32.1 1065.76 32.11 1060.5 32.11 C1054.78 32.12 1049.06 32.11 1043.34 32.11 C1033.32 32.1 1023.29 32.1 1013.26 32.1 C1002.5 32.1 991.74 32.1 980.99 32.1 C980.31 32.1 979.63 32.1 978.93 32.1 C976.16 32.09 973.39 32.09 970.62 32.09 C942.52 32.08 914.42 32.07 886.32 32.07 C882.44 32.08 878.55 32.08 874.67 32.08 C873.9 32.08 873.13 32.08 872.33 32.08 C855.24 32.08 838.15 32.07 821.06 32.07 C817.16 32.07 813.26 32.07 809.35 32.07 C807.79 32.07 806.22 32.07 804.66 32.07 C803.88 32.07 803.1 32.07 802.3 32.07 C800.73 32.07 799.16 32.07 797.59 32.07 C753.03 32.06 708.48 32.05 663.92 32.06 C662.68 32.06 662.68 32.06 661.42 32.06 C652.22 32.06 643.02 32.06 633.82 32.06 C632.98 32.06 632.15 32.06 631.3 32.06 C626.26 32.06 626.26 32.06 621.22 32.06 C568.08 32.07 514.94 32.06 461.8 32.04 C448.41 32.04 435.02 32.03 421.63 32.03 C420.81 32.03 419.99 32.03 419.14 32.03 C393.73 32.02 368.32 32.01 342.91 32.01 C341.71 32.01 341.71 32.01 340.49 32.01 C322.98 32.01 305.47 32.01 287.96 32.01 C281.7 32.01 275.43 32.01 269.17 32.01 C267.61 32.01 266.05 32.02 264.49 32.02 C239.65 32.02 214.81 32.01 189.97 32 C164.26 31.99 138.55 31.99 112.84 32 C110.08 32 107.32 32 104.56 32 C103.88 32 103.21 32 102.51 32 C91.13 32.01 79.75 32 68.37 31.99 C58.47 31.98 48.57 31.98 38.67 32 C33.03 32 27.39 32 21.75 31.99 C16.61 31.98 11.48 31.98 6.34 32 C4.5 32 2.65 32 0.81 31.99 C-19.13 31.91 -37.43 35.72 -51.36 51.38 Z M-66.36 797.38 C-66.46 800.14 -66.5 802.89 -66.5 805.65 C-66.51 806.52 -66.51 807.39 -66.51 808.29 C-66.52 811.18 -66.52 814.07 -66.53 816.96 C-66.53 818.97 -66.53 820.98 -66.54 822.99 C-66.54 827.22 -66.54 831.45 -66.54 835.67 C-66.54 841.07 -66.56 846.46 -66.57 851.85 C-66.58 856.01 -66.59 860.17 -66.59 864.33 C-66.59 866.32 -66.59 868.3 -66.6 870.29 C-66.81 890.4 -66.81 890.4 -60.23 909.13 C-59.86 909.84 -59.49 910.55 -59.1 911.28 C-58.2 912.98 -57.28 914.68 -56.36 916.38 C-55.7 916.38 -55.04 916.38 -54.36 916.38 C-54.08 916.97 -53.81 917.56 -53.52 918.17 C-47.56 929.48 -35.87 935.56 -24.19 939.43 C-20.14 940.43 -16.42 940.66 -12.28 940.63 C-11.5 940.63 -10.71 940.64 -9.89 940.64 C-7.25 940.65 -4.6 940.64 -1.95 940.64 C-0.03 940.64 1.9 940.64 3.82 940.65 C9.13 940.66 14.44 940.66 19.75 940.65 C25.52 940.65 31.29 940.66 37.06 940.67 C47.84 940.68 58.63 940.68 69.41 940.68 C79.6 940.68 89.79 940.69 99.99 940.7 C100.67 940.7 101.36 940.7 102.06 940.7 C104.86 940.7 107.65 940.7 110.44 940.7 C139.58 940.73 168.71 940.74 197.85 940.74 C200.99 940.74 204.13 940.74 207.26 940.74 C208.04 940.75 208.82 940.75 209.62 940.75 C226.87 940.75 244.11 940.75 261.36 940.76 C268.46 940.76 275.56 940.77 282.66 940.77 C283.45 940.77 284.23 940.77 285.04 940.77 C330 940.79 374.97 940.8 419.93 940.8 C421.61 940.8 423.29 940.8 424.98 940.8 C432.58 940.8 440.17 940.8 447.77 940.8 C451.16 940.8 454.55 940.8 457.94 940.8 C459.63 940.8 461.33 940.8 463.02 940.8 C516.65 940.81 570.27 940.83 623.89 940.86 C663.88 940.89 703.86 940.92 743.85 940.92 C744.66 940.92 745.46 940.92 746.29 940.92 C763.96 940.93 781.63 940.93 799.3 940.93 C805.62 940.93 811.95 940.93 818.27 940.93 C819.84 940.93 821.41 940.93 822.99 940.93 C848.05 940.93 873.11 940.95 898.18 940.97 C923.42 940.99 948.67 941 973.91 940.99 C977.4 940.98 980.89 940.98 984.38 940.98 C985.4 940.98 985.4 940.98 986.45 940.98 C997.93 940.97 1009.42 940.99 1020.9 941.01 C1030.89 941.02 1040.88 941.02 1050.87 941 C1056.56 940.99 1062.26 940.99 1067.95 941.01 C1073.14 941.03 1078.32 941.03 1083.5 941 C1085.36 941 1087.22 941 1089.08 941.02 C1107.59 941.15 1120.85 936.41 1134.92 924.09 C1136.73 922.29 1138.23 920.5 1139.64 918.38 C1139.64 917.72 1139.64 917.06 1139.64 916.38 C1140.3 916.38 1140.96 916.38 1141.64 916.38 C1142.26 915.15 1142.26 915.15 1142.88 913.89 C1147.64 904.38 1147.64 904.38 1148.67 902.5 C1153.47 892.06 1151.92 878.55 1151.87 867.33 C1151.87 865.31 1151.87 863.29 1151.87 861.27 C1151.87 857.06 1151.86 852.86 1151.85 848.65 C1151.83 843.24 1151.83 837.84 1151.83 832.43 C1151.83 828.27 1151.82 824.11 1151.82 819.95 C1151.81 817.96 1151.81 815.96 1151.81 813.97 C1151.81 811.2 1151.8 808.43 1151.79 805.65 C1151.79 804.41 1151.79 804.41 1151.79 803.14 C1152.12 799.46 1152.12 799.46 1150.64 796.38 C1147.99 796.28 1145.37 796.24 1142.72 796.25 C1141.88 796.25 1141.03 796.25 1140.16 796.25 C1137.28 796.24 1134.41 796.25 1131.53 796.25 C1129.46 796.25 1127.38 796.25 1125.31 796.25 C1119.55 796.24 1113.8 796.25 1108.04 796.25 C1101.8 796.25 1095.56 796.25 1089.32 796.25 C1078.36 796.24 1067.4 796.24 1056.45 796.24 C1044.69 796.25 1032.92 796.25 1021.16 796.25 C1020.05 796.25 1020.05 796.25 1018.92 796.25 C1015.9 796.25 1012.88 796.24 1009.86 796.24 C981.69 796.24 953.53 796.24 925.37 796.24 C924.12 796.24 924.12 796.24 922.84 796.24 C921.58 796.24 921.58 796.24 920.3 796.24 C894.85 796.24 869.39 796.24 843.93 796.24 C842.23 796.24 840.53 796.24 838.83 796.24 C831.98 796.24 825.14 796.24 818.3 796.24 C799.17 796.24 780.05 796.24 760.92 796.24 C759.61 796.24 759.61 796.24 758.28 796.24 C730.51 796.24 702.74 796.24 674.97 796.24 C674.07 796.24 673.17 796.24 672.24 796.24 C657.61 796.24 642.97 796.25 628.34 796.25 C570.29 796.25 512.24 796.25 454.19 796.25 C439.57 796.25 424.94 796.24 410.31 796.24 C409.41 796.24 408.51 796.24 407.58 796.24 C379.84 796.24 352.1 796.24 324.36 796.24 C323.49 796.24 322.62 796.24 321.73 796.24 C302.62 796.24 283.52 796.24 264.41 796.24 C257.58 796.24 250.74 796.24 243.9 796.24 C242.2 796.24 240.5 796.24 238.8 796.24 C213.35 796.25 187.9 796.24 162.45 796.24 C161.61 796.24 160.78 796.24 159.92 796.24 C159.08 796.24 158.25 796.24 157.39 796.24 C129.31 796.24 101.23 796.24 73.15 796.24 C70.14 796.25 67.13 796.25 64.12 796.25 C63.38 796.25 62.64 796.25 61.88 796.25 C50.15 796.25 38.42 796.25 26.68 796.24 C15.16 796.24 3.65 796.24 -7.87 796.25 C-14.04 796.25 -20.21 796.25 -26.38 796.25 C-31.98 796.24 -37.58 796.25 -43.18 796.25 C-45.21 796.25 -47.23 796.25 -49.26 796.25 C-51.98 796.24 -54.71 796.25 -57.44 796.25 C-58.24 796.25 -59.04 796.25 -59.86 796.24 C-63.4 795.93 -63.4 795.93 -66.36 797.38 Z M488.64 974.38 C488.64 997.48 488.64 1020.58 488.64 1044.38 C524.28 1044.38 559.92 1044.38 596.64 1044.38 C596.64 1021.28 596.64 998.18 596.64 974.38 C561 974.38 525.36 974.38 488.64 974.38 Z M250.92 1083.08 C250.1 1085.16 249.34 1087.26 248.64 1089.38 C247.63 1091.45 246.59 1093.52 245.52 1095.57 C245.03 1096.56 244.54 1097.55 244.04 1098.58 C241.03 1104.61 237.63 1110.39 234.2 1116.19 C231.27 1121.19 228.66 1126.28 226.13 1131.48 C224.24 1135.17 222.08 1138.65 219.84 1142.12 C218.55 1144.55 218.05 1146.67 217.64 1149.38 C216.98 1149.38 216.32 1149.38 215.64 1149.38 C215.29 1150.29 214.94 1151.19 214.58 1152.13 C212.54 1156.95 209.77 1161.34 207.07 1165.8 C205.48 1168.18 205.48 1168.18 205.64 1170.38 C428.06 1170.38 650.48 1170.38 879.64 1170.38 C877.6 1165.27 875.05 1160.91 872.2 1156.22 C870.9 1153.84 870.1 1152.02 869.64 1149.38 C868.98 1149.38 868.32 1149.38 867.64 1149.38 C867.33 1148.2 867.02 1147.03 866.7 1145.82 C864.93 1140.43 862.08 1135.9 859.12 1131.11 C856.15 1126.29 853.58 1121.38 851.11 1116.29 C849.05 1112.2 846.71 1108.29 844.35 1104.36 C843.09 1102.16 841.94 1099.99 840.83 1097.72 C838.66 1093.36 836.3 1089.11 833.89 1084.88 C833.48 1084.15 833.07 1083.42 832.65 1082.67 C831.65 1080.91 830.64 1079.14 829.64 1077.38 C775.02 1077.17 720.39 1076.98 665.77 1076.87 C664.96 1076.87 664.15 1076.87 663.32 1076.86 C645.76 1076.83 628.19 1076.8 610.63 1076.76 C602.01 1076.75 593.4 1076.73 584.79 1076.72 C583.93 1076.72 583.07 1076.72 582.19 1076.71 C554.4 1076.66 526.61 1076.57 498.82 1076.46 C470.26 1076.35 441.71 1076.27 413.15 1076.25 C409.12 1076.25 405.09 1076.24 401.06 1076.24 C399.87 1076.24 399.87 1076.24 398.65 1076.24 C385.87 1076.22 373.09 1076.17 360.31 1076.1 C347.46 1076.02 334.62 1076 321.78 1076.02 C314.14 1076.02 306.51 1076 298.87 1075.93 C293.17 1075.88 287.48 1075.89 281.78 1075.93 C279.48 1075.93 277.17 1075.92 274.86 1075.88 C260.91 1074.97 260.91 1074.97 250.92 1083.08 Z " fill="#000000" transform="translate(97.35774230957031,38.62247657775879)"/>
<path d="M0 0 C4.68 1.04 9.4 1.89 14.11 2.78 C17 3.44 19.49 4.37 22.21 5.49 C23.98 5.94 25.75 6.35 27.53 6.74 C35.35 8.65 42.74 11.54 50.21 14.49 C51.26 14.9 52.3 15.3 53.38 15.71 C60.35 18.49 66.87 21.88 73.44 25.47 C76.9 27.35 80.42 29.05 83.96 30.74 C90.06 33.76 95.83 37.2 101.59 40.81 C102.44 41.33 103.29 41.86 104.17 42.41 C104.96 42.91 105.74 43.41 106.55 43.92 C107.26 44.37 107.96 44.81 108.69 45.28 C109.45 45.88 109.45 45.88 110.21 46.49 C110.21 47.15 110.21 47.81 110.21 48.49 C111 48.8 111.78 49.11 112.59 49.43 C115.21 50.49 115.21 50.49 117.21 51.49 C117.21 52.15 117.21 52.81 117.21 53.49 C117.75 53.73 118.28 53.97 118.82 54.21 C121.91 55.87 124.67 57.9 127.46 59.99 C128.3 60.6 128.3 60.6 129.14 61.22 C130.54 62.26 131.88 63.37 133.21 64.49 C133.21 65.15 133.21 65.81 133.21 66.49 C134.03 66.84 134.03 66.84 134.87 67.19 C137.89 68.87 140.27 71.08 142.78 73.43 C143.3 73.91 143.82 74.4 144.36 74.9 C160.09 89.6 160.09 89.6 165.21 96.49 C165.21 97.15 165.21 97.81 165.21 98.49 C166.2 98.82 167.19 99.15 168.21 99.49 C170.04 101.61 171.73 103.7 173.4 105.93 C173.87 106.53 174.33 107.13 174.81 107.75 C178.21 112.23 178.21 112.23 178.21 114.49 C178.87 114.49 179.53 114.49 180.21 114.49 C183.21 118.88 183.21 118.88 183.21 121.49 C183.87 121.49 184.53 121.49 185.21 121.49 C186.58 123.34 186.58 123.34 188.16 125.93 C188.74 126.88 189.31 127.83 189.91 128.81 C190.53 129.84 191.14 130.87 191.78 131.93 C192.41 132.98 193.04 134.03 193.69 135.1 C203.67 151.82 212.87 169.04 219.21 187.49 C219.73 188.89 220.25 190.29 220.78 191.68 C221.01 192.31 221.25 192.95 221.5 193.6 C221.99 194.9 222.49 196.19 223 197.48 C224.51 201.38 225.73 205.24 226.69 209.32 C227.28 211.75 227.97 214.15 228.65 216.56 C230.55 223.46 231.87 230.46 233.21 237.49 C233.4 238.38 233.59 239.28 233.78 240.19 C236.92 255.82 237.55 271.75 237.48 287.65 C237.46 290.43 237.48 293.2 237.49 295.98 C237.51 317.37 235.3 338.1 229.9 358.82 C229.27 361.27 228.73 363.71 228.21 366.18 C227.41 369.88 226.31 373.4 225.06 376.98 C224.06 379.96 223.17 382.97 222.28 385.99 C220.86 390.62 219.25 394.97 217.2 399.35 C216.19 401.55 215.32 403.79 214.46 406.06 C208.93 420.05 201.36 433.5 193.51 446.3 C192.31 448.33 191.24 450.37 190.21 452.49 C189.55 452.49 188.89 452.49 188.21 452.49 C188.04 453.38 188.04 453.38 187.85 454.29 C186.82 457.87 184.43 460.61 182.21 463.56 C181.72 464.22 181.23 464.88 180.73 465.56 C176.96 470.6 173.04 475.5 168.99 480.32 C167.09 482.57 167.09 482.57 165.21 485.49 C164.55 485.49 163.89 485.49 163.21 485.49 C162.97 486.05 162.72 486.61 162.46 487.18 C159.86 492 156.11 495.7 152.21 499.49 C151.66 500.09 151.1 500.69 150.53 501.31 C149.21 502.49 149.21 502.49 147.21 502.49 C147.21 503.15 147.21 503.81 147.21 504.49 C145.71 506.01 145.71 506.01 143.65 507.74 C142.93 508.36 142.2 508.97 141.45 509.61 C140.71 510.23 139.98 510.85 139.21 511.49 C138.55 512.09 137.88 512.68 137.2 513.29 C136.28 514.1 136.28 514.1 135.34 514.93 C134.79 515.42 134.23 515.92 133.66 516.43 C132.21 517.49 132.21 517.49 130.21 517.49 C130.21 518.15 130.21 518.81 130.21 519.49 C128.54 521 128.54 521 126.34 522.62 C125.62 523.16 124.9 523.7 124.16 524.25 C122.21 525.49 122.21 525.49 120.21 525.49 C120.21 526.15 120.21 526.81 120.21 527.49 C117.98 529.3 115.75 530.97 113.4 532.62 C112.76 533.09 112.12 533.55 111.46 534.04 C106.59 537.49 106.59 537.49 103.21 537.49 C103.21 538.15 103.21 538.81 103.21 539.49 C100.79 541.23 100.79 541.23 97.46 543.24 C96.88 543.6 96.3 543.95 95.7 544.31 C90.82 547.23 85.8 549.81 80.68 552.27 C78.06 553.51 78.06 553.51 75.21 555.49 C74.22 555.49 73.23 555.49 72.21 555.49 C72.21 556.15 72.21 556.81 72.21 557.49 C71.59 557.74 70.96 557.98 70.31 558.23 C69.45 558.56 68.6 558.9 67.71 559.24 C66.88 559.57 66.04 559.89 65.18 560.23 C62.85 561.22 60.64 562.29 58.39 563.45 C54.35 565.49 50.24 567.04 45.96 568.49 C45.23 568.75 44.49 569 43.74 569.27 C37.58 571.39 31.4 573.46 25.21 575.49 C24.19 575.85 23.16 576.21 22.11 576.57 C19.21 577.49 19.21 577.49 15.65 577.99 C12.44 578.46 10.19 579.29 7.21 580.49 C-18.97 587.62 -46.89 587.95 -73.83 587.89 C-78.01 587.88 -82.18 587.89 -86.36 587.9 C-94.5 587.91 -102.64 587.91 -110.78 587.9 C-117.39 587.89 -124 587.89 -130.61 587.9 C-132.03 587.9 -132.03 587.9 -133.48 587.9 C-135.4 587.9 -137.33 587.9 -139.25 587.9 C-157.2 587.91 -175.15 587.9 -193.1 587.88 C-208.49 587.87 -223.88 587.87 -239.27 587.88 C-257.19 587.9 -275.12 587.91 -293.04 587.9 C-294.95 587.9 -296.86 587.9 -298.77 587.9 C-299.71 587.89 -300.65 587.89 -301.62 587.89 C-308.23 587.89 -314.84 587.9 -321.45 587.9 C-329.5 587.91 -337.54 587.91 -345.59 587.89 C-349.69 587.88 -353.79 587.88 -357.89 587.89 C-361.65 587.9 -365.4 587.9 -369.15 587.88 C-371.16 587.87 -373.16 587.88 -375.16 587.89 C-376.35 587.89 -377.54 587.88 -378.77 587.87 C-379.79 587.87 -380.82 587.87 -381.87 587.87 C-387.85 587.1 -391.98 584.04 -395.79 579.49 C-398.43 573.97 -397.68 569.61 -396.04 563.87 C-393.88 559.78 -391.3 557.11 -386.99 555.37 C-383.75 554.48 -381.08 554.24 -377.73 554.23 C-376.53 554.23 -375.33 554.22 -374.1 554.21 C-372.79 554.22 -371.48 554.22 -370.14 554.22 C-368.73 554.22 -367.32 554.21 -365.91 554.21 C-362.04 554.19 -358.17 554.19 -354.3 554.19 C-350.12 554.19 -345.94 554.18 -341.77 554.17 C-334.53 554.15 -327.29 554.13 -320.06 554.13 C-309.58 554.12 -299.1 554.1 -288.62 554.07 C-271.6 554.03 -254.58 554 -237.56 553.97 C-236.54 553.97 -235.52 553.97 -234.47 553.97 C-233.45 553.96 -232.43 553.96 -231.38 553.96 C-216.94 553.94 -202.5 553.91 -188.06 553.89 C-186.53 553.88 -186.53 553.88 -184.98 553.88 C-168.03 553.85 -151.08 553.81 -134.14 553.78 C-123.69 553.75 -113.24 553.73 -102.8 553.72 C-95.63 553.71 -88.47 553.7 -81.3 553.68 C-77.17 553.67 -73.04 553.67 -68.91 553.66 C-65.12 553.66 -61.34 553.65 -57.55 553.64 C-55.54 553.64 -53.54 553.64 -51.54 553.64 C-34.07 553.58 -16.98 552.18 -0.13 547.43 C2.46 546.7 5.01 546.08 7.65 545.56 C13.97 544.21 20.11 542.11 26.26 540.12 C28.05 539.55 29.84 538.98 31.63 538.42 C32.65 538.09 33.67 537.77 34.71 537.43 C35.59 537.15 36.47 536.87 37.37 536.58 C40.39 535.42 43.21 534.03 46.09 532.56 C48.19 531.51 50.31 530.52 52.45 529.56 C70.76 521.23 87.48 511.02 103.21 498.49 C103.78 498.05 104.34 497.6 104.92 497.14 C110.62 492.69 110.62 492.69 115.88 487.75 C117.21 486.49 117.21 486.49 119.21 486.49 C119.21 485.83 119.21 485.17 119.21 484.49 C120.72 483.05 120.72 483.05 122.78 481.37 C126.44 478.26 129.58 474.96 132.67 471.29 C134.13 469.6 135.54 467.98 137.21 466.49 C137.87 466.49 138.53 466.49 139.21 466.49 C139.54 465.72 139.54 465.72 139.87 464.92 C141.77 461.5 144.23 458.64 146.71 455.62 C154.57 445.92 162.1 436.17 167.86 425.05 C169.18 422.55 170.64 420.19 172.15 417.81 C175.51 412.29 177.97 406.45 180.48 400.52 C182.02 396.9 183.7 393.35 185.4 389.81 C188.32 383.52 190.35 377.15 192.21 370.49 C192.92 368.01 193.63 365.54 194.34 363.06 C194.65 361.94 194.96 360.83 195.29 359.69 C195.87 357.66 196.51 355.65 197.21 353.66 C198.18 350.62 198.77 347.74 199.25 344.58 C199.42 343.49 199.59 342.4 199.76 341.27 C199.93 340.15 200.1 339.03 200.28 337.87 C200.62 335.63 200.97 333.38 201.31 331.14 C201.54 329.66 201.54 329.66 201.77 328.15 C202.21 325.49 202.21 325.49 202.75 323.57 C203.42 320.6 203.46 317.69 203.57 314.65 C203.59 313.98 203.61 313.3 203.64 312.61 C203.71 310.4 203.78 308.2 203.84 305.99 C203.86 305.24 203.88 304.49 203.91 303.71 C204.21 293.13 204.26 282.58 203.9 271.99 C203.85 270.32 203.85 270.32 203.8 268.6 C203.56 262.87 202.96 257.44 201.72 251.83 C201.23 249.57 200.85 247.32 200.5 245.04 C199.26 236.86 197.72 229.11 195.12 221.24 C194.38 218.99 193.75 216.79 193.21 214.49 C191.29 206.52 189.1 198.65 185.19 191.41 C184.15 189.37 183.38 187.33 182.59 185.18 C178.04 173.59 171.59 162.6 165.21 151.93 C164.84 151.31 164.47 150.68 164.08 150.04 C162.61 147.61 161.23 145.51 159.21 143.49 C159.21 142.5 159.21 141.51 159.21 140.49 C158.55 140.49 157.89 140.49 157.21 140.49 C155.77 138.66 155.77 138.66 154.09 136.12 C150.9 131.4 147.46 127 143.82 122.62 C142.21 120.49 142.21 120.49 141.21 117.49 C140.55 117.49 139.89 117.49 139.21 117.49 C137.78 116.04 137.78 116.04 136.11 114.02 C132.25 109.48 128.13 105.26 123.9 101.06 C123.19 100.34 122.47 99.62 121.74 98.88 C121.05 98.2 120.37 97.51 119.66 96.81 C119.05 96.2 118.43 95.58 117.8 94.95 C116.26 93.4 116.26 93.4 114.21 92.49 C114.21 91.83 114.21 91.17 114.21 90.49 C113.69 90.26 113.16 90.03 112.61 89.8 C109.43 88.07 106.67 85.86 103.84 83.62 C100.57 81.04 97.32 78.53 93.8 76.3 C92.95 75.7 92.09 75.11 91.21 74.49 C91.21 73.83 91.21 73.17 91.21 72.49 C90.39 72.36 90.39 72.36 89.56 72.22 C86.5 71.27 84.33 69.65 81.71 67.81 C76.81 64.47 71.9 61.69 66.55 59.13 C63.28 57.52 60.08 55.81 56.87 54.07 C49.8 50.24 42.88 46.98 35.21 44.49 C33.82 43.98 32.42 43.46 31.03 42.93 C30.43 42.71 29.84 42.49 29.23 42.26 C27.94 41.77 26.66 41.27 25.38 40.77 C20.64 38.91 15.93 37.59 10.96 36.49 C9.46 36.15 7.96 35.81 6.45 35.47 C5.73 35.31 5 35.14 4.25 34.97 C1.53 34.33 -1.15 33.6 -3.85 32.87 C-9.33 31.47 -14.83 30.75 -20.44 30.14 C-23.38 29.82 -25.97 29.43 -28.79 28.49 C-30.63 28.39 -32.48 28.35 -34.33 28.33 C-35.47 28.32 -36.61 28.31 -37.79 28.3 C-39.02 28.3 -40.26 28.29 -41.54 28.29 C-42.82 28.28 -44.1 28.28 -45.42 28.27 C-48.15 28.26 -50.88 28.26 -53.6 28.25 C-56.36 28.25 -59.12 28.24 -61.88 28.21 C-83.46 28.04 -102.95 29.88 -123.79 35.49 C-125.06 35.82 -126.34 36.16 -127.66 36.5 C-143.18 40.31 -143.18 40.31 -157.84 46.5 C-160.06 47.64 -162.33 48.53 -164.66 49.43 C-171.05 51.93 -177.07 55.09 -183.16 58.24 C-185.4 59.31 -187.36 60.03 -189.79 60.49 C-189.79 61.15 -189.79 61.81 -189.79 62.49 C-190.39 62.8 -191 63.1 -191.63 63.42 C-198.6 67.06 -204.98 71.25 -211.39 75.8 C-212.05 76.26 -212.7 76.72 -213.38 77.2 C-213.96 77.62 -214.55 78.04 -215.15 78.47 C-216.79 79.49 -216.79 79.49 -219.79 80.49 C-219.79 81.15 -219.79 81.81 -219.79 82.49 C-221.46 84 -221.46 84 -223.66 85.62 C-224.38 86.16 -225.1 86.7 -225.84 87.25 C-227.79 88.49 -227.79 88.49 -229.79 88.49 C-229.79 89.15 -229.79 89.81 -229.79 90.49 C-231.46 92.22 -231.46 92.22 -233.66 94.12 C-234.38 94.75 -235.1 95.38 -235.84 96.03 C-237.79 97.49 -237.79 97.49 -239.79 97.49 C-239.79 98.15 -239.79 98.81 -239.79 99.49 C-241.16 101.12 -241.16 101.12 -242.79 102.49 C-243.45 102.49 -244.11 102.49 -244.79 102.49 C-244.79 103.15 -244.79 103.81 -244.79 104.49 C-246.16 106.12 -246.16 106.12 -247.79 107.49 C-248.45 107.49 -249.11 107.49 -249.79 107.49 C-249.79 108.15 -249.79 108.81 -249.79 109.49 C-251.16 111.12 -251.16 111.12 -252.79 112.49 C-253.45 112.49 -254.11 112.49 -254.79 112.49 C-255.05 113.07 -255.32 113.65 -255.6 114.24 C-256.81 116.55 -258.09 118.51 -259.79 120.49 C-260.45 120.49 -261.11 120.49 -261.79 120.49 C-262.03 121.03 -262.28 121.57 -262.54 122.12 C-264.09 125.08 -265.82 127.79 -267.79 130.49 C-268.45 130.49 -269.11 130.49 -269.79 130.49 C-270.04 131.22 -270.3 131.95 -270.56 132.7 C-271.84 135.62 -273.33 137.67 -275.35 140.12 C-277.46 142.69 -278.72 144.31 -279.79 147.49 C-280.45 147.49 -281.11 147.49 -281.79 147.49 C-281.95 148.34 -281.95 148.34 -282.12 149.2 C-282.88 151.81 -284 153.89 -285.35 156.24 C-285.8 157.04 -286.26 157.84 -286.73 158.67 C-287.08 159.27 -287.43 159.87 -287.79 160.49 C-288.45 160.49 -289.11 160.49 -289.79 160.49 C-289.98 161.37 -289.98 161.37 -290.18 162.27 C-291.14 165.78 -292.93 168.9 -294.6 172.12 C-299.41 181.59 -303.09 191.22 -306.62 201.23 C-307.53 203.77 -308.45 206.29 -309.41 208.81 C-312.25 216.43 -314.42 223.86 -315.91 231.87 C-316.24 233.63 -316.58 235.38 -316.92 237.14 C-317.06 237.91 -317.2 238.67 -317.35 239.46 C-317.79 241.49 -317.79 241.49 -318.79 244.49 C-318.85 246.22 -318.87 247.95 -318.85 249.68 C-318.84 250.58 -318.83 251.48 -318.82 252.41 C-318.81 253.1 -318.8 253.79 -318.79 254.49 C-317.63 253.63 -317.63 253.63 -316.45 252.74 C-314.94 251.63 -314.94 251.63 -313.41 250.49 C-312.41 249.75 -311.41 249.01 -310.39 248.24 C-307.79 246.49 -307.79 246.49 -305.79 246.49 C-305.79 245.83 -305.79 245.17 -305.79 244.49 C-304.16 243.07 -304.16 243.07 -301.92 241.45 C-301.11 240.87 -300.31 240.29 -299.48 239.7 C-298.63 239.09 -297.79 238.49 -296.91 237.87 C-296.07 237.26 -295.23 236.65 -294.36 236.02 C-288.05 231.49 -288.05 231.49 -285.79 231.49 C-285.79 230.83 -285.79 230.17 -285.79 229.49 C-284.2 228.09 -284.2 228.09 -281.99 226.49 C-281.19 225.91 -280.4 225.34 -279.58 224.75 C-278.74 224.15 -277.9 223.55 -277.04 222.93 C-276.21 222.33 -275.39 221.73 -274.54 221.1 C-268.38 216.68 -264.54 214.97 -256.79 215.49 C-252.33 216.88 -248.56 218.62 -245.66 222.42 C-243.68 227.11 -244.04 232.54 -244.79 237.49 C-246.19 240.4 -246.19 240.4 -247.79 242.49 C-248.45 242.49 -249.11 242.49 -249.79 242.49 C-249.79 243.15 -249.79 243.81 -249.79 244.49 C-251.52 245.94 -253.32 247.3 -255.16 248.62 C-256.16 249.34 -257.16 250.07 -258.18 250.81 C-260.79 252.49 -260.79 252.49 -262.79 252.49 C-262.79 253.15 -262.79 253.81 -262.79 254.49 C-264.11 254.82 -265.43 255.15 -266.79 255.49 C-266.79 256.15 -266.79 256.81 -266.79 257.49 C-269.04 259.29 -271.3 260.97 -273.66 262.62 C-274.31 263.09 -274.96 263.55 -275.63 264.04 C-280.52 267.49 -280.52 267.49 -282.79 267.49 C-282.79 268.15 -282.79 268.81 -282.79 269.49 C-284.11 269.82 -285.43 270.15 -286.79 270.49 C-286.79 271.15 -286.79 271.81 -286.79 272.49 C-289 274.22 -291.22 275.84 -293.54 277.43 C-294.8 278.31 -296.07 279.2 -297.33 280.08 C-297.93 280.5 -298.53 280.91 -299.15 281.34 C-300.5 282.29 -301.81 283.29 -303.11 284.31 C-304.79 285.49 -304.79 285.49 -306.79 285.49 C-306.79 286.15 -306.79 286.81 -306.79 287.49 C-308.88 289.12 -310.97 290.63 -313.16 292.12 C-318.52 295.85 -323.68 299.72 -328.7 303.9 C-332.99 307.18 -336.21 307.94 -341.54 307.81 C-345.03 307.32 -347.12 305.73 -349.79 303.49 C-350.49 302.96 -351.19 302.42 -351.91 301.87 C-354.24 298.92 -355.35 295.96 -356.66 292.45 C-357.9 289.19 -359.27 286 -360.66 282.81 C-362.79 277.88 -364.82 272.93 -366.79 267.93 C-369.53 260.99 -372.6 254.24 -375.79 247.49 C-378.32 242.1 -380.75 236.75 -382.72 231.12 C-384.21 226.89 -385.95 222.86 -387.85 218.81 C-388.83 216.7 -389.81 214.6 -390.79 212.49 C-391.31 211.38 -391.31 211.38 -391.84 210.24 C-394.04 205.07 -394.86 200.02 -393.79 194.49 C-391.64 190.13 -388.88 187.26 -384.91 184.49 C-379.58 182.79 -375.1 182.53 -370.1 185.06 C-364.06 189 -361.43 194.84 -358.96 201.4 C-357.43 205.42 -355.8 209.39 -354.16 213.37 C-353.86 214.11 -353.56 214.84 -353.25 215.6 C-351.87 218.96 -350.48 222.28 -348.79 225.49 C-347.64 222.36 -346.79 219.5 -346.35 216.18 C-345.8 212.62 -344.92 209.58 -343.73 206.2 C-342.79 203.52 -341.92 200.82 -341.04 198.12 C-338.97 191.75 -336.67 185.52 -334.02 179.36 C-333.22 177.5 -332.45 175.63 -331.71 173.75 C-328.12 164.64 -323.49 156.11 -318.85 147.5 C-317.8 145.51 -316.78 143.51 -315.79 141.49 C-315.13 141.49 -314.47 141.49 -313.79 141.49 C-313.46 139.84 -313.13 138.19 -312.79 136.49 C-312.13 136.49 -311.47 136.49 -310.79 136.49 C-310.69 135.95 -310.6 135.4 -310.5 134.84 C-309.58 131.83 -308.07 129.56 -306.35 126.93 C-305.42 125.51 -305.42 125.51 -304.48 124.05 C-303.25 122.2 -302.02 120.34 -300.79 118.49 C-300.13 118.49 -299.47 118.49 -298.79 118.49 C-298.32 117.32 -298.32 117.32 -297.85 116.12 C-296.79 113.49 -296.79 113.49 -295.79 111.49 C-295.13 111.49 -294.47 111.49 -293.79 111.49 C-293.54 110.96 -293.29 110.42 -293.04 109.87 C-291.48 106.91 -289.75 104.2 -287.79 101.49 C-287.13 101.49 -286.47 101.49 -285.79 101.49 C-285.52 100.92 -285.25 100.34 -284.97 99.74 C-283.76 97.44 -282.48 95.47 -280.79 93.49 C-280.13 93.49 -279.47 93.49 -278.79 93.49 C-278.55 92.93 -278.31 92.37 -278.07 91.79 C-276.48 88.94 -274.52 86.99 -272.21 84.69 C-271.29 83.77 -270.38 82.86 -269.44 81.92 C-268.96 81.45 -268.48 80.98 -267.99 80.49 C-266.55 79.07 -265.11 77.64 -263.68 76.2 C-250.89 63.49 -250.89 63.49 -247.79 63.49 C-247.79 62.83 -247.79 62.17 -247.79 61.49 C-246.32 60.2 -246.32 60.2 -244.41 58.87 C-243.78 58.42 -243.16 57.98 -242.51 57.52 C-240.79 56.49 -240.79 56.49 -238.79 56.49 C-238.79 55.83 -238.79 55.17 -238.79 54.49 C-237.43 53.34 -237.43 53.34 -235.53 52.07 C-234.84 51.6 -234.15 51.13 -233.44 50.65 C-232.34 49.92 -232.34 49.92 -231.22 49.18 C-229.8 48.23 -228.39 47.27 -226.97 46.32 C-226.27 45.85 -225.57 45.39 -224.85 44.91 C-222.84 43.53 -220.9 42.09 -218.95 40.64 C-215.79 38.49 -215.79 38.49 -212.79 38.49 C-212.79 37.83 -212.79 37.17 -212.79 36.49 C-211.99 36.11 -211.19 35.72 -210.37 35.32 C-203.67 32.11 -203.67 32.11 -197.35 28.24 C-194.86 26.55 -192.58 25.57 -189.79 24.49 C-189.06 24.04 -188.34 23.59 -187.6 23.12 C-183.51 20.76 -179.18 19.18 -174.79 17.49 C-173.17 16.87 -173.17 16.87 -171.53 16.23 C-165.63 13.95 -159.71 11.7 -153.79 9.49 C-153.13 9.24 -152.48 8.98 -151.8 8.72 C-147.9 7.2 -144.04 5.98 -139.95 5.02 C-137.54 4.43 -135.16 3.75 -132.77 3.06 C-126.83 1.44 -120.86 0.36 -114.79 -0.63 C-112.76 -0.97 -110.74 -1.3 -108.72 -1.64 C-107.84 -1.78 -106.97 -1.93 -106.06 -2.07 C-103.63 -2.48 -103.63 -2.48 -100.79 -3.51 C-68.13 -8.63 -32.16 -7.39 0 0 Z " fill="#000000" transform="translate(597.78515625,115.50634765625)"/>
<path d="M0 0 C1.19 -0.01 1.19 -0.01 2.4 -0.01 C4.07 -0.01 5.73 -0.01 7.4 0.01 C9.93 0.03 12.46 0.01 14.99 -0.02 C16.62 -0.01 18.25 -0.01 19.88 0 C20.99 -0.01 20.99 -0.01 22.14 -0.02 C28.51 0.09 33.75 2.06 38.53 6.35 C38.97 6.92 39.42 7.5 39.88 8.09 C40.57 8.96 40.57 8.96 41.28 9.85 C46.92 17.59 46.98 26.25 47.63 35.53 C47.72 36.69 47.8 37.84 47.89 39.04 C48.1 41.87 48.31 44.7 48.5 47.53 C49.3 47.78 50.1 48.02 50.92 48.28 C57.63 50.36 63.66 52.98 69.81 56.36 C72.67 57.6 74.42 57.93 77.5 57.53 C79.69 55.59 79.69 55.59 81.5 53.53 C82.16 53.53 82.82 53.53 83.5 53.53 C83.5 52.87 83.5 52.21 83.5 51.53 C85.97 49.14 88.78 47.12 91.5 45.03 C92.25 44.44 92.99 43.84 93.76 43.23 C99.22 39.03 103.78 36.63 110.82 36.48 C122.46 38.4 129.48 43.74 136.95 52.69 C138.61 54.71 138.61 54.71 141.07 57.09 C147.33 63.36 150.98 67.77 151.82 76.97 C151.32 82.62 149.19 87.56 146.5 92.53 C145.84 92.53 145.18 92.53 144.5 92.53 C144.19 93.55 144.19 93.55 143.88 94.59 C142.07 98.45 139.6 101.61 136.5 104.53 C135.84 104.53 135.18 104.53 134.5 104.53 C134.22 105.15 133.93 105.77 133.63 106.41 C132.5 108.53 132.5 108.53 130.5 110.53 C129.78 114.75 131.33 116.95 133.42 120.51 C135.29 124 136.49 127.72 137.75 131.47 C138.16 132.64 138.16 132.64 138.57 133.83 C139.22 135.73 139.86 137.63 140.5 139.53 C141.21 139.58 141.92 139.62 142.66 139.67 C145.92 139.88 149.18 140.11 152.44 140.34 C154.12 140.45 154.12 140.45 155.83 140.56 C166.44 141.33 174.48 143.36 182.69 150.41 C187.2 155.69 187.97 160.44 187.97 167.11 C187.98 167.93 187.99 168.74 188 169.58 C188.01 171.29 188.01 173.01 188 174.72 C188 177.33 188.05 179.92 188.09 182.53 C188.21 199.03 188.21 199.03 182.5 205.53 C180.18 207.87 180.18 207.87 177.82 209.47 C177.05 210.01 176.28 210.56 175.49 211.12 C167.64 214.83 158.92 214.9 150.38 215.16 C149.33 215.19 148.28 215.23 147.19 215.27 C144.63 215.37 142.07 215.45 139.5 215.53 C139.52 216.31 139.54 217.09 139.55 217.9 C139.5 220.75 138.93 222.3 137.69 224.84 C136.27 227.85 134.99 230.83 133.88 233.97 C132.5 237.53 132.5 237.53 130.5 239.53 C130.12 243.15 130.66 245.42 132.5 248.53 C133.16 248.53 133.82 248.53 134.5 248.53 C136.45 250.65 136.45 250.65 138.63 253.41 C139.35 254.31 140.08 255.22 140.82 256.15 C142.5 258.53 142.5 258.53 142.5 260.53 C143.16 260.53 143.82 260.53 144.5 260.53 C149.78 266.99 152.25 273.03 151.5 281.53 C148.97 291.05 143.08 297.3 136.25 304.09 C135.53 304.84 134.8 305.58 134.05 306.34 C122.49 317.92 122.49 317.92 114.5 318.53 C113.43 318.61 112.36 318.7 111.25 318.78 C104.9 318.36 98.66 316.36 93.5 312.53 C93.5 311.87 93.5 311.21 93.5 310.53 C92.91 310.24 92.31 309.95 91.69 309.66 C89.5 308.53 89.5 308.53 86.5 306.53 C86.5 305.87 86.5 305.21 86.5 304.53 C85.93 304.26 85.35 304 84.75 303.72 C82.45 302.5 80.48 301.23 78.5 299.53 C78.5 298.87 78.5 298.21 78.5 297.53 C73.62 297.93 70.7 298.84 66.46 301.48 C63.41 303.12 60.17 303.93 56.84 304.82 C54.49 305.46 54.49 305.46 52.39 306.62 C50.5 307.53 50.5 307.53 47.5 307.53 C47.53 308.54 47.55 309.54 47.57 310.57 C47.77 322.89 47.48 335.42 41.5 346.53 C40.84 346.53 40.18 346.53 39.5 346.53 C39.17 347.52 38.84 348.51 38.5 349.53 C36.94 350.88 36.94 350.88 34.94 352.16 C34.3 352.58 33.66 353.01 33 353.45 C26.12 356.44 17.92 355.68 10.57 355.66 C9.53 355.66 8.5 355.66 7.44 355.67 C-10.17 355.65 -10.17 355.65 -14.87 351.66 C-15.81 350.89 -15.81 350.89 -16.77 350.1 C-23.49 343.99 -25.66 337.48 -26.5 328.53 C-26.72 321.53 -26.62 314.53 -26.5 307.53 C-27.35 307.41 -28.21 307.3 -29.1 307.18 C-36.41 305.79 -43.48 302.67 -50.06 299.22 C-53.46 297.24 -53.46 297.24 -57.5 297.53 C-57.5 298.19 -57.5 298.85 -57.5 299.53 C-59.17 301.05 -60.91 302.5 -62.68 303.91 C-64.13 305.06 -64.13 305.06 -65.6 306.24 C-66.56 307 -67.51 307.75 -68.5 308.53 C-69.4 309.29 -70.3 310.04 -71.23 310.82 C-73.5 312.53 -73.5 312.53 -75.5 312.53 C-75.5 313.19 -75.5 313.85 -75.5 314.53 C-82.95 318.52 -90.26 319.88 -98.5 317.53 C-99.49 317.2 -100.48 316.87 -101.5 316.53 C-101.5 315.87 -101.5 315.21 -101.5 314.53 C-102.05 314.46 -102.61 314.39 -103.18 314.32 C-106.4 313.22 -108.08 311.34 -110.48 308.95 C-111.42 308.01 -112.35 307.08 -113.31 306.12 C-113.79 305.64 -114.27 305.15 -114.77 304.65 C-116.24 303.16 -117.73 301.68 -119.23 300.21 C-120.16 299.28 -121.09 298.34 -122.04 297.38 C-122.9 296.53 -123.75 295.67 -124.63 294.78 C-126.5 292.53 -126.5 292.53 -126.5 289.53 C-127.16 289.53 -127.82 289.53 -128.5 289.53 C-131.11 280.22 -131.39 272.26 -126.5 263.53 C-125.84 263.53 -125.18 263.53 -124.5 263.53 C-124.23 262.96 -123.96 262.39 -123.68 261.8 C-122.45 259.45 -121.07 257.41 -119.5 255.28 C-118.98 254.57 -118.46 253.87 -117.93 253.14 C-117.46 252.61 -116.98 252.08 -116.5 251.53 C-115.84 251.53 -115.18 251.53 -114.5 251.53 C-114.17 250.54 -113.84 249.55 -113.5 248.53 C-112.84 248.53 -112.18 248.53 -111.5 248.53 C-109.93 245.1 -108.97 242.96 -110.3 239.33 C-111.18 237.69 -112.07 236.05 -112.98 234.43 C-114.73 231.08 -116.05 227.65 -117.31 224.09 C-117.73 222.92 -118.15 221.75 -118.58 220.54 C-119.5 217.53 -119.5 217.53 -119.5 214.53 C-120.45 214.55 -120.45 214.55 -121.43 214.58 C-124.39 214.64 -127.35 214.68 -130.31 214.72 C-131.31 214.74 -132.32 214.77 -133.35 214.79 C-142.63 214.88 -152.23 213.79 -159.5 207.53 C-166.91 198.73 -166.8 191.95 -166.9 180.78 C-166.92 178.92 -166.96 177.05 -167 175.19 C-167.47 156.5 -167.47 156.5 -162.17 150.07 C-150.39 139.26 -134.55 140.33 -119.5 140.53 C-119.38 139.66 -119.26 138.79 -119.14 137.89 C-118.5 134.57 -117.53 131.87 -116.18 128.78 C-115.74 127.75 -115.3 126.71 -114.84 125.64 C-114.4 124.62 -113.95 123.59 -113.5 122.53 C-112.72 120.68 -111.95 118.83 -111.18 116.97 C-110.86 116.18 -110.53 115.4 -110.2 114.59 C-109.34 112.42 -109.34 112.42 -109.5 109.53 C-110.16 109.53 -110.82 109.53 -111.5 109.53 C-116.5 104.06 -116.5 104.06 -116.5 101.53 C-117.16 101.53 -117.82 101.53 -118.5 101.53 C-125.05 94.41 -130.14 86.94 -130.68 77.16 C-130.07 65.21 -122.47 58.35 -114.5 50.28 C-113.92 49.69 -113.33 49.1 -112.74 48.49 C-106.87 42.67 -101 37.46 -92.5 36.53 C-85.89 36.89 -77.35 38.68 -72.5 43.53 C-72.5 44.19 -72.5 44.85 -72.5 45.53 C-71.92 45.8 -71.35 46.07 -70.76 46.34 C-68.42 47.57 -66.37 48.96 -64.25 50.53 C-63.54 51.05 -62.83 51.56 -62.11 52.09 C-61.57 52.57 -61.04 53.04 -60.5 53.53 C-60.5 54.19 -60.5 54.85 -60.5 55.53 C-57.31 57.42 -55.18 57.89 -51.5 57.53 C-48.21 56.11 -48.21 56.11 -44.81 54.22 C-39.17 51.17 -33.68 49.22 -27.5 47.53 C-27.48 46.96 -27.47 46.4 -27.45 45.81 C-27.13 34.72 -26.65 24.24 -23.5 13.53 C-22.84 13.53 -22.18 13.53 -21.5 13.53 C-21.43 12.97 -21.37 12.42 -21.31 11.84 C-19.54 6.81 -14.99 3.88 -10.48 1.37 C-7.03 -0.09 -3.7 -0.04 0 0 Z M6.5 32.53 C4.64 40.43 4.17 48.19 4.11 56.27 C3.95 62.08 2.87 66.7 -0.5 71.53 C-1.49 72.03 -1.49 72.03 -2.5 72.53 C-2.5 73.19 -2.5 73.85 -2.5 74.53 C-4.98 75.16 -7.47 75.75 -9.96 76.33 C-20.73 78.85 -30.69 82.35 -40.5 87.53 C-40.5 88.19 -40.5 88.85 -40.5 89.53 C-41.05 89.63 -41.61 89.74 -42.18 89.84 C-44.59 90.44 -44.59 90.44 -46.73 92.02 C-52.11 94.96 -57.6 94.79 -63.5 93.53 C-67.89 91.14 -71.4 87.53 -74.94 84.04 C-77.38 81.67 -79.95 79.52 -82.56 77.34 C-83.42 76.61 -84.27 75.87 -85.16 75.11 C-87.58 73.16 -87.58 73.16 -91.5 73.53 C-93.76 75.95 -93.76 75.95 -95.5 78.53 C-95 79.09 -94.51 79.64 -94 80.21 C-93.36 80.94 -92.72 81.66 -92.06 82.41 C-91.42 83.13 -90.78 83.84 -90.12 84.59 C-88.5 86.53 -88.5 86.53 -87.5 88.53 C-86.84 88.53 -86.18 88.53 -85.5 88.53 C-85.11 89.4 -85.11 89.4 -84.71 90.29 C-83.41 92.7 -81.92 94.45 -80.06 96.47 C-75 102.23 -72.8 105.79 -73.02 113.64 C-73.7 117.75 -75.49 120.53 -77.78 123.95 C-84.24 133.66 -89.38 145.69 -91.03 157.28 C-91.62 161.37 -92.83 163.38 -95.5 166.53 C-101.79 171.2 -107.83 171.3 -115.5 171.66 C-125.67 172.12 -125.67 172.12 -135.5 174.53 C-135.5 176.51 -135.5 178.49 -135.5 180.53 C-130.55 182.65 -126.07 183.63 -120.7 183.71 C-119.8 183.73 -118.9 183.75 -117.98 183.78 C-116.13 183.82 -114.27 183.85 -112.42 183.87 C-104.99 184.1 -99.62 185.58 -94.15 190.75 C-91.98 194.4 -91.05 197.99 -90.06 202.09 C-87.01 213.76 -82.69 223.7 -76.17 233.82 C-72.91 239.1 -72.59 244.47 -73.5 250.53 C-74.81 252.95 -76.25 254.83 -78.09 256.88 C-79.72 258.59 -79.72 258.59 -80.5 261.53 C-81.16 261.53 -81.82 261.53 -82.5 261.53 C-87.33 266.77 -91.73 272.48 -95.5 278.53 C-94.84 278.53 -94.18 278.53 -93.5 278.53 C-93.17 279.52 -92.84 280.51 -92.5 281.53 C-91.84 281.53 -91.18 281.53 -90.5 281.53 C-90.17 282.19 -89.84 282.85 -89.5 283.53 C-88.81 282.98 -88.12 282.42 -87.41 281.85 C-86.06 280.76 -86.06 280.76 -84.68 279.66 C-83.79 278.94 -82.9 278.22 -81.98 277.48 C-79.5 275.53 -79.5 275.53 -76.5 273.53 C-76.5 272.87 -76.5 272.21 -76.5 271.53 C-75.93 271.27 -75.37 271.02 -74.79 270.75 C-72.23 269.39 -70.13 267.78 -67.87 265.97 C-63.12 262.17 -60.44 261.06 -54.34 261.12 C-49.08 261.88 -44.95 264.77 -40.5 267.53 C-30.04 273.77 -19.59 277.81 -7.5 279.53 C-2.02 282.27 0.99 286.05 3.5 291.53 C4.15 294.82 4.2 298 4.19 301.34 C4.23 303.11 4.28 304.87 4.33 306.63 C4.36 307.89 4.36 307.89 4.4 309.18 C4.52 316.85 4.52 316.85 7.5 323.53 C9.5 323.57 11.5 323.57 13.5 323.53 C15.02 319.43 15.8 315.83 16.03 311.47 C16.14 309.78 16.14 309.78 16.24 308.05 C16.38 305.71 16.5 303.36 16.63 301.01 C17 295.08 17.36 290.61 20.5 285.53 C20.5 284.87 20.5 284.21 20.5 283.53 C21.84 282.86 23.17 282.2 24.5 281.53 C25.1 281.18 25.7 280.83 26.32 280.47 C28.5 279.53 28.5 279.53 31.63 279.16 C35.84 278.48 39.26 277.14 43.16 275.5 C45.5 274.53 45.5 274.53 48.5 273.59 C54.96 271.31 60.77 268.03 66.44 264.22 C70.9 261.55 74.49 260.52 79.69 260.8 C86.1 262.46 91.17 267.12 95.7 271.8 C97.33 273.76 97.33 273.76 99.5 273.53 C99.5 274.19 99.5 274.85 99.5 275.53 C101.41 277.35 101.41 277.35 103.82 279.16 C104.62 279.79 105.42 280.42 106.24 281.07 C108.48 282.8 108.48 282.8 111.5 282.53 C113.69 280.59 113.69 280.59 115.5 278.53 C112.23 271.1 106.77 265.73 101.05 260.13 C96.54 255.27 93.83 251.45 93.38 244.72 C93.85 237.32 97.07 232.68 101.25 226.85 C104.38 222.44 105.94 217.68 107.5 212.53 C108.04 210.99 108.59 209.45 109.13 207.91 C110.14 204.87 110.88 201.86 111.5 198.72 C112.21 195.3 113.16 193.19 115.5 190.53 C115.5 189.87 115.5 189.21 115.5 188.53 C122.06 185 127.93 184.23 135.25 184.03 C142.21 183.77 148.72 183.23 155.5 181.53 C155.5 179.22 155.5 176.91 155.5 174.53 C151.4 173.02 147.8 172.24 143.44 172 C141.75 171.9 141.75 171.9 140.03 171.79 C137.68 171.66 135.33 171.53 132.98 171.41 C126.28 170.98 121.34 170.37 115.82 166.28 C112.42 161.75 111.29 156.79 110.13 151.34 C108.2 142.55 104.69 134.47 100.5 126.53 C99.84 126.53 99.18 126.53 98.5 126.53 C98.35 125.7 98.35 125.7 98.19 124.84 C97.6 122.43 97.6 122.43 96 120.27 C93.26 115.25 93.49 110.07 94.5 104.53 C96.67 100.67 99.42 97.68 102.5 94.53 C106.68 90.53 106.68 90.53 108.5 85.53 C109.16 85.53 109.82 85.53 110.5 85.53 C114.26 82.03 114.26 82.03 115.5 77.34 C114.41 75.36 113.21 74.01 111.5 72.53 C108.06 73.77 105.25 75.09 102.5 77.53 C102.5 78.19 102.5 78.85 102.5 79.53 C101.93 79.8 101.35 80.07 100.75 80.34 C98.45 81.56 96.48 82.83 94.5 84.53 C94.5 85.19 94.5 85.85 94.5 86.53 C93.73 86.87 93.73 86.87 92.94 87.22 C90.27 88.54 90.27 88.54 87.57 91.16 C82.49 94.86 76.5 94.4 70.5 93.53 C68.05 92.45 66.58 91.28 64.5 89.53 C63.51 89.53 62.52 89.53 61.5 89.53 C61.5 88.87 61.5 88.21 61.5 87.53 C60.54 87.12 59.58 86.71 58.58 86.29 C57.31 85.74 56.03 85.2 54.75 84.66 C54.12 84.39 53.49 84.12 52.83 83.84 C47.77 81.68 47.77 81.68 45.54 80.45 C41.76 78.74 37.57 78.07 33.52 77.21 C27.98 75.92 23.53 73.92 19.75 69.47 C16.31 61.38 16.2 52.48 15.85 43.81 C15.68 39.95 15.41 36.31 14.5 32.53 C11.86 32.53 9.22 32.53 6.5 32.53 Z " fill="#000000" transform="translate(528.49609375,228.46875)"/>
<path d="M0 0 C1.28 0.01 2.56 0.01 3.88 0.02 C12.81 0.17 20.32 1 28.62 4.44 C29.92 4.87 29.92 4.87 31.25 5.31 C50.91 12.18 66.53 29.16 76.07 47.16 C85.17 66.07 86.2 89.54 79.62 109.44 C78.71 111.57 77.71 113.6 76.6 115.63 C75.63 117.43 74.84 119.24 74.06 121.12 C72.77 124.1 71.48 126.78 69.62 129.44 C68.97 129.44 68.31 129.44 67.62 129.44 C67.38 130.16 67.13 130.88 66.88 131.62 C65.5 134.71 63.9 136.95 61.62 139.44 C60.97 139.44 60.31 139.44 59.62 139.44 C59.36 140.08 59.09 140.72 58.81 141.38 C57.62 143.44 57.62 143.44 54.62 144.44 C54.62 145.1 54.62 145.76 54.62 146.44 C46.08 153.79 36.25 158.86 25.62 162.44 C24.57 162.81 23.52 163.18 22.44 163.56 C-0.52 168.83 -23.24 165.13 -43.38 153.44 C-60.53 142.53 -73.09 126.8 -79.38 107.44 C-79.89 105.9 -79.89 105.9 -80.41 104.33 C-81.71 99.73 -81.88 95.13 -82.06 90.38 C-82.1 89.45 -82.14 88.52 -82.18 87.57 C-82.88 67.47 -78.13 52.84 -68.38 35.44 C-67.71 35.44 -67.06 35.44 -66.38 35.44 C-66.07 34.42 -66.07 34.42 -65.75 33.38 C-63.95 29.52 -61.47 26.36 -58.38 23.44 C-57.71 23.44 -57.06 23.44 -56.38 23.44 C-56.38 22.78 -56.38 22.12 -56.38 21.44 C-54.7 19.93 -54.7 19.93 -52.5 18.31 C-51.78 17.77 -51.06 17.23 -50.32 16.68 C-48.38 15.44 -48.38 15.44 -46.38 15.44 C-46.38 14.78 -46.38 14.12 -46.38 13.44 C-43.43 11.96 -40.48 10.49 -37.53 9.03 C-35.75 8.13 -33.97 7.22 -32.22 6.25 C-22.11 0.75 -11.32 -0.09 0 0 Z M-18.38 35.44 C-19.27 35.79 -20.17 36.14 -21.09 36.51 C-28.25 39.9 -36.24 44.81 -39.66 52.22 C-39.89 52.95 -40.13 53.68 -40.38 54.44 C-41.03 54.44 -41.69 54.44 -42.38 54.44 C-50.53 66.05 -51.82 79.81 -49.97 93.43 C-47.11 106.37 -38.25 117.98 -27.49 125.44 C-15.56 132.77 -3.21 135.67 10.7 133.05 C24.48 129.7 36.21 121.69 43.81 109.69 C44.78 107.95 45.72 106.2 46.62 104.44 C47.04 103.66 47.46 102.89 47.89 102.09 C50.74 95.77 51.01 89.64 51.06 82.81 C51.07 81.93 51.08 81.05 51.09 80.14 C50.99 72.17 48.75 65.57 45.44 58.38 C45.09 57.62 44.75 56.87 44.39 56.09 C44.14 55.54 43.89 55 43.62 54.44 C42.97 54.44 42.31 54.44 41.62 54.44 C41.34 53.84 41.05 53.24 40.75 52.62 C39.58 50.24 39.58 50.24 37.62 47.44 C36.97 47.44 36.31 47.44 35.62 47.44 C35.62 46.78 35.62 46.12 35.62 45.44 C33.36 43.49 33.36 43.49 30.5 41.5 C29.07 40.47 29.07 40.47 27.62 39.41 C18.92 33.67 10.9 32.09 0.69 32.12 C-0.15 32.11 -1 32.09 -1.87 32.08 C-7.89 32.07 -12.8 33.2 -18.38 35.44 Z " fill="#000000" transform="translate(538.375,323.5625)"/>
<path d="M0 0 C6.03 3.14 11.4 7.1 16.43 11.65 C18.02 13.02 19.66 14.13 21.44 15.25 C22.71 16.12 22.71 16.12 24 17 C24 17.66 24 18.32 24 19 C24.58 19.27 25.16 19.55 25.76 19.83 C27.96 20.98 29.81 22.25 31.79 23.75 C32.48 24.28 33.18 24.8 33.89 25.34 C34.61 25.89 35.32 26.44 36.06 27 C37.49 28.08 38.92 29.17 40.35 30.25 C40.98 30.73 41.61 31.21 42.25 31.7 C43.8 32.85 45.4 33.93 47 35 C47 35.66 47 36.32 47 37 C47.72 37.25 48.43 37.5 49.17 37.75 C52.31 39.14 54.64 40.84 57.31 43 C58.64 44.05 58.64 44.05 59.99 45.12 C60.65 45.74 61.32 46.36 62 47 C62 47.66 62 48.32 62 49 C62.66 49.21 63.32 49.41 64 49.62 C68.07 51.49 71.69 53.98 75 57 C75 57.66 75 58.32 75 59 C75.78 59.31 76.57 59.62 77.38 59.94 C80 61 80 61 82 62 C82 62.66 82 63.32 82 64 C82.99 64.33 83.98 64.66 85 65 C85 65.66 85 66.32 85 67 C85.66 67 86.32 67 87 67 C89.37 71.59 89.77 75.95 89 81 C86.31 88.87 78.72 93.71 72 98 C71.34 98 70.68 98 70 98 C70 98.66 70 99.32 70 100 C68.26 101.45 66.46 102.81 64.62 104.12 C63.63 104.85 62.63 105.57 61.6 106.32 C59 108 59 108 57 108 C57 108.66 57 109.32 57 110 C55.32 111.51 55.32 111.51 53.12 113.12 C52.41 113.66 51.69 114.2 50.95 114.76 C49 116 49 116 47 116 C47 116.66 47 117.32 47 118 C45.41 119.3 43.75 120.51 42.06 121.69 C37.51 124.91 33.11 128.24 28.78 131.75 C27 133 27 133 25 133 C25 133.66 25 134.32 25 135 C23.32 136.51 23.32 136.51 21.12 138.12 C20.41 138.66 19.69 139.2 18.95 139.76 C17 141 17 141 15 141 C15 141.66 15 142.32 15 143 C8.88 148.6 2.63 153.66 -5.94 154 C-10.94 153.57 -14.23 152.45 -17.7 148.77 C-20.72 144.66 -22.32 141.04 -21.94 135.94 C-20.1 126 -10.8 120.33 -3.22 114.68 C-0.91 112.93 1.37 111.15 3.65 109.35 C4.43 108.74 5.2 108.13 6 107.5 C7.61 106.23 9.21 104.96 10.82 103.68 C11.59 103.08 12.36 102.47 13.15 101.85 C13.84 101.3 14.53 100.75 15.25 100.19 C17 99 17 99 19 99 C19 98.34 19 97.68 19 97 C21 95.38 21 95.38 23 94 C21.69 93.99 21.69 93.99 20.34 93.98 C12.08 93.92 3.81 93.85 -4.46 93.76 C-8.71 93.72 -12.96 93.68 -17.21 93.65 C-21.32 93.63 -25.42 93.59 -29.53 93.54 C-31.09 93.52 -32.65 93.51 -34.22 93.5 C-36.41 93.49 -38.61 93.46 -40.8 93.43 C-42.05 93.42 -43.3 93.41 -44.58 93.4 C-50.89 92.66 -54.93 89.75 -59 85 C-61.22 80.99 -61.4 77.54 -61 73 C-59.22 68.33 -56.83 65.2 -53 62 C-48.54 60.16 -44.7 59.73 -39.89 59.68 C-38.87 59.67 -38.87 59.67 -37.82 59.65 C-35.58 59.62 -33.34 59.6 -31.1 59.59 C-29.54 59.57 -27.98 59.55 -26.42 59.53 C-22.33 59.48 -18.23 59.44 -14.14 59.4 C-9.96 59.36 -5.77 59.31 -1.59 59.26 C6.61 59.16 14.8 59.08 23 59 C21.09 57.4 19.19 55.8 17.28 54.21 C16.74 53.76 16.21 53.31 15.66 52.85 C10.86 48.83 5.87 45.18 0.75 41.6 C-0.87 40.44 -2.44 39.23 -4 38 C-4 37.34 -4 36.68 -4 36 C-4.54 35.75 -5.07 35.5 -5.62 35.25 C-8.58 33.69 -11.3 31.97 -14 30 C-14 29.34 -14 28.68 -14 28 C-14.92 27.62 -14.92 27.62 -15.86 27.23 C-19.49 25.15 -20.77 21.9 -22 18 C-22.45 12.38 -20.62 8.3 -17 4 C-11.36 -0.26 -6.94 -2.04 0 0 Z " fill="#000000" transform="translate(991,610)"/>
<path d="M0 0 C4.3 1.67 7.14 3.61 9.58 7.55 C11.35 11.84 11.42 15.29 11.39 19.88 C11.39 20.76 11.4 21.65 11.4 22.56 C11.42 25.51 11.41 28.46 11.4 31.41 C11.41 33.53 11.42 35.65 11.42 37.77 C11.44 43.52 11.44 49.28 11.44 55.03 C11.43 59.83 11.44 64.63 11.44 69.43 C11.46 80.76 11.46 92.08 11.45 103.41 C11.43 115.1 11.45 126.78 11.48 138.47 C11.5 148.5 11.5 158.54 11.5 168.57 C11.49 174.56 11.5 180.55 11.51 186.55 C11.53 192.18 11.53 197.81 11.51 203.45 C11.5 205.52 11.51 207.58 11.52 209.65 C11.53 212.47 11.52 215.3 11.5 218.12 C11.52 219.35 11.52 219.35 11.53 220.6 C11.45 226.73 9.51 230.07 5.5 234.75 C1.41 238.16 -2.37 238.43 -7.53 238.32 C-12.39 237.69 -15.06 234.99 -18.31 231.56 C-21.57 226.62 -21.14 221.23 -21.13 215.47 C-21.14 214.62 -21.14 213.76 -21.14 212.88 C-21.15 210.01 -21.15 207.14 -21.15 204.27 C-21.15 202.21 -21.15 200.15 -21.16 198.09 C-21.16 192.5 -21.17 186.91 -21.17 181.32 C-21.17 176.65 -21.17 171.98 -21.18 167.32 C-21.18 156.31 -21.19 145.3 -21.19 134.29 C-21.18 122.93 -21.2 111.57 -21.21 100.21 C-21.22 90.46 -21.23 80.7 -21.23 70.95 C-21.23 65.13 -21.23 59.3 -21.24 53.48 C-21.25 48 -21.25 42.52 -21.24 37.04 C-21.24 35.04 -21.25 33.03 -21.25 31.02 C-21.26 28.27 -21.25 25.53 -21.25 22.78 C-21.25 21.99 -21.26 21.19 -21.26 20.38 C-21.23 14.94 -20.99 9.36 -17.34 5.04 C-16.74 4.57 -16.13 4.11 -15.5 3.62 C-14.59 2.9 -14.59 2.9 -13.66 2.16 C-9.4 -0.83 -5.04 -0.65 0 0 Z " fill="#000000" transform="translate(1187,205)"/>
<path d="M0 0 C3.38 1.75 3.38 1.75 6 4 C6.76 4.62 7.53 5.24 8.31 5.88 C11.95 10.45 11.14 17.05 11.13 22.65 C11.14 23.51 11.14 24.37 11.14 25.25 C11.15 28.12 11.15 30.99 11.15 33.86 C11.15 35.92 11.15 37.98 11.16 40.04 C11.16 45.63 11.17 51.23 11.17 56.82 C11.17 61.48 11.17 66.15 11.18 70.82 C11.18 81.83 11.19 92.84 11.19 103.84 C11.18 115.2 11.2 126.56 11.21 137.92 C11.22 147.68 11.23 157.43 11.23 167.18 C11.23 173.01 11.23 178.83 11.24 184.66 C11.25 190.13 11.25 195.61 11.24 201.09 C11.24 203.1 11.25 205.11 11.25 207.12 C11.26 209.86 11.25 212.6 11.25 215.35 C11.25 216.14 11.26 216.94 11.26 217.76 C11.21 225.46 9.3 230.44 4 236 C-0.43 238.74 -4.94 238.66 -10 238 C-14.95 235.39 -18.97 232.3 -21 227 C-21.19 224.09 -21.27 221.27 -21.26 218.36 C-21.26 217.48 -21.27 216.6 -21.27 215.69 C-21.28 212.73 -21.28 209.77 -21.27 206.81 C-21.28 204.69 -21.28 202.58 -21.29 200.46 C-21.3 194.7 -21.3 188.94 -21.3 183.18 C-21.3 178.37 -21.31 173.56 -21.31 168.76 C-21.32 157.42 -21.32 146.08 -21.32 134.74 C-21.31 123.04 -21.32 111.34 -21.34 99.64 C-21.36 89.6 -21.37 79.55 -21.36 69.51 C-21.36 63.51 -21.36 57.51 -21.38 51.51 C-21.39 45.87 -21.39 40.23 -21.38 34.59 C-21.37 32.52 -21.38 30.45 -21.38 28.37 C-21.39 25.55 -21.39 22.72 -21.37 19.89 C-21.38 19.07 -21.39 18.25 -21.4 17.41 C-21.34 11.84 -20.44 7.42 -16.31 3.32 C-10.96 -0.1 -6.3 -1.15 0 0 Z " fill="#000000" transform="translate(103,205)"/>
<path d="M0 0 C1.24 -0 2.49 -0.01 3.77 -0.01 C5.13 -0.01 6.5 -0.01 7.86 -0.01 C9.31 -0.01 10.76 -0.02 12.21 -0.02 C16.13 -0.03 20.05 -0.03 23.97 -0.03 C26.42 -0.03 28.87 -0.04 31.33 -0.04 C39.89 -0.05 48.45 -0.05 57.01 -0.05 C64.98 -0.05 72.95 -0.06 80.92 -0.08 C87.77 -0.09 94.62 -0.1 101.48 -0.1 C105.56 -0.09 109.65 -0.1 113.74 -0.11 C117.59 -0.12 121.43 -0.12 125.28 -0.11 C126.69 -0.11 128.09 -0.11 129.5 -0.12 C147 -0.19 147 -0.19 153.71 6.13 C156.62 10.51 156.74 14.45 156.64 19.63 C155.3 24.65 152.43 28.42 148 31.21 C145.01 32.41 142.57 32.39 139.34 32.4 C138.03 32.41 136.73 32.42 135.38 32.43 C133.93 32.43 132.48 32.43 131.03 32.42 C129.5 32.43 127.97 32.44 126.44 32.44 C122.3 32.46 118.15 32.47 114 32.47 C111.41 32.47 108.81 32.47 106.22 32.48 C97.18 32.5 88.13 32.51 79.08 32.5 C70.65 32.5 62.23 32.52 53.8 32.56 C46.56 32.58 39.32 32.59 32.08 32.59 C27.76 32.59 23.43 32.6 19.11 32.62 C15.04 32.64 10.98 32.64 6.91 32.62 C5.42 32.62 3.93 32.63 2.44 32.64 C0.4 32.65 -1.64 32.64 -3.68 32.63 C-5.39 32.63 -5.39 32.63 -7.13 32.63 C-12.04 31.86 -15.11 29.28 -18.61 25.88 C-21.57 21.04 -21.61 16.84 -20.61 11.45 C-18.73 6.7 -16.53 3.96 -12.29 1.13 C-8.17 0.22 -4.22 0.01 0 0 Z " fill="#000000" transform="translate(572.2930755615234,890.8662872314453)"/>
<path d="M0 0 C1.19 -0.01 2.39 -0.01 3.62 -0.02 C6.14 -0.03 8.66 -0.03 11.18 -0.03 C15.02 -0.04 18.86 -0.08 22.7 -0.11 C25.16 -0.12 27.61 -0.12 30.06 -0.12 C31.21 -0.14 32.35 -0.15 33.53 -0.17 C40.34 -0.13 44.92 0.55 50.66 4.34 C51.16 5.82 51.16 5.82 51.66 7.34 C52.32 7.34 52.98 7.34 53.66 7.34 C56.48 13.87 57.12 17.39 54.6 24.21 C54.14 25.26 54.14 25.26 53.66 26.34 C53 26.34 52.34 26.34 51.66 26.34 C51.66 27 51.66 27.66 51.66 28.34 C51 28.34 50.34 28.34 49.66 28.34 C49.66 29 49.66 29.66 49.66 30.34 C43.77 34.29 37.72 33.77 30.82 33.73 C28.96 33.74 28.96 33.74 27.06 33.74 C23.76 33.75 20.47 33.73 17.18 33.72 C15.17 33.71 13.15 33.72 11.14 33.73 C7.26 33.75 3.39 33.74 -0.49 33.73 C-1.69 33.74 -2.89 33.75 -4.12 33.75 C-11.62 33.69 -16.26 32.99 -22.09 27.96 C-25.26 24.25 -26.21 21.75 -26.65 16.9 C-26.19 11.64 -24.39 8.59 -21.02 4.59 C-14.81 -0.62 -7.71 0.01 0 0 Z " fill="#000000" transform="translate(726.3359375,669.6640625)"/>
<path d="M0 0 C1.19 -0 2.39 -0 3.61 -0 C6.13 -0 8.64 0.01 11.15 0.03 C14.99 0.06 18.82 0.05 22.66 0.04 C25.11 0.04 27.55 0.05 30 0.06 C31.71 0.06 31.71 0.06 33.46 0.05 C41.11 0.14 46.25 0.81 52.25 5.87 C55.3 9.54 56.27 12.08 56.81 16.81 C56.34 21.4 55.21 24.79 52.43 28.5 C50.16 30.25 48.07 31.27 45.43 32.5 C44.44 32.99 44.44 32.99 43.43 33.5 C41.65 33.6 39.86 33.64 38.07 33.66 C36.95 33.67 35.83 33.68 34.67 33.69 C32.84 33.69 32.84 33.69 30.98 33.7 C29.11 33.71 29.11 33.71 27.2 33.72 C24.55 33.73 21.91 33.73 19.26 33.74 C15.88 33.74 12.5 33.77 9.12 33.79 C5.88 33.82 2.65 33.82 -0.58 33.82 C-1.79 33.84 -3 33.85 -4.25 33.86 C-14.63 33.83 -14.63 33.83 -19.57 30.5 C-19.57 29.84 -19.57 29.18 -19.57 28.5 C-20.23 28.5 -20.89 28.5 -21.57 28.5 C-25.15 25.06 -26.28 20.32 -26.57 15.5 C-25.89 12.55 -24.87 10.25 -23.57 7.5 C-22.91 7.5 -22.25 7.5 -21.57 7.5 C-21.24 6.51 -20.91 5.52 -20.57 4.5 C-13.81 0.05 -7.93 -0.08 0 0 Z " fill="#000000" transform="translate(843.56640625,669.50390625)"/>
<path d="M0 0 C4.99 2.6 8.64 5.86 11 11 C11.46 14.74 11.44 18.45 11.43 22.21 C11.44 23.3 11.44 24.39 11.45 25.51 C11.46 27.81 11.45 30.11 11.45 32.41 C11.44 35.92 11.47 39.43 11.5 42.94 C11.5 45.18 11.5 47.42 11.5 49.65 C11.51 50.7 11.52 51.75 11.53 52.83 C11.46 60.5 10.11 63.86 4.68 69.34 C-0.41 72.49 -6.24 71.8 -12 71 C-15.81 69.21 -17.68 66.48 -20 63 C-21.44 58.16 -21.16 53.1 -21.17 48.1 C-21.17 47.14 -21.17 46.19 -21.18 45.2 C-21.18 43.19 -21.19 41.17 -21.19 39.15 C-21.19 36.08 -21.21 33 -21.22 29.92 C-21.23 27.96 -21.23 26 -21.23 24.04 C-21.24 23.12 -21.24 22.2 -21.25 21.26 C-21.23 15 -20.55 10.33 -17 5 C-16.34 5 -15.68 5 -15 5 C-15 4.34 -15 3.68 -15 3 C-10.05 -0.04 -5.69 -1.19 0 0 Z " fill="#000000" transform="translate(1187,597)"/>
<path d="M0 0 C3.56 1.5 3.56 1.5 6 3 C6 3.66 6 4.32 6 5 C6.99 5.33 7.98 5.66 9 6 C12.66 11.49 12.16 17.26 12.17 23.65 C12.17 25.04 12.17 25.04 12.18 26.47 C12.18 28.43 12.19 30.4 12.19 32.36 C12.19 35.36 12.21 38.35 12.22 41.34 C12.23 43.26 12.23 45.17 12.23 47.09 C12.24 47.97 12.24 48.86 12.25 49.78 C12.22 57.36 11.42 63.25 6 69 C0.89 72.41 -5.05 71.78 -11 71 C-15.48 68.76 -18.05 65.56 -20 61 C-20.27 58.66 -20.27 58.66 -20.29 56.05 C-20.3 55.07 -20.32 54.09 -20.33 53.08 C-20.33 52.02 -20.33 50.97 -20.34 49.88 C-20.34 48.79 -20.35 47.7 -20.36 46.58 C-20.37 44.28 -20.37 41.97 -20.37 39.67 C-20.37 36.15 -20.41 32.63 -20.45 29.11 C-20.46 26.86 -20.46 24.62 -20.46 22.38 C-20.48 21.33 -20.49 20.28 -20.5 19.2 C-20.46 12 -19.4 8.56 -14.39 3.32 C-9.74 -0.2 -5.77 -1 0 0 Z " fill="#000000" transform="translate(102,597)"/>
<path d="M0 0 C2.86 1.41 2.86 1.41 5 3 C5 3.66 5 4.32 5 5 C5.66 5 6.32 5 7 5 C11.15 9.67 10.45 15.34 10.43 21.21 C10.44 22.3 10.44 23.39 10.45 24.51 C10.46 26.81 10.45 29.11 10.45 31.41 C10.44 34.92 10.47 38.43 10.5 41.94 C10.5 44.18 10.5 46.42 10.5 48.65 C10.51 49.7 10.52 50.75 10.53 51.83 C10.47 57.88 10.04 61.39 6 66 C1.01 70.4 -1.91 71.36 -8.46 71.28 C-13.37 70.74 -16.04 68.01 -19.31 64.56 C-22.75 59.34 -22.16 53.39 -22.17 47.35 C-22.17 46.42 -22.17 45.49 -22.18 44.53 C-22.18 42.57 -22.19 40.6 -22.19 38.64 C-22.19 35.64 -22.21 32.65 -22.22 29.66 C-22.23 27.74 -22.23 25.83 -22.23 23.91 C-22.24 23.03 -22.24 22.14 -22.25 21.22 C-22.23 15.29 -21.94 9.83 -18.48 4.79 C-12.84 -0.46 -7.56 -1.44 0 0 Z " fill="#000000" transform="translate(1188,487)"/>
<path d="M0 0 C3.68 2.12 6.55 4.52 9 8 C10.22 13.23 10.16 18.44 10.17 23.78 C10.17 25.18 10.17 25.18 10.18 26.6 C10.18 28.57 10.19 30.53 10.19 32.49 C10.19 35.49 10.21 38.49 10.22 41.48 C10.23 43.39 10.23 45.31 10.23 47.22 C10.24 48.11 10.24 49 10.25 49.92 C10.22 57.99 8.59 63.15 3 69 C-1.43 71.74 -5.94 71.66 -11 71 C-16.07 68.33 -19.76 65.29 -22 60 C-22.26 57.65 -22.26 57.65 -22.27 55.04 C-22.28 54.05 -22.29 53.07 -22.3 52.05 C-22.3 50.99 -22.3 49.94 -22.3 48.85 C-22.31 47.76 -22.31 46.66 -22.31 45.54 C-22.32 43.23 -22.32 40.92 -22.32 38.61 C-22.31 35.08 -22.34 31.55 -22.36 28.02 C-22.36 25.77 -22.36 23.53 -22.36 21.29 C-22.37 20.23 -22.38 19.17 -22.39 18.09 C-22.33 8.73 -22.33 8.73 -19 5 C-18.34 5 -17.68 5 -17 5 C-17 4.34 -17 3.68 -17 3 C-11.68 -0.93 -6.38 -1.27 0 0 Z " fill="#000000" transform="translate(104,487)"/>
</svg>
