<?xml version="1.0" encoding="UTF-8"?>
<!-- Generator: visioncortex VTracer 0.6.3 -->
<svg version="1.1" xmlns="http://www.w3.org/2000/svg" width="1280" height="1280">
<path d="M0 0 C1.57 -0.01 1.57 -0.01 3.18 -0.02 C5.38 -0.03 7.59 -0.03 9.8 -0.04 C13.15 -0.05 16.49 -0.08 19.84 -0.11 C22 -0.12 24.15 -0.12 26.31 -0.12 C27.3 -0.14 28.28 -0.15 29.3 -0.16 C37.39 -0.14 46.05 0.62 52.92 5.2 C52.92 5.86 52.92 6.52 52.92 7.2 C53.58 7.2 54.24 7.2 54.92 7.2 C54.92 7.86 54.92 8.52 54.92 9.2 C55.58 9.2 56.24 9.2 56.92 9.2 C60.23 14.58 60.46 19.2 60.61 25.33 C60.66 26.8 60.66 26.8 60.71 28.3 C60.8 31.27 60.87 34.24 60.92 37.2 C60.95 38.38 60.95 38.38 60.97 39.59 C61.19 51.94 60.79 64.29 60.48 76.64 C60.46 77.47 60.45 78.3 60.43 79.16 C60.37 81.55 60.3 83.93 60.24 86.32 C60.22 87.04 60.2 87.76 60.19 88.51 C60.08 92.19 59.71 95.61 58.92 99.2 C58.73 100.86 58.57 102.52 58.42 104.18 C58.34 105.1 58.26 106.02 58.17 106.96 C58 108.88 57.84 110.8 57.67 112.72 C57.59 113.63 57.51 114.55 57.42 115.49 C57.35 116.32 57.28 117.16 57.2 118.01 C56.92 120.2 56.92 120.2 55.92 123.2 C55.74 125.05 55.6 126.91 55.48 128.77 C54.96 135.56 53.86 142.02 51.93 148.55 C50.94 152.12 50.28 155.62 49.67 159.27 C46.89 174.91 42.2 190.23 36.92 205.2 C36.51 206.39 36.1 207.58 35.68 208.81 C31.85 219.74 27.52 230.22 22.26 240.54 C21.24 242.56 20.31 244.62 19.42 246.7 C17.16 251.99 14.52 257.08 11.92 262.2 C11.25 263.54 10.59 264.87 9.92 266.2 C9.26 266.2 8.6 266.2 7.92 266.2 C7.8 266.78 7.69 267.35 7.56 267.94 C6.38 272.11 3.9 275.65 1.67 279.33 C1.14 280.2 0.62 281.08 0.07 281.98 C-3.79 288.3 -7.88 294.43 -12.2 300.45 C-12.76 301.23 -13.31 302.01 -13.89 302.82 C-14.41 303.53 -14.93 304.24 -15.46 304.97 C-15.92 305.6 -16.38 306.22 -16.85 306.87 C-17.46 307.53 -17.46 307.53 -18.08 308.2 C-18.74 308.2 -19.4 308.2 -20.08 308.2 C-20.33 308.92 -20.57 309.63 -20.83 310.37 C-22.22 313.52 -23.92 315.84 -26.08 318.52 C-26.78 319.4 -27.48 320.28 -28.2 321.19 C-28.82 321.86 -29.44 322.52 -30.08 323.2 C-30.74 323.2 -31.4 323.2 -32.08 323.2 C-32.41 324.19 -32.74 325.18 -33.08 326.2 C-33.74 326.2 -34.4 326.2 -35.08 326.2 C-35.34 326.79 -35.61 327.38 -35.88 327.98 C-37.11 330.26 -38.42 331.86 -40.2 333.73 C-40.8 334.38 -41.41 335.03 -42.04 335.69 C-42.98 336.69 -42.98 336.69 -43.95 337.7 C-44.89 338.7 -44.89 338.7 -45.85 339.71 C-47.58 341.55 -49.33 343.38 -51.08 345.2 C-51.84 346.02 -52.61 346.83 -53.4 347.67 C-55.08 349.2 -55.08 349.2 -57.08 349.2 C-57.08 349.86 -57.08 350.52 -57.08 351.2 C-58.02 351.78 -58.02 351.78 -58.97 352.38 C-61.93 354.94 -62.19 357.75 -62.77 361.45 C-62.89 362.16 -63.01 362.87 -63.13 363.61 C-64.09 369.52 -64.52 375.43 -64.84 381.41 C-65.39 390.07 -66.59 398.67 -68.14 407.2 C-69.12 412.74 -69.48 418.25 -69.74 423.86 C-69.88 426.87 -70.12 429.33 -71.08 432.2 C-71.28 433.79 -71.44 435.39 -71.58 436.98 C-71.66 437.91 -71.74 438.83 -71.83 439.79 C-71.91 440.75 -71.99 441.71 -72.08 442.7 C-72.24 444.61 -72.41 446.52 -72.58 448.42 C-72.65 449.27 -72.72 450.11 -72.8 450.98 C-73.08 453.2 -73.08 453.2 -74.08 456.2 C-74.18 458.22 -74.26 460.24 -74.33 462.27 C-74.9 469.8 -76.63 475.66 -81.99 481.16 C-88.45 486.54 -96.77 491.51 -105.08 493.2 C-105.08 493.86 -105.08 494.52 -105.08 495.2 C-106.73 495.53 -108.38 495.86 -110.08 496.2 C-110.08 496.86 -110.08 497.52 -110.08 498.2 C-110.77 498.53 -111.46 498.86 -112.18 499.2 C-118.17 502.11 -123.9 505.23 -129.58 508.7 C-135.03 512.04 -140.55 515.01 -146.3 517.8 C-149.9 519.62 -153.3 521.67 -156.73 523.78 C-158.92 525.11 -161.14 526.35 -163.39 527.58 C-168.37 530.31 -173.16 533.32 -177.96 536.34 C-186.08 541.2 -186.08 541.2 -190.08 541.2 C-190.08 541.86 -190.08 542.52 -190.08 543.2 C-191.26 543.78 -191.26 543.78 -192.46 544.38 C-193.51 544.9 -194.56 545.42 -195.64 545.95 C-196.75 546.5 -197.85 547.04 -198.99 547.6 C-201.34 548.82 -203.41 550.08 -205.58 551.58 C-210.76 553.98 -215.46 554.06 -221.08 553.2 C-227.39 550.76 -231.68 546.11 -235.17 540.42 C-236.36 537.52 -236.49 534.96 -236.68 531.84 C-236.79 529.94 -236.79 529.94 -236.91 528 C-236.99 526.63 -237.07 525.26 -237.14 523.89 C-237.22 522.47 -237.31 521.06 -237.39 519.64 C-237.56 516.8 -237.71 513.96 -237.87 511.13 C-237.99 508.76 -238.13 506.39 -238.26 504.03 C-239.28 486.43 -239.18 468.83 -239.08 451.2 C-240.56 451.34 -242.04 451.49 -243.52 451.64 C-244.34 451.72 -245.16 451.8 -246.01 451.89 C-248.06 451.99 -248.06 451.99 -249.08 453.2 C-251.19 453.68 -253.3 454.15 -255.41 454.6 C-258.16 455.22 -260.86 455.95 -263.58 456.7 C-267.58 457.81 -271.57 458.8 -275.63 459.67 C-277.5 460.08 -279.36 460.51 -281.21 460.96 C-287.52 462.47 -293.62 463.57 -300.08 464.2 C-300.74 464.53 -301.4 464.86 -302.08 465.2 C-308.78 465.79 -313.15 464.26 -319.08 461.2 C-319.74 460.87 -320.4 460.54 -321.08 460.2 C-321.08 459.54 -321.08 458.88 -321.08 458.2 C-321.72 457.93 -322.36 457.67 -323.02 457.39 C-325.08 456.2 -325.08 456.2 -326.08 453.2 C-326.74 452.87 -327.4 452.54 -328.08 452.2 C-330.08 451.2 -330.08 451.2 -331.08 448.2 C-331.74 447.87 -332.4 447.54 -333.08 447.2 C-335.08 446.2 -335.08 446.2 -336.08 443.2 C-336.74 442.87 -337.4 442.54 -338.08 442.2 C-340.08 441.2 -340.08 441.2 -341.08 438.2 C-341.74 437.87 -342.4 437.54 -343.08 437.2 C-345.08 436.2 -345.08 436.2 -346.08 433.2 C-346.74 432.87 -347.4 432.54 -348.08 432.2 C-350.08 431.2 -350.08 431.2 -351.08 428.2 C-351.74 427.87 -352.4 427.54 -353.08 427.2 C-355.08 426.2 -355.08 426.2 -356.08 423.2 C-356.74 422.87 -357.4 422.54 -358.08 422.2 C-360.08 421.2 -360.08 421.2 -361.08 418.2 C-361.74 417.87 -362.4 417.54 -363.08 417.2 C-365.08 416.2 -365.08 416.2 -366.08 413.2 C-366.74 412.87 -367.4 412.54 -368.08 412.2 C-370.08 411.2 -370.08 411.2 -371.08 408.2 C-371.74 407.87 -372.4 407.54 -373.08 407.2 C-375.08 406.2 -375.08 406.2 -376.08 403.2 C-376.74 402.87 -377.4 402.54 -378.08 402.2 C-380.08 401.2 -380.08 401.2 -381.08 398.2 C-381.74 397.87 -382.4 397.54 -383.08 397.2 C-385.08 396.2 -385.08 396.2 -386.08 393.2 C-386.74 392.87 -387.4 392.54 -388.08 392.2 C-390.08 391.2 -390.08 391.2 -391.08 388.2 C-391.74 387.87 -392.4 387.54 -393.08 387.2 C-395.08 386.2 -395.08 386.2 -396.08 383.2 C-396.74 383.2 -397.4 383.2 -398.08 383.2 C-399.33 381.59 -399.33 381.59 -400.64 379.45 C-401.08 378.76 -401.51 378.06 -401.96 377.34 C-405.47 370.63 -404.13 364.19 -402.08 357.2 C-401.93 355.85 -401.81 354.5 -401.7 353.14 C-401.2 347.88 -399.64 343.03 -398.12 337.98 C-396.71 332.86 -395.74 327.71 -394.79 322.48 C-394.14 319.5 -393.22 317.01 -392.08 314.2 C-391.5 311.94 -390.96 309.67 -390.45 307.39 C-389.99 305.33 -389.54 303.27 -389.08 301.2 C-389.99 301.21 -390.89 301.22 -391.83 301.24 C-401 301.3 -410.05 300.91 -419.2 300.27 C-428.51 299.63 -437.8 299.14 -447.13 298.99 C-447.97 298.97 -448.8 298.96 -449.66 298.94 C-453.71 298.87 -457.75 298.82 -461.81 298.81 C-471.37 298.71 -479.27 298.02 -486.52 291.2 C-491.48 285.39 -491.97 280.13 -491.72 272.57 C-491.06 265.68 -487.05 260.5 -483.22 254.95 C-481.52 252.35 -480.18 249.62 -478.83 246.83 C-476.41 241.85 -473.82 237.01 -471.08 232.2 C-470.42 232.2 -469.76 232.2 -469.08 232.2 C-468.99 231.5 -468.9 230.8 -468.81 230.08 C-467.92 226.57 -466.36 224.17 -464.39 221.14 C-461.03 215.88 -458.17 210.52 -455.44 204.9 C-453.93 201.91 -452.23 199.13 -450.42 196.31 C-446.36 189.93 -442.61 183.4 -439.33 176.58 C-436.25 170.27 -432.59 164.37 -428.86 158.43 C-426.57 154.77 -424.48 151.31 -423.08 147.2 C-422.42 147.2 -421.76 147.2 -421.08 147.2 C-420.91 146.48 -420.75 145.76 -420.58 145.02 C-418.38 140.9 -415.23 139.19 -411.08 137.2 C-407.77 136.29 -404.48 135.88 -401.08 135.52 C-399.7 135.34 -399.7 135.34 -398.29 135.17 C-396.43 134.94 -394.57 134.72 -392.7 134.51 C-390.36 134.24 -388.02 133.93 -385.68 133.61 C-379.24 132.74 -372.82 132.09 -366.33 131.7 C-360.87 131.38 -355.61 130.71 -350.23 129.74 C-341.31 128.22 -332.35 127.23 -323.33 126.7 C-317.75 126.37 -312.37 125.68 -306.88 124.68 C-303.31 124.07 -299.74 123.74 -296.14 123.45 C-293.88 123.25 -293.88 123.25 -291.08 122.2 C-290.38 120.88 -289.72 119.55 -289.08 118.2 C-287.39 116.35 -287.39 116.35 -285.52 114.58 C-282.94 112.16 -282.94 112.16 -281.08 109.2 C-280.42 109.2 -279.76 109.2 -279.08 109.2 C-279.08 108.54 -279.08 107.88 -279.08 107.2 C-277.43 105.58 -277.43 105.58 -275.27 103.77 C-272.25 101.23 -272.25 101.23 -269.44 98.48 C-268.08 97.2 -268.08 97.2 -266.08 97.2 C-266.08 96.54 -266.08 95.88 -266.08 95.2 C-263.96 93.26 -263.96 93.26 -261.2 91.08 C-260.3 90.35 -259.39 89.63 -258.46 88.88 C-256.08 87.2 -256.08 87.2 -254.08 87.2 C-253.75 86.21 -253.42 85.22 -253.08 84.2 C-250.52 83.02 -250.52 83.02 -248.08 82.2 C-248.08 81.54 -248.08 80.88 -248.08 80.2 C-246.15 78.65 -244.23 77.23 -242.2 75.83 C-241.58 75.39 -240.97 74.96 -240.33 74.51 C-225.4 64.09 -210.45 54.22 -194.08 46.2 C-192.79 45.56 -191.5 44.91 -190.21 44.26 C-167.68 32.88 -167.68 32.88 -155.84 29.13 C-153.34 28.29 -151.02 27.32 -148.64 26.2 C-143.97 24.04 -139.15 22.61 -134.22 21.14 C-131.55 20.34 -128.91 19.49 -126.27 18.58 C-122.95 17.46 -119.64 16.54 -116.23 15.73 C-113.71 15.11 -111.21 14.41 -108.7 13.7 C-104.45 12.54 -100.2 11.56 -95.86 10.73 C-93.76 10.33 -91.67 9.91 -89.57 9.48 C-81.44 7.82 -73.3 6.36 -65.08 5.2 C-64.27 5.08 -63.47 4.97 -62.64 4.84 C-49 2.84 -35.52 1.67 -21.73 1.36 C-18.91 1.23 -18.91 1.23 -15.46 0.7 C-10.31 0.04 -5.18 0.02 0 0 Z M-41.08 45.2 C-43.28 45.47 -45.49 45.71 -47.7 45.95 C-64.89 47.81 -81.36 50.84 -98.08 55.2 C-99.35 55.53 -100.62 55.87 -101.93 56.21 C-105.65 57.19 -109.37 58.19 -113.08 59.2 C-114.31 59.53 -115.54 59.86 -116.81 60.2 C-122.72 61.83 -128.29 63.57 -133.82 66.21 C-136.46 67.37 -139.14 68.22 -141.89 69.08 C-147.28 70.82 -152.15 73.13 -157.16 75.74 C-161.36 77.85 -165.69 79.55 -170.08 81.2 C-170.08 81.86 -170.08 82.52 -170.08 83.2 C-170.76 83.29 -171.43 83.37 -172.13 83.45 C-175.88 84.41 -178.92 86.23 -182.2 88.2 C-188.74 92.09 -188.74 92.09 -192.08 93.2 C-192.08 93.86 -192.08 94.52 -192.08 95.2 C-194.73 96.28 -197.36 97.3 -200.08 98.2 C-200.08 98.86 -200.08 99.52 -200.08 100.2 C-201.1 100.55 -201.1 100.55 -202.14 100.9 C-205.81 102.53 -208.8 104.7 -212.02 107.08 C-213.21 107.95 -214.41 108.82 -215.61 109.7 C-216.18 110.12 -216.76 110.54 -217.35 110.98 C-219.04 112.18 -220.77 113.29 -222.52 114.4 C-223.36 114.99 -224.21 115.59 -225.08 116.2 C-225.08 116.86 -225.08 117.52 -225.08 118.2 C-225.62 118.44 -226.16 118.68 -226.72 118.92 C-229.71 120.55 -232.19 122.55 -234.83 124.7 C-235.81 125.5 -236.8 126.29 -237.81 127.11 C-238.93 128.15 -238.93 128.15 -240.08 129.2 C-240.08 129.86 -240.08 130.52 -240.08 131.2 C-240.74 131.2 -241.4 131.2 -242.08 131.2 C-242.08 131.86 -242.08 132.52 -242.08 133.2 C-242.67 133.47 -243.26 133.73 -243.86 134 C-246.16 135.25 -247.69 136.55 -249.53 138.39 C-250.15 139.01 -250.77 139.62 -251.41 140.26 C-252.36 141.22 -252.36 141.22 -253.33 142.2 C-253.98 142.85 -254.63 143.49 -255.3 144.15 C-256.22 145.07 -256.22 145.07 -257.16 146.02 C-258 146.86 -258 146.86 -258.86 147.72 C-260.29 149.14 -260.29 149.14 -260.08 151.2 C-260.74 151.2 -261.4 151.2 -262.08 151.2 C-263.56 152.84 -264.96 154.54 -266.33 156.27 C-268.88 159.46 -271.42 162.64 -274.14 165.7 C-277.43 169.5 -280.32 173.57 -283.25 177.65 C-284.4 179.26 -285.59 180.85 -286.82 182.41 C-288.27 184.11 -288.27 184.11 -288.08 186.2 C-288.74 186.2 -289.4 186.2 -290.08 186.2 C-290.57 187.11 -291.07 188.02 -291.58 188.95 C-293.54 192.4 -295.72 195.67 -297.95 198.95 C-301.12 203.65 -303.93 208.42 -306.58 213.42 C-308.19 216.41 -309.91 219.34 -311.64 222.27 C-316.05 229.78 -319.83 237.35 -322.96 245.48 C-324.75 249.85 -326.84 254.08 -328.91 258.32 C-330.33 261.3 -330.33 261.3 -330.08 265.2 C-327.22 266.8 -324.37 267.72 -321.23 268.59 C-307.5 272.48 -294.97 278.42 -283 286.17 C-281 287.44 -281 287.44 -278.08 287.2 C-278.08 287.86 -278.08 288.52 -278.08 289.2 C-276.13 290.8 -276.13 290.8 -273.7 292.33 C-272.89 292.87 -272.08 293.41 -271.24 293.96 C-269.2 295.37 -269.2 295.37 -267.08 295.2 C-267.08 295.86 -267.08 296.52 -267.08 297.2 C-265.43 298.72 -265.43 298.72 -263.33 300.2 C-262.63 300.72 -261.94 301.23 -261.22 301.77 C-259.23 303.1 -257.25 304.19 -255.08 305.2 C-255.08 305.86 -255.08 306.52 -255.08 307.2 C-253.55 308.71 -253.55 308.71 -251.64 310.2 C-248.18 313 -248.18 313 -247.08 315.2 C-246.42 315.2 -245.76 315.2 -245.08 315.2 C-245.08 315.86 -245.08 316.52 -245.08 317.2 C-244.42 317.2 -243.76 317.2 -243.08 317.2 C-242.85 317.73 -242.62 318.26 -242.38 318.81 C-240.66 321.97 -238.48 324.7 -236.27 327.52 C-235.36 328.68 -234.45 329.85 -233.55 331.01 C-232.91 331.84 -232.91 331.84 -232.25 332.69 C-226.54 340.07 -222.13 347.93 -218.02 356.27 C-217.68 356.95 -217.34 357.63 -216.99 358.33 C-216.33 359.67 -215.66 361.01 -215 362.35 C-214.18 364.01 -213.32 365.66 -212.46 367.3 C-211.01 370.35 -210.02 373.34 -209.08 376.58 C-207.6 381.55 -205.97 386.38 -204.08 391.2 C-186.24 391.2 -162.7 374.15 -148.01 365.01 C-145.84 363.67 -143.68 362.38 -141.45 361.14 C-135.59 357.77 -129.68 354.32 -124.43 350.05 C-122.08 348.2 -122.08 348.2 -119.08 347.2 C-119.08 346.54 -119.08 345.88 -119.08 345.2 C-118.52 344.93 -117.95 344.67 -117.38 344.39 C-114.92 343.12 -112.64 341.71 -110.33 340.2 C-109.53 339.69 -108.73 339.17 -107.91 338.64 C-107 337.93 -107 337.93 -106.08 337.2 C-106.08 336.54 -106.08 335.88 -106.08 335.2 C-105.21 334.8 -105.21 334.8 -104.33 334.39 C-102.04 333.18 -100.08 331.83 -98.02 330.27 C-97.01 329.51 -97.01 329.51 -95.98 328.74 C-94.21 327.31 -92.58 325.92 -91.08 324.2 C-91.08 323.54 -91.08 322.88 -91.08 322.2 C-90.52 321.97 -89.96 321.74 -89.39 321.5 C-86.48 319.87 -84.46 317.84 -82.09 315.48 C-80.69 314.09 -80.69 314.09 -79.26 312.66 C-78.78 312.17 -78.3 311.69 -77.8 311.19 C-76.33 309.7 -74.84 308.22 -73.35 306.75 C-72.42 305.81 -71.49 304.88 -70.53 303.92 C-69.68 303.07 -68.82 302.21 -67.94 301.33 C-65.86 299.42 -65.86 299.42 -66.08 297.2 C-65.42 297.2 -64.76 297.2 -64.08 297.2 C-62.54 295.53 -62.54 295.53 -60.95 293.33 C-58.47 290.04 -55.95 286.82 -53.33 283.64 C-41.57 268.95 -31.93 252.76 -23.08 236.2 C-22.49 235.14 -21.9 234.08 -21.3 232.99 C-18.18 227.33 -15.32 221.75 -13.03 215.71 C-11.99 212.97 -10.85 210.28 -9.7 207.58 C-3.32 192.26 1.64 176.84 5.53 160.71 C6.21 157.91 6.92 155.2 7.91 152.5 C9.47 147.41 10.16 142.2 10.98 136.95 C11.33 134.78 11.67 132.61 12.02 130.44 C12.24 129 12.24 129 12.47 127.54 C12.92 125.2 12.92 125.2 13.92 123.2 C14.13 121.06 14.29 118.91 14.42 116.77 C14.64 113.31 14.83 110.49 15.92 107.2 C16.13 105.3 16.29 103.38 16.42 101.47 C16.5 100.34 16.59 99.21 16.67 98.04 C16.75 96.86 16.84 95.67 16.92 94.45 C17.09 92.12 17.25 89.8 17.42 87.47 C17.49 86.44 17.57 85.4 17.64 84.34 C17.84 82.14 18.11 79.96 18.45 77.78 C18.94 74.05 19.04 70.5 19.02 66.74 C19.02 66.06 19.02 65.38 19.02 64.68 C19.01 62.54 19 60.4 18.98 58.27 C18.98 56.8 18.97 55.34 18.97 53.88 C18.96 50.32 18.94 46.76 18.92 43.2 C12.79 43.15 6.65 43.12 0.52 43.09 C-1.56 43.08 -3.64 43.07 -5.72 43.05 C-17.74 42.95 -29.19 43.31 -41.08 45.2 Z M-346.08 172.2 C-348.41 172.38 -350.74 172.52 -353.08 172.64 C-358.76 172.97 -364.28 173.64 -369.88 174.66 C-374.48 175.44 -379.1 175.98 -383.74 176.51 C-386.67 176.85 -389.27 177.27 -392.08 178.2 C-392.41 179.85 -392.74 181.5 -393.08 183.2 C-393.74 183.2 -394.4 183.2 -395.08 183.2 C-395.41 183.9 -395.74 184.59 -396.07 185.3 C-399.32 191.97 -402.88 198.29 -406.75 204.61 C-409.72 209.5 -412.31 214.52 -414.79 219.67 C-415.89 221.84 -417.06 223.78 -418.45 225.77 C-420.36 228.13 -420.36 228.13 -420.08 231.2 C-420.74 231.2 -421.4 231.2 -422.08 231.2 C-424.44 235.47 -424.44 235.47 -425.08 240.2 C-425.74 240.2 -426.4 240.2 -427.08 240.2 C-427.94 241.97 -427.94 241.97 -428.83 243.77 C-430.24 246.6 -431.72 249.35 -433.33 252.08 C-435.24 254.9 -435.24 254.9 -435.08 257.2 C-433.79 257.24 -433.79 257.24 -432.48 257.28 C-429.26 257.38 -426.03 257.47 -422.81 257.58 C-421.42 257.62 -420.04 257.66 -418.65 257.7 C-411.55 257.91 -404.51 258.21 -397.46 259 C-392.96 259.39 -388.46 259.31 -383.95 259.27 C-383 259.26 -382.04 259.26 -381.05 259.25 C-378.73 259.24 -376.4 259.22 -374.08 259.2 C-371.41 253.55 -368.92 247.89 -366.77 242.02 C-364.53 236.08 -361.83 230.48 -358.93 224.85 C-357.4 221.87 -355.96 218.92 -354.64 215.84 C-352.67 211.26 -350.44 206.87 -348.14 202.45 C-347.43 201.09 -347.43 201.09 -346.71 199.71 C-341.96 190.73 -336.59 182.2 -331.01 173.73 C-329.99 172.36 -329.99 172.36 -330.08 171.2 C-331.99 171.18 -333.91 171.16 -335.83 171.14 C-336.9 171.13 -337.96 171.12 -339.06 171.11 C-341.67 171.19 -343.59 171.57 -346.08 172.2 Z M-347.08 308.2 C-347.88 310.52 -347.88 310.52 -348.52 313.22 C-348.9 314.73 -348.9 314.73 -349.29 316.26 C-349.55 317.31 -349.81 318.37 -350.08 319.45 C-350.6 321.52 -351.12 323.59 -351.64 325.66 C-352.01 327.12 -352.01 327.12 -352.39 328.61 C-352.91 330.58 -353.52 332.52 -354.17 334.45 C-355.32 337.93 -355.95 341.47 -356.58 345.08 C-356.82 346.43 -357.05 347.78 -357.3 349.13 C-357.4 349.72 -357.5 350.31 -357.61 350.92 C-358.08 353.2 -358.08 353.2 -359.42 356.96 C-360.01 359.09 -360.01 359.09 -360.08 361.2 C-358.48 363.84 -357.27 365.35 -355.09 367.42 C-354.54 367.98 -353.98 368.55 -353.41 369.13 C-351.58 370.99 -349.71 372.81 -347.83 374.64 C-346.54 375.92 -345.26 377.21 -343.97 378.5 C-341.27 381.19 -338.56 383.87 -335.83 386.53 C-332.34 389.94 -328.89 393.39 -325.44 396.85 C-322.79 399.51 -320.12 402.15 -317.45 404.79 C-316.17 406.06 -314.89 407.33 -313.62 408.6 C-311.84 410.38 -310.04 412.14 -308.23 413.89 C-307.71 414.42 -307.19 414.94 -306.65 415.49 C-302.95 419.02 -300.16 419.99 -295.08 420.2 C-291.31 419.83 -291.31 419.83 -287.45 419.02 C-286.76 418.88 -286.07 418.74 -285.36 418.6 C-279.75 417.45 -274.33 415.87 -268.89 414.11 C-266.05 413.2 -263.22 412.46 -260.33 411.77 C-254.88 410.39 -249.48 408.77 -244.08 407.2 C-244.79 402.75 -245.75 398.51 -247.08 394.2 C-247.32 393.35 -247.57 392.5 -247.82 391.62 C-250.49 382.83 -254.64 375.19 -259.08 367.2 C-259.75 365.87 -260.43 364.54 -261.08 363.2 C-261.74 363.2 -262.4 363.2 -263.08 363.2 C-263.32 362.51 -263.55 361.81 -263.8 361.1 C-265.31 357.68 -267.33 354.85 -269.58 351.89 C-270.18 351.07 -270.18 351.07 -270.8 350.22 C-271.84 348.84 -272.95 347.52 -274.08 346.2 C-274.74 346.2 -275.4 346.2 -276.08 346.2 C-276.41 345.21 -276.74 344.22 -277.08 343.2 C-277.74 343.2 -278.4 343.2 -279.08 343.2 C-279.08 342.54 -279.08 341.88 -279.08 341.2 C-279.74 341.2 -280.4 341.2 -281.08 341.2 C-281.41 340.21 -281.74 339.22 -282.08 338.2 C-282.74 338.2 -283.4 338.2 -284.08 338.2 C-284.08 337.54 -284.08 336.88 -284.08 336.2 C-286.88 333.64 -290.03 331.47 -293.08 329.2 C-294.34 328.22 -294.34 328.22 -295.63 327.21 C-302.67 321.84 -310.07 317.95 -318.08 314.2 C-319.83 313.36 -319.83 313.36 -321.61 312.5 C-334.45 305.64 -334.45 305.64 -347.08 308.2 Z M-114.5 393.77 C-115.41 394.31 -116.33 394.86 -117.28 395.42 C-118.76 396.3 -118.76 396.3 -120.27 397.2 C-122.28 398.4 -124.3 399.6 -126.32 400.8 C-127.81 401.67 -127.81 401.67 -129.32 402.57 C-139.12 408.36 -148.92 414.15 -159.41 418.62 C-162.46 419.94 -165.47 421.32 -168.47 422.75 C-174.43 425.6 -180.38 428.13 -186.63 430.3 C-192.81 432.51 -192.81 432.51 -198.08 436.2 C-198.12 438.93 -198.1 441.62 -198.03 444.35 C-198.01 445.18 -197.99 446.01 -197.97 446.87 C-197.91 449.59 -197.84 452.3 -197.77 455.02 C-197.74 455.93 -197.72 456.84 -197.7 457.78 C-197.37 470.65 -196.81 483.43 -195.08 496.2 C-189.35 493.79 -184.02 491.13 -178.77 487.83 C-173.28 484.45 -167.73 481.48 -161.93 478.68 C-157.96 476.63 -154.3 474.19 -150.57 471.75 C-147.5 469.84 -144.46 468.48 -141.08 467.2 C-141.08 466.54 -141.08 465.88 -141.08 465.2 C-139.89 464.86 -139.89 464.86 -138.69 464.5 C-130.46 461.54 -118.86 457.24 -114.46 449.29 C-113.96 445.86 -113.99 442.67 -114.08 439.2 C-113.8 435.67 -113.4 432.16 -113.02 428.64 C-112.79 426.19 -112.56 423.74 -112.34 421.29 C-112.08 419.2 -111.59 417.24 -111.08 415.2 C-110.88 412.81 -110.71 410.41 -110.58 408.02 C-110.24 402.39 -109.77 396.8 -109.08 391.2 C-111.05 391.2 -112.87 392.79 -114.5 393.77 Z " fill="#000000" transform="translate(858.078125,359.796875)"/>
<path d="M0 0 C5.62 3.29 10.13 8.02 12.62 14.08 C13.59 21.1 13.09 27.03 9.25 33.05 C6.44 36.56 3.1 39.27 -0.38 42.08 C-2.06 43.73 -3.73 45.39 -5.38 47.08 C-32.38 74.08 -59.38 101.08 -86.38 128.08 C-84.86 128.09 -84.86 128.09 -83.32 128.09 C-79.54 128.12 -75.75 128.17 -71.97 128.23 C-70.34 128.26 -68.71 128.27 -67.08 128.28 C-48.79 128.35 -48.79 128.35 -41.38 134.08 C-35.82 140.08 -33.94 144.98 -34.04 153.16 C-34.67 158.64 -37.08 162.86 -41.02 166.68 C-47.39 171.61 -54.21 172.38 -62.01 172.36 C-63.27 172.36 -63.27 172.36 -64.54 172.37 C-67.29 172.39 -70.03 172.39 -72.77 172.38 C-74.69 172.39 -76.61 172.39 -78.53 172.4 C-82.55 172.4 -86.56 172.4 -90.58 172.4 C-95.71 172.39 -100.84 172.41 -105.97 172.43 C-109.93 172.45 -113.89 172.45 -117.85 172.44 C-119.74 172.45 -121.63 172.45 -123.53 172.46 C-126.18 172.47 -128.83 172.47 -131.48 172.45 C-132.25 172.46 -133.02 172.47 -133.81 172.48 C-140.76 172.41 -148.09 170.98 -153.31 166.08 C-153.86 165.59 -154.4 165.09 -154.96 164.58 C-160.37 158.83 -160.67 151.79 -160.65 144.34 C-160.65 143.49 -160.66 142.64 -160.67 141.77 C-160.68 138.99 -160.68 136.21 -160.68 133.43 C-160.68 131.49 -160.68 129.54 -160.69 127.6 C-160.7 123.53 -160.7 119.46 -160.69 115.4 C-160.68 110.2 -160.7 105 -160.73 99.8 C-160.74 95.79 -160.74 91.77 -160.74 87.76 C-160.74 85.84 -160.74 83.93 -160.75 82.01 C-160.77 79.33 -160.76 76.64 -160.75 73.96 C-160.75 73.17 -160.76 72.39 -160.77 71.58 C-160.7 63.91 -158.39 57.02 -153.38 51.08 C-148.02 46.84 -142.9 45.25 -136.09 45.6 C-129.93 46.69 -125.19 49.59 -121.44 54.58 C-117.91 59.94 -117.06 64.88 -116.96 71.23 C-116.94 72 -116.92 72.77 -116.9 73.56 C-116.84 76 -116.8 78.45 -116.75 80.89 C-116.71 82.56 -116.67 84.22 -116.63 85.88 C-116.54 89.95 -116.45 94.02 -116.38 98.08 C-115.6 97.31 -114.83 96.54 -114.03 95.74 C-84.81 66.52 -55.59 37.3 -26.38 8.08 C-25.59 7.24 -24.81 6.39 -24 5.52 C-17.09 -0.9 -9.24 -3.57 0 0 Z " fill="#000000" transform="translate(340.375,927.91796875)"/>
<path d="M0 0 C0.84 -0.01 1.67 -0.01 2.53 -0.02 C5.27 -0.03 8.02 -0.03 10.76 -0.03 C12.68 -0.03 14.6 -0.03 16.52 -0.04 C20.53 -0.05 24.55 -0.05 28.57 -0.04 C33.7 -0.04 38.83 -0.05 43.96 -0.08 C47.92 -0.09 51.88 -0.09 55.84 -0.09 C57.73 -0.09 59.62 -0.09 61.51 -0.1 C64.16 -0.12 66.81 -0.11 69.46 -0.1 C70.24 -0.11 71.01 -0.11 71.8 -0.12 C78.75 -0.05 86.08 1.37 91.3 6.27 C91.84 6.77 92.39 7.26 92.95 7.77 C98.49 13.67 98.66 21.4 98.64 29.04 C98.64 29.88 98.65 30.72 98.65 31.58 C98.67 34.32 98.66 37.06 98.66 39.81 C98.67 41.73 98.67 43.65 98.68 45.57 C98.68 49.58 98.68 53.59 98.68 57.61 C98.67 62.74 98.69 67.87 98.71 73 C98.73 76.96 98.73 80.93 98.72 84.89 C98.72 86.78 98.73 88.67 98.74 90.56 C98.75 93.21 98.75 95.86 98.73 98.51 C98.74 99.28 98.75 100.05 98.76 100.85 C98.68 108.48 96.35 115.37 91.36 121.27 C86.01 125.51 80.88 127.11 74.07 126.76 C67.92 125.66 63.17 122.77 59.42 117.77 C55.9 112.42 55.05 107.47 54.95 101.13 C54.92 99.98 54.92 99.98 54.89 98.8 C54.83 96.35 54.78 93.91 54.74 91.46 C54.7 89.8 54.66 88.14 54.62 86.47 C54.52 82.41 54.44 78.34 54.36 74.27 C53.59 75.05 52.81 75.82 52.02 76.62 C22.8 105.84 -6.42 135.06 -35.64 164.27 C-36.42 165.12 -37.21 165.97 -38.01 166.84 C-44.06 172.45 -48.48 174.02 -56.7 173.72 C-62.66 172.81 -66.62 169.65 -70.51 165.21 C-75.03 158.97 -75.55 153.93 -74.64 146.27 C-72.27 139.11 -67.34 134.89 -61.64 130.27 C-59.95 128.63 -58.28 126.96 -56.64 125.27 C-29.64 98.27 -2.64 71.27 24.36 44.27 C22.85 44.27 22.85 44.27 21.31 44.26 C17.52 44.24 13.74 44.19 9.96 44.12 C8.33 44.1 6.7 44.08 5.07 44.08 C-13.23 44.01 -13.23 44.01 -20.64 38.27 C-26.2 32.27 -28.08 27.38 -27.98 19.2 C-27.34 13.72 -24.93 9.5 -20.99 5.68 C-14.62 0.75 -7.81 -0.02 0 0 Z " fill="#000000" transform="translate(1001.63818359375,179.725341796875)"/>
<path d="M0 0 C0.84 -0.01 1.67 -0.01 2.54 -0.02 C5.28 -0.03 8.02 -0.03 10.76 -0.03 C12.68 -0.03 14.6 -0.03 16.52 -0.04 C20.54 -0.05 24.55 -0.05 28.57 -0.04 C33.7 -0.04 38.83 -0.05 43.96 -0.08 C47.92 -0.09 51.88 -0.09 55.85 -0.09 C57.74 -0.09 59.63 -0.09 61.52 -0.1 C64.17 -0.12 66.82 -0.11 69.46 -0.1 C70.62 -0.11 70.62 -0.11 71.8 -0.12 C79.44 -0.05 86.32 2.29 92.23 7.27 C96.47 12.63 98.07 17.75 97.71 24.56 C96.62 30.72 93.73 35.46 88.73 39.21 C83.37 42.74 78.43 43.59 72.09 43.69 C71.32 43.71 70.55 43.73 69.76 43.75 C67.31 43.81 64.87 43.85 62.42 43.9 C60.76 43.94 59.09 43.98 57.43 44.02 C53.36 44.11 49.3 44.2 45.23 44.27 C46.01 45.05 46.78 45.82 47.58 46.62 C76.79 75.84 106.01 105.06 135.23 134.27 C136.08 135.06 136.92 135.84 137.79 136.65 C143.41 142.7 144.98 147.11 144.68 155.34 C143.77 161.3 140.61 165.25 136.17 169.15 C129.93 173.66 124.88 174.19 117.23 173.27 C110.07 170.91 105.85 165.97 101.23 160.27 C99.59 158.59 97.92 156.92 96.23 155.27 C69.23 128.27 42.23 101.27 15.23 74.27 C15.23 75.28 15.22 76.29 15.22 77.33 C15.2 81.11 15.14 84.9 15.08 88.68 C15.06 90.31 15.04 91.94 15.04 93.57 C14.96 111.86 14.96 111.86 9.23 119.27 C3.23 124.83 -1.67 126.71 -9.85 126.61 C-15.33 125.98 -19.54 123.57 -23.37 119.63 C-28.32 113.23 -29.07 106.38 -29.04 98.53 C-29.05 97.68 -29.05 96.84 -29.06 95.96 C-29.07 93.18 -29.07 90.4 -29.07 87.62 C-29.07 85.68 -29.08 83.73 -29.08 81.79 C-29.09 77.72 -29.09 73.66 -29.08 69.59 C-29.08 64.39 -29.09 59.19 -29.12 53.99 C-29.13 49.98 -29.13 45.97 -29.13 41.95 C-29.13 40.04 -29.14 38.12 -29.15 36.2 C-29.16 33.52 -29.15 30.83 -29.14 28.15 C-29.15 27.37 -29.16 26.58 -29.16 25.78 C-29.1 18.93 -27.53 12.58 -22.77 7.4 C-22.27 6.85 -21.78 6.29 -21.27 5.72 C-15.45 0.11 -7.62 -0.02 0 0 Z " fill="#000000" transform="translate(208.767578125,179.725341796875)"/>
<path d="M0 0 C5.77 2.94 9.44 7.2 13.46 12.16 C15.11 13.85 16.77 15.52 18.46 17.16 C45.46 44.16 72.46 71.16 99.46 98.16 C99.47 97.15 99.47 96.14 99.47 95.11 C99.5 91.32 99.55 87.54 99.61 83.76 C99.64 82.13 99.65 80.5 99.66 78.87 C99.73 60.57 99.73 60.57 105.46 53.16 C111.46 47.6 116.36 45.72 124.54 45.82 C130.02 46.46 134.23 48.87 138.06 52.8 C142.99 59.17 143.76 65.99 143.74 73.8 C143.74 74.63 143.75 75.47 143.75 76.33 C143.76 79.07 143.76 81.82 143.76 84.56 C143.77 86.48 143.77 88.4 143.77 90.32 C143.78 94.33 143.78 98.35 143.78 102.36 C143.77 107.49 143.79 112.62 143.81 117.75 C143.83 121.72 143.83 125.68 143.82 129.64 C143.82 131.53 143.83 133.42 143.84 135.31 C143.85 137.96 143.84 140.61 143.83 143.26 C143.84 144.03 143.85 144.8 143.86 145.6 C143.79 152.55 142.36 159.88 137.46 165.1 C136.97 165.64 136.47 166.19 135.96 166.75 C130.07 172.29 122.34 172.46 114.69 172.43 C113.86 172.44 113.02 172.45 112.16 172.45 C109.41 172.46 106.67 172.46 103.93 172.46 C102.01 172.46 100.09 172.47 98.17 172.47 C94.16 172.48 90.14 172.48 86.13 172.48 C81 172.47 75.86 172.49 70.73 172.51 C66.77 172.52 62.81 172.53 58.85 172.52 C56.96 172.52 55.07 172.53 53.17 172.54 C50.53 172.55 47.88 172.54 45.23 172.53 C44.46 172.54 43.68 172.55 42.89 172.56 C35.25 172.48 28.37 170.15 22.46 165.16 C18.22 159.8 16.63 154.68 16.98 147.87 C18.07 141.71 20.96 136.97 25.96 133.22 C31.32 129.7 36.26 128.85 42.61 128.75 C43.76 128.72 43.76 128.72 44.94 128.69 C47.38 128.63 49.83 128.58 52.27 128.54 C53.94 128.5 55.6 128.46 57.26 128.42 C61.33 128.32 65.39 128.24 69.46 128.16 C68.69 127.39 67.91 126.61 67.12 125.82 C37.9 96.6 8.68 67.38 -20.54 38.16 C-21.38 37.38 -22.23 36.59 -23.1 35.79 C-28.72 29.74 -30.29 25.32 -29.99 17.1 C-29.08 11.14 -25.92 7.18 -21.48 3.29 C-14.86 -1.5 -7.94 -2.63 0 0 Z " fill="#000000" transform="translate(956.5390625,927.83984375)"/>
<path d="M0 0 C6.13 6.18 7.71 12.41 7.83 20.97 C7.81 22.84 7.81 22.84 7.8 24.75 C7.81 26.11 7.82 27.46 7.83 28.81 C7.86 32.45 7.86 36.09 7.85 39.73 C7.85 43.55 7.87 47.36 7.89 51.18 C7.93 58.39 7.94 65.61 7.95 72.82 C7.95 81.04 7.98 89.26 8.02 97.47 C8.09 114.37 8.13 131.26 8.14 148.16 C9.42 147.05 10.7 145.93 11.97 144.82 C12.68 144.2 13.4 143.58 14.13 142.94 C16.57 140.78 18.86 138.49 21.14 136.16 C22.81 134.49 24.47 132.82 26.14 131.16 C26.92 130.31 27.71 129.46 28.52 128.59 C34.18 123.33 39.78 120.77 47.48 120.88 C53.43 121.49 57.56 124.21 61.52 128.59 C66.08 134.47 67.05 139.79 66.14 147.16 C64.39 152.62 61.39 156.32 57.14 160.16 C56.32 160.98 55.49 161.81 54.64 162.66 C37.14 180.16 19.64 197.66 2.14 215.16 C1.44 215.92 0.74 216.68 0.02 217.47 C-1.86 219.16 -1.86 219.16 -4.86 219.16 C-4.86 219.82 -4.86 220.48 -4.86 221.16 C-10.8 221.16 -16.74 221.16 -22.86 221.16 C-22.86 220.5 -22.86 219.84 -22.86 219.16 C-23.42 219.07 -23.97 218.99 -24.55 218.91 C-30.08 217.11 -33.51 212.38 -37.16 208.11 C-39.28 205.67 -41.54 203.41 -43.86 201.16 C-57.19 187.82 -70.53 174.49 -83.86 161.16 C-84.71 160.37 -85.55 159.59 -86.42 158.78 C-91.68 153.11 -94.24 147.51 -94.13 139.82 C-93.52 133.86 -90.8 129.74 -86.42 125.78 C-80.55 121.22 -75.23 120.25 -67.86 121.16 C-62.39 122.91 -58.69 125.91 -54.86 130.16 C-54.03 130.98 -53.21 131.81 -52.36 132.66 C-44.86 140.16 -44.86 140.16 -42.3 142.78 C-40.23 144.79 -38.18 146.46 -35.86 148.16 C-35.86 147.46 -35.86 146.76 -35.86 146.04 C-35.84 129.04 -35.8 112.04 -35.73 95.03 C-35.69 86.81 -35.67 78.59 -35.66 70.37 C-35.66 63.2 -35.64 56.03 -35.6 48.86 C-35.58 45.07 -35.56 41.27 -35.57 37.48 C-35.58 33.9 -35.56 30.33 -35.53 26.75 C-35.52 24.82 -35.53 22.9 -35.54 20.97 C-35.43 12.22 -33.69 6.2 -27.61 -0.22 C-17.78 -6.03 -9.63 -6.13 0 0 Z " fill="#000000" transform="translate(653.859375,1058.84375)"/>
<path d="M0 0 C2.59 1.79 4.64 3.87 6.74 6.2 C7.57 7.03 8.39 7.85 9.24 8.7 C26.74 26.2 44.24 43.7 61.74 61.2 C62.51 61.9 63.27 62.61 64.05 63.33 C65.74 65.2 65.74 65.2 65.74 68.2 C66.4 68.2 67.06 68.2 67.74 68.2 C67.74 74.14 67.74 80.08 67.74 86.2 C67.08 86.2 66.42 86.2 65.74 86.2 C65.66 86.76 65.58 87.32 65.49 87.89 C63.7 93.42 58.97 96.85 54.7 100.51 C52.25 102.63 50 104.89 47.74 107.2 C34.41 120.54 21.08 133.87 7.74 147.2 C6.96 148.05 6.17 148.89 5.37 149.77 C-0.3 155.03 -5.9 157.59 -13.59 157.48 C-19.55 156.87 -23.67 154.15 -27.63 149.77 C-32.2 143.89 -33.17 138.57 -32.26 131.2 C-30.5 125.74 -27.51 122.04 -23.26 118.2 C-22.43 117.38 -21.61 116.55 -20.76 115.7 C-13.26 108.2 -13.26 108.2 -10.63 105.64 C-8.62 103.58 -6.95 101.52 -5.26 99.2 C-5.96 99.2 -6.65 99.2 -7.37 99.2 C-24.37 99.19 -41.38 99.14 -58.38 99.07 C-66.6 99.04 -74.82 99.01 -83.05 99.01 C-90.22 99 -97.38 98.98 -104.55 98.94 C-108.35 98.92 -112.14 98.91 -115.93 98.92 C-119.51 98.92 -123.09 98.91 -126.66 98.88 C-128.59 98.86 -130.52 98.88 -132.44 98.89 C-141.19 98.77 -147.22 97.03 -153.63 90.95 C-157.1 85.08 -159.09 79.32 -157.95 72.47 C-155.73 65.21 -151.58 60.83 -145.02 57.28 C-139.72 55.21 -134.28 55.5 -128.66 55.54 C-127.31 55.54 -125.96 55.52 -124.61 55.51 C-120.96 55.48 -117.32 55.49 -113.68 55.49 C-109.87 55.5 -106.05 55.47 -102.23 55.45 C-95.02 55.41 -87.81 55.4 -80.59 55.4 C-72.37 55.39 -64.16 55.36 -55.94 55.32 C-39.05 55.25 -22.15 55.22 -5.26 55.2 C-6.37 53.92 -7.48 52.65 -8.59 51.37 C-9.21 50.66 -9.83 49.95 -10.47 49.22 C-12.64 46.77 -14.92 44.48 -17.26 42.2 C-18.92 40.54 -20.59 38.87 -22.26 37.2 C-23.1 36.42 -23.95 35.64 -24.82 34.83 C-30.08 29.16 -32.64 23.56 -32.53 15.87 C-31.92 9.91 -29.2 5.79 -24.82 1.83 C-17.24 -4.06 -8.44 -4.81 0 0 Z " fill="#000000" transform="translate(1212.2578125,562.796875)"/>
<path d="M0 0 C5.94 0 11.88 0 18 0 C18 0.66 18 1.32 18 2 C18.56 2.08 19.11 2.17 19.69 2.25 C25.22 4.04 28.65 8.77 32.3 13.05 C34.42 15.49 36.69 17.75 39 20 C52.33 33.33 65.67 46.67 79 60 C79.87 60.85 80.73 61.69 81.62 62.56 C86.5 67.57 89.06 71.73 89.38 78.81 C89.22 84.89 87.52 89.31 83.35 93.76 C77.77 98.8 73.09 100.48 65.56 100.32 C58.89 99.49 54.41 95.89 50 91 C49.17 90.17 48.35 89.35 47.5 88.5 C40 81 40 81 37.44 78.38 C35.37 76.36 33.32 74.7 31 73 C31 73.7 31 74.4 31 75.12 C30.96 92.16 30.9 109.19 30.82 126.23 C30.78 134.46 30.74 142.7 30.73 150.94 C30.72 158.12 30.69 165.3 30.65 172.48 C30.62 176.29 30.61 180.09 30.61 183.89 C30.61 187.47 30.59 191.05 30.56 194.63 C30.55 196.57 30.55 198.5 30.56 200.43 C30.46 208.95 29.27 213.31 23.56 219.75 C18.34 224.33 13.97 226.19 7 226 C0.74 224.77 -4.39 222.48 -8.29 217.28 C-12.6 210.44 -12.71 204.34 -12.66 196.4 C-12.67 195.05 -12.68 193.7 -12.69 192.35 C-12.72 188.71 -12.72 185.07 -12.71 181.42 C-12.71 177.61 -12.73 173.79 -12.75 169.98 C-12.79 162.76 -12.8 155.55 -12.81 148.33 C-12.81 140.12 -12.84 131.9 -12.88 123.68 C-12.95 106.79 -12.99 89.89 -13 73 C-14.28 74.11 -15.56 75.22 -16.83 76.34 C-17.9 77.26 -17.9 77.26 -18.99 78.21 C-21.43 80.38 -23.72 82.66 -26 85 C-27.67 86.67 -29.33 88.33 -31 90 C-31.78 90.85 -32.57 91.69 -33.38 92.56 C-39.04 97.82 -44.64 100.38 -52.34 100.27 C-58.29 99.66 -62.41 96.94 -66.38 92.56 C-70.94 86.69 -71.91 81.37 -71 74 C-69.24 68.53 -66.25 64.83 -62 61 C-61.17 60.17 -60.35 59.35 -59.5 58.5 C-42 41 -24.5 23.5 -7 6 C-5.95 4.86 -5.95 4.86 -4.88 3.69 C-3 2 -3 2 0 2 C0 1.34 0 0.68 0 0 Z " fill="#000000" transform="translate(631,0)"/>
<path d="M0 0 C6.01 2.72 9.82 7.06 13.15 12.66 C14.73 19.47 14.47 25.48 10.98 31.61 C9.19 34.2 7.11 36.25 4.77 38.35 C3.95 39.18 3.12 40 2.27 40.85 C-5.23 48.35 -5.23 48.35 -7.85 50.91 C-9.86 52.98 -11.53 55.03 -13.23 57.35 C-12.53 57.35 -11.83 57.35 -11.11 57.35 C5.89 57.37 22.89 57.41 39.89 57.48 C48.12 57.52 56.34 57.54 64.56 57.55 C71.73 57.55 78.9 57.57 86.07 57.61 C89.86 57.63 93.66 57.65 97.45 57.64 C101.03 57.63 104.6 57.65 108.18 57.68 C110.11 57.69 112.03 57.68 113.96 57.67 C122.71 57.78 128.73 59.52 135.15 65.6 C138.66 71.55 140.54 77.23 139.41 84.15 C137.33 91.35 133.02 95.53 126.77 99.35 C123.66 100.39 121.48 100.49 118.21 100.51 C117.05 100.52 115.9 100.53 114.71 100.54 C113.44 100.55 112.17 100.55 110.86 100.56 C109.51 100.57 108.16 100.58 106.81 100.59 C103.14 100.61 99.47 100.63 95.8 100.65 C91.97 100.68 88.14 100.7 84.31 100.73 C77.05 100.78 69.8 100.83 62.54 100.87 C54.28 100.92 46.02 100.97 37.76 101.03 C20.76 101.14 3.77 101.25 -13.23 101.35 C-12.12 102.63 -11 103.91 -9.89 105.18 C-8.96 106.25 -8.96 106.25 -8.01 107.34 C-5.85 109.78 -3.57 112.07 -1.23 114.35 C0.44 116.02 2.11 117.68 3.77 119.35 C4.64 120.2 5.51 121.04 6.4 121.91 C11.27 126.92 13.83 131.08 14.15 138.16 C13.99 144.24 12.3 148.66 8.12 153.11 C2.55 158.15 -2.14 159.84 -9.66 159.67 C-16.33 158.84 -20.82 155.24 -25.23 150.35 C-26.05 149.53 -26.88 148.7 -27.73 147.85 C-45.23 130.35 -62.73 112.85 -80.23 95.35 C-81.37 94.3 -81.37 94.3 -82.54 93.23 C-84.23 91.35 -84.23 91.35 -84.23 88.35 C-84.89 88.35 -85.55 88.35 -86.23 88.35 C-86.23 82.41 -86.23 76.47 -86.23 70.35 C-85.57 70.35 -84.91 70.35 -84.23 70.35 C-84.14 69.79 -84.06 69.24 -83.98 68.66 C-82.18 63.13 -77.45 59.7 -73.18 56.05 C-70.74 53.93 -68.48 51.67 -66.23 49.35 C-52.89 36.02 -39.56 22.68 -26.23 9.35 C-25.44 8.51 -24.66 7.66 -23.85 6.79 C-17.02 0.45 -9.22 -2.69 0 0 Z " fill="#000000" transform="translate(86.2265625,560.6484375)"/>
<path d="M0 0 C0.79 0 1.58 0.01 2.39 0.01 C8.4 0.13 13.56 0.97 19.12 3.31 C19.84 3.58 20.56 3.85 21.3 4.12 C28.09 6.83 34.38 10.82 40.12 15.31 C40.12 15.97 40.12 16.63 40.12 17.31 C41.61 17.81 41.61 17.81 43.12 18.31 C43.12 18.97 43.12 19.63 43.12 20.31 C43.78 20.31 44.44 20.31 45.12 20.31 C46.41 21.74 46.41 21.74 47.75 23.62 C48.2 24.24 48.64 24.85 49.1 25.49 C50.12 27.31 50.12 27.31 50.12 30.31 C50.78 30.31 51.44 30.31 52.12 30.31 C59.76 44.14 61.01 61.1 57.12 76.31 C54.32 85.48 49.54 93.23 43.12 100.31 C41.64 100.81 41.64 100.81 40.12 101.31 C39.63 102.8 39.63 102.8 39.12 104.31 C38.47 104.31 37.81 104.31 37.12 104.31 C37.12 104.97 37.12 105.63 37.12 106.31 C34.9 107.61 32.67 108.9 30.44 110.19 C29.5 110.73 29.5 110.73 28.54 111.29 C15.6 118.75 -0.02 120.76 -14.62 117.25 C-31.58 111.65 -45.08 101.38 -53.62 85.5 C-59.93 71.92 -61.27 55.62 -56.97 41.18 C-53.17 31.26 -47.81 22.47 -39.88 15.31 C-39.22 15.31 -38.55 15.31 -37.88 15.31 C-37.88 14.65 -37.88 13.99 -37.88 13.31 C-36.55 12.98 -35.24 12.65 -33.88 12.31 C-33.88 11.65 -33.88 10.99 -33.88 10.31 C-23.11 4.01 -12.62 -0.09 0 0 Z M-13.19 48.69 C-16.14 53.29 -17.43 56.8 -16.88 62.31 C-14.75 68.47 -12.23 71.74 -6.88 75.31 C-1.43 76.02 4.51 76.62 9.53 74.11 C13.44 70.83 15.91 67.62 16.39 62.44 C16.38 60.89 16.38 60.89 16.38 59.31 C16.38 58.28 16.39 57.25 16.39 56.19 C15.96 51.55 14.65 49.8 11.25 46.62 C3.73 41.06 -6.58 41.9 -13.19 48.69 Z " fill="#000000" transform="translate(777.875,441.6875)"/>
<path d="M0 0 C3.31 1.48 5.56 3.34 8 6 C9.18 7.27 9.18 7.27 10.38 8.56 C13.91 13.87 14.99 18.69 14 25 C12.69 28.56 11.19 31.89 9 35 C7.51 35.5 7.51 35.5 6 36 C5.29 37.31 4.63 38.65 4 40 C2.65 41.6 2.65 41.6 1.08 43.18 C0.48 43.78 -0.12 44.38 -0.73 45 C-1.39 45.65 -2.04 46.3 -2.71 46.97 C-3.4 47.66 -4.09 48.36 -4.8 49.07 C-7.08 51.36 -9.37 53.64 -11.66 55.92 C-13.24 57.51 -14.82 59.09 -16.41 60.68 C-19.73 64 -23.05 67.32 -26.38 70.64 C-30.65 74.9 -34.91 79.16 -39.17 83.44 C-42.44 86.71 -45.71 89.98 -48.98 93.25 C-50.56 94.82 -52.13 96.4 -53.7 97.97 C-55.89 100.17 -58.09 102.36 -60.29 104.55 C-61.27 105.53 -61.27 105.53 -62.27 106.54 C-66.77 111 -66.77 111 -69 111 C-69 111.66 -69 112.32 -69 113 C-74.83 117.98 -80.56 119.95 -88.17 119.51 C-95.11 118.26 -99.91 114.01 -103.87 108.31 C-106.51 102.91 -106.24 97.28 -105.62 91.44 C-100.13 79.82 -87.21 70.05 -78.22 61.05 C-76.6 59.43 -74.98 57.81 -73.37 56.19 C-69.99 52.81 -66.62 49.43 -63.24 46.06 C-58.91 41.72 -54.58 37.38 -50.25 33.04 C-46.92 29.69 -43.59 26.36 -40.25 23.02 C-38.65 21.42 -37.05 19.82 -35.46 18.21 C-33.24 15.99 -31.01 13.76 -28.79 11.54 C-28.12 10.88 -27.46 10.21 -26.78 9.52 C-26.18 8.92 -25.57 8.32 -24.95 7.7 C-24.43 7.18 -23.9 6.65 -23.36 6.11 C-22 5 -22 5 -20 5 C-20 4.34 -20 3.68 -20 3 C-14.15 -1.55 -6.99 -0.92 0 0 Z " fill="#000000" transform="translate(474,792)"/>
<path d="M0 0 C5.6 3.32 10.11 8.02 12.61 14.09 C13.75 22.37 12.41 28.3 7.61 35.09 C6.95 35.09 6.29 35.09 5.61 35.09 C5.28 36.08 4.95 37.07 4.61 38.09 C3.95 38.09 3.29 38.09 2.61 38.09 C2.61 38.75 2.61 39.41 2.61 40.09 C1.95 40.09 1.29 40.09 0.61 40.09 C0.28 41.08 -0.05 42.07 -0.39 43.09 C-1.05 43.09 -1.71 43.09 -2.39 43.09 C-2.39 43.75 -2.39 44.41 -2.39 45.09 C-3.05 45.09 -3.71 45.09 -4.39 45.09 C-4.72 46.08 -5.05 47.07 -5.39 48.09 C-6.05 48.09 -6.71 48.09 -7.39 48.09 C-7.39 48.75 -7.39 49.41 -7.39 50.09 C-8.05 50.09 -8.71 50.09 -9.39 50.09 C-9.72 51.08 -10.05 52.07 -10.39 53.09 C-11.05 53.09 -11.71 53.09 -12.39 53.09 C-12.39 53.75 -12.39 54.41 -12.39 55.09 C-13.05 55.09 -13.71 55.09 -14.39 55.09 C-14.72 56.08 -15.05 57.07 -15.39 58.09 C-16.05 58.09 -16.71 58.09 -17.39 58.09 C-17.39 58.75 -17.39 59.41 -17.39 60.09 C-18.05 60.09 -18.71 60.09 -19.39 60.09 C-19.72 61.08 -20.05 62.07 -20.39 63.09 C-21.05 63.09 -21.71 63.09 -22.39 63.09 C-22.39 63.75 -22.39 64.41 -22.39 65.09 C-23.05 65.09 -23.71 65.09 -24.39 65.09 C-24.88 66.57 -24.88 66.57 -25.39 68.09 C-26.05 68.09 -26.71 68.09 -27.39 68.09 C-27.39 68.75 -27.39 69.41 -27.39 70.09 C-32.84 75.13 -38.89 77.54 -46.36 77.35 C-50.92 76.76 -54.6 74.62 -58.39 72.09 C-58.39 71.43 -58.39 70.77 -58.39 70.09 C-59.05 70.09 -59.71 70.09 -60.39 70.09 C-64.51 65.62 -65.88 60.26 -65.7 54.24 C-64.71 47.53 -61.42 42.51 -56.39 38.09 C-55.56 37.26 -54.74 36.44 -53.89 35.59 C-46.39 28.09 -38.89 20.59 -31.39 13.09 C-30.62 12.31 -29.86 11.52 -29.07 10.71 C-20.58 2.42 -12.68 -4.84 0 0 Z " fill="#000000" transform="translate(525.38671875,842.91015625)"/>
<path d="M0 0 C4.78 3.91 7.7 7.34 8.41 13.61 C8.45 14.99 8.48 16.37 8.5 17.75 C8.54 18.43 8.58 19.11 8.62 19.8 C8.75 27.76 3.36 32.68 -1.87 38.15 C-3.32 39.61 -4.76 41.07 -6.21 42.52 C-6.99 43.29 -7.76 44.07 -8.56 44.87 C-10.19 46.51 -11.82 48.14 -13.45 49.76 C-15.94 52.25 -18.41 54.74 -20.88 57.24 C-22.47 58.83 -24.06 60.43 -25.65 62.02 C-26.38 62.76 -27.12 63.5 -27.87 64.26 C-34.07 70.4 -39.56 74.52 -48.5 75.11 C-53.9 74.88 -59.08 72.76 -63 69 C-63 68.34 -63 67.68 -63 67 C-63.66 67 -64.32 67 -65 67 C-69.41 61.71 -69.1 54.87 -68.88 48.31 C-67.72 43.93 -65.91 41.48 -63 38 C-62.34 38 -61.68 38 -61 38 C-60.73 37.36 -60.46 36.72 -60.19 36.06 C-59 34 -59 34 -56 33 C-55.67 32.34 -55.34 31.68 -55 31 C-54 29 -54 29 -51 28 C-50.67 27.34 -50.34 26.68 -50 26 C-49 24 -49 24 -46 23 C-45.67 22.34 -45.34 21.68 -45 21 C-44 19 -44 19 -41 18 C-40.67 17.34 -40.34 16.68 -40 16 C-39 14 -39 14 -36 13 C-35.67 12.34 -35.34 11.68 -35 11 C-34 9 -34 9 -31 8 C-30.67 7.34 -30.34 6.68 -30 6 C-29 4 -29 4 -26 3 C-26 2.34 -26 1.68 -26 1 C-17.36 -5.1 -9.14 -4.91 0 0 Z " fill="#000000" transform="translate(430,746)"/>
</svg>
