<svg width="102" height="111" viewBox="0 0 102 111" fill="none" xmlns="http://www.w3.org/2000/svg">
<rect x="0.936035" y="1" width="100.128" height="109" rx="12" stroke="#D4DAE2"/>
<rect x="8.93604" y="10" width="83.593" height="91" rx="3" fill="#F6F7F9"/>
<path d="M30 75.5522C30 71.9912 32.8868 69.1045 36.4478 69.1045H65.4627C69.0237 69.1045 71.9104 71.9912 71.9104 75.5522C71.9104 79.1132 69.0237 82 65.4627 82H36.4478C32.8868 82 30 79.1132 30 75.5522Z" fill="#D4DAE2"/>
<path d="M65.4627 56.209H36.9851C33.1273 56.209 30 59.0957 30 62.6567C30 66.2177 33.1273 69.1045 36.9851 69.1045H65.4627C69.0237 69.1045 71.9104 66.2177 71.9104 62.6567C71.9104 59.0957 69.0237 56.209 65.4627 56.209Z" fill="#194BFB"/>
<path fill-rule="evenodd" clip-rule="evenodd" d="M49.0914 42.0353L46.7713 39.7152C45.827 38.7709 44.2961 38.7709 43.3518 39.7152C42.4076 40.6594 42.4076 42.1904 43.3518 43.1346L47.52 47.3028C49.7232 49.506 53.2954 49.506 55.4987 47.3028L59.6668 43.1346C60.6111 42.1904 60.6111 40.6594 59.6668 39.7152C58.7226 38.7709 57.1916 38.7709 56.2474 39.7152L53.9272 42.0353L53.9272 30.4179C53.9272 29.0825 52.8447 28 51.5093 28C50.174 28 49.0914 29.0825 49.0914 30.4179L49.0914 42.0353Z" fill="#194BFB"/>
</svg>
