<svg width="102" height="111" viewBox="0 0 102 111" fill="none" xmlns="http://www.w3.org/2000/svg">
<rect x="0.936035" y="1" width="100.128" height="109" rx="12" stroke="#D4DAE2"/>
<rect x="9" y="10" width="83.593" height="91" rx="3" fill="#F6F7F9"/>
<path d="M71 77L71 47H31V77C31 79.7614 33.9848 82 37.6667 82H64.3333C68.0152 82 71 79.7614 71 77Z" fill="#D4DAE2"/>
<path d="M65.4627 28H36.9851C33.1273 28 30 30.8868 30 34.4478C30 38.0088 33.1273 40.8955 36.9851 40.8955H65.4627C69.0237 40.8955 71.9104 38.0088 71.9104 34.4478C71.9104 30.8868 69.0237 28 65.4627 28Z" fill="#194BFB"/>
<path fill-rule="evenodd" clip-rule="evenodd" d="M48.7164 56.9309L46.3963 54.6107C45.452 53.6665 43.9211 53.6665 42.9768 54.6107C42.0326 55.555 42.0326 57.0859 42.9768 58.0302L47.145 62.1983C49.3482 64.4016 52.9204 64.4016 55.1237 62.1983L59.2918 58.0302C60.2361 57.0859 60.2361 55.555 59.2918 54.6108C58.3476 53.6665 56.8166 53.6665 55.8724 54.6108L53.5522 56.9309L53.5522 45.3135C53.5522 43.9781 52.4697 42.8955 51.1343 42.8955C49.799 42.8955 48.7164 43.9781 48.7164 45.3135L48.7164 56.9309Z" fill="#194BFB"/>
</svg>
