<svg width="102" height="111" viewBox="0 0 102 111" fill="none" xmlns="http://www.w3.org/2000/svg">
<rect x="0.936035" y="1" width="100.128" height="109" rx="12" stroke="#D4DAE2"/>
<rect x="8.93604" y="10" width="83.593" height="91" rx="3" fill="#F6F7F9"/>
<path fill-rule="evenodd" clip-rule="evenodd" d="M26 28C24.8954 28 24 28.8954 24 30V47.6C24 48.7046 24.8954 49.6 26 49.6H49C50.1046 49.6 51 48.7046 51 47.6V30C51 28.8954 50.1046 28 49 28H26ZM61.5779 52.8004L64.3248 52.8759L55.7806 43.8487C55.0118 43.0364 55.047 41.7547 55.8593 40.986C56.6715 40.2172 57.9532 40.2524 58.722 41.0647L67.2662 50.0919L67.3417 47.345C67.3724 46.227 68.3036 45.3456 69.4216 45.3764C70.5395 45.4071 71.4209 46.3383 71.3902 47.4563L71.2545 52.3912C71.1828 54.9997 69.01 57.0562 66.4015 56.9845L61.4666 56.8489C60.3486 56.8181 59.4673 55.8869 59.498 54.769C59.5287 53.651 60.4599 52.7697 61.5779 52.8004Z" fill="#D4DAE2"/>
<rect x="51" y="60.4" width="27" height="21.6" rx="2" fill="#194BFB"/>
<path fill-rule="evenodd" clip-rule="evenodd" d="M34.7353 59.9081L34.6598 62.655C34.6291 63.7729 33.6979 64.6543 32.5799 64.6236C31.462 64.5928 30.5806 63.6616 30.6113 62.5437L30.747 57.6088C30.8187 55.0002 32.9915 52.9437 35.6 53.0154L40.5349 53.1511C41.6529 53.1818 42.5342 54.113 42.5035 55.231C42.4728 56.3489 41.5416 57.2303 40.4236 57.1996L37.6767 57.124L46.2209 66.1513C46.9897 66.9635 46.9545 68.2452 46.1422 69.014C45.33 69.7828 44.0483 69.7475 43.2795 68.9353L34.7353 59.9081Z" fill="#194BFB"/>
</svg>
