<svg width="48" height="48" viewBox="0 0 48 48" fill="none"
                                    xmlns="http://www.w3.org/2000/svg">
                                    <g clip-path="url(#clip0_55_89)">
                                        <path
                                            d="M22.77 30.5499C24.992 30.5419 29.85 30.5239 29.794 27.4339C29.74 24.2739 25.074 24.4639 22.8 24.5579C22.546 24.5679 22.32 24.5779 22.136 24.5799L22.24 30.5539C22.39 30.5499 22.57 30.5499 22.77 30.5499ZM22.534 21.8439C24.388 21.8419 28.434 21.8379 28.386 19.0279C28.334 16.1539 24.448 16.3239 22.55 16.4079C22.336 16.4179 22.15 16.4259 21.994 16.4279L22.088 21.8459L22.534 21.8439Z"
                                            fill="#194BFB" />
                                        <path fill-rule="evenodd" clip-rule="evenodd"
                                            d="M18.192 47.282C31.052 50.488 44.076 42.662 47.282 29.806C50.488 16.948 42.66 3.92399 29.8 0.719987C16.948 -2.48801 3.92402 5.33999 0.720025 18.2C-2.48598 31.056 5.34002 44.08 18.194 47.284L18.192 47.282ZM26.756 13.242C30.264 13.49 33.056 14.518 33.422 17.726C33.694 20.074 32.734 21.504 31.176 22.332C33.776 22.908 35.426 24.418 35.166 27.874C34.844 32.164 31.67 33.37 27.114 33.71L27.19 38.21L24.478 38.26L24.4 33.82C23.698 33.832 22.978 33.84 22.232 33.836L22.312 38.296L19.6 38.344L19.52 33.836L18.754 33.842C18.366 33.844 17.974 33.846 17.582 33.854L14.05 33.914L14.532 30.666C14.532 30.666 16.54 30.662 16.504 30.632C17.272 30.616 17.466 30.062 17.508 29.714L17.386 22.6L17.58 22.596H17.672C17.5764 22.585 17.4802 22.5804 17.384 22.582L17.296 17.502C17.182 16.954 16.814 16.322 15.716 16.342C15.746 16.302 13.744 16.376 13.744 16.376L13.692 13.48L17.436 13.416V13.43C17.998 13.42 18.576 13.4 19.162 13.378L19.086 8.91999L21.798 8.87399L21.874 13.242C22.598 13.216 23.326 13.188 24.04 13.176L23.964 8.83599L26.678 8.78799L26.756 13.246V13.242Z"
                                            fill="#194BFB" />
                                    </g>
                                    <defs>
                                        <clipPath id="clip0_55_89">
                                            <rect width="48" height="48" fill="white" />
                                        </clipPath>
                                    </defs>
                                </svg>