<svg width="40" height="41" viewBox="0 0 40 41" fill="none" xmlns="http://www.w3.org/2000/svg">
<g clip-path="url(#clip0_207_2993)">
<path d="M40 20.5C40 24.4556 38.827 28.3224 36.6294 31.6114C34.4318 34.9004 31.3082 37.4638 27.6537 38.9776C23.9992 40.4913 19.9778 40.8874 16.0982 40.1157C12.2186 39.344 8.65492 37.4392 5.85787 34.6421C3.06082 31.8451 1.15601 28.2814 0.384303 24.4018C-0.387401 20.5222 0.0086656 16.5009 1.52242 12.8463C3.03617 9.19181 5.59962 6.06824 8.8886 3.87061C12.1776 1.67298 16.0444 0.5 20 0.5C25.3043 0.5 30.3914 2.60714 34.1421 6.35786C37.8929 10.1086 40 15.1957 40 20.5Z" fill="#F7931A"/>
<path fill-rule="evenodd" clip-rule="evenodd" d="M14.2147 9.63261L18.8111 10.8635L19.8383 7.03442L22.1365 7.65806L21.1492 11.329L23.0238 11.8326L24.0129 8.1217L26.3511 8.74715L25.3438 12.4781C25.3438 12.4781 29.162 13.3235 30.0602 16.429C30.9583 19.5344 28.0856 21.1653 27.1983 21.2272C27.1983 21.2272 30.5438 23.0617 29.3947 26.6708C28.2456 30.2799 24.7183 30.9253 21.0074 30.0981L20.0002 33.9672L17.662 33.3417L18.6892 29.5326L16.8347 29.0272L15.8074 32.8635L13.4874 32.2399L14.5165 28.4217L9.79834 27.149L10.9874 24.509C10.9874 24.509 12.3183 24.8726 12.822 24.9926C13.3256 25.1126 13.6492 24.589 13.7911 24.0653C13.9329 23.5417 16.0692 14.8635 16.2711 14.149C16.4729 13.4344 16.3911 12.8762 15.5438 12.6562C14.6965 12.4362 13.5438 12.0926 13.5438 12.0926L14.2147 9.63261ZM18.8511 21.1253L17.5783 26.1853C17.5783 26.1853 23.8892 28.4635 24.6965 25.2581C25.5038 22.0526 18.8511 21.1253 18.8511 21.1253ZM19.4365 18.7253L20.6856 14.089C20.6856 14.089 26.0893 15.0562 25.4238 17.6362C24.7583 20.2162 21.5729 19.2272 19.4365 18.7253Z" fill="white"/>
</g>
<defs>
<clipPath id="clip0_207_2993">
<rect width="40" height="40" fill="white" transform="translate(0 0.5)"/>
</clipPath>
</defs>
</svg>
