<svg width="46" height="46" viewBox="0 0 46 46" fill="none" xmlns="http://www.w3.org/2000/svg">
<circle cx="23" cy="23" r="23" fill="#E8E9EA"/>
<path fill-rule="evenodd" clip-rule="evenodd" d="M22.9999 12.5C18.7143 12.5 15.0476 15.1405 13.5339 18.88C13.3526 19.328 13.5687 19.8381 14.0167 20.0194C14.4646 20.2007 14.9747 19.9846 15.156 19.5366C16.4115 16.4352 19.4515 14.25 22.9999 14.25C27.1663 14.25 30.6294 17.2627 31.3292 21.228L30.3912 20.759C29.9589 20.5429 29.4334 20.7181 29.2172 21.1504C29.0011 21.5826 29.1763 22.1082 29.6086 22.3243L30.6521 22.846C31.2074 23.1237 31.8189 23.2289 32.4134 23.1681C32.9823 23.1099 33.5365 22.8996 34.0119 22.5431L35.1915 21.6583C35.5781 21.3684 35.6565 20.8199 35.3665 20.4333C35.0766 20.0467 34.5281 19.9684 34.1415 20.2583L33.0754 21.0579C32.2863 16.2045 28.0759 12.5 22.9999 12.5ZM12.768 24.1359C12.806 24.1169 12.8445 24.0997 12.8835 24.0843C13.5554 29.0715 17.8286 32.9167 22.9999 32.9167C27.2854 32.9167 30.9521 30.2762 32.4658 26.5366C32.6472 26.0887 32.431 25.5786 31.9831 25.3973C31.5351 25.2159 31.025 25.4321 30.8437 25.88C29.5883 28.9814 26.5482 31.1667 22.9999 31.1667C18.9863 31.1667 15.6257 28.3713 14.7588 24.6212L15.4749 25.1583C15.8615 25.4483 16.4099 25.3699 16.6999 24.9833C16.9898 24.5967 16.9115 24.0483 16.5249 23.7583L15.3452 22.8736C14.373 22.1444 13.0723 22.0272 11.9854 22.5706L10.9419 23.0924C10.5097 23.3085 10.3345 23.8341 10.5506 24.2663C10.7667 24.6985 11.2923 24.8737 11.7245 24.6576L12.768 24.1359ZM23.875 16.2917C23.875 15.8084 23.4832 15.4167 23 15.4167C22.5168 15.4167 22.125 15.8084 22.125 16.2917V17.2874C20.7784 17.6683 19.7917 18.9064 19.7917 20.375C19.7917 22.1469 21.2281 23.5833 23 23.5833C23.8054 23.5833 24.4583 24.2363 24.4583 25.0417C24.4583 25.8471 23.8054 26.5 23 26.5C22.1946 26.5 21.5417 25.8471 21.5417 25.0417C21.5417 24.5584 21.1499 24.1667 20.6667 24.1667C20.1834 24.1667 19.7917 24.5584 19.7917 25.0417C19.7917 26.5102 20.7784 27.7484 22.125 28.1292V29.125C22.125 29.6082 22.5168 30 23 30C23.4832 30 23.875 29.6082 23.875 29.125V28.1292C25.2216 27.7484 26.2083 26.5102 26.2083 25.0417C26.2083 23.2698 24.7719 21.8333 23 21.8333C22.1946 21.8333 21.5417 21.1804 21.5417 20.375C21.5417 19.5696 22.1946 18.9167 23 18.9167C23.8054 18.9167 24.4583 19.5696 24.4583 20.375C24.4583 20.8582 24.8501 21.25 25.3333 21.25C25.8166 21.25 26.2083 20.8582 26.2083 20.375C26.2083 18.9064 25.2216 17.6683 23.875 17.2874V16.2917Z" fill="#666A72"/>
</svg>
