<svg width="20" height="20" viewBox="0 0 20 20" fill="none" xmlns="http://www.w3.org/2000/svg">
<path fill-rule="evenodd" clip-rule="evenodd" d="M5 3.33334H15C16.841 3.33334 18.3333 4.82573 18.3333 6.66668V10.8333C18.3333 11.2936 17.9602 11.6667 17.5 11.6667H15C13.159 11.6667 11.6667 13.1591 11.6667 15V15.8333C11.6667 16.2936 11.2936 16.6667 10.8333 16.6667H5C3.15905 16.6667 1.66667 15.1743 1.66667 13.3333V6.66667C1.66667 4.82572 3.15905 3.33334 5 3.33334ZM5 5.83336C5.46024 5.83336 5.83333 6.20646 5.83333 6.6667C5.83333 7.12693 5.46024 7.50003 5 7.50003C4.53976 7.50003 4.16667 7.12693 4.16667 6.6667C4.16667 6.20646 4.53976 5.83336 5 5.83336ZM11.6667 10C11.6667 9.07956 10.9205 8.33336 10 8.33336C9.07952 8.33336 8.33333 9.07956 8.33333 10C8.33333 10.9205 9.07952 11.6667 10 11.6667C10.9205 11.6667 11.6667 10.9205 11.6667 10ZM15.0968 13.7753L14.497 14.375H17.5C17.8452 14.375 18.125 14.6549 18.125 15C18.125 15.3452 17.8452 15.625 17.5 15.625H14.497L15.0968 16.2248C15.3408 16.4688 15.3408 16.8646 15.0968 17.1086C14.8527 17.3527 14.457 17.3527 14.2129 17.1086L13.1355 16.0312C12.566 15.4617 12.566 14.5383 13.1355 13.9688L14.2129 12.8914C14.457 12.6473 14.8527 12.6473 15.0968 12.8914C15.3408 13.1355 15.3408 13.5312 15.0968 13.7753Z" fill="white"/>
</svg>
