<svg width="62" height="62" viewBox="0 0 62 62" fill="none" xmlns="http://www.w3.org/2000/svg">
<rect x="0.959473" y="0.122009" width="61" height="61" rx="13.496" fill="#ECEBFF"/>
<path d="M49.3067 33.7952L49.3145 33.791H49.2992L40.3118 28.9555L31.3095 24.1115L22.3069 28.9555L13.3195 33.791H13.3042L13.312 33.7952L13.3042 33.7995H13.3195L22.3069 38.635L31.3095 43.479L40.3118 38.635L49.2992 33.7995H49.3145L49.3067 33.7952Z" fill="#DCD8FF"/>
<path d="M49.3067 15.2231L49.3145 15.2192H49.2992L40.3118 10.3833L31.3095 5.53928L22.3069 10.3833L13.3195 15.2192H13.3042L13.312 15.2231L13.3042 15.2273H13.3195L22.3069 20.0632L31.3095 24.9072L40.3118 20.0632L49.2992 15.2273H49.3145L49.3067 15.2231Z" fill="#1744E4"/>
<path d="M13.3198 14.8295V34.1889L31.3099 24.5094L13.3198 14.8295Z" fill="#B8B1FF"/>
<path d="M49.2997 14.8295V34.1889L31.3101 24.5094L49.2997 14.8295Z" fill="#B8B1FF"/>
</svg>
