<svg width="48" height="48" viewBox="0 0 30 48" fill="none"
                                    xmlns="http://www.w3.org/2000/svg">
                                    <g clip-path="url(#clip0_55_94)">
                                        <path
                                            d="M14.8408 48L14.5167 46.9065V15.1749L14.8408 14.8538L29.6818 23.5603L14.8408 48Z"
                                            fill="#476FFC" />
                                        <path d="M14.841 48L0 23.5603L14.841 14.8536V30.2552V48Z" fill="#194BFB" />
                                        <path
                                            d="M14.8408 12.0648L14.6582 11.8438V0.540321L14.8408 0.0107079L29.6906 20.767L14.8408 12.0648Z"
                                            fill="#476FFC" />
                                        <path d="M14.841 0.0109539V12.0651L0 20.7672L14.841 0.0109539Z"
                                            fill="#194BFB" />
                                        <path d="M14.8408 14.8538L29.6816 23.5602L14.8408 30.2551V14.8538Z"
                                            fill="#194BFB" />
                                        <path d="M0.00012207 23.5602L14.8408 14.8538V30.2551L0.00012207 23.5602Z"
                                            fill="#1744E4" />
                                    </g>
                                    <defs>
                                        <clipPath id="clip0_55_94">
                                            <rect width="29.6907" height="48" fill="white"
                                                transform="matrix(1 0 0 -1 0 48)" />
                                        </clipPath>
                                    </defs>
                                </svg>