<svg width="40" height="41" viewBox="0 0 40 41" fill="none" xmlns="http://www.w3.org/2000/svg">
<g clip-path="url(#clip0_207_2985)">
<path fill-rule="evenodd" clip-rule="evenodd" d="M19.9219 0.5C23.8775 0.5 27.7443 1.67298 31.0333 3.87061C34.3223 6.06824 36.8857 9.19181 38.3995 12.8463C39.9132 16.5009 40.3093 20.5222 39.5376 24.4018C38.7659 28.2814 36.8611 31.8451 34.064 34.6421C31.267 37.4392 27.7033 39.344 23.8237 40.1157C19.9441 40.8874 15.9227 40.4913 12.2682 38.9776C8.61368 37.4638 5.49011 34.9004 3.29248 31.6114C1.09485 28.3224 -0.078125 24.4556 -0.078125 20.5C-0.078125 15.1957 2.02901 10.1086 5.77974 6.35786C9.53047 2.60714 14.6175 0.5 19.9219 0.5V0.5Z" fill="white"/>
<path fill-rule="evenodd" clip-rule="evenodd" d="M19.9216 4.79443L25.1834 12.6563L30.4452 20.5199L19.9216 25.8217L9.39795 20.4999L14.6598 12.6363L19.9216 4.79443ZM19.9216 27.9399L9.98159 22.6362L19.9216 36.2053L29.8616 22.6362L19.9216 27.9399Z" fill="#343434"/>
<path fill-rule="evenodd" clip-rule="evenodd" d="M19.9219 4.79443L25.1837 12.6363L30.4455 20.4999L19.9219 16.5272V4.79443Z" fill="#343434"/>
<path fill-rule="evenodd" clip-rule="evenodd" d="M19.9219 27.9401L29.8819 22.6365L19.9219 36.2256V27.9401Z" fill="#313131"/>
<path fill-rule="evenodd" clip-rule="evenodd" d="M19.9219 16.5273L30.4455 20.5001L19.9219 25.8019V16.5273Z" fill="#151515"/>
<path fill-rule="evenodd" clip-rule="evenodd" d="M19.9216 4.79443L14.6598 12.6363L9.39795 20.4999L19.9216 16.5272V4.79443Z" fill="#8C8C8C"/>
<path fill-rule="evenodd" clip-rule="evenodd" d="M19.9219 27.9401L9.98193 22.6365L19.9219 36.2256V27.9401Z" fill="#8A8A8A"/>
<path fill-rule="evenodd" clip-rule="evenodd" d="M19.9216 16.5273L9.39795 20.5001L19.9216 25.8019V16.5273Z" fill="#353535"/>
</g>
<defs>
<clipPath id="clip0_207_2985">
<rect width="40" height="40" fill="white" transform="translate(0 0.5)"/>
</clipPath>
</defs>
</svg>
