<svg width="18" height="20" viewBox="0 0 18 20" fill="none" xmlns="http://www.w3.org/2000/svg">
<g clip-path="url(#clip0_348_36)">
<path fill-rule="evenodd" clip-rule="evenodd" d="M17.1875 8.26594V15.5939C17.1875 17.6821 15.5086 19.375 13.4375 19.375H4.0625C1.99143 19.375 0.3125 17.6822 0.3125 15.5939V8.26594C0.3125 7.13066 0.818417 6.05547 1.6905 5.33737L6.37799 1.47751C7.75841 0.34083 9.74159 0.340828 11.122 1.47751L15.8095 5.33737C16.6816 6.05547 17.1875 7.13066 17.1875 8.26594ZM6.875 14.9219C6.48667 14.9219 6.17188 15.2367 6.17188 15.625C6.17188 16.0133 6.48667 16.3281 6.875 16.3281H10.625C11.0133 16.3281 11.3281 16.0133 11.3281 15.625C11.3281 15.2367 11.0133 14.9219 10.625 14.9219H6.875Z" fill="white"/>
</g>
<defs>
<clipPath id="clip0_348_36">
<rect width="17.5" height="20" fill="white"/>
</clipPath>
</defs>
</svg>
