<svg width="25" height="24" viewBox="0 0 25 24" fill="none" xmlns="http://www.w3.org/2000/svg">
<path d="M14 6.50001C14 6.79668 13.912 7.08669 13.7472 7.33336C13.5824 7.58003 13.3481 7.77229 13.074 7.88582C12.7999 7.99936 12.4983 8.02906 12.2074 7.97118C11.9164 7.91331 11.6491 7.77044 11.4393 7.56067C11.2296 7.35089 11.0867 7.08361 11.0288 6.79264C10.971 6.50167 11.0007 6.20007 11.1142 5.92598C11.2277 5.65189 11.42 5.41762 11.6667 5.2528C11.9133 5.08798 12.2033 5.00001 12.5 5.00001C12.8978 5.00001 13.2794 5.15804 13.5607 5.43934C13.842 5.72065 14 6.10218 14 6.50001ZM24.5 12C24.5 9.62663 23.7962 7.30655 22.4776 5.33316C21.1591 3.35977 19.2849 1.8217 17.0922 0.913451C14.8995 0.00519943 12.4867 -0.232441 10.1589 0.230582C7.83115 0.693605 5.69295 1.83649 4.01472 3.51472C2.33649 5.19295 1.1936 7.33115 0.730582 9.65892C0.267559 11.9867 0.505199 14.3995 1.41345 16.5922C2.3217 18.7849 3.85977 20.6591 5.83316 21.9776C7.80655 23.2962 10.1266 24 12.5 24H24.5V12ZM22.5 12V22H12.5C10.5222 22 8.58879 21.4135 6.9443 20.3147C5.29981 19.2159 4.01809 17.6541 3.26121 15.8268C2.50433 13.9996 2.3063 11.9889 2.69215 10.0491C3.078 8.10929 4.03041 6.32746 5.42894 4.92894C6.82746 3.53041 8.60929 2.578 10.5491 2.19215C12.4889 1.8063 14.4996 2.00433 16.3268 2.76121C18.1541 3.51809 19.7159 4.79981 20.8147 6.4443C21.9135 8.08879 22.5 10.0222 22.5 12ZM14.5 12C14.5 11.4696 14.2893 10.9609 13.9142 10.5858C13.5391 10.2107 13.0304 10 12.5 10H10.5V12H12.5V19H14.5V12Z" fill="#987B31"/>
</svg>
