<svg width="24" height="24" viewBox="0 0 28 28" fill="none"
                                    xmlns="http://www.w3.org/2000/svg">
                                    <path fill-rule="evenodd" clip-rule="evenodd"
                                        d="M11.0005 10.4635H15.3335V12.6218C15.9576 11.3805 17.5583 10.2652 19.9628 10.2652C24.5723 10.2652 25.6666 12.7362 25.6666 17.2698V25.6663H21V18.3023C21 15.7205 20.3758 14.2645 18.7868 14.2645C16.583 14.2645 15.6671 15.8337 15.6671 18.3012V25.6663H11.0005V10.4635ZM2.99831 25.468H7.66498V10.2652H2.99831V25.468ZM8.33348 5.30801C8.33365 5.69916 8.25608 6.08645 8.10527 6.44736C7.95445 6.80827 7.73341 7.13561 7.45498 7.41034C6.89078 7.97107 6.12709 8.28494 5.33165 8.28301C4.5376 8.28248 3.77568 7.96941 3.21065 7.41151C2.93323 7.13584 2.71293 6.80814 2.56238 6.44718C2.41183 6.08622 2.33399 5.6991 2.33331 5.30801C2.33331 4.51818 2.64831 3.76217 3.21181 3.20451C3.77635 2.64586 4.53859 2.33266 5.33281 2.33301C6.12848 2.33301 6.89148 2.64684 7.45498 3.20451C8.01731 3.76217 8.33348 4.51818 8.33348 5.30801Z"
                                        fill="currentColor" />
                                </svg>