<svg xmlns="http://www.w3.org/2000/svg" viewBox="0 0 219.5 66.7"><defs><style>.cls-1{fill:#fff;}</style></defs><g id="Layer_2" data-name="Layer 2"><g id="Layer_1-2" data-name="Layer 1"><g id="Layer_1-3" data-name="Layer 1"><path class="cls-1" d="M29.7,31.8,17.1,40V27.4l12.6-8.2Z"/><path class="cls-1" d="M29.7,31.8,42.3,40V27.4L29.7,19.2Z"/><path class="cls-1" d="M42.3,40.1,29.7,48.5,17.1,40.1l12.6-8.2Z"/><path class="cls-1" d="M0,49.7l10.8-5.4V10L0,19.3Z"/><path class="cls-1" d="M12.8,58.1,0,49.7l10.8-5.4,12.6,7.3Z"/><path class="cls-1" d="M30.9,0,30,12,59.4,29.7,57,15.7Z"/><path class="cls-1" d="M17.2,6.6,31,0l-.9,12L17.3,19.1Z"/><path class="cls-1" d="M58.4,51.1,48.2,44.6,18.8,62.3l13.5,4.4Z"/><path class="cls-1" d="M59,35.9l-.6,15.3L48.2,44.7l-.3-14.6Z"/><path class="cls-1" d="M66.5,49.4V19.9H77a6.15,6.15,0,0,1,4.3,1.3,4.68,4.68,0,0,1,1.5,3.7v3.3a6.05,6.05,0,0,1-.4,2.4,4.18,4.18,0,0,1-1.1,1.8,4.83,4.83,0,0,1-1.4.9,10.46,10.46,0,0,1-1.7.4h0a9.85,9.85,0,0,1,1.7.2,3.68,3.68,0,0,1,1.5.8,3.52,3.52,0,0,1,1.3,1.8,7.78,7.78,0,0,1,.5,2.8v4.1a8.25,8.25,0,0,1-.8,3.8A4.58,4.58,0,0,1,80,49.1a12.5,12.5,0,0,1-3.6.5H66.5Zm5.9-16.9h2.3a2.2,2.2,0,0,0,1.8-.8,4.11,4.11,0,0,0,.7-2.8v-3a3.22,3.22,0,0,0-.6-2.2,2.13,2.13,0,0,0-1.5-.7H72.3v9.5Zm0,13.9h2.7a2.13,2.13,0,0,0,1.2-.3,2.09,2.09,0,0,0,.8-1,6.08,6.08,0,0,0,.3-2.2V39.4c0-1.3-.2-2.2-.7-2.6a2.61,2.61,0,0,0-1.8-.6H72.4Z"/><path class="cls-1" d="M86.8,49.4V19.9h5.8V45.4h6.7v4Z"/><path class="cls-1" d="M109.6,50a14,14,0,0,1-4.3-.6,5.22,5.22,0,0,1-2.9-2.4,11,11,0,0,1-1-5.4V26.1a6.91,6.91,0,0,1,1-4.1,5.11,5.11,0,0,1,2.9-2,14,14,0,0,1,4.3-.6,14.42,14.42,0,0,1,4.3.6,6.37,6.37,0,0,1,3,2,6.89,6.89,0,0,1,1.1,4.1V41.5a11.34,11.34,0,0,1-1.1,5.5,5.11,5.11,0,0,1-3,2.4A14,14,0,0,1,109.6,50Zm0-3.4a5.07,5.07,0,0,0,1.3-.2,2,2,0,0,0,.9-.9,4,4,0,0,0,.3-1.7V25.9a4,4,0,0,0-.3-1.7,2,2,0,0,0-.9-.9,2.74,2.74,0,0,0-1.3-.2,5.07,5.07,0,0,0-1.3.2,2,2,0,0,0-.9.9,4,4,0,0,0-.3,1.7V43.8a4,4,0,0,0,.3,1.7,2,2,0,0,0,.9.9A5.07,5.07,0,0,0,109.6,46.6Z"/><path class="cls-1" d="M129.8,50a14,14,0,0,1-4.3-.6,5.22,5.22,0,0,1-2.9-2.4,10.9,10.9,0,0,1-1.1-5.4V26.1a6.89,6.89,0,0,1,1.1-4.1,5.36,5.36,0,0,1,3-2,14.63,14.63,0,0,1,4.4-.6,13.52,13.52,0,0,1,4.3.6,5.36,5.36,0,0,1,2.8,2,6.91,6.91,0,0,1,1,4.1v6.1h-5.9V25.9a4.18,4.18,0,0,0-.3-1.8,1.55,1.55,0,0,0-.8-.8,5,5,0,0,0-1.2-.2,3.73,3.73,0,0,0-1.2.2c-.4.1-.6.4-.9.8a4.18,4.18,0,0,0-.3,1.8V43.8a4.18,4.18,0,0,0,.3,1.8,2,2,0,0,0,.9.9,5,5,0,0,0,1.2.2,3.73,3.73,0,0,0,1.2-.2,1.45,1.45,0,0,0,.8-.9,4.18,4.18,0,0,0,.3-1.8V37.9H138v3.6a11.48,11.48,0,0,1-1,5.5,5,5,0,0,1-2.8,2.4A14.18,14.18,0,0,1,129.8,50Z"/><path class="cls-1" d="M141.7,49.4V19.9h5.8V49.4Zm11.7,0L147.8,34l5.6-14.2h6.2l-6,14.2,6.2,15.4Z"/><path class="cls-1" d="M160.5,49.4l5.3-29.5h8.3l5.2,29.5h-6.5l-.9-5.5h-4.3l-.8,5.5Zm7.2-8.3h4.2l-2-16Z"/><path class="cls-1" d="M181.8,49.4V19.9h10.8a6.26,6.26,0,0,1,4.4,1.3,4.68,4.68,0,0,1,1.5,3.7v4.6a6.55,6.55,0,0,1-1.2,4,5.23,5.23,0,0,1-3.9,1.9,3.86,3.86,0,0,1,2.4,1.1,8.15,8.15,0,0,1,1.3,2.8l2.8,10.2h-6.5l-2.2-9.8a7.71,7.71,0,0,0-.7-2,1.17,1.17,0,0,0-1.1-.8h-1.7V49.5h-5.9Zm6-16.7h2.4a2.48,2.48,0,0,0,2-.8,4,4,0,0,0,.6-2.5V25.9a3,3,0,0,0-.6-2.2,2.2,2.2,0,0,0-1.7-.6h-2.8v9.6Z"/><path class="cls-1" d="M202.8,49.4V19.9h10.5a6.15,6.15,0,0,1,4.3,1.3,4.68,4.68,0,0,1,1.5,3.7v3.3a6.05,6.05,0,0,1-.4,2.4,4.18,4.18,0,0,1-1.1,1.8,4.83,4.83,0,0,1-1.4.9,10.46,10.46,0,0,1-1.7.4h0a9.85,9.85,0,0,1,1.7.2,3.68,3.68,0,0,1,1.5.8,3.52,3.52,0,0,1,1.3,1.8,7.78,7.78,0,0,1,.5,2.8v4.1a8.25,8.25,0,0,1-.8,3.8,4.35,4.35,0,0,1-2.3,1.9,12.5,12.5,0,0,1-3.6.5h-10Zm5.8-16.9h2.3a2.2,2.2,0,0,0,1.8-.8,4.11,4.11,0,0,0,.7-2.8v-3a3.22,3.22,0,0,0-.6-2.2,2.13,2.13,0,0,0-1.5-.7h-2.8v9.5Zm0,13.9h2.7a2.13,2.13,0,0,0,1.2-.3,2.09,2.09,0,0,0,.8-1,6.08,6.08,0,0,0,.3-2.2V39.4c0-1.3-.2-2.2-.7-2.6a2.44,2.44,0,0,0-1.8-.6h-2.5Z"/></g></g></g></svg>