<svg width="141" height="36" viewBox="0 0 141 36" fill="none" xmlns="http://www.w3.org/2000/svg">
<path d="M16.4348 17.3534L11.1683 20.8015V15.535L16.4348 12.0913V17.3578V17.3534Z" fill="#194BFB"/>
<path d="M16.4347 17.3534L21.7011 20.8015V15.535L16.4347 12.0913V17.3534Z" fill="#1744E4"/>
<path d="M21.7013 20.8015L16.4348 24.3124L11.1683 20.8015L16.4348 17.3534L21.7013 20.8015Z" fill="#1235B2"/>
<path d="M4 24.8318L8.51014 22.5789V8.19269L4 12.0913V24.8318Z" fill="#194BFB"/>
<path d="M9.35131 28.3457L4 24.8318L8.51014 22.5789L13.8015 25.629L9.35131 28.3457Z" fill="#1235B2"/>
<path d="M16.9482 4.00732L16.5562 9.03387L28.8767 16.4537L27.8527 10.5772L16.9482 4.00732Z" fill="#194BFB"/>
<path d="M11.1755 6.77952L16.9482 4L16.5561 9.02654L11.2121 11.9875L11.1755 6.77952Z" fill="#1235B2"/>
<path d="M28.4305 25.4374L24.1706 22.7354L11.8544 30.1465L17.5246 32L28.4305 25.4374Z" fill="#194BFB"/>
<path d="M28.6924 19.0372L28.4422 25.4374L24.1881 22.7354L24.0769 16.6234L28.6924 19.0372Z" fill="#1235B2"/>
<path d="M41.0047 27V24.336H45.3967C46.1807 24.336 46.7887 24.096 47.2207 23.616C47.6687 23.136 47.8927 22.568 47.8927 21.912C47.8927 21.464 47.7967 21.056 47.6047 20.688C47.4127 20.32 47.1247 20.032 46.7407 19.824C46.3727 19.6 45.9247 19.488 45.3967 19.488H41.0047V16.848H45.0367C45.7087 16.848 46.2447 16.68 46.6447 16.344C47.0607 16.008 47.2687 15.504 47.2687 14.832C47.2687 14.144 47.0607 13.632 46.6447 13.296C46.2447 12.96 45.7087 12.792 45.0367 12.792H41.0047V10.128H45.4207C46.5407 10.128 47.4767 10.336 48.2287 10.752C48.9967 11.152 49.5727 11.688 49.9567 12.36C50.3407 13.016 50.5327 13.736 50.5327 14.52C50.5327 15.48 50.2367 16.312 49.6447 17.016C49.0687 17.704 48.2207 18.216 47.1007 18.552L47.2447 17.496C48.4927 17.848 49.4527 18.432 50.1247 19.248C50.8127 20.048 51.1567 21.016 51.1567 22.152C51.1567 23.048 50.9327 23.864 50.4847 24.6C50.0527 25.32 49.4127 25.904 48.5647 26.352C47.7327 26.784 46.7167 27 45.5167 27H41.0047ZM38.6047 27V10.128H41.8447V27H38.6047ZM53.4093 27V9.648H56.5533V27H53.4093ZM64.787 27.24C63.619 27.24 62.563 26.976 61.619 26.448C60.691 25.904 59.947 25.176 59.387 24.264C58.843 23.336 58.571 22.304 58.571 21.168C58.571 20.032 58.843 19.016 59.387 18.12C59.931 17.208 60.675 16.488 61.619 15.96C62.563 15.416 63.611 15.144 64.763 15.144C65.947 15.144 67.003 15.416 67.931 15.96C68.875 16.488 69.619 17.208 70.163 18.12C70.707 19.016 70.979 20.032 70.979 21.168C70.979 22.304 70.707 23.336 70.163 24.264C69.619 25.176 68.875 25.904 67.931 26.448C67.003 26.976 65.955 27.24 64.787 27.24ZM64.763 24.312C65.355 24.312 65.875 24.184 66.323 23.928C66.787 23.656 67.139 23.288 67.379 22.824C67.635 22.344 67.763 21.8 67.763 21.192C67.763 20.584 67.635 20.048 67.379 19.584C67.123 19.12 66.771 18.76 66.323 18.504C65.875 18.232 65.355 18.096 64.763 18.096C64.187 18.096 63.675 18.232 63.227 18.504C62.779 18.76 62.427 19.12 62.171 19.584C61.915 20.048 61.787 20.584 61.787 21.192C61.787 21.8 61.915 22.344 62.171 22.824C62.427 23.288 62.779 23.656 63.227 23.928C63.675 24.184 64.187 24.312 64.763 24.312ZM78.4751 27.24C77.2911 27.24 76.2271 26.976 75.2831 26.448C74.3391 25.92 73.5951 25.2 73.0511 24.288C72.5071 23.376 72.2351 22.352 72.2351 21.216C72.2351 20.064 72.5071 19.032 73.0511 18.12C73.5951 17.208 74.3391 16.488 75.2831 15.96C76.2431 15.416 77.3071 15.144 78.4751 15.144C79.3871 15.144 80.2271 15.312 80.9951 15.648C81.7631 15.984 82.4271 16.464 82.9871 17.088L80.9711 19.128C80.6671 18.792 80.2991 18.536 79.8671 18.36C79.4511 18.184 78.9871 18.096 78.4751 18.096C77.8991 18.096 77.3791 18.232 76.9151 18.504C76.4671 18.76 76.1071 19.12 75.8351 19.584C75.5791 20.032 75.4511 20.568 75.4511 21.192C75.4511 21.8 75.5791 22.344 75.8351 22.824C76.1071 23.288 76.4671 23.656 76.9151 23.928C77.3791 24.184 77.8991 24.312 78.4751 24.312C79.0031 24.312 79.4751 24.224 79.8911 24.048C80.3231 23.856 80.6911 23.584 80.9951 23.232L83.0351 25.272C82.4431 25.912 81.7631 26.4 80.9951 26.736C80.2271 27.072 79.3871 27.24 78.4751 27.24ZM92.2076 27L87.7196 21.024L92.1836 15.408H95.8076L90.5756 21.744L90.6956 20.208L96.0476 27H92.2076ZM84.8156 27V9.648H87.9596V27H84.8156ZM101.804 27.24C100.748 27.24 99.7962 26.976 98.9482 26.448C98.1002 25.92 97.4362 25.2 96.9562 24.288C96.4762 23.376 96.2362 22.352 96.2362 21.216C96.2362 20.064 96.4762 19.032 96.9562 18.12C97.4362 17.208 98.1002 16.488 98.9482 15.96C99.7962 15.432 100.748 15.168 101.804 15.168C102.636 15.168 103.38 15.336 104.036 15.672C104.692 16.008 105.212 16.48 105.596 17.088C105.996 17.68 106.212 18.352 106.244 19.104V23.28C106.212 24.048 105.996 24.728 105.596 25.32C105.212 25.912 104.692 26.384 104.036 26.736C103.38 27.072 102.636 27.24 101.804 27.24ZM102.38 24.336C103.26 24.336 103.972 24.048 104.516 23.472C105.06 22.88 105.332 22.12 105.332 21.192C105.332 20.584 105.204 20.048 104.948 19.584C104.708 19.104 104.364 18.736 103.916 18.48C103.484 18.208 102.972 18.072 102.38 18.072C101.804 18.072 101.292 18.208 100.844 18.48C100.412 18.736 100.068 19.104 99.8122 19.584C99.5722 20.048 99.4522 20.584 99.4522 21.192C99.4522 21.816 99.5722 22.368 99.8122 22.848C100.068 23.312 100.412 23.68 100.844 23.952C101.292 24.208 101.804 24.336 102.38 24.336ZM105.164 27V23.88L105.668 21.048L105.164 18.264V15.408H108.284V27H105.164ZM111.066 27V15.408H114.21V27H111.066ZM114.21 20.592L112.986 19.776C113.13 18.352 113.546 17.232 114.234 16.416C114.922 15.584 115.914 15.168 117.21 15.168C117.77 15.168 118.274 15.264 118.722 15.456C119.17 15.632 119.578 15.928 119.946 16.344L117.978 18.6C117.802 18.408 117.586 18.264 117.33 18.168C117.09 18.072 116.81 18.024 116.49 18.024C115.818 18.024 115.266 18.24 114.834 18.672C114.418 19.088 114.21 19.728 114.21 20.592ZM127.224 27.24C126.392 27.24 125.64 27.064 124.968 26.712C124.296 26.36 123.76 25.88 123.36 25.272C122.96 24.664 122.744 23.984 122.712 23.232V19.104C122.744 18.352 122.96 17.68 123.36 17.088C123.776 16.48 124.32 16.008 124.992 15.672C125.664 15.336 126.408 15.168 127.224 15.168C128.296 15.168 129.256 15.432 130.104 15.96C130.952 16.488 131.616 17.208 132.096 18.12C132.592 19.032 132.84 20.064 132.84 21.216C132.84 22.352 132.592 23.376 132.096 24.288C131.616 25.2 130.952 25.92 130.104 26.448C129.256 26.976 128.296 27.24 127.224 27.24ZM126.696 24.336C127.272 24.336 127.776 24.208 128.208 23.952C128.656 23.68 129 23.312 129.24 22.848C129.496 22.368 129.624 21.816 129.624 21.192C129.624 20.584 129.496 20.048 129.24 19.584C129 19.104 128.656 18.736 128.208 18.48C127.76 18.208 127.248 18.072 126.672 18.072C126.096 18.072 125.584 18.208 125.136 18.48C124.704 18.736 124.36 19.104 124.104 19.584C123.864 20.048 123.744 20.584 123.744 21.192C123.744 21.816 123.864 22.368 124.104 22.848C124.36 23.312 124.712 23.68 125.16 23.952C125.608 24.208 126.12 24.336 126.696 24.336ZM120.792 27V9.648H123.936V18.264L123.408 21.048L123.912 23.88V27H120.792ZM136.71 27.24C136.134 27.24 135.662 27.048 135.294 26.664C134.926 26.28 134.742 25.808 134.742 25.248C134.742 24.688 134.926 24.216 135.294 23.832C135.662 23.448 136.134 23.256 136.71 23.256C137.27 23.256 137.734 23.448 138.102 23.832C138.47 24.216 138.654 24.688 138.654 25.248C138.654 25.808 138.47 26.28 138.102 26.664C137.734 27.048 137.27 27.24 136.71 27.24Z" fill="#1A202C"/>
</svg>
