<svg width="21" height="24" viewBox="0 0 25 28" fill="none" xmlns="http://www.w3.org/2000/svg">
    <path d="M4.5675 8.47499C4.57975 8.33297 4.56334 8.18957 4.51958 8.05627C4.47582 7.92297 4.40593 7.80347 4.3155 7.70733L2.4475 5.06249V4.66699H8.2455L12.7275 16.2228L16.6675 4.66699H22.1955V5.06249L20.5985 6.86033C20.5308 6.92128 20.4786 7.00253 20.4474 7.09541C20.4163 7.18829 20.4073 7.2893 20.4215 7.38766V20.6107C20.4073 20.709 20.4163 20.81 20.4474 20.9029C20.4786 20.9958 20.5308 21.077 20.5985 21.138L22.1585 22.937V23.3337H14.3145V22.9382L15.9305 21.0948C16.0895 20.9082 16.0895 20.8533 16.0895 20.5687V9.87966L11.5975 23.2893H10.9915L5.7615 9.87966V18.8677C5.7185 19.2445 5.8255 19.626 6.0515 19.899L8.1525 22.895V23.2893H2.1955V22.895L4.2955 19.899C4.40661 19.7637 4.48907 19.6 4.5363 19.4209C4.58353 19.2419 4.59421 19.0524 4.5675 18.8677V8.47499Z" fill="currentColor" />
</svg>