<svg width="24" height="25" viewBox="0 0 24 25" fill="none" xmlns="http://www.w3.org/2000/svg">
<g clip-path="url(#clip0_288_14232)">
<path d="M19 1.5H5C3.67441 1.50159 2.40356 2.02888 1.46622 2.96622C0.528882 3.90356 0.00158786 5.17441 0 6.5L0 18.5C0.00158786 19.8256 0.528882 21.0964 1.46622 22.0338C2.40356 22.9711 3.67441 23.4984 5 23.5H19C20.3256 23.4984 21.5964 22.9711 22.5338 22.0338C23.4711 21.0964 23.9984 19.8256 24 18.5V6.5C23.9984 5.17441 23.4711 3.90356 22.5338 2.96622C21.5964 2.02888 20.3256 1.50159 19 1.5ZM5 3.5H19C19.7956 3.5 20.5587 3.81607 21.1213 4.37868C21.6839 4.94129 22 5.70435 22 6.5V7.5H2V6.5C2 5.70435 2.31607 4.94129 2.87868 4.37868C3.44129 3.81607 4.20435 3.5 5 3.5ZM19 21.5H5C4.20435 21.5 3.44129 21.1839 2.87868 20.6213C2.31607 20.0587 2 19.2956 2 18.5V9.5H22V18.5C22 19.2956 21.6839 20.0587 21.1213 20.6213C20.5587 21.1839 19.7956 21.5 19 21.5ZM19 13.5C19 13.7652 18.8946 14.0196 18.7071 14.2071C18.5196 14.3946 18.2652 14.5 18 14.5H6C5.73478 14.5 5.48043 14.3946 5.29289 14.2071C5.10536 14.0196 5 13.7652 5 13.5C5 13.2348 5.10536 12.9804 5.29289 12.7929C5.48043 12.6054 5.73478 12.5 6 12.5H18C18.2652 12.5 18.5196 12.6054 18.7071 12.7929C18.8946 12.9804 19 13.2348 19 13.5ZM15 17.5C15 17.7652 14.8946 18.0196 14.7071 18.2071C14.5196 18.3946 14.2652 18.5 14 18.5H6C5.73478 18.5 5.48043 18.3946 5.29289 18.2071C5.10536 18.0196 5 17.7652 5 17.5C5 17.2348 5.10536 16.9804 5.29289 16.7929C5.48043 16.6054 5.73478 16.5 6 16.5H14C14.2652 16.5 14.5196 16.6054 14.7071 16.7929C14.8946 16.9804 15 17.2348 15 17.5ZM3 5.5C3 5.30222 3.05865 5.10888 3.16853 4.94443C3.27841 4.77998 3.43459 4.65181 3.61732 4.57612C3.80004 4.50043 4.00111 4.48063 4.19509 4.51921C4.38907 4.5578 4.56725 4.65304 4.70711 4.79289C4.84696 4.93275 4.9422 5.11093 4.98079 5.30491C5.01937 5.49889 4.99957 5.69996 4.92388 5.88268C4.84819 6.06541 4.72002 6.22159 4.55557 6.33147C4.39112 6.44135 4.19778 6.5 4 6.5C3.73478 6.5 3.48043 6.39464 3.29289 6.20711C3.10536 6.01957 3 5.76522 3 5.5ZM6 5.5C6 5.30222 6.05865 5.10888 6.16853 4.94443C6.27841 4.77998 6.43459 4.65181 6.61732 4.57612C6.80004 4.50043 7.00111 4.48063 7.19509 4.51921C7.38907 4.5578 7.56725 4.65304 7.70711 4.79289C7.84696 4.93275 7.9422 5.11093 7.98079 5.30491C8.01937 5.49889 7.99957 5.69996 7.92388 5.88268C7.84819 6.06541 7.72002 6.22159 7.55557 6.33147C7.39112 6.44135 7.19778 6.5 7 6.5C6.73478 6.5 6.48043 6.39464 6.29289 6.20711C6.10536 6.01957 6 5.76522 6 5.5ZM9 5.5C9 5.30222 9.05865 5.10888 9.16853 4.94443C9.27841 4.77998 9.43459 4.65181 9.61732 4.57612C9.80004 4.50043 10.0011 4.48063 10.1951 4.51921C10.3891 4.5578 10.5673 4.65304 10.7071 4.79289C10.847 4.93275 10.9422 5.11093 10.9808 5.30491C11.0194 5.49889 10.9996 5.69996 10.9239 5.88268C10.8482 6.06541 10.72 6.22159 10.5556 6.33147C10.3911 6.44135 10.1978 6.5 10 6.5C9.73478 6.5 9.48043 6.39464 9.29289 6.20711C9.10536 6.01957 9 5.76522 9 5.5Z" fill="#374957"/>
</g>
<defs>
<clipPath id="clip0_288_14232">
<rect width="24" height="24" fill="white" transform="translate(0 0.5)"/>
</clipPath>
</defs>
</svg>
