<svg width="20" height="20" viewBox="0 0 20 20" fill="none" xmlns="http://www.w3.org/2000/svg">
<path d="M16.8773 12.7814C17.0327 12.3975 16.8474 11.9602 16.4635 11.8048C16.0795 11.6494 15.6423 11.8346 15.4869 12.2186L16.8773 12.7814ZM3.12273 7.2186C2.96731 7.60255 3.15257 8.03979 3.53652 8.19521C3.92047 8.35063 4.35772 8.16537 4.51313 7.78142L3.12273 7.2186ZM17.4167 10C17.4167 5.9039 14.0961 2.58334 10 2.58334V4.08334C13.2677 4.08334 15.9167 6.73233 15.9167 10H17.4167ZM2.58333 10C2.58333 14.0961 5.90389 17.4167 10 17.4167V15.9167C6.73231 15.9167 4.08333 13.2677 4.08333 10H2.58333ZM10 17.4167C13.1137 17.4167 15.7776 15.4981 16.8773 12.7814L15.4869 12.2186C14.6086 14.3883 12.4819 15.9167 10 15.9167V17.4167ZM10 2.58334C6.88625 2.58334 4.22241 4.50193 3.12273 7.2186L4.51313 7.78142C5.39141 5.61171 7.51812 4.08334 10 4.08334V2.58334Z" fill="white"/>
<path d="M11.6667 8.33333C11.6667 7.41286 10.9205 6.66667 10 6.66667C9.07953 6.66667 8.33333 7.41286 8.33333 8.33333C8.33333 9.25381 9.07953 10 10 10" stroke="white" stroke-width="1.5" stroke-linecap="round"/>
<path d="M10 10C10.9205 10 11.6667 10.7462 11.6667 11.6667C11.6667 12.5872 10.9205 13.3333 10 13.3333C9.07953 13.3333 8.33333 12.5872 8.33333 11.6667" stroke="white" stroke-width="1.5" stroke-linecap="round"/>
<path d="M10 5.41666V6.66666" stroke="white" stroke-width="1.5" stroke-linecap="round" stroke-linejoin="round"/>
<path d="M10 13.3333V14.5833" stroke="white" stroke-width="1.5" stroke-linecap="round" stroke-linejoin="round"/>
<path d="M15 9.16667L15.7454 9.53934C16.31 9.82166 16.9857 9.76074 17.4907 9.38197L18.3333 8.75" stroke="white" stroke-width="1.5" stroke-linecap="round" stroke-linejoin="round"/>
<path d="M1.66667 10.8333L2.41202 10.4607C2.97666 10.1783 3.65235 10.2393 4.15738 10.618L5 11.25" stroke="white" stroke-width="1.5" stroke-linecap="round" stroke-linejoin="round"/>
</svg>
