<svg width="18" height="18" viewBox="0 0 18 18" fill="none" xmlns="http://www.w3.org/2000/svg">
<path d="M15.2591 11.5314C15.4145 11.1475 15.2292 10.7102 14.8453 10.5548C14.4613 10.3994 14.0241 10.5846 13.8687 10.9686L15.2591 11.5314ZM2.74093 6.46859C2.58552 6.85254 2.77078 7.28978 3.15473 7.4452C3.53868 7.60062 3.97592 7.41536 4.13134 7.03141L2.74093 6.46859ZM15.75 9C15.75 5.27208 12.7279 2.25 9 2.25V3.75C11.8995 3.75 14.25 6.1005 14.25 9H15.75ZM2.25 9C2.25 12.7279 5.27208 15.75 9 15.75V14.25C6.1005 14.25 3.75 11.8995 3.75 9H2.25ZM9 15.75C11.834 15.75 14.2583 14.0038 15.2591 11.5314L13.8687 10.9686C13.0893 12.894 11.2021 14.25 9 14.25V15.75ZM9 2.25C6.16603 2.25 3.74172 3.99624 2.74093 6.46859L4.13134 7.03141C4.91072 5.10602 6.7979 3.75 9 3.75V2.25Z" fill="#1A202C"/>
<path d="M10.5 7.5C10.5 6.67157 9.82843 6 9 6C8.17157 6 7.5 6.67157 7.5 7.5C7.5 8.32843 8.17157 9 9 9" stroke="#1A202C" stroke-width="1.5" stroke-linecap="round"/>
<path d="M9 9C9.82843 9 10.5 9.67157 10.5 10.5C10.5 11.3284 9.82843 12 9 12C8.17157 12 7.5 11.3284 7.5 10.5" stroke="#1A202C" stroke-width="1.5" stroke-linecap="round"/>
<path d="M9 4.875V6" stroke="#1A202C" stroke-width="1.5" stroke-linecap="round" stroke-linejoin="round"/>
<path d="M9 12V13.125" stroke="#1A202C" stroke-width="1.5" stroke-linecap="round" stroke-linejoin="round"/>
<path d="M13.5 8.25L14.0787 8.53934C14.6433 8.82166 15.319 8.76074 15.824 8.38197L16.5 7.875" stroke="#1A202C" stroke-width="1.5" stroke-linecap="round" stroke-linejoin="round"/>
<path d="M1.5 9.75L2.07869 9.46066C2.64333 9.17834 3.31902 9.23926 3.82405 9.61803L4.5 10.125" stroke="#1A202C" stroke-width="1.5" stroke-linecap="round" stroke-linejoin="round"/>
</svg>
