<svg width="46" height="46" viewBox="0 0 46 46" fill="none" xmlns="http://www.w3.org/2000/svg">
<circle cx="23" cy="23" r="23" fill="#E8E9EA"/>
<path fill-rule="evenodd" clip-rule="evenodd" d="M29 13H23C21.3213 13 19.8841 14.0341 19.2907 15.5H32.7092C32.1158 14.0341 30.6787 13 29 13ZM13 27V23H17C18.1046 23 19 23.8954 19 25C19 26.1046 18.1046 27 17 27H13ZM17 17H33V25C33 25.5523 32.5523 26 32 26H29C26.7909 26 25 27.7909 25 30V32C25 32.5523 24.5523 33 24 33H17C14.7909 33 13 31.2091 13 29V28.5H17C18.933 28.5 20.5 26.933 20.5 25C20.5 23.067 18.933 21.5 17 21.5H13V21C13 18.7909 14.7909 17 17 17ZM28.5303 30.8839L29.25 31.6036V28C29.25 27.5858 29.5858 27.25 30 27.25C30.4142 27.25 30.75 27.5858 30.75 28V31.6036L31.4697 30.8839C31.7626 30.591 32.2374 30.591 32.5303 30.8839C32.8232 31.1768 32.8232 31.6516 32.5303 31.9445L31.2374 33.2374C30.554 33.9209 29.446 33.9209 28.7626 33.2374L27.4697 31.9445C27.1768 31.6516 27.1768 31.1768 27.4697 30.8839C27.7626 30.591 28.2374 30.591 28.5303 30.8839Z" fill="#666A72"/>
</svg>
