<svg width="62" height="62" viewBox="0 0 62 62" fill="none" xmlns="http://www.w3.org/2000/svg">
<rect x="0.908691" y="0.577087" width="61" height="61" rx="13.496" fill="#F2F1FF"/>
<path d="M30 11.0771C25.7565 11.0771 21.6869 12.7628 18.6863 15.7634C15.6857 18.764 14 22.8336 14 27.0771C14 31.3206 15.6857 35.3902 18.6863 38.3908C21.6869 41.3914 25.7565 43.0771 30 43.0771L30 27.0771V11.0771Z" fill="#1744E4"/>
<path d="M30 43.0771C34.2435 43.0771 38.3131 41.3914 41.3137 38.3908C44.3143 35.3902 46 31.3206 46 27.0771C46 22.8336 44.3143 18.764 41.3137 15.7634C38.3131 12.7628 34.2435 11.0771 30 11.0771L30 27.0771L30 43.0771Z" fill="#B8B1FF"/>
</svg>
