<svg width="20" height="20" viewBox="0 0 20 20" fill="none" xmlns="http://www.w3.org/2000/svg">
<path fill-rule="evenodd" clip-rule="evenodd" d="M5.00001 3.33334H15C16.841 3.33334 18.3333 4.82573 18.3333 6.66668V10.8333C18.3333 11.2936 17.9602 11.6667 17.5 11.6667H15C13.1591 11.6667 11.6667 13.1591 11.6667 15V15.8333C11.6667 16.2936 11.2936 16.6667 10.8333 16.6667H5C3.15906 16.6667 1.66667 15.1743 1.66667 13.3333V6.66667C1.66667 4.82572 3.15906 3.33334 5.00001 3.33334ZM5 5.83334C5.46024 5.83334 5.83334 6.20644 5.83334 6.66668C5.83334 7.12691 5.46024 7.50001 5 7.50001C4.53977 7.50001 4.16667 7.12691 4.16667 6.66668C4.16667 6.20644 4.53977 5.83334 5 5.83334ZM11.6667 10C11.6667 9.07954 10.9205 8.33334 10 8.33334C9.07953 8.33334 8.33334 9.07954 8.33334 10C8.33334 10.9205 9.07953 11.6667 10 11.6667C10.9205 11.6667 11.6667 10.9205 11.6667 10ZM15.7366 13.7753L16.3363 14.375H13.3333C12.9882 14.375 12.7083 14.6548 12.7083 15C12.7083 15.3452 12.9882 15.625 13.3333 15.625H16.3363L15.7366 16.2247C15.4925 16.4688 15.4925 16.8645 15.7366 17.1086C15.9807 17.3527 16.3764 17.3527 16.6205 17.1086L17.6979 16.0312C18.2674 15.4617 18.2674 14.5383 17.6979 13.9688L16.6205 12.8914C16.3764 12.6473 15.9807 12.6473 15.7366 12.8914C15.4925 13.1355 15.4925 13.5312 15.7366 13.7753Z" fill="white"/>
</svg>
